%TF.GenerationSoftware,KiCad,Pcbnew,10.0.3*%
%TF.CreationDate,2026-08-11T19:50:18-04:00*%
%TF.ProjectId,AgentDeck,4167656e-7444-4656-936b-2e6b69636164,rev?*%
%TF.SameCoordinates,Original*%
%TF.FileFunction,Legend,Top*%
%TF.FilePolarity,Positive*%
%FSLAX46Y46*%
G04 Gerber Fmt 4.6, Leading zero omitted, Abs format (unit mm)*
G04 Created by KiCad (PCBNEW 10.0.3) date 2026-08-11 19:50:18*
%MOMM*%
%LPD*%
G01*
G04 APERTURE LIST*
%ADD10C,0.216666*%
%ADD11C,0.333333*%
%ADD12C,0.366666*%
%ADD13C,0.110000*%
%ADD14C,0.120000*%
%ADD15C,0.250000*%
%ADD16C,0.060000*%
%ADD17C,0.100000*%
G04 APERTURE END LIST*
D10*
G36*
X19010463Y-86593608D02*
G01*
X19079736Y-86614707D01*
X19145146Y-86650138D01*
X19203384Y-86697108D01*
X19253558Y-86754324D01*
X19296045Y-86822946D01*
X19326960Y-86897520D01*
X19345938Y-86979496D01*
X19352484Y-87070291D01*
X19345983Y-87159819D01*
X19327046Y-87241520D01*
X19296045Y-87316683D01*
X19253508Y-87385864D01*
X19203328Y-87443353D01*
X19145146Y-87490364D01*
X19079736Y-87525795D01*
X19010463Y-87546894D01*
X18935982Y-87554026D01*
X18875598Y-87547865D01*
X18818660Y-87529498D01*
X18766251Y-87500256D01*
X18719595Y-87461311D01*
X18719595Y-87919645D01*
X18424941Y-87919645D01*
X18424941Y-86877479D01*
X18719595Y-86877479D01*
X18719595Y-87263023D01*
X18764695Y-87295656D01*
X18813301Y-87314814D01*
X18866843Y-87321287D01*
X18924074Y-87313356D01*
X18971128Y-87290560D01*
X19010519Y-87252148D01*
X19038889Y-87203457D01*
X19056858Y-87143757D01*
X19063306Y-87070291D01*
X19056855Y-86996771D01*
X19038883Y-86937076D01*
X19010519Y-86888434D01*
X18971128Y-86850022D01*
X18924074Y-86827225D01*
X18866843Y-86819295D01*
X18813296Y-86825760D01*
X18764690Y-86844893D01*
X18719595Y-86877479D01*
X18424941Y-86877479D01*
X18424941Y-86601002D01*
X18708641Y-86601002D01*
X18708641Y-86691971D01*
X18757532Y-86646586D01*
X18811357Y-86613782D01*
X18870723Y-86593401D01*
X18935982Y-86586476D01*
X19010463Y-86593608D01*
G37*
G36*
X19514099Y-87539500D02*
G01*
X19514099Y-87312158D01*
X19717785Y-87312158D01*
X19717785Y-86828344D01*
X19514099Y-86828344D01*
X19514099Y-86601002D01*
X20012440Y-86601002D01*
X20012440Y-86837472D01*
X20051791Y-86754565D01*
X20094635Y-86692470D01*
X20140637Y-86647439D01*
X20194755Y-86613448D01*
X20252782Y-86593299D01*
X20316144Y-86586476D01*
X20382504Y-86591953D01*
X20441642Y-86613782D01*
X20441642Y-86877479D01*
X20405014Y-86863570D01*
X20358850Y-86852951D01*
X20263436Y-86844775D01*
X20189139Y-86853221D01*
X20119681Y-86878432D01*
X20058849Y-86918528D01*
X20012440Y-86970273D01*
X20012440Y-87312158D01*
X20227001Y-87312158D01*
X20227001Y-87539500D01*
X19514099Y-87539500D01*
G37*
G36*
X21047065Y-86459152D02*
G01*
X20998341Y-86453043D01*
X20955149Y-86435094D01*
X20916010Y-86404619D01*
X20885538Y-86365530D01*
X20867587Y-86322365D01*
X20861477Y-86273644D01*
X20867585Y-86224975D01*
X20885534Y-86181836D01*
X20916010Y-86142748D01*
X20955154Y-86112226D01*
X20998346Y-86094252D01*
X21047065Y-86088135D01*
X21095729Y-86094251D01*
X21138867Y-86112224D01*
X21177961Y-86142748D01*
X21208485Y-86181841D01*
X21226457Y-86224980D01*
X21232573Y-86273644D01*
X21226455Y-86322360D01*
X21208480Y-86365524D01*
X21177961Y-86404619D01*
X21138873Y-86435095D01*
X21095734Y-86453044D01*
X21047065Y-86459152D01*
G37*
G36*
X21294410Y-87557677D02*
G01*
X21180845Y-87548732D01*
X21092488Y-87524359D01*
X21024091Y-87486982D01*
X20971760Y-87437138D01*
X20933340Y-87373419D01*
X20908695Y-87292660D01*
X20899738Y-87190312D01*
X20899738Y-86828344D01*
X20575951Y-86828344D01*
X20575951Y-86601002D01*
X21194313Y-86601002D01*
X21194313Y-87159354D01*
X21199229Y-87210129D01*
X21212381Y-87247202D01*
X21232494Y-87273977D01*
X21260364Y-87292920D01*
X21299726Y-87305555D01*
X21354420Y-87310333D01*
X21431656Y-87303109D01*
X21514448Y-87277628D01*
X21514448Y-87515845D01*
X21480484Y-87528860D01*
X21419828Y-87544024D01*
X21354928Y-87554355D01*
X21294410Y-87557677D01*
G37*
G36*
X21697893Y-87539500D02*
G01*
X21697893Y-86601002D01*
X21992547Y-86601002D01*
X21992547Y-86728326D01*
X22052359Y-86664968D01*
X22117676Y-86621411D01*
X22189769Y-86595383D01*
X22270770Y-86586476D01*
X22330293Y-86591225D01*
X22383589Y-86604980D01*
X22431751Y-86627436D01*
X22475102Y-86658138D01*
X22511602Y-86695501D01*
X22541770Y-86740154D01*
X22563622Y-86789471D01*
X22577100Y-86844574D01*
X22581777Y-86906611D01*
X22581777Y-87539500D01*
X22287122Y-87539500D01*
X22287122Y-86992023D01*
X22281937Y-86940286D01*
X22267453Y-86898591D01*
X22244337Y-86864779D01*
X22213148Y-86838746D01*
X22175898Y-86822992D01*
X22130746Y-86817469D01*
X22078515Y-86823860D01*
X22033003Y-86842487D01*
X21992547Y-86873828D01*
X21992547Y-87539500D01*
X21697893Y-87539500D01*
G37*
G36*
X23261737Y-87557677D02*
G01*
X23166431Y-87550262D01*
X23079615Y-87528642D01*
X22999786Y-87493142D01*
X22927154Y-87444619D01*
X22866275Y-87386634D01*
X22816104Y-87318509D01*
X22778946Y-87242750D01*
X22756520Y-87161121D01*
X22748870Y-87072116D01*
X22756572Y-86981860D01*
X22779046Y-86899951D01*
X22816104Y-86824772D01*
X22866224Y-86757197D01*
X22927096Y-86699517D01*
X22999786Y-86651091D01*
X23079619Y-86615546D01*
X23166434Y-86593900D01*
X23261737Y-86586476D01*
X23358410Y-86593603D01*
X23446437Y-86614351D01*
X23527259Y-86648312D01*
X23601433Y-86694906D01*
X23662175Y-86749341D01*
X23710942Y-86811992D01*
X23489078Y-86973845D01*
X23450807Y-86916955D01*
X23398110Y-86873828D01*
X23334971Y-86846698D01*
X23263563Y-86837472D01*
X23203311Y-86845016D01*
X23151225Y-86866964D01*
X23105281Y-86903912D01*
X23070301Y-86951463D01*
X23049092Y-87006783D01*
X23041698Y-87072116D01*
X23049027Y-87136259D01*
X23070179Y-87191346D01*
X23105281Y-87239447D01*
X23151282Y-87276872D01*
X23203366Y-87299062D01*
X23263563Y-87306681D01*
X23334918Y-87297249D01*
X23398110Y-87269452D01*
X23450979Y-87225880D01*
X23489078Y-87170308D01*
X23710942Y-87332162D01*
X23662175Y-87394813D01*
X23601433Y-87449247D01*
X23527259Y-87495841D01*
X23446437Y-87529802D01*
X23358410Y-87550551D01*
X23261737Y-87557677D01*
G37*
G36*
X24416405Y-86593877D02*
G01*
X24499168Y-86615272D01*
X24573632Y-86650138D01*
X24640572Y-86697953D01*
X24696684Y-86756122D01*
X24742789Y-86825645D01*
X24776120Y-86902330D01*
X24796645Y-86987555D01*
X24803752Y-87082991D01*
X24803752Y-87146653D01*
X24130857Y-87146653D01*
X24150046Y-87195923D01*
X24177775Y-87238030D01*
X24214522Y-87273977D01*
X24257911Y-87301107D01*
X24305964Y-87317430D01*
X24360024Y-87323033D01*
X24421947Y-87317031D01*
X24475161Y-87299835D01*
X24521420Y-87271805D01*
X24561884Y-87232144D01*
X24751044Y-87401301D01*
X24688808Y-87454155D01*
X24626804Y-87494023D01*
X24564583Y-87522274D01*
X24463360Y-87548463D01*
X24345418Y-87557677D01*
X24252581Y-87550277D01*
X24167904Y-87528678D01*
X24089897Y-87493142D01*
X24018971Y-87444780D01*
X23958943Y-87386813D01*
X23908913Y-87318509D01*
X23871756Y-87242750D01*
X23849330Y-87161121D01*
X23841679Y-87072116D01*
X23848994Y-86981673D01*
X23849605Y-86979322D01*
X24132682Y-86979322D01*
X24530927Y-86979322D01*
X24514316Y-86929708D01*
X24490638Y-86889961D01*
X24459962Y-86858428D01*
X24422856Y-86834877D01*
X24380881Y-86820590D01*
X24332717Y-86815643D01*
X24284552Y-86820588D01*
X24242549Y-86834875D01*
X24205394Y-86858428D01*
X24174603Y-86889915D01*
X24150340Y-86929676D01*
X24132682Y-86979322D01*
X23849605Y-86979322D01*
X23870292Y-86899741D01*
X23905262Y-86824772D01*
X23952849Y-86756854D01*
X24010178Y-86699224D01*
X24078070Y-86651091D01*
X24153122Y-86615463D01*
X24234465Y-86593866D01*
X24323589Y-86586476D01*
X24416405Y-86593877D01*
G37*
G36*
X25587381Y-87557677D02*
G01*
X25471902Y-87548946D01*
X25382532Y-87525245D01*
X25313848Y-87489116D01*
X25261742Y-87441319D01*
X25223806Y-87380738D01*
X25199633Y-87304532D01*
X25190883Y-87208489D01*
X25190883Y-86828344D01*
X24916232Y-86828344D01*
X24916232Y-86601002D01*
X25190883Y-86601002D01*
X25190883Y-86340957D01*
X25485537Y-86280947D01*
X25485537Y-86601002D01*
X25840202Y-86601002D01*
X25840202Y-86828344D01*
X25485537Y-86828344D01*
X25485537Y-87150305D01*
X25490380Y-87208905D01*
X25502842Y-87248721D01*
X25520940Y-87274930D01*
X25547149Y-87293028D01*
X25586965Y-87305490D01*
X25645565Y-87310333D01*
X25731056Y-87304935D01*
X25845600Y-87281200D01*
X25845600Y-87519496D01*
X25719229Y-87545850D01*
X25648669Y-87554869D01*
X25587381Y-87557677D01*
G37*
G36*
X26598373Y-86593877D02*
G01*
X26681136Y-86615272D01*
X26755600Y-86650138D01*
X26822540Y-86697953D01*
X26878651Y-86756122D01*
X26924757Y-86825645D01*
X26958088Y-86902330D01*
X26978613Y-86987555D01*
X26985720Y-87082991D01*
X26985720Y-87146653D01*
X26312825Y-87146653D01*
X26332014Y-87195923D01*
X26359743Y-87238030D01*
X26396490Y-87273977D01*
X26439879Y-87301107D01*
X26487932Y-87317430D01*
X26541992Y-87323033D01*
X26603915Y-87317031D01*
X26657128Y-87299835D01*
X26703388Y-87271805D01*
X26743852Y-87232144D01*
X26933012Y-87401301D01*
X26870776Y-87454155D01*
X26808772Y-87494023D01*
X26746551Y-87522274D01*
X26645328Y-87548463D01*
X26527386Y-87557677D01*
X26434549Y-87550277D01*
X26349872Y-87528678D01*
X26271865Y-87493142D01*
X26200939Y-87444780D01*
X26140911Y-87386813D01*
X26090881Y-87318509D01*
X26053724Y-87242750D01*
X26031298Y-87161121D01*
X26023647Y-87072116D01*
X26030962Y-86981673D01*
X26031573Y-86979322D01*
X26314650Y-86979322D01*
X26712894Y-86979322D01*
X26696283Y-86929708D01*
X26672606Y-86889961D01*
X26641930Y-86858428D01*
X26604824Y-86834877D01*
X26562849Y-86820590D01*
X26514685Y-86815643D01*
X26466520Y-86820588D01*
X26424517Y-86834875D01*
X26387361Y-86858428D01*
X26356571Y-86889915D01*
X26332308Y-86929676D01*
X26314650Y-86979322D01*
X26031573Y-86979322D01*
X26052260Y-86899741D01*
X26087230Y-86824772D01*
X26134817Y-86756854D01*
X26192146Y-86699224D01*
X26260038Y-86651091D01*
X26335090Y-86615463D01*
X26416433Y-86593866D01*
X26505557Y-86586476D01*
X26598373Y-86593877D01*
G37*
G36*
X27152812Y-87539500D02*
G01*
X27152812Y-86240940D01*
X27447467Y-86199107D01*
X27447467Y-86973845D01*
X27774826Y-86601002D01*
X28100359Y-86601002D01*
X27718387Y-87021155D01*
X28127665Y-87539500D01*
X27760220Y-87539500D01*
X27447467Y-87124824D01*
X27447467Y-87539500D01*
X27152812Y-87539500D01*
G37*
G36*
X28243796Y-87539500D02*
G01*
X28243796Y-86240940D01*
X28538451Y-86199107D01*
X28538451Y-86973845D01*
X28865810Y-86601002D01*
X29191343Y-86601002D01*
X28809371Y-87021155D01*
X29218649Y-87539500D01*
X28851204Y-87539500D01*
X28538451Y-87124824D01*
X28538451Y-87539500D01*
X28243796Y-87539500D01*
G37*
G36*
X29774936Y-86459152D02*
G01*
X29726212Y-86453043D01*
X29683020Y-86435094D01*
X29643882Y-86404619D01*
X29613410Y-86365530D01*
X29595459Y-86322365D01*
X29589349Y-86273644D01*
X29595457Y-86224975D01*
X29613406Y-86181836D01*
X29643882Y-86142748D01*
X29683026Y-86112226D01*
X29726217Y-86094252D01*
X29774936Y-86088135D01*
X29823600Y-86094251D01*
X29866739Y-86112224D01*
X29905832Y-86142748D01*
X29936356Y-86181841D01*
X29954329Y-86224980D01*
X29960445Y-86273644D01*
X29954327Y-86322360D01*
X29936352Y-86365524D01*
X29905832Y-86404619D01*
X29866745Y-86435095D01*
X29823606Y-86453044D01*
X29774936Y-86459152D01*
G37*
G36*
X30022281Y-87557677D02*
G01*
X29908716Y-87548732D01*
X29820360Y-87524359D01*
X29751963Y-87486982D01*
X29699632Y-87437138D01*
X29661211Y-87373419D01*
X29636566Y-87292660D01*
X29627609Y-87190312D01*
X29627609Y-86828344D01*
X29303823Y-86828344D01*
X29303823Y-86601002D01*
X29922184Y-86601002D01*
X29922184Y-87159354D01*
X29927101Y-87210129D01*
X29940252Y-87247202D01*
X29960366Y-87273977D01*
X29988235Y-87292920D01*
X30027598Y-87305555D01*
X30082292Y-87310333D01*
X30159527Y-87303109D01*
X30242320Y-87277628D01*
X30242320Y-87515845D01*
X30208356Y-87528860D01*
X30147700Y-87544024D01*
X30082800Y-87554355D01*
X30022281Y-87557677D01*
G37*
G36*
X30864095Y-87557677D02*
G01*
X30811861Y-87551287D01*
X30766322Y-87532662D01*
X30725817Y-87501318D01*
X30694383Y-87460898D01*
X30675802Y-87415941D01*
X30669458Y-87364866D01*
X30675800Y-87313844D01*
X30694379Y-87268911D01*
X30725817Y-87228493D01*
X30766322Y-87197149D01*
X30811861Y-87178524D01*
X30864095Y-87172134D01*
X30916326Y-87178525D01*
X30961837Y-87197152D01*
X31002293Y-87228493D01*
X31033731Y-87268911D01*
X31052310Y-87313844D01*
X31058652Y-87364866D01*
X31052308Y-87415941D01*
X31033727Y-87460898D01*
X31002293Y-87501318D01*
X30961837Y-87532659D01*
X30916326Y-87551286D01*
X30864095Y-87557677D01*
G37*
G36*
X31989608Y-87557677D02*
G01*
X31894302Y-87550262D01*
X31807486Y-87528642D01*
X31727658Y-87493142D01*
X31655026Y-87444619D01*
X31594147Y-87386634D01*
X31543975Y-87318509D01*
X31506818Y-87242750D01*
X31484392Y-87161121D01*
X31476741Y-87072116D01*
X31484443Y-86981860D01*
X31506917Y-86899951D01*
X31543975Y-86824772D01*
X31594095Y-86757197D01*
X31654968Y-86699517D01*
X31727658Y-86651091D01*
X31807491Y-86615546D01*
X31894306Y-86593900D01*
X31989608Y-86586476D01*
X32086282Y-86593603D01*
X32174309Y-86614351D01*
X32255131Y-86648312D01*
X32329305Y-86694906D01*
X32390047Y-86749341D01*
X32438814Y-86811992D01*
X32216950Y-86973845D01*
X32178679Y-86916955D01*
X32125981Y-86873828D01*
X32062843Y-86846698D01*
X31991434Y-86837472D01*
X31931183Y-86845016D01*
X31879097Y-86866964D01*
X31833153Y-86903912D01*
X31798173Y-86951463D01*
X31776964Y-87006783D01*
X31769570Y-87072116D01*
X31776899Y-87136259D01*
X31798051Y-87191346D01*
X31833153Y-87239447D01*
X31879154Y-87276872D01*
X31931237Y-87299062D01*
X31991434Y-87306681D01*
X32062789Y-87297249D01*
X32125981Y-87269452D01*
X32178850Y-87225880D01*
X32216950Y-87170308D01*
X32438814Y-87332162D01*
X32390047Y-87394813D01*
X32329305Y-87449247D01*
X32255131Y-87495841D01*
X32174309Y-87529802D01*
X32086282Y-87550551D01*
X31989608Y-87557677D01*
G37*
G36*
X33137631Y-86593915D02*
G01*
X33220448Y-86615562D01*
X33296106Y-86651091D01*
X33364606Y-86699244D01*
X33422512Y-86756880D01*
X33470660Y-86824772D01*
X33506219Y-86899800D01*
X33527850Y-86981725D01*
X33535275Y-87072116D01*
X33527900Y-87161253D01*
X33506316Y-87242899D01*
X33470660Y-87318509D01*
X33422462Y-87386954D01*
X33364549Y-87444894D01*
X33296106Y-87493142D01*
X33220453Y-87528626D01*
X33137635Y-87550247D01*
X33046063Y-87557677D01*
X32955641Y-87550293D01*
X32873050Y-87528716D01*
X32796813Y-87493142D01*
X32727815Y-87444844D01*
X32669599Y-87386898D01*
X32621306Y-87318509D01*
X32585696Y-87242904D01*
X32564137Y-87161257D01*
X32556771Y-87072116D01*
X32844123Y-87072116D01*
X32850803Y-87139190D01*
X32869769Y-87195439D01*
X32900482Y-87243099D01*
X32941943Y-87280585D01*
X32989753Y-87302714D01*
X33046063Y-87310333D01*
X33102316Y-87302715D01*
X33150074Y-87280587D01*
X33191485Y-87243099D01*
X33222243Y-87195433D01*
X33241235Y-87139184D01*
X33247923Y-87072116D01*
X33241235Y-87005049D01*
X33222243Y-86948799D01*
X33191485Y-86901134D01*
X33150068Y-86863598D01*
X33102310Y-86841446D01*
X33046063Y-86833821D01*
X32989759Y-86841447D01*
X32941949Y-86863600D01*
X32900482Y-86901134D01*
X32869769Y-86948794D01*
X32850803Y-87005043D01*
X32844123Y-87072116D01*
X32556771Y-87072116D01*
X32564187Y-86981721D01*
X32585792Y-86899795D01*
X32621306Y-86824772D01*
X32669548Y-86756936D01*
X32727758Y-86699294D01*
X32796813Y-86651091D01*
X32873055Y-86615472D01*
X32955645Y-86593868D01*
X33046063Y-86586476D01*
X33137631Y-86593915D01*
G37*
G36*
X33649581Y-87539500D02*
G01*
X33649581Y-86601002D01*
X33889702Y-86601002D01*
X33889702Y-86679270D01*
X33924922Y-86638353D01*
X33961460Y-86610131D01*
X34002457Y-86592440D01*
X34047904Y-86586476D01*
X34103526Y-86593869D01*
X34152446Y-86615608D01*
X34193324Y-86650254D01*
X34224284Y-86697448D01*
X34266045Y-86647231D01*
X34311409Y-86613300D01*
X34361217Y-86593284D01*
X34417095Y-86586476D01*
X34474736Y-86594036D01*
X34523739Y-86615956D01*
X34566248Y-86652916D01*
X34597906Y-86700150D01*
X34617503Y-86756615D01*
X34624433Y-86824772D01*
X34624433Y-87539500D01*
X34384391Y-87539500D01*
X34384391Y-86902960D01*
X34378975Y-86858903D01*
X34364388Y-86827471D01*
X34340477Y-86806436D01*
X34307949Y-86799291D01*
X34279355Y-86803992D01*
X34257067Y-86817469D01*
X34257067Y-87539500D01*
X34016946Y-87539500D01*
X34016946Y-86902960D01*
X34011530Y-86858903D01*
X33996943Y-86827471D01*
X33973043Y-86806432D01*
X33940584Y-86799291D01*
X33913135Y-86803444D01*
X33889702Y-86815643D01*
X33889702Y-87539500D01*
X33649581Y-87539500D01*
G37*
D11*
G36*
X39123029Y-87830000D02*
G01*
X38644557Y-87830000D01*
X38546616Y-87446660D01*
X38009404Y-87446660D01*
X37908653Y-87830000D01*
X37449843Y-87830000D01*
X37666754Y-87074556D01*
X38107345Y-87074556D01*
X38451483Y-87074556D01*
X38280880Y-86405819D01*
X38107345Y-87074556D01*
X37666754Y-87074556D01*
X38012212Y-85871416D01*
X38560660Y-85871416D01*
X39123029Y-87830000D01*
G37*
G36*
X39987282Y-87860774D02*
G01*
X39843441Y-87847505D01*
X39710907Y-87808450D01*
X39587090Y-87743293D01*
X39478229Y-87655171D01*
X39383718Y-87542143D01*
X39303158Y-87400498D01*
X39246946Y-87246857D01*
X39211048Y-87065287D01*
X39198256Y-86850708D01*
X39211048Y-86636129D01*
X39246946Y-86454559D01*
X39303158Y-86300917D01*
X39383647Y-86159092D01*
X39477726Y-86046085D01*
X39585747Y-85958122D01*
X39708635Y-85893013D01*
X39840661Y-85853937D01*
X39984473Y-85840642D01*
X40098488Y-85849318D01*
X40205545Y-85874927D01*
X40307067Y-85917470D01*
X40404205Y-85977784D01*
X40490061Y-86051693D01*
X40565156Y-86140419D01*
X40629870Y-86245594D01*
X40683985Y-86369427D01*
X40275489Y-86506570D01*
X40243652Y-86429611D01*
X40205741Y-86370973D01*
X40162160Y-86327418D01*
X40083617Y-86283159D01*
X39998517Y-86268677D01*
X39915760Y-86282873D01*
X39841718Y-86325831D01*
X39773203Y-86403011D01*
X39727393Y-86497993D01*
X39694923Y-86641539D01*
X39682223Y-86850708D01*
X39695094Y-87059759D01*
X39728022Y-87203313D01*
X39774547Y-87298405D01*
X39844154Y-87374913D01*
X39921363Y-87418144D01*
X40009630Y-87432616D01*
X40076419Y-87422674D01*
X40137229Y-87392796D01*
X40194278Y-87340293D01*
X40239114Y-87275096D01*
X40271901Y-87198440D01*
X40292219Y-87108140D01*
X39981665Y-87108140D01*
X39981665Y-86705139D01*
X40731490Y-86705139D01*
X40731490Y-86842281D01*
X40720233Y-87055589D01*
X40688607Y-87237394D01*
X40639166Y-87392194D01*
X40566779Y-87536469D01*
X40480531Y-87651163D01*
X40380391Y-87740484D01*
X40264337Y-87806620D01*
X40134463Y-87846866D01*
X39987282Y-87860774D01*
G37*
G36*
X41010904Y-87830000D02*
G01*
X41010904Y-85871416D01*
X42365231Y-85871416D01*
X42365231Y-86274295D01*
X41492185Y-86274295D01*
X41492185Y-86646399D01*
X42043441Y-86646399D01*
X42043441Y-87038164D01*
X41492185Y-87038164D01*
X41492185Y-87427121D01*
X42376466Y-87427121D01*
X42376466Y-87830000D01*
X41010904Y-87830000D01*
G37*
G36*
X42613870Y-87830000D02*
G01*
X42613870Y-85871416D01*
X43067185Y-85871416D01*
X43637980Y-86973806D01*
X43632362Y-85871416D01*
X44029623Y-85871416D01*
X44029623Y-87830000D01*
X43604397Y-87830000D01*
X43005635Y-86685600D01*
X43011131Y-87830000D01*
X42613870Y-87830000D01*
G37*
G36*
X44759543Y-87830000D02*
G01*
X44759543Y-86274295D01*
X44199983Y-86274295D01*
X44199983Y-85871416D01*
X45800384Y-85871416D01*
X45800384Y-86274295D01*
X45240824Y-86274295D01*
X45240824Y-87830000D01*
X44759543Y-87830000D01*
G37*
G36*
X46761110Y-85884668D02*
G01*
X46902898Y-85923442D01*
X47033933Y-85987554D01*
X47150641Y-86074970D01*
X47251577Y-86185867D01*
X47337526Y-86323265D01*
X47398712Y-86473673D01*
X47437255Y-86647998D01*
X47450855Y-86850708D01*
X47437259Y-87053334D01*
X47398720Y-87227665D01*
X47337526Y-87378150D01*
X47251589Y-87515477D01*
X47150654Y-87626380D01*
X47033933Y-87713862D01*
X46902898Y-87777973D01*
X46761110Y-87816748D01*
X46605897Y-87830000D01*
X45984665Y-87830000D01*
X45984665Y-87427121D01*
X46465946Y-87427121D01*
X46569505Y-87427121D01*
X46648253Y-87418289D01*
X46720241Y-87392177D01*
X46787356Y-87347955D01*
X46850750Y-87283018D01*
X46898035Y-87209097D01*
X46934344Y-87115458D01*
X46958180Y-86997735D01*
X46966888Y-86850708D01*
X46958126Y-86702031D01*
X46934206Y-86583708D01*
X46897892Y-86490245D01*
X46850750Y-86417055D01*
X46787439Y-86352790D01*
X46720349Y-86308967D01*
X46648330Y-86283062D01*
X46569505Y-86274295D01*
X46465946Y-86274295D01*
X46465946Y-87427121D01*
X45984665Y-87427121D01*
X45984665Y-85871416D01*
X46605897Y-85871416D01*
X46761110Y-85884668D01*
G37*
G36*
X47724651Y-87830000D02*
G01*
X47724651Y-85871416D01*
X49078978Y-85871416D01*
X49078978Y-86274295D01*
X48205932Y-86274295D01*
X48205932Y-86646399D01*
X48757188Y-86646399D01*
X48757188Y-87038164D01*
X48205932Y-87038164D01*
X48205932Y-87427121D01*
X49090213Y-87427121D01*
X49090213Y-87830000D01*
X47724651Y-87830000D01*
G37*
G36*
X50063521Y-87860774D02*
G01*
X49919708Y-87847479D01*
X49787682Y-87808402D01*
X49664794Y-87743293D01*
X49556752Y-87655268D01*
X49462632Y-87542255D01*
X49382083Y-87400498D01*
X49325871Y-87246857D01*
X49289973Y-87065287D01*
X49277181Y-86850708D01*
X49289973Y-86636129D01*
X49325871Y-86454559D01*
X49382083Y-86300917D01*
X49462644Y-86159088D01*
X49556765Y-86046081D01*
X49664794Y-85958122D01*
X49787682Y-85893013D01*
X49919708Y-85853937D01*
X50063521Y-85840642D01*
X50179072Y-85849488D01*
X50287686Y-85875613D01*
X50390806Y-85919043D01*
X50485754Y-85978413D01*
X50571834Y-86053902D01*
X50649704Y-86147044D01*
X50712894Y-86250910D01*
X50763939Y-86371748D01*
X50802111Y-86512065D01*
X50379693Y-86621242D01*
X50354130Y-86506866D01*
X50316715Y-86420676D01*
X50269173Y-86356849D01*
X50208033Y-86306667D01*
X50144782Y-86278111D01*
X50077443Y-86268677D01*
X49994765Y-86282869D01*
X49920762Y-86325821D01*
X49852251Y-86403011D01*
X49806440Y-86497993D01*
X49773971Y-86641539D01*
X49761270Y-86850708D01*
X49773971Y-87059876D01*
X49806440Y-87203423D01*
X49852251Y-87298405D01*
X49920753Y-87375517D01*
X49994756Y-87418435D01*
X50077443Y-87432616D01*
X50144790Y-87423193D01*
X50208042Y-87394673D01*
X50269173Y-87344567D01*
X50316715Y-87280740D01*
X50354130Y-87194550D01*
X50379693Y-87080174D01*
X50802111Y-87189228D01*
X50764093Y-87327690D01*
X50713088Y-87448215D01*
X50649704Y-87553028D01*
X50571755Y-87647021D01*
X50485672Y-87722973D01*
X50390806Y-87782494D01*
X50287692Y-87825855D01*
X50179077Y-87851940D01*
X50063521Y-87860774D01*
G37*
G36*
X50978088Y-87830000D02*
G01*
X50978088Y-85871416D01*
X51459369Y-85871416D01*
X51459369Y-86691217D01*
X51993772Y-85871416D01*
X52511445Y-85871416D01*
X51856630Y-86800272D01*
X52561759Y-87830000D01*
X51988155Y-87830000D01*
X51459369Y-86976615D01*
X51459369Y-87830000D01*
X50978088Y-87830000D01*
G37*
D12*
G36*
X44199909Y-10835779D02*
G01*
X44797022Y-9758558D01*
X45203381Y-9758558D01*
X45800493Y-10835779D01*
X45400314Y-10835779D01*
X45000268Y-10115482D01*
X44600089Y-10835779D01*
X44199909Y-10835779D01*
G37*
D13*
G36*
X73414556Y-9901271D02*
G01*
X73363020Y-9897705D01*
X73317095Y-9887434D01*
X73275920Y-9870835D01*
X73238799Y-9847928D01*
X73206194Y-9819034D01*
X73178492Y-9784224D01*
X73155518Y-9742771D01*
X73137413Y-9693670D01*
X73292141Y-9635882D01*
X73309558Y-9681358D01*
X73330026Y-9713041D01*
X73353152Y-9734021D01*
X73379328Y-9746285D01*
X73409683Y-9750475D01*
X73435157Y-9747235D01*
X73456176Y-9737969D01*
X73473797Y-9722564D01*
X73486781Y-9702700D01*
X73494914Y-9678441D01*
X73497818Y-9648620D01*
X73497818Y-9204995D01*
X73666266Y-9204995D01*
X73666266Y-9648620D01*
X73662652Y-9698107D01*
X73652246Y-9742048D01*
X73635406Y-9781335D01*
X73611885Y-9816780D01*
X73582982Y-9846133D01*
X73548212Y-9869940D01*
X73509532Y-9886950D01*
X73465338Y-9897555D01*
X73414556Y-9901271D01*
G37*
G36*
X74000085Y-9901271D02*
G01*
X73948258Y-9898593D01*
X73899237Y-9890712D01*
X73852666Y-9877762D01*
X73785060Y-9849279D01*
X73717045Y-9809203D01*
X73799324Y-9682899D01*
X73863454Y-9721734D01*
X73911908Y-9745090D01*
X73959107Y-9759525D01*
X74003975Y-9764153D01*
X74036146Y-9761667D01*
X74061102Y-9754909D01*
X74080356Y-9744577D01*
X74095932Y-9729905D01*
X74104808Y-9713509D01*
X74107796Y-9694653D01*
X74105368Y-9676066D01*
X74098523Y-9661361D01*
X74087237Y-9649603D01*
X74064503Y-9635991D01*
X74033382Y-9624641D01*
X73959907Y-9607972D01*
X73879594Y-9589379D01*
X73840887Y-9575653D01*
X73806163Y-9557535D01*
X73776154Y-9533535D01*
X73752307Y-9502227D01*
X73741375Y-9478163D01*
X73734308Y-9448387D01*
X73731748Y-9411613D01*
X73736411Y-9362386D01*
X73749726Y-9320324D01*
X73771334Y-9284007D01*
X73801760Y-9252482D01*
X73837968Y-9228157D01*
X73881437Y-9209997D01*
X73933584Y-9198381D01*
X73996153Y-9194224D01*
X74046058Y-9196751D01*
X74094439Y-9204267D01*
X74141563Y-9216750D01*
X74187049Y-9234182D01*
X74226839Y-9255106D01*
X74261541Y-9279410D01*
X74176355Y-9401825D01*
X74129305Y-9370469D01*
X74083775Y-9348952D01*
X74036438Y-9335716D01*
X73987348Y-9331299D01*
X73957132Y-9333669D01*
X73933782Y-9340103D01*
X73915840Y-9349935D01*
X73901381Y-9363815D01*
X73893138Y-9379248D01*
X73890365Y-9396909D01*
X73892738Y-9413471D01*
X73899515Y-9426750D01*
X73910924Y-9437557D01*
X73933698Y-9449883D01*
X73965806Y-9460595D01*
X74040691Y-9476752D01*
X74121987Y-9496328D01*
X74161284Y-9510872D01*
X74196915Y-9529625D01*
X74227646Y-9554367D01*
X74251753Y-9586942D01*
X74262734Y-9611903D01*
X74269780Y-9642200D01*
X74272312Y-9678967D01*
X74268488Y-9721696D01*
X74257358Y-9760092D01*
X74239016Y-9795013D01*
X74214140Y-9825707D01*
X74182929Y-9851761D01*
X74144512Y-9873360D01*
X74102817Y-9888439D01*
X74055019Y-9897932D01*
X74000085Y-9901271D01*
G37*
G36*
X74344633Y-9890500D02*
G01*
X74344633Y-9762229D01*
X74517996Y-9762229D01*
X74517996Y-9361689D01*
X74344633Y-9433155D01*
X74344633Y-9299969D01*
X74573818Y-9204995D01*
X74668792Y-9204995D01*
X74668792Y-9762229D01*
X74837240Y-9762229D01*
X74837240Y-9890500D01*
X74344633Y-9890500D01*
G37*
G36*
X79852458Y-4290500D02*
G01*
X79852458Y-3604995D01*
X80326430Y-3604995D01*
X80326430Y-3746003D01*
X80020907Y-3746003D01*
X80020907Y-3881155D01*
X80218719Y-3881155D01*
X80218719Y-4018230D01*
X80020907Y-4018230D01*
X80020907Y-4290500D01*
X79852458Y-4290500D01*
G37*
G36*
X80405632Y-4290500D02*
G01*
X80405632Y-4149492D01*
X80572114Y-4149492D01*
X80572114Y-3746003D01*
X80405632Y-3746003D01*
X80405632Y-3604995D01*
X80907044Y-3604995D01*
X80907044Y-3746003D01*
X80740562Y-3746003D01*
X80740562Y-4149492D01*
X80907044Y-4149492D01*
X80907044Y-4290500D01*
X80405632Y-4290500D01*
G37*
G36*
X81272662Y-3609633D02*
G01*
X81322288Y-3623204D01*
X81368150Y-3645643D01*
X81408998Y-3676239D01*
X81444326Y-3715053D01*
X81474408Y-3763143D01*
X81495823Y-3815785D01*
X81509313Y-3876799D01*
X81514073Y-3947747D01*
X81509314Y-4018667D01*
X81495826Y-4079682D01*
X81474408Y-4132352D01*
X81444330Y-4180417D01*
X81409002Y-4219233D01*
X81368150Y-4249851D01*
X81322288Y-4272290D01*
X81272662Y-4285861D01*
X81218338Y-4290500D01*
X81000907Y-4290500D01*
X81000907Y-4149492D01*
X81169355Y-4149492D01*
X81205600Y-4149492D01*
X81233162Y-4146401D01*
X81258358Y-4137262D01*
X81281848Y-4121784D01*
X81304036Y-4099056D01*
X81320586Y-4073184D01*
X81333294Y-4040410D01*
X81341637Y-3999207D01*
X81344685Y-3947747D01*
X81341618Y-3895711D01*
X81333246Y-3854297D01*
X81320536Y-3821586D01*
X81304036Y-3795969D01*
X81281877Y-3773476D01*
X81258396Y-3758138D01*
X81233189Y-3749071D01*
X81205600Y-3746003D01*
X81169355Y-3746003D01*
X81169355Y-4149492D01*
X81000907Y-4149492D01*
X81000907Y-3604995D01*
X81218338Y-3604995D01*
X81272662Y-3609633D01*
G37*
G36*
X81585453Y-4290500D02*
G01*
X81585453Y-4182788D01*
X81875333Y-3895815D01*
X81897059Y-3871668D01*
X81910552Y-3849824D01*
X81918676Y-3826750D01*
X81921366Y-3802808D01*
X81918203Y-3782008D01*
X81908824Y-3763831D01*
X81892472Y-3747499D01*
X81872188Y-3735491D01*
X81848476Y-3728057D01*
X81820494Y-3725444D01*
X81775745Y-3730260D01*
X81734282Y-3744550D01*
X81694689Y-3768681D01*
X81647130Y-3809646D01*
X81562928Y-3706808D01*
X81613198Y-3664931D01*
X81664111Y-3633546D01*
X81716065Y-3611641D01*
X81769599Y-3598600D01*
X81825367Y-3594224D01*
X81873850Y-3597204D01*
X81916151Y-3605686D01*
X81953167Y-3619186D01*
X81987356Y-3638425D01*
X82015352Y-3661555D01*
X82037882Y-3688728D01*
X82054553Y-3719650D01*
X82064718Y-3754128D01*
X82068230Y-3793020D01*
X82065831Y-3824487D01*
X82058682Y-3854733D01*
X82046687Y-3884104D01*
X82020295Y-3926009D01*
X81979111Y-3972239D01*
X81781299Y-4163170D01*
X82078018Y-4162229D01*
X82078018Y-4290500D01*
X81585453Y-4290500D01*
G37*
G36*
X4852458Y-8290500D02*
G01*
X4852458Y-7604995D01*
X5326430Y-7604995D01*
X5326430Y-7746003D01*
X5020907Y-7746003D01*
X5020907Y-7881155D01*
X5218719Y-7881155D01*
X5218719Y-8018230D01*
X5020907Y-8018230D01*
X5020907Y-8290500D01*
X4852458Y-8290500D01*
G37*
G36*
X5405632Y-8290500D02*
G01*
X5405632Y-8149492D01*
X5572114Y-8149492D01*
X5572114Y-7746003D01*
X5405632Y-7746003D01*
X5405632Y-7604995D01*
X5907044Y-7604995D01*
X5907044Y-7746003D01*
X5740562Y-7746003D01*
X5740562Y-8149492D01*
X5907044Y-8149492D01*
X5907044Y-8290500D01*
X5405632Y-8290500D01*
G37*
G36*
X6272662Y-7609633D02*
G01*
X6322288Y-7623204D01*
X6368150Y-7645643D01*
X6408998Y-7676239D01*
X6444326Y-7715053D01*
X6474408Y-7763143D01*
X6495823Y-7815785D01*
X6509313Y-7876799D01*
X6514073Y-7947747D01*
X6509314Y-8018667D01*
X6495826Y-8079682D01*
X6474408Y-8132352D01*
X6444330Y-8180417D01*
X6409002Y-8219233D01*
X6368150Y-8249851D01*
X6322288Y-8272290D01*
X6272662Y-8285861D01*
X6218338Y-8290500D01*
X6000907Y-8290500D01*
X6000907Y-8149492D01*
X6169355Y-8149492D01*
X6205600Y-8149492D01*
X6233162Y-8146401D01*
X6258358Y-8137262D01*
X6281848Y-8121784D01*
X6304036Y-8099056D01*
X6320586Y-8073184D01*
X6333294Y-8040410D01*
X6341637Y-7999207D01*
X6344685Y-7947747D01*
X6341618Y-7895711D01*
X6333246Y-7854297D01*
X6320536Y-7821586D01*
X6304036Y-7795969D01*
X6281877Y-7773476D01*
X6258396Y-7758138D01*
X6233189Y-7749071D01*
X6205600Y-7746003D01*
X6169355Y-7746003D01*
X6169355Y-8149492D01*
X6000907Y-8149492D01*
X6000907Y-7604995D01*
X6218338Y-7604995D01*
X6272662Y-7609633D01*
G37*
G36*
X6588360Y-8290500D02*
G01*
X6588360Y-8162229D01*
X6761723Y-8162229D01*
X6761723Y-7761689D01*
X6588360Y-7833155D01*
X6588360Y-7699969D01*
X6817545Y-7604995D01*
X6912519Y-7604995D01*
X6912519Y-8162229D01*
X7080967Y-8162229D01*
X7080967Y-8290500D01*
X6588360Y-8290500D01*
G37*
G36*
X14397543Y-2040500D02*
G01*
X14397543Y-1354995D01*
X14871557Y-1354995D01*
X14871557Y-1496003D01*
X14565991Y-1496003D01*
X14565991Y-1626239D01*
X14758931Y-1626239D01*
X14758931Y-1763357D01*
X14565991Y-1763357D01*
X14565991Y-1899492D01*
X14875490Y-1899492D01*
X14875490Y-2040500D01*
X14397543Y-2040500D01*
G37*
G36*
X14958581Y-2040500D02*
G01*
X14958581Y-1354995D01*
X15117241Y-1354995D01*
X15317020Y-1740832D01*
X15315054Y-1354995D01*
X15454095Y-1354995D01*
X15454095Y-2040500D01*
X15305265Y-2040500D01*
X15095699Y-1639960D01*
X15097622Y-2040500D01*
X14958581Y-2040500D01*
G37*
G36*
X15803600Y-2051271D02*
G01*
X15753266Y-2046617D01*
X15707057Y-2032941D01*
X15664046Y-2010152D01*
X15626231Y-1979344D01*
X15593289Y-1939789D01*
X15565097Y-1890174D01*
X15545423Y-1836400D01*
X15532859Y-1772850D01*
X15528381Y-1697747D01*
X15532859Y-1622645D01*
X15545423Y-1559095D01*
X15565097Y-1505321D01*
X15593293Y-1455681D01*
X15626236Y-1416128D01*
X15664046Y-1385342D01*
X15707057Y-1362554D01*
X15753266Y-1348878D01*
X15803600Y-1344224D01*
X15844043Y-1347321D01*
X15882058Y-1356464D01*
X15918150Y-1371665D01*
X15951382Y-1392444D01*
X15981510Y-1418865D01*
X16008764Y-1451465D01*
X16030881Y-1487818D01*
X16048747Y-1530111D01*
X16062107Y-1579222D01*
X15914261Y-1617434D01*
X15905314Y-1577403D01*
X15892218Y-1547236D01*
X15875579Y-1524897D01*
X15854180Y-1507333D01*
X15832042Y-1497339D01*
X15808473Y-1494037D01*
X15779536Y-1499004D01*
X15753635Y-1514037D01*
X15729656Y-1541053D01*
X15713622Y-1574297D01*
X15702258Y-1624538D01*
X15697813Y-1697747D01*
X15702258Y-1770956D01*
X15713622Y-1821198D01*
X15729656Y-1854441D01*
X15753632Y-1881431D01*
X15779533Y-1896452D01*
X15808473Y-1901415D01*
X15832044Y-1898117D01*
X15854183Y-1888135D01*
X15875579Y-1870598D01*
X15892218Y-1848259D01*
X15905314Y-1818092D01*
X15914261Y-1778061D01*
X16062107Y-1816230D01*
X16048800Y-1864691D01*
X16030949Y-1906875D01*
X16008764Y-1943560D01*
X15981482Y-1976457D01*
X15951353Y-2003040D01*
X15918150Y-2023873D01*
X15882060Y-2039049D01*
X15844045Y-2048179D01*
X15803600Y-2051271D01*
G37*
G36*
X16138360Y-2040500D02*
G01*
X16138360Y-1912229D01*
X16311723Y-1912229D01*
X16311723Y-1511689D01*
X16138360Y-1583155D01*
X16138360Y-1449969D01*
X16367545Y-1354995D01*
X16462519Y-1354995D01*
X16462519Y-1912229D01*
X16630967Y-1912229D01*
X16630967Y-2040500D01*
X16138360Y-2040500D01*
G37*
G36*
X1518667Y-62028138D02*
G01*
X1579682Y-62041626D01*
X1632352Y-62063044D01*
X1680417Y-62093122D01*
X1719233Y-62128449D01*
X1749851Y-62169302D01*
X1772290Y-62215164D01*
X1785861Y-62264790D01*
X1790500Y-62319114D01*
X1790500Y-62536545D01*
X1104995Y-62536545D01*
X1104995Y-62331851D01*
X1246003Y-62331851D01*
X1246003Y-62368097D01*
X1649492Y-62368097D01*
X1649492Y-62331851D01*
X1646401Y-62304289D01*
X1637262Y-62279094D01*
X1621784Y-62255603D01*
X1599056Y-62233415D01*
X1573184Y-62216866D01*
X1540410Y-62204158D01*
X1499207Y-62195815D01*
X1447747Y-62192767D01*
X1395711Y-62195834D01*
X1354297Y-62204206D01*
X1321586Y-62216916D01*
X1295969Y-62233415D01*
X1273476Y-62255574D01*
X1258138Y-62279056D01*
X1249071Y-62304263D01*
X1246003Y-62331851D01*
X1104995Y-62331851D01*
X1104995Y-62319114D01*
X1109633Y-62264790D01*
X1123204Y-62215164D01*
X1145643Y-62169302D01*
X1176239Y-62128454D01*
X1215053Y-62093126D01*
X1263143Y-62063044D01*
X1315785Y-62041629D01*
X1376799Y-62028139D01*
X1447747Y-62023379D01*
X1518667Y-62028138D01*
G37*
G36*
X1790500Y-61896177D02*
G01*
X1238181Y-61602408D01*
X1238181Y-61974524D01*
X1104995Y-61974524D01*
X1104995Y-61438832D01*
X1217579Y-61438832D01*
X1790500Y-61715034D01*
X1790500Y-61896177D01*
G37*
G36*
X1518667Y-71028138D02*
G01*
X1579682Y-71041626D01*
X1632352Y-71063044D01*
X1680417Y-71093122D01*
X1719233Y-71128449D01*
X1749851Y-71169302D01*
X1772290Y-71215164D01*
X1785861Y-71264790D01*
X1790500Y-71319114D01*
X1790500Y-71536545D01*
X1104995Y-71536545D01*
X1104995Y-71331851D01*
X1246003Y-71331851D01*
X1246003Y-71368097D01*
X1649492Y-71368097D01*
X1649492Y-71331851D01*
X1646401Y-71304289D01*
X1637262Y-71279094D01*
X1621784Y-71255603D01*
X1599056Y-71233415D01*
X1573184Y-71216866D01*
X1540410Y-71204158D01*
X1499207Y-71195815D01*
X1447747Y-71192767D01*
X1395711Y-71195834D01*
X1354297Y-71204206D01*
X1321586Y-71216916D01*
X1295969Y-71233415D01*
X1273476Y-71255574D01*
X1258138Y-71279056D01*
X1249071Y-71304263D01*
X1246003Y-71331851D01*
X1104995Y-71331851D01*
X1104995Y-71319114D01*
X1109633Y-71264790D01*
X1123204Y-71215164D01*
X1145643Y-71169302D01*
X1176239Y-71128454D01*
X1215053Y-71093126D01*
X1263143Y-71063044D01*
X1315785Y-71041629D01*
X1376799Y-71028139D01*
X1447747Y-71023379D01*
X1518667Y-71028138D01*
G37*
G36*
X1508461Y-70433946D02*
G01*
X1571697Y-70448018D01*
X1627950Y-70470676D01*
X1679213Y-70502517D01*
X1721508Y-70541213D01*
X1755750Y-70587234D01*
X1775326Y-70625437D01*
X1789515Y-70666944D01*
X1798258Y-70712267D01*
X1801271Y-70762008D01*
X1796226Y-70818524D01*
X1780711Y-70876601D01*
X1764946Y-70914038D01*
X1746946Y-70945107D01*
X1726856Y-70970635D01*
X1619102Y-70883440D01*
X1640522Y-70853815D01*
X1654878Y-70823258D01*
X1663166Y-70790001D01*
X1666119Y-70750254D01*
X1662029Y-70709276D01*
X1650454Y-70675189D01*
X1631765Y-70646564D01*
X1605424Y-70622497D01*
X1574524Y-70604648D01*
X1536354Y-70591007D01*
X1489442Y-70582119D01*
X1432061Y-70578900D01*
X1460831Y-70602257D01*
X1484525Y-70628157D01*
X1503569Y-70656776D01*
X1517733Y-70687931D01*
X1526166Y-70720250D01*
X1529001Y-70754186D01*
X1525907Y-70798605D01*
X1516995Y-70838192D01*
X1502586Y-70873695D01*
X1482426Y-70906107D01*
X1458041Y-70933007D01*
X1429154Y-70954948D01*
X1396708Y-70971101D01*
X1361040Y-70980931D01*
X1321401Y-70984312D01*
X1278636Y-70980550D01*
X1240072Y-70969591D01*
X1204885Y-70951529D01*
X1173529Y-70927123D01*
X1146681Y-70897145D01*
X1124101Y-70860957D01*
X1107713Y-70821455D01*
X1097677Y-70778268D01*
X1094224Y-70730678D01*
X1094889Y-70722856D01*
X1223478Y-70722856D01*
X1226622Y-70753889D01*
X1235642Y-70780525D01*
X1250405Y-70803682D01*
X1270205Y-70822082D01*
X1292570Y-70832809D01*
X1318451Y-70836466D01*
X1344532Y-70833054D01*
X1366569Y-70823188D01*
X1385557Y-70806589D01*
X1399643Y-70785332D01*
X1408397Y-70759755D01*
X1411502Y-70728712D01*
X1407659Y-70687766D01*
X1396481Y-70651166D01*
X1378030Y-70618019D01*
X1351748Y-70587704D01*
X1314059Y-70600362D01*
X1283253Y-70617228D01*
X1258270Y-70638141D01*
X1238808Y-70663665D01*
X1227362Y-70691600D01*
X1223478Y-70722856D01*
X1094889Y-70722856D01*
X1099220Y-70671873D01*
X1113675Y-70619556D01*
X1137309Y-70572531D01*
X1169521Y-70530824D01*
X1209218Y-70495701D01*
X1257287Y-70466786D01*
X1309777Y-70446303D01*
X1369261Y-70433516D01*
X1436976Y-70429044D01*
X1508461Y-70433946D01*
G37*
G36*
X20852458Y-83290500D02*
G01*
X20852458Y-82604995D01*
X21326430Y-82604995D01*
X21326430Y-82746003D01*
X21020907Y-82746003D01*
X21020907Y-82881155D01*
X21218719Y-82881155D01*
X21218719Y-83018230D01*
X21020907Y-83018230D01*
X21020907Y-83290500D01*
X20852458Y-83290500D01*
G37*
G36*
X21405632Y-83290500D02*
G01*
X21405632Y-83149492D01*
X21572114Y-83149492D01*
X21572114Y-82746003D01*
X21405632Y-82746003D01*
X21405632Y-82604995D01*
X21907044Y-82604995D01*
X21907044Y-82746003D01*
X21740562Y-82746003D01*
X21740562Y-83149492D01*
X21907044Y-83149492D01*
X21907044Y-83290500D01*
X21405632Y-83290500D01*
G37*
G36*
X22272662Y-82609633D02*
G01*
X22322288Y-82623204D01*
X22368150Y-82645643D01*
X22408998Y-82676239D01*
X22444326Y-82715053D01*
X22474408Y-82763143D01*
X22495823Y-82815785D01*
X22509313Y-82876799D01*
X22514073Y-82947747D01*
X22509314Y-83018667D01*
X22495826Y-83079682D01*
X22474408Y-83132352D01*
X22444330Y-83180417D01*
X22409002Y-83219233D01*
X22368150Y-83249851D01*
X22322288Y-83272290D01*
X22272662Y-83285861D01*
X22218338Y-83290500D01*
X22000907Y-83290500D01*
X22000907Y-83149492D01*
X22169355Y-83149492D01*
X22205600Y-83149492D01*
X22233162Y-83146401D01*
X22258358Y-83137262D01*
X22281848Y-83121784D01*
X22304036Y-83099056D01*
X22320586Y-83073184D01*
X22333294Y-83040410D01*
X22341637Y-82999207D01*
X22344685Y-82947747D01*
X22341618Y-82895711D01*
X22333246Y-82854297D01*
X22320536Y-82821586D01*
X22304036Y-82795969D01*
X22281877Y-82773476D01*
X22258396Y-82758138D01*
X22233189Y-82749071D01*
X22205600Y-82746003D01*
X22169355Y-82746003D01*
X22169355Y-83149492D01*
X22000907Y-83149492D01*
X22000907Y-82604995D01*
X22218338Y-82604995D01*
X22272662Y-82609633D01*
G37*
G36*
X22821434Y-83301271D02*
G01*
X22767209Y-83297926D01*
X22716301Y-83288094D01*
X22668202Y-83271907D01*
X22622867Y-83249344D01*
X22584096Y-83222263D01*
X22551174Y-83190610D01*
X22653029Y-83096577D01*
X22692352Y-83132712D01*
X22726931Y-83153424D01*
X22765694Y-83164762D01*
X22819511Y-83169068D01*
X22856118Y-83166212D01*
X22885511Y-83158327D01*
X22909099Y-83146073D01*
X22928201Y-83128628D01*
X22939175Y-83108542D01*
X22942909Y-83084823D01*
X22940076Y-83063821D01*
X22931974Y-83046681D01*
X22918417Y-83032463D01*
X22901121Y-83022227D01*
X22879612Y-83015709D01*
X22852807Y-83013357D01*
X22764672Y-83013357D01*
X22764672Y-82888976D01*
X22837121Y-82888976D01*
X22864517Y-82886481D01*
X22885956Y-82879626D01*
X22902731Y-82868930D01*
X22915573Y-82854094D01*
X22923441Y-82835681D01*
X22926239Y-82812596D01*
X22922804Y-82789286D01*
X22912731Y-82769359D01*
X22895379Y-82751901D01*
X22873744Y-82739105D01*
X22848428Y-82731181D01*
X22818528Y-82728393D01*
X22770987Y-82732960D01*
X22733769Y-82745533D01*
X22699809Y-82767646D01*
X22658885Y-82806697D01*
X22556046Y-82713689D01*
X22590927Y-82679331D01*
X22630750Y-82650181D01*
X22676024Y-82626067D01*
X22724185Y-82608341D01*
X22773482Y-82597767D01*
X22824384Y-82594224D01*
X22874165Y-82597191D01*
X22917953Y-82605666D01*
X22956586Y-82619186D01*
X22992459Y-82638478D01*
X23021905Y-82661625D01*
X23045704Y-82688728D01*
X23063550Y-82719759D01*
X23074322Y-82753912D01*
X23078018Y-82792036D01*
X23073946Y-82827913D01*
X23061970Y-82860248D01*
X23041772Y-82889960D01*
X23015533Y-82914973D01*
X22984458Y-82934517D01*
X22947781Y-82948730D01*
X22991208Y-82960749D01*
X23026672Y-82978299D01*
X23055492Y-83001133D01*
X23077897Y-83029599D01*
X23091143Y-83061361D01*
X23095670Y-83097560D01*
X23091704Y-83135549D01*
X23080024Y-83170204D01*
X23060408Y-83202364D01*
X23034603Y-83230299D01*
X23002576Y-83254451D01*
X22963425Y-83274856D01*
X22921524Y-83289194D01*
X22874465Y-83298147D01*
X22821434Y-83301271D01*
G37*
G36*
X1518667Y-66528138D02*
G01*
X1579682Y-66541626D01*
X1632352Y-66563044D01*
X1680417Y-66593122D01*
X1719233Y-66628449D01*
X1749851Y-66669302D01*
X1772290Y-66715164D01*
X1785861Y-66764790D01*
X1790500Y-66819114D01*
X1790500Y-67036545D01*
X1104995Y-67036545D01*
X1104995Y-66831851D01*
X1246003Y-66831851D01*
X1246003Y-66868097D01*
X1649492Y-66868097D01*
X1649492Y-66831851D01*
X1646401Y-66804289D01*
X1637262Y-66779094D01*
X1621784Y-66755603D01*
X1599056Y-66733415D01*
X1573184Y-66716866D01*
X1540410Y-66704158D01*
X1499207Y-66695815D01*
X1447747Y-66692767D01*
X1395711Y-66695834D01*
X1354297Y-66704206D01*
X1321586Y-66716916D01*
X1295969Y-66733415D01*
X1273476Y-66755574D01*
X1258138Y-66779056D01*
X1249071Y-66804263D01*
X1246003Y-66831851D01*
X1104995Y-66831851D01*
X1104995Y-66819114D01*
X1109633Y-66764790D01*
X1123204Y-66715164D01*
X1145643Y-66669302D01*
X1176239Y-66628454D01*
X1215053Y-66593126D01*
X1263143Y-66563044D01*
X1315785Y-66541629D01*
X1376799Y-66528139D01*
X1447747Y-66523379D01*
X1518667Y-66528138D01*
G37*
G36*
X1635953Y-65942694D02*
G01*
X1671249Y-65953958D01*
X1703348Y-65972642D01*
X1731265Y-65997516D01*
X1755236Y-66028561D01*
X1775326Y-66066675D01*
X1789388Y-66107602D01*
X1798192Y-66153824D01*
X1801271Y-66206187D01*
X1798191Y-66258578D01*
X1789387Y-66304814D01*
X1775326Y-66345741D01*
X1755240Y-66383829D01*
X1731270Y-66414877D01*
X1703348Y-66439774D01*
X1671251Y-66458433D01*
X1635955Y-66469683D01*
X1596577Y-66473541D01*
X1561347Y-66469498D01*
X1529328Y-66457559D01*
X1499637Y-66437338D01*
X1474396Y-66411159D01*
X1454210Y-66380364D01*
X1438942Y-66344288D01*
X1423467Y-66375241D01*
X1403932Y-66401507D01*
X1380172Y-66423618D01*
X1352801Y-66440605D01*
X1323970Y-66450604D01*
X1293020Y-66453965D01*
X1256215Y-66450272D01*
X1222517Y-66439400D01*
X1191164Y-66421181D01*
X1163615Y-66397120D01*
X1139992Y-66367792D01*
X1120169Y-66332533D01*
X1105995Y-66294523D01*
X1097248Y-66252628D01*
X1094224Y-66206187D01*
X1219545Y-66206187D01*
X1222300Y-66233434D01*
X1230184Y-66256680D01*
X1243054Y-66276755D01*
X1260354Y-66292591D01*
X1280299Y-66301925D01*
X1303791Y-66305136D01*
X1326625Y-66301967D01*
X1346427Y-66292670D01*
X1364015Y-66276755D01*
X1377158Y-66256647D01*
X1385190Y-66233403D01*
X1387993Y-66206187D01*
X1496688Y-66206187D01*
X1499713Y-66239318D01*
X1508194Y-66266518D01*
X1521692Y-66288979D01*
X1540176Y-66306835D01*
X1561232Y-66317231D01*
X1585806Y-66320779D01*
X1610408Y-66317229D01*
X1631477Y-66306832D01*
X1649962Y-66288979D01*
X1663436Y-66266521D01*
X1671903Y-66239321D01*
X1674924Y-66206187D01*
X1671903Y-66173082D01*
X1663436Y-66145910D01*
X1649962Y-66123480D01*
X1631474Y-66105600D01*
X1610405Y-66095190D01*
X1585806Y-66091637D01*
X1561235Y-66095189D01*
X1540179Y-66105598D01*
X1521692Y-66123480D01*
X1508194Y-66145913D01*
X1499713Y-66173085D01*
X1496688Y-66206187D01*
X1387993Y-66206187D01*
X1385158Y-66178350D01*
X1377099Y-66154998D01*
X1364015Y-66135191D01*
X1346461Y-66119562D01*
X1326658Y-66110407D01*
X1303791Y-66107281D01*
X1280264Y-66110448D01*
X1260319Y-66119640D01*
X1243054Y-66135191D01*
X1230242Y-66154965D01*
X1222332Y-66178318D01*
X1219545Y-66206187D01*
X1094224Y-66206187D01*
X1097240Y-66159772D01*
X1105981Y-66117726D01*
X1120169Y-66079412D01*
X1140041Y-66043850D01*
X1163669Y-66014544D01*
X1191164Y-65990764D01*
X1222487Y-65972820D01*
X1256189Y-65962096D01*
X1293020Y-65958451D01*
X1323970Y-65961813D01*
X1352801Y-65971811D01*
X1380172Y-65988798D01*
X1403932Y-66010909D01*
X1423467Y-66037175D01*
X1438942Y-66068128D01*
X1454277Y-66031432D01*
X1474475Y-66000511D01*
X1499637Y-65974608D01*
X1529300Y-65954640D01*
X1561321Y-65942834D01*
X1596577Y-65938832D01*
X1635953Y-65942694D01*
G37*
%TO.C,JS1*%
D14*
X69000000Y-11000000D02*
X79000000Y-11000000D01*
X69000000Y-11646766D02*
X69000000Y-11000000D01*
X69000000Y-15427860D02*
X69000000Y-13885572D01*
X69000000Y-18114427D02*
X69000000Y-17467661D01*
X69000000Y-21000000D02*
X69000000Y-20353233D01*
X79000000Y-11000000D02*
X79000000Y-11646766D01*
X79000000Y-13885572D02*
X79000000Y-15427860D01*
X79000000Y-17467661D02*
X79000000Y-18114427D01*
X79000000Y-20353233D02*
X79000000Y-21000000D01*
X79000000Y-21000000D02*
X69000000Y-21000000D01*
%TO.C,ENC1*%
D15*
X9650000Y-6750000D02*
X9650000Y-9826750D01*
X9650000Y-6750000D02*
X12430000Y-6750000D01*
X9650000Y-10174125D02*
X9650000Y-10720000D01*
X9650000Y-14780000D02*
X9650000Y-15822125D01*
X9650000Y-16169500D02*
X9650000Y-18750000D01*
X11310000Y-10970000D02*
X10180000Y-10970000D01*
X11310000Y-14530000D02*
X10180000Y-14530000D01*
X12710000Y-11100000D02*
X18290000Y-11100000D01*
X13490000Y-6750000D02*
X17510000Y-6750000D01*
X18570000Y-6750000D02*
X21350000Y-6750000D01*
X19690000Y-10970000D02*
X20820000Y-10970000D01*
X19690000Y-14530000D02*
X20820000Y-14530000D01*
X21350000Y-6750000D02*
X21350000Y-10720000D01*
X21350000Y-14780000D02*
X21350000Y-18750000D01*
X21350000Y-18750000D02*
X9650000Y-18750000D01*
X11330000Y-10930000D02*
G75*
G02*
X19686899Y-10969221I4170000J-1820000D01*
G01*
X17400000Y-11100000D02*
G75*
G02*
X13596736Y-11103766I-1900000J-1650000D01*
G01*
X19670000Y-14570000D02*
G75*
G02*
X11313101Y-14530779I-4170000J1820000D01*
G01*
D16*
X7930000Y-21150000D02*
G75*
G02*
X7870000Y-21150000I-30000J0D01*
G01*
X7870000Y-21150000D02*
G75*
G02*
X7930000Y-21150000I30000J0D01*
G01*
D15*
X18730000Y-12750000D02*
G75*
G02*
X12270000Y-12750000I-3230000J0D01*
G01*
X12270000Y-12750000D02*
G75*
G02*
X18730000Y-12750000I3230000J0D01*
G01*
X19180000Y-12750000D02*
G75*
G02*
X11820000Y-12750000I-3680000J0D01*
G01*
X11820000Y-12750000D02*
G75*
G02*
X19180000Y-12750000I3680000J0D01*
G01*
%TO.C,D7*%
X4800000Y-61800000D02*
X4800000Y-60969615D01*
X4800000Y-62300000D02*
X4800000Y-63400000D01*
X4800000Y-63400000D02*
X5100000Y-63700000D01*
X5100000Y-61910000D02*
X5880000Y-61910000D01*
X5100000Y-63700000D02*
X5900000Y-63700000D01*
X5331034Y-60530000D02*
X6200000Y-60530000D01*
X5900000Y-63700000D02*
X6200000Y-63400000D01*
X6200000Y-60530000D02*
X6200000Y-61800000D01*
X6200000Y-63400000D02*
X6200000Y-62300000D01*
D17*
X4490430Y-62059566D02*
G75*
G02*
X4390430Y-62059566I-50000J0D01*
G01*
X4390430Y-62059566D02*
G75*
G02*
X4490430Y-62059566I50000J0D01*
G01*
%TO.C,D9*%
D15*
X4800000Y-69530000D02*
X6200000Y-69530000D01*
X4800000Y-70409230D02*
X4800000Y-69530000D01*
X4800000Y-71300000D02*
X4800000Y-72400000D01*
X4800000Y-72400000D02*
X5100000Y-72700000D01*
X5100000Y-72700000D02*
X5900000Y-72700000D01*
X5246250Y-70910000D02*
X5880000Y-70910000D01*
X5900000Y-72700000D02*
X6200000Y-72400000D01*
X6200000Y-69530000D02*
X6200000Y-70800000D01*
X6200000Y-72400000D02*
X6200000Y-71300000D01*
D17*
X4896098Y-70812975D02*
G75*
G02*
X4796098Y-70812975I-50000J0D01*
G01*
X4796098Y-70812975D02*
G75*
G02*
X4896098Y-70812975I50000J0D01*
G01*
%TO.C,D8*%
D15*
X4800000Y-65030000D02*
X6200000Y-65030000D01*
X4800000Y-66300000D02*
X4800000Y-65860384D01*
X4800000Y-66800000D02*
X4800000Y-67900000D01*
X4800000Y-67900000D02*
X5100000Y-68200000D01*
X5100000Y-66410000D02*
X5880000Y-66410000D01*
X5100000Y-68200000D02*
X5900000Y-68200000D01*
X5900000Y-68200000D02*
X6200000Y-67900000D01*
X6200000Y-65030000D02*
X6200000Y-66300000D01*
X6200000Y-67900000D02*
X6200000Y-66800000D01*
D17*
X4490430Y-66559566D02*
G75*
G02*
X4390430Y-66559566I-50000J0D01*
G01*
X4390430Y-66559566D02*
G75*
G02*
X4490430Y-66559566I50000J0D01*
G01*
%TD*%
M02*
