%TF.GenerationSoftware,KiCad,Pcbnew,10.0.3*%
%TF.CreationDate,2026-08-11T19:50:18-04:00*%
%TF.ProjectId,AgentDeck,4167656e-7444-4656-936b-2e6b69636164,rev?*%
%TF.SameCoordinates,Original*%
%TF.FileFunction,Other,User*%
%FSLAX46Y46*%
G04 Gerber Fmt 4.6, Leading zero omitted, Abs format (unit mm)*
G04 Created by KiCad (PCBNEW 10.0.3) date 2026-08-11 19:50:18*
%MOMM*%
%LPD*%
G01*
G04 APERTURE LIST*
%ADD10C,0.050000*%
G04 APERTURE END LIST*
%TO.C,JS1*%
D10*
X68000000Y-10500000D02*
X80000000Y-10500000D01*
X80000000Y-21500000D01*
X68000000Y-21500000D01*
X68000000Y-10500000D01*
%TO.C,FID2*%
X82200000Y-5950000D02*
G75*
G02*
X79700000Y-5950000I-1250000J0D01*
G01*
X79700000Y-5950000D02*
G75*
G02*
X82200000Y-5950000I1250000J0D01*
G01*
%TO.C,FID1*%
X7200000Y-9950000D02*
G75*
G02*
X4700000Y-9950000I-1250000J0D01*
G01*
X4700000Y-9950000D02*
G75*
G02*
X7200000Y-9950000I1250000J0D01*
G01*
%TO.C,ENC1*%
X7900000Y-4850000D02*
X23100000Y-4850000D01*
X7900000Y-21150000D02*
X7900000Y-4850000D01*
X23100000Y-4850000D02*
X23100000Y-21150000D01*
X23100000Y-21150000D02*
X7900000Y-21150000D01*
%TO.C,D7*%
X5100000Y-61200000D02*
X5900000Y-61200000D01*
X5100000Y-62800000D02*
X5100000Y-61200000D01*
X5900000Y-61200000D02*
X5900000Y-62800000D01*
X5900000Y-62800000D02*
X5100000Y-62800000D01*
%TO.C,D9*%
X5100000Y-70200000D02*
X5900000Y-70200000D01*
X5100000Y-71800000D02*
X5100000Y-70200000D01*
X5900000Y-70200000D02*
X5900000Y-71800000D01*
X5900000Y-71800000D02*
X5100000Y-71800000D01*
%TO.C,FID3*%
X23200000Y-84950000D02*
G75*
G02*
X20700000Y-84950000I-1250000J0D01*
G01*
X20700000Y-84950000D02*
G75*
G02*
X23200000Y-84950000I1250000J0D01*
G01*
%TO.C,D8*%
X5100000Y-65700000D02*
X5900000Y-65700000D01*
X5100000Y-67300000D02*
X5100000Y-65700000D01*
X5900000Y-65700000D02*
X5900000Y-67300000D01*
X5900000Y-67300000D02*
X5100000Y-67300000D01*
%TD*%
M02*
