%TF.GenerationSoftware,KiCad,Pcbnew,10.0.3*%
%TF.CreationDate,2026-08-11T19:50:18-04:00*%
%TF.ProjectId,AgentDeck,4167656e-7444-4656-936b-2e6b69636164,rev?*%
%TF.SameCoordinates,Original*%
%TF.FileFunction,Other,Comment*%
%FSLAX46Y46*%
G04 Gerber Fmt 4.6, Leading zero omitted, Abs format (unit mm)*
G04 Created by KiCad (PCBNEW 10.0.3) date 2026-08-11 19:50:18*
%MOMM*%
%LPD*%
G01*
G04 APERTURE LIST*
%ADD10C,0.500000*%
%ADD11C,0.250000*%
%ADD12C,1.450000*%
%ADD13C,0.200000*%
%ADD14C,0.300000*%
%ADD15C,0.400000*%
G04 APERTURE END LIST*
%TO.C,U3*%
D10*
X17800000Y-84310000D02*
G75*
G02*
X17300000Y-84310000I-250000J0D01*
G01*
X17300000Y-84310000D02*
G75*
G02*
X17800000Y-84310000I250000J0D01*
G01*
%TO.C,U1*%
D11*
X41230000Y-88600000D02*
G75*
G02*
X40970000Y-88600000I-130000J0D01*
G01*
X40970000Y-88600000D02*
G75*
G02*
X41230000Y-88600000I130000J0D01*
G01*
X41230000Y-88600000D02*
G75*
G02*
X40970000Y-88600000I-130000J0D01*
G01*
X40970000Y-88600000D02*
G75*
G02*
X41230000Y-88600000I130000J0D01*
G01*
%TO.C,SW10*%
D12*
X69730000Y-57034400D02*
G75*
G02*
X68270000Y-57034400I-730000J0D01*
G01*
X68270000Y-57034400D02*
G75*
G02*
X69730000Y-57034400I730000J0D01*
G01*
X74730000Y-59234400D02*
G75*
G02*
X73270000Y-59234400I-730000J0D01*
G01*
X73270000Y-59234400D02*
G75*
G02*
X74730000Y-59234400I730000J0D01*
G01*
%TO.C,Y1*%
D11*
X27860000Y-83110000D02*
G75*
G02*
X27600000Y-83110000I-130000J0D01*
G01*
X27600000Y-83110000D02*
G75*
G02*
X27860000Y-83110000I130000J0D01*
G01*
%TO.C,SW4*%
D12*
X31063300Y-38367600D02*
G75*
G02*
X29603300Y-38367600I-730000J0D01*
G01*
X29603300Y-38367600D02*
G75*
G02*
X31063300Y-38367600I730000J0D01*
G01*
X36063300Y-40567600D02*
G75*
G02*
X34603300Y-40567600I-730000J0D01*
G01*
X34603300Y-40567600D02*
G75*
G02*
X36063300Y-40567600I730000J0D01*
G01*
%TO.C,U6*%
D13*
X56180000Y-6320000D02*
G75*
G02*
X55980000Y-6320000I-100000J0D01*
G01*
X55980000Y-6320000D02*
G75*
G02*
X56180000Y-6320000I100000J0D01*
G01*
%TO.C,SW8*%
D12*
X31063300Y-57034400D02*
G75*
G02*
X29603300Y-57034400I-730000J0D01*
G01*
X29603300Y-57034400D02*
G75*
G02*
X31063300Y-57034400I730000J0D01*
G01*
X36063300Y-59234400D02*
G75*
G02*
X34603300Y-59234400I-730000J0D01*
G01*
X34603300Y-59234400D02*
G75*
G02*
X36063300Y-59234400I730000J0D01*
G01*
%TO.C,SW9*%
X50396700Y-57034400D02*
G75*
G02*
X48936700Y-57034400I-730000J0D01*
G01*
X48936700Y-57034400D02*
G75*
G02*
X50396700Y-57034400I730000J0D01*
G01*
X55396700Y-59234400D02*
G75*
G02*
X53936700Y-59234400I-730000J0D01*
G01*
X53936700Y-59234400D02*
G75*
G02*
X55396700Y-59234400I730000J0D01*
G01*
%TO.C,U2*%
D14*
X64250000Y-79650000D02*
G75*
G02*
X63950000Y-79650000I-150000J0D01*
G01*
X63950000Y-79650000D02*
G75*
G02*
X64250000Y-79650000I150000J0D01*
G01*
%TO.C,SW2*%
D12*
X50396700Y-19700000D02*
G75*
G02*
X48936700Y-19700000I-730000J0D01*
G01*
X48936700Y-19700000D02*
G75*
G02*
X50396700Y-19700000I730000J0D01*
G01*
X55396700Y-21900000D02*
G75*
G02*
X53936700Y-21900000I-730000J0D01*
G01*
X53936700Y-21900000D02*
G75*
G02*
X55396700Y-21900000I730000J0D01*
G01*
%TO.C,SW7*%
X11730000Y-57034400D02*
G75*
G02*
X10270000Y-57034400I-730000J0D01*
G01*
X10270000Y-57034400D02*
G75*
G02*
X11730000Y-57034400I730000J0D01*
G01*
X16730000Y-59234400D02*
G75*
G02*
X15270000Y-59234400I-730000J0D01*
G01*
X15270000Y-59234400D02*
G75*
G02*
X16730000Y-59234400I730000J0D01*
G01*
%TO.C,J1*%
D11*
X42230000Y-4075000D02*
G75*
G02*
X41970000Y-4075000I-130000J0D01*
G01*
X41970000Y-4075000D02*
G75*
G02*
X42230000Y-4075000I130000J0D01*
G01*
X48020000Y-4075000D02*
G75*
G02*
X47780000Y-4075000I-120000J0D01*
G01*
X47780000Y-4075000D02*
G75*
G02*
X48020000Y-4075000I120000J0D01*
G01*
%TO.C,SW11*%
D12*
X40730000Y-75702000D02*
G75*
G02*
X39270000Y-75702000I-730000J0D01*
G01*
X39270000Y-75702000D02*
G75*
G02*
X40730000Y-75702000I730000J0D01*
G01*
X45730000Y-77902000D02*
G75*
G02*
X44270000Y-77902000I-730000J0D01*
G01*
X44270000Y-77902000D02*
G75*
G02*
X45730000Y-77902000I730000J0D01*
G01*
%TO.C,SW3*%
X11730000Y-38367600D02*
G75*
G02*
X10270000Y-38367600I-730000J0D01*
G01*
X10270000Y-38367600D02*
G75*
G02*
X11730000Y-38367600I730000J0D01*
G01*
X16730000Y-40567600D02*
G75*
G02*
X15270000Y-40567600I-730000J0D01*
G01*
X15270000Y-40567600D02*
G75*
G02*
X16730000Y-40567600I730000J0D01*
G01*
%TO.C,U4*%
D15*
X25100000Y-4480000D02*
G75*
G02*
X24700000Y-4480000I-200000J0D01*
G01*
X24700000Y-4480000D02*
G75*
G02*
X25100000Y-4480000I200000J0D01*
G01*
%TO.C,SW5*%
D12*
X50396700Y-38367600D02*
G75*
G02*
X48936700Y-38367600I-730000J0D01*
G01*
X48936700Y-38367600D02*
G75*
G02*
X50396700Y-38367600I730000J0D01*
G01*
X55396700Y-40567600D02*
G75*
G02*
X53936700Y-40567600I-730000J0D01*
G01*
X53936700Y-40567600D02*
G75*
G02*
X55396700Y-40567600I730000J0D01*
G01*
%TO.C,SW14*%
X11730000Y-75702000D02*
G75*
G02*
X10270000Y-75702000I-730000J0D01*
G01*
X10270000Y-75702000D02*
G75*
G02*
X11730000Y-75702000I730000J0D01*
G01*
X16730000Y-77902000D02*
G75*
G02*
X15270000Y-77902000I-730000J0D01*
G01*
X15270000Y-77902000D02*
G75*
G02*
X16730000Y-77902000I730000J0D01*
G01*
%TO.C,SW12*%
X69730000Y-75702000D02*
G75*
G02*
X68270000Y-75702000I-730000J0D01*
G01*
X68270000Y-75702000D02*
G75*
G02*
X69730000Y-75702000I730000J0D01*
G01*
X74730000Y-77902000D02*
G75*
G02*
X73270000Y-77902000I-730000J0D01*
G01*
X73270000Y-77902000D02*
G75*
G02*
X74730000Y-77902000I730000J0D01*
G01*
%TO.C,SW6*%
X69730000Y-38367600D02*
G75*
G02*
X68270000Y-38367600I-730000J0D01*
G01*
X68270000Y-38367600D02*
G75*
G02*
X69730000Y-38367600I730000J0D01*
G01*
X74730000Y-40567600D02*
G75*
G02*
X73270000Y-40567600I-730000J0D01*
G01*
X73270000Y-40567600D02*
G75*
G02*
X74730000Y-40567600I730000J0D01*
G01*
%TO.C,SW1*%
X31063300Y-19700000D02*
G75*
G02*
X29603300Y-19700000I-730000J0D01*
G01*
X29603300Y-19700000D02*
G75*
G02*
X31063300Y-19700000I730000J0D01*
G01*
X36063300Y-21900000D02*
G75*
G02*
X34603300Y-21900000I-730000J0D01*
G01*
X34603300Y-21900000D02*
G75*
G02*
X36063300Y-21900000I730000J0D01*
G01*
%TD*%
M02*
