%TF.GenerationSoftware,KiCad,Pcbnew,10.0.3*%
%TF.CreationDate,2026-08-11T19:50:18-04:00*%
%TF.ProjectId,AgentDeck,4167656e-7444-4656-936b-2e6b69636164,rev?*%
%TF.SameCoordinates,Original*%
%TF.FileFunction,AssemblyDrawing,Top*%
%FSLAX46Y46*%
G04 Gerber Fmt 4.6, Leading zero omitted, Abs format (unit mm)*
G04 Created by KiCad (PCBNEW 10.0.3) date 2026-08-11 19:50:18*
%MOMM*%
%LPD*%
G01*
G04 APERTURE LIST*
%ADD10C,0.150000*%
%ADD11C,0.080000*%
%ADD12C,0.100000*%
%ADD13C,0.500000*%
G04 APERTURE END LIST*
D10*
X69380952Y-22807200D02*
X69523809Y-22854819D01*
X69523809Y-22854819D02*
X69761904Y-22854819D01*
X69761904Y-22854819D02*
X69857142Y-22807200D01*
X69857142Y-22807200D02*
X69904761Y-22759580D01*
X69904761Y-22759580D02*
X69952380Y-22664342D01*
X69952380Y-22664342D02*
X69952380Y-22569104D01*
X69952380Y-22569104D02*
X69904761Y-22473866D01*
X69904761Y-22473866D02*
X69857142Y-22426247D01*
X69857142Y-22426247D02*
X69761904Y-22378628D01*
X69761904Y-22378628D02*
X69571428Y-22331009D01*
X69571428Y-22331009D02*
X69476190Y-22283390D01*
X69476190Y-22283390D02*
X69428571Y-22235771D01*
X69428571Y-22235771D02*
X69380952Y-22140533D01*
X69380952Y-22140533D02*
X69380952Y-22045295D01*
X69380952Y-22045295D02*
X69428571Y-21950057D01*
X69428571Y-21950057D02*
X69476190Y-21902438D01*
X69476190Y-21902438D02*
X69571428Y-21854819D01*
X69571428Y-21854819D02*
X69809523Y-21854819D01*
X69809523Y-21854819D02*
X69952380Y-21902438D01*
X70380952Y-22854819D02*
X70380952Y-21854819D01*
X70952380Y-22854819D02*
X70523809Y-22283390D01*
X70952380Y-21854819D02*
X70380952Y-22426247D01*
X72047618Y-22950057D02*
X71952380Y-22902438D01*
X71952380Y-22902438D02*
X71857142Y-22807200D01*
X71857142Y-22807200D02*
X71714285Y-22664342D01*
X71714285Y-22664342D02*
X71619047Y-22616723D01*
X71619047Y-22616723D02*
X71523809Y-22616723D01*
X71571428Y-22854819D02*
X71476190Y-22807200D01*
X71476190Y-22807200D02*
X71380952Y-22711961D01*
X71380952Y-22711961D02*
X71333333Y-22521485D01*
X71333333Y-22521485D02*
X71333333Y-22188152D01*
X71333333Y-22188152D02*
X71380952Y-21997676D01*
X71380952Y-21997676D02*
X71476190Y-21902438D01*
X71476190Y-21902438D02*
X71571428Y-21854819D01*
X71571428Y-21854819D02*
X71761904Y-21854819D01*
X71761904Y-21854819D02*
X71857142Y-21902438D01*
X71857142Y-21902438D02*
X71952380Y-21997676D01*
X71952380Y-21997676D02*
X71999999Y-22188152D01*
X71999999Y-22188152D02*
X71999999Y-22521485D01*
X71999999Y-22521485D02*
X71952380Y-22711961D01*
X71952380Y-22711961D02*
X71857142Y-22807200D01*
X71857142Y-22807200D02*
X71761904Y-22854819D01*
X71761904Y-22854819D02*
X71571428Y-22854819D01*
X72428571Y-21854819D02*
X72428571Y-22664342D01*
X72428571Y-22664342D02*
X72476190Y-22759580D01*
X72476190Y-22759580D02*
X72523809Y-22807200D01*
X72523809Y-22807200D02*
X72619047Y-22854819D01*
X72619047Y-22854819D02*
X72809523Y-22854819D01*
X72809523Y-22854819D02*
X72904761Y-22807200D01*
X72904761Y-22807200D02*
X72952380Y-22759580D01*
X72952380Y-22759580D02*
X72999999Y-22664342D01*
X72999999Y-22664342D02*
X72999999Y-21854819D01*
X74047618Y-22759580D02*
X73999999Y-22807200D01*
X73999999Y-22807200D02*
X73857142Y-22854819D01*
X73857142Y-22854819D02*
X73761904Y-22854819D01*
X73761904Y-22854819D02*
X73619047Y-22807200D01*
X73619047Y-22807200D02*
X73523809Y-22711961D01*
X73523809Y-22711961D02*
X73476190Y-22616723D01*
X73476190Y-22616723D02*
X73428571Y-22426247D01*
X73428571Y-22426247D02*
X73428571Y-22283390D01*
X73428571Y-22283390D02*
X73476190Y-22092914D01*
X73476190Y-22092914D02*
X73523809Y-21997676D01*
X73523809Y-21997676D02*
X73619047Y-21902438D01*
X73619047Y-21902438D02*
X73761904Y-21854819D01*
X73761904Y-21854819D02*
X73857142Y-21854819D01*
X73857142Y-21854819D02*
X73999999Y-21902438D01*
X73999999Y-21902438D02*
X74047618Y-21950057D01*
X74428571Y-22569104D02*
X74904761Y-22569104D01*
X74333333Y-22854819D02*
X74666666Y-21854819D01*
X74666666Y-21854819D02*
X74999999Y-22854819D01*
X75285714Y-22569104D02*
X75761904Y-22569104D01*
X75190476Y-22854819D02*
X75523809Y-21854819D01*
X75523809Y-21854819D02*
X75857142Y-22854819D01*
X76380952Y-21854819D02*
X76476190Y-21854819D01*
X76476190Y-21854819D02*
X76571428Y-21902438D01*
X76571428Y-21902438D02*
X76619047Y-21950057D01*
X76619047Y-21950057D02*
X76666666Y-22045295D01*
X76666666Y-22045295D02*
X76714285Y-22235771D01*
X76714285Y-22235771D02*
X76714285Y-22473866D01*
X76714285Y-22473866D02*
X76666666Y-22664342D01*
X76666666Y-22664342D02*
X76619047Y-22759580D01*
X76619047Y-22759580D02*
X76571428Y-22807200D01*
X76571428Y-22807200D02*
X76476190Y-22854819D01*
X76476190Y-22854819D02*
X76380952Y-22854819D01*
X76380952Y-22854819D02*
X76285714Y-22807200D01*
X76285714Y-22807200D02*
X76238095Y-22759580D01*
X76238095Y-22759580D02*
X76190476Y-22664342D01*
X76190476Y-22664342D02*
X76142857Y-22473866D01*
X76142857Y-22473866D02*
X76142857Y-22235771D01*
X76142857Y-22235771D02*
X76190476Y-22045295D01*
X76190476Y-22045295D02*
X76238095Y-21950057D01*
X76238095Y-21950057D02*
X76285714Y-21902438D01*
X76285714Y-21902438D02*
X76380952Y-21854819D01*
X77666666Y-22854819D02*
X77095238Y-22854819D01*
X77380952Y-22854819D02*
X77380952Y-21854819D01*
X77380952Y-21854819D02*
X77285714Y-21997676D01*
X77285714Y-21997676D02*
X77190476Y-22092914D01*
X77190476Y-22092914D02*
X77095238Y-22140533D01*
X78285714Y-21854819D02*
X78380952Y-21854819D01*
X78380952Y-21854819D02*
X78476190Y-21902438D01*
X78476190Y-21902438D02*
X78523809Y-21950057D01*
X78523809Y-21950057D02*
X78571428Y-22045295D01*
X78571428Y-22045295D02*
X78619047Y-22235771D01*
X78619047Y-22235771D02*
X78619047Y-22473866D01*
X78619047Y-22473866D02*
X78571428Y-22664342D01*
X78571428Y-22664342D02*
X78523809Y-22759580D01*
X78523809Y-22759580D02*
X78476190Y-22807200D01*
X78476190Y-22807200D02*
X78380952Y-22854819D01*
X78380952Y-22854819D02*
X78285714Y-22854819D01*
X78285714Y-22854819D02*
X78190476Y-22807200D01*
X78190476Y-22807200D02*
X78142857Y-22759580D01*
X78142857Y-22759580D02*
X78095238Y-22664342D01*
X78095238Y-22664342D02*
X78047619Y-22473866D01*
X78047619Y-22473866D02*
X78047619Y-22235771D01*
X78047619Y-22235771D02*
X78095238Y-22045295D01*
X78095238Y-22045295D02*
X78142857Y-21950057D01*
X78142857Y-21950057D02*
X78190476Y-21902438D01*
X78190476Y-21902438D02*
X78285714Y-21854819D01*
X72354762Y-7831009D02*
X72021429Y-7831009D01*
X72021429Y-8354819D02*
X72021429Y-7354819D01*
X72021429Y-7354819D02*
X72497619Y-7354819D01*
X72878572Y-8354819D02*
X72878572Y-7688152D01*
X72878572Y-7354819D02*
X72830953Y-7402438D01*
X72830953Y-7402438D02*
X72878572Y-7450057D01*
X72878572Y-7450057D02*
X72926191Y-7402438D01*
X72926191Y-7402438D02*
X72878572Y-7354819D01*
X72878572Y-7354819D02*
X72878572Y-7450057D01*
X73783333Y-8354819D02*
X73783333Y-7354819D01*
X73783333Y-8307200D02*
X73688095Y-8354819D01*
X73688095Y-8354819D02*
X73497619Y-8354819D01*
X73497619Y-8354819D02*
X73402381Y-8307200D01*
X73402381Y-8307200D02*
X73354762Y-8259580D01*
X73354762Y-8259580D02*
X73307143Y-8164342D01*
X73307143Y-8164342D02*
X73307143Y-7878628D01*
X73307143Y-7878628D02*
X73354762Y-7783390D01*
X73354762Y-7783390D02*
X73402381Y-7735771D01*
X73402381Y-7735771D02*
X73497619Y-7688152D01*
X73497619Y-7688152D02*
X73688095Y-7688152D01*
X73688095Y-7688152D02*
X73783333Y-7735771D01*
X74688095Y-7688152D02*
X74688095Y-8354819D01*
X74259524Y-7688152D02*
X74259524Y-8211961D01*
X74259524Y-8211961D02*
X74307143Y-8307200D01*
X74307143Y-8307200D02*
X74402381Y-8354819D01*
X74402381Y-8354819D02*
X74545238Y-8354819D01*
X74545238Y-8354819D02*
X74640476Y-8307200D01*
X74640476Y-8307200D02*
X74688095Y-8259580D01*
X75592857Y-8307200D02*
X75497619Y-8354819D01*
X75497619Y-8354819D02*
X75307143Y-8354819D01*
X75307143Y-8354819D02*
X75211905Y-8307200D01*
X75211905Y-8307200D02*
X75164286Y-8259580D01*
X75164286Y-8259580D02*
X75116667Y-8164342D01*
X75116667Y-8164342D02*
X75116667Y-7878628D01*
X75116667Y-7878628D02*
X75164286Y-7783390D01*
X75164286Y-7783390D02*
X75211905Y-7735771D01*
X75211905Y-7735771D02*
X75307143Y-7688152D01*
X75307143Y-7688152D02*
X75497619Y-7688152D01*
X75497619Y-7688152D02*
X75592857Y-7735771D01*
X76021429Y-8354819D02*
X76021429Y-7688152D01*
X76021429Y-7354819D02*
X75973810Y-7402438D01*
X75973810Y-7402438D02*
X76021429Y-7450057D01*
X76021429Y-7450057D02*
X76069048Y-7402438D01*
X76069048Y-7402438D02*
X76021429Y-7354819D01*
X76021429Y-7354819D02*
X76021429Y-7450057D01*
X76926190Y-8354819D02*
X76926190Y-7831009D01*
X76926190Y-7831009D02*
X76878571Y-7735771D01*
X76878571Y-7735771D02*
X76783333Y-7688152D01*
X76783333Y-7688152D02*
X76592857Y-7688152D01*
X76592857Y-7688152D02*
X76497619Y-7735771D01*
X76926190Y-8307200D02*
X76830952Y-8354819D01*
X76830952Y-8354819D02*
X76592857Y-8354819D01*
X76592857Y-8354819D02*
X76497619Y-8307200D01*
X76497619Y-8307200D02*
X76450000Y-8211961D01*
X76450000Y-8211961D02*
X76450000Y-8116723D01*
X76450000Y-8116723D02*
X76497619Y-8021485D01*
X76497619Y-8021485D02*
X76592857Y-7973866D01*
X76592857Y-7973866D02*
X76830952Y-7973866D01*
X76830952Y-7973866D02*
X76926190Y-7926247D01*
X77545238Y-8354819D02*
X77450000Y-8307200D01*
X77450000Y-8307200D02*
X77402381Y-8211961D01*
X77402381Y-8211961D02*
X77402381Y-7354819D01*
X77688096Y-8450057D02*
X78450000Y-8450057D01*
X79211905Y-8354819D02*
X78640477Y-8354819D01*
X78926191Y-8354819D02*
X78926191Y-7354819D01*
X78926191Y-7354819D02*
X78830953Y-7497676D01*
X78830953Y-7497676D02*
X78735715Y-7592914D01*
X78735715Y-7592914D02*
X78640477Y-7640533D01*
X79640477Y-8354819D02*
X79640477Y-7688152D01*
X79640477Y-7783390D02*
X79688096Y-7735771D01*
X79688096Y-7735771D02*
X79783334Y-7688152D01*
X79783334Y-7688152D02*
X79926191Y-7688152D01*
X79926191Y-7688152D02*
X80021429Y-7735771D01*
X80021429Y-7735771D02*
X80069048Y-7831009D01*
X80069048Y-7831009D02*
X80069048Y-8354819D01*
X80069048Y-7831009D02*
X80116667Y-7735771D01*
X80116667Y-7735771D02*
X80211905Y-7688152D01*
X80211905Y-7688152D02*
X80354762Y-7688152D01*
X80354762Y-7688152D02*
X80450001Y-7735771D01*
X80450001Y-7735771D02*
X80497620Y-7831009D01*
X80497620Y-7831009D02*
X80497620Y-8354819D01*
X80973810Y-8354819D02*
X80973810Y-7688152D01*
X80973810Y-7783390D02*
X81021429Y-7735771D01*
X81021429Y-7735771D02*
X81116667Y-7688152D01*
X81116667Y-7688152D02*
X81259524Y-7688152D01*
X81259524Y-7688152D02*
X81354762Y-7735771D01*
X81354762Y-7735771D02*
X81402381Y-7831009D01*
X81402381Y-7831009D02*
X81402381Y-8354819D01*
X81402381Y-7831009D02*
X81450000Y-7735771D01*
X81450000Y-7735771D02*
X81545238Y-7688152D01*
X81545238Y-7688152D02*
X81688095Y-7688152D01*
X81688095Y-7688152D02*
X81783334Y-7735771D01*
X81783334Y-7735771D02*
X81830953Y-7831009D01*
X81830953Y-7831009D02*
X81830953Y-8354819D01*
X82069048Y-8450057D02*
X82830952Y-8450057D01*
X83069048Y-8354819D02*
X83069048Y-7354819D01*
X83069048Y-7354819D02*
X83402381Y-8069104D01*
X83402381Y-8069104D02*
X83735714Y-7354819D01*
X83735714Y-7354819D02*
X83735714Y-8354819D01*
X84640476Y-8354819D02*
X84640476Y-7831009D01*
X84640476Y-7831009D02*
X84592857Y-7735771D01*
X84592857Y-7735771D02*
X84497619Y-7688152D01*
X84497619Y-7688152D02*
X84307143Y-7688152D01*
X84307143Y-7688152D02*
X84211905Y-7735771D01*
X84640476Y-8307200D02*
X84545238Y-8354819D01*
X84545238Y-8354819D02*
X84307143Y-8354819D01*
X84307143Y-8354819D02*
X84211905Y-8307200D01*
X84211905Y-8307200D02*
X84164286Y-8211961D01*
X84164286Y-8211961D02*
X84164286Y-8116723D01*
X84164286Y-8116723D02*
X84211905Y-8021485D01*
X84211905Y-8021485D02*
X84307143Y-7973866D01*
X84307143Y-7973866D02*
X84545238Y-7973866D01*
X84545238Y-7973866D02*
X84640476Y-7926247D01*
X85069048Y-8307200D02*
X85164286Y-8354819D01*
X85164286Y-8354819D02*
X85354762Y-8354819D01*
X85354762Y-8354819D02*
X85450000Y-8307200D01*
X85450000Y-8307200D02*
X85497619Y-8211961D01*
X85497619Y-8211961D02*
X85497619Y-8164342D01*
X85497619Y-8164342D02*
X85450000Y-8069104D01*
X85450000Y-8069104D02*
X85354762Y-8021485D01*
X85354762Y-8021485D02*
X85211905Y-8021485D01*
X85211905Y-8021485D02*
X85116667Y-7973866D01*
X85116667Y-7973866D02*
X85069048Y-7878628D01*
X85069048Y-7878628D02*
X85069048Y-7831009D01*
X85069048Y-7831009D02*
X85116667Y-7735771D01*
X85116667Y-7735771D02*
X85211905Y-7688152D01*
X85211905Y-7688152D02*
X85354762Y-7688152D01*
X85354762Y-7688152D02*
X85450000Y-7735771D01*
X85926191Y-8354819D02*
X85926191Y-7354819D01*
X86021429Y-7973866D02*
X86307143Y-8354819D01*
X86307143Y-7688152D02*
X85926191Y-8069104D01*
X86688096Y-7450057D02*
X86735715Y-7402438D01*
X86735715Y-7402438D02*
X86830953Y-7354819D01*
X86830953Y-7354819D02*
X87069048Y-7354819D01*
X87069048Y-7354819D02*
X87164286Y-7402438D01*
X87164286Y-7402438D02*
X87211905Y-7450057D01*
X87211905Y-7450057D02*
X87259524Y-7545295D01*
X87259524Y-7545295D02*
X87259524Y-7640533D01*
X87259524Y-7640533D02*
X87211905Y-7783390D01*
X87211905Y-7783390D02*
X86640477Y-8354819D01*
X86640477Y-8354819D02*
X87259524Y-8354819D01*
X87688096Y-8354819D02*
X87688096Y-7688152D01*
X87688096Y-7783390D02*
X87735715Y-7735771D01*
X87735715Y-7735771D02*
X87830953Y-7688152D01*
X87830953Y-7688152D02*
X87973810Y-7688152D01*
X87973810Y-7688152D02*
X88069048Y-7735771D01*
X88069048Y-7735771D02*
X88116667Y-7831009D01*
X88116667Y-7831009D02*
X88116667Y-8354819D01*
X88116667Y-7831009D02*
X88164286Y-7735771D01*
X88164286Y-7735771D02*
X88259524Y-7688152D01*
X88259524Y-7688152D02*
X88402381Y-7688152D01*
X88402381Y-7688152D02*
X88497620Y-7735771D01*
X88497620Y-7735771D02*
X88545239Y-7831009D01*
X88545239Y-7831009D02*
X88545239Y-8354819D01*
X89021429Y-8354819D02*
X89021429Y-7688152D01*
X89021429Y-7783390D02*
X89069048Y-7735771D01*
X89069048Y-7735771D02*
X89164286Y-7688152D01*
X89164286Y-7688152D02*
X89307143Y-7688152D01*
X89307143Y-7688152D02*
X89402381Y-7735771D01*
X89402381Y-7735771D02*
X89450000Y-7831009D01*
X89450000Y-7831009D02*
X89450000Y-8354819D01*
X89450000Y-7831009D02*
X89497619Y-7735771D01*
X89497619Y-7735771D02*
X89592857Y-7688152D01*
X89592857Y-7688152D02*
X89735714Y-7688152D01*
X89735714Y-7688152D02*
X89830953Y-7735771D01*
X89830953Y-7735771D02*
X89878572Y-7831009D01*
X89878572Y-7831009D02*
X89878572Y-8354819D01*
D11*
X80414286Y-5915244D02*
X80247619Y-5915244D01*
X80247619Y-6177149D02*
X80247619Y-5677149D01*
X80247619Y-5677149D02*
X80485714Y-5677149D01*
X80676190Y-6177149D02*
X80676190Y-5677149D01*
X80914285Y-6177149D02*
X80914285Y-5677149D01*
X80914285Y-5677149D02*
X81033333Y-5677149D01*
X81033333Y-5677149D02*
X81104761Y-5700959D01*
X81104761Y-5700959D02*
X81152380Y-5748578D01*
X81152380Y-5748578D02*
X81176190Y-5796197D01*
X81176190Y-5796197D02*
X81199999Y-5891435D01*
X81199999Y-5891435D02*
X81199999Y-5962863D01*
X81199999Y-5962863D02*
X81176190Y-6058101D01*
X81176190Y-6058101D02*
X81152380Y-6105720D01*
X81152380Y-6105720D02*
X81104761Y-6153340D01*
X81104761Y-6153340D02*
X81033333Y-6177149D01*
X81033333Y-6177149D02*
X80914285Y-6177149D01*
X81390476Y-5724768D02*
X81414285Y-5700959D01*
X81414285Y-5700959D02*
X81461904Y-5677149D01*
X81461904Y-5677149D02*
X81580952Y-5677149D01*
X81580952Y-5677149D02*
X81628571Y-5700959D01*
X81628571Y-5700959D02*
X81652380Y-5724768D01*
X81652380Y-5724768D02*
X81676190Y-5772387D01*
X81676190Y-5772387D02*
X81676190Y-5820006D01*
X81676190Y-5820006D02*
X81652380Y-5891435D01*
X81652380Y-5891435D02*
X81366666Y-6177149D01*
X81366666Y-6177149D02*
X81676190Y-6177149D01*
D10*
X-2645237Y-11831009D02*
X-2978570Y-11831009D01*
X-2978570Y-12354819D02*
X-2978570Y-11354819D01*
X-2978570Y-11354819D02*
X-2502380Y-11354819D01*
X-2121427Y-12354819D02*
X-2121427Y-11688152D01*
X-2121427Y-11354819D02*
X-2169046Y-11402438D01*
X-2169046Y-11402438D02*
X-2121427Y-11450057D01*
X-2121427Y-11450057D02*
X-2073808Y-11402438D01*
X-2073808Y-11402438D02*
X-2121427Y-11354819D01*
X-2121427Y-11354819D02*
X-2121427Y-11450057D01*
X-1216666Y-12354819D02*
X-1216666Y-11354819D01*
X-1216666Y-12307200D02*
X-1311904Y-12354819D01*
X-1311904Y-12354819D02*
X-1502380Y-12354819D01*
X-1502380Y-12354819D02*
X-1597618Y-12307200D01*
X-1597618Y-12307200D02*
X-1645237Y-12259580D01*
X-1645237Y-12259580D02*
X-1692856Y-12164342D01*
X-1692856Y-12164342D02*
X-1692856Y-11878628D01*
X-1692856Y-11878628D02*
X-1645237Y-11783390D01*
X-1645237Y-11783390D02*
X-1597618Y-11735771D01*
X-1597618Y-11735771D02*
X-1502380Y-11688152D01*
X-1502380Y-11688152D02*
X-1311904Y-11688152D01*
X-1311904Y-11688152D02*
X-1216666Y-11735771D01*
X-311904Y-11688152D02*
X-311904Y-12354819D01*
X-740475Y-11688152D02*
X-740475Y-12211961D01*
X-740475Y-12211961D02*
X-692856Y-12307200D01*
X-692856Y-12307200D02*
X-597618Y-12354819D01*
X-597618Y-12354819D02*
X-454761Y-12354819D01*
X-454761Y-12354819D02*
X-359523Y-12307200D01*
X-359523Y-12307200D02*
X-311904Y-12259580D01*
X592857Y-12307200D02*
X497619Y-12354819D01*
X497619Y-12354819D02*
X307143Y-12354819D01*
X307143Y-12354819D02*
X211905Y-12307200D01*
X211905Y-12307200D02*
X164286Y-12259580D01*
X164286Y-12259580D02*
X116667Y-12164342D01*
X116667Y-12164342D02*
X116667Y-11878628D01*
X116667Y-11878628D02*
X164286Y-11783390D01*
X164286Y-11783390D02*
X211905Y-11735771D01*
X211905Y-11735771D02*
X307143Y-11688152D01*
X307143Y-11688152D02*
X497619Y-11688152D01*
X497619Y-11688152D02*
X592857Y-11735771D01*
X1021429Y-12354819D02*
X1021429Y-11688152D01*
X1021429Y-11354819D02*
X973810Y-11402438D01*
X973810Y-11402438D02*
X1021429Y-11450057D01*
X1021429Y-11450057D02*
X1069048Y-11402438D01*
X1069048Y-11402438D02*
X1021429Y-11354819D01*
X1021429Y-11354819D02*
X1021429Y-11450057D01*
X1926190Y-12354819D02*
X1926190Y-11831009D01*
X1926190Y-11831009D02*
X1878571Y-11735771D01*
X1878571Y-11735771D02*
X1783333Y-11688152D01*
X1783333Y-11688152D02*
X1592857Y-11688152D01*
X1592857Y-11688152D02*
X1497619Y-11735771D01*
X1926190Y-12307200D02*
X1830952Y-12354819D01*
X1830952Y-12354819D02*
X1592857Y-12354819D01*
X1592857Y-12354819D02*
X1497619Y-12307200D01*
X1497619Y-12307200D02*
X1450000Y-12211961D01*
X1450000Y-12211961D02*
X1450000Y-12116723D01*
X1450000Y-12116723D02*
X1497619Y-12021485D01*
X1497619Y-12021485D02*
X1592857Y-11973866D01*
X1592857Y-11973866D02*
X1830952Y-11973866D01*
X1830952Y-11973866D02*
X1926190Y-11926247D01*
X2545238Y-12354819D02*
X2450000Y-12307200D01*
X2450000Y-12307200D02*
X2402381Y-12211961D01*
X2402381Y-12211961D02*
X2402381Y-11354819D01*
X2688096Y-12450057D02*
X3450000Y-12450057D01*
X4211905Y-12354819D02*
X3640477Y-12354819D01*
X3926191Y-12354819D02*
X3926191Y-11354819D01*
X3926191Y-11354819D02*
X3830953Y-11497676D01*
X3830953Y-11497676D02*
X3735715Y-11592914D01*
X3735715Y-11592914D02*
X3640477Y-11640533D01*
X4640477Y-12354819D02*
X4640477Y-11688152D01*
X4640477Y-11783390D02*
X4688096Y-11735771D01*
X4688096Y-11735771D02*
X4783334Y-11688152D01*
X4783334Y-11688152D02*
X4926191Y-11688152D01*
X4926191Y-11688152D02*
X5021429Y-11735771D01*
X5021429Y-11735771D02*
X5069048Y-11831009D01*
X5069048Y-11831009D02*
X5069048Y-12354819D01*
X5069048Y-11831009D02*
X5116667Y-11735771D01*
X5116667Y-11735771D02*
X5211905Y-11688152D01*
X5211905Y-11688152D02*
X5354762Y-11688152D01*
X5354762Y-11688152D02*
X5450001Y-11735771D01*
X5450001Y-11735771D02*
X5497620Y-11831009D01*
X5497620Y-11831009D02*
X5497620Y-12354819D01*
X5973810Y-12354819D02*
X5973810Y-11688152D01*
X5973810Y-11783390D02*
X6021429Y-11735771D01*
X6021429Y-11735771D02*
X6116667Y-11688152D01*
X6116667Y-11688152D02*
X6259524Y-11688152D01*
X6259524Y-11688152D02*
X6354762Y-11735771D01*
X6354762Y-11735771D02*
X6402381Y-11831009D01*
X6402381Y-11831009D02*
X6402381Y-12354819D01*
X6402381Y-11831009D02*
X6450000Y-11735771D01*
X6450000Y-11735771D02*
X6545238Y-11688152D01*
X6545238Y-11688152D02*
X6688095Y-11688152D01*
X6688095Y-11688152D02*
X6783334Y-11735771D01*
X6783334Y-11735771D02*
X6830953Y-11831009D01*
X6830953Y-11831009D02*
X6830953Y-12354819D01*
X7069048Y-12450057D02*
X7830952Y-12450057D01*
X8069048Y-12354819D02*
X8069048Y-11354819D01*
X8069048Y-11354819D02*
X8402381Y-12069104D01*
X8402381Y-12069104D02*
X8735714Y-11354819D01*
X8735714Y-11354819D02*
X8735714Y-12354819D01*
X9640476Y-12354819D02*
X9640476Y-11831009D01*
X9640476Y-11831009D02*
X9592857Y-11735771D01*
X9592857Y-11735771D02*
X9497619Y-11688152D01*
X9497619Y-11688152D02*
X9307143Y-11688152D01*
X9307143Y-11688152D02*
X9211905Y-11735771D01*
X9640476Y-12307200D02*
X9545238Y-12354819D01*
X9545238Y-12354819D02*
X9307143Y-12354819D01*
X9307143Y-12354819D02*
X9211905Y-12307200D01*
X9211905Y-12307200D02*
X9164286Y-12211961D01*
X9164286Y-12211961D02*
X9164286Y-12116723D01*
X9164286Y-12116723D02*
X9211905Y-12021485D01*
X9211905Y-12021485D02*
X9307143Y-11973866D01*
X9307143Y-11973866D02*
X9545238Y-11973866D01*
X9545238Y-11973866D02*
X9640476Y-11926247D01*
X10069048Y-12307200D02*
X10164286Y-12354819D01*
X10164286Y-12354819D02*
X10354762Y-12354819D01*
X10354762Y-12354819D02*
X10450000Y-12307200D01*
X10450000Y-12307200D02*
X10497619Y-12211961D01*
X10497619Y-12211961D02*
X10497619Y-12164342D01*
X10497619Y-12164342D02*
X10450000Y-12069104D01*
X10450000Y-12069104D02*
X10354762Y-12021485D01*
X10354762Y-12021485D02*
X10211905Y-12021485D01*
X10211905Y-12021485D02*
X10116667Y-11973866D01*
X10116667Y-11973866D02*
X10069048Y-11878628D01*
X10069048Y-11878628D02*
X10069048Y-11831009D01*
X10069048Y-11831009D02*
X10116667Y-11735771D01*
X10116667Y-11735771D02*
X10211905Y-11688152D01*
X10211905Y-11688152D02*
X10354762Y-11688152D01*
X10354762Y-11688152D02*
X10450000Y-11735771D01*
X10926191Y-12354819D02*
X10926191Y-11354819D01*
X11021429Y-11973866D02*
X11307143Y-12354819D01*
X11307143Y-11688152D02*
X10926191Y-12069104D01*
X11688096Y-11450057D02*
X11735715Y-11402438D01*
X11735715Y-11402438D02*
X11830953Y-11354819D01*
X11830953Y-11354819D02*
X12069048Y-11354819D01*
X12069048Y-11354819D02*
X12164286Y-11402438D01*
X12164286Y-11402438D02*
X12211905Y-11450057D01*
X12211905Y-11450057D02*
X12259524Y-11545295D01*
X12259524Y-11545295D02*
X12259524Y-11640533D01*
X12259524Y-11640533D02*
X12211905Y-11783390D01*
X12211905Y-11783390D02*
X11640477Y-12354819D01*
X11640477Y-12354819D02*
X12259524Y-12354819D01*
X12688096Y-12354819D02*
X12688096Y-11688152D01*
X12688096Y-11783390D02*
X12735715Y-11735771D01*
X12735715Y-11735771D02*
X12830953Y-11688152D01*
X12830953Y-11688152D02*
X12973810Y-11688152D01*
X12973810Y-11688152D02*
X13069048Y-11735771D01*
X13069048Y-11735771D02*
X13116667Y-11831009D01*
X13116667Y-11831009D02*
X13116667Y-12354819D01*
X13116667Y-11831009D02*
X13164286Y-11735771D01*
X13164286Y-11735771D02*
X13259524Y-11688152D01*
X13259524Y-11688152D02*
X13402381Y-11688152D01*
X13402381Y-11688152D02*
X13497620Y-11735771D01*
X13497620Y-11735771D02*
X13545239Y-11831009D01*
X13545239Y-11831009D02*
X13545239Y-12354819D01*
X14021429Y-12354819D02*
X14021429Y-11688152D01*
X14021429Y-11783390D02*
X14069048Y-11735771D01*
X14069048Y-11735771D02*
X14164286Y-11688152D01*
X14164286Y-11688152D02*
X14307143Y-11688152D01*
X14307143Y-11688152D02*
X14402381Y-11735771D01*
X14402381Y-11735771D02*
X14450000Y-11831009D01*
X14450000Y-11831009D02*
X14450000Y-12354819D01*
X14450000Y-11831009D02*
X14497619Y-11735771D01*
X14497619Y-11735771D02*
X14592857Y-11688152D01*
X14592857Y-11688152D02*
X14735714Y-11688152D01*
X14735714Y-11688152D02*
X14830953Y-11735771D01*
X14830953Y-11735771D02*
X14878572Y-11831009D01*
X14878572Y-11831009D02*
X14878572Y-12354819D01*
D11*
X5414286Y-9915244D02*
X5247619Y-9915244D01*
X5247619Y-10177149D02*
X5247619Y-9677149D01*
X5247619Y-9677149D02*
X5485714Y-9677149D01*
X5676190Y-10177149D02*
X5676190Y-9677149D01*
X5914285Y-10177149D02*
X5914285Y-9677149D01*
X5914285Y-9677149D02*
X6033333Y-9677149D01*
X6033333Y-9677149D02*
X6104761Y-9700959D01*
X6104761Y-9700959D02*
X6152380Y-9748578D01*
X6152380Y-9748578D02*
X6176190Y-9796197D01*
X6176190Y-9796197D02*
X6199999Y-9891435D01*
X6199999Y-9891435D02*
X6199999Y-9962863D01*
X6199999Y-9962863D02*
X6176190Y-10058101D01*
X6176190Y-10058101D02*
X6152380Y-10105720D01*
X6152380Y-10105720D02*
X6104761Y-10153340D01*
X6104761Y-10153340D02*
X6033333Y-10177149D01*
X6033333Y-10177149D02*
X5914285Y-10177149D01*
X6676190Y-10177149D02*
X6390476Y-10177149D01*
X6533333Y-10177149D02*
X6533333Y-9677149D01*
X6533333Y-9677149D02*
X6485714Y-9748578D01*
X6485714Y-9748578D02*
X6438095Y-9796197D01*
X6438095Y-9796197D02*
X6390476Y-9820006D01*
D10*
X13833333Y-24181009D02*
X14166666Y-24181009D01*
X14309523Y-24704819D02*
X13833333Y-24704819D01*
X13833333Y-24704819D02*
X13833333Y-23704819D01*
X13833333Y-23704819D02*
X14309523Y-23704819D01*
X15309523Y-24609580D02*
X15261904Y-24657200D01*
X15261904Y-24657200D02*
X15119047Y-24704819D01*
X15119047Y-24704819D02*
X15023809Y-24704819D01*
X15023809Y-24704819D02*
X14880952Y-24657200D01*
X14880952Y-24657200D02*
X14785714Y-24561961D01*
X14785714Y-24561961D02*
X14738095Y-24466723D01*
X14738095Y-24466723D02*
X14690476Y-24276247D01*
X14690476Y-24276247D02*
X14690476Y-24133390D01*
X14690476Y-24133390D02*
X14738095Y-23942914D01*
X14738095Y-23942914D02*
X14785714Y-23847676D01*
X14785714Y-23847676D02*
X14880952Y-23752438D01*
X14880952Y-23752438D02*
X15023809Y-23704819D01*
X15023809Y-23704819D02*
X15119047Y-23704819D01*
X15119047Y-23704819D02*
X15261904Y-23752438D01*
X15261904Y-23752438D02*
X15309523Y-23800057D01*
X16261904Y-24704819D02*
X15690476Y-24704819D01*
X15976190Y-24704819D02*
X15976190Y-23704819D01*
X15976190Y-23704819D02*
X15880952Y-23847676D01*
X15880952Y-23847676D02*
X15785714Y-23942914D01*
X15785714Y-23942914D02*
X15690476Y-23990533D01*
X17214285Y-24704819D02*
X16642857Y-24704819D01*
X16928571Y-24704819D02*
X16928571Y-23704819D01*
X16928571Y-23704819D02*
X16833333Y-23847676D01*
X16833333Y-23847676D02*
X16738095Y-23942914D01*
X16738095Y-23942914D02*
X16642857Y-23990533D01*
X13785714Y-12931009D02*
X14119047Y-12931009D01*
X14261904Y-13454819D02*
X13785714Y-13454819D01*
X13785714Y-13454819D02*
X13785714Y-12454819D01*
X13785714Y-12454819D02*
X14261904Y-12454819D01*
X14690476Y-13454819D02*
X14690476Y-12454819D01*
X14690476Y-12454819D02*
X15261904Y-13454819D01*
X15261904Y-13454819D02*
X15261904Y-12454819D01*
X16309523Y-13359580D02*
X16261904Y-13407200D01*
X16261904Y-13407200D02*
X16119047Y-13454819D01*
X16119047Y-13454819D02*
X16023809Y-13454819D01*
X16023809Y-13454819D02*
X15880952Y-13407200D01*
X15880952Y-13407200D02*
X15785714Y-13311961D01*
X15785714Y-13311961D02*
X15738095Y-13216723D01*
X15738095Y-13216723D02*
X15690476Y-13026247D01*
X15690476Y-13026247D02*
X15690476Y-12883390D01*
X15690476Y-12883390D02*
X15738095Y-12692914D01*
X15738095Y-12692914D02*
X15785714Y-12597676D01*
X15785714Y-12597676D02*
X15880952Y-12502438D01*
X15880952Y-12502438D02*
X16023809Y-12454819D01*
X16023809Y-12454819D02*
X16119047Y-12454819D01*
X16119047Y-12454819D02*
X16261904Y-12502438D01*
X16261904Y-12502438D02*
X16309523Y-12550057D01*
X17261904Y-13454819D02*
X16690476Y-13454819D01*
X16976190Y-13454819D02*
X16976190Y-12454819D01*
X16976190Y-12454819D02*
X16880952Y-12597676D01*
X16880952Y-12597676D02*
X16785714Y-12692914D01*
X16785714Y-12692914D02*
X16690476Y-12740533D01*
X9954819Y-62952380D02*
X9288152Y-62952380D01*
X9478628Y-62952380D02*
X9383390Y-62904761D01*
X9383390Y-62904761D02*
X9335771Y-62857142D01*
X9335771Y-62857142D02*
X9288152Y-62761904D01*
X9288152Y-62761904D02*
X9288152Y-62666666D01*
X9907200Y-61952380D02*
X9954819Y-62047618D01*
X9954819Y-62047618D02*
X9954819Y-62238094D01*
X9954819Y-62238094D02*
X9907200Y-62333332D01*
X9907200Y-62333332D02*
X9811961Y-62380951D01*
X9811961Y-62380951D02*
X9431009Y-62380951D01*
X9431009Y-62380951D02*
X9335771Y-62333332D01*
X9335771Y-62333332D02*
X9288152Y-62238094D01*
X9288152Y-62238094D02*
X9288152Y-62047618D01*
X9288152Y-62047618D02*
X9335771Y-61952380D01*
X9335771Y-61952380D02*
X9431009Y-61904761D01*
X9431009Y-61904761D02*
X9526247Y-61904761D01*
X9526247Y-61904761D02*
X9621485Y-62380951D01*
X9954819Y-61047618D02*
X8954819Y-61047618D01*
X9907200Y-61047618D02*
X9954819Y-61142856D01*
X9954819Y-61142856D02*
X9954819Y-61333332D01*
X9954819Y-61333332D02*
X9907200Y-61428570D01*
X9907200Y-61428570D02*
X9859580Y-61476189D01*
X9859580Y-61476189D02*
X9764342Y-61523808D01*
X9764342Y-61523808D02*
X9478628Y-61523808D01*
X9478628Y-61523808D02*
X9383390Y-61476189D01*
X9383390Y-61476189D02*
X9335771Y-61428570D01*
X9335771Y-61428570D02*
X9288152Y-61333332D01*
X9288152Y-61333332D02*
X9288152Y-61142856D01*
X9288152Y-61142856D02*
X9335771Y-61047618D01*
X5954819Y-62738094D02*
X4954819Y-62738094D01*
X4954819Y-62738094D02*
X4954819Y-62499999D01*
X4954819Y-62499999D02*
X5002438Y-62357142D01*
X5002438Y-62357142D02*
X5097676Y-62261904D01*
X5097676Y-62261904D02*
X5192914Y-62214285D01*
X5192914Y-62214285D02*
X5383390Y-62166666D01*
X5383390Y-62166666D02*
X5526247Y-62166666D01*
X5526247Y-62166666D02*
X5716723Y-62214285D01*
X5716723Y-62214285D02*
X5811961Y-62261904D01*
X5811961Y-62261904D02*
X5907200Y-62357142D01*
X5907200Y-62357142D02*
X5954819Y-62499999D01*
X5954819Y-62499999D02*
X5954819Y-62738094D01*
X4954819Y-61833332D02*
X4954819Y-61166666D01*
X4954819Y-61166666D02*
X5954819Y-61595237D01*
X9954819Y-71952380D02*
X9288152Y-71952380D01*
X9478628Y-71952380D02*
X9383390Y-71904761D01*
X9383390Y-71904761D02*
X9335771Y-71857142D01*
X9335771Y-71857142D02*
X9288152Y-71761904D01*
X9288152Y-71761904D02*
X9288152Y-71666666D01*
X9907200Y-70952380D02*
X9954819Y-71047618D01*
X9954819Y-71047618D02*
X9954819Y-71238094D01*
X9954819Y-71238094D02*
X9907200Y-71333332D01*
X9907200Y-71333332D02*
X9811961Y-71380951D01*
X9811961Y-71380951D02*
X9431009Y-71380951D01*
X9431009Y-71380951D02*
X9335771Y-71333332D01*
X9335771Y-71333332D02*
X9288152Y-71238094D01*
X9288152Y-71238094D02*
X9288152Y-71047618D01*
X9288152Y-71047618D02*
X9335771Y-70952380D01*
X9335771Y-70952380D02*
X9431009Y-70904761D01*
X9431009Y-70904761D02*
X9526247Y-70904761D01*
X9526247Y-70904761D02*
X9621485Y-71380951D01*
X9954819Y-70047618D02*
X8954819Y-70047618D01*
X9907200Y-70047618D02*
X9954819Y-70142856D01*
X9954819Y-70142856D02*
X9954819Y-70333332D01*
X9954819Y-70333332D02*
X9907200Y-70428570D01*
X9907200Y-70428570D02*
X9859580Y-70476189D01*
X9859580Y-70476189D02*
X9764342Y-70523808D01*
X9764342Y-70523808D02*
X9478628Y-70523808D01*
X9478628Y-70523808D02*
X9383390Y-70476189D01*
X9383390Y-70476189D02*
X9335771Y-70428570D01*
X9335771Y-70428570D02*
X9288152Y-70333332D01*
X9288152Y-70333332D02*
X9288152Y-70142856D01*
X9288152Y-70142856D02*
X9335771Y-70047618D01*
X5954819Y-71738094D02*
X4954819Y-71738094D01*
X4954819Y-71738094D02*
X4954819Y-71499999D01*
X4954819Y-71499999D02*
X5002438Y-71357142D01*
X5002438Y-71357142D02*
X5097676Y-71261904D01*
X5097676Y-71261904D02*
X5192914Y-71214285D01*
X5192914Y-71214285D02*
X5383390Y-71166666D01*
X5383390Y-71166666D02*
X5526247Y-71166666D01*
X5526247Y-71166666D02*
X5716723Y-71214285D01*
X5716723Y-71214285D02*
X5811961Y-71261904D01*
X5811961Y-71261904D02*
X5907200Y-71357142D01*
X5907200Y-71357142D02*
X5954819Y-71499999D01*
X5954819Y-71499999D02*
X5954819Y-71738094D01*
X5954819Y-70690475D02*
X5954819Y-70499999D01*
X5954819Y-70499999D02*
X5907200Y-70404761D01*
X5907200Y-70404761D02*
X5859580Y-70357142D01*
X5859580Y-70357142D02*
X5716723Y-70261904D01*
X5716723Y-70261904D02*
X5526247Y-70214285D01*
X5526247Y-70214285D02*
X5145295Y-70214285D01*
X5145295Y-70214285D02*
X5050057Y-70261904D01*
X5050057Y-70261904D02*
X5002438Y-70309523D01*
X5002438Y-70309523D02*
X4954819Y-70404761D01*
X4954819Y-70404761D02*
X4954819Y-70595237D01*
X4954819Y-70595237D02*
X5002438Y-70690475D01*
X5002438Y-70690475D02*
X5050057Y-70738094D01*
X5050057Y-70738094D02*
X5145295Y-70785713D01*
X5145295Y-70785713D02*
X5383390Y-70785713D01*
X5383390Y-70785713D02*
X5478628Y-70738094D01*
X5478628Y-70738094D02*
X5526247Y-70690475D01*
X5526247Y-70690475D02*
X5573866Y-70595237D01*
X5573866Y-70595237D02*
X5573866Y-70404761D01*
X5573866Y-70404761D02*
X5526247Y-70309523D01*
X5526247Y-70309523D02*
X5478628Y-70261904D01*
X5478628Y-70261904D02*
X5383390Y-70214285D01*
X13354762Y-86831009D02*
X13021429Y-86831009D01*
X13021429Y-87354819D02*
X13021429Y-86354819D01*
X13021429Y-86354819D02*
X13497619Y-86354819D01*
X13878572Y-87354819D02*
X13878572Y-86688152D01*
X13878572Y-86354819D02*
X13830953Y-86402438D01*
X13830953Y-86402438D02*
X13878572Y-86450057D01*
X13878572Y-86450057D02*
X13926191Y-86402438D01*
X13926191Y-86402438D02*
X13878572Y-86354819D01*
X13878572Y-86354819D02*
X13878572Y-86450057D01*
X14783333Y-87354819D02*
X14783333Y-86354819D01*
X14783333Y-87307200D02*
X14688095Y-87354819D01*
X14688095Y-87354819D02*
X14497619Y-87354819D01*
X14497619Y-87354819D02*
X14402381Y-87307200D01*
X14402381Y-87307200D02*
X14354762Y-87259580D01*
X14354762Y-87259580D02*
X14307143Y-87164342D01*
X14307143Y-87164342D02*
X14307143Y-86878628D01*
X14307143Y-86878628D02*
X14354762Y-86783390D01*
X14354762Y-86783390D02*
X14402381Y-86735771D01*
X14402381Y-86735771D02*
X14497619Y-86688152D01*
X14497619Y-86688152D02*
X14688095Y-86688152D01*
X14688095Y-86688152D02*
X14783333Y-86735771D01*
X15688095Y-86688152D02*
X15688095Y-87354819D01*
X15259524Y-86688152D02*
X15259524Y-87211961D01*
X15259524Y-87211961D02*
X15307143Y-87307200D01*
X15307143Y-87307200D02*
X15402381Y-87354819D01*
X15402381Y-87354819D02*
X15545238Y-87354819D01*
X15545238Y-87354819D02*
X15640476Y-87307200D01*
X15640476Y-87307200D02*
X15688095Y-87259580D01*
X16592857Y-87307200D02*
X16497619Y-87354819D01*
X16497619Y-87354819D02*
X16307143Y-87354819D01*
X16307143Y-87354819D02*
X16211905Y-87307200D01*
X16211905Y-87307200D02*
X16164286Y-87259580D01*
X16164286Y-87259580D02*
X16116667Y-87164342D01*
X16116667Y-87164342D02*
X16116667Y-86878628D01*
X16116667Y-86878628D02*
X16164286Y-86783390D01*
X16164286Y-86783390D02*
X16211905Y-86735771D01*
X16211905Y-86735771D02*
X16307143Y-86688152D01*
X16307143Y-86688152D02*
X16497619Y-86688152D01*
X16497619Y-86688152D02*
X16592857Y-86735771D01*
X17021429Y-87354819D02*
X17021429Y-86688152D01*
X17021429Y-86354819D02*
X16973810Y-86402438D01*
X16973810Y-86402438D02*
X17021429Y-86450057D01*
X17021429Y-86450057D02*
X17069048Y-86402438D01*
X17069048Y-86402438D02*
X17021429Y-86354819D01*
X17021429Y-86354819D02*
X17021429Y-86450057D01*
X17926190Y-87354819D02*
X17926190Y-86831009D01*
X17926190Y-86831009D02*
X17878571Y-86735771D01*
X17878571Y-86735771D02*
X17783333Y-86688152D01*
X17783333Y-86688152D02*
X17592857Y-86688152D01*
X17592857Y-86688152D02*
X17497619Y-86735771D01*
X17926190Y-87307200D02*
X17830952Y-87354819D01*
X17830952Y-87354819D02*
X17592857Y-87354819D01*
X17592857Y-87354819D02*
X17497619Y-87307200D01*
X17497619Y-87307200D02*
X17450000Y-87211961D01*
X17450000Y-87211961D02*
X17450000Y-87116723D01*
X17450000Y-87116723D02*
X17497619Y-87021485D01*
X17497619Y-87021485D02*
X17592857Y-86973866D01*
X17592857Y-86973866D02*
X17830952Y-86973866D01*
X17830952Y-86973866D02*
X17926190Y-86926247D01*
X18545238Y-87354819D02*
X18450000Y-87307200D01*
X18450000Y-87307200D02*
X18402381Y-87211961D01*
X18402381Y-87211961D02*
X18402381Y-86354819D01*
X18688096Y-87450057D02*
X19450000Y-87450057D01*
X20211905Y-87354819D02*
X19640477Y-87354819D01*
X19926191Y-87354819D02*
X19926191Y-86354819D01*
X19926191Y-86354819D02*
X19830953Y-86497676D01*
X19830953Y-86497676D02*
X19735715Y-86592914D01*
X19735715Y-86592914D02*
X19640477Y-86640533D01*
X20640477Y-87354819D02*
X20640477Y-86688152D01*
X20640477Y-86783390D02*
X20688096Y-86735771D01*
X20688096Y-86735771D02*
X20783334Y-86688152D01*
X20783334Y-86688152D02*
X20926191Y-86688152D01*
X20926191Y-86688152D02*
X21021429Y-86735771D01*
X21021429Y-86735771D02*
X21069048Y-86831009D01*
X21069048Y-86831009D02*
X21069048Y-87354819D01*
X21069048Y-86831009D02*
X21116667Y-86735771D01*
X21116667Y-86735771D02*
X21211905Y-86688152D01*
X21211905Y-86688152D02*
X21354762Y-86688152D01*
X21354762Y-86688152D02*
X21450001Y-86735771D01*
X21450001Y-86735771D02*
X21497620Y-86831009D01*
X21497620Y-86831009D02*
X21497620Y-87354819D01*
X21973810Y-87354819D02*
X21973810Y-86688152D01*
X21973810Y-86783390D02*
X22021429Y-86735771D01*
X22021429Y-86735771D02*
X22116667Y-86688152D01*
X22116667Y-86688152D02*
X22259524Y-86688152D01*
X22259524Y-86688152D02*
X22354762Y-86735771D01*
X22354762Y-86735771D02*
X22402381Y-86831009D01*
X22402381Y-86831009D02*
X22402381Y-87354819D01*
X22402381Y-86831009D02*
X22450000Y-86735771D01*
X22450000Y-86735771D02*
X22545238Y-86688152D01*
X22545238Y-86688152D02*
X22688095Y-86688152D01*
X22688095Y-86688152D02*
X22783334Y-86735771D01*
X22783334Y-86735771D02*
X22830953Y-86831009D01*
X22830953Y-86831009D02*
X22830953Y-87354819D01*
X23069048Y-87450057D02*
X23830952Y-87450057D01*
X24069048Y-87354819D02*
X24069048Y-86354819D01*
X24069048Y-86354819D02*
X24402381Y-87069104D01*
X24402381Y-87069104D02*
X24735714Y-86354819D01*
X24735714Y-86354819D02*
X24735714Y-87354819D01*
X25640476Y-87354819D02*
X25640476Y-86831009D01*
X25640476Y-86831009D02*
X25592857Y-86735771D01*
X25592857Y-86735771D02*
X25497619Y-86688152D01*
X25497619Y-86688152D02*
X25307143Y-86688152D01*
X25307143Y-86688152D02*
X25211905Y-86735771D01*
X25640476Y-87307200D02*
X25545238Y-87354819D01*
X25545238Y-87354819D02*
X25307143Y-87354819D01*
X25307143Y-87354819D02*
X25211905Y-87307200D01*
X25211905Y-87307200D02*
X25164286Y-87211961D01*
X25164286Y-87211961D02*
X25164286Y-87116723D01*
X25164286Y-87116723D02*
X25211905Y-87021485D01*
X25211905Y-87021485D02*
X25307143Y-86973866D01*
X25307143Y-86973866D02*
X25545238Y-86973866D01*
X25545238Y-86973866D02*
X25640476Y-86926247D01*
X26069048Y-87307200D02*
X26164286Y-87354819D01*
X26164286Y-87354819D02*
X26354762Y-87354819D01*
X26354762Y-87354819D02*
X26450000Y-87307200D01*
X26450000Y-87307200D02*
X26497619Y-87211961D01*
X26497619Y-87211961D02*
X26497619Y-87164342D01*
X26497619Y-87164342D02*
X26450000Y-87069104D01*
X26450000Y-87069104D02*
X26354762Y-87021485D01*
X26354762Y-87021485D02*
X26211905Y-87021485D01*
X26211905Y-87021485D02*
X26116667Y-86973866D01*
X26116667Y-86973866D02*
X26069048Y-86878628D01*
X26069048Y-86878628D02*
X26069048Y-86831009D01*
X26069048Y-86831009D02*
X26116667Y-86735771D01*
X26116667Y-86735771D02*
X26211905Y-86688152D01*
X26211905Y-86688152D02*
X26354762Y-86688152D01*
X26354762Y-86688152D02*
X26450000Y-86735771D01*
X26926191Y-87354819D02*
X26926191Y-86354819D01*
X27021429Y-86973866D02*
X27307143Y-87354819D01*
X27307143Y-86688152D02*
X26926191Y-87069104D01*
X27688096Y-86450057D02*
X27735715Y-86402438D01*
X27735715Y-86402438D02*
X27830953Y-86354819D01*
X27830953Y-86354819D02*
X28069048Y-86354819D01*
X28069048Y-86354819D02*
X28164286Y-86402438D01*
X28164286Y-86402438D02*
X28211905Y-86450057D01*
X28211905Y-86450057D02*
X28259524Y-86545295D01*
X28259524Y-86545295D02*
X28259524Y-86640533D01*
X28259524Y-86640533D02*
X28211905Y-86783390D01*
X28211905Y-86783390D02*
X27640477Y-87354819D01*
X27640477Y-87354819D02*
X28259524Y-87354819D01*
X28688096Y-87354819D02*
X28688096Y-86688152D01*
X28688096Y-86783390D02*
X28735715Y-86735771D01*
X28735715Y-86735771D02*
X28830953Y-86688152D01*
X28830953Y-86688152D02*
X28973810Y-86688152D01*
X28973810Y-86688152D02*
X29069048Y-86735771D01*
X29069048Y-86735771D02*
X29116667Y-86831009D01*
X29116667Y-86831009D02*
X29116667Y-87354819D01*
X29116667Y-86831009D02*
X29164286Y-86735771D01*
X29164286Y-86735771D02*
X29259524Y-86688152D01*
X29259524Y-86688152D02*
X29402381Y-86688152D01*
X29402381Y-86688152D02*
X29497620Y-86735771D01*
X29497620Y-86735771D02*
X29545239Y-86831009D01*
X29545239Y-86831009D02*
X29545239Y-87354819D01*
X30021429Y-87354819D02*
X30021429Y-86688152D01*
X30021429Y-86783390D02*
X30069048Y-86735771D01*
X30069048Y-86735771D02*
X30164286Y-86688152D01*
X30164286Y-86688152D02*
X30307143Y-86688152D01*
X30307143Y-86688152D02*
X30402381Y-86735771D01*
X30402381Y-86735771D02*
X30450000Y-86831009D01*
X30450000Y-86831009D02*
X30450000Y-87354819D01*
X30450000Y-86831009D02*
X30497619Y-86735771D01*
X30497619Y-86735771D02*
X30592857Y-86688152D01*
X30592857Y-86688152D02*
X30735714Y-86688152D01*
X30735714Y-86688152D02*
X30830953Y-86735771D01*
X30830953Y-86735771D02*
X30878572Y-86831009D01*
X30878572Y-86831009D02*
X30878572Y-87354819D01*
D11*
X21414286Y-84915244D02*
X21247619Y-84915244D01*
X21247619Y-85177149D02*
X21247619Y-84677149D01*
X21247619Y-84677149D02*
X21485714Y-84677149D01*
X21676190Y-85177149D02*
X21676190Y-84677149D01*
X21914285Y-85177149D02*
X21914285Y-84677149D01*
X21914285Y-84677149D02*
X22033333Y-84677149D01*
X22033333Y-84677149D02*
X22104761Y-84700959D01*
X22104761Y-84700959D02*
X22152380Y-84748578D01*
X22152380Y-84748578D02*
X22176190Y-84796197D01*
X22176190Y-84796197D02*
X22199999Y-84891435D01*
X22199999Y-84891435D02*
X22199999Y-84962863D01*
X22199999Y-84962863D02*
X22176190Y-85058101D01*
X22176190Y-85058101D02*
X22152380Y-85105720D01*
X22152380Y-85105720D02*
X22104761Y-85153340D01*
X22104761Y-85153340D02*
X22033333Y-85177149D01*
X22033333Y-85177149D02*
X21914285Y-85177149D01*
X22366666Y-84677149D02*
X22676190Y-84677149D01*
X22676190Y-84677149D02*
X22509523Y-84867625D01*
X22509523Y-84867625D02*
X22580952Y-84867625D01*
X22580952Y-84867625D02*
X22628571Y-84891435D01*
X22628571Y-84891435D02*
X22652380Y-84915244D01*
X22652380Y-84915244D02*
X22676190Y-84962863D01*
X22676190Y-84962863D02*
X22676190Y-85081911D01*
X22676190Y-85081911D02*
X22652380Y-85129530D01*
X22652380Y-85129530D02*
X22628571Y-85153340D01*
X22628571Y-85153340D02*
X22580952Y-85177149D01*
X22580952Y-85177149D02*
X22438095Y-85177149D01*
X22438095Y-85177149D02*
X22390476Y-85153340D01*
X22390476Y-85153340D02*
X22366666Y-85129530D01*
D10*
X9954819Y-67452380D02*
X9288152Y-67452380D01*
X9478628Y-67452380D02*
X9383390Y-67404761D01*
X9383390Y-67404761D02*
X9335771Y-67357142D01*
X9335771Y-67357142D02*
X9288152Y-67261904D01*
X9288152Y-67261904D02*
X9288152Y-67166666D01*
X9907200Y-66452380D02*
X9954819Y-66547618D01*
X9954819Y-66547618D02*
X9954819Y-66738094D01*
X9954819Y-66738094D02*
X9907200Y-66833332D01*
X9907200Y-66833332D02*
X9811961Y-66880951D01*
X9811961Y-66880951D02*
X9431009Y-66880951D01*
X9431009Y-66880951D02*
X9335771Y-66833332D01*
X9335771Y-66833332D02*
X9288152Y-66738094D01*
X9288152Y-66738094D02*
X9288152Y-66547618D01*
X9288152Y-66547618D02*
X9335771Y-66452380D01*
X9335771Y-66452380D02*
X9431009Y-66404761D01*
X9431009Y-66404761D02*
X9526247Y-66404761D01*
X9526247Y-66404761D02*
X9621485Y-66880951D01*
X9954819Y-65547618D02*
X8954819Y-65547618D01*
X9907200Y-65547618D02*
X9954819Y-65642856D01*
X9954819Y-65642856D02*
X9954819Y-65833332D01*
X9954819Y-65833332D02*
X9907200Y-65928570D01*
X9907200Y-65928570D02*
X9859580Y-65976189D01*
X9859580Y-65976189D02*
X9764342Y-66023808D01*
X9764342Y-66023808D02*
X9478628Y-66023808D01*
X9478628Y-66023808D02*
X9383390Y-65976189D01*
X9383390Y-65976189D02*
X9335771Y-65928570D01*
X9335771Y-65928570D02*
X9288152Y-65833332D01*
X9288152Y-65833332D02*
X9288152Y-65642856D01*
X9288152Y-65642856D02*
X9335771Y-65547618D01*
X5954819Y-67238094D02*
X4954819Y-67238094D01*
X4954819Y-67238094D02*
X4954819Y-66999999D01*
X4954819Y-66999999D02*
X5002438Y-66857142D01*
X5002438Y-66857142D02*
X5097676Y-66761904D01*
X5097676Y-66761904D02*
X5192914Y-66714285D01*
X5192914Y-66714285D02*
X5383390Y-66666666D01*
X5383390Y-66666666D02*
X5526247Y-66666666D01*
X5526247Y-66666666D02*
X5716723Y-66714285D01*
X5716723Y-66714285D02*
X5811961Y-66761904D01*
X5811961Y-66761904D02*
X5907200Y-66857142D01*
X5907200Y-66857142D02*
X5954819Y-66999999D01*
X5954819Y-66999999D02*
X5954819Y-67238094D01*
X5383390Y-66095237D02*
X5335771Y-66190475D01*
X5335771Y-66190475D02*
X5288152Y-66238094D01*
X5288152Y-66238094D02*
X5192914Y-66285713D01*
X5192914Y-66285713D02*
X5145295Y-66285713D01*
X5145295Y-66285713D02*
X5050057Y-66238094D01*
X5050057Y-66238094D02*
X5002438Y-66190475D01*
X5002438Y-66190475D02*
X4954819Y-66095237D01*
X4954819Y-66095237D02*
X4954819Y-65904761D01*
X4954819Y-65904761D02*
X5002438Y-65809523D01*
X5002438Y-65809523D02*
X5050057Y-65761904D01*
X5050057Y-65761904D02*
X5145295Y-65714285D01*
X5145295Y-65714285D02*
X5192914Y-65714285D01*
X5192914Y-65714285D02*
X5288152Y-65761904D01*
X5288152Y-65761904D02*
X5335771Y-65809523D01*
X5335771Y-65809523D02*
X5383390Y-65904761D01*
X5383390Y-65904761D02*
X5383390Y-66095237D01*
X5383390Y-66095237D02*
X5431009Y-66190475D01*
X5431009Y-66190475D02*
X5478628Y-66238094D01*
X5478628Y-66238094D02*
X5573866Y-66285713D01*
X5573866Y-66285713D02*
X5764342Y-66285713D01*
X5764342Y-66285713D02*
X5859580Y-66238094D01*
X5859580Y-66238094D02*
X5907200Y-66190475D01*
X5907200Y-66190475D02*
X5954819Y-66095237D01*
X5954819Y-66095237D02*
X5954819Y-65904761D01*
X5954819Y-65904761D02*
X5907200Y-65809523D01*
X5907200Y-65809523D02*
X5859580Y-65761904D01*
X5859580Y-65761904D02*
X5764342Y-65714285D01*
X5764342Y-65714285D02*
X5573866Y-65714285D01*
X5573866Y-65714285D02*
X5478628Y-65761904D01*
X5478628Y-65761904D02*
X5431009Y-65809523D01*
X5431009Y-65809523D02*
X5383390Y-65904761D01*
%TO.C,JS1*%
D12*
X76975000Y-14770000D02*
G75*
G02*
X71025000Y-14770000I-2975000J0D01*
G01*
X71025000Y-14770000D02*
G75*
G02*
X76975000Y-14770000I2975000J0D01*
G01*
%TO.C,FID2*%
X81950000Y-5950000D02*
G75*
G02*
X79950000Y-5950000I-1000000J0D01*
G01*
X79950000Y-5950000D02*
G75*
G02*
X81950000Y-5950000I1000000J0D01*
G01*
%TO.C,FID1*%
X6950000Y-9950000D02*
G75*
G02*
X4950000Y-9950000I-1000000J0D01*
G01*
X4950000Y-9950000D02*
G75*
G02*
X6950000Y-9950000I1000000J0D01*
G01*
%TO.C,ENC1*%
D13*
X13210000Y-5750000D02*
G75*
G02*
X12710000Y-5750000I-250000J0D01*
G01*
X12710000Y-5750000D02*
G75*
G02*
X13210000Y-5750000I250000J0D01*
G01*
X13210000Y-20250000D02*
G75*
G02*
X12710000Y-20250000I-250000J0D01*
G01*
X12710000Y-20250000D02*
G75*
G02*
X13210000Y-20250000I250000J0D01*
G01*
X15750000Y-20250000D02*
G75*
G02*
X15250000Y-20250000I-250000J0D01*
G01*
X15250000Y-20250000D02*
G75*
G02*
X15750000Y-20250000I250000J0D01*
G01*
X18290000Y-5750000D02*
G75*
G02*
X17790000Y-5750000I-250000J0D01*
G01*
X17790000Y-5750000D02*
G75*
G02*
X18290000Y-5750000I250000J0D01*
G01*
X18290000Y-20250000D02*
G75*
G02*
X17790000Y-20250000I-250000J0D01*
G01*
X17790000Y-20250000D02*
G75*
G02*
X18290000Y-20250000I250000J0D01*
G01*
%TO.C,FID3*%
D12*
X22950000Y-84950000D02*
G75*
G02*
X20950000Y-84950000I-1000000J0D01*
G01*
X20950000Y-84950000D02*
G75*
G02*
X22950000Y-84950000I1000000J0D01*
G01*
%TD*%
M02*
