%TF.GenerationSoftware,KiCad,Pcbnew,10.0.3*%
%TF.CreationDate,2026-08-11T19:50:18-04:00*%
%TF.ProjectId,AgentDeck,4167656e-7444-4656-936b-2e6b69636164,rev?*%
%TF.SameCoordinates,Original*%
%TF.FileFunction,OtherDrawing,Comment*%
%FSLAX46Y46*%
G04 Gerber Fmt 4.6, Leading zero omitted, Abs format (unit mm)*
G04 Created by KiCad (PCBNEW 10.0.3) date 2026-08-11 19:50:18*
%MOMM*%
%LPD*%
G01*
G04 APERTURE LIST*
%ADD10C,0.150000*%
G04 APERTURE END LIST*
%TO.C,KEY4*%
D10*
X26583300Y-25917600D02*
X44083300Y-25917600D01*
X44083300Y-43417600D01*
X26583300Y-43417600D01*
X26583300Y-25917600D01*
%TO.C,KEY14*%
X7250000Y-63252000D02*
X24750000Y-63252000D01*
X24750000Y-80752000D01*
X7250000Y-80752000D01*
X7250000Y-63252000D01*
%TO.C,KEY8*%
X26583300Y-44584400D02*
X44083300Y-44584400D01*
X44083300Y-62084400D01*
X26583300Y-62084400D01*
X26583300Y-44584400D01*
%TO.C,KEY10*%
X65250000Y-44584400D02*
X82750000Y-44584400D01*
X82750000Y-62084400D01*
X65250000Y-62084400D01*
X65250000Y-44584400D01*
%TO.C,KEY5*%
X45916700Y-25917600D02*
X63416700Y-25917600D01*
X63416700Y-43417600D01*
X45916700Y-43417600D01*
X45916700Y-25917600D01*
%TO.C,KEY2*%
X45916700Y-7250000D02*
X63416700Y-7250000D01*
X63416700Y-24750000D01*
X45916700Y-24750000D01*
X45916700Y-7250000D01*
%TO.C,KEY11*%
X29687500Y-63252000D02*
X60312500Y-63252000D01*
X60312500Y-80752000D01*
X29687500Y-80752000D01*
X29687500Y-63252000D01*
%TO.C,KEY9*%
X45916700Y-44584400D02*
X63416700Y-44584400D01*
X63416700Y-62084400D01*
X45916700Y-62084400D01*
X45916700Y-44584400D01*
%TO.C,KEY6*%
X65250000Y-25917600D02*
X82750000Y-25917600D01*
X82750000Y-43417600D01*
X65250000Y-43417600D01*
X65250000Y-25917600D01*
%TO.C,KEY12*%
X65250000Y-63252000D02*
X82750000Y-63252000D01*
X82750000Y-80752000D01*
X65250000Y-80752000D01*
X65250000Y-63252000D01*
%TO.C,KEY1*%
X26583300Y-7250000D02*
X44083300Y-7250000D01*
X44083300Y-24750000D01*
X26583300Y-24750000D01*
X26583300Y-7250000D01*
%TO.C,KEY3*%
X7250000Y-25917600D02*
X24750000Y-25917600D01*
X24750000Y-43417600D01*
X7250000Y-43417600D01*
X7250000Y-25917600D01*
%TO.C,KEY7*%
X7250000Y-44584400D02*
X24750000Y-44584400D01*
X24750000Y-62084400D01*
X7250000Y-62084400D01*
X7250000Y-44584400D01*
%TD*%
M02*
