M48
; DRILL file KiCad 10.0.3 date 2026-08-11T19:50:18
; FORMAT={-:-/ absolute / metric / decimal}
; #@! TF.CreationDate,2026-08-11T19:50:18-04:00
; #@! TF.GenerationSoftware,Kicad,Pcbnew,10.0.3
; #@! TF.FileFunction,MixedPlating,1,4
FMAT,2
METRIC
; #@! TA.AperFunction,Plated,PTH,ViaDrill
T1C0.300
; #@! TA.AperFunction,Plated,PTH,ComponentDrill
T2C0.750
; #@! TA.AperFunction,Plated,PTH,ComponentDrill
T3C0.800
; #@! TA.AperFunction,Plated,PTH,ComponentDrill
T4C1.000
; #@! TA.AperFunction,Plated,PTH,ComponentDrill
T5C1.200
; #@! TA.AperFunction,Plated,PTH,ComponentDrill
T6C1.200
; #@! TA.AperFunction,Plated,PTH,ComponentDrill
T7C1.700
; #@! TA.AperFunction,NonPlated,NPTH,ComponentDrill
T8C1.200
; #@! TA.AperFunction,NonPlated,NPTH,ComponentDrill
T9C1.700
; #@! TA.AperFunction,NonPlated,NPTH,ComponentDrill
T10C2.700
; #@! TA.AperFunction,NonPlated,NPTH,ComponentDrill
T11C3.000
; #@! TA.AperFunction,NonPlated,NPTH,ComponentDrill
T12C5.000
%
G90
G05
T1
X4.837Y-58.387
X4.837Y-76.237
X6.902Y-82.598
X7.029Y-64.308
X7.812Y-43.512
X7.812Y-61.362
X7.812Y-73.263
X7.812Y-79.127
X7.812Y-90.83
X7.814Y-70.286
X7.919Y-67.206
X8.084Y-64.549
X10.786Y-49.462
X10.787Y-67.312
X13.34Y-4.077
X13.475Y-88.138
X16.738Y-22.688
X19.575Y-72.115
X19.575Y-34.588
X19.577Y-52.142
X19.711Y-25.662
X19.712Y-85.21
X20.522Y-69.853
X22.688Y-1.862
X22.688Y-5.5
X22.688Y-55.665
X22.688Y-79.214
X25.547Y-40.869
X25.662Y-22.688
X25.662Y-79.212
X25.664Y-61.362
X27.318Y-77.741
X27.725Y-81.934
X28.21Y-85.59
X28.252Y-40.685
X29.339Y-85.931
X29.74Y-74.252
X30.802Y-3.985
X31.491Y-79.185
X34.213Y-61.737
X34.242Y-74.553
X34.587Y-4.837
X34.587Y-28.637
X34.587Y-79.271
X34.796Y-72.992
X35.297Y-85.43
X36.756Y-87.263
X38.555Y-33.884
X38.561Y-52.142
X38.564Y-15.056
X38.75Y-85.971
X39.501Y-88.025
X39.508Y-89.185
X39.557Y-84.299
X39.669Y-24.84
X39.715Y-85.971
X40.4Y-88.666
X40.481Y-25.699
X40.504Y-86.265
X40.512Y-87.948
X40.536Y-49.988
X40.538Y-31.731
X40.538Y-43.512
X40.538Y-90.83
X40.539Y-55.665
X40.695Y-69.101
X40.965Y-80.251
X41.529Y-81.856
X41.8Y-6.13
X42.561Y-87.815
X42.705Y-85.481
X42.726Y-86.696
X42.819Y-84.614
X42.9Y-77.452
X43.052Y-79.76
X43.512Y-1.862
X43.512Y-7.812
X43.585Y-88.235
X44.17Y-83.643
X44.197Y-79.75
X44.447Y-2.755
X44.569Y-87.96
X44.688Y-91.644
X45.227Y-83.465
X45.407Y-43.3
X45.412Y-91.618
X45.421Y-81.716
X45.427Y-88.492
X45.481Y-7.494
X45.647Y-2.701
X46.2Y-86.5
X46.411Y-88.16
X46.487Y-1.862
X46.487Y-22.688
X46.487Y-43.512
X46.489Y-61.362
X46.504Y-91.543
X46.654Y-79.654
X46.71Y-80.871
X46.75Y-90.392
X47.017Y-83.47
X47.195Y-85.413
X47.253Y-84.526
X47.545Y-90.343
X48.346Y-82.303
X48.763Y-80.089
X48.8Y-6.3
X48.803Y-89.183
X48.931Y-71.148
X49.327Y-86.291
X49.462Y-31.612
X49.462Y-49.462
X49.462Y-64.337
X49.951Y-85.631
X50.282Y-78.677
X50.379Y-80.307
X50.789Y-75.013
X51.593Y-84.017
X51.681Y-89.477
X53.31Y-83.945
X53.746Y-85.946
X54.832Y-9.515
X55.412Y-1.862
X56.347Y-65.412
X56.547Y-4.837
X58.24Y-34.587
X58.242Y-52.142
X58.371Y-13.505
X58.387Y-1.862
X58.387Y-25.662
X58.565Y-80.607
X59.336Y-81.704
X59.596Y-49.99
X61.364Y-88.139
X61.366Y-64.34
X61.494Y-46.354
X61.678Y-28.635
X62.653Y-75.423
X63.333Y-5.0
X63.616Y-58.387
X63.617Y-76.237
X64.337Y-1.862
X64.337Y-13.762
X64.337Y-40.869
X64.337Y-85.017
X64.337Y-89.77
X65.156Y-82.808
X65.179Y-84.251
X65.254Y-1.761
X65.628Y-78.513
X65.908Y-73.686
X66.635Y-84.897
X67.79Y-85.017
X70.197Y-51.716
X70.287Y-64.337
X70.546Y-87.313
X73.263Y-67.312
X73.472Y-28.637
X76.237Y-25.662
X76.27Y-43.545
X77.235Y-33.884
X77.235Y-52.142
X77.235Y-71.32
X79.212Y-43.512
X82.188Y-61.362
X82.285Y-73.263
T2
X42.1Y-4.075
X47.9Y-4.075
T4
X68.85Y-16.45
X79.15Y-16.45
T5
X12.96Y-5.75
X12.96Y-20.25
X15.5Y-20.25
X18.04Y-5.75
X18.04Y-20.25
T6
X68.85Y-12.75
X68.85Y-19.25
X79.15Y-12.75
X79.15Y-19.25
T8
X21.0Y-29.518
X21.0Y-48.184
X21.0Y-66.852
X40.333Y-10.85
X40.333Y-29.518
X40.333Y-48.184
X50.0Y-66.852
X59.667Y-10.85
X59.667Y-29.518
X59.667Y-48.184
X79.0Y-29.518
X79.0Y-48.184
X79.0Y-66.852
T9
X10.5Y-34.668
X10.5Y-53.334
X10.5Y-72.002
X21.5Y-34.668
X21.5Y-53.334
X21.5Y-72.002
X29.833Y-16.0
X29.833Y-34.668
X29.833Y-53.334
X39.5Y-72.002
X40.833Y-16.0
X40.833Y-34.668
X40.833Y-53.334
X49.167Y-16.0
X49.167Y-34.668
X49.167Y-53.334
X50.5Y-72.002
X60.167Y-16.0
X60.167Y-34.668
X60.167Y-53.334
X68.5Y-34.668
X68.5Y-53.334
X68.5Y-72.002
X79.5Y-34.668
X79.5Y-53.334
X79.5Y-72.002
T10
X3.086Y-3.086
X3.086Y-86.914
X86.914Y-3.086
X86.914Y-86.914
T11
X11.0Y-38.368
X11.0Y-57.034
X11.0Y-75.702
X16.0Y-40.568
X16.0Y-59.234
X16.0Y-77.902
X30.333Y-19.7
X30.333Y-38.368
X30.333Y-57.034
X35.333Y-21.9
X35.333Y-40.568
X35.333Y-59.234
X40.0Y-75.702
X45.0Y-77.902
X49.667Y-19.7
X49.667Y-38.368
X49.667Y-57.034
X54.667Y-21.9
X54.667Y-40.568
X54.667Y-59.234
X69.0Y-38.368
X69.0Y-57.034
X69.0Y-75.702
X74.0Y-40.568
X74.0Y-59.234
X74.0Y-77.902
T12
X16.0Y-34.668
X16.0Y-53.334
X16.0Y-72.002
X35.333Y-16.0
X35.333Y-34.668
X35.333Y-53.334
X45.0Y-72.002
X54.667Y-16.0
X54.667Y-34.668
X54.667Y-53.334
X74.0Y-34.668
X74.0Y-53.334
X74.0Y-72.002
T3
X40.67Y-0.095G85X40.67Y-0.695
G05
X40.67Y-4.175G85X40.67Y-4.975
G05
X49.33Y-0.095G85X49.33Y-0.695
G05
X49.33Y-4.175G85X49.33Y-4.975
G05
T7
X9.25Y-13.3G85X9.25Y-12.2
G05
X21.75Y-13.3G85X21.75Y-12.2
G05
M30
