%TF.GenerationSoftware,KiCad,Pcbnew,10.0.3*%
%TF.CreationDate,2026-08-11T19:50:18-04:00*%
%TF.ProjectId,AgentDeck,4167656e-7444-4656-936b-2e6b69636164,rev?*%
%TF.SameCoordinates,Original*%
%TF.FileFunction,Other,User*%
%FSLAX46Y46*%
G04 Gerber Fmt 4.6, Leading zero omitted, Abs format (unit mm)*
G04 Created by KiCad (PCBNEW 10.0.3) date 2026-08-11 19:50:18*
%MOMM*%
%LPD*%
G01*
G04 APERTURE LIST*
%ADD10C,0.050000*%
G04 APERTURE END LIST*
%TO.C,R10*%
D10*
X4770000Y-60520000D02*
X6230000Y-60520000D01*
X6230000Y-63480000D01*
X4770000Y-63480000D01*
X4770000Y-60520000D01*
%TO.C,D2*%
X53066700Y-9800000D02*
X53066700Y-12600000D01*
X53066700Y-12600000D02*
X56266700Y-12600000D01*
X56266700Y-9800000D02*
X53066700Y-9800000D01*
X56266700Y-12600000D02*
X56266700Y-9800000D01*
%TO.C,U3*%
X11150000Y-83250000D02*
X11150000Y-89750000D01*
X11150000Y-89750000D02*
X14650000Y-89750000D01*
X14650000Y-83250000D02*
X11150000Y-83250000D01*
X14650000Y-89750000D02*
X14650000Y-83250000D01*
%TO.C,D12*%
X53066700Y-47134400D02*
X53066700Y-49934400D01*
X53066700Y-49934400D02*
X56266700Y-49934400D01*
X56266700Y-47134400D02*
X53066700Y-47134400D01*
X56266700Y-49934400D02*
X56266700Y-47134400D01*
%TO.C,D14*%
X43400000Y-65802000D02*
X43400000Y-68602000D01*
X43400000Y-68602000D02*
X46600000Y-68602000D01*
X46600000Y-65802000D02*
X43400000Y-65802000D01*
X46600000Y-68602000D02*
X46600000Y-65802000D01*
%TO.C,U1*%
X40495000Y-81895000D02*
X49095000Y-81895000D01*
X49095000Y-90205000D01*
X40495000Y-90205000D01*
X40495000Y-81895000D01*
%TO.C,C9*%
X35520000Y-87670000D02*
X38480000Y-87670000D01*
X38480000Y-89130000D01*
X35520000Y-89130000D01*
X35520000Y-87670000D01*
%TO.C,SW10*%
X64180000Y-54308958D02*
X78820000Y-54308958D01*
X78820000Y-61959400D01*
X64180000Y-61959400D01*
X64180000Y-54308958D01*
%TO.C,D15*%
X72400000Y-65802000D02*
X72400000Y-68602000D01*
X72400000Y-68602000D02*
X75600000Y-68602000D01*
X75600000Y-65802000D02*
X72400000Y-65802000D01*
X75600000Y-68602000D02*
X75600000Y-65802000D01*
%TO.C,C1*%
X23770000Y-82520000D02*
X25230000Y-82520000D01*
X25230000Y-85480000D01*
X23770000Y-85480000D01*
X23770000Y-82520000D01*
%TO.C,C12*%
X51520000Y-87670000D02*
X54480000Y-87670000D01*
X54480000Y-89130000D01*
X51520000Y-89130000D01*
X51520000Y-87670000D01*
%TO.C,C7*%
X51020000Y-76770000D02*
X53980000Y-76770000D01*
X53980000Y-78230000D01*
X51020000Y-78230000D01*
X51020000Y-76770000D01*
%TO.C,C31*%
X79177400Y-74441200D02*
X80637400Y-74441200D01*
X80637400Y-77401200D01*
X79177400Y-77401200D01*
X79177400Y-74441200D01*
%TO.C,C29*%
X80251500Y-56832900D02*
X81711500Y-56832900D01*
X81711500Y-59792900D01*
X80251500Y-59792900D01*
X80251500Y-56832900D01*
%TO.C,Y1*%
X27400000Y-82750000D02*
X27400000Y-85250000D01*
X27400000Y-85250000D02*
X30600000Y-85250000D01*
X30600000Y-82750000D02*
X27400000Y-82750000D01*
X30600000Y-85250000D02*
X30600000Y-82750000D01*
%TO.C,R12*%
X4770000Y-69520000D02*
X6230000Y-69520000D01*
X6230000Y-72480000D01*
X4770000Y-72480000D01*
X4770000Y-69520000D01*
%TO.C,D11*%
X33733300Y-47134400D02*
X33733300Y-49934400D01*
X33733300Y-49934400D02*
X36933300Y-49934400D01*
X36933300Y-47134400D02*
X33733300Y-47134400D01*
X36933300Y-49934400D02*
X36933300Y-47134400D01*
%TO.C,C8*%
X54520000Y-76270000D02*
X57480000Y-76270000D01*
X57480000Y-77730000D01*
X54520000Y-77730000D01*
X54520000Y-76270000D01*
%TO.C,D4*%
X33733300Y-28467600D02*
X33733300Y-31267600D01*
X33733300Y-31267600D02*
X36933300Y-31267600D01*
X36933300Y-28467600D02*
X33733300Y-28467600D01*
X36933300Y-31267600D02*
X36933300Y-28467600D01*
%TO.C,D13*%
X72400000Y-47134400D02*
X72400000Y-49934400D01*
X72400000Y-49934400D02*
X75600000Y-49934400D01*
X75600000Y-47134400D02*
X72400000Y-47134400D01*
X75600000Y-49934400D02*
X75600000Y-47134400D01*
%TO.C,C22*%
X41584800Y-39225400D02*
X43044800Y-39225400D01*
X43044800Y-42185400D01*
X41584800Y-42185400D01*
X41584800Y-39225400D01*
%TO.C,R7*%
X73020000Y-87770000D02*
X75980000Y-87770000D01*
X75980000Y-89230000D01*
X73020000Y-89230000D01*
X73020000Y-87770000D01*
%TO.C,SW4*%
X25513300Y-35642158D02*
X40153300Y-35642158D01*
X40153300Y-43292600D01*
X25513300Y-43292600D01*
X25513300Y-35642158D01*
%TO.C,U6*%
X55540000Y-7190000D02*
X55540000Y-8810000D01*
X55540000Y-8810000D02*
X58460000Y-8810000D01*
X58460000Y-7190000D02*
X55540000Y-7190000D01*
X58460000Y-8810000D02*
X58460000Y-7190000D01*
%TO.C,SW8*%
X25513300Y-54308958D02*
X40153300Y-54308958D01*
X40153300Y-61959400D01*
X25513300Y-61959400D01*
X25513300Y-54308958D01*
%TO.C,C25*%
X14195900Y-3927500D02*
X15655900Y-3927500D01*
X15655900Y-6887500D01*
X14195900Y-6887500D01*
X14195900Y-3927500D01*
%TO.C,C11*%
X55770000Y-86020000D02*
X57230000Y-86020000D01*
X57230000Y-88980000D01*
X55770000Y-88980000D01*
X55770000Y-86020000D01*
%TO.C,SW9*%
X44846700Y-54308958D02*
X59486700Y-54308958D01*
X59486700Y-61959400D01*
X44846700Y-61959400D01*
X44846700Y-54308958D01*
%TO.C,C17*%
X18770000Y-81020000D02*
X20230000Y-81020000D01*
X20230000Y-83980000D01*
X18770000Y-83980000D01*
X18770000Y-81020000D01*
%TO.C,U2*%
X63380000Y-81360000D02*
X63380000Y-86640000D01*
X63380000Y-86640000D02*
X68620000Y-86640000D01*
X68620000Y-81360000D02*
X63380000Y-81360000D01*
X68620000Y-86640000D02*
X68620000Y-81360000D01*
%TO.C,R2*%
X28270000Y-3520000D02*
X29730000Y-3520000D01*
X29730000Y-6480000D01*
X28270000Y-6480000D01*
X28270000Y-3520000D01*
%TO.C,SW2*%
X44846700Y-16974558D02*
X59486700Y-16974558D01*
X59486700Y-24625000D01*
X44846700Y-24625000D01*
X44846700Y-16974558D01*
%TO.C,R8*%
X31520000Y-87670000D02*
X34480000Y-87670000D01*
X34480000Y-89130000D01*
X31520000Y-89130000D01*
X31520000Y-87670000D01*
%TO.C,C27*%
X41584800Y-56832900D02*
X43044800Y-56832900D01*
X43044800Y-59792900D01*
X41584800Y-59792900D01*
X41584800Y-56832900D01*
%TO.C,D10*%
X14400000Y-47134400D02*
X14400000Y-49934400D01*
X14400000Y-49934400D02*
X17600000Y-49934400D01*
X17600000Y-47134400D02*
X14400000Y-47134400D01*
X17600000Y-49934400D02*
X17600000Y-47134400D01*
%TO.C,R6*%
X68520000Y-87770000D02*
X71480000Y-87770000D01*
X71480000Y-89230000D01*
X68520000Y-89230000D01*
X68520000Y-87770000D01*
%TO.C,R1*%
X31270000Y-3520000D02*
X32730000Y-3520000D01*
X32730000Y-6480000D01*
X31270000Y-6480000D01*
X31270000Y-3520000D01*
%TO.C,C30*%
X32270000Y-73020000D02*
X33730000Y-73020000D01*
X33730000Y-75980000D01*
X32270000Y-75980000D01*
X32270000Y-73020000D01*
%TO.C,C5*%
X32520000Y-76270000D02*
X35480000Y-76270000D01*
X35480000Y-77730000D01*
X32520000Y-77730000D01*
X32520000Y-76270000D01*
%TO.C,C13*%
X51020000Y-80070000D02*
X53980000Y-80070000D01*
X53980000Y-81530000D01*
X51020000Y-81530000D01*
X51020000Y-80070000D01*
%TO.C,C6*%
X28520000Y-70770000D02*
X31480000Y-70770000D01*
X31480000Y-72230000D01*
X28520000Y-72230000D01*
X28520000Y-70770000D01*
%TO.C,C20*%
X60918100Y-21617100D02*
X62378100Y-21617100D01*
X62378100Y-24577100D01*
X60918100Y-24577100D01*
X60918100Y-21617100D01*
%TO.C,C19*%
X41584800Y-21617100D02*
X43044800Y-21617100D01*
X43044800Y-24577100D01*
X41584800Y-24577100D01*
X41584800Y-21617100D01*
%TO.C,C26*%
X22251500Y-56832900D02*
X23711500Y-56832900D01*
X23711500Y-59792900D01*
X22251500Y-59792900D01*
X22251500Y-56832900D01*
%TO.C,SW7*%
X6180000Y-54308958D02*
X20820000Y-54308958D01*
X20820000Y-61959400D01*
X6180000Y-61959400D01*
X6180000Y-54308958D01*
%TO.C,C10*%
X36520000Y-83770000D02*
X37980000Y-83770000D01*
X37980000Y-86730000D01*
X36520000Y-86730000D01*
X36520000Y-83770000D01*
%TO.C,C23*%
X60918100Y-39225400D02*
X62378100Y-39225400D01*
X62378100Y-42185400D01*
X60918100Y-42185400D01*
X60918100Y-39225400D01*
%TO.C,C3*%
X3770000Y-78520000D02*
X5230000Y-78520000D01*
X5230000Y-81480000D01*
X3770000Y-81480000D01*
X3770000Y-78520000D01*
%TO.C,C21*%
X22251500Y-39225400D02*
X23711500Y-39225400D01*
X23711500Y-42185400D01*
X22251500Y-42185400D01*
X22251500Y-39225400D01*
%TO.C,D3*%
X14400000Y-28467600D02*
X14400000Y-31267600D01*
X14400000Y-31267600D02*
X17600000Y-31267600D01*
X17600000Y-28467600D02*
X14400000Y-28467600D01*
X17600000Y-31267600D02*
X17600000Y-28467600D01*
%TO.C,J1*%
X40530000Y2225000D02*
X40530000Y-5125000D01*
X40530000Y-5125000D02*
X49470000Y-5125000D01*
X49470000Y2225000D02*
X40530000Y2225000D01*
X49470000Y-5125000D02*
X49470000Y2225000D01*
%TO.C,R11*%
X4770000Y-65020000D02*
X6230000Y-65020000D01*
X6230000Y-67980000D01*
X4770000Y-67980000D01*
X4770000Y-65020000D01*
%TO.C,R4*%
X65270000Y-3520000D02*
X66730000Y-3520000D01*
X66730000Y-6480000D01*
X65270000Y-6480000D01*
X65270000Y-3520000D01*
%TO.C,D16*%
X14400000Y-65802000D02*
X14400000Y-68602000D01*
X14400000Y-68602000D02*
X17600000Y-68602000D01*
X17600000Y-65802000D02*
X14400000Y-65802000D01*
X17600000Y-68602000D02*
X17600000Y-65802000D01*
%TO.C,R5*%
X26520000Y-79770000D02*
X29480000Y-79770000D01*
X29480000Y-81230000D01*
X26520000Y-81230000D01*
X26520000Y-79770000D01*
%TO.C,R3*%
X62270000Y-3520000D02*
X63730000Y-3520000D01*
X63730000Y-6480000D01*
X62270000Y-6480000D01*
X62270000Y-3520000D01*
%TO.C,D6*%
X72400000Y-28467600D02*
X72400000Y-31267600D01*
X72400000Y-31267600D02*
X75600000Y-31267600D01*
X75600000Y-28467600D02*
X72400000Y-28467600D01*
X75600000Y-31267600D02*
X75600000Y-28467600D01*
%TO.C,R9*%
X24020000Y-7270000D02*
X26980000Y-7270000D01*
X26980000Y-8730000D01*
X24020000Y-8730000D01*
X24020000Y-7270000D01*
%TO.C,C28*%
X60918100Y-56832900D02*
X62378100Y-56832900D01*
X62378100Y-59792900D01*
X60918100Y-59792900D01*
X60918100Y-56832900D01*
%TO.C,C15*%
X59020000Y-80070000D02*
X61980000Y-80070000D01*
X61980000Y-81530000D01*
X59020000Y-81530000D01*
X59020000Y-80070000D01*
%TO.C,D5*%
X53066700Y-28467600D02*
X53066700Y-31267600D01*
X53066700Y-31267600D02*
X56266700Y-31267600D01*
X56266700Y-28467600D02*
X53066700Y-28467600D01*
X56266700Y-31267600D02*
X56266700Y-28467600D01*
%TO.C,SW13*%
X72950000Y-82700000D02*
X72950000Y-85300000D01*
X72950000Y-85300000D02*
X74200000Y-86550000D01*
X74200000Y-81450000D02*
X72950000Y-82700000D01*
X74200000Y-86550000D02*
X76800000Y-86550000D01*
X76800000Y-81450000D02*
X74200000Y-81450000D01*
X76800000Y-86550000D02*
X78050000Y-85300000D01*
X78050000Y-82700000D02*
X76800000Y-81450000D01*
X78050000Y-85300000D02*
X78050000Y-82700000D01*
%TO.C,SW11*%
X35180000Y-72976558D02*
X49820000Y-72976558D01*
X49820000Y-80627000D01*
X35180000Y-80627000D01*
X35180000Y-72976558D01*
%TO.C,C16*%
X7270000Y-80320000D02*
X8730000Y-80320000D01*
X8730000Y-83280000D01*
X7270000Y-83280000D01*
X7270000Y-80320000D01*
%TO.C,SW3*%
X6180000Y-35642158D02*
X20820000Y-35642158D01*
X20820000Y-43292600D01*
X6180000Y-43292600D01*
X6180000Y-35642158D01*
%TO.C,U4*%
X22700000Y-4050000D02*
X22700000Y-6950000D01*
X22700000Y-6950000D02*
X24300000Y-6950000D01*
X24300000Y-4050000D02*
X22700000Y-4050000D01*
X24300000Y-6950000D02*
X24300000Y-4050000D01*
%TO.C,D1*%
X33733300Y-9800000D02*
X33733300Y-12600000D01*
X33733300Y-12600000D02*
X36933300Y-12600000D01*
X36933300Y-9800000D02*
X33733300Y-9800000D01*
X36933300Y-12600000D02*
X36933300Y-9800000D01*
%TO.C,SW5*%
X44846700Y-35642158D02*
X59486700Y-35642158D01*
X59486700Y-43292600D01*
X44846700Y-43292600D01*
X44846700Y-35642158D01*
%TO.C,SW14*%
X6180000Y-72976558D02*
X20820000Y-72976558D01*
X20820000Y-80627000D01*
X6180000Y-80627000D01*
X6180000Y-72976558D01*
%TO.C,C24*%
X80251500Y-39225400D02*
X81711500Y-39225400D01*
X81711500Y-42185400D01*
X80251500Y-42185400D01*
X80251500Y-39225400D01*
%TO.C,C14*%
X33270000Y-82520000D02*
X34730000Y-82520000D01*
X34730000Y-85480000D01*
X33270000Y-85480000D01*
X33270000Y-82520000D01*
%TO.C,SW12*%
X64180000Y-72976558D02*
X78820000Y-72976558D01*
X78820000Y-80627000D01*
X64180000Y-80627000D01*
X64180000Y-72976558D01*
%TO.C,SW6*%
X64180000Y-35642158D02*
X78820000Y-35642158D01*
X78820000Y-43292600D01*
X64180000Y-43292600D01*
X64180000Y-35642158D01*
%TO.C,SW1*%
X25513300Y-16974558D02*
X40153300Y-16974558D01*
X40153300Y-24625000D01*
X25513300Y-24625000D01*
X25513300Y-16974558D01*
%TO.C,C2*%
X30020000Y-79770000D02*
X32980000Y-79770000D01*
X32980000Y-81230000D01*
X30020000Y-81230000D01*
X30020000Y-79770000D01*
%TD*%
M02*
