%TF.GenerationSoftware,KiCad,Pcbnew,10.0.3*%
%TF.CreationDate,2026-07-28T16:59:11-04:00*%
%TF.ProjectId,ClaudeMicro,436c6175-6465-44d6-9963-726f2e6b6963,rev?*%
%TF.SameCoordinates,Original*%
%TF.FileFunction,Soldermask,Top*%
%TF.FilePolarity,Negative*%
%FSLAX46Y46*%
G04 Gerber Fmt 4.6, Leading zero omitted, Abs format (unit mm)*
G04 Created by KiCad (PCBNEW 10.0.3) date 2026-07-28 16:59:11*
%MOMM*%
%LPD*%
G01*
G04 APERTURE LIST*
%ADD10C,1.900000*%
%ADD11C,1.700000*%
%ADD12C,2.700000*%
%ADD13C,1.800000*%
%ADD14O,2.700000X3.700000*%
%ADD15R,0.800000X0.800000*%
%ADD16C,3.000000*%
%ADD17C,5.000000*%
%ADD18C,1.200000*%
%ADD19C,0.750000*%
%ADD20O,1.200000X2.000000*%
%ADD21O,1.200000X1.800000*%
G04 APERTURE END LIST*
D10*
%TO.C,JS1*%
X68850000Y-12750000D03*
D11*
X68850000Y-16450000D03*
D10*
X68850000Y-19250000D03*
X79150000Y-19250000D03*
D11*
X79150000Y-16450000D03*
D10*
X79150000Y-12750000D03*
%TD*%
D12*
%TO.C,MH1*%
X6000000Y-6000000D03*
%TD*%
D13*
%TO.C,ENC1*%
X12960000Y-20250000D03*
X18040000Y-20250000D03*
X15500000Y-20250000D03*
X12960000Y-5750000D03*
X18040000Y-5750000D03*
D14*
X21750000Y-12750000D03*
X9250000Y-12750000D03*
%TD*%
D15*
%TO.C,D7*%
X5500000Y-61250000D03*
X5500000Y-62750000D03*
%TD*%
D12*
%TO.C,MH3*%
X6000000Y-84000000D03*
%TD*%
D15*
%TO.C,D9*%
X5500000Y-70250000D03*
X5500000Y-71750000D03*
%TD*%
D12*
%TO.C,MH4*%
X84000000Y-84000000D03*
%TD*%
%TO.C,MH2*%
X84000000Y-6000000D03*
%TD*%
D15*
%TO.C,D8*%
X5500000Y-65750000D03*
X5500000Y-67250000D03*
%TD*%
D11*
%TO.C,SW10*%
X68500000Y-53334400D03*
D16*
X69000000Y-57034400D03*
D17*
X74000000Y-53334400D03*
D16*
X74000000Y-59234400D03*
D18*
X79000000Y-48184400D03*
D11*
X79500000Y-53334400D03*
%TD*%
%TO.C,SW4*%
X29833300Y-34667600D03*
D16*
X30333300Y-38367600D03*
D17*
X35333300Y-34667600D03*
D16*
X35333300Y-40567600D03*
D18*
X40333300Y-29517600D03*
D11*
X40833300Y-34667600D03*
%TD*%
%TO.C,SW8*%
X29833300Y-53334400D03*
D16*
X30333300Y-57034400D03*
D17*
X35333300Y-53334400D03*
D16*
X35333300Y-59234400D03*
D18*
X40333300Y-48184400D03*
D11*
X40833300Y-53334400D03*
%TD*%
%TO.C,SW9*%
X49166700Y-53334400D03*
D16*
X49666700Y-57034400D03*
D17*
X54666700Y-53334400D03*
D16*
X54666700Y-59234400D03*
D18*
X59666700Y-48184400D03*
D11*
X60166700Y-53334400D03*
%TD*%
%TO.C,SW2*%
X49166700Y-16000000D03*
D16*
X49666700Y-19700000D03*
D17*
X54666700Y-16000000D03*
D16*
X54666700Y-21900000D03*
D18*
X59666700Y-10850000D03*
D11*
X60166700Y-16000000D03*
%TD*%
%TO.C,SW7*%
X10500000Y-53334400D03*
D16*
X11000000Y-57034400D03*
D17*
X16000000Y-53334400D03*
D16*
X16000000Y-59234400D03*
D18*
X21000000Y-48184400D03*
D11*
X21500000Y-53334400D03*
%TD*%
D19*
%TO.C,J1*%
X42100000Y-6575000D03*
X47900000Y-6575000D03*
D20*
X49330000Y-7075000D03*
D21*
X49330000Y-2895000D03*
X40670000Y-2895000D03*
D20*
X40670000Y-7075000D03*
%TD*%
D11*
%TO.C,SW11*%
X39500000Y-72002000D03*
D16*
X40000000Y-75702000D03*
D17*
X45000000Y-72002000D03*
D16*
X45000000Y-77902000D03*
D18*
X50000000Y-66852000D03*
D11*
X50500000Y-72002000D03*
%TD*%
%TO.C,SW3*%
X10500000Y-34667600D03*
D16*
X11000000Y-38367600D03*
D17*
X16000000Y-34667600D03*
D16*
X16000000Y-40567600D03*
D18*
X21000000Y-29517600D03*
D11*
X21500000Y-34667600D03*
%TD*%
%TO.C,SW5*%
X49166700Y-34667600D03*
D16*
X49666700Y-38367600D03*
D17*
X54666700Y-34667600D03*
D16*
X54666700Y-40567600D03*
D18*
X59666700Y-29517600D03*
D11*
X60166700Y-34667600D03*
%TD*%
%TO.C,SW14*%
X10500000Y-72002000D03*
D16*
X11000000Y-75702000D03*
D17*
X16000000Y-72002000D03*
D16*
X16000000Y-77902000D03*
D18*
X21000000Y-66852000D03*
D11*
X21500000Y-72002000D03*
%TD*%
%TO.C,SW12*%
X68500000Y-72002000D03*
D16*
X69000000Y-75702000D03*
D17*
X74000000Y-72002000D03*
D16*
X74000000Y-77902000D03*
D18*
X79000000Y-66852000D03*
D11*
X79500000Y-72002000D03*
%TD*%
%TO.C,SW6*%
X68500000Y-34667600D03*
D16*
X69000000Y-38367600D03*
D17*
X74000000Y-34667600D03*
D16*
X74000000Y-40567600D03*
D18*
X79000000Y-29517600D03*
D11*
X79500000Y-34667600D03*
%TD*%
%TO.C,SW1*%
X29833300Y-16000000D03*
D16*
X30333300Y-19700000D03*
D17*
X35333300Y-16000000D03*
D16*
X35333300Y-21900000D03*
D18*
X40333300Y-10850000D03*
D11*
X40833300Y-16000000D03*
%TD*%
M02*
