M48
; DRILL file KiCad 10.0.3 date 2026-07-23T20:35:06
; FORMAT={-:-/ absolute / metric / decimal}
; #@! TF.CreationDate,2026-07-23T20:35:06-04:00
; #@! TF.GenerationSoftware,Kicad,Pcbnew,10.0.3
; #@! TF.FileFunction,Plated,1,4,PTH
FMAT,2
METRIC
; #@! TA.AperFunction,Plated,PTH,ViaDrill
T1C0.150
; #@! TA.AperFunction,Plated,PTH,ViaDrill
T2C0.200
; #@! TA.AperFunction,Plated,PTH,ComponentDrill
T3C0.750
; #@! TA.AperFunction,Plated,PTH,ComponentDrill
T4C0.800
; #@! TA.AperFunction,Plated,PTH,ComponentDrill
T5C1.000
; #@! TA.AperFunction,Plated,PTH,ComponentDrill
T6C1.200
; #@! TA.AperFunction,Plated,PTH,ComponentDrill
T7C1.200
; #@! TA.AperFunction,Plated,PTH,ComponentDrill
T8C1.700
; #@! TA.AperFunction,Plated,PTH,ComponentDrill
T9C3.000
%
G90
G05
T1
X4.0Y-4.0
X4.0Y-10.0
X4.0Y-16.0
X4.0Y-22.0
X4.0Y-28.0
X4.0Y-34.0
X4.0Y-40.0
X4.0Y-46.0
X4.0Y-52.0
X4.0Y-58.0
X4.0Y-64.0
X4.0Y-70.0
X4.0Y-76.0
X4.0Y-82.0
X4.5Y-79.225
X8.0Y-81.025
X9.25Y-12.75
X10.0Y-4.0
X10.0Y-10.0
X10.0Y-16.0
X10.0Y-22.0
X10.0Y-28.0
X10.0Y-70.0
X10.615Y-44.001
X10.615Y-62.667
X10.8Y-80.77
X14.926Y-4.632
X14.926Y-6.183
X15.5Y-20.25
X15.97Y-84.2
X15.97Y-88.8
X16.0Y-4.0
X16.0Y-10.0
X16.0Y-16.0
X16.0Y-22.0
X16.0Y-28.0
X16.015Y-45.461
X16.2Y-82.23
X18.04Y-5.75
X19.27Y-40.568
X19.27Y-59.234
X19.27Y-77.902
X19.5Y-81.725
X21.75Y-12.75
X22.0Y-10.0
X22.0Y-16.0
X22.0Y-28.0
X22.0Y-40.0
X22.0Y-46.0
X22.0Y-58.0
X22.0Y-82.0
X22.2Y-4.55
X22.982Y-39.93
X22.982Y-41.48
X22.982Y-57.538
X22.982Y-59.088
X24.8Y-4.55
X24.8Y-6.45
X28.0Y-4.0
X28.0Y-16.0
X28.0Y-22.0
X28.47Y-75.0
X29.0Y-4.175
X29.677Y-82.996
X29.948Y-25.333
X29.948Y-44.001
X29.948Y-62.667
X30.775Y-71.5
X32.0Y-4.175
X33.0Y-75.275
X34.0Y-4.0
X34.0Y-10.0
X34.0Y-28.0
X34.0Y-46.0
X34.0Y-76.0
X34.775Y-77.0
X35.348Y-26.793
X35.348Y-45.461
X35.348Y-64.127
X36.5Y-86.725
X37.775Y-88.4
X38.541Y-66.163
X38.603Y-21.9
X38.603Y-40.568
X38.603Y-59.234
X40.0Y-4.0
X40.0Y-22.0
X40.0Y-28.0
X40.0Y-40.0
X40.0Y-58.0
X40.0Y-70.0
X40.67Y-2.895
X40.67Y-7.075
X42.315Y-22.322
X42.315Y-39.93
X42.315Y-57.538
X43.941Y-67.623
X44.577Y-84.154
X46.0Y-4.0
X46.0Y-16.0
X46.0Y-22.0
X46.0Y-28.0
X46.0Y-34.0
X49.282Y-44.001
X49.282Y-62.667
X49.33Y-2.895
X49.33Y-7.075
X52.0Y-4.0
X52.0Y-10.0
X52.0Y-22.0
X52.0Y-28.0
X52.0Y-40.0
X52.0Y-64.0
X52.0Y-70.0
X53.275Y-77.5
X53.275Y-80.8
X54.681Y-26.793
X54.681Y-45.461
X54.681Y-64.127
X56.5Y-86.725
X57.0Y-6.85
X57.0Y-9.15
X57.937Y-21.9
X57.937Y-40.568
X57.937Y-59.234
X58.0Y-4.0
X58.0Y-28.0
X58.0Y-40.0
X58.0Y-58.0
X58.0Y-64.0
X58.0Y-70.0
X58.0Y-82.0
X61.275Y-80.8
X61.648Y-22.322
X61.648Y-23.872
X61.648Y-39.93
X61.648Y-41.48
X61.648Y-57.538
X61.648Y-59.088
X64.0Y-4.0
X64.0Y-10.0
X64.0Y-16.0
X64.0Y-22.0
X64.0Y-28.0
X64.0Y-34.0
X64.0Y-40.0
X64.0Y-52.0
X64.0Y-64.0
X68.615Y-44.001
X68.615Y-62.667
X70.0Y-4.0
X70.0Y-10.0
X70.0Y-22.0
X70.0Y-28.0
X70.0Y-34.0
X70.0Y-52.0
X70.0Y-64.0
X70.0Y-70.0
X70.0Y-82.0
X74.015Y-45.461
X74.015Y-64.127
X76.0Y-4.0
X76.0Y-10.0
X76.0Y-16.0
X76.0Y-22.0
X76.0Y-28.0
X76.0Y-46.0
X76.0Y-64.0
X76.0Y-76.0
X76.0Y-82.0
X77.27Y-40.568
X77.27Y-77.902
X78.5Y-82.15
X78.5Y-85.85
X79.15Y-19.25
X79.907Y-75.146
X79.907Y-76.696
X80.981Y-39.93
X80.981Y-41.48
X80.981Y-57.538
X80.981Y-59.088
X81.504Y-66.163
X82.0Y-4.0
X82.0Y-10.0
X82.0Y-16.0
X82.0Y-22.0
X82.0Y-28.0
X82.0Y-34.0
X82.0Y-40.0
X82.0Y-46.0
X82.0Y-52.0
X82.0Y-58.0
X82.0Y-64.0
X82.0Y-70.0
X82.0Y-76.0
X82.0Y-82.0
X86.904Y-67.623
T2
X4.619Y-65.425
X4.621Y-70.572
X4.837Y-60.511
X5.5Y-69.363
X5.5Y-80.393
X6.234Y-80.481
X7.244Y-40.082
X9.29Y-82.52
X9.363Y-64.22
X9.793Y-79.966
X11.621Y-42.272
X14.392Y-76.019
X19.27Y-76.194
X23.19Y-75.0
X24.229Y-25.035
X24.643Y-73.879
X26.013Y-73.338
X26.955Y-28.322
X27.063Y-40.079
X27.175Y-81.53
X27.268Y-76.004
X28.058Y-58.746
X29.752Y-74.946
X29.882Y-5.913
X29.951Y-82.255
X31.546Y-84.043
X32.006Y-78.26
X38.312Y-80.447
X38.568Y-82.054
X39.269Y-68.426
X39.313Y-85.479
X39.568Y-82.364
X40.229Y-81.62
X40.653Y-83.983
X40.658Y-86.168
X40.751Y-85.0
X40.998Y-78.736
X41.811Y-79.981
X41.889Y-87.111
X42.031Y-8.949
X42.304Y-78.161
X42.4Y-88.257
X42.411Y-84.29
X42.592Y-76.964
X42.798Y-79.699
X42.892Y-88.776
X42.976Y-76.356
X43.064Y-85.776
X43.6Y-88.846
X44.256Y-86.082
X44.435Y-57.958
X44.799Y-81.401
X45.194Y-66.293
X45.388Y-9.633
X45.531Y-21.404
X45.553Y-40.08
X46.098Y-79.675
X46.144Y-81.787
X46.441Y-86.581
X46.857Y-81.78
X47.223Y-63.52
X47.533Y-83.267
X47.539Y-85.311
X47.589Y-82.115
X48.108Y-80.882
X48.47Y-87.718
X49.239Y-87.134
X49.256Y-82.2
X49.265Y-83.392
X50.864Y-80.8
X53.42Y-25.21
X54.273Y-81.721
X54.447Y-79.52
X54.985Y-79.988
X55.878Y-80.768
X59.624Y-81.956
X63.26Y-4.983
X64.944Y-40.073
X65.161Y-84.526
X65.49Y-85.236
X65.73Y-73.993
X66.218Y-4.986
X66.63Y-84.778
X67.351Y-63.054
X67.9Y-89.062
X72.897Y-46.179
X80.296Y-68.239
X85.649Y-66.163
T3
X42.1Y-6.575
X47.9Y-6.575
T5
X68.85Y-16.45
X79.15Y-16.45
T6
X12.96Y-5.75
X12.96Y-20.25
X15.5Y-20.25
X18.04Y-5.75
X18.04Y-20.25
T7
X68.85Y-12.75
X68.85Y-19.25
X79.15Y-12.75
X79.15Y-19.25
T9
X11.0Y-38.368
X11.0Y-57.034
X11.0Y-75.702
X16.0Y-40.568
X16.0Y-59.234
X16.0Y-77.902
X30.333Y-19.7
X30.333Y-38.368
X30.333Y-57.034
X35.333Y-21.9
X35.333Y-40.568
X35.333Y-59.234
X40.0Y-75.702
X45.0Y-77.902
X49.667Y-19.7
X49.667Y-38.368
X49.667Y-57.034
X54.667Y-21.9
X54.667Y-40.568
X54.667Y-59.234
X69.0Y-38.368
X69.0Y-57.034
X69.0Y-75.702
X74.0Y-40.568
X74.0Y-59.234
X74.0Y-77.902
T4
X40.67Y-2.595G85X40.67Y-3.195
G05
X40.67Y-6.675G85X40.67Y-7.475
G05
X49.33Y-2.595G85X49.33Y-3.195
G05
X49.33Y-6.675G85X49.33Y-7.475
G05
T8
X9.25Y-13.3G85X9.25Y-12.2
G05
X21.75Y-13.3G85X21.75Y-12.2
G05
M30
