M48
; DRILL file KiCad 10.0.3 date 2026-07-22T14:02:55
; FORMAT={-:-/ absolute / metric / decimal}
; #@! TF.CreationDate,2026-07-22T14:02:55-04:00
; #@! TF.GenerationSoftware,Kicad,Pcbnew,10.0.3
; #@! TF.FileFunction,Plated,1,4,PTH
FMAT,2
METRIC
; #@! TA.AperFunction,Plated,PTH,ViaDrill
T1C0.150
; #@! TA.AperFunction,Plated,PTH,ViaDrill
T2C0.200
; #@! TA.AperFunction,Plated,PTH,ComponentDrill
T3C0.750
; #@! TA.AperFunction,Plated,PTH,ComponentDrill
T4C0.800
; #@! TA.AperFunction,Plated,PTH,ComponentDrill
T5C1.000
; #@! TA.AperFunction,Plated,PTH,ComponentDrill
T6C1.200
; #@! TA.AperFunction,Plated,PTH,ComponentDrill
T7C1.200
; #@! TA.AperFunction,Plated,PTH,ComponentDrill
T8C1.700
; #@! TA.AperFunction,Plated,PTH,ComponentDrill
T9C3.000
%
G90
G05
T1
X4.0Y-4.0
X4.0Y-10.0
X4.0Y-16.0
X4.0Y-22.0
X4.0Y-28.0
X4.0Y-34.0
X4.0Y-40.0
X4.0Y-46.0
X4.0Y-52.0
X4.0Y-58.0
X4.0Y-64.0
X4.0Y-70.0
X4.0Y-76.0
X4.0Y-82.0
X10.0Y-4.0
X10.0Y-10.0
X10.0Y-16.0
X10.0Y-22.0
X10.0Y-28.0
X10.0Y-34.0
X10.845Y-79.014
X11.75Y-17.75
X12.8Y-44.77
X15.97Y-84.2
X15.97Y-88.8
X16.0Y-4.0
X16.0Y-16.0
X16.0Y-22.0
X16.0Y-28.0
X16.0Y-46.0
X16.0Y-58.0
X16.0Y-82.0
X17.0Y-7.225
X17.0Y-8.775
X18.0Y-25.25
X18.2Y-46.23
X19.5Y-81.725
X19.7Y-7.05
X20.54Y-10.75
X21.27Y-41.9
X21.27Y-59.9
X22.0Y-4.0
X22.0Y-10.0
X22.0Y-16.0
X22.0Y-22.0
X22.0Y-28.0
X22.0Y-34.0
X22.0Y-82.0
X22.3Y-7.05
X22.3Y-8.95
X24.25Y-17.75
X24.5Y-40.925
X24.5Y-42.475
X24.5Y-57.925
X24.5Y-59.475
X24.5Y-83.225
X25.27Y-75.0
X28.0Y-4.0
X28.0Y-10.0
X28.0Y-16.0
X29.0Y-4.175
X30.523Y-83.304
X30.8Y-26.77
X30.8Y-44.77
X30.8Y-62.77
X32.0Y-4.175
X34.0Y-4.0
X34.0Y-10.0
X34.0Y-22.0
X34.0Y-28.0
X34.0Y-40.0
X34.0Y-46.0
X34.0Y-58.0
X34.0Y-70.0
X34.0Y-76.0
X34.0Y-82.0
X34.0Y-83.225
X34.775Y-77.0
X36.2Y-46.23
X36.5Y-86.725
X36.65Y-64.23
X37.775Y-88.4
X38.8Y-66.07
X39.27Y-23.9
X39.27Y-41.9
X39.27Y-59.9
X40.0Y-4.0
X40.0Y-10.0
X40.0Y-16.0
X40.0Y-22.0
X40.0Y-34.0
X40.0Y-40.0
X40.0Y-46.0
X40.0Y-52.0
X40.0Y-58.0
X40.0Y-64.0
X40.0Y-70.0
X40.0Y-82.0
X40.67Y-2.895
X40.67Y-7.075
X42.5Y-23.925
X42.5Y-40.925
X42.5Y-59.475
X44.2Y-67.53
X46.0Y-4.0
X46.0Y-10.0
X46.0Y-16.0
X46.0Y-34.0
X46.0Y-46.0
X46.0Y-52.0
X48.27Y-77.9
X48.8Y-44.77
X49.33Y-2.895
X49.33Y-7.075
X52.0Y-4.0
X52.0Y-10.0
X52.0Y-22.0
X52.0Y-28.0
X52.0Y-40.0
X52.0Y-46.0
X52.0Y-58.0
X52.0Y-64.0
X52.0Y-70.0
X53.275Y-80.8
X54.2Y-28.23
X54.2Y-64.23
X56.5Y-86.725
X56.775Y-77.0
X57.0Y-6.85
X57.0Y-9.15
X57.27Y-23.9
X57.27Y-41.9
X57.27Y-59.9
X58.0Y-4.0
X58.0Y-16.0
X58.0Y-22.0
X58.0Y-28.0
X58.0Y-34.0
X58.0Y-40.0
X58.0Y-46.0
X58.0Y-58.0
X58.0Y-64.0
X58.0Y-76.0
X60.275Y-24.315
X60.275Y-41.315
X60.275Y-58.315
X64.0Y-4.0
X64.0Y-10.0
X64.0Y-16.0
X64.0Y-22.0
X64.0Y-28.0
X64.0Y-34.0
X64.0Y-46.0
X64.0Y-52.0
X64.0Y-64.0
X64.0Y-70.0
X64.775Y-78.3
X70.0Y-4.0
X70.0Y-10.0
X70.0Y-16.0
X70.0Y-22.0
X70.0Y-28.0
X70.0Y-40.0
X70.0Y-58.0
X70.0Y-64.0
X70.0Y-76.0
X70.0Y-82.0
X72.2Y-64.23
X75.27Y-41.9
X75.27Y-59.9
X75.27Y-77.9
X76.0Y-4.0
X76.0Y-10.0
X76.0Y-22.0
X76.0Y-28.0
X76.0Y-34.0
X76.0Y-40.0
X76.0Y-46.0
X76.0Y-52.0
X76.0Y-58.0
X76.0Y-64.0
X76.0Y-70.0
X76.0Y-76.0
X76.0Y-82.0
X77.15Y-21.25
X77.5Y-74.925
X77.5Y-76.475
X78.5Y-40.925
X78.5Y-42.475
X78.5Y-57.925
X78.5Y-59.475
X78.5Y-82.15
X78.5Y-85.85
X78.8Y-66.07
X82.0Y-4.0
X82.0Y-10.0
X82.0Y-16.0
X82.0Y-22.0
X82.0Y-28.0
X82.0Y-34.0
X82.0Y-40.0
X82.0Y-46.0
X82.0Y-52.0
X82.0Y-58.0
X82.0Y-64.0
X82.0Y-70.0
X82.0Y-76.0
X82.0Y-82.0
X84.2Y-67.53
T2
X4.619Y-65.425
X4.621Y-70.572
X4.837Y-60.511
X5.5Y-63.64
X5.5Y-69.37
X5.5Y-74.997
X7.8Y-72.75
X9.73Y-41.403
X9.965Y-82.674
X10.5Y-80.875
X13.95Y-77.418
X14.063Y-63.915
X15.666Y-39.299
X15.981Y-77.653
X18.852Y-75.819
X20.19Y-76.603
X23.984Y-74.515
X24.972Y-80.328
X26.854Y-77.111
X27.031Y-7.367
X27.177Y-77.867
X27.73Y-23.406
X27.9Y-82.112
X28.736Y-72.737
X28.909Y-59.405
X29.315Y-41.287
X29.882Y-5.913
X30.619Y-79.013
X30.878Y-75.304
X31.651Y-74.821
X38.493Y-89.049
X39.507Y-68.333
X39.701Y-83.246
X39.929Y-85.552
X40.255Y-80.328
X40.278Y-84.34
X40.34Y-86.14
X40.739Y-85.385
X40.752Y-83.822
X40.799Y-62.267
X40.9Y-88.3
X41.156Y-79.959
X41.261Y-73.6
X41.8Y-8.945
X42.094Y-88.259
X42.411Y-81.843
X42.418Y-84.342
X42.42Y-85.8
X42.619Y-77.684
X42.64Y-76.438
X42.799Y-88.253
X42.8Y-79.46
X42.803Y-82.696
X43.133Y-85.817
X44.108Y-82.041
X44.259Y-54.376
X44.283Y-89.264
X44.414Y-41.413
X44.7Y-6.7
X44.915Y-81.408
X45.0Y-23.41
X45.279Y-65.311
X45.697Y-88.696
X45.99Y-81.402
X46.018Y-86.395
X46.655Y-86.041
X46.75Y-6.774
X47.33Y-81.584
X47.368Y-82.771
X47.58Y-84.458
X48.3Y-88.85
X48.771Y-80.885
X49.152Y-80.258
X49.25Y-83.8
X49.252Y-81.802
X50.056Y-81.854
X50.635Y-80.852
X50.757Y-81.757
X51.772Y-79.917
X52.831Y-78.978
X52.936Y-26.752
X55.668Y-6.387
X59.02Y-87.048
X59.612Y-57.605
X62.812Y-41.403
X62.938Y-43.43
X63.278Y-4.983
X63.68Y-85.587
X63.73Y-77.412
X65.276Y-85.17
X66.218Y-4.986
X66.63Y-83.146
X70.93Y-44.77
X70.941Y-62.77
X77.671Y-68.223
T3
X42.1Y-6.575
X47.9Y-6.575
T5
X66.85Y-18.45
X77.15Y-18.45
T6
X15.46Y-10.75
X15.46Y-25.25
X18.0Y-25.25
X20.54Y-10.75
X20.54Y-25.25
T7
X66.85Y-14.75
X66.85Y-21.25
X77.15Y-14.75
X77.15Y-21.25
T9
X13.0Y-39.7
X13.0Y-57.7
X18.0Y-41.9
X18.0Y-59.9
X31.0Y-21.7
X31.0Y-39.7
X31.0Y-57.7
X36.0Y-23.9
X36.0Y-41.9
X36.0Y-59.9
X40.0Y-75.7
X45.0Y-77.9
X49.0Y-21.7
X49.0Y-39.7
X49.0Y-57.7
X54.0Y-23.9
X54.0Y-41.9
X54.0Y-59.9
X67.0Y-39.7
X67.0Y-57.7
X67.0Y-75.7
X72.0Y-41.9
X72.0Y-59.9
X72.0Y-77.9
T4
X40.67Y-2.595G85X40.67Y-3.195
G05
X40.67Y-6.675G85X40.67Y-7.475
G05
X49.33Y-2.595G85X49.33Y-3.195
G05
X49.33Y-6.675G85X49.33Y-7.475
G05
T8
X11.75Y-18.3G85X11.75Y-17.2
G05
X24.25Y-18.3G85X24.25Y-17.2
G05
M30
