%TF.GenerationSoftware,KiCad,Pcbnew,10.0.3*%
%TF.CreationDate,2026-07-28T16:59:11-04:00*%
%TF.ProjectId,ClaudeMicro,436c6175-6465-44d6-9963-726f2e6b6963,rev?*%
%TF.SameCoordinates,Original*%
%TF.FileFunction,Drillmap*%
%TF.FilePolarity,Positive*%
%FSLAX45Y45*%
G04 Gerber Fmt 4.5, Leading zero omitted, Abs format (unit mm)*
G04 Created by KiCad (PCBNEW 10.0.3) date 2026-07-28 16:59:11*
%MOMM*%
%LPD*%
G01*
G04 APERTURE LIST*
%ADD10C,0.100000*%
%ADD11C,0.200000*%
%ADD12C,0.120000*%
%ADD13C,0.170000*%
%ADD14C,0.270000*%
%ADD15C,0.300000*%
%ADD16C,0.500000*%
G04 APERTURE END LIST*
D10*
X0Y-600000D02*
G75*
G02*
X600000Y0I600000J0D01*
G01*
X0Y-8400000D02*
X0Y-600000D01*
X600000Y0D02*
X8400000Y0D01*
X600000Y-9000000D02*
G75*
G02*
X0Y-8400000I0J600000D01*
G01*
X8400000Y0D02*
G75*
G02*
X9000000Y-600000I0J-600000D01*
G01*
X8400000Y-9000000D02*
X600000Y-9000000D01*
X9000000Y-600000D02*
X9000000Y-8400000D01*
X9000000Y-8400000D02*
G75*
G02*
X8400000Y-9000000I-600000J0D01*
G01*
D11*
D12*
X2040000Y-2891760D02*
X2160000Y-3011760D01*
X2160000Y-2891760D02*
X2040000Y-3011760D01*
X2040000Y-4758440D02*
X2160000Y-4878440D01*
X2160000Y-4758440D02*
X2040000Y-4878440D01*
X2040000Y-6625200D02*
X2160000Y-6745200D01*
X2160000Y-6625200D02*
X2040000Y-6745200D01*
X3973330Y-1025000D02*
X4093330Y-1145000D01*
X4093330Y-1025000D02*
X3973330Y-1145000D01*
X3973330Y-2891760D02*
X4093330Y-3011760D01*
X4093330Y-2891760D02*
X3973330Y-3011760D01*
X3973330Y-4758440D02*
X4093330Y-4878440D01*
X4093330Y-4758440D02*
X3973330Y-4878440D01*
X4940000Y-6625200D02*
X5060000Y-6745200D01*
X5060000Y-6625200D02*
X4940000Y-6745200D01*
X5906670Y-1025000D02*
X6026670Y-1145000D01*
X6026670Y-1025000D02*
X5906670Y-1145000D01*
X5906670Y-2891760D02*
X6026670Y-3011760D01*
X6026670Y-2891760D02*
X5906670Y-3011760D01*
X5906670Y-4758440D02*
X6026670Y-4878440D01*
X6026670Y-4758440D02*
X5906670Y-4878440D01*
X7840000Y-2891760D02*
X7960000Y-3011760D01*
X7960000Y-2891760D02*
X7840000Y-3011760D01*
X7840000Y-4758440D02*
X7960000Y-4878440D01*
X7960000Y-4758440D02*
X7840000Y-4878440D01*
X7840000Y-6625200D02*
X7960000Y-6745200D01*
X7960000Y-6625200D02*
X7840000Y-6745200D01*
D13*
X1135000Y-3466760D02*
G75*
G02*
X965000Y-3466760I-85000J0D01*
G01*
X965000Y-3466760D02*
G75*
G02*
X1135000Y-3466760I85000J0D01*
G01*
X1135000Y-5333440D02*
G75*
G02*
X965000Y-5333440I-85000J0D01*
G01*
X965000Y-5333440D02*
G75*
G02*
X1135000Y-5333440I85000J0D01*
G01*
X1135000Y-7200200D02*
G75*
G02*
X965000Y-7200200I-85000J0D01*
G01*
X965000Y-7200200D02*
G75*
G02*
X1135000Y-7200200I85000J0D01*
G01*
X2235000Y-3466760D02*
G75*
G02*
X2065000Y-3466760I-85000J0D01*
G01*
X2065000Y-3466760D02*
G75*
G02*
X2235000Y-3466760I85000J0D01*
G01*
X2235000Y-5333440D02*
G75*
G02*
X2065000Y-5333440I-85000J0D01*
G01*
X2065000Y-5333440D02*
G75*
G02*
X2235000Y-5333440I85000J0D01*
G01*
X2235000Y-7200200D02*
G75*
G02*
X2065000Y-7200200I-85000J0D01*
G01*
X2065000Y-7200200D02*
G75*
G02*
X2235000Y-7200200I85000J0D01*
G01*
X3068330Y-1600000D02*
G75*
G02*
X2898330Y-1600000I-85000J0D01*
G01*
X2898330Y-1600000D02*
G75*
G02*
X3068330Y-1600000I85000J0D01*
G01*
X3068330Y-3466760D02*
G75*
G02*
X2898330Y-3466760I-85000J0D01*
G01*
X2898330Y-3466760D02*
G75*
G02*
X3068330Y-3466760I85000J0D01*
G01*
X3068330Y-5333440D02*
G75*
G02*
X2898330Y-5333440I-85000J0D01*
G01*
X2898330Y-5333440D02*
G75*
G02*
X3068330Y-5333440I85000J0D01*
G01*
X4035000Y-7200200D02*
G75*
G02*
X3865000Y-7200200I-85000J0D01*
G01*
X3865000Y-7200200D02*
G75*
G02*
X4035000Y-7200200I85000J0D01*
G01*
X4168330Y-1600000D02*
G75*
G02*
X3998330Y-1600000I-85000J0D01*
G01*
X3998330Y-1600000D02*
G75*
G02*
X4168330Y-1600000I85000J0D01*
G01*
X4168330Y-3466760D02*
G75*
G02*
X3998330Y-3466760I-85000J0D01*
G01*
X3998330Y-3466760D02*
G75*
G02*
X4168330Y-3466760I85000J0D01*
G01*
X4168330Y-5333440D02*
G75*
G02*
X3998330Y-5333440I-85000J0D01*
G01*
X3998330Y-5333440D02*
G75*
G02*
X4168330Y-5333440I85000J0D01*
G01*
X5001670Y-1600000D02*
G75*
G02*
X4831670Y-1600000I-85000J0D01*
G01*
X4831670Y-1600000D02*
G75*
G02*
X5001670Y-1600000I85000J0D01*
G01*
X5001670Y-3466760D02*
G75*
G02*
X4831670Y-3466760I-85000J0D01*
G01*
X4831670Y-3466760D02*
G75*
G02*
X5001670Y-3466760I85000J0D01*
G01*
X5001670Y-5333440D02*
G75*
G02*
X4831670Y-5333440I-85000J0D01*
G01*
X4831670Y-5333440D02*
G75*
G02*
X5001670Y-5333440I85000J0D01*
G01*
X5135000Y-7200200D02*
G75*
G02*
X4965000Y-7200200I-85000J0D01*
G01*
X4965000Y-7200200D02*
G75*
G02*
X5135000Y-7200200I85000J0D01*
G01*
X6101670Y-1600000D02*
G75*
G02*
X5931670Y-1600000I-85000J0D01*
G01*
X5931670Y-1600000D02*
G75*
G02*
X6101670Y-1600000I85000J0D01*
G01*
X6101670Y-3466760D02*
G75*
G02*
X5931670Y-3466760I-85000J0D01*
G01*
X5931670Y-3466760D02*
G75*
G02*
X6101670Y-3466760I85000J0D01*
G01*
X6101670Y-5333440D02*
G75*
G02*
X5931670Y-5333440I-85000J0D01*
G01*
X5931670Y-5333440D02*
G75*
G02*
X6101670Y-5333440I85000J0D01*
G01*
X6935000Y-3466760D02*
G75*
G02*
X6765000Y-3466760I-85000J0D01*
G01*
X6765000Y-3466760D02*
G75*
G02*
X6935000Y-3466760I85000J0D01*
G01*
X6935000Y-5333440D02*
G75*
G02*
X6765000Y-5333440I-85000J0D01*
G01*
X6765000Y-5333440D02*
G75*
G02*
X6935000Y-5333440I85000J0D01*
G01*
X6935000Y-7200200D02*
G75*
G02*
X6765000Y-7200200I-85000J0D01*
G01*
X6765000Y-7200200D02*
G75*
G02*
X6935000Y-7200200I85000J0D01*
G01*
X8035000Y-3466760D02*
G75*
G02*
X7865000Y-3466760I-85000J0D01*
G01*
X7865000Y-3466760D02*
G75*
G02*
X8035000Y-3466760I85000J0D01*
G01*
X8035000Y-5333440D02*
G75*
G02*
X7865000Y-5333440I-85000J0D01*
G01*
X7865000Y-5333440D02*
G75*
G02*
X8035000Y-5333440I85000J0D01*
G01*
X8035000Y-7200200D02*
G75*
G02*
X7865000Y-7200200I-85000J0D01*
G01*
X7865000Y-7200200D02*
G75*
G02*
X8035000Y-7200200I85000J0D01*
G01*
D14*
X600000Y-465000D02*
X600000Y-735000D01*
X465000Y-600000D02*
X735000Y-600000D01*
X600000Y-8265000D02*
X600000Y-8535000D01*
X465000Y-8400000D02*
X735000Y-8400000D01*
X8400000Y-465000D02*
X8400000Y-735000D01*
X8265000Y-600000D02*
X8535000Y-600000D01*
X8400000Y-8265000D02*
X8400000Y-8535000D01*
X8265000Y-8400000D02*
X8535000Y-8400000D01*
D15*
X1206067Y-3942827D02*
X1206067Y-3730693D01*
X993933Y-3730693D01*
X993933Y-3942827D01*
X1206067Y-3942827D01*
X1206067Y-5809507D02*
X1206067Y-5597373D01*
X993933Y-5597373D01*
X993933Y-5809507D01*
X1206067Y-5809507D01*
X1206067Y-7676267D02*
X1206067Y-7464133D01*
X993933Y-7464133D01*
X993933Y-7676267D01*
X1206067Y-7676267D01*
X1706067Y-4162827D02*
X1706067Y-3950693D01*
X1493933Y-3950693D01*
X1493933Y-4162827D01*
X1706067Y-4162827D01*
X1706067Y-6029507D02*
X1706067Y-5817373D01*
X1493933Y-5817373D01*
X1493933Y-6029507D01*
X1706067Y-6029507D01*
X1706067Y-7896267D02*
X1706067Y-7684133D01*
X1493933Y-7684133D01*
X1493933Y-7896267D01*
X1706067Y-7896267D01*
X3139397Y-2076067D02*
X3139397Y-1863933D01*
X2927263Y-1863933D01*
X2927263Y-2076067D01*
X3139397Y-2076067D01*
X3139397Y-3942827D02*
X3139397Y-3730693D01*
X2927263Y-3730693D01*
X2927263Y-3942827D01*
X3139397Y-3942827D01*
X3139397Y-5809507D02*
X3139397Y-5597373D01*
X2927263Y-5597373D01*
X2927263Y-5809507D01*
X3139397Y-5809507D01*
X3639397Y-2296067D02*
X3639397Y-2083933D01*
X3427263Y-2083933D01*
X3427263Y-2296067D01*
X3639397Y-2296067D01*
X3639397Y-4162827D02*
X3639397Y-3950693D01*
X3427263Y-3950693D01*
X3427263Y-4162827D01*
X3639397Y-4162827D01*
X3639397Y-6029507D02*
X3639397Y-5817373D01*
X3427263Y-5817373D01*
X3427263Y-6029507D01*
X3639397Y-6029507D01*
X4106067Y-7676267D02*
X4106067Y-7464133D01*
X3893933Y-7464133D01*
X3893933Y-7676267D01*
X4106067Y-7676267D01*
X4606067Y-7896267D02*
X4606067Y-7684133D01*
X4393933Y-7684133D01*
X4393933Y-7896267D01*
X4606067Y-7896267D01*
X5072737Y-2076067D02*
X5072737Y-1863933D01*
X4860603Y-1863933D01*
X4860603Y-2076067D01*
X5072737Y-2076067D01*
X5072737Y-3942827D02*
X5072737Y-3730693D01*
X4860603Y-3730693D01*
X4860603Y-3942827D01*
X5072737Y-3942827D01*
X5072737Y-5809507D02*
X5072737Y-5597373D01*
X4860603Y-5597373D01*
X4860603Y-5809507D01*
X5072737Y-5809507D01*
X5572737Y-2296067D02*
X5572737Y-2083933D01*
X5360603Y-2083933D01*
X5360603Y-2296067D01*
X5572737Y-2296067D01*
X5572737Y-4162827D02*
X5572737Y-3950693D01*
X5360603Y-3950693D01*
X5360603Y-4162827D01*
X5572737Y-4162827D01*
X5572737Y-6029507D02*
X5572737Y-5817373D01*
X5360603Y-5817373D01*
X5360603Y-6029507D01*
X5572737Y-6029507D01*
X7006067Y-3942827D02*
X7006067Y-3730693D01*
X6793933Y-3730693D01*
X6793933Y-3942827D01*
X7006067Y-3942827D01*
X7006067Y-5809507D02*
X7006067Y-5597373D01*
X6793933Y-5597373D01*
X6793933Y-5809507D01*
X7006067Y-5809507D01*
X7006067Y-7676267D02*
X7006067Y-7464133D01*
X6793933Y-7464133D01*
X6793933Y-7676267D01*
X7006067Y-7676267D01*
X7506067Y-4162827D02*
X7506067Y-3950693D01*
X7293933Y-3950693D01*
X7293933Y-4162827D01*
X7506067Y-4162827D01*
X7506067Y-6029507D02*
X7506067Y-5817373D01*
X7293933Y-5817373D01*
X7293933Y-6029507D01*
X7506067Y-6029507D01*
X7506067Y-7896267D02*
X7506067Y-7684133D01*
X7293933Y-7684133D01*
X7293933Y-7896267D01*
X7506067Y-7896267D01*
D16*
X1600000Y-3716760D02*
X1850000Y-3466760D01*
X1600000Y-3216760D01*
X1350000Y-3466760D01*
X1600000Y-3716760D01*
X1600000Y-5583440D02*
X1850000Y-5333440D01*
X1600000Y-5083440D01*
X1350000Y-5333440D01*
X1600000Y-5583440D01*
X1600000Y-7450200D02*
X1850000Y-7200200D01*
X1600000Y-6950200D01*
X1350000Y-7200200D01*
X1600000Y-7450200D01*
X3533330Y-1850000D02*
X3783330Y-1600000D01*
X3533330Y-1350000D01*
X3283330Y-1600000D01*
X3533330Y-1850000D01*
X3533330Y-3716760D02*
X3783330Y-3466760D01*
X3533330Y-3216760D01*
X3283330Y-3466760D01*
X3533330Y-3716760D01*
X3533330Y-5583440D02*
X3783330Y-5333440D01*
X3533330Y-5083440D01*
X3283330Y-5333440D01*
X3533330Y-5583440D01*
X4500000Y-7450200D02*
X4750000Y-7200200D01*
X4500000Y-6950200D01*
X4250000Y-7200200D01*
X4500000Y-7450200D01*
X5466670Y-1850000D02*
X5716670Y-1600000D01*
X5466670Y-1350000D01*
X5216670Y-1600000D01*
X5466670Y-1850000D01*
X5466670Y-3716760D02*
X5716670Y-3466760D01*
X5466670Y-3216760D01*
X5216670Y-3466760D01*
X5466670Y-3716760D01*
X5466670Y-5583440D02*
X5716670Y-5333440D01*
X5466670Y-5083440D01*
X5216670Y-5333440D01*
X5466670Y-5583440D01*
X7400000Y-3716760D02*
X7650000Y-3466760D01*
X7400000Y-3216760D01*
X7150000Y-3466760D01*
X7400000Y-3716760D01*
X7400000Y-5583440D02*
X7650000Y-5333440D01*
X7400000Y-5083440D01*
X7150000Y-5333440D01*
X7400000Y-5583440D01*
X7400000Y-7450200D02*
X7650000Y-7200200D01*
X7400000Y-6950200D01*
X7150000Y-7200200D01*
X7400000Y-7450200D01*
D11*
X255777Y-9316484D02*
X255777Y-9116484D01*
X255777Y-9116484D02*
X303396Y-9116484D01*
X303396Y-9116484D02*
X331967Y-9126008D01*
X331967Y-9126008D02*
X351015Y-9145055D01*
X351015Y-9145055D02*
X360539Y-9164103D01*
X360539Y-9164103D02*
X370062Y-9202198D01*
X370062Y-9202198D02*
X370062Y-9230770D01*
X370062Y-9230770D02*
X360539Y-9268865D01*
X360539Y-9268865D02*
X351015Y-9287912D01*
X351015Y-9287912D02*
X331967Y-9306960D01*
X331967Y-9306960D02*
X303396Y-9316484D01*
X303396Y-9316484D02*
X255777Y-9316484D01*
X455777Y-9316484D02*
X455777Y-9183150D01*
X455777Y-9221246D02*
X465301Y-9202198D01*
X465301Y-9202198D02*
X474824Y-9192674D01*
X474824Y-9192674D02*
X493872Y-9183150D01*
X493872Y-9183150D02*
X512920Y-9183150D01*
X579586Y-9316484D02*
X579586Y-9183150D01*
X579586Y-9116484D02*
X570063Y-9126008D01*
X570063Y-9126008D02*
X579586Y-9135531D01*
X579586Y-9135531D02*
X589110Y-9126008D01*
X589110Y-9126008D02*
X579586Y-9116484D01*
X579586Y-9116484D02*
X579586Y-9135531D01*
X703396Y-9316484D02*
X684348Y-9306960D01*
X684348Y-9306960D02*
X674824Y-9287912D01*
X674824Y-9287912D02*
X674824Y-9116484D01*
X808158Y-9316484D02*
X789110Y-9306960D01*
X789110Y-9306960D02*
X779586Y-9287912D01*
X779586Y-9287912D02*
X779586Y-9116484D01*
X1036729Y-9316484D02*
X1036729Y-9116484D01*
X1036729Y-9116484D02*
X1103396Y-9259341D01*
X1103396Y-9259341D02*
X1170063Y-9116484D01*
X1170063Y-9116484D02*
X1170063Y-9316484D01*
X1351015Y-9316484D02*
X1351015Y-9211722D01*
X1351015Y-9211722D02*
X1341491Y-9192674D01*
X1341491Y-9192674D02*
X1322444Y-9183150D01*
X1322444Y-9183150D02*
X1284348Y-9183150D01*
X1284348Y-9183150D02*
X1265301Y-9192674D01*
X1351015Y-9306960D02*
X1331967Y-9316484D01*
X1331967Y-9316484D02*
X1284348Y-9316484D01*
X1284348Y-9316484D02*
X1265301Y-9306960D01*
X1265301Y-9306960D02*
X1255777Y-9287912D01*
X1255777Y-9287912D02*
X1255777Y-9268865D01*
X1255777Y-9268865D02*
X1265301Y-9249817D01*
X1265301Y-9249817D02*
X1284348Y-9240293D01*
X1284348Y-9240293D02*
X1331967Y-9240293D01*
X1331967Y-9240293D02*
X1351015Y-9230770D01*
X1446253Y-9183150D02*
X1446253Y-9383150D01*
X1446253Y-9192674D02*
X1465301Y-9183150D01*
X1465301Y-9183150D02*
X1503396Y-9183150D01*
X1503396Y-9183150D02*
X1522443Y-9192674D01*
X1522443Y-9192674D02*
X1531967Y-9202198D01*
X1531967Y-9202198D02*
X1541491Y-9221246D01*
X1541491Y-9221246D02*
X1541491Y-9278389D01*
X1541491Y-9278389D02*
X1531967Y-9297436D01*
X1531967Y-9297436D02*
X1522443Y-9306960D01*
X1522443Y-9306960D02*
X1503396Y-9316484D01*
X1503396Y-9316484D02*
X1465301Y-9316484D01*
X1465301Y-9316484D02*
X1446253Y-9306960D01*
X1627205Y-9297436D02*
X1636729Y-9306960D01*
X1636729Y-9306960D02*
X1627205Y-9316484D01*
X1627205Y-9316484D02*
X1617682Y-9306960D01*
X1617682Y-9306960D02*
X1627205Y-9297436D01*
X1627205Y-9297436D02*
X1627205Y-9316484D01*
X1627205Y-9192674D02*
X1636729Y-9202198D01*
X1636729Y-9202198D02*
X1627205Y-9211722D01*
X1627205Y-9211722D02*
X1617682Y-9202198D01*
X1617682Y-9202198D02*
X1627205Y-9192674D01*
X1627205Y-9192674D02*
X1627205Y-9211722D01*
D12*
X-125000Y-9585000D02*
X-5000Y-9705000D01*
X-5000Y-9585000D02*
X-125000Y-9705000D01*
D11*
X360539Y-9736484D02*
X246253Y-9736484D01*
X303396Y-9736484D02*
X303396Y-9536484D01*
X303396Y-9536484D02*
X284348Y-9565055D01*
X284348Y-9565055D02*
X265301Y-9584103D01*
X265301Y-9584103D02*
X246253Y-9593627D01*
X446253Y-9717436D02*
X455777Y-9726960D01*
X455777Y-9726960D02*
X446253Y-9736484D01*
X446253Y-9736484D02*
X436729Y-9726960D01*
X436729Y-9726960D02*
X446253Y-9717436D01*
X446253Y-9717436D02*
X446253Y-9736484D01*
X531967Y-9555531D02*
X541491Y-9546008D01*
X541491Y-9546008D02*
X560539Y-9536484D01*
X560539Y-9536484D02*
X608158Y-9536484D01*
X608158Y-9536484D02*
X627205Y-9546008D01*
X627205Y-9546008D02*
X636729Y-9555531D01*
X636729Y-9555531D02*
X646253Y-9574579D01*
X646253Y-9574579D02*
X646253Y-9593627D01*
X646253Y-9593627D02*
X636729Y-9622198D01*
X636729Y-9622198D02*
X522443Y-9736484D01*
X522443Y-9736484D02*
X646253Y-9736484D01*
X770062Y-9536484D02*
X789110Y-9536484D01*
X789110Y-9536484D02*
X808158Y-9546008D01*
X808158Y-9546008D02*
X817682Y-9555531D01*
X817682Y-9555531D02*
X827205Y-9574579D01*
X827205Y-9574579D02*
X836729Y-9612674D01*
X836729Y-9612674D02*
X836729Y-9660293D01*
X836729Y-9660293D02*
X827205Y-9698389D01*
X827205Y-9698389D02*
X817682Y-9717436D01*
X817682Y-9717436D02*
X808158Y-9726960D01*
X808158Y-9726960D02*
X789110Y-9736484D01*
X789110Y-9736484D02*
X770062Y-9736484D01*
X770062Y-9736484D02*
X751015Y-9726960D01*
X751015Y-9726960D02*
X741491Y-9717436D01*
X741491Y-9717436D02*
X731967Y-9698389D01*
X731967Y-9698389D02*
X722443Y-9660293D01*
X722443Y-9660293D02*
X722443Y-9612674D01*
X722443Y-9612674D02*
X731967Y-9574579D01*
X731967Y-9574579D02*
X741491Y-9555531D01*
X741491Y-9555531D02*
X751015Y-9546008D01*
X751015Y-9546008D02*
X770062Y-9536484D01*
X960539Y-9536484D02*
X979586Y-9536484D01*
X979586Y-9536484D02*
X998634Y-9546008D01*
X998634Y-9546008D02*
X1008158Y-9555531D01*
X1008158Y-9555531D02*
X1017682Y-9574579D01*
X1017682Y-9574579D02*
X1027205Y-9612674D01*
X1027205Y-9612674D02*
X1027205Y-9660293D01*
X1027205Y-9660293D02*
X1017682Y-9698389D01*
X1017682Y-9698389D02*
X1008158Y-9717436D01*
X1008158Y-9717436D02*
X998634Y-9726960D01*
X998634Y-9726960D02*
X979586Y-9736484D01*
X979586Y-9736484D02*
X960539Y-9736484D01*
X960539Y-9736484D02*
X941491Y-9726960D01*
X941491Y-9726960D02*
X931967Y-9717436D01*
X931967Y-9717436D02*
X922443Y-9698389D01*
X922443Y-9698389D02*
X912920Y-9660293D01*
X912920Y-9660293D02*
X912920Y-9612674D01*
X912920Y-9612674D02*
X922443Y-9574579D01*
X922443Y-9574579D02*
X931967Y-9555531D01*
X931967Y-9555531D02*
X941491Y-9546008D01*
X941491Y-9546008D02*
X960539Y-9536484D01*
X1112920Y-9736484D02*
X1112920Y-9603150D01*
X1112920Y-9622198D02*
X1122444Y-9612674D01*
X1122444Y-9612674D02*
X1141491Y-9603150D01*
X1141491Y-9603150D02*
X1170063Y-9603150D01*
X1170063Y-9603150D02*
X1189110Y-9612674D01*
X1189110Y-9612674D02*
X1198634Y-9631722D01*
X1198634Y-9631722D02*
X1198634Y-9736484D01*
X1198634Y-9631722D02*
X1208158Y-9612674D01*
X1208158Y-9612674D02*
X1227205Y-9603150D01*
X1227205Y-9603150D02*
X1255777Y-9603150D01*
X1255777Y-9603150D02*
X1274825Y-9612674D01*
X1274825Y-9612674D02*
X1284348Y-9631722D01*
X1284348Y-9631722D02*
X1284348Y-9736484D01*
X1379586Y-9736484D02*
X1379586Y-9603150D01*
X1379586Y-9622198D02*
X1389110Y-9612674D01*
X1389110Y-9612674D02*
X1408158Y-9603150D01*
X1408158Y-9603150D02*
X1436729Y-9603150D01*
X1436729Y-9603150D02*
X1455777Y-9612674D01*
X1455777Y-9612674D02*
X1465301Y-9631722D01*
X1465301Y-9631722D02*
X1465301Y-9736484D01*
X1465301Y-9631722D02*
X1474824Y-9612674D01*
X1474824Y-9612674D02*
X1493872Y-9603150D01*
X1493872Y-9603150D02*
X1522443Y-9603150D01*
X1522443Y-9603150D02*
X1541491Y-9612674D01*
X1541491Y-9612674D02*
X1551015Y-9631722D01*
X1551015Y-9631722D02*
X1551015Y-9736484D01*
X1941491Y-9526960D02*
X1770063Y-9784103D01*
X2198634Y-9536484D02*
X2217682Y-9536484D01*
X2217682Y-9536484D02*
X2236729Y-9546008D01*
X2236729Y-9546008D02*
X2246253Y-9555531D01*
X2246253Y-9555531D02*
X2255777Y-9574579D01*
X2255777Y-9574579D02*
X2265301Y-9612674D01*
X2265301Y-9612674D02*
X2265301Y-9660293D01*
X2265301Y-9660293D02*
X2255777Y-9698389D01*
X2255777Y-9698389D02*
X2246253Y-9717436D01*
X2246253Y-9717436D02*
X2236729Y-9726960D01*
X2236729Y-9726960D02*
X2217682Y-9736484D01*
X2217682Y-9736484D02*
X2198634Y-9736484D01*
X2198634Y-9736484D02*
X2179587Y-9726960D01*
X2179587Y-9726960D02*
X2170063Y-9717436D01*
X2170063Y-9717436D02*
X2160539Y-9698389D01*
X2160539Y-9698389D02*
X2151015Y-9660293D01*
X2151015Y-9660293D02*
X2151015Y-9612674D01*
X2151015Y-9612674D02*
X2160539Y-9574579D01*
X2160539Y-9574579D02*
X2170063Y-9555531D01*
X2170063Y-9555531D02*
X2179587Y-9546008D01*
X2179587Y-9546008D02*
X2198634Y-9536484D01*
X2351015Y-9717436D02*
X2360539Y-9726960D01*
X2360539Y-9726960D02*
X2351015Y-9736484D01*
X2351015Y-9736484D02*
X2341491Y-9726960D01*
X2341491Y-9726960D02*
X2351015Y-9717436D01*
X2351015Y-9717436D02*
X2351015Y-9736484D01*
X2484348Y-9536484D02*
X2503396Y-9536484D01*
X2503396Y-9536484D02*
X2522444Y-9546008D01*
X2522444Y-9546008D02*
X2531968Y-9555531D01*
X2531968Y-9555531D02*
X2541491Y-9574579D01*
X2541491Y-9574579D02*
X2551015Y-9612674D01*
X2551015Y-9612674D02*
X2551015Y-9660293D01*
X2551015Y-9660293D02*
X2541491Y-9698389D01*
X2541491Y-9698389D02*
X2531968Y-9717436D01*
X2531968Y-9717436D02*
X2522444Y-9726960D01*
X2522444Y-9726960D02*
X2503396Y-9736484D01*
X2503396Y-9736484D02*
X2484348Y-9736484D01*
X2484348Y-9736484D02*
X2465301Y-9726960D01*
X2465301Y-9726960D02*
X2455777Y-9717436D01*
X2455777Y-9717436D02*
X2446253Y-9698389D01*
X2446253Y-9698389D02*
X2436729Y-9660293D01*
X2436729Y-9660293D02*
X2436729Y-9612674D01*
X2436729Y-9612674D02*
X2446253Y-9574579D01*
X2446253Y-9574579D02*
X2455777Y-9555531D01*
X2455777Y-9555531D02*
X2465301Y-9546008D01*
X2465301Y-9546008D02*
X2484348Y-9536484D01*
X2722444Y-9603150D02*
X2722444Y-9736484D01*
X2674825Y-9526960D02*
X2627206Y-9669817D01*
X2627206Y-9669817D02*
X2751015Y-9669817D01*
X2808158Y-9536484D02*
X2941491Y-9536484D01*
X2941491Y-9536484D02*
X2855777Y-9736484D01*
X3008158Y-9555531D02*
X3017682Y-9546008D01*
X3017682Y-9546008D02*
X3036729Y-9536484D01*
X3036729Y-9536484D02*
X3084348Y-9536484D01*
X3084348Y-9536484D02*
X3103396Y-9546008D01*
X3103396Y-9546008D02*
X3112920Y-9555531D01*
X3112920Y-9555531D02*
X3122444Y-9574579D01*
X3122444Y-9574579D02*
X3122444Y-9593627D01*
X3122444Y-9593627D02*
X3112920Y-9622198D01*
X3112920Y-9622198D02*
X2998634Y-9736484D01*
X2998634Y-9736484D02*
X3122444Y-9736484D01*
X3198634Y-9536484D02*
X3198634Y-9574579D01*
X3274825Y-9536484D02*
X3274825Y-9574579D01*
X3570063Y-9812674D02*
X3560539Y-9803150D01*
X3560539Y-9803150D02*
X3541491Y-9774579D01*
X3541491Y-9774579D02*
X3531968Y-9755531D01*
X3531968Y-9755531D02*
X3522444Y-9726960D01*
X3522444Y-9726960D02*
X3512920Y-9679341D01*
X3512920Y-9679341D02*
X3512920Y-9641246D01*
X3512920Y-9641246D02*
X3522444Y-9593627D01*
X3522444Y-9593627D02*
X3531968Y-9565055D01*
X3531968Y-9565055D02*
X3541491Y-9546008D01*
X3541491Y-9546008D02*
X3560539Y-9517436D01*
X3560539Y-9517436D02*
X3570063Y-9507912D01*
X3751015Y-9736484D02*
X3636729Y-9736484D01*
X3693872Y-9736484D02*
X3693872Y-9536484D01*
X3693872Y-9536484D02*
X3674825Y-9565055D01*
X3674825Y-9565055D02*
X3655777Y-9584103D01*
X3655777Y-9584103D02*
X3636729Y-9593627D01*
X3817682Y-9536484D02*
X3941491Y-9536484D01*
X3941491Y-9536484D02*
X3874825Y-9612674D01*
X3874825Y-9612674D02*
X3903396Y-9612674D01*
X3903396Y-9612674D02*
X3922444Y-9622198D01*
X3922444Y-9622198D02*
X3931968Y-9631722D01*
X3931968Y-9631722D02*
X3941491Y-9650770D01*
X3941491Y-9650770D02*
X3941491Y-9698389D01*
X3941491Y-9698389D02*
X3931968Y-9717436D01*
X3931968Y-9717436D02*
X3922444Y-9726960D01*
X3922444Y-9726960D02*
X3903396Y-9736484D01*
X3903396Y-9736484D02*
X3846253Y-9736484D01*
X3846253Y-9736484D02*
X3827206Y-9726960D01*
X3827206Y-9726960D02*
X3817682Y-9717436D01*
X4179587Y-9736484D02*
X4179587Y-9536484D01*
X4265301Y-9736484D02*
X4265301Y-9631722D01*
X4265301Y-9631722D02*
X4255777Y-9612674D01*
X4255777Y-9612674D02*
X4236730Y-9603150D01*
X4236730Y-9603150D02*
X4208158Y-9603150D01*
X4208158Y-9603150D02*
X4189110Y-9612674D01*
X4189110Y-9612674D02*
X4179587Y-9622198D01*
X4389111Y-9736484D02*
X4370063Y-9726960D01*
X4370063Y-9726960D02*
X4360539Y-9717436D01*
X4360539Y-9717436D02*
X4351015Y-9698389D01*
X4351015Y-9698389D02*
X4351015Y-9641246D01*
X4351015Y-9641246D02*
X4360539Y-9622198D01*
X4360539Y-9622198D02*
X4370063Y-9612674D01*
X4370063Y-9612674D02*
X4389111Y-9603150D01*
X4389111Y-9603150D02*
X4417682Y-9603150D01*
X4417682Y-9603150D02*
X4436730Y-9612674D01*
X4436730Y-9612674D02*
X4446253Y-9622198D01*
X4446253Y-9622198D02*
X4455777Y-9641246D01*
X4455777Y-9641246D02*
X4455777Y-9698389D01*
X4455777Y-9698389D02*
X4446253Y-9717436D01*
X4446253Y-9717436D02*
X4436730Y-9726960D01*
X4436730Y-9726960D02*
X4417682Y-9736484D01*
X4417682Y-9736484D02*
X4389111Y-9736484D01*
X4570063Y-9736484D02*
X4551015Y-9726960D01*
X4551015Y-9726960D02*
X4541492Y-9707912D01*
X4541492Y-9707912D02*
X4541492Y-9536484D01*
X4722444Y-9726960D02*
X4703396Y-9736484D01*
X4703396Y-9736484D02*
X4665301Y-9736484D01*
X4665301Y-9736484D02*
X4646253Y-9726960D01*
X4646253Y-9726960D02*
X4636730Y-9707912D01*
X4636730Y-9707912D02*
X4636730Y-9631722D01*
X4636730Y-9631722D02*
X4646253Y-9612674D01*
X4646253Y-9612674D02*
X4665301Y-9603150D01*
X4665301Y-9603150D02*
X4703396Y-9603150D01*
X4703396Y-9603150D02*
X4722444Y-9612674D01*
X4722444Y-9612674D02*
X4731968Y-9631722D01*
X4731968Y-9631722D02*
X4731968Y-9650770D01*
X4731968Y-9650770D02*
X4636730Y-9669817D01*
X4808158Y-9726960D02*
X4827206Y-9736484D01*
X4827206Y-9736484D02*
X4865301Y-9736484D01*
X4865301Y-9736484D02*
X4884349Y-9726960D01*
X4884349Y-9726960D02*
X4893873Y-9707912D01*
X4893873Y-9707912D02*
X4893873Y-9698389D01*
X4893873Y-9698389D02*
X4884349Y-9679341D01*
X4884349Y-9679341D02*
X4865301Y-9669817D01*
X4865301Y-9669817D02*
X4836730Y-9669817D01*
X4836730Y-9669817D02*
X4817682Y-9660293D01*
X4817682Y-9660293D02*
X4808158Y-9641246D01*
X4808158Y-9641246D02*
X4808158Y-9631722D01*
X4808158Y-9631722D02*
X4817682Y-9612674D01*
X4817682Y-9612674D02*
X4836730Y-9603150D01*
X4836730Y-9603150D02*
X4865301Y-9603150D01*
X4865301Y-9603150D02*
X4884349Y-9612674D01*
X4960539Y-9812674D02*
X4970063Y-9803150D01*
X4970063Y-9803150D02*
X4989111Y-9774579D01*
X4989111Y-9774579D02*
X4998634Y-9755531D01*
X4998634Y-9755531D02*
X5008158Y-9726960D01*
X5008158Y-9726960D02*
X5017682Y-9679341D01*
X5017682Y-9679341D02*
X5017682Y-9641246D01*
X5017682Y-9641246D02*
X5008158Y-9593627D01*
X5008158Y-9593627D02*
X4998634Y-9565055D01*
X4998634Y-9565055D02*
X4989111Y-9546008D01*
X4989111Y-9546008D02*
X4970063Y-9517436D01*
X4970063Y-9517436D02*
X4960539Y-9507912D01*
X5322444Y-9812674D02*
X5312920Y-9803150D01*
X5312920Y-9803150D02*
X5293873Y-9774579D01*
X5293873Y-9774579D02*
X5284349Y-9755531D01*
X5284349Y-9755531D02*
X5274825Y-9726960D01*
X5274825Y-9726960D02*
X5265301Y-9679341D01*
X5265301Y-9679341D02*
X5265301Y-9641246D01*
X5265301Y-9641246D02*
X5274825Y-9593627D01*
X5274825Y-9593627D02*
X5284349Y-9565055D01*
X5284349Y-9565055D02*
X5293873Y-9546008D01*
X5293873Y-9546008D02*
X5312920Y-9517436D01*
X5312920Y-9517436D02*
X5322444Y-9507912D01*
X5398634Y-9603150D02*
X5398634Y-9736484D01*
X5398634Y-9622198D02*
X5408158Y-9612674D01*
X5408158Y-9612674D02*
X5427206Y-9603150D01*
X5427206Y-9603150D02*
X5455777Y-9603150D01*
X5455777Y-9603150D02*
X5474825Y-9612674D01*
X5474825Y-9612674D02*
X5484349Y-9631722D01*
X5484349Y-9631722D02*
X5484349Y-9736484D01*
X5608158Y-9736484D02*
X5589111Y-9726960D01*
X5589111Y-9726960D02*
X5579587Y-9717436D01*
X5579587Y-9717436D02*
X5570063Y-9698389D01*
X5570063Y-9698389D02*
X5570063Y-9641246D01*
X5570063Y-9641246D02*
X5579587Y-9622198D01*
X5579587Y-9622198D02*
X5589111Y-9612674D01*
X5589111Y-9612674D02*
X5608158Y-9603150D01*
X5608158Y-9603150D02*
X5636730Y-9603150D01*
X5636730Y-9603150D02*
X5655777Y-9612674D01*
X5655777Y-9612674D02*
X5665301Y-9622198D01*
X5665301Y-9622198D02*
X5674825Y-9641246D01*
X5674825Y-9641246D02*
X5674825Y-9698389D01*
X5674825Y-9698389D02*
X5665301Y-9717436D01*
X5665301Y-9717436D02*
X5655777Y-9726960D01*
X5655777Y-9726960D02*
X5636730Y-9736484D01*
X5636730Y-9736484D02*
X5608158Y-9736484D01*
X5731968Y-9603150D02*
X5808158Y-9603150D01*
X5760539Y-9536484D02*
X5760539Y-9707912D01*
X5760539Y-9707912D02*
X5770063Y-9726960D01*
X5770063Y-9726960D02*
X5789111Y-9736484D01*
X5789111Y-9736484D02*
X5808158Y-9736484D01*
X6027206Y-9603150D02*
X6027206Y-9803150D01*
X6027206Y-9612674D02*
X6046253Y-9603150D01*
X6046253Y-9603150D02*
X6084349Y-9603150D01*
X6084349Y-9603150D02*
X6103396Y-9612674D01*
X6103396Y-9612674D02*
X6112920Y-9622198D01*
X6112920Y-9622198D02*
X6122444Y-9641246D01*
X6122444Y-9641246D02*
X6122444Y-9698389D01*
X6122444Y-9698389D02*
X6112920Y-9717436D01*
X6112920Y-9717436D02*
X6103396Y-9726960D01*
X6103396Y-9726960D02*
X6084349Y-9736484D01*
X6084349Y-9736484D02*
X6046253Y-9736484D01*
X6046253Y-9736484D02*
X6027206Y-9726960D01*
X6236730Y-9736484D02*
X6217682Y-9726960D01*
X6217682Y-9726960D02*
X6208158Y-9707912D01*
X6208158Y-9707912D02*
X6208158Y-9536484D01*
X6398634Y-9736484D02*
X6398634Y-9631722D01*
X6398634Y-9631722D02*
X6389111Y-9612674D01*
X6389111Y-9612674D02*
X6370063Y-9603150D01*
X6370063Y-9603150D02*
X6331968Y-9603150D01*
X6331968Y-9603150D02*
X6312920Y-9612674D01*
X6398634Y-9726960D02*
X6379587Y-9736484D01*
X6379587Y-9736484D02*
X6331968Y-9736484D01*
X6331968Y-9736484D02*
X6312920Y-9726960D01*
X6312920Y-9726960D02*
X6303396Y-9707912D01*
X6303396Y-9707912D02*
X6303396Y-9688865D01*
X6303396Y-9688865D02*
X6312920Y-9669817D01*
X6312920Y-9669817D02*
X6331968Y-9660293D01*
X6331968Y-9660293D02*
X6379587Y-9660293D01*
X6379587Y-9660293D02*
X6398634Y-9650770D01*
X6465301Y-9603150D02*
X6541492Y-9603150D01*
X6493873Y-9536484D02*
X6493873Y-9707912D01*
X6493873Y-9707912D02*
X6503396Y-9726960D01*
X6503396Y-9726960D02*
X6522444Y-9736484D01*
X6522444Y-9736484D02*
X6541492Y-9736484D01*
X6684349Y-9726960D02*
X6665301Y-9736484D01*
X6665301Y-9736484D02*
X6627206Y-9736484D01*
X6627206Y-9736484D02*
X6608158Y-9726960D01*
X6608158Y-9726960D02*
X6598634Y-9707912D01*
X6598634Y-9707912D02*
X6598634Y-9631722D01*
X6598634Y-9631722D02*
X6608158Y-9612674D01*
X6608158Y-9612674D02*
X6627206Y-9603150D01*
X6627206Y-9603150D02*
X6665301Y-9603150D01*
X6665301Y-9603150D02*
X6684349Y-9612674D01*
X6684349Y-9612674D02*
X6693873Y-9631722D01*
X6693873Y-9631722D02*
X6693873Y-9650770D01*
X6693873Y-9650770D02*
X6598634Y-9669817D01*
X6865301Y-9736484D02*
X6865301Y-9536484D01*
X6865301Y-9726960D02*
X6846254Y-9736484D01*
X6846254Y-9736484D02*
X6808158Y-9736484D01*
X6808158Y-9736484D02*
X6789111Y-9726960D01*
X6789111Y-9726960D02*
X6779587Y-9717436D01*
X6779587Y-9717436D02*
X6770063Y-9698389D01*
X6770063Y-9698389D02*
X6770063Y-9641246D01*
X6770063Y-9641246D02*
X6779587Y-9622198D01*
X6779587Y-9622198D02*
X6789111Y-9612674D01*
X6789111Y-9612674D02*
X6808158Y-9603150D01*
X6808158Y-9603150D02*
X6846254Y-9603150D01*
X6846254Y-9603150D02*
X6865301Y-9612674D01*
X6941492Y-9812674D02*
X6951015Y-9803150D01*
X6951015Y-9803150D02*
X6970063Y-9774579D01*
X6970063Y-9774579D02*
X6979587Y-9755531D01*
X6979587Y-9755531D02*
X6989111Y-9726960D01*
X6989111Y-9726960D02*
X6998634Y-9679341D01*
X6998634Y-9679341D02*
X6998634Y-9641246D01*
X6998634Y-9641246D02*
X6989111Y-9593627D01*
X6989111Y-9593627D02*
X6979587Y-9565055D01*
X6979587Y-9565055D02*
X6970063Y-9546008D01*
X6970063Y-9546008D02*
X6951015Y-9517436D01*
X6951015Y-9517436D02*
X6941492Y-9507912D01*
D13*
X-5000Y-9909000D02*
G75*
G02*
X-175000Y-9909000I-85000J0D01*
G01*
X-175000Y-9909000D02*
G75*
G02*
X-5000Y-9909000I85000J0D01*
G01*
D11*
X360539Y-10000484D02*
X246253Y-10000484D01*
X303396Y-10000484D02*
X303396Y-9800484D01*
X303396Y-9800484D02*
X284348Y-9829055D01*
X284348Y-9829055D02*
X265301Y-9848103D01*
X265301Y-9848103D02*
X246253Y-9857627D01*
X446253Y-9981436D02*
X455777Y-9990960D01*
X455777Y-9990960D02*
X446253Y-10000484D01*
X446253Y-10000484D02*
X436729Y-9990960D01*
X436729Y-9990960D02*
X446253Y-9981436D01*
X446253Y-9981436D02*
X446253Y-10000484D01*
X522443Y-9800484D02*
X655777Y-9800484D01*
X655777Y-9800484D02*
X570063Y-10000484D01*
X770062Y-9800484D02*
X789110Y-9800484D01*
X789110Y-9800484D02*
X808158Y-9810008D01*
X808158Y-9810008D02*
X817682Y-9819531D01*
X817682Y-9819531D02*
X827205Y-9838579D01*
X827205Y-9838579D02*
X836729Y-9876674D01*
X836729Y-9876674D02*
X836729Y-9924293D01*
X836729Y-9924293D02*
X827205Y-9962389D01*
X827205Y-9962389D02*
X817682Y-9981436D01*
X817682Y-9981436D02*
X808158Y-9990960D01*
X808158Y-9990960D02*
X789110Y-10000484D01*
X789110Y-10000484D02*
X770062Y-10000484D01*
X770062Y-10000484D02*
X751015Y-9990960D01*
X751015Y-9990960D02*
X741491Y-9981436D01*
X741491Y-9981436D02*
X731967Y-9962389D01*
X731967Y-9962389D02*
X722443Y-9924293D01*
X722443Y-9924293D02*
X722443Y-9876674D01*
X722443Y-9876674D02*
X731967Y-9838579D01*
X731967Y-9838579D02*
X741491Y-9819531D01*
X741491Y-9819531D02*
X751015Y-9810008D01*
X751015Y-9810008D02*
X770062Y-9800484D01*
X960539Y-9800484D02*
X979586Y-9800484D01*
X979586Y-9800484D02*
X998634Y-9810008D01*
X998634Y-9810008D02*
X1008158Y-9819531D01*
X1008158Y-9819531D02*
X1017682Y-9838579D01*
X1017682Y-9838579D02*
X1027205Y-9876674D01*
X1027205Y-9876674D02*
X1027205Y-9924293D01*
X1027205Y-9924293D02*
X1017682Y-9962389D01*
X1017682Y-9962389D02*
X1008158Y-9981436D01*
X1008158Y-9981436D02*
X998634Y-9990960D01*
X998634Y-9990960D02*
X979586Y-10000484D01*
X979586Y-10000484D02*
X960539Y-10000484D01*
X960539Y-10000484D02*
X941491Y-9990960D01*
X941491Y-9990960D02*
X931967Y-9981436D01*
X931967Y-9981436D02*
X922443Y-9962389D01*
X922443Y-9962389D02*
X912920Y-9924293D01*
X912920Y-9924293D02*
X912920Y-9876674D01*
X912920Y-9876674D02*
X922443Y-9838579D01*
X922443Y-9838579D02*
X931967Y-9819531D01*
X931967Y-9819531D02*
X941491Y-9810008D01*
X941491Y-9810008D02*
X960539Y-9800484D01*
X1112920Y-10000484D02*
X1112920Y-9867150D01*
X1112920Y-9886198D02*
X1122444Y-9876674D01*
X1122444Y-9876674D02*
X1141491Y-9867150D01*
X1141491Y-9867150D02*
X1170063Y-9867150D01*
X1170063Y-9867150D02*
X1189110Y-9876674D01*
X1189110Y-9876674D02*
X1198634Y-9895722D01*
X1198634Y-9895722D02*
X1198634Y-10000484D01*
X1198634Y-9895722D02*
X1208158Y-9876674D01*
X1208158Y-9876674D02*
X1227205Y-9867150D01*
X1227205Y-9867150D02*
X1255777Y-9867150D01*
X1255777Y-9867150D02*
X1274825Y-9876674D01*
X1274825Y-9876674D02*
X1284348Y-9895722D01*
X1284348Y-9895722D02*
X1284348Y-10000484D01*
X1379586Y-10000484D02*
X1379586Y-9867150D01*
X1379586Y-9886198D02*
X1389110Y-9876674D01*
X1389110Y-9876674D02*
X1408158Y-9867150D01*
X1408158Y-9867150D02*
X1436729Y-9867150D01*
X1436729Y-9867150D02*
X1455777Y-9876674D01*
X1455777Y-9876674D02*
X1465301Y-9895722D01*
X1465301Y-9895722D02*
X1465301Y-10000484D01*
X1465301Y-9895722D02*
X1474824Y-9876674D01*
X1474824Y-9876674D02*
X1493872Y-9867150D01*
X1493872Y-9867150D02*
X1522443Y-9867150D01*
X1522443Y-9867150D02*
X1541491Y-9876674D01*
X1541491Y-9876674D02*
X1551015Y-9895722D01*
X1551015Y-9895722D02*
X1551015Y-10000484D01*
X1941491Y-9790960D02*
X1770063Y-10048103D01*
X2198634Y-9800484D02*
X2217682Y-9800484D01*
X2217682Y-9800484D02*
X2236729Y-9810008D01*
X2236729Y-9810008D02*
X2246253Y-9819531D01*
X2246253Y-9819531D02*
X2255777Y-9838579D01*
X2255777Y-9838579D02*
X2265301Y-9876674D01*
X2265301Y-9876674D02*
X2265301Y-9924293D01*
X2265301Y-9924293D02*
X2255777Y-9962389D01*
X2255777Y-9962389D02*
X2246253Y-9981436D01*
X2246253Y-9981436D02*
X2236729Y-9990960D01*
X2236729Y-9990960D02*
X2217682Y-10000484D01*
X2217682Y-10000484D02*
X2198634Y-10000484D01*
X2198634Y-10000484D02*
X2179587Y-9990960D01*
X2179587Y-9990960D02*
X2170063Y-9981436D01*
X2170063Y-9981436D02*
X2160539Y-9962389D01*
X2160539Y-9962389D02*
X2151015Y-9924293D01*
X2151015Y-9924293D02*
X2151015Y-9876674D01*
X2151015Y-9876674D02*
X2160539Y-9838579D01*
X2160539Y-9838579D02*
X2170063Y-9819531D01*
X2170063Y-9819531D02*
X2179587Y-9810008D01*
X2179587Y-9810008D02*
X2198634Y-9800484D01*
X2351015Y-9981436D02*
X2360539Y-9990960D01*
X2360539Y-9990960D02*
X2351015Y-10000484D01*
X2351015Y-10000484D02*
X2341491Y-9990960D01*
X2341491Y-9990960D02*
X2351015Y-9981436D01*
X2351015Y-9981436D02*
X2351015Y-10000484D01*
X2484348Y-9800484D02*
X2503396Y-9800484D01*
X2503396Y-9800484D02*
X2522444Y-9810008D01*
X2522444Y-9810008D02*
X2531968Y-9819531D01*
X2531968Y-9819531D02*
X2541491Y-9838579D01*
X2541491Y-9838579D02*
X2551015Y-9876674D01*
X2551015Y-9876674D02*
X2551015Y-9924293D01*
X2551015Y-9924293D02*
X2541491Y-9962389D01*
X2541491Y-9962389D02*
X2531968Y-9981436D01*
X2531968Y-9981436D02*
X2522444Y-9990960D01*
X2522444Y-9990960D02*
X2503396Y-10000484D01*
X2503396Y-10000484D02*
X2484348Y-10000484D01*
X2484348Y-10000484D02*
X2465301Y-9990960D01*
X2465301Y-9990960D02*
X2455777Y-9981436D01*
X2455777Y-9981436D02*
X2446253Y-9962389D01*
X2446253Y-9962389D02*
X2436729Y-9924293D01*
X2436729Y-9924293D02*
X2436729Y-9876674D01*
X2436729Y-9876674D02*
X2446253Y-9838579D01*
X2446253Y-9838579D02*
X2455777Y-9819531D01*
X2455777Y-9819531D02*
X2465301Y-9810008D01*
X2465301Y-9810008D02*
X2484348Y-9800484D01*
X2722444Y-9800484D02*
X2684348Y-9800484D01*
X2684348Y-9800484D02*
X2665301Y-9810008D01*
X2665301Y-9810008D02*
X2655777Y-9819531D01*
X2655777Y-9819531D02*
X2636729Y-9848103D01*
X2636729Y-9848103D02*
X2627206Y-9886198D01*
X2627206Y-9886198D02*
X2627206Y-9962389D01*
X2627206Y-9962389D02*
X2636729Y-9981436D01*
X2636729Y-9981436D02*
X2646253Y-9990960D01*
X2646253Y-9990960D02*
X2665301Y-10000484D01*
X2665301Y-10000484D02*
X2703396Y-10000484D01*
X2703396Y-10000484D02*
X2722444Y-9990960D01*
X2722444Y-9990960D02*
X2731968Y-9981436D01*
X2731968Y-9981436D02*
X2741491Y-9962389D01*
X2741491Y-9962389D02*
X2741491Y-9914770D01*
X2741491Y-9914770D02*
X2731968Y-9895722D01*
X2731968Y-9895722D02*
X2722444Y-9886198D01*
X2722444Y-9886198D02*
X2703396Y-9876674D01*
X2703396Y-9876674D02*
X2665301Y-9876674D01*
X2665301Y-9876674D02*
X2646253Y-9886198D01*
X2646253Y-9886198D02*
X2636729Y-9895722D01*
X2636729Y-9895722D02*
X2627206Y-9914770D01*
X2912920Y-9800484D02*
X2874825Y-9800484D01*
X2874825Y-9800484D02*
X2855777Y-9810008D01*
X2855777Y-9810008D02*
X2846253Y-9819531D01*
X2846253Y-9819531D02*
X2827206Y-9848103D01*
X2827206Y-9848103D02*
X2817682Y-9886198D01*
X2817682Y-9886198D02*
X2817682Y-9962389D01*
X2817682Y-9962389D02*
X2827206Y-9981436D01*
X2827206Y-9981436D02*
X2836729Y-9990960D01*
X2836729Y-9990960D02*
X2855777Y-10000484D01*
X2855777Y-10000484D02*
X2893872Y-10000484D01*
X2893872Y-10000484D02*
X2912920Y-9990960D01*
X2912920Y-9990960D02*
X2922444Y-9981436D01*
X2922444Y-9981436D02*
X2931967Y-9962389D01*
X2931967Y-9962389D02*
X2931967Y-9914770D01*
X2931967Y-9914770D02*
X2922444Y-9895722D01*
X2922444Y-9895722D02*
X2912920Y-9886198D01*
X2912920Y-9886198D02*
X2893872Y-9876674D01*
X2893872Y-9876674D02*
X2855777Y-9876674D01*
X2855777Y-9876674D02*
X2836729Y-9886198D01*
X2836729Y-9886198D02*
X2827206Y-9895722D01*
X2827206Y-9895722D02*
X2817682Y-9914770D01*
X3027206Y-10000484D02*
X3065301Y-10000484D01*
X3065301Y-10000484D02*
X3084348Y-9990960D01*
X3084348Y-9990960D02*
X3093872Y-9981436D01*
X3093872Y-9981436D02*
X3112920Y-9952865D01*
X3112920Y-9952865D02*
X3122444Y-9914770D01*
X3122444Y-9914770D02*
X3122444Y-9838579D01*
X3122444Y-9838579D02*
X3112920Y-9819531D01*
X3112920Y-9819531D02*
X3103396Y-9810008D01*
X3103396Y-9810008D02*
X3084348Y-9800484D01*
X3084348Y-9800484D02*
X3046253Y-9800484D01*
X3046253Y-9800484D02*
X3027206Y-9810008D01*
X3027206Y-9810008D02*
X3017682Y-9819531D01*
X3017682Y-9819531D02*
X3008158Y-9838579D01*
X3008158Y-9838579D02*
X3008158Y-9886198D01*
X3008158Y-9886198D02*
X3017682Y-9905246D01*
X3017682Y-9905246D02*
X3027206Y-9914770D01*
X3027206Y-9914770D02*
X3046253Y-9924293D01*
X3046253Y-9924293D02*
X3084348Y-9924293D01*
X3084348Y-9924293D02*
X3103396Y-9914770D01*
X3103396Y-9914770D02*
X3112920Y-9905246D01*
X3112920Y-9905246D02*
X3122444Y-9886198D01*
X3198634Y-9800484D02*
X3198634Y-9838579D01*
X3274825Y-9800484D02*
X3274825Y-9838579D01*
X3570063Y-10076674D02*
X3560539Y-10067150D01*
X3560539Y-10067150D02*
X3541491Y-10038579D01*
X3541491Y-10038579D02*
X3531968Y-10019531D01*
X3531968Y-10019531D02*
X3522444Y-9990960D01*
X3522444Y-9990960D02*
X3512920Y-9943341D01*
X3512920Y-9943341D02*
X3512920Y-9905246D01*
X3512920Y-9905246D02*
X3522444Y-9857627D01*
X3522444Y-9857627D02*
X3531968Y-9829055D01*
X3531968Y-9829055D02*
X3541491Y-9810008D01*
X3541491Y-9810008D02*
X3560539Y-9781436D01*
X3560539Y-9781436D02*
X3570063Y-9771912D01*
X3636729Y-9819531D02*
X3646253Y-9810008D01*
X3646253Y-9810008D02*
X3665301Y-9800484D01*
X3665301Y-9800484D02*
X3712920Y-9800484D01*
X3712920Y-9800484D02*
X3731968Y-9810008D01*
X3731968Y-9810008D02*
X3741491Y-9819531D01*
X3741491Y-9819531D02*
X3751015Y-9838579D01*
X3751015Y-9838579D02*
X3751015Y-9857627D01*
X3751015Y-9857627D02*
X3741491Y-9886198D01*
X3741491Y-9886198D02*
X3627206Y-10000484D01*
X3627206Y-10000484D02*
X3751015Y-10000484D01*
X3922444Y-9800484D02*
X3884348Y-9800484D01*
X3884348Y-9800484D02*
X3865301Y-9810008D01*
X3865301Y-9810008D02*
X3855777Y-9819531D01*
X3855777Y-9819531D02*
X3836729Y-9848103D01*
X3836729Y-9848103D02*
X3827206Y-9886198D01*
X3827206Y-9886198D02*
X3827206Y-9962389D01*
X3827206Y-9962389D02*
X3836729Y-9981436D01*
X3836729Y-9981436D02*
X3846253Y-9990960D01*
X3846253Y-9990960D02*
X3865301Y-10000484D01*
X3865301Y-10000484D02*
X3903396Y-10000484D01*
X3903396Y-10000484D02*
X3922444Y-9990960D01*
X3922444Y-9990960D02*
X3931968Y-9981436D01*
X3931968Y-9981436D02*
X3941491Y-9962389D01*
X3941491Y-9962389D02*
X3941491Y-9914770D01*
X3941491Y-9914770D02*
X3931968Y-9895722D01*
X3931968Y-9895722D02*
X3922444Y-9886198D01*
X3922444Y-9886198D02*
X3903396Y-9876674D01*
X3903396Y-9876674D02*
X3865301Y-9876674D01*
X3865301Y-9876674D02*
X3846253Y-9886198D01*
X3846253Y-9886198D02*
X3836729Y-9895722D01*
X3836729Y-9895722D02*
X3827206Y-9914770D01*
X4179587Y-10000484D02*
X4179587Y-9800484D01*
X4265301Y-10000484D02*
X4265301Y-9895722D01*
X4265301Y-9895722D02*
X4255777Y-9876674D01*
X4255777Y-9876674D02*
X4236730Y-9867150D01*
X4236730Y-9867150D02*
X4208158Y-9867150D01*
X4208158Y-9867150D02*
X4189110Y-9876674D01*
X4189110Y-9876674D02*
X4179587Y-9886198D01*
X4389111Y-10000484D02*
X4370063Y-9990960D01*
X4370063Y-9990960D02*
X4360539Y-9981436D01*
X4360539Y-9981436D02*
X4351015Y-9962389D01*
X4351015Y-9962389D02*
X4351015Y-9905246D01*
X4351015Y-9905246D02*
X4360539Y-9886198D01*
X4360539Y-9886198D02*
X4370063Y-9876674D01*
X4370063Y-9876674D02*
X4389111Y-9867150D01*
X4389111Y-9867150D02*
X4417682Y-9867150D01*
X4417682Y-9867150D02*
X4436730Y-9876674D01*
X4436730Y-9876674D02*
X4446253Y-9886198D01*
X4446253Y-9886198D02*
X4455777Y-9905246D01*
X4455777Y-9905246D02*
X4455777Y-9962389D01*
X4455777Y-9962389D02*
X4446253Y-9981436D01*
X4446253Y-9981436D02*
X4436730Y-9990960D01*
X4436730Y-9990960D02*
X4417682Y-10000484D01*
X4417682Y-10000484D02*
X4389111Y-10000484D01*
X4570063Y-10000484D02*
X4551015Y-9990960D01*
X4551015Y-9990960D02*
X4541492Y-9971912D01*
X4541492Y-9971912D02*
X4541492Y-9800484D01*
X4722444Y-9990960D02*
X4703396Y-10000484D01*
X4703396Y-10000484D02*
X4665301Y-10000484D01*
X4665301Y-10000484D02*
X4646253Y-9990960D01*
X4646253Y-9990960D02*
X4636730Y-9971912D01*
X4636730Y-9971912D02*
X4636730Y-9895722D01*
X4636730Y-9895722D02*
X4646253Y-9876674D01*
X4646253Y-9876674D02*
X4665301Y-9867150D01*
X4665301Y-9867150D02*
X4703396Y-9867150D01*
X4703396Y-9867150D02*
X4722444Y-9876674D01*
X4722444Y-9876674D02*
X4731968Y-9895722D01*
X4731968Y-9895722D02*
X4731968Y-9914770D01*
X4731968Y-9914770D02*
X4636730Y-9933817D01*
X4808158Y-9990960D02*
X4827206Y-10000484D01*
X4827206Y-10000484D02*
X4865301Y-10000484D01*
X4865301Y-10000484D02*
X4884349Y-9990960D01*
X4884349Y-9990960D02*
X4893873Y-9971912D01*
X4893873Y-9971912D02*
X4893873Y-9962389D01*
X4893873Y-9962389D02*
X4884349Y-9943341D01*
X4884349Y-9943341D02*
X4865301Y-9933817D01*
X4865301Y-9933817D02*
X4836730Y-9933817D01*
X4836730Y-9933817D02*
X4817682Y-9924293D01*
X4817682Y-9924293D02*
X4808158Y-9905246D01*
X4808158Y-9905246D02*
X4808158Y-9895722D01*
X4808158Y-9895722D02*
X4817682Y-9876674D01*
X4817682Y-9876674D02*
X4836730Y-9867150D01*
X4836730Y-9867150D02*
X4865301Y-9867150D01*
X4865301Y-9867150D02*
X4884349Y-9876674D01*
X4960539Y-10076674D02*
X4970063Y-10067150D01*
X4970063Y-10067150D02*
X4989111Y-10038579D01*
X4989111Y-10038579D02*
X4998634Y-10019531D01*
X4998634Y-10019531D02*
X5008158Y-9990960D01*
X5008158Y-9990960D02*
X5017682Y-9943341D01*
X5017682Y-9943341D02*
X5017682Y-9905246D01*
X5017682Y-9905246D02*
X5008158Y-9857627D01*
X5008158Y-9857627D02*
X4998634Y-9829055D01*
X4998634Y-9829055D02*
X4989111Y-9810008D01*
X4989111Y-9810008D02*
X4970063Y-9781436D01*
X4970063Y-9781436D02*
X4960539Y-9771912D01*
X5322444Y-10076674D02*
X5312920Y-10067150D01*
X5312920Y-10067150D02*
X5293873Y-10038579D01*
X5293873Y-10038579D02*
X5284349Y-10019531D01*
X5284349Y-10019531D02*
X5274825Y-9990960D01*
X5274825Y-9990960D02*
X5265301Y-9943341D01*
X5265301Y-9943341D02*
X5265301Y-9905246D01*
X5265301Y-9905246D02*
X5274825Y-9857627D01*
X5274825Y-9857627D02*
X5284349Y-9829055D01*
X5284349Y-9829055D02*
X5293873Y-9810008D01*
X5293873Y-9810008D02*
X5312920Y-9781436D01*
X5312920Y-9781436D02*
X5322444Y-9771912D01*
X5398634Y-9867150D02*
X5398634Y-10000484D01*
X5398634Y-9886198D02*
X5408158Y-9876674D01*
X5408158Y-9876674D02*
X5427206Y-9867150D01*
X5427206Y-9867150D02*
X5455777Y-9867150D01*
X5455777Y-9867150D02*
X5474825Y-9876674D01*
X5474825Y-9876674D02*
X5484349Y-9895722D01*
X5484349Y-9895722D02*
X5484349Y-10000484D01*
X5608158Y-10000484D02*
X5589111Y-9990960D01*
X5589111Y-9990960D02*
X5579587Y-9981436D01*
X5579587Y-9981436D02*
X5570063Y-9962389D01*
X5570063Y-9962389D02*
X5570063Y-9905246D01*
X5570063Y-9905246D02*
X5579587Y-9886198D01*
X5579587Y-9886198D02*
X5589111Y-9876674D01*
X5589111Y-9876674D02*
X5608158Y-9867150D01*
X5608158Y-9867150D02*
X5636730Y-9867150D01*
X5636730Y-9867150D02*
X5655777Y-9876674D01*
X5655777Y-9876674D02*
X5665301Y-9886198D01*
X5665301Y-9886198D02*
X5674825Y-9905246D01*
X5674825Y-9905246D02*
X5674825Y-9962389D01*
X5674825Y-9962389D02*
X5665301Y-9981436D01*
X5665301Y-9981436D02*
X5655777Y-9990960D01*
X5655777Y-9990960D02*
X5636730Y-10000484D01*
X5636730Y-10000484D02*
X5608158Y-10000484D01*
X5731968Y-9867150D02*
X5808158Y-9867150D01*
X5760539Y-9800484D02*
X5760539Y-9971912D01*
X5760539Y-9971912D02*
X5770063Y-9990960D01*
X5770063Y-9990960D02*
X5789111Y-10000484D01*
X5789111Y-10000484D02*
X5808158Y-10000484D01*
X6027206Y-9867150D02*
X6027206Y-10067150D01*
X6027206Y-9876674D02*
X6046253Y-9867150D01*
X6046253Y-9867150D02*
X6084349Y-9867150D01*
X6084349Y-9867150D02*
X6103396Y-9876674D01*
X6103396Y-9876674D02*
X6112920Y-9886198D01*
X6112920Y-9886198D02*
X6122444Y-9905246D01*
X6122444Y-9905246D02*
X6122444Y-9962389D01*
X6122444Y-9962389D02*
X6112920Y-9981436D01*
X6112920Y-9981436D02*
X6103396Y-9990960D01*
X6103396Y-9990960D02*
X6084349Y-10000484D01*
X6084349Y-10000484D02*
X6046253Y-10000484D01*
X6046253Y-10000484D02*
X6027206Y-9990960D01*
X6236730Y-10000484D02*
X6217682Y-9990960D01*
X6217682Y-9990960D02*
X6208158Y-9971912D01*
X6208158Y-9971912D02*
X6208158Y-9800484D01*
X6398634Y-10000484D02*
X6398634Y-9895722D01*
X6398634Y-9895722D02*
X6389111Y-9876674D01*
X6389111Y-9876674D02*
X6370063Y-9867150D01*
X6370063Y-9867150D02*
X6331968Y-9867150D01*
X6331968Y-9867150D02*
X6312920Y-9876674D01*
X6398634Y-9990960D02*
X6379587Y-10000484D01*
X6379587Y-10000484D02*
X6331968Y-10000484D01*
X6331968Y-10000484D02*
X6312920Y-9990960D01*
X6312920Y-9990960D02*
X6303396Y-9971912D01*
X6303396Y-9971912D02*
X6303396Y-9952865D01*
X6303396Y-9952865D02*
X6312920Y-9933817D01*
X6312920Y-9933817D02*
X6331968Y-9924293D01*
X6331968Y-9924293D02*
X6379587Y-9924293D01*
X6379587Y-9924293D02*
X6398634Y-9914770D01*
X6465301Y-9867150D02*
X6541492Y-9867150D01*
X6493873Y-9800484D02*
X6493873Y-9971912D01*
X6493873Y-9971912D02*
X6503396Y-9990960D01*
X6503396Y-9990960D02*
X6522444Y-10000484D01*
X6522444Y-10000484D02*
X6541492Y-10000484D01*
X6684349Y-9990960D02*
X6665301Y-10000484D01*
X6665301Y-10000484D02*
X6627206Y-10000484D01*
X6627206Y-10000484D02*
X6608158Y-9990960D01*
X6608158Y-9990960D02*
X6598634Y-9971912D01*
X6598634Y-9971912D02*
X6598634Y-9895722D01*
X6598634Y-9895722D02*
X6608158Y-9876674D01*
X6608158Y-9876674D02*
X6627206Y-9867150D01*
X6627206Y-9867150D02*
X6665301Y-9867150D01*
X6665301Y-9867150D02*
X6684349Y-9876674D01*
X6684349Y-9876674D02*
X6693873Y-9895722D01*
X6693873Y-9895722D02*
X6693873Y-9914770D01*
X6693873Y-9914770D02*
X6598634Y-9933817D01*
X6865301Y-10000484D02*
X6865301Y-9800484D01*
X6865301Y-9990960D02*
X6846254Y-10000484D01*
X6846254Y-10000484D02*
X6808158Y-10000484D01*
X6808158Y-10000484D02*
X6789111Y-9990960D01*
X6789111Y-9990960D02*
X6779587Y-9981436D01*
X6779587Y-9981436D02*
X6770063Y-9962389D01*
X6770063Y-9962389D02*
X6770063Y-9905246D01*
X6770063Y-9905246D02*
X6779587Y-9886198D01*
X6779587Y-9886198D02*
X6789111Y-9876674D01*
X6789111Y-9876674D02*
X6808158Y-9867150D01*
X6808158Y-9867150D02*
X6846254Y-9867150D01*
X6846254Y-9867150D02*
X6865301Y-9876674D01*
X6941492Y-10076674D02*
X6951015Y-10067150D01*
X6951015Y-10067150D02*
X6970063Y-10038579D01*
X6970063Y-10038579D02*
X6979587Y-10019531D01*
X6979587Y-10019531D02*
X6989111Y-9990960D01*
X6989111Y-9990960D02*
X6998634Y-9943341D01*
X6998634Y-9943341D02*
X6998634Y-9905246D01*
X6998634Y-9905246D02*
X6989111Y-9857627D01*
X6989111Y-9857627D02*
X6979587Y-9829055D01*
X6979587Y-9829055D02*
X6970063Y-9810008D01*
X6970063Y-9810008D02*
X6951015Y-9781436D01*
X6951015Y-9781436D02*
X6941492Y-9771912D01*
X-105000Y-10099000D02*
X-105000Y-10299000D01*
X-205000Y-10199000D02*
X-5000Y-10199000D01*
X246253Y-10109531D02*
X255777Y-10100008D01*
X255777Y-10100008D02*
X274824Y-10090484D01*
X274824Y-10090484D02*
X322444Y-10090484D01*
X322444Y-10090484D02*
X341491Y-10100008D01*
X341491Y-10100008D02*
X351015Y-10109531D01*
X351015Y-10109531D02*
X360539Y-10128579D01*
X360539Y-10128579D02*
X360539Y-10147627D01*
X360539Y-10147627D02*
X351015Y-10176198D01*
X351015Y-10176198D02*
X236729Y-10290484D01*
X236729Y-10290484D02*
X360539Y-10290484D01*
X446253Y-10271436D02*
X455777Y-10280960D01*
X455777Y-10280960D02*
X446253Y-10290484D01*
X446253Y-10290484D02*
X436729Y-10280960D01*
X436729Y-10280960D02*
X446253Y-10271436D01*
X446253Y-10271436D02*
X446253Y-10290484D01*
X522443Y-10090484D02*
X655777Y-10090484D01*
X655777Y-10090484D02*
X570063Y-10290484D01*
X770062Y-10090484D02*
X789110Y-10090484D01*
X789110Y-10090484D02*
X808158Y-10100008D01*
X808158Y-10100008D02*
X817682Y-10109531D01*
X817682Y-10109531D02*
X827205Y-10128579D01*
X827205Y-10128579D02*
X836729Y-10166674D01*
X836729Y-10166674D02*
X836729Y-10214293D01*
X836729Y-10214293D02*
X827205Y-10252389D01*
X827205Y-10252389D02*
X817682Y-10271436D01*
X817682Y-10271436D02*
X808158Y-10280960D01*
X808158Y-10280960D02*
X789110Y-10290484D01*
X789110Y-10290484D02*
X770062Y-10290484D01*
X770062Y-10290484D02*
X751015Y-10280960D01*
X751015Y-10280960D02*
X741491Y-10271436D01*
X741491Y-10271436D02*
X731967Y-10252389D01*
X731967Y-10252389D02*
X722443Y-10214293D01*
X722443Y-10214293D02*
X722443Y-10166674D01*
X722443Y-10166674D02*
X731967Y-10128579D01*
X731967Y-10128579D02*
X741491Y-10109531D01*
X741491Y-10109531D02*
X751015Y-10100008D01*
X751015Y-10100008D02*
X770062Y-10090484D01*
X960539Y-10090484D02*
X979586Y-10090484D01*
X979586Y-10090484D02*
X998634Y-10100008D01*
X998634Y-10100008D02*
X1008158Y-10109531D01*
X1008158Y-10109531D02*
X1017682Y-10128579D01*
X1017682Y-10128579D02*
X1027205Y-10166674D01*
X1027205Y-10166674D02*
X1027205Y-10214293D01*
X1027205Y-10214293D02*
X1017682Y-10252389D01*
X1017682Y-10252389D02*
X1008158Y-10271436D01*
X1008158Y-10271436D02*
X998634Y-10280960D01*
X998634Y-10280960D02*
X979586Y-10290484D01*
X979586Y-10290484D02*
X960539Y-10290484D01*
X960539Y-10290484D02*
X941491Y-10280960D01*
X941491Y-10280960D02*
X931967Y-10271436D01*
X931967Y-10271436D02*
X922443Y-10252389D01*
X922443Y-10252389D02*
X912920Y-10214293D01*
X912920Y-10214293D02*
X912920Y-10166674D01*
X912920Y-10166674D02*
X922443Y-10128579D01*
X922443Y-10128579D02*
X931967Y-10109531D01*
X931967Y-10109531D02*
X941491Y-10100008D01*
X941491Y-10100008D02*
X960539Y-10090484D01*
X1112920Y-10290484D02*
X1112920Y-10157150D01*
X1112920Y-10176198D02*
X1122444Y-10166674D01*
X1122444Y-10166674D02*
X1141491Y-10157150D01*
X1141491Y-10157150D02*
X1170063Y-10157150D01*
X1170063Y-10157150D02*
X1189110Y-10166674D01*
X1189110Y-10166674D02*
X1198634Y-10185722D01*
X1198634Y-10185722D02*
X1198634Y-10290484D01*
X1198634Y-10185722D02*
X1208158Y-10166674D01*
X1208158Y-10166674D02*
X1227205Y-10157150D01*
X1227205Y-10157150D02*
X1255777Y-10157150D01*
X1255777Y-10157150D02*
X1274825Y-10166674D01*
X1274825Y-10166674D02*
X1284348Y-10185722D01*
X1284348Y-10185722D02*
X1284348Y-10290484D01*
X1379586Y-10290484D02*
X1379586Y-10157150D01*
X1379586Y-10176198D02*
X1389110Y-10166674D01*
X1389110Y-10166674D02*
X1408158Y-10157150D01*
X1408158Y-10157150D02*
X1436729Y-10157150D01*
X1436729Y-10157150D02*
X1455777Y-10166674D01*
X1455777Y-10166674D02*
X1465301Y-10185722D01*
X1465301Y-10185722D02*
X1465301Y-10290484D01*
X1465301Y-10185722D02*
X1474824Y-10166674D01*
X1474824Y-10166674D02*
X1493872Y-10157150D01*
X1493872Y-10157150D02*
X1522443Y-10157150D01*
X1522443Y-10157150D02*
X1541491Y-10166674D01*
X1541491Y-10166674D02*
X1551015Y-10185722D01*
X1551015Y-10185722D02*
X1551015Y-10290484D01*
X1941491Y-10080960D02*
X1770063Y-10338103D01*
X2198634Y-10090484D02*
X2217682Y-10090484D01*
X2217682Y-10090484D02*
X2236729Y-10100008D01*
X2236729Y-10100008D02*
X2246253Y-10109531D01*
X2246253Y-10109531D02*
X2255777Y-10128579D01*
X2255777Y-10128579D02*
X2265301Y-10166674D01*
X2265301Y-10166674D02*
X2265301Y-10214293D01*
X2265301Y-10214293D02*
X2255777Y-10252389D01*
X2255777Y-10252389D02*
X2246253Y-10271436D01*
X2246253Y-10271436D02*
X2236729Y-10280960D01*
X2236729Y-10280960D02*
X2217682Y-10290484D01*
X2217682Y-10290484D02*
X2198634Y-10290484D01*
X2198634Y-10290484D02*
X2179587Y-10280960D01*
X2179587Y-10280960D02*
X2170063Y-10271436D01*
X2170063Y-10271436D02*
X2160539Y-10252389D01*
X2160539Y-10252389D02*
X2151015Y-10214293D01*
X2151015Y-10214293D02*
X2151015Y-10166674D01*
X2151015Y-10166674D02*
X2160539Y-10128579D01*
X2160539Y-10128579D02*
X2170063Y-10109531D01*
X2170063Y-10109531D02*
X2179587Y-10100008D01*
X2179587Y-10100008D02*
X2198634Y-10090484D01*
X2351015Y-10271436D02*
X2360539Y-10280960D01*
X2360539Y-10280960D02*
X2351015Y-10290484D01*
X2351015Y-10290484D02*
X2341491Y-10280960D01*
X2341491Y-10280960D02*
X2351015Y-10271436D01*
X2351015Y-10271436D02*
X2351015Y-10290484D01*
X2551015Y-10290484D02*
X2436729Y-10290484D01*
X2493872Y-10290484D02*
X2493872Y-10090484D01*
X2493872Y-10090484D02*
X2474825Y-10119055D01*
X2474825Y-10119055D02*
X2455777Y-10138103D01*
X2455777Y-10138103D02*
X2436729Y-10147627D01*
X2674825Y-10090484D02*
X2693872Y-10090484D01*
X2693872Y-10090484D02*
X2712920Y-10100008D01*
X2712920Y-10100008D02*
X2722444Y-10109531D01*
X2722444Y-10109531D02*
X2731968Y-10128579D01*
X2731968Y-10128579D02*
X2741491Y-10166674D01*
X2741491Y-10166674D02*
X2741491Y-10214293D01*
X2741491Y-10214293D02*
X2731968Y-10252389D01*
X2731968Y-10252389D02*
X2722444Y-10271436D01*
X2722444Y-10271436D02*
X2712920Y-10280960D01*
X2712920Y-10280960D02*
X2693872Y-10290484D01*
X2693872Y-10290484D02*
X2674825Y-10290484D01*
X2674825Y-10290484D02*
X2655777Y-10280960D01*
X2655777Y-10280960D02*
X2646253Y-10271436D01*
X2646253Y-10271436D02*
X2636729Y-10252389D01*
X2636729Y-10252389D02*
X2627206Y-10214293D01*
X2627206Y-10214293D02*
X2627206Y-10166674D01*
X2627206Y-10166674D02*
X2636729Y-10128579D01*
X2636729Y-10128579D02*
X2646253Y-10109531D01*
X2646253Y-10109531D02*
X2655777Y-10100008D01*
X2655777Y-10100008D02*
X2674825Y-10090484D01*
X2912920Y-10090484D02*
X2874825Y-10090484D01*
X2874825Y-10090484D02*
X2855777Y-10100008D01*
X2855777Y-10100008D02*
X2846253Y-10109531D01*
X2846253Y-10109531D02*
X2827206Y-10138103D01*
X2827206Y-10138103D02*
X2817682Y-10176198D01*
X2817682Y-10176198D02*
X2817682Y-10252389D01*
X2817682Y-10252389D02*
X2827206Y-10271436D01*
X2827206Y-10271436D02*
X2836729Y-10280960D01*
X2836729Y-10280960D02*
X2855777Y-10290484D01*
X2855777Y-10290484D02*
X2893872Y-10290484D01*
X2893872Y-10290484D02*
X2912920Y-10280960D01*
X2912920Y-10280960D02*
X2922444Y-10271436D01*
X2922444Y-10271436D02*
X2931967Y-10252389D01*
X2931967Y-10252389D02*
X2931967Y-10204770D01*
X2931967Y-10204770D02*
X2922444Y-10185722D01*
X2922444Y-10185722D02*
X2912920Y-10176198D01*
X2912920Y-10176198D02*
X2893872Y-10166674D01*
X2893872Y-10166674D02*
X2855777Y-10166674D01*
X2855777Y-10166674D02*
X2836729Y-10176198D01*
X2836729Y-10176198D02*
X2827206Y-10185722D01*
X2827206Y-10185722D02*
X2817682Y-10204770D01*
X2998634Y-10090484D02*
X3122444Y-10090484D01*
X3122444Y-10090484D02*
X3055777Y-10166674D01*
X3055777Y-10166674D02*
X3084348Y-10166674D01*
X3084348Y-10166674D02*
X3103396Y-10176198D01*
X3103396Y-10176198D02*
X3112920Y-10185722D01*
X3112920Y-10185722D02*
X3122444Y-10204770D01*
X3122444Y-10204770D02*
X3122444Y-10252389D01*
X3122444Y-10252389D02*
X3112920Y-10271436D01*
X3112920Y-10271436D02*
X3103396Y-10280960D01*
X3103396Y-10280960D02*
X3084348Y-10290484D01*
X3084348Y-10290484D02*
X3027206Y-10290484D01*
X3027206Y-10290484D02*
X3008158Y-10280960D01*
X3008158Y-10280960D02*
X2998634Y-10271436D01*
X3198634Y-10090484D02*
X3198634Y-10128579D01*
X3274825Y-10090484D02*
X3274825Y-10128579D01*
X3570063Y-10366674D02*
X3560539Y-10357150D01*
X3560539Y-10357150D02*
X3541491Y-10328579D01*
X3541491Y-10328579D02*
X3531968Y-10309531D01*
X3531968Y-10309531D02*
X3522444Y-10280960D01*
X3522444Y-10280960D02*
X3512920Y-10233341D01*
X3512920Y-10233341D02*
X3512920Y-10195246D01*
X3512920Y-10195246D02*
X3522444Y-10147627D01*
X3522444Y-10147627D02*
X3531968Y-10119055D01*
X3531968Y-10119055D02*
X3541491Y-10100008D01*
X3541491Y-10100008D02*
X3560539Y-10071436D01*
X3560539Y-10071436D02*
X3570063Y-10061912D01*
X3731968Y-10157150D02*
X3731968Y-10290484D01*
X3684348Y-10080960D02*
X3636729Y-10223817D01*
X3636729Y-10223817D02*
X3760539Y-10223817D01*
X3989110Y-10290484D02*
X3989110Y-10090484D01*
X4074825Y-10290484D02*
X4074825Y-10185722D01*
X4074825Y-10185722D02*
X4065301Y-10166674D01*
X4065301Y-10166674D02*
X4046253Y-10157150D01*
X4046253Y-10157150D02*
X4017682Y-10157150D01*
X4017682Y-10157150D02*
X3998634Y-10166674D01*
X3998634Y-10166674D02*
X3989110Y-10176198D01*
X4198634Y-10290484D02*
X4179587Y-10280960D01*
X4179587Y-10280960D02*
X4170063Y-10271436D01*
X4170063Y-10271436D02*
X4160539Y-10252389D01*
X4160539Y-10252389D02*
X4160539Y-10195246D01*
X4160539Y-10195246D02*
X4170063Y-10176198D01*
X4170063Y-10176198D02*
X4179587Y-10166674D01*
X4179587Y-10166674D02*
X4198634Y-10157150D01*
X4198634Y-10157150D02*
X4227206Y-10157150D01*
X4227206Y-10157150D02*
X4246253Y-10166674D01*
X4246253Y-10166674D02*
X4255777Y-10176198D01*
X4255777Y-10176198D02*
X4265301Y-10195246D01*
X4265301Y-10195246D02*
X4265301Y-10252389D01*
X4265301Y-10252389D02*
X4255777Y-10271436D01*
X4255777Y-10271436D02*
X4246253Y-10280960D01*
X4246253Y-10280960D02*
X4227206Y-10290484D01*
X4227206Y-10290484D02*
X4198634Y-10290484D01*
X4379587Y-10290484D02*
X4360539Y-10280960D01*
X4360539Y-10280960D02*
X4351015Y-10261912D01*
X4351015Y-10261912D02*
X4351015Y-10090484D01*
X4531968Y-10280960D02*
X4512920Y-10290484D01*
X4512920Y-10290484D02*
X4474825Y-10290484D01*
X4474825Y-10290484D02*
X4455777Y-10280960D01*
X4455777Y-10280960D02*
X4446253Y-10261912D01*
X4446253Y-10261912D02*
X4446253Y-10185722D01*
X4446253Y-10185722D02*
X4455777Y-10166674D01*
X4455777Y-10166674D02*
X4474825Y-10157150D01*
X4474825Y-10157150D02*
X4512920Y-10157150D01*
X4512920Y-10157150D02*
X4531968Y-10166674D01*
X4531968Y-10166674D02*
X4541492Y-10185722D01*
X4541492Y-10185722D02*
X4541492Y-10204770D01*
X4541492Y-10204770D02*
X4446253Y-10223817D01*
X4617682Y-10280960D02*
X4636730Y-10290484D01*
X4636730Y-10290484D02*
X4674825Y-10290484D01*
X4674825Y-10290484D02*
X4693873Y-10280960D01*
X4693873Y-10280960D02*
X4703396Y-10261912D01*
X4703396Y-10261912D02*
X4703396Y-10252389D01*
X4703396Y-10252389D02*
X4693873Y-10233341D01*
X4693873Y-10233341D02*
X4674825Y-10223817D01*
X4674825Y-10223817D02*
X4646253Y-10223817D01*
X4646253Y-10223817D02*
X4627206Y-10214293D01*
X4627206Y-10214293D02*
X4617682Y-10195246D01*
X4617682Y-10195246D02*
X4617682Y-10185722D01*
X4617682Y-10185722D02*
X4627206Y-10166674D01*
X4627206Y-10166674D02*
X4646253Y-10157150D01*
X4646253Y-10157150D02*
X4674825Y-10157150D01*
X4674825Y-10157150D02*
X4693873Y-10166674D01*
X4770063Y-10366674D02*
X4779587Y-10357150D01*
X4779587Y-10357150D02*
X4798634Y-10328579D01*
X4798634Y-10328579D02*
X4808158Y-10309531D01*
X4808158Y-10309531D02*
X4817682Y-10280960D01*
X4817682Y-10280960D02*
X4827206Y-10233341D01*
X4827206Y-10233341D02*
X4827206Y-10195246D01*
X4827206Y-10195246D02*
X4817682Y-10147627D01*
X4817682Y-10147627D02*
X4808158Y-10119055D01*
X4808158Y-10119055D02*
X4798634Y-10100008D01*
X4798634Y-10100008D02*
X4779587Y-10071436D01*
X4779587Y-10071436D02*
X4770063Y-10061912D01*
X5131968Y-10366674D02*
X5122444Y-10357150D01*
X5122444Y-10357150D02*
X5103396Y-10328579D01*
X5103396Y-10328579D02*
X5093873Y-10309531D01*
X5093873Y-10309531D02*
X5084349Y-10280960D01*
X5084349Y-10280960D02*
X5074825Y-10233341D01*
X5074825Y-10233341D02*
X5074825Y-10195246D01*
X5074825Y-10195246D02*
X5084349Y-10147627D01*
X5084349Y-10147627D02*
X5093873Y-10119055D01*
X5093873Y-10119055D02*
X5103396Y-10100008D01*
X5103396Y-10100008D02*
X5122444Y-10071436D01*
X5122444Y-10071436D02*
X5131968Y-10061912D01*
X5208158Y-10157150D02*
X5208158Y-10290484D01*
X5208158Y-10176198D02*
X5217682Y-10166674D01*
X5217682Y-10166674D02*
X5236730Y-10157150D01*
X5236730Y-10157150D02*
X5265301Y-10157150D01*
X5265301Y-10157150D02*
X5284349Y-10166674D01*
X5284349Y-10166674D02*
X5293873Y-10185722D01*
X5293873Y-10185722D02*
X5293873Y-10290484D01*
X5417682Y-10290484D02*
X5398634Y-10280960D01*
X5398634Y-10280960D02*
X5389111Y-10271436D01*
X5389111Y-10271436D02*
X5379587Y-10252389D01*
X5379587Y-10252389D02*
X5379587Y-10195246D01*
X5379587Y-10195246D02*
X5389111Y-10176198D01*
X5389111Y-10176198D02*
X5398634Y-10166674D01*
X5398634Y-10166674D02*
X5417682Y-10157150D01*
X5417682Y-10157150D02*
X5446254Y-10157150D01*
X5446254Y-10157150D02*
X5465301Y-10166674D01*
X5465301Y-10166674D02*
X5474825Y-10176198D01*
X5474825Y-10176198D02*
X5484349Y-10195246D01*
X5484349Y-10195246D02*
X5484349Y-10252389D01*
X5484349Y-10252389D02*
X5474825Y-10271436D01*
X5474825Y-10271436D02*
X5465301Y-10280960D01*
X5465301Y-10280960D02*
X5446254Y-10290484D01*
X5446254Y-10290484D02*
X5417682Y-10290484D01*
X5541492Y-10157150D02*
X5617682Y-10157150D01*
X5570063Y-10090484D02*
X5570063Y-10261912D01*
X5570063Y-10261912D02*
X5579587Y-10280960D01*
X5579587Y-10280960D02*
X5598634Y-10290484D01*
X5598634Y-10290484D02*
X5617682Y-10290484D01*
X5836730Y-10157150D02*
X5836730Y-10357150D01*
X5836730Y-10166674D02*
X5855777Y-10157150D01*
X5855777Y-10157150D02*
X5893873Y-10157150D01*
X5893873Y-10157150D02*
X5912920Y-10166674D01*
X5912920Y-10166674D02*
X5922444Y-10176198D01*
X5922444Y-10176198D02*
X5931968Y-10195246D01*
X5931968Y-10195246D02*
X5931968Y-10252389D01*
X5931968Y-10252389D02*
X5922444Y-10271436D01*
X5922444Y-10271436D02*
X5912920Y-10280960D01*
X5912920Y-10280960D02*
X5893873Y-10290484D01*
X5893873Y-10290484D02*
X5855777Y-10290484D01*
X5855777Y-10290484D02*
X5836730Y-10280960D01*
X6046253Y-10290484D02*
X6027206Y-10280960D01*
X6027206Y-10280960D02*
X6017682Y-10261912D01*
X6017682Y-10261912D02*
X6017682Y-10090484D01*
X6208158Y-10290484D02*
X6208158Y-10185722D01*
X6208158Y-10185722D02*
X6198634Y-10166674D01*
X6198634Y-10166674D02*
X6179587Y-10157150D01*
X6179587Y-10157150D02*
X6141492Y-10157150D01*
X6141492Y-10157150D02*
X6122444Y-10166674D01*
X6208158Y-10280960D02*
X6189111Y-10290484D01*
X6189111Y-10290484D02*
X6141492Y-10290484D01*
X6141492Y-10290484D02*
X6122444Y-10280960D01*
X6122444Y-10280960D02*
X6112920Y-10261912D01*
X6112920Y-10261912D02*
X6112920Y-10242865D01*
X6112920Y-10242865D02*
X6122444Y-10223817D01*
X6122444Y-10223817D02*
X6141492Y-10214293D01*
X6141492Y-10214293D02*
X6189111Y-10214293D01*
X6189111Y-10214293D02*
X6208158Y-10204770D01*
X6274825Y-10157150D02*
X6351015Y-10157150D01*
X6303396Y-10090484D02*
X6303396Y-10261912D01*
X6303396Y-10261912D02*
X6312920Y-10280960D01*
X6312920Y-10280960D02*
X6331968Y-10290484D01*
X6331968Y-10290484D02*
X6351015Y-10290484D01*
X6493873Y-10280960D02*
X6474825Y-10290484D01*
X6474825Y-10290484D02*
X6436730Y-10290484D01*
X6436730Y-10290484D02*
X6417682Y-10280960D01*
X6417682Y-10280960D02*
X6408158Y-10261912D01*
X6408158Y-10261912D02*
X6408158Y-10185722D01*
X6408158Y-10185722D02*
X6417682Y-10166674D01*
X6417682Y-10166674D02*
X6436730Y-10157150D01*
X6436730Y-10157150D02*
X6474825Y-10157150D01*
X6474825Y-10157150D02*
X6493873Y-10166674D01*
X6493873Y-10166674D02*
X6503396Y-10185722D01*
X6503396Y-10185722D02*
X6503396Y-10204770D01*
X6503396Y-10204770D02*
X6408158Y-10223817D01*
X6674825Y-10290484D02*
X6674825Y-10090484D01*
X6674825Y-10280960D02*
X6655777Y-10290484D01*
X6655777Y-10290484D02*
X6617682Y-10290484D01*
X6617682Y-10290484D02*
X6598634Y-10280960D01*
X6598634Y-10280960D02*
X6589111Y-10271436D01*
X6589111Y-10271436D02*
X6579587Y-10252389D01*
X6579587Y-10252389D02*
X6579587Y-10195246D01*
X6579587Y-10195246D02*
X6589111Y-10176198D01*
X6589111Y-10176198D02*
X6598634Y-10166674D01*
X6598634Y-10166674D02*
X6617682Y-10157150D01*
X6617682Y-10157150D02*
X6655777Y-10157150D01*
X6655777Y-10157150D02*
X6674825Y-10166674D01*
X6751015Y-10366674D02*
X6760539Y-10357150D01*
X6760539Y-10357150D02*
X6779587Y-10328579D01*
X6779587Y-10328579D02*
X6789111Y-10309531D01*
X6789111Y-10309531D02*
X6798634Y-10280960D01*
X6798634Y-10280960D02*
X6808158Y-10233341D01*
X6808158Y-10233341D02*
X6808158Y-10195246D01*
X6808158Y-10195246D02*
X6798634Y-10147627D01*
X6798634Y-10147627D02*
X6789111Y-10119055D01*
X6789111Y-10119055D02*
X6779587Y-10100008D01*
X6779587Y-10100008D02*
X6760539Y-10071436D01*
X6760539Y-10071436D02*
X6751015Y-10061912D01*
X-34289Y-10589711D02*
X-34289Y-10448289D01*
X-175711Y-10448289D01*
X-175711Y-10589711D01*
X-34289Y-10589711D01*
X236729Y-10410484D02*
X360539Y-10410484D01*
X360539Y-10410484D02*
X293872Y-10486674D01*
X293872Y-10486674D02*
X322444Y-10486674D01*
X322444Y-10486674D02*
X341491Y-10496198D01*
X341491Y-10496198D02*
X351015Y-10505722D01*
X351015Y-10505722D02*
X360539Y-10524770D01*
X360539Y-10524770D02*
X360539Y-10572389D01*
X360539Y-10572389D02*
X351015Y-10591436D01*
X351015Y-10591436D02*
X341491Y-10600960D01*
X341491Y-10600960D02*
X322444Y-10610484D01*
X322444Y-10610484D02*
X265301Y-10610484D01*
X265301Y-10610484D02*
X246253Y-10600960D01*
X246253Y-10600960D02*
X236729Y-10591436D01*
X446253Y-10591436D02*
X455777Y-10600960D01*
X455777Y-10600960D02*
X446253Y-10610484D01*
X446253Y-10610484D02*
X436729Y-10600960D01*
X436729Y-10600960D02*
X446253Y-10591436D01*
X446253Y-10591436D02*
X446253Y-10610484D01*
X579586Y-10410484D02*
X598634Y-10410484D01*
X598634Y-10410484D02*
X617682Y-10420008D01*
X617682Y-10420008D02*
X627205Y-10429531D01*
X627205Y-10429531D02*
X636729Y-10448579D01*
X636729Y-10448579D02*
X646253Y-10486674D01*
X646253Y-10486674D02*
X646253Y-10534293D01*
X646253Y-10534293D02*
X636729Y-10572389D01*
X636729Y-10572389D02*
X627205Y-10591436D01*
X627205Y-10591436D02*
X617682Y-10600960D01*
X617682Y-10600960D02*
X598634Y-10610484D01*
X598634Y-10610484D02*
X579586Y-10610484D01*
X579586Y-10610484D02*
X560539Y-10600960D01*
X560539Y-10600960D02*
X551015Y-10591436D01*
X551015Y-10591436D02*
X541491Y-10572389D01*
X541491Y-10572389D02*
X531967Y-10534293D01*
X531967Y-10534293D02*
X531967Y-10486674D01*
X531967Y-10486674D02*
X541491Y-10448579D01*
X541491Y-10448579D02*
X551015Y-10429531D01*
X551015Y-10429531D02*
X560539Y-10420008D01*
X560539Y-10420008D02*
X579586Y-10410484D01*
X770062Y-10410484D02*
X789110Y-10410484D01*
X789110Y-10410484D02*
X808158Y-10420008D01*
X808158Y-10420008D02*
X817682Y-10429531D01*
X817682Y-10429531D02*
X827205Y-10448579D01*
X827205Y-10448579D02*
X836729Y-10486674D01*
X836729Y-10486674D02*
X836729Y-10534293D01*
X836729Y-10534293D02*
X827205Y-10572389D01*
X827205Y-10572389D02*
X817682Y-10591436D01*
X817682Y-10591436D02*
X808158Y-10600960D01*
X808158Y-10600960D02*
X789110Y-10610484D01*
X789110Y-10610484D02*
X770062Y-10610484D01*
X770062Y-10610484D02*
X751015Y-10600960D01*
X751015Y-10600960D02*
X741491Y-10591436D01*
X741491Y-10591436D02*
X731967Y-10572389D01*
X731967Y-10572389D02*
X722443Y-10534293D01*
X722443Y-10534293D02*
X722443Y-10486674D01*
X722443Y-10486674D02*
X731967Y-10448579D01*
X731967Y-10448579D02*
X741491Y-10429531D01*
X741491Y-10429531D02*
X751015Y-10420008D01*
X751015Y-10420008D02*
X770062Y-10410484D01*
X960539Y-10410484D02*
X979586Y-10410484D01*
X979586Y-10410484D02*
X998634Y-10420008D01*
X998634Y-10420008D02*
X1008158Y-10429531D01*
X1008158Y-10429531D02*
X1017682Y-10448579D01*
X1017682Y-10448579D02*
X1027205Y-10486674D01*
X1027205Y-10486674D02*
X1027205Y-10534293D01*
X1027205Y-10534293D02*
X1017682Y-10572389D01*
X1017682Y-10572389D02*
X1008158Y-10591436D01*
X1008158Y-10591436D02*
X998634Y-10600960D01*
X998634Y-10600960D02*
X979586Y-10610484D01*
X979586Y-10610484D02*
X960539Y-10610484D01*
X960539Y-10610484D02*
X941491Y-10600960D01*
X941491Y-10600960D02*
X931967Y-10591436D01*
X931967Y-10591436D02*
X922443Y-10572389D01*
X922443Y-10572389D02*
X912920Y-10534293D01*
X912920Y-10534293D02*
X912920Y-10486674D01*
X912920Y-10486674D02*
X922443Y-10448579D01*
X922443Y-10448579D02*
X931967Y-10429531D01*
X931967Y-10429531D02*
X941491Y-10420008D01*
X941491Y-10420008D02*
X960539Y-10410484D01*
X1112920Y-10610484D02*
X1112920Y-10477150D01*
X1112920Y-10496198D02*
X1122444Y-10486674D01*
X1122444Y-10486674D02*
X1141491Y-10477150D01*
X1141491Y-10477150D02*
X1170063Y-10477150D01*
X1170063Y-10477150D02*
X1189110Y-10486674D01*
X1189110Y-10486674D02*
X1198634Y-10505722D01*
X1198634Y-10505722D02*
X1198634Y-10610484D01*
X1198634Y-10505722D02*
X1208158Y-10486674D01*
X1208158Y-10486674D02*
X1227205Y-10477150D01*
X1227205Y-10477150D02*
X1255777Y-10477150D01*
X1255777Y-10477150D02*
X1274825Y-10486674D01*
X1274825Y-10486674D02*
X1284348Y-10505722D01*
X1284348Y-10505722D02*
X1284348Y-10610484D01*
X1379586Y-10610484D02*
X1379586Y-10477150D01*
X1379586Y-10496198D02*
X1389110Y-10486674D01*
X1389110Y-10486674D02*
X1408158Y-10477150D01*
X1408158Y-10477150D02*
X1436729Y-10477150D01*
X1436729Y-10477150D02*
X1455777Y-10486674D01*
X1455777Y-10486674D02*
X1465301Y-10505722D01*
X1465301Y-10505722D02*
X1465301Y-10610484D01*
X1465301Y-10505722D02*
X1474824Y-10486674D01*
X1474824Y-10486674D02*
X1493872Y-10477150D01*
X1493872Y-10477150D02*
X1522443Y-10477150D01*
X1522443Y-10477150D02*
X1541491Y-10486674D01*
X1541491Y-10486674D02*
X1551015Y-10505722D01*
X1551015Y-10505722D02*
X1551015Y-10610484D01*
X1941491Y-10400960D02*
X1770063Y-10658103D01*
X2198634Y-10410484D02*
X2217682Y-10410484D01*
X2217682Y-10410484D02*
X2236729Y-10420008D01*
X2236729Y-10420008D02*
X2246253Y-10429531D01*
X2246253Y-10429531D02*
X2255777Y-10448579D01*
X2255777Y-10448579D02*
X2265301Y-10486674D01*
X2265301Y-10486674D02*
X2265301Y-10534293D01*
X2265301Y-10534293D02*
X2255777Y-10572389D01*
X2255777Y-10572389D02*
X2246253Y-10591436D01*
X2246253Y-10591436D02*
X2236729Y-10600960D01*
X2236729Y-10600960D02*
X2217682Y-10610484D01*
X2217682Y-10610484D02*
X2198634Y-10610484D01*
X2198634Y-10610484D02*
X2179587Y-10600960D01*
X2179587Y-10600960D02*
X2170063Y-10591436D01*
X2170063Y-10591436D02*
X2160539Y-10572389D01*
X2160539Y-10572389D02*
X2151015Y-10534293D01*
X2151015Y-10534293D02*
X2151015Y-10486674D01*
X2151015Y-10486674D02*
X2160539Y-10448579D01*
X2160539Y-10448579D02*
X2170063Y-10429531D01*
X2170063Y-10429531D02*
X2179587Y-10420008D01*
X2179587Y-10420008D02*
X2198634Y-10410484D01*
X2351015Y-10591436D02*
X2360539Y-10600960D01*
X2360539Y-10600960D02*
X2351015Y-10610484D01*
X2351015Y-10610484D02*
X2341491Y-10600960D01*
X2341491Y-10600960D02*
X2351015Y-10591436D01*
X2351015Y-10591436D02*
X2351015Y-10610484D01*
X2551015Y-10610484D02*
X2436729Y-10610484D01*
X2493872Y-10610484D02*
X2493872Y-10410484D01*
X2493872Y-10410484D02*
X2474825Y-10439055D01*
X2474825Y-10439055D02*
X2455777Y-10458103D01*
X2455777Y-10458103D02*
X2436729Y-10467627D01*
X2741491Y-10610484D02*
X2627206Y-10610484D01*
X2684348Y-10610484D02*
X2684348Y-10410484D01*
X2684348Y-10410484D02*
X2665301Y-10439055D01*
X2665301Y-10439055D02*
X2646253Y-10458103D01*
X2646253Y-10458103D02*
X2627206Y-10467627D01*
X2855777Y-10496198D02*
X2836729Y-10486674D01*
X2836729Y-10486674D02*
X2827206Y-10477150D01*
X2827206Y-10477150D02*
X2817682Y-10458103D01*
X2817682Y-10458103D02*
X2817682Y-10448579D01*
X2817682Y-10448579D02*
X2827206Y-10429531D01*
X2827206Y-10429531D02*
X2836729Y-10420008D01*
X2836729Y-10420008D02*
X2855777Y-10410484D01*
X2855777Y-10410484D02*
X2893872Y-10410484D01*
X2893872Y-10410484D02*
X2912920Y-10420008D01*
X2912920Y-10420008D02*
X2922444Y-10429531D01*
X2922444Y-10429531D02*
X2931967Y-10448579D01*
X2931967Y-10448579D02*
X2931967Y-10458103D01*
X2931967Y-10458103D02*
X2922444Y-10477150D01*
X2922444Y-10477150D02*
X2912920Y-10486674D01*
X2912920Y-10486674D02*
X2893872Y-10496198D01*
X2893872Y-10496198D02*
X2855777Y-10496198D01*
X2855777Y-10496198D02*
X2836729Y-10505722D01*
X2836729Y-10505722D02*
X2827206Y-10515246D01*
X2827206Y-10515246D02*
X2817682Y-10534293D01*
X2817682Y-10534293D02*
X2817682Y-10572389D01*
X2817682Y-10572389D02*
X2827206Y-10591436D01*
X2827206Y-10591436D02*
X2836729Y-10600960D01*
X2836729Y-10600960D02*
X2855777Y-10610484D01*
X2855777Y-10610484D02*
X2893872Y-10610484D01*
X2893872Y-10610484D02*
X2912920Y-10600960D01*
X2912920Y-10600960D02*
X2922444Y-10591436D01*
X2922444Y-10591436D02*
X2931967Y-10572389D01*
X2931967Y-10572389D02*
X2931967Y-10534293D01*
X2931967Y-10534293D02*
X2922444Y-10515246D01*
X2922444Y-10515246D02*
X2912920Y-10505722D01*
X2912920Y-10505722D02*
X2893872Y-10496198D01*
X3122444Y-10610484D02*
X3008158Y-10610484D01*
X3065301Y-10610484D02*
X3065301Y-10410484D01*
X3065301Y-10410484D02*
X3046253Y-10439055D01*
X3046253Y-10439055D02*
X3027206Y-10458103D01*
X3027206Y-10458103D02*
X3008158Y-10467627D01*
X3198634Y-10410484D02*
X3198634Y-10448579D01*
X3274825Y-10410484D02*
X3274825Y-10448579D01*
X3570063Y-10686674D02*
X3560539Y-10677150D01*
X3560539Y-10677150D02*
X3541491Y-10648579D01*
X3541491Y-10648579D02*
X3531968Y-10629531D01*
X3531968Y-10629531D02*
X3522444Y-10600960D01*
X3522444Y-10600960D02*
X3512920Y-10553341D01*
X3512920Y-10553341D02*
X3512920Y-10515246D01*
X3512920Y-10515246D02*
X3522444Y-10467627D01*
X3522444Y-10467627D02*
X3531968Y-10439055D01*
X3531968Y-10439055D02*
X3541491Y-10420008D01*
X3541491Y-10420008D02*
X3560539Y-10391436D01*
X3560539Y-10391436D02*
X3570063Y-10381912D01*
X3636729Y-10429531D02*
X3646253Y-10420008D01*
X3646253Y-10420008D02*
X3665301Y-10410484D01*
X3665301Y-10410484D02*
X3712920Y-10410484D01*
X3712920Y-10410484D02*
X3731968Y-10420008D01*
X3731968Y-10420008D02*
X3741491Y-10429531D01*
X3741491Y-10429531D02*
X3751015Y-10448579D01*
X3751015Y-10448579D02*
X3751015Y-10467627D01*
X3751015Y-10467627D02*
X3741491Y-10496198D01*
X3741491Y-10496198D02*
X3627206Y-10610484D01*
X3627206Y-10610484D02*
X3751015Y-10610484D01*
X3922444Y-10410484D02*
X3884348Y-10410484D01*
X3884348Y-10410484D02*
X3865301Y-10420008D01*
X3865301Y-10420008D02*
X3855777Y-10429531D01*
X3855777Y-10429531D02*
X3836729Y-10458103D01*
X3836729Y-10458103D02*
X3827206Y-10496198D01*
X3827206Y-10496198D02*
X3827206Y-10572389D01*
X3827206Y-10572389D02*
X3836729Y-10591436D01*
X3836729Y-10591436D02*
X3846253Y-10600960D01*
X3846253Y-10600960D02*
X3865301Y-10610484D01*
X3865301Y-10610484D02*
X3903396Y-10610484D01*
X3903396Y-10610484D02*
X3922444Y-10600960D01*
X3922444Y-10600960D02*
X3931968Y-10591436D01*
X3931968Y-10591436D02*
X3941491Y-10572389D01*
X3941491Y-10572389D02*
X3941491Y-10524770D01*
X3941491Y-10524770D02*
X3931968Y-10505722D01*
X3931968Y-10505722D02*
X3922444Y-10496198D01*
X3922444Y-10496198D02*
X3903396Y-10486674D01*
X3903396Y-10486674D02*
X3865301Y-10486674D01*
X3865301Y-10486674D02*
X3846253Y-10496198D01*
X3846253Y-10496198D02*
X3836729Y-10505722D01*
X3836729Y-10505722D02*
X3827206Y-10524770D01*
X4179587Y-10610484D02*
X4179587Y-10410484D01*
X4265301Y-10610484D02*
X4265301Y-10505722D01*
X4265301Y-10505722D02*
X4255777Y-10486674D01*
X4255777Y-10486674D02*
X4236730Y-10477150D01*
X4236730Y-10477150D02*
X4208158Y-10477150D01*
X4208158Y-10477150D02*
X4189110Y-10486674D01*
X4189110Y-10486674D02*
X4179587Y-10496198D01*
X4389111Y-10610484D02*
X4370063Y-10600960D01*
X4370063Y-10600960D02*
X4360539Y-10591436D01*
X4360539Y-10591436D02*
X4351015Y-10572389D01*
X4351015Y-10572389D02*
X4351015Y-10515246D01*
X4351015Y-10515246D02*
X4360539Y-10496198D01*
X4360539Y-10496198D02*
X4370063Y-10486674D01*
X4370063Y-10486674D02*
X4389111Y-10477150D01*
X4389111Y-10477150D02*
X4417682Y-10477150D01*
X4417682Y-10477150D02*
X4436730Y-10486674D01*
X4436730Y-10486674D02*
X4446253Y-10496198D01*
X4446253Y-10496198D02*
X4455777Y-10515246D01*
X4455777Y-10515246D02*
X4455777Y-10572389D01*
X4455777Y-10572389D02*
X4446253Y-10591436D01*
X4446253Y-10591436D02*
X4436730Y-10600960D01*
X4436730Y-10600960D02*
X4417682Y-10610484D01*
X4417682Y-10610484D02*
X4389111Y-10610484D01*
X4570063Y-10610484D02*
X4551015Y-10600960D01*
X4551015Y-10600960D02*
X4541492Y-10581912D01*
X4541492Y-10581912D02*
X4541492Y-10410484D01*
X4722444Y-10600960D02*
X4703396Y-10610484D01*
X4703396Y-10610484D02*
X4665301Y-10610484D01*
X4665301Y-10610484D02*
X4646253Y-10600960D01*
X4646253Y-10600960D02*
X4636730Y-10581912D01*
X4636730Y-10581912D02*
X4636730Y-10505722D01*
X4636730Y-10505722D02*
X4646253Y-10486674D01*
X4646253Y-10486674D02*
X4665301Y-10477150D01*
X4665301Y-10477150D02*
X4703396Y-10477150D01*
X4703396Y-10477150D02*
X4722444Y-10486674D01*
X4722444Y-10486674D02*
X4731968Y-10505722D01*
X4731968Y-10505722D02*
X4731968Y-10524770D01*
X4731968Y-10524770D02*
X4636730Y-10543817D01*
X4808158Y-10600960D02*
X4827206Y-10610484D01*
X4827206Y-10610484D02*
X4865301Y-10610484D01*
X4865301Y-10610484D02*
X4884349Y-10600960D01*
X4884349Y-10600960D02*
X4893873Y-10581912D01*
X4893873Y-10581912D02*
X4893873Y-10572389D01*
X4893873Y-10572389D02*
X4884349Y-10553341D01*
X4884349Y-10553341D02*
X4865301Y-10543817D01*
X4865301Y-10543817D02*
X4836730Y-10543817D01*
X4836730Y-10543817D02*
X4817682Y-10534293D01*
X4817682Y-10534293D02*
X4808158Y-10515246D01*
X4808158Y-10515246D02*
X4808158Y-10505722D01*
X4808158Y-10505722D02*
X4817682Y-10486674D01*
X4817682Y-10486674D02*
X4836730Y-10477150D01*
X4836730Y-10477150D02*
X4865301Y-10477150D01*
X4865301Y-10477150D02*
X4884349Y-10486674D01*
X4960539Y-10686674D02*
X4970063Y-10677150D01*
X4970063Y-10677150D02*
X4989111Y-10648579D01*
X4989111Y-10648579D02*
X4998634Y-10629531D01*
X4998634Y-10629531D02*
X5008158Y-10600960D01*
X5008158Y-10600960D02*
X5017682Y-10553341D01*
X5017682Y-10553341D02*
X5017682Y-10515246D01*
X5017682Y-10515246D02*
X5008158Y-10467627D01*
X5008158Y-10467627D02*
X4998634Y-10439055D01*
X4998634Y-10439055D02*
X4989111Y-10420008D01*
X4989111Y-10420008D02*
X4970063Y-10391436D01*
X4970063Y-10391436D02*
X4960539Y-10381912D01*
X5322444Y-10686674D02*
X5312920Y-10677150D01*
X5312920Y-10677150D02*
X5293873Y-10648579D01*
X5293873Y-10648579D02*
X5284349Y-10629531D01*
X5284349Y-10629531D02*
X5274825Y-10600960D01*
X5274825Y-10600960D02*
X5265301Y-10553341D01*
X5265301Y-10553341D02*
X5265301Y-10515246D01*
X5265301Y-10515246D02*
X5274825Y-10467627D01*
X5274825Y-10467627D02*
X5284349Y-10439055D01*
X5284349Y-10439055D02*
X5293873Y-10420008D01*
X5293873Y-10420008D02*
X5312920Y-10391436D01*
X5312920Y-10391436D02*
X5322444Y-10381912D01*
X5398634Y-10477150D02*
X5398634Y-10610484D01*
X5398634Y-10496198D02*
X5408158Y-10486674D01*
X5408158Y-10486674D02*
X5427206Y-10477150D01*
X5427206Y-10477150D02*
X5455777Y-10477150D01*
X5455777Y-10477150D02*
X5474825Y-10486674D01*
X5474825Y-10486674D02*
X5484349Y-10505722D01*
X5484349Y-10505722D02*
X5484349Y-10610484D01*
X5608158Y-10610484D02*
X5589111Y-10600960D01*
X5589111Y-10600960D02*
X5579587Y-10591436D01*
X5579587Y-10591436D02*
X5570063Y-10572389D01*
X5570063Y-10572389D02*
X5570063Y-10515246D01*
X5570063Y-10515246D02*
X5579587Y-10496198D01*
X5579587Y-10496198D02*
X5589111Y-10486674D01*
X5589111Y-10486674D02*
X5608158Y-10477150D01*
X5608158Y-10477150D02*
X5636730Y-10477150D01*
X5636730Y-10477150D02*
X5655777Y-10486674D01*
X5655777Y-10486674D02*
X5665301Y-10496198D01*
X5665301Y-10496198D02*
X5674825Y-10515246D01*
X5674825Y-10515246D02*
X5674825Y-10572389D01*
X5674825Y-10572389D02*
X5665301Y-10591436D01*
X5665301Y-10591436D02*
X5655777Y-10600960D01*
X5655777Y-10600960D02*
X5636730Y-10610484D01*
X5636730Y-10610484D02*
X5608158Y-10610484D01*
X5731968Y-10477150D02*
X5808158Y-10477150D01*
X5760539Y-10410484D02*
X5760539Y-10581912D01*
X5760539Y-10581912D02*
X5770063Y-10600960D01*
X5770063Y-10600960D02*
X5789111Y-10610484D01*
X5789111Y-10610484D02*
X5808158Y-10610484D01*
X6027206Y-10477150D02*
X6027206Y-10677150D01*
X6027206Y-10486674D02*
X6046253Y-10477150D01*
X6046253Y-10477150D02*
X6084349Y-10477150D01*
X6084349Y-10477150D02*
X6103396Y-10486674D01*
X6103396Y-10486674D02*
X6112920Y-10496198D01*
X6112920Y-10496198D02*
X6122444Y-10515246D01*
X6122444Y-10515246D02*
X6122444Y-10572389D01*
X6122444Y-10572389D02*
X6112920Y-10591436D01*
X6112920Y-10591436D02*
X6103396Y-10600960D01*
X6103396Y-10600960D02*
X6084349Y-10610484D01*
X6084349Y-10610484D02*
X6046253Y-10610484D01*
X6046253Y-10610484D02*
X6027206Y-10600960D01*
X6236730Y-10610484D02*
X6217682Y-10600960D01*
X6217682Y-10600960D02*
X6208158Y-10581912D01*
X6208158Y-10581912D02*
X6208158Y-10410484D01*
X6398634Y-10610484D02*
X6398634Y-10505722D01*
X6398634Y-10505722D02*
X6389111Y-10486674D01*
X6389111Y-10486674D02*
X6370063Y-10477150D01*
X6370063Y-10477150D02*
X6331968Y-10477150D01*
X6331968Y-10477150D02*
X6312920Y-10486674D01*
X6398634Y-10600960D02*
X6379587Y-10610484D01*
X6379587Y-10610484D02*
X6331968Y-10610484D01*
X6331968Y-10610484D02*
X6312920Y-10600960D01*
X6312920Y-10600960D02*
X6303396Y-10581912D01*
X6303396Y-10581912D02*
X6303396Y-10562865D01*
X6303396Y-10562865D02*
X6312920Y-10543817D01*
X6312920Y-10543817D02*
X6331968Y-10534293D01*
X6331968Y-10534293D02*
X6379587Y-10534293D01*
X6379587Y-10534293D02*
X6398634Y-10524770D01*
X6465301Y-10477150D02*
X6541492Y-10477150D01*
X6493873Y-10410484D02*
X6493873Y-10581912D01*
X6493873Y-10581912D02*
X6503396Y-10600960D01*
X6503396Y-10600960D02*
X6522444Y-10610484D01*
X6522444Y-10610484D02*
X6541492Y-10610484D01*
X6684349Y-10600960D02*
X6665301Y-10610484D01*
X6665301Y-10610484D02*
X6627206Y-10610484D01*
X6627206Y-10610484D02*
X6608158Y-10600960D01*
X6608158Y-10600960D02*
X6598634Y-10581912D01*
X6598634Y-10581912D02*
X6598634Y-10505722D01*
X6598634Y-10505722D02*
X6608158Y-10486674D01*
X6608158Y-10486674D02*
X6627206Y-10477150D01*
X6627206Y-10477150D02*
X6665301Y-10477150D01*
X6665301Y-10477150D02*
X6684349Y-10486674D01*
X6684349Y-10486674D02*
X6693873Y-10505722D01*
X6693873Y-10505722D02*
X6693873Y-10524770D01*
X6693873Y-10524770D02*
X6598634Y-10543817D01*
X6865301Y-10610484D02*
X6865301Y-10410484D01*
X6865301Y-10600960D02*
X6846254Y-10610484D01*
X6846254Y-10610484D02*
X6808158Y-10610484D01*
X6808158Y-10610484D02*
X6789111Y-10600960D01*
X6789111Y-10600960D02*
X6779587Y-10591436D01*
X6779587Y-10591436D02*
X6770063Y-10572389D01*
X6770063Y-10572389D02*
X6770063Y-10515246D01*
X6770063Y-10515246D02*
X6779587Y-10496198D01*
X6779587Y-10496198D02*
X6789111Y-10486674D01*
X6789111Y-10486674D02*
X6808158Y-10477150D01*
X6808158Y-10477150D02*
X6846254Y-10477150D01*
X6846254Y-10477150D02*
X6865301Y-10486674D01*
X6941492Y-10686674D02*
X6951015Y-10677150D01*
X6951015Y-10677150D02*
X6970063Y-10648579D01*
X6970063Y-10648579D02*
X6979587Y-10629531D01*
X6979587Y-10629531D02*
X6989111Y-10600960D01*
X6989111Y-10600960D02*
X6998634Y-10553341D01*
X6998634Y-10553341D02*
X6998634Y-10515246D01*
X6998634Y-10515246D02*
X6989111Y-10467627D01*
X6989111Y-10467627D02*
X6979587Y-10439055D01*
X6979587Y-10439055D02*
X6970063Y-10420008D01*
X6970063Y-10420008D02*
X6951015Y-10391436D01*
X6951015Y-10391436D02*
X6941492Y-10381912D01*
X-105000Y-10939000D02*
X-5000Y-10839000D01*
X-105000Y-10739000D01*
X-205000Y-10839000D01*
X-105000Y-10939000D01*
X351015Y-10730484D02*
X255777Y-10730484D01*
X255777Y-10730484D02*
X246253Y-10825722D01*
X246253Y-10825722D02*
X255777Y-10816198D01*
X255777Y-10816198D02*
X274824Y-10806674D01*
X274824Y-10806674D02*
X322444Y-10806674D01*
X322444Y-10806674D02*
X341491Y-10816198D01*
X341491Y-10816198D02*
X351015Y-10825722D01*
X351015Y-10825722D02*
X360539Y-10844770D01*
X360539Y-10844770D02*
X360539Y-10892389D01*
X360539Y-10892389D02*
X351015Y-10911436D01*
X351015Y-10911436D02*
X341491Y-10920960D01*
X341491Y-10920960D02*
X322444Y-10930484D01*
X322444Y-10930484D02*
X274824Y-10930484D01*
X274824Y-10930484D02*
X255777Y-10920960D01*
X255777Y-10920960D02*
X246253Y-10911436D01*
X446253Y-10911436D02*
X455777Y-10920960D01*
X455777Y-10920960D02*
X446253Y-10930484D01*
X446253Y-10930484D02*
X436729Y-10920960D01*
X436729Y-10920960D02*
X446253Y-10911436D01*
X446253Y-10911436D02*
X446253Y-10930484D01*
X579586Y-10730484D02*
X598634Y-10730484D01*
X598634Y-10730484D02*
X617682Y-10740008D01*
X617682Y-10740008D02*
X627205Y-10749531D01*
X627205Y-10749531D02*
X636729Y-10768579D01*
X636729Y-10768579D02*
X646253Y-10806674D01*
X646253Y-10806674D02*
X646253Y-10854293D01*
X646253Y-10854293D02*
X636729Y-10892389D01*
X636729Y-10892389D02*
X627205Y-10911436D01*
X627205Y-10911436D02*
X617682Y-10920960D01*
X617682Y-10920960D02*
X598634Y-10930484D01*
X598634Y-10930484D02*
X579586Y-10930484D01*
X579586Y-10930484D02*
X560539Y-10920960D01*
X560539Y-10920960D02*
X551015Y-10911436D01*
X551015Y-10911436D02*
X541491Y-10892389D01*
X541491Y-10892389D02*
X531967Y-10854293D01*
X531967Y-10854293D02*
X531967Y-10806674D01*
X531967Y-10806674D02*
X541491Y-10768579D01*
X541491Y-10768579D02*
X551015Y-10749531D01*
X551015Y-10749531D02*
X560539Y-10740008D01*
X560539Y-10740008D02*
X579586Y-10730484D01*
X770062Y-10730484D02*
X789110Y-10730484D01*
X789110Y-10730484D02*
X808158Y-10740008D01*
X808158Y-10740008D02*
X817682Y-10749531D01*
X817682Y-10749531D02*
X827205Y-10768579D01*
X827205Y-10768579D02*
X836729Y-10806674D01*
X836729Y-10806674D02*
X836729Y-10854293D01*
X836729Y-10854293D02*
X827205Y-10892389D01*
X827205Y-10892389D02*
X817682Y-10911436D01*
X817682Y-10911436D02*
X808158Y-10920960D01*
X808158Y-10920960D02*
X789110Y-10930484D01*
X789110Y-10930484D02*
X770062Y-10930484D01*
X770062Y-10930484D02*
X751015Y-10920960D01*
X751015Y-10920960D02*
X741491Y-10911436D01*
X741491Y-10911436D02*
X731967Y-10892389D01*
X731967Y-10892389D02*
X722443Y-10854293D01*
X722443Y-10854293D02*
X722443Y-10806674D01*
X722443Y-10806674D02*
X731967Y-10768579D01*
X731967Y-10768579D02*
X741491Y-10749531D01*
X741491Y-10749531D02*
X751015Y-10740008D01*
X751015Y-10740008D02*
X770062Y-10730484D01*
X960539Y-10730484D02*
X979586Y-10730484D01*
X979586Y-10730484D02*
X998634Y-10740008D01*
X998634Y-10740008D02*
X1008158Y-10749531D01*
X1008158Y-10749531D02*
X1017682Y-10768579D01*
X1017682Y-10768579D02*
X1027205Y-10806674D01*
X1027205Y-10806674D02*
X1027205Y-10854293D01*
X1027205Y-10854293D02*
X1017682Y-10892389D01*
X1017682Y-10892389D02*
X1008158Y-10911436D01*
X1008158Y-10911436D02*
X998634Y-10920960D01*
X998634Y-10920960D02*
X979586Y-10930484D01*
X979586Y-10930484D02*
X960539Y-10930484D01*
X960539Y-10930484D02*
X941491Y-10920960D01*
X941491Y-10920960D02*
X931967Y-10911436D01*
X931967Y-10911436D02*
X922443Y-10892389D01*
X922443Y-10892389D02*
X912920Y-10854293D01*
X912920Y-10854293D02*
X912920Y-10806674D01*
X912920Y-10806674D02*
X922443Y-10768579D01*
X922443Y-10768579D02*
X931967Y-10749531D01*
X931967Y-10749531D02*
X941491Y-10740008D01*
X941491Y-10740008D02*
X960539Y-10730484D01*
X1112920Y-10930484D02*
X1112920Y-10797150D01*
X1112920Y-10816198D02*
X1122444Y-10806674D01*
X1122444Y-10806674D02*
X1141491Y-10797150D01*
X1141491Y-10797150D02*
X1170063Y-10797150D01*
X1170063Y-10797150D02*
X1189110Y-10806674D01*
X1189110Y-10806674D02*
X1198634Y-10825722D01*
X1198634Y-10825722D02*
X1198634Y-10930484D01*
X1198634Y-10825722D02*
X1208158Y-10806674D01*
X1208158Y-10806674D02*
X1227205Y-10797150D01*
X1227205Y-10797150D02*
X1255777Y-10797150D01*
X1255777Y-10797150D02*
X1274825Y-10806674D01*
X1274825Y-10806674D02*
X1284348Y-10825722D01*
X1284348Y-10825722D02*
X1284348Y-10930484D01*
X1379586Y-10930484D02*
X1379586Y-10797150D01*
X1379586Y-10816198D02*
X1389110Y-10806674D01*
X1389110Y-10806674D02*
X1408158Y-10797150D01*
X1408158Y-10797150D02*
X1436729Y-10797150D01*
X1436729Y-10797150D02*
X1455777Y-10806674D01*
X1455777Y-10806674D02*
X1465301Y-10825722D01*
X1465301Y-10825722D02*
X1465301Y-10930484D01*
X1465301Y-10825722D02*
X1474824Y-10806674D01*
X1474824Y-10806674D02*
X1493872Y-10797150D01*
X1493872Y-10797150D02*
X1522443Y-10797150D01*
X1522443Y-10797150D02*
X1541491Y-10806674D01*
X1541491Y-10806674D02*
X1551015Y-10825722D01*
X1551015Y-10825722D02*
X1551015Y-10930484D01*
X1941491Y-10720960D02*
X1770063Y-10978103D01*
X2198634Y-10730484D02*
X2217682Y-10730484D01*
X2217682Y-10730484D02*
X2236729Y-10740008D01*
X2236729Y-10740008D02*
X2246253Y-10749531D01*
X2246253Y-10749531D02*
X2255777Y-10768579D01*
X2255777Y-10768579D02*
X2265301Y-10806674D01*
X2265301Y-10806674D02*
X2265301Y-10854293D01*
X2265301Y-10854293D02*
X2255777Y-10892389D01*
X2255777Y-10892389D02*
X2246253Y-10911436D01*
X2246253Y-10911436D02*
X2236729Y-10920960D01*
X2236729Y-10920960D02*
X2217682Y-10930484D01*
X2217682Y-10930484D02*
X2198634Y-10930484D01*
X2198634Y-10930484D02*
X2179587Y-10920960D01*
X2179587Y-10920960D02*
X2170063Y-10911436D01*
X2170063Y-10911436D02*
X2160539Y-10892389D01*
X2160539Y-10892389D02*
X2151015Y-10854293D01*
X2151015Y-10854293D02*
X2151015Y-10806674D01*
X2151015Y-10806674D02*
X2160539Y-10768579D01*
X2160539Y-10768579D02*
X2170063Y-10749531D01*
X2170063Y-10749531D02*
X2179587Y-10740008D01*
X2179587Y-10740008D02*
X2198634Y-10730484D01*
X2351015Y-10911436D02*
X2360539Y-10920960D01*
X2360539Y-10920960D02*
X2351015Y-10930484D01*
X2351015Y-10930484D02*
X2341491Y-10920960D01*
X2341491Y-10920960D02*
X2351015Y-10911436D01*
X2351015Y-10911436D02*
X2351015Y-10930484D01*
X2551015Y-10930484D02*
X2436729Y-10930484D01*
X2493872Y-10930484D02*
X2493872Y-10730484D01*
X2493872Y-10730484D02*
X2474825Y-10759055D01*
X2474825Y-10759055D02*
X2455777Y-10778103D01*
X2455777Y-10778103D02*
X2436729Y-10787627D01*
X2646253Y-10930484D02*
X2684348Y-10930484D01*
X2684348Y-10930484D02*
X2703396Y-10920960D01*
X2703396Y-10920960D02*
X2712920Y-10911436D01*
X2712920Y-10911436D02*
X2731968Y-10882865D01*
X2731968Y-10882865D02*
X2741491Y-10844770D01*
X2741491Y-10844770D02*
X2741491Y-10768579D01*
X2741491Y-10768579D02*
X2731968Y-10749531D01*
X2731968Y-10749531D02*
X2722444Y-10740008D01*
X2722444Y-10740008D02*
X2703396Y-10730484D01*
X2703396Y-10730484D02*
X2665301Y-10730484D01*
X2665301Y-10730484D02*
X2646253Y-10740008D01*
X2646253Y-10740008D02*
X2636729Y-10749531D01*
X2636729Y-10749531D02*
X2627206Y-10768579D01*
X2627206Y-10768579D02*
X2627206Y-10816198D01*
X2627206Y-10816198D02*
X2636729Y-10835246D01*
X2636729Y-10835246D02*
X2646253Y-10844770D01*
X2646253Y-10844770D02*
X2665301Y-10854293D01*
X2665301Y-10854293D02*
X2703396Y-10854293D01*
X2703396Y-10854293D02*
X2722444Y-10844770D01*
X2722444Y-10844770D02*
X2731968Y-10835246D01*
X2731968Y-10835246D02*
X2741491Y-10816198D01*
X2912920Y-10730484D02*
X2874825Y-10730484D01*
X2874825Y-10730484D02*
X2855777Y-10740008D01*
X2855777Y-10740008D02*
X2846253Y-10749531D01*
X2846253Y-10749531D02*
X2827206Y-10778103D01*
X2827206Y-10778103D02*
X2817682Y-10816198D01*
X2817682Y-10816198D02*
X2817682Y-10892389D01*
X2817682Y-10892389D02*
X2827206Y-10911436D01*
X2827206Y-10911436D02*
X2836729Y-10920960D01*
X2836729Y-10920960D02*
X2855777Y-10930484D01*
X2855777Y-10930484D02*
X2893872Y-10930484D01*
X2893872Y-10930484D02*
X2912920Y-10920960D01*
X2912920Y-10920960D02*
X2922444Y-10911436D01*
X2922444Y-10911436D02*
X2931967Y-10892389D01*
X2931967Y-10892389D02*
X2931967Y-10844770D01*
X2931967Y-10844770D02*
X2922444Y-10825722D01*
X2922444Y-10825722D02*
X2912920Y-10816198D01*
X2912920Y-10816198D02*
X2893872Y-10806674D01*
X2893872Y-10806674D02*
X2855777Y-10806674D01*
X2855777Y-10806674D02*
X2836729Y-10816198D01*
X2836729Y-10816198D02*
X2827206Y-10825722D01*
X2827206Y-10825722D02*
X2817682Y-10844770D01*
X3027206Y-10930484D02*
X3065301Y-10930484D01*
X3065301Y-10930484D02*
X3084348Y-10920960D01*
X3084348Y-10920960D02*
X3093872Y-10911436D01*
X3093872Y-10911436D02*
X3112920Y-10882865D01*
X3112920Y-10882865D02*
X3122444Y-10844770D01*
X3122444Y-10844770D02*
X3122444Y-10768579D01*
X3122444Y-10768579D02*
X3112920Y-10749531D01*
X3112920Y-10749531D02*
X3103396Y-10740008D01*
X3103396Y-10740008D02*
X3084348Y-10730484D01*
X3084348Y-10730484D02*
X3046253Y-10730484D01*
X3046253Y-10730484D02*
X3027206Y-10740008D01*
X3027206Y-10740008D02*
X3017682Y-10749531D01*
X3017682Y-10749531D02*
X3008158Y-10768579D01*
X3008158Y-10768579D02*
X3008158Y-10816198D01*
X3008158Y-10816198D02*
X3017682Y-10835246D01*
X3017682Y-10835246D02*
X3027206Y-10844770D01*
X3027206Y-10844770D02*
X3046253Y-10854293D01*
X3046253Y-10854293D02*
X3084348Y-10854293D01*
X3084348Y-10854293D02*
X3103396Y-10844770D01*
X3103396Y-10844770D02*
X3112920Y-10835246D01*
X3112920Y-10835246D02*
X3122444Y-10816198D01*
X3198634Y-10730484D02*
X3198634Y-10768579D01*
X3274825Y-10730484D02*
X3274825Y-10768579D01*
X3570063Y-11006674D02*
X3560539Y-10997150D01*
X3560539Y-10997150D02*
X3541491Y-10968579D01*
X3541491Y-10968579D02*
X3531968Y-10949531D01*
X3531968Y-10949531D02*
X3522444Y-10920960D01*
X3522444Y-10920960D02*
X3512920Y-10873341D01*
X3512920Y-10873341D02*
X3512920Y-10835246D01*
X3512920Y-10835246D02*
X3522444Y-10787627D01*
X3522444Y-10787627D02*
X3531968Y-10759055D01*
X3531968Y-10759055D02*
X3541491Y-10740008D01*
X3541491Y-10740008D02*
X3560539Y-10711436D01*
X3560539Y-10711436D02*
X3570063Y-10701912D01*
X3751015Y-10930484D02*
X3636729Y-10930484D01*
X3693872Y-10930484D02*
X3693872Y-10730484D01*
X3693872Y-10730484D02*
X3674825Y-10759055D01*
X3674825Y-10759055D02*
X3655777Y-10778103D01*
X3655777Y-10778103D02*
X3636729Y-10787627D01*
X3817682Y-10730484D02*
X3941491Y-10730484D01*
X3941491Y-10730484D02*
X3874825Y-10806674D01*
X3874825Y-10806674D02*
X3903396Y-10806674D01*
X3903396Y-10806674D02*
X3922444Y-10816198D01*
X3922444Y-10816198D02*
X3931968Y-10825722D01*
X3931968Y-10825722D02*
X3941491Y-10844770D01*
X3941491Y-10844770D02*
X3941491Y-10892389D01*
X3941491Y-10892389D02*
X3931968Y-10911436D01*
X3931968Y-10911436D02*
X3922444Y-10920960D01*
X3922444Y-10920960D02*
X3903396Y-10930484D01*
X3903396Y-10930484D02*
X3846253Y-10930484D01*
X3846253Y-10930484D02*
X3827206Y-10920960D01*
X3827206Y-10920960D02*
X3817682Y-10911436D01*
X4179587Y-10930484D02*
X4179587Y-10730484D01*
X4265301Y-10930484D02*
X4265301Y-10825722D01*
X4265301Y-10825722D02*
X4255777Y-10806674D01*
X4255777Y-10806674D02*
X4236730Y-10797150D01*
X4236730Y-10797150D02*
X4208158Y-10797150D01*
X4208158Y-10797150D02*
X4189110Y-10806674D01*
X4189110Y-10806674D02*
X4179587Y-10816198D01*
X4389111Y-10930484D02*
X4370063Y-10920960D01*
X4370063Y-10920960D02*
X4360539Y-10911436D01*
X4360539Y-10911436D02*
X4351015Y-10892389D01*
X4351015Y-10892389D02*
X4351015Y-10835246D01*
X4351015Y-10835246D02*
X4360539Y-10816198D01*
X4360539Y-10816198D02*
X4370063Y-10806674D01*
X4370063Y-10806674D02*
X4389111Y-10797150D01*
X4389111Y-10797150D02*
X4417682Y-10797150D01*
X4417682Y-10797150D02*
X4436730Y-10806674D01*
X4436730Y-10806674D02*
X4446253Y-10816198D01*
X4446253Y-10816198D02*
X4455777Y-10835246D01*
X4455777Y-10835246D02*
X4455777Y-10892389D01*
X4455777Y-10892389D02*
X4446253Y-10911436D01*
X4446253Y-10911436D02*
X4436730Y-10920960D01*
X4436730Y-10920960D02*
X4417682Y-10930484D01*
X4417682Y-10930484D02*
X4389111Y-10930484D01*
X4570063Y-10930484D02*
X4551015Y-10920960D01*
X4551015Y-10920960D02*
X4541492Y-10901912D01*
X4541492Y-10901912D02*
X4541492Y-10730484D01*
X4722444Y-10920960D02*
X4703396Y-10930484D01*
X4703396Y-10930484D02*
X4665301Y-10930484D01*
X4665301Y-10930484D02*
X4646253Y-10920960D01*
X4646253Y-10920960D02*
X4636730Y-10901912D01*
X4636730Y-10901912D02*
X4636730Y-10825722D01*
X4636730Y-10825722D02*
X4646253Y-10806674D01*
X4646253Y-10806674D02*
X4665301Y-10797150D01*
X4665301Y-10797150D02*
X4703396Y-10797150D01*
X4703396Y-10797150D02*
X4722444Y-10806674D01*
X4722444Y-10806674D02*
X4731968Y-10825722D01*
X4731968Y-10825722D02*
X4731968Y-10844770D01*
X4731968Y-10844770D02*
X4636730Y-10863817D01*
X4808158Y-10920960D02*
X4827206Y-10930484D01*
X4827206Y-10930484D02*
X4865301Y-10930484D01*
X4865301Y-10930484D02*
X4884349Y-10920960D01*
X4884349Y-10920960D02*
X4893873Y-10901912D01*
X4893873Y-10901912D02*
X4893873Y-10892389D01*
X4893873Y-10892389D02*
X4884349Y-10873341D01*
X4884349Y-10873341D02*
X4865301Y-10863817D01*
X4865301Y-10863817D02*
X4836730Y-10863817D01*
X4836730Y-10863817D02*
X4817682Y-10854293D01*
X4817682Y-10854293D02*
X4808158Y-10835246D01*
X4808158Y-10835246D02*
X4808158Y-10825722D01*
X4808158Y-10825722D02*
X4817682Y-10806674D01*
X4817682Y-10806674D02*
X4836730Y-10797150D01*
X4836730Y-10797150D02*
X4865301Y-10797150D01*
X4865301Y-10797150D02*
X4884349Y-10806674D01*
X4960539Y-11006674D02*
X4970063Y-10997150D01*
X4970063Y-10997150D02*
X4989111Y-10968579D01*
X4989111Y-10968579D02*
X4998634Y-10949531D01*
X4998634Y-10949531D02*
X5008158Y-10920960D01*
X5008158Y-10920960D02*
X5017682Y-10873341D01*
X5017682Y-10873341D02*
X5017682Y-10835246D01*
X5017682Y-10835246D02*
X5008158Y-10787627D01*
X5008158Y-10787627D02*
X4998634Y-10759055D01*
X4998634Y-10759055D02*
X4989111Y-10740008D01*
X4989111Y-10740008D02*
X4970063Y-10711436D01*
X4970063Y-10711436D02*
X4960539Y-10701912D01*
X5322444Y-11006674D02*
X5312920Y-10997150D01*
X5312920Y-10997150D02*
X5293873Y-10968579D01*
X5293873Y-10968579D02*
X5284349Y-10949531D01*
X5284349Y-10949531D02*
X5274825Y-10920960D01*
X5274825Y-10920960D02*
X5265301Y-10873341D01*
X5265301Y-10873341D02*
X5265301Y-10835246D01*
X5265301Y-10835246D02*
X5274825Y-10787627D01*
X5274825Y-10787627D02*
X5284349Y-10759055D01*
X5284349Y-10759055D02*
X5293873Y-10740008D01*
X5293873Y-10740008D02*
X5312920Y-10711436D01*
X5312920Y-10711436D02*
X5322444Y-10701912D01*
X5398634Y-10797150D02*
X5398634Y-10930484D01*
X5398634Y-10816198D02*
X5408158Y-10806674D01*
X5408158Y-10806674D02*
X5427206Y-10797150D01*
X5427206Y-10797150D02*
X5455777Y-10797150D01*
X5455777Y-10797150D02*
X5474825Y-10806674D01*
X5474825Y-10806674D02*
X5484349Y-10825722D01*
X5484349Y-10825722D02*
X5484349Y-10930484D01*
X5608158Y-10930484D02*
X5589111Y-10920960D01*
X5589111Y-10920960D02*
X5579587Y-10911436D01*
X5579587Y-10911436D02*
X5570063Y-10892389D01*
X5570063Y-10892389D02*
X5570063Y-10835246D01*
X5570063Y-10835246D02*
X5579587Y-10816198D01*
X5579587Y-10816198D02*
X5589111Y-10806674D01*
X5589111Y-10806674D02*
X5608158Y-10797150D01*
X5608158Y-10797150D02*
X5636730Y-10797150D01*
X5636730Y-10797150D02*
X5655777Y-10806674D01*
X5655777Y-10806674D02*
X5665301Y-10816198D01*
X5665301Y-10816198D02*
X5674825Y-10835246D01*
X5674825Y-10835246D02*
X5674825Y-10892389D01*
X5674825Y-10892389D02*
X5665301Y-10911436D01*
X5665301Y-10911436D02*
X5655777Y-10920960D01*
X5655777Y-10920960D02*
X5636730Y-10930484D01*
X5636730Y-10930484D02*
X5608158Y-10930484D01*
X5731968Y-10797150D02*
X5808158Y-10797150D01*
X5760539Y-10730484D02*
X5760539Y-10901912D01*
X5760539Y-10901912D02*
X5770063Y-10920960D01*
X5770063Y-10920960D02*
X5789111Y-10930484D01*
X5789111Y-10930484D02*
X5808158Y-10930484D01*
X6027206Y-10797150D02*
X6027206Y-10997150D01*
X6027206Y-10806674D02*
X6046253Y-10797150D01*
X6046253Y-10797150D02*
X6084349Y-10797150D01*
X6084349Y-10797150D02*
X6103396Y-10806674D01*
X6103396Y-10806674D02*
X6112920Y-10816198D01*
X6112920Y-10816198D02*
X6122444Y-10835246D01*
X6122444Y-10835246D02*
X6122444Y-10892389D01*
X6122444Y-10892389D02*
X6112920Y-10911436D01*
X6112920Y-10911436D02*
X6103396Y-10920960D01*
X6103396Y-10920960D02*
X6084349Y-10930484D01*
X6084349Y-10930484D02*
X6046253Y-10930484D01*
X6046253Y-10930484D02*
X6027206Y-10920960D01*
X6236730Y-10930484D02*
X6217682Y-10920960D01*
X6217682Y-10920960D02*
X6208158Y-10901912D01*
X6208158Y-10901912D02*
X6208158Y-10730484D01*
X6398634Y-10930484D02*
X6398634Y-10825722D01*
X6398634Y-10825722D02*
X6389111Y-10806674D01*
X6389111Y-10806674D02*
X6370063Y-10797150D01*
X6370063Y-10797150D02*
X6331968Y-10797150D01*
X6331968Y-10797150D02*
X6312920Y-10806674D01*
X6398634Y-10920960D02*
X6379587Y-10930484D01*
X6379587Y-10930484D02*
X6331968Y-10930484D01*
X6331968Y-10930484D02*
X6312920Y-10920960D01*
X6312920Y-10920960D02*
X6303396Y-10901912D01*
X6303396Y-10901912D02*
X6303396Y-10882865D01*
X6303396Y-10882865D02*
X6312920Y-10863817D01*
X6312920Y-10863817D02*
X6331968Y-10854293D01*
X6331968Y-10854293D02*
X6379587Y-10854293D01*
X6379587Y-10854293D02*
X6398634Y-10844770D01*
X6465301Y-10797150D02*
X6541492Y-10797150D01*
X6493873Y-10730484D02*
X6493873Y-10901912D01*
X6493873Y-10901912D02*
X6503396Y-10920960D01*
X6503396Y-10920960D02*
X6522444Y-10930484D01*
X6522444Y-10930484D02*
X6541492Y-10930484D01*
X6684349Y-10920960D02*
X6665301Y-10930484D01*
X6665301Y-10930484D02*
X6627206Y-10930484D01*
X6627206Y-10930484D02*
X6608158Y-10920960D01*
X6608158Y-10920960D02*
X6598634Y-10901912D01*
X6598634Y-10901912D02*
X6598634Y-10825722D01*
X6598634Y-10825722D02*
X6608158Y-10806674D01*
X6608158Y-10806674D02*
X6627206Y-10797150D01*
X6627206Y-10797150D02*
X6665301Y-10797150D01*
X6665301Y-10797150D02*
X6684349Y-10806674D01*
X6684349Y-10806674D02*
X6693873Y-10825722D01*
X6693873Y-10825722D02*
X6693873Y-10844770D01*
X6693873Y-10844770D02*
X6598634Y-10863817D01*
X6865301Y-10930484D02*
X6865301Y-10730484D01*
X6865301Y-10920960D02*
X6846254Y-10930484D01*
X6846254Y-10930484D02*
X6808158Y-10930484D01*
X6808158Y-10930484D02*
X6789111Y-10920960D01*
X6789111Y-10920960D02*
X6779587Y-10911436D01*
X6779587Y-10911436D02*
X6770063Y-10892389D01*
X6770063Y-10892389D02*
X6770063Y-10835246D01*
X6770063Y-10835246D02*
X6779587Y-10816198D01*
X6779587Y-10816198D02*
X6789111Y-10806674D01*
X6789111Y-10806674D02*
X6808158Y-10797150D01*
X6808158Y-10797150D02*
X6846254Y-10797150D01*
X6846254Y-10797150D02*
X6865301Y-10806674D01*
X6941492Y-11006674D02*
X6951015Y-10997150D01*
X6951015Y-10997150D02*
X6970063Y-10968579D01*
X6970063Y-10968579D02*
X6979587Y-10949531D01*
X6979587Y-10949531D02*
X6989111Y-10920960D01*
X6989111Y-10920960D02*
X6998634Y-10873341D01*
X6998634Y-10873341D02*
X6998634Y-10835246D01*
X6998634Y-10835246D02*
X6989111Y-10787627D01*
X6989111Y-10787627D02*
X6979587Y-10759055D01*
X6979587Y-10759055D02*
X6970063Y-10740008D01*
X6970063Y-10740008D02*
X6951015Y-10711436D01*
X6951015Y-10711436D02*
X6941492Y-10701912D01*
M02*
