%TF.GenerationSoftware,KiCad,Pcbnew,10.0.3*%
%TF.CreationDate,2026-07-28T16:59:11-04:00*%
%TF.ProjectId,ClaudeMicro,436c6175-6465-44d6-9963-726f2e6b6963,rev?*%
%TF.SameCoordinates,Original*%
%TF.FileFunction,Drillmap*%
%TF.FilePolarity,Positive*%
%FSLAX45Y45*%
G04 Gerber Fmt 4.5, Leading zero omitted, Abs format (unit mm)*
G04 Created by KiCad (PCBNEW 10.0.3) date 2026-07-28 16:59:11*
%MOMM*%
%LPD*%
G01*
G04 APERTURE LIST*
%ADD10C,0.100000*%
%ADD11C,0.200000*%
%ADD12C,0.119999*%
%ADD13C,0.120000*%
%ADD14C,0.170002*%
G04 APERTURE END LIST*
D10*
X0Y-600000D02*
G75*
G02*
X600000Y0I600000J0D01*
G01*
X0Y-8400000D02*
X0Y-600000D01*
X600000Y0D02*
X8400000Y0D01*
X600000Y-9000000D02*
G75*
G02*
X0Y-8400000I0J600000D01*
G01*
X8400000Y0D02*
G75*
G02*
X9000000Y-600000I0J-600000D01*
G01*
X8400000Y-9000000D02*
X600000Y-9000000D01*
X9000000Y-600000D02*
X9000000Y-8400000D01*
X9000000Y-8400000D02*
G75*
G02*
X8400000Y-9000000I-600000J0D01*
G01*
D11*
D10*
X385000Y-385000D02*
X415000Y-415000D01*
X415000Y-385000D02*
X385000Y-415000D01*
X385000Y-985000D02*
X415000Y-1015000D01*
X415000Y-985000D02*
X385000Y-1015000D01*
X385000Y-1585000D02*
X415000Y-1615000D01*
X415000Y-1585000D02*
X385000Y-1615000D01*
X385000Y-2185000D02*
X415000Y-2215000D01*
X415000Y-2185000D02*
X385000Y-2215000D01*
X385000Y-2785000D02*
X415000Y-2815000D01*
X415000Y-2785000D02*
X385000Y-2815000D01*
X385000Y-3385000D02*
X415000Y-3415000D01*
X415000Y-3385000D02*
X385000Y-3415000D01*
X385000Y-3985000D02*
X415000Y-4015000D01*
X415000Y-3985000D02*
X385000Y-4015000D01*
X385000Y-4585000D02*
X415000Y-4615000D01*
X415000Y-4585000D02*
X385000Y-4615000D01*
X385000Y-5185000D02*
X415000Y-5215000D01*
X415000Y-5185000D02*
X385000Y-5215000D01*
X385000Y-5785000D02*
X415000Y-5815000D01*
X415000Y-5785000D02*
X385000Y-5815000D01*
X385000Y-6385000D02*
X415000Y-6415000D01*
X415000Y-6385000D02*
X385000Y-6415000D01*
X385000Y-6985000D02*
X415000Y-7015000D01*
X415000Y-6985000D02*
X385000Y-7015000D01*
X385000Y-7585000D02*
X415000Y-7615000D01*
X415000Y-7585000D02*
X385000Y-7615000D01*
X385000Y-8185000D02*
X415000Y-8215000D01*
X415000Y-8185000D02*
X385000Y-8215000D01*
X435000Y-7907500D02*
X465000Y-7937500D01*
X465000Y-7907500D02*
X435000Y-7937500D01*
X447850Y-6527520D02*
X477850Y-6557520D01*
X477850Y-6527520D02*
X447850Y-6557520D01*
X463090Y-7074410D02*
X493090Y-7104410D01*
X493090Y-7074410D02*
X463090Y-7104410D01*
X468710Y-6036210D02*
X498710Y-6066210D01*
X498710Y-6036210D02*
X468710Y-6066210D01*
X535000Y-6857060D02*
X565000Y-6887060D01*
X565000Y-6857060D02*
X535000Y-6887060D01*
X535000Y-8011520D02*
X565000Y-8041520D01*
X565000Y-8011520D02*
X535000Y-8041520D01*
X651300Y-8101810D02*
X681300Y-8131810D01*
X681300Y-8101810D02*
X651300Y-8131810D01*
X702430Y-3991130D02*
X732430Y-4021130D01*
X732430Y-3991130D02*
X702430Y-4021130D01*
X985000Y-385000D02*
X1015000Y-415000D01*
X1015000Y-385000D02*
X985000Y-415000D01*
X985000Y-985000D02*
X1015000Y-1015000D01*
X1015000Y-985000D02*
X985000Y-1015000D01*
X985000Y-1585000D02*
X1015000Y-1615000D01*
X1015000Y-1585000D02*
X985000Y-1615000D01*
X985000Y-2185000D02*
X1015000Y-2215000D01*
X1015000Y-2185000D02*
X985000Y-2215000D01*
X985000Y-2785000D02*
X1015000Y-2815000D01*
X1015000Y-2785000D02*
X985000Y-2815000D01*
X985000Y-4585000D02*
X1015000Y-4615000D01*
X1015000Y-4585000D02*
X985000Y-4615000D01*
X985000Y-6385000D02*
X1015000Y-6415000D01*
X1015000Y-6385000D02*
X985000Y-6415000D01*
X985000Y-6985000D02*
X1015000Y-7015000D01*
X1015000Y-6985000D02*
X985000Y-7015000D01*
X985000Y-8185000D02*
X1015000Y-8215000D01*
X1015000Y-8185000D02*
X985000Y-8215000D01*
X1269670Y-7765280D02*
X1299670Y-7795280D01*
X1299670Y-7765280D02*
X1269670Y-7795280D01*
X1315000Y-2898760D02*
X1345000Y-2928760D01*
X1345000Y-2898760D02*
X1315000Y-2928760D01*
X1315000Y-4765440D02*
X1345000Y-4795440D01*
X1345000Y-4765440D02*
X1315000Y-4795440D01*
X1315000Y-6632200D02*
X1345000Y-6662200D01*
X1345000Y-6632200D02*
X1315000Y-6662200D01*
X1343140Y-7809490D02*
X1373140Y-7839490D01*
X1373140Y-7809490D02*
X1343140Y-7839490D01*
X1414670Y-2504650D02*
X1444670Y-2534650D01*
X1444670Y-2504650D02*
X1414670Y-2534650D01*
X1423330Y-6557880D02*
X1453330Y-6587880D01*
X1453330Y-6557880D02*
X1423330Y-6587880D01*
X1439830Y-4805240D02*
X1469830Y-4835240D01*
X1469830Y-4805240D02*
X1439830Y-4835240D01*
X1477590Y-448250D02*
X1507590Y-478250D01*
X1507590Y-448250D02*
X1477590Y-478250D01*
X1477590Y-603250D02*
X1507590Y-633250D01*
X1507590Y-603250D02*
X1477590Y-633250D01*
X1482210Y-6230780D02*
X1512210Y-6260780D01*
X1512210Y-6230780D02*
X1482210Y-6260780D01*
X1545472Y-6296330D02*
X1575472Y-6326330D01*
X1575472Y-6296330D02*
X1545472Y-6326330D01*
X1582000Y-8405000D02*
X1612000Y-8435000D01*
X1612000Y-8405000D02*
X1582000Y-8435000D01*
X1582000Y-8865000D02*
X1612000Y-8895000D01*
X1612000Y-8865000D02*
X1582000Y-8895000D01*
X1585000Y-385000D02*
X1615000Y-415000D01*
X1615000Y-385000D02*
X1585000Y-415000D01*
X1585000Y-985000D02*
X1615000Y-1015000D01*
X1615000Y-985000D02*
X1585000Y-1015000D01*
X1585000Y-1585000D02*
X1615000Y-1615000D01*
X1615000Y-1585000D02*
X1585000Y-1615000D01*
X1585000Y-2185000D02*
X1615000Y-2215000D01*
X1615000Y-2185000D02*
X1585000Y-2215000D01*
X1585000Y-2785000D02*
X1615000Y-2815000D01*
X1615000Y-2785000D02*
X1585000Y-2815000D01*
X1585000Y-4585000D02*
X1615000Y-4615000D01*
X1615000Y-4585000D02*
X1585000Y-4615000D01*
X1585000Y-8185000D02*
X1615000Y-8215000D01*
X1615000Y-8185000D02*
X1585000Y-8215000D01*
X1855000Y-3044760D02*
X1885000Y-3074760D01*
X1885000Y-3044760D02*
X1855000Y-3074760D01*
X1855000Y-4911440D02*
X1885000Y-4941440D01*
X1885000Y-4911440D02*
X1855000Y-4941440D01*
X1866310Y-7532900D02*
X1896310Y-7562900D01*
X1896310Y-7532900D02*
X1866310Y-7562900D01*
X1912000Y-7775200D02*
X1942000Y-7805200D01*
X1942000Y-7775200D02*
X1912000Y-7805200D01*
X1935000Y-8157500D02*
X1965000Y-8187500D01*
X1965000Y-8157500D02*
X1935000Y-8187500D01*
X2185000Y-985000D02*
X2215000Y-1015000D01*
X2215000Y-985000D02*
X2185000Y-1015000D01*
X2185000Y-1585000D02*
X2215000Y-1615000D01*
X2215000Y-1585000D02*
X2185000Y-1615000D01*
X2185000Y-2185000D02*
X2215000Y-2215000D01*
X2215000Y-2185000D02*
X2185000Y-2215000D01*
X2185000Y-2785000D02*
X2215000Y-2815000D01*
X2215000Y-2785000D02*
X2185000Y-2815000D01*
X2185000Y-3985000D02*
X2215000Y-4015000D01*
X2215000Y-3985000D02*
X2185000Y-4015000D01*
X2185000Y-4585000D02*
X2215000Y-4615000D01*
X2215000Y-4585000D02*
X2185000Y-4615000D01*
X2185000Y-5785000D02*
X2215000Y-5815000D01*
X2215000Y-5785000D02*
X2185000Y-5815000D01*
X2185000Y-6385000D02*
X2215000Y-6415000D01*
X2215000Y-6385000D02*
X2185000Y-6415000D01*
X2185000Y-8185000D02*
X2215000Y-8215000D01*
X2215000Y-8185000D02*
X2185000Y-8215000D01*
X2205000Y-440000D02*
X2235000Y-470000D01*
X2235000Y-440000D02*
X2205000Y-470000D01*
X2283150Y-4133040D02*
X2313150Y-4163040D01*
X2313150Y-4133040D02*
X2283150Y-4163040D01*
X2283150Y-5738790D02*
X2313150Y-5768790D01*
X2313150Y-5738790D02*
X2283150Y-5768790D01*
X2283150Y-5893790D02*
X2313150Y-5923790D01*
X2313150Y-5893790D02*
X2283150Y-5923790D01*
X2304000Y-7485000D02*
X2334000Y-7515000D01*
X2334000Y-7485000D02*
X2304000Y-7515000D01*
X2435000Y-8307500D02*
X2465000Y-8337500D01*
X2465000Y-8307500D02*
X2435000Y-8337500D01*
X2437320Y-2722200D02*
X2467320Y-2752200D01*
X2467320Y-2722200D02*
X2437320Y-2752200D01*
X2465000Y-440000D02*
X2495000Y-470000D01*
X2495000Y-440000D02*
X2465000Y-470000D01*
X2465000Y-630000D02*
X2495000Y-660000D01*
X2495000Y-630000D02*
X2465000Y-660000D01*
X2534330Y-699380D02*
X2564330Y-729380D01*
X2564330Y-699380D02*
X2534330Y-729380D01*
X2534414Y-8451550D02*
X2564414Y-8481550D01*
X2564414Y-8451550D02*
X2534414Y-8481550D01*
X2577530Y-3992060D02*
X2607530Y-4022060D01*
X2607530Y-3992060D02*
X2577530Y-4022060D01*
X2680370Y-5859170D02*
X2710370Y-5889170D01*
X2710370Y-5859170D02*
X2680370Y-5889170D01*
X2703040Y-7424210D02*
X2733040Y-7454210D01*
X2733040Y-7424210D02*
X2703040Y-7454210D01*
X2775000Y-8470000D02*
X2805000Y-8500000D01*
X2805000Y-8470000D02*
X2775000Y-8500000D01*
X2781800Y-8057430D02*
X2811800Y-8087430D01*
X2811800Y-8057430D02*
X2781800Y-8087430D01*
X2785000Y-385000D02*
X2815000Y-415000D01*
X2815000Y-385000D02*
X2785000Y-415000D01*
X2832000Y-7743340D02*
X2862000Y-7773340D01*
X2862000Y-7743340D02*
X2832000Y-7773340D01*
X2885000Y-402500D02*
X2915000Y-432500D01*
X2915000Y-402500D02*
X2885000Y-432500D01*
X2973240Y-576340D02*
X3003240Y-606340D01*
X3003240Y-576340D02*
X2973240Y-606340D01*
X2995000Y-8300000D02*
X3025000Y-8330000D01*
X3025000Y-8300000D02*
X2995000Y-8330000D01*
X3062500Y-7135000D02*
X3092500Y-7165000D01*
X3092500Y-7135000D02*
X3062500Y-7165000D01*
X3111320Y-7860300D02*
X3141320Y-7890300D01*
X3141320Y-7860300D02*
X3111320Y-7890300D01*
X3146000Y-8317920D02*
X3176000Y-8347920D01*
X3176000Y-8317920D02*
X3146000Y-8347920D01*
X3185000Y-402500D02*
X3215000Y-432500D01*
X3215000Y-402500D02*
X3185000Y-432500D01*
X3248330Y-1032000D02*
X3278330Y-1062000D01*
X3278330Y-1032000D02*
X3248330Y-1062000D01*
X3248330Y-2898760D02*
X3278330Y-2928760D01*
X3278330Y-2898760D02*
X3248330Y-2928760D01*
X3248330Y-4765440D02*
X3278330Y-4795440D01*
X3278330Y-4765440D02*
X3248330Y-4795440D01*
X3252321Y-7815252D02*
X3282321Y-7845252D01*
X3282321Y-7815252D02*
X3252321Y-7845252D01*
X3385000Y-385000D02*
X3415000Y-415000D01*
X3415000Y-385000D02*
X3385000Y-415000D01*
X3385000Y-985000D02*
X3415000Y-1015000D01*
X3415000Y-985000D02*
X3385000Y-1015000D01*
X3385000Y-2785000D02*
X3415000Y-2815000D01*
X3415000Y-2785000D02*
X3385000Y-2815000D01*
X3385000Y-4585000D02*
X3415000Y-4615000D01*
X3415000Y-4585000D02*
X3385000Y-4615000D01*
X3385000Y-6385000D02*
X3415000Y-6415000D01*
X3415000Y-6385000D02*
X3385000Y-6415000D01*
X3479210Y-7982490D02*
X3509210Y-8012490D01*
X3509210Y-7982490D02*
X3479210Y-8012490D01*
X3548390Y-7984830D02*
X3578390Y-8014830D01*
X3578390Y-7984830D02*
X3548390Y-8014830D01*
X3635000Y-8651500D02*
X3665000Y-8681500D01*
X3665000Y-8651500D02*
X3635000Y-8681500D01*
X3762500Y-8825000D02*
X3792500Y-8855000D01*
X3792500Y-8825000D02*
X3762500Y-8855000D01*
X3788330Y-1178000D02*
X3818330Y-1208000D01*
X3818330Y-1178000D02*
X3788330Y-1208000D01*
X3788330Y-4911440D02*
X3818330Y-4941440D01*
X3818330Y-4911440D02*
X3788330Y-4941440D01*
X3803330Y-3076741D02*
X3833330Y-3106741D01*
X3833330Y-3076741D02*
X3803330Y-3106741D01*
X3826460Y-8454470D02*
X3856460Y-8484470D01*
X3856460Y-8454470D02*
X3826460Y-8484470D01*
X3845330Y-2175000D02*
X3875330Y-2205000D01*
X3875330Y-2175000D02*
X3845330Y-2205000D01*
X3845330Y-4041760D02*
X3875330Y-4071760D01*
X3875330Y-4041760D02*
X3845330Y-4071760D01*
X3845330Y-5908440D02*
X3875330Y-5938440D01*
X3875330Y-5908440D02*
X3845330Y-5938440D01*
X3891880Y-8497240D02*
X3921880Y-8527240D01*
X3921880Y-8497240D02*
X3891880Y-8527240D01*
X3932420Y-8435480D02*
X3962420Y-8465480D01*
X3962420Y-8435480D02*
X3932420Y-8465480D01*
X3985000Y-385000D02*
X4015000Y-415000D01*
X4015000Y-385000D02*
X3985000Y-415000D01*
X3985000Y-2185000D02*
X4015000Y-2215000D01*
X4015000Y-2185000D02*
X3985000Y-2215000D01*
X3985000Y-2785000D02*
X4015000Y-2815000D01*
X4015000Y-2785000D02*
X3985000Y-2815000D01*
X3985000Y-3985000D02*
X4015000Y-4015000D01*
X4015000Y-3985000D02*
X3985000Y-4015000D01*
X3985000Y-4585000D02*
X4015000Y-4615000D01*
X4015000Y-4585000D02*
X3985000Y-4615000D01*
X3985000Y-5785000D02*
X4015000Y-5815000D01*
X4015000Y-5785000D02*
X3985000Y-5815000D01*
X3985000Y-6385000D02*
X4015000Y-6415000D01*
X4015000Y-6385000D02*
X3985000Y-6415000D01*
X3985000Y-6985000D02*
X4015000Y-7015000D01*
X4015000Y-6985000D02*
X3985000Y-7015000D01*
X4007280Y-8498070D02*
X4037280Y-8528070D01*
X4037280Y-8498070D02*
X4007280Y-8528070D01*
X4026730Y-8207940D02*
X4056730Y-8237940D01*
X4056730Y-8207940D02*
X4026730Y-8237940D01*
X4050480Y-8069650D02*
X4080480Y-8099650D01*
X4080480Y-8069650D02*
X4050480Y-8099650D01*
X4060440Y-8453400D02*
X4090440Y-8483400D01*
X4090440Y-8453400D02*
X4060440Y-8483400D01*
X4060750Y-8542750D02*
X4090750Y-8572750D01*
X4090750Y-8542750D02*
X4060750Y-8572750D01*
X4089290Y-6742720D02*
X4119290Y-6772720D01*
X4119290Y-6742720D02*
X4089290Y-6772720D01*
X4109050Y-7967160D02*
X4139050Y-7997160D01*
X4139050Y-7967160D02*
X4109050Y-7997160D01*
X4161220Y-8075420D02*
X4191220Y-8105420D01*
X4191220Y-8075420D02*
X4161220Y-8105420D01*
X4211180Y-7748680D02*
X4241180Y-7778680D01*
X4241180Y-7748680D02*
X4211180Y-7778680D01*
X4216480Y-2217210D02*
X4246480Y-2247210D01*
X4246480Y-2217210D02*
X4216480Y-2247210D01*
X4216480Y-2372210D02*
X4246480Y-2402210D01*
X4246480Y-2372210D02*
X4216480Y-2402210D01*
X4216480Y-3978040D02*
X4246480Y-4008040D01*
X4246480Y-3978040D02*
X4216480Y-4008040D01*
X4216480Y-4133040D02*
X4246480Y-4163040D01*
X4246480Y-4133040D02*
X4216480Y-4163040D01*
X4216480Y-5738790D02*
X4246480Y-5768790D01*
X4246480Y-5738790D02*
X4216480Y-5768790D01*
X4216480Y-5893790D02*
X4246480Y-5923790D01*
X4246480Y-5893790D02*
X4216480Y-5923790D01*
X4225000Y-8808900D02*
X4255000Y-8838900D01*
X4255000Y-8808900D02*
X4225000Y-8838900D01*
X4225400Y-8492350D02*
X4255400Y-8522350D01*
X4255400Y-8492350D02*
X4225400Y-8522350D01*
X4254430Y-8584250D02*
X4284430Y-8614250D01*
X4284430Y-8584250D02*
X4254430Y-8614250D01*
X4304880Y-8645280D02*
X4334880Y-8675280D01*
X4334880Y-8645280D02*
X4304880Y-8675280D01*
X4345000Y-8809230D02*
X4375000Y-8839230D01*
X4375000Y-8809230D02*
X4345000Y-8839230D01*
X4375160Y-8188050D02*
X4405160Y-8218050D01*
X4405160Y-8188050D02*
X4375160Y-8218050D01*
X4376910Y-8579670D02*
X4406910Y-8609670D01*
X4406910Y-8579670D02*
X4376910Y-8609670D01*
X4465000Y-8141730D02*
X4495000Y-8171730D01*
X4495000Y-8141730D02*
X4465000Y-8171730D01*
X4507150Y-8590220D02*
X4537150Y-8620220D01*
X4537150Y-8590220D02*
X4507150Y-8620220D01*
X4556890Y-8851210D02*
X4586890Y-8881210D01*
X4586890Y-8851210D02*
X4556890Y-8881210D01*
X4585000Y-385000D02*
X4615000Y-415000D01*
X4615000Y-385000D02*
X4585000Y-415000D01*
X4585000Y-1585000D02*
X4615000Y-1615000D01*
X4615000Y-1585000D02*
X4585000Y-1615000D01*
X4585000Y-2185000D02*
X4615000Y-2215000D01*
X4615000Y-2185000D02*
X4585000Y-2215000D01*
X4585000Y-3385000D02*
X4615000Y-3415000D01*
X4615000Y-3385000D02*
X4585000Y-3415000D01*
X4594800Y-7952500D02*
X4624800Y-7982500D01*
X4624800Y-7952500D02*
X4594800Y-7982500D01*
X4595940Y-8137280D02*
X4625940Y-8167280D01*
X4625940Y-8137280D02*
X4595940Y-8167280D01*
X4599900Y-4000130D02*
X4629900Y-4030130D01*
X4629900Y-4000130D02*
X4599900Y-4030130D01*
X4600790Y-8600440D02*
X4630790Y-8630440D01*
X4630790Y-8600440D02*
X4600790Y-8630440D01*
X4624670Y-2125760D02*
X4654670Y-2155760D01*
X4654670Y-2125760D02*
X4624670Y-2155760D01*
X4665000Y-7959470D02*
X4695000Y-7989470D01*
X4695000Y-7959470D02*
X4665000Y-7989470D01*
X4681070Y-8530740D02*
X4711070Y-8560740D01*
X4711070Y-8530740D02*
X4681070Y-8560740D01*
X4718880Y-8145000D02*
X4748880Y-8175000D01*
X4748880Y-8145000D02*
X4718880Y-8175000D01*
X4725000Y-8472912D02*
X4755000Y-8502912D01*
X4755000Y-8472912D02*
X4725000Y-8502912D01*
X4740620Y-8323700D02*
X4770620Y-8353700D01*
X4770620Y-8323700D02*
X4740620Y-8353700D01*
X4744800Y-8234350D02*
X4774800Y-8264350D01*
X4774800Y-8234350D02*
X4744800Y-8264350D01*
X4772184Y-6725661D02*
X4802184Y-6755661D01*
X4802184Y-6725661D02*
X4772184Y-6755661D01*
X4812000Y-7775200D02*
X4842000Y-7805200D01*
X4842000Y-7775200D02*
X4812000Y-7805200D01*
X4843410Y-8034110D02*
X4873410Y-8064110D01*
X4873410Y-8034110D02*
X4843410Y-8064110D01*
X4908670Y-8154250D02*
X4938670Y-8184250D01*
X4938670Y-8154250D02*
X4908670Y-8184250D01*
X4908970Y-8323560D02*
X4938970Y-8353560D01*
X4938970Y-8323560D02*
X4908970Y-8353560D01*
X4911330Y-7994720D02*
X4941330Y-8024720D01*
X4941330Y-7994720D02*
X4911330Y-8024720D01*
X4937460Y-8666340D02*
X4967460Y-8696340D01*
X4967460Y-8666340D02*
X4937460Y-8696340D01*
X4989640Y-7892150D02*
X5019640Y-7922150D01*
X5019640Y-7892150D02*
X4989640Y-7922150D01*
X4989770Y-7673190D02*
X5019770Y-7703190D01*
X5019770Y-7673190D02*
X4989770Y-7703190D01*
X5017730Y-739220D02*
X5047730Y-769220D01*
X5047730Y-739220D02*
X5017730Y-769220D01*
X5124250Y-8303750D02*
X5154250Y-8333750D01*
X5154250Y-8303750D02*
X5124250Y-8333750D01*
X5181670Y-1032000D02*
X5211670Y-1062000D01*
X5211670Y-1032000D02*
X5181670Y-1062000D01*
X5181670Y-2898760D02*
X5211670Y-2928760D01*
X5211670Y-2898760D02*
X5181670Y-2928760D01*
X5181670Y-4765440D02*
X5211670Y-4795440D01*
X5211670Y-4765440D02*
X5181670Y-4795440D01*
X5185000Y-385000D02*
X5215000Y-415000D01*
X5215000Y-385000D02*
X5185000Y-415000D01*
X5185000Y-985000D02*
X5215000Y-1015000D01*
X5215000Y-985000D02*
X5185000Y-1015000D01*
X5185000Y-2185000D02*
X5215000Y-2215000D01*
X5215000Y-2185000D02*
X5185000Y-2215000D01*
X5185000Y-3985000D02*
X5215000Y-4015000D01*
X5215000Y-3985000D02*
X5185000Y-4015000D01*
X5185000Y-6385000D02*
X5215000Y-6415000D01*
X5215000Y-6385000D02*
X5185000Y-6415000D01*
X5185000Y-6985000D02*
X5215000Y-7015000D01*
X5215000Y-6985000D02*
X5185000Y-7015000D01*
X5187756Y-4579670D02*
X5217756Y-4609670D01*
X5217756Y-4579670D02*
X5187756Y-4609670D01*
X5312500Y-8065000D02*
X5342500Y-8095000D01*
X5342500Y-8065000D02*
X5312500Y-8095000D01*
X5545500Y-8847400D02*
X5575500Y-8877400D01*
X5575500Y-8847400D02*
X5545500Y-8877400D01*
X5595910Y-1056290D02*
X5625910Y-1086290D01*
X5625910Y-1056290D02*
X5595910Y-1086290D01*
X5635000Y-8657500D02*
X5665000Y-8687500D01*
X5665000Y-8657500D02*
X5635000Y-8687500D01*
X5662500Y-7685000D02*
X5692500Y-7715000D01*
X5692500Y-7685000D02*
X5662500Y-7715000D01*
X5685000Y-670000D02*
X5715000Y-700000D01*
X5715000Y-670000D02*
X5685000Y-700000D01*
X5685000Y-900000D02*
X5715000Y-930000D01*
X5715000Y-900000D02*
X5685000Y-930000D01*
X5694457Y-1199213D02*
X5724457Y-1229213D01*
X5724457Y-1199213D02*
X5694457Y-1229213D01*
X5785000Y-385000D02*
X5815000Y-415000D01*
X5815000Y-385000D02*
X5785000Y-415000D01*
X5785000Y-7585000D02*
X5815000Y-7615000D01*
X5815000Y-7585000D02*
X5785000Y-7615000D01*
X5849390Y-4702820D02*
X5879390Y-4732820D01*
X5879390Y-4702820D02*
X5849390Y-4732820D01*
X5939890Y-1762930D02*
X5969890Y-1792930D01*
X5969890Y-1762930D02*
X5939890Y-1792930D01*
X6112500Y-8065000D02*
X6142500Y-8095000D01*
X6142500Y-8065000D02*
X6112500Y-8095000D01*
X6149810Y-2217210D02*
X6179810Y-2247210D01*
X6179810Y-2217210D02*
X6149810Y-2247210D01*
X6149810Y-2372210D02*
X6179810Y-2402210D01*
X6179810Y-2372210D02*
X6149810Y-2402210D01*
X6149810Y-3978040D02*
X6179810Y-4008040D01*
X6179810Y-3978040D02*
X6149810Y-4008040D01*
X6149810Y-4133040D02*
X6179810Y-4163040D01*
X6179810Y-4133040D02*
X6149810Y-4163040D01*
X6149810Y-5738790D02*
X6179810Y-5768790D01*
X6179810Y-5738790D02*
X6149810Y-5768790D01*
X6149810Y-5893790D02*
X6179810Y-5923790D01*
X6179810Y-5893790D02*
X6149810Y-5923790D01*
X6197250Y-411380D02*
X6227250Y-441380D01*
X6227250Y-411380D02*
X6197250Y-441380D01*
X6385000Y-385000D02*
X6415000Y-415000D01*
X6415000Y-385000D02*
X6385000Y-415000D01*
X6385000Y-985000D02*
X6415000Y-1015000D01*
X6415000Y-985000D02*
X6385000Y-1015000D01*
X6385000Y-1585000D02*
X6415000Y-1615000D01*
X6415000Y-1585000D02*
X6385000Y-1615000D01*
X6385000Y-2185000D02*
X6415000Y-2215000D01*
X6415000Y-2185000D02*
X6385000Y-2215000D01*
X6385000Y-3385000D02*
X6415000Y-3415000D01*
X6415000Y-3385000D02*
X6385000Y-3415000D01*
X6385000Y-6985000D02*
X6415000Y-7015000D01*
X6415000Y-6985000D02*
X6385000Y-7015000D01*
X6434100Y-7797390D02*
X6464100Y-7827390D01*
X6464100Y-7797390D02*
X6434100Y-7827390D01*
X6518800Y-468700D02*
X6548800Y-498700D01*
X6548800Y-468700D02*
X6518800Y-498700D01*
X6521830Y-7750480D02*
X6551830Y-7780480D01*
X6551830Y-7750480D02*
X6521830Y-7780480D01*
X6541030Y-8503800D02*
X6571030Y-8533800D01*
X6571030Y-8503800D02*
X6541030Y-8533800D01*
X6558000Y-5858190D02*
X6588000Y-5888190D01*
X6588000Y-5858190D02*
X6558000Y-5888190D01*
X6565510Y-8247170D02*
X6595510Y-8277170D01*
X6595510Y-8247170D02*
X6565510Y-8277170D01*
X6604880Y-6507430D02*
X6634880Y-6537430D01*
X6634880Y-6507430D02*
X6604880Y-6537430D01*
X6648000Y-8184520D02*
X6678000Y-8214520D01*
X6678000Y-8184520D02*
X6648000Y-8214520D01*
X6763570Y-4911440D02*
X6793570Y-4941440D01*
X6793570Y-4911440D02*
X6763570Y-4941440D01*
X6775000Y-8891210D02*
X6805000Y-8921210D01*
X6805000Y-8891210D02*
X6775000Y-8921210D01*
X6985000Y-385000D02*
X7015000Y-415000D01*
X7015000Y-385000D02*
X6985000Y-415000D01*
X6985000Y-985000D02*
X7015000Y-1015000D01*
X7015000Y-985000D02*
X6985000Y-1015000D01*
X6985000Y-3385000D02*
X7015000Y-3415000D01*
X7015000Y-3385000D02*
X6985000Y-3415000D01*
X6985000Y-4585000D02*
X7015000Y-4615000D01*
X7015000Y-4585000D02*
X6985000Y-4615000D01*
X6985000Y-5185000D02*
X7015000Y-5215000D01*
X7015000Y-5185000D02*
X6985000Y-5215000D01*
X6985000Y-6385000D02*
X7015000Y-6415000D01*
X7015000Y-6385000D02*
X6985000Y-6415000D01*
X6985000Y-6985000D02*
X7015000Y-7015000D01*
X7015000Y-6985000D02*
X6985000Y-7015000D01*
X6985000Y-8185000D02*
X7015000Y-8215000D01*
X7015000Y-8185000D02*
X6985000Y-8215000D01*
X7115000Y-2898760D02*
X7145000Y-2928760D01*
X7145000Y-2898760D02*
X7115000Y-2928760D01*
X7115000Y-6632200D02*
X7145000Y-6662200D01*
X7145000Y-6632200D02*
X7115000Y-6662200D01*
X7529700Y-6606570D02*
X7559700Y-6636570D01*
X7559700Y-6606570D02*
X7529700Y-6636570D01*
X7530120Y-2898760D02*
X7560120Y-2928760D01*
X7560120Y-2898760D02*
X7530120Y-2928760D01*
X7530120Y-4765440D02*
X7560120Y-4795440D01*
X7560120Y-4765440D02*
X7530120Y-4795440D01*
X7585000Y-385000D02*
X7615000Y-415000D01*
X7615000Y-385000D02*
X7585000Y-415000D01*
X7585000Y-985000D02*
X7615000Y-1015000D01*
X7615000Y-985000D02*
X7585000Y-1015000D01*
X7585000Y-2185000D02*
X7615000Y-2215000D01*
X7615000Y-2185000D02*
X7585000Y-2215000D01*
X7585000Y-2785000D02*
X7615000Y-2815000D01*
X7615000Y-2785000D02*
X7585000Y-2815000D01*
X7585000Y-4585000D02*
X7615000Y-4615000D01*
X7615000Y-4585000D02*
X7585000Y-4615000D01*
X7585000Y-6385000D02*
X7615000Y-6415000D01*
X7615000Y-6385000D02*
X7585000Y-6415000D01*
X7585000Y-7585000D02*
X7615000Y-7615000D01*
X7615000Y-7585000D02*
X7585000Y-7615000D01*
X7585000Y-8185000D02*
X7615000Y-8215000D01*
X7615000Y-8185000D02*
X7585000Y-8215000D01*
X7655000Y-3044760D02*
X7685000Y-3074760D01*
X7685000Y-3044760D02*
X7655000Y-3074760D01*
X7655000Y-4911440D02*
X7685000Y-4941440D01*
X7685000Y-4911440D02*
X7655000Y-4941440D01*
X7655000Y-6778200D02*
X7685000Y-6808200D01*
X7685000Y-6778200D02*
X7655000Y-6808200D01*
X7712000Y-4041760D02*
X7742000Y-4071760D01*
X7742000Y-4041760D02*
X7712000Y-4071760D01*
X7712000Y-5908440D02*
X7742000Y-5938440D01*
X7742000Y-5908440D02*
X7712000Y-5938440D01*
X7712000Y-7775200D02*
X7742000Y-7805200D01*
X7742000Y-7775200D02*
X7712000Y-7805200D01*
X7835000Y-8200000D02*
X7865000Y-8230000D01*
X7865000Y-8200000D02*
X7835000Y-8230000D01*
X7835000Y-8570000D02*
X7865000Y-8600000D01*
X7865000Y-8570000D02*
X7835000Y-8600000D01*
X7975740Y-7499620D02*
X8005740Y-7529620D01*
X8005740Y-7499620D02*
X7975740Y-7529620D01*
X7975740Y-7654620D02*
X8005740Y-7684620D01*
X8005740Y-7654620D02*
X7975740Y-7684620D01*
X8083150Y-3978040D02*
X8113150Y-4008040D01*
X8113150Y-3978040D02*
X8083150Y-4008040D01*
X8083150Y-4133040D02*
X8113150Y-4163040D01*
X8113150Y-4133040D02*
X8083150Y-4163040D01*
X8083150Y-5738790D02*
X8113150Y-5768790D01*
X8113150Y-5738790D02*
X8083150Y-5768790D01*
X8083150Y-5893790D02*
X8113150Y-5923790D01*
X8113150Y-5893790D02*
X8083150Y-5923790D01*
X8185000Y-385000D02*
X8215000Y-415000D01*
X8215000Y-385000D02*
X8185000Y-415000D01*
X8185000Y-985000D02*
X8215000Y-1015000D01*
X8215000Y-985000D02*
X8185000Y-1015000D01*
X8185000Y-1585000D02*
X8215000Y-1615000D01*
X8215000Y-1585000D02*
X8185000Y-1615000D01*
X8185000Y-2185000D02*
X8215000Y-2215000D01*
X8215000Y-2185000D02*
X8185000Y-2215000D01*
X8185000Y-2785000D02*
X8215000Y-2815000D01*
X8215000Y-2785000D02*
X8185000Y-2815000D01*
X8185000Y-3385000D02*
X8215000Y-3415000D01*
X8215000Y-3385000D02*
X8185000Y-3415000D01*
X8185000Y-3985000D02*
X8215000Y-4015000D01*
X8215000Y-3985000D02*
X8185000Y-4015000D01*
X8185000Y-4585000D02*
X8215000Y-4615000D01*
X8215000Y-4585000D02*
X8185000Y-4615000D01*
X8185000Y-5185000D02*
X8215000Y-5215000D01*
X8215000Y-5185000D02*
X8185000Y-5215000D01*
X8185000Y-5785000D02*
X8215000Y-5815000D01*
X8215000Y-5785000D02*
X8185000Y-5815000D01*
X8185000Y-6385000D02*
X8215000Y-6415000D01*
X8215000Y-6385000D02*
X8185000Y-6415000D01*
X8185000Y-6985000D02*
X8215000Y-7015000D01*
X8215000Y-6985000D02*
X8185000Y-7015000D01*
X8185000Y-7585000D02*
X8215000Y-7615000D01*
X8215000Y-7585000D02*
X8185000Y-7615000D01*
X8185000Y-8185000D02*
X8215000Y-8215000D01*
X8215000Y-8185000D02*
X8185000Y-8215000D01*
X4247500Y-657500D02*
G75*
G02*
X4172500Y-657500I-37500J0D01*
G01*
X4172500Y-657500D02*
G75*
G02*
X4247500Y-657500I37500J0D01*
G01*
X4827500Y-657500D02*
G75*
G02*
X4752500Y-657500I-37500J0D01*
G01*
X4752500Y-657500D02*
G75*
G02*
X4827500Y-657500I37500J0D01*
G01*
X4067000Y-249500D02*
X4067000Y-329500D01*
X4027000Y-289500D02*
X4107000Y-289500D01*
X4027000Y-259500D02*
X4027000Y-319500D01*
X4107000Y-319500D02*
G75*
G02*
X4027000Y-319500I-40000J0D01*
G01*
X4107000Y-319500D02*
X4107000Y-259500D01*
X4107000Y-259500D02*
G75*
G03*
X4027000Y-259500I-40000J0D01*
G01*
X4067000Y-667500D02*
X4067000Y-747500D01*
X4027000Y-707500D02*
X4107000Y-707500D01*
X4027000Y-667499D02*
X4027000Y-747501D01*
X4107000Y-747501D02*
G75*
G02*
X4027000Y-747501I-40000J0D01*
G01*
X4107000Y-747501D02*
X4107000Y-667499D01*
X4107000Y-667499D02*
G75*
G03*
X4027000Y-667499I-40000J0D01*
G01*
X4933000Y-249500D02*
X4933000Y-329500D01*
X4893000Y-289500D02*
X4973000Y-289500D01*
X4893000Y-259500D02*
X4893000Y-319500D01*
X4973000Y-319500D02*
G75*
G02*
X4893000Y-319500I-40000J0D01*
G01*
X4973000Y-319500D02*
X4973000Y-259500D01*
X4973000Y-259500D02*
G75*
G03*
X4893000Y-259500I-40000J0D01*
G01*
X4933000Y-667500D02*
X4933000Y-747500D01*
X4893000Y-707500D02*
X4973000Y-707500D01*
X4893000Y-667501D02*
X4893000Y-747499D01*
X4973000Y-747499D02*
G75*
G02*
X4893000Y-747499I-40000J0D01*
G01*
X4973000Y-747499D02*
X4973000Y-667501D01*
X4973000Y-667501D02*
G75*
G03*
X4893000Y-667501I-40000J0D01*
G01*
X6920356Y-1680356D02*
X6920356Y-1609644D01*
X6849644Y-1609644D01*
X6849644Y-1680356D01*
X6920356Y-1680356D01*
X7950356Y-1680356D02*
X7950356Y-1609644D01*
X7879644Y-1609644D01*
X7879644Y-1680356D01*
X7950356Y-1680356D01*
D12*
X1296000Y-635000D02*
X1356000Y-575000D01*
X1296000Y-515000D01*
X1236000Y-575000D01*
X1296000Y-635000D01*
X1296000Y-2085000D02*
X1356000Y-2025000D01*
X1296000Y-1965000D01*
X1236000Y-2025000D01*
X1296000Y-2085000D01*
X1550000Y-2085000D02*
X1610000Y-2025000D01*
X1550000Y-1965000D01*
X1490000Y-2025000D01*
X1550000Y-2085000D01*
X1804000Y-635000D02*
X1864000Y-575000D01*
X1804000Y-515000D01*
X1744000Y-575000D01*
X1804000Y-635000D01*
X1804000Y-2085000D02*
X1864000Y-2025000D01*
X1804000Y-1965000D01*
X1744000Y-2025000D01*
X1804000Y-2085000D01*
D13*
X6825000Y-1215000D02*
X6945000Y-1335000D01*
X6945000Y-1215000D02*
X6825000Y-1335000D01*
X6945000Y-1275000D02*
G75*
G02*
X6825000Y-1275000I-60000J0D01*
G01*
X6825000Y-1275000D02*
G75*
G02*
X6945000Y-1275000I60000J0D01*
G01*
X6825000Y-1865000D02*
X6945000Y-1985000D01*
X6945000Y-1865000D02*
X6825000Y-1985000D01*
X6945000Y-1925000D02*
G75*
G02*
X6825000Y-1925000I-60000J0D01*
G01*
X6825000Y-1925000D02*
G75*
G02*
X6945000Y-1925000I60000J0D01*
G01*
X7855000Y-1215000D02*
X7975000Y-1335000D01*
X7975000Y-1215000D02*
X7855000Y-1335000D01*
X7975000Y-1275000D02*
G75*
G02*
X7855000Y-1275000I-60000J0D01*
G01*
X7855000Y-1275000D02*
G75*
G02*
X7975000Y-1275000I60000J0D01*
G01*
X7855000Y-1865000D02*
X7975000Y-1985000D01*
X7975000Y-1865000D02*
X7855000Y-1985000D01*
X7975000Y-1925000D02*
G75*
G02*
X7855000Y-1925000I-60000J0D01*
G01*
X7855000Y-1925000D02*
G75*
G02*
X7975000Y-1925000I60000J0D01*
G01*
D14*
X839999Y-1189999D02*
X1010001Y-1360001D01*
X1010001Y-1189999D02*
X839999Y-1360001D01*
X925000Y-1189999D02*
X925000Y-1360001D01*
X839999Y-1275000D02*
X1010001Y-1275000D01*
D10*
X1010001Y-1329999D02*
X1010001Y-1220001D01*
X839999Y-1220001D02*
G75*
G02*
X1010001Y-1220001I85001J0D01*
G01*
X839999Y-1220001D02*
X839999Y-1329999D01*
X839999Y-1329999D02*
G75*
G03*
X1010001Y-1329999I85001J0D01*
G01*
D14*
X2089999Y-1189999D02*
X2260001Y-1360001D01*
X2260001Y-1189999D02*
X2089999Y-1360001D01*
X2175000Y-1189999D02*
X2175000Y-1360001D01*
X2089999Y-1275000D02*
X2260001Y-1275000D01*
D10*
X2260001Y-1329999D02*
X2260001Y-1220001D01*
X2089999Y-1220001D02*
G75*
G02*
X2260001Y-1220001I85001J0D01*
G01*
X2089999Y-1220001D02*
X2089999Y-1329999D01*
X2089999Y-1329999D02*
G75*
G03*
X2260001Y-1329999I85001J0D01*
G01*
D11*
X255777Y-9316484D02*
X255777Y-9116484D01*
X255777Y-9116484D02*
X303396Y-9116484D01*
X303396Y-9116484D02*
X331967Y-9126008D01*
X331967Y-9126008D02*
X351015Y-9145055D01*
X351015Y-9145055D02*
X360539Y-9164103D01*
X360539Y-9164103D02*
X370062Y-9202198D01*
X370062Y-9202198D02*
X370062Y-9230770D01*
X370062Y-9230770D02*
X360539Y-9268865D01*
X360539Y-9268865D02*
X351015Y-9287912D01*
X351015Y-9287912D02*
X331967Y-9306960D01*
X331967Y-9306960D02*
X303396Y-9316484D01*
X303396Y-9316484D02*
X255777Y-9316484D01*
X455777Y-9316484D02*
X455777Y-9183150D01*
X455777Y-9221246D02*
X465301Y-9202198D01*
X465301Y-9202198D02*
X474824Y-9192674D01*
X474824Y-9192674D02*
X493872Y-9183150D01*
X493872Y-9183150D02*
X512920Y-9183150D01*
X579586Y-9316484D02*
X579586Y-9183150D01*
X579586Y-9116484D02*
X570063Y-9126008D01*
X570063Y-9126008D02*
X579586Y-9135531D01*
X579586Y-9135531D02*
X589110Y-9126008D01*
X589110Y-9126008D02*
X579586Y-9116484D01*
X579586Y-9116484D02*
X579586Y-9135531D01*
X703396Y-9316484D02*
X684348Y-9306960D01*
X684348Y-9306960D02*
X674824Y-9287912D01*
X674824Y-9287912D02*
X674824Y-9116484D01*
X808158Y-9316484D02*
X789110Y-9306960D01*
X789110Y-9306960D02*
X779586Y-9287912D01*
X779586Y-9287912D02*
X779586Y-9116484D01*
X1036729Y-9316484D02*
X1036729Y-9116484D01*
X1036729Y-9116484D02*
X1103396Y-9259341D01*
X1103396Y-9259341D02*
X1170063Y-9116484D01*
X1170063Y-9116484D02*
X1170063Y-9316484D01*
X1351015Y-9316484D02*
X1351015Y-9211722D01*
X1351015Y-9211722D02*
X1341491Y-9192674D01*
X1341491Y-9192674D02*
X1322444Y-9183150D01*
X1322444Y-9183150D02*
X1284348Y-9183150D01*
X1284348Y-9183150D02*
X1265301Y-9192674D01*
X1351015Y-9306960D02*
X1331967Y-9316484D01*
X1331967Y-9316484D02*
X1284348Y-9316484D01*
X1284348Y-9316484D02*
X1265301Y-9306960D01*
X1265301Y-9306960D02*
X1255777Y-9287912D01*
X1255777Y-9287912D02*
X1255777Y-9268865D01*
X1255777Y-9268865D02*
X1265301Y-9249817D01*
X1265301Y-9249817D02*
X1284348Y-9240293D01*
X1284348Y-9240293D02*
X1331967Y-9240293D01*
X1331967Y-9240293D02*
X1351015Y-9230770D01*
X1446253Y-9183150D02*
X1446253Y-9383150D01*
X1446253Y-9192674D02*
X1465301Y-9183150D01*
X1465301Y-9183150D02*
X1503396Y-9183150D01*
X1503396Y-9183150D02*
X1522443Y-9192674D01*
X1522443Y-9192674D02*
X1531967Y-9202198D01*
X1531967Y-9202198D02*
X1541491Y-9221246D01*
X1541491Y-9221246D02*
X1541491Y-9278389D01*
X1541491Y-9278389D02*
X1531967Y-9297436D01*
X1531967Y-9297436D02*
X1522443Y-9306960D01*
X1522443Y-9306960D02*
X1503396Y-9316484D01*
X1503396Y-9316484D02*
X1465301Y-9316484D01*
X1465301Y-9316484D02*
X1446253Y-9306960D01*
X1627205Y-9297436D02*
X1636729Y-9306960D01*
X1636729Y-9306960D02*
X1627205Y-9316484D01*
X1627205Y-9316484D02*
X1617682Y-9306960D01*
X1617682Y-9306960D02*
X1627205Y-9297436D01*
X1627205Y-9297436D02*
X1627205Y-9316484D01*
X1627205Y-9192674D02*
X1636729Y-9202198D01*
X1636729Y-9202198D02*
X1627205Y-9211722D01*
X1627205Y-9211722D02*
X1617682Y-9202198D01*
X1617682Y-9202198D02*
X1627205Y-9192674D01*
X1627205Y-9192674D02*
X1627205Y-9211722D01*
D10*
X-35000Y-9630000D02*
X-5000Y-9660000D01*
X-5000Y-9630000D02*
X-35000Y-9660000D01*
D11*
X293872Y-9536484D02*
X312920Y-9536484D01*
X312920Y-9536484D02*
X331967Y-9546008D01*
X331967Y-9546008D02*
X341491Y-9555531D01*
X341491Y-9555531D02*
X351015Y-9574579D01*
X351015Y-9574579D02*
X360539Y-9612674D01*
X360539Y-9612674D02*
X360539Y-9660293D01*
X360539Y-9660293D02*
X351015Y-9698389D01*
X351015Y-9698389D02*
X341491Y-9717436D01*
X341491Y-9717436D02*
X331967Y-9726960D01*
X331967Y-9726960D02*
X312920Y-9736484D01*
X312920Y-9736484D02*
X293872Y-9736484D01*
X293872Y-9736484D02*
X274824Y-9726960D01*
X274824Y-9726960D02*
X265301Y-9717436D01*
X265301Y-9717436D02*
X255777Y-9698389D01*
X255777Y-9698389D02*
X246253Y-9660293D01*
X246253Y-9660293D02*
X246253Y-9612674D01*
X246253Y-9612674D02*
X255777Y-9574579D01*
X255777Y-9574579D02*
X265301Y-9555531D01*
X265301Y-9555531D02*
X274824Y-9546008D01*
X274824Y-9546008D02*
X293872Y-9536484D01*
X446253Y-9717436D02*
X455777Y-9726960D01*
X455777Y-9726960D02*
X446253Y-9736484D01*
X446253Y-9736484D02*
X436729Y-9726960D01*
X436729Y-9726960D02*
X446253Y-9717436D01*
X446253Y-9717436D02*
X446253Y-9736484D01*
X522443Y-9536484D02*
X646253Y-9536484D01*
X646253Y-9536484D02*
X579586Y-9612674D01*
X579586Y-9612674D02*
X608158Y-9612674D01*
X608158Y-9612674D02*
X627205Y-9622198D01*
X627205Y-9622198D02*
X636729Y-9631722D01*
X636729Y-9631722D02*
X646253Y-9650770D01*
X646253Y-9650770D02*
X646253Y-9698389D01*
X646253Y-9698389D02*
X636729Y-9717436D01*
X636729Y-9717436D02*
X627205Y-9726960D01*
X627205Y-9726960D02*
X608158Y-9736484D01*
X608158Y-9736484D02*
X551015Y-9736484D01*
X551015Y-9736484D02*
X531967Y-9726960D01*
X531967Y-9726960D02*
X522443Y-9717436D01*
X770062Y-9536484D02*
X789110Y-9536484D01*
X789110Y-9536484D02*
X808158Y-9546008D01*
X808158Y-9546008D02*
X817682Y-9555531D01*
X817682Y-9555531D02*
X827205Y-9574579D01*
X827205Y-9574579D02*
X836729Y-9612674D01*
X836729Y-9612674D02*
X836729Y-9660293D01*
X836729Y-9660293D02*
X827205Y-9698389D01*
X827205Y-9698389D02*
X817682Y-9717436D01*
X817682Y-9717436D02*
X808158Y-9726960D01*
X808158Y-9726960D02*
X789110Y-9736484D01*
X789110Y-9736484D02*
X770062Y-9736484D01*
X770062Y-9736484D02*
X751015Y-9726960D01*
X751015Y-9726960D02*
X741491Y-9717436D01*
X741491Y-9717436D02*
X731967Y-9698389D01*
X731967Y-9698389D02*
X722443Y-9660293D01*
X722443Y-9660293D02*
X722443Y-9612674D01*
X722443Y-9612674D02*
X731967Y-9574579D01*
X731967Y-9574579D02*
X741491Y-9555531D01*
X741491Y-9555531D02*
X751015Y-9546008D01*
X751015Y-9546008D02*
X770062Y-9536484D01*
X960539Y-9536484D02*
X979586Y-9536484D01*
X979586Y-9536484D02*
X998634Y-9546008D01*
X998634Y-9546008D02*
X1008158Y-9555531D01*
X1008158Y-9555531D02*
X1017682Y-9574579D01*
X1017682Y-9574579D02*
X1027205Y-9612674D01*
X1027205Y-9612674D02*
X1027205Y-9660293D01*
X1027205Y-9660293D02*
X1017682Y-9698389D01*
X1017682Y-9698389D02*
X1008158Y-9717436D01*
X1008158Y-9717436D02*
X998634Y-9726960D01*
X998634Y-9726960D02*
X979586Y-9736484D01*
X979586Y-9736484D02*
X960539Y-9736484D01*
X960539Y-9736484D02*
X941491Y-9726960D01*
X941491Y-9726960D02*
X931967Y-9717436D01*
X931967Y-9717436D02*
X922443Y-9698389D01*
X922443Y-9698389D02*
X912920Y-9660293D01*
X912920Y-9660293D02*
X912920Y-9612674D01*
X912920Y-9612674D02*
X922443Y-9574579D01*
X922443Y-9574579D02*
X931967Y-9555531D01*
X931967Y-9555531D02*
X941491Y-9546008D01*
X941491Y-9546008D02*
X960539Y-9536484D01*
X1112920Y-9736484D02*
X1112920Y-9603150D01*
X1112920Y-9622198D02*
X1122444Y-9612674D01*
X1122444Y-9612674D02*
X1141491Y-9603150D01*
X1141491Y-9603150D02*
X1170063Y-9603150D01*
X1170063Y-9603150D02*
X1189110Y-9612674D01*
X1189110Y-9612674D02*
X1198634Y-9631722D01*
X1198634Y-9631722D02*
X1198634Y-9736484D01*
X1198634Y-9631722D02*
X1208158Y-9612674D01*
X1208158Y-9612674D02*
X1227205Y-9603150D01*
X1227205Y-9603150D02*
X1255777Y-9603150D01*
X1255777Y-9603150D02*
X1274825Y-9612674D01*
X1274825Y-9612674D02*
X1284348Y-9631722D01*
X1284348Y-9631722D02*
X1284348Y-9736484D01*
X1379586Y-9736484D02*
X1379586Y-9603150D01*
X1379586Y-9622198D02*
X1389110Y-9612674D01*
X1389110Y-9612674D02*
X1408158Y-9603150D01*
X1408158Y-9603150D02*
X1436729Y-9603150D01*
X1436729Y-9603150D02*
X1455777Y-9612674D01*
X1455777Y-9612674D02*
X1465301Y-9631722D01*
X1465301Y-9631722D02*
X1465301Y-9736484D01*
X1465301Y-9631722D02*
X1474824Y-9612674D01*
X1474824Y-9612674D02*
X1493872Y-9603150D01*
X1493872Y-9603150D02*
X1522443Y-9603150D01*
X1522443Y-9603150D02*
X1541491Y-9612674D01*
X1541491Y-9612674D02*
X1551015Y-9631722D01*
X1551015Y-9631722D02*
X1551015Y-9736484D01*
X1941491Y-9526960D02*
X1770063Y-9784103D01*
X2198634Y-9536484D02*
X2217682Y-9536484D01*
X2217682Y-9536484D02*
X2236729Y-9546008D01*
X2236729Y-9546008D02*
X2246253Y-9555531D01*
X2246253Y-9555531D02*
X2255777Y-9574579D01*
X2255777Y-9574579D02*
X2265301Y-9612674D01*
X2265301Y-9612674D02*
X2265301Y-9660293D01*
X2265301Y-9660293D02*
X2255777Y-9698389D01*
X2255777Y-9698389D02*
X2246253Y-9717436D01*
X2246253Y-9717436D02*
X2236729Y-9726960D01*
X2236729Y-9726960D02*
X2217682Y-9736484D01*
X2217682Y-9736484D02*
X2198634Y-9736484D01*
X2198634Y-9736484D02*
X2179587Y-9726960D01*
X2179587Y-9726960D02*
X2170063Y-9717436D01*
X2170063Y-9717436D02*
X2160539Y-9698389D01*
X2160539Y-9698389D02*
X2151015Y-9660293D01*
X2151015Y-9660293D02*
X2151015Y-9612674D01*
X2151015Y-9612674D02*
X2160539Y-9574579D01*
X2160539Y-9574579D02*
X2170063Y-9555531D01*
X2170063Y-9555531D02*
X2179587Y-9546008D01*
X2179587Y-9546008D02*
X2198634Y-9536484D01*
X2351015Y-9717436D02*
X2360539Y-9726960D01*
X2360539Y-9726960D02*
X2351015Y-9736484D01*
X2351015Y-9736484D02*
X2341491Y-9726960D01*
X2341491Y-9726960D02*
X2351015Y-9717436D01*
X2351015Y-9717436D02*
X2351015Y-9736484D01*
X2484348Y-9536484D02*
X2503396Y-9536484D01*
X2503396Y-9536484D02*
X2522444Y-9546008D01*
X2522444Y-9546008D02*
X2531968Y-9555531D01*
X2531968Y-9555531D02*
X2541491Y-9574579D01*
X2541491Y-9574579D02*
X2551015Y-9612674D01*
X2551015Y-9612674D02*
X2551015Y-9660293D01*
X2551015Y-9660293D02*
X2541491Y-9698389D01*
X2541491Y-9698389D02*
X2531968Y-9717436D01*
X2531968Y-9717436D02*
X2522444Y-9726960D01*
X2522444Y-9726960D02*
X2503396Y-9736484D01*
X2503396Y-9736484D02*
X2484348Y-9736484D01*
X2484348Y-9736484D02*
X2465301Y-9726960D01*
X2465301Y-9726960D02*
X2455777Y-9717436D01*
X2455777Y-9717436D02*
X2446253Y-9698389D01*
X2446253Y-9698389D02*
X2436729Y-9660293D01*
X2436729Y-9660293D02*
X2436729Y-9612674D01*
X2436729Y-9612674D02*
X2446253Y-9574579D01*
X2446253Y-9574579D02*
X2455777Y-9555531D01*
X2455777Y-9555531D02*
X2465301Y-9546008D01*
X2465301Y-9546008D02*
X2484348Y-9536484D01*
X2741491Y-9736484D02*
X2627206Y-9736484D01*
X2684348Y-9736484D02*
X2684348Y-9536484D01*
X2684348Y-9536484D02*
X2665301Y-9565055D01*
X2665301Y-9565055D02*
X2646253Y-9584103D01*
X2646253Y-9584103D02*
X2627206Y-9593627D01*
X2931967Y-9736484D02*
X2817682Y-9736484D01*
X2874825Y-9736484D02*
X2874825Y-9536484D01*
X2874825Y-9536484D02*
X2855777Y-9565055D01*
X2855777Y-9565055D02*
X2836729Y-9584103D01*
X2836729Y-9584103D02*
X2817682Y-9593627D01*
X3046253Y-9622198D02*
X3027206Y-9612674D01*
X3027206Y-9612674D02*
X3017682Y-9603150D01*
X3017682Y-9603150D02*
X3008158Y-9584103D01*
X3008158Y-9584103D02*
X3008158Y-9574579D01*
X3008158Y-9574579D02*
X3017682Y-9555531D01*
X3017682Y-9555531D02*
X3027206Y-9546008D01*
X3027206Y-9546008D02*
X3046253Y-9536484D01*
X3046253Y-9536484D02*
X3084348Y-9536484D01*
X3084348Y-9536484D02*
X3103396Y-9546008D01*
X3103396Y-9546008D02*
X3112920Y-9555531D01*
X3112920Y-9555531D02*
X3122444Y-9574579D01*
X3122444Y-9574579D02*
X3122444Y-9584103D01*
X3122444Y-9584103D02*
X3112920Y-9603150D01*
X3112920Y-9603150D02*
X3103396Y-9612674D01*
X3103396Y-9612674D02*
X3084348Y-9622198D01*
X3084348Y-9622198D02*
X3046253Y-9622198D01*
X3046253Y-9622198D02*
X3027206Y-9631722D01*
X3027206Y-9631722D02*
X3017682Y-9641246D01*
X3017682Y-9641246D02*
X3008158Y-9660293D01*
X3008158Y-9660293D02*
X3008158Y-9698389D01*
X3008158Y-9698389D02*
X3017682Y-9717436D01*
X3017682Y-9717436D02*
X3027206Y-9726960D01*
X3027206Y-9726960D02*
X3046253Y-9736484D01*
X3046253Y-9736484D02*
X3084348Y-9736484D01*
X3084348Y-9736484D02*
X3103396Y-9726960D01*
X3103396Y-9726960D02*
X3112920Y-9717436D01*
X3112920Y-9717436D02*
X3122444Y-9698389D01*
X3122444Y-9698389D02*
X3122444Y-9660293D01*
X3122444Y-9660293D02*
X3112920Y-9641246D01*
X3112920Y-9641246D02*
X3103396Y-9631722D01*
X3103396Y-9631722D02*
X3084348Y-9622198D01*
X3198634Y-9536484D02*
X3198634Y-9574579D01*
X3274825Y-9536484D02*
X3274825Y-9574579D01*
X3570063Y-9812674D02*
X3560539Y-9803150D01*
X3560539Y-9803150D02*
X3541491Y-9774579D01*
X3541491Y-9774579D02*
X3531968Y-9755531D01*
X3531968Y-9755531D02*
X3522444Y-9726960D01*
X3522444Y-9726960D02*
X3512920Y-9679341D01*
X3512920Y-9679341D02*
X3512920Y-9641246D01*
X3512920Y-9641246D02*
X3522444Y-9593627D01*
X3522444Y-9593627D02*
X3531968Y-9565055D01*
X3531968Y-9565055D02*
X3541491Y-9546008D01*
X3541491Y-9546008D02*
X3560539Y-9517436D01*
X3560539Y-9517436D02*
X3570063Y-9507912D01*
X3636729Y-9555531D02*
X3646253Y-9546008D01*
X3646253Y-9546008D02*
X3665301Y-9536484D01*
X3665301Y-9536484D02*
X3712920Y-9536484D01*
X3712920Y-9536484D02*
X3731968Y-9546008D01*
X3731968Y-9546008D02*
X3741491Y-9555531D01*
X3741491Y-9555531D02*
X3751015Y-9574579D01*
X3751015Y-9574579D02*
X3751015Y-9593627D01*
X3751015Y-9593627D02*
X3741491Y-9622198D01*
X3741491Y-9622198D02*
X3627206Y-9736484D01*
X3627206Y-9736484D02*
X3751015Y-9736484D01*
X3922444Y-9536484D02*
X3884348Y-9536484D01*
X3884348Y-9536484D02*
X3865301Y-9546008D01*
X3865301Y-9546008D02*
X3855777Y-9555531D01*
X3855777Y-9555531D02*
X3836729Y-9584103D01*
X3836729Y-9584103D02*
X3827206Y-9622198D01*
X3827206Y-9622198D02*
X3827206Y-9698389D01*
X3827206Y-9698389D02*
X3836729Y-9717436D01*
X3836729Y-9717436D02*
X3846253Y-9726960D01*
X3846253Y-9726960D02*
X3865301Y-9736484D01*
X3865301Y-9736484D02*
X3903396Y-9736484D01*
X3903396Y-9736484D02*
X3922444Y-9726960D01*
X3922444Y-9726960D02*
X3931968Y-9717436D01*
X3931968Y-9717436D02*
X3941491Y-9698389D01*
X3941491Y-9698389D02*
X3941491Y-9650770D01*
X3941491Y-9650770D02*
X3931968Y-9631722D01*
X3931968Y-9631722D02*
X3922444Y-9622198D01*
X3922444Y-9622198D02*
X3903396Y-9612674D01*
X3903396Y-9612674D02*
X3865301Y-9612674D01*
X3865301Y-9612674D02*
X3846253Y-9622198D01*
X3846253Y-9622198D02*
X3836729Y-9631722D01*
X3836729Y-9631722D02*
X3827206Y-9650770D01*
X4008158Y-9536484D02*
X4141491Y-9536484D01*
X4141491Y-9536484D02*
X4055777Y-9736484D01*
X4370063Y-9736484D02*
X4370063Y-9536484D01*
X4455777Y-9736484D02*
X4455777Y-9631722D01*
X4455777Y-9631722D02*
X4446253Y-9612674D01*
X4446253Y-9612674D02*
X4427206Y-9603150D01*
X4427206Y-9603150D02*
X4398634Y-9603150D01*
X4398634Y-9603150D02*
X4379587Y-9612674D01*
X4379587Y-9612674D02*
X4370063Y-9622198D01*
X4579587Y-9736484D02*
X4560539Y-9726960D01*
X4560539Y-9726960D02*
X4551015Y-9717436D01*
X4551015Y-9717436D02*
X4541492Y-9698389D01*
X4541492Y-9698389D02*
X4541492Y-9641246D01*
X4541492Y-9641246D02*
X4551015Y-9622198D01*
X4551015Y-9622198D02*
X4560539Y-9612674D01*
X4560539Y-9612674D02*
X4579587Y-9603150D01*
X4579587Y-9603150D02*
X4608158Y-9603150D01*
X4608158Y-9603150D02*
X4627206Y-9612674D01*
X4627206Y-9612674D02*
X4636730Y-9622198D01*
X4636730Y-9622198D02*
X4646253Y-9641246D01*
X4646253Y-9641246D02*
X4646253Y-9698389D01*
X4646253Y-9698389D02*
X4636730Y-9717436D01*
X4636730Y-9717436D02*
X4627206Y-9726960D01*
X4627206Y-9726960D02*
X4608158Y-9736484D01*
X4608158Y-9736484D02*
X4579587Y-9736484D01*
X4760539Y-9736484D02*
X4741492Y-9726960D01*
X4741492Y-9726960D02*
X4731968Y-9707912D01*
X4731968Y-9707912D02*
X4731968Y-9536484D01*
X4912920Y-9726960D02*
X4893873Y-9736484D01*
X4893873Y-9736484D02*
X4855777Y-9736484D01*
X4855777Y-9736484D02*
X4836730Y-9726960D01*
X4836730Y-9726960D02*
X4827206Y-9707912D01*
X4827206Y-9707912D02*
X4827206Y-9631722D01*
X4827206Y-9631722D02*
X4836730Y-9612674D01*
X4836730Y-9612674D02*
X4855777Y-9603150D01*
X4855777Y-9603150D02*
X4893873Y-9603150D01*
X4893873Y-9603150D02*
X4912920Y-9612674D01*
X4912920Y-9612674D02*
X4922444Y-9631722D01*
X4922444Y-9631722D02*
X4922444Y-9650770D01*
X4922444Y-9650770D02*
X4827206Y-9669817D01*
X4998634Y-9726960D02*
X5017682Y-9736484D01*
X5017682Y-9736484D02*
X5055777Y-9736484D01*
X5055777Y-9736484D02*
X5074825Y-9726960D01*
X5074825Y-9726960D02*
X5084349Y-9707912D01*
X5084349Y-9707912D02*
X5084349Y-9698389D01*
X5084349Y-9698389D02*
X5074825Y-9679341D01*
X5074825Y-9679341D02*
X5055777Y-9669817D01*
X5055777Y-9669817D02*
X5027206Y-9669817D01*
X5027206Y-9669817D02*
X5008158Y-9660293D01*
X5008158Y-9660293D02*
X4998634Y-9641246D01*
X4998634Y-9641246D02*
X4998634Y-9631722D01*
X4998634Y-9631722D02*
X5008158Y-9612674D01*
X5008158Y-9612674D02*
X5027206Y-9603150D01*
X5027206Y-9603150D02*
X5055777Y-9603150D01*
X5055777Y-9603150D02*
X5074825Y-9612674D01*
X5151015Y-9812674D02*
X5160539Y-9803150D01*
X5160539Y-9803150D02*
X5179587Y-9774579D01*
X5179587Y-9774579D02*
X5189111Y-9755531D01*
X5189111Y-9755531D02*
X5198634Y-9726960D01*
X5198634Y-9726960D02*
X5208158Y-9679341D01*
X5208158Y-9679341D02*
X5208158Y-9641246D01*
X5208158Y-9641246D02*
X5198634Y-9593627D01*
X5198634Y-9593627D02*
X5189111Y-9565055D01*
X5189111Y-9565055D02*
X5179587Y-9546008D01*
X5179587Y-9546008D02*
X5160539Y-9517436D01*
X5160539Y-9517436D02*
X5151015Y-9507912D01*
D10*
X-5000Y-9909000D02*
G75*
G02*
X-80000Y-9909000I-37500J0D01*
G01*
X-80000Y-9909000D02*
G75*
G02*
X-5000Y-9909000I37500J0D01*
G01*
D11*
X293872Y-9800484D02*
X312920Y-9800484D01*
X312920Y-9800484D02*
X331967Y-9810008D01*
X331967Y-9810008D02*
X341491Y-9819531D01*
X341491Y-9819531D02*
X351015Y-9838579D01*
X351015Y-9838579D02*
X360539Y-9876674D01*
X360539Y-9876674D02*
X360539Y-9924293D01*
X360539Y-9924293D02*
X351015Y-9962389D01*
X351015Y-9962389D02*
X341491Y-9981436D01*
X341491Y-9981436D02*
X331967Y-9990960D01*
X331967Y-9990960D02*
X312920Y-10000484D01*
X312920Y-10000484D02*
X293872Y-10000484D01*
X293872Y-10000484D02*
X274824Y-9990960D01*
X274824Y-9990960D02*
X265301Y-9981436D01*
X265301Y-9981436D02*
X255777Y-9962389D01*
X255777Y-9962389D02*
X246253Y-9924293D01*
X246253Y-9924293D02*
X246253Y-9876674D01*
X246253Y-9876674D02*
X255777Y-9838579D01*
X255777Y-9838579D02*
X265301Y-9819531D01*
X265301Y-9819531D02*
X274824Y-9810008D01*
X274824Y-9810008D02*
X293872Y-9800484D01*
X446253Y-9981436D02*
X455777Y-9990960D01*
X455777Y-9990960D02*
X446253Y-10000484D01*
X446253Y-10000484D02*
X436729Y-9990960D01*
X436729Y-9990960D02*
X446253Y-9981436D01*
X446253Y-9981436D02*
X446253Y-10000484D01*
X522443Y-9800484D02*
X655777Y-9800484D01*
X655777Y-9800484D02*
X570063Y-10000484D01*
X827205Y-9800484D02*
X731967Y-9800484D01*
X731967Y-9800484D02*
X722443Y-9895722D01*
X722443Y-9895722D02*
X731967Y-9886198D01*
X731967Y-9886198D02*
X751015Y-9876674D01*
X751015Y-9876674D02*
X798634Y-9876674D01*
X798634Y-9876674D02*
X817682Y-9886198D01*
X817682Y-9886198D02*
X827205Y-9895722D01*
X827205Y-9895722D02*
X836729Y-9914770D01*
X836729Y-9914770D02*
X836729Y-9962389D01*
X836729Y-9962389D02*
X827205Y-9981436D01*
X827205Y-9981436D02*
X817682Y-9990960D01*
X817682Y-9990960D02*
X798634Y-10000484D01*
X798634Y-10000484D02*
X751015Y-10000484D01*
X751015Y-10000484D02*
X731967Y-9990960D01*
X731967Y-9990960D02*
X722443Y-9981436D01*
X960539Y-9800484D02*
X979586Y-9800484D01*
X979586Y-9800484D02*
X998634Y-9810008D01*
X998634Y-9810008D02*
X1008158Y-9819531D01*
X1008158Y-9819531D02*
X1017682Y-9838579D01*
X1017682Y-9838579D02*
X1027205Y-9876674D01*
X1027205Y-9876674D02*
X1027205Y-9924293D01*
X1027205Y-9924293D02*
X1017682Y-9962389D01*
X1017682Y-9962389D02*
X1008158Y-9981436D01*
X1008158Y-9981436D02*
X998634Y-9990960D01*
X998634Y-9990960D02*
X979586Y-10000484D01*
X979586Y-10000484D02*
X960539Y-10000484D01*
X960539Y-10000484D02*
X941491Y-9990960D01*
X941491Y-9990960D02*
X931967Y-9981436D01*
X931967Y-9981436D02*
X922443Y-9962389D01*
X922443Y-9962389D02*
X912920Y-9924293D01*
X912920Y-9924293D02*
X912920Y-9876674D01*
X912920Y-9876674D02*
X922443Y-9838579D01*
X922443Y-9838579D02*
X931967Y-9819531D01*
X931967Y-9819531D02*
X941491Y-9810008D01*
X941491Y-9810008D02*
X960539Y-9800484D01*
X1112920Y-10000484D02*
X1112920Y-9867150D01*
X1112920Y-9886198D02*
X1122444Y-9876674D01*
X1122444Y-9876674D02*
X1141491Y-9867150D01*
X1141491Y-9867150D02*
X1170063Y-9867150D01*
X1170063Y-9867150D02*
X1189110Y-9876674D01*
X1189110Y-9876674D02*
X1198634Y-9895722D01*
X1198634Y-9895722D02*
X1198634Y-10000484D01*
X1198634Y-9895722D02*
X1208158Y-9876674D01*
X1208158Y-9876674D02*
X1227205Y-9867150D01*
X1227205Y-9867150D02*
X1255777Y-9867150D01*
X1255777Y-9867150D02*
X1274825Y-9876674D01*
X1274825Y-9876674D02*
X1284348Y-9895722D01*
X1284348Y-9895722D02*
X1284348Y-10000484D01*
X1379586Y-10000484D02*
X1379586Y-9867150D01*
X1379586Y-9886198D02*
X1389110Y-9876674D01*
X1389110Y-9876674D02*
X1408158Y-9867150D01*
X1408158Y-9867150D02*
X1436729Y-9867150D01*
X1436729Y-9867150D02*
X1455777Y-9876674D01*
X1455777Y-9876674D02*
X1465301Y-9895722D01*
X1465301Y-9895722D02*
X1465301Y-10000484D01*
X1465301Y-9895722D02*
X1474824Y-9876674D01*
X1474824Y-9876674D02*
X1493872Y-9867150D01*
X1493872Y-9867150D02*
X1522443Y-9867150D01*
X1522443Y-9867150D02*
X1541491Y-9876674D01*
X1541491Y-9876674D02*
X1551015Y-9895722D01*
X1551015Y-9895722D02*
X1551015Y-10000484D01*
X1941491Y-9790960D02*
X1770063Y-10048103D01*
X2198634Y-9800484D02*
X2217682Y-9800484D01*
X2217682Y-9800484D02*
X2236729Y-9810008D01*
X2236729Y-9810008D02*
X2246253Y-9819531D01*
X2246253Y-9819531D02*
X2255777Y-9838579D01*
X2255777Y-9838579D02*
X2265301Y-9876674D01*
X2265301Y-9876674D02*
X2265301Y-9924293D01*
X2265301Y-9924293D02*
X2255777Y-9962389D01*
X2255777Y-9962389D02*
X2246253Y-9981436D01*
X2246253Y-9981436D02*
X2236729Y-9990960D01*
X2236729Y-9990960D02*
X2217682Y-10000484D01*
X2217682Y-10000484D02*
X2198634Y-10000484D01*
X2198634Y-10000484D02*
X2179587Y-9990960D01*
X2179587Y-9990960D02*
X2170063Y-9981436D01*
X2170063Y-9981436D02*
X2160539Y-9962389D01*
X2160539Y-9962389D02*
X2151015Y-9924293D01*
X2151015Y-9924293D02*
X2151015Y-9876674D01*
X2151015Y-9876674D02*
X2160539Y-9838579D01*
X2160539Y-9838579D02*
X2170063Y-9819531D01*
X2170063Y-9819531D02*
X2179587Y-9810008D01*
X2179587Y-9810008D02*
X2198634Y-9800484D01*
X2351015Y-9981436D02*
X2360539Y-9990960D01*
X2360539Y-9990960D02*
X2351015Y-10000484D01*
X2351015Y-10000484D02*
X2341491Y-9990960D01*
X2341491Y-9990960D02*
X2351015Y-9981436D01*
X2351015Y-9981436D02*
X2351015Y-10000484D01*
X2484348Y-9800484D02*
X2503396Y-9800484D01*
X2503396Y-9800484D02*
X2522444Y-9810008D01*
X2522444Y-9810008D02*
X2531968Y-9819531D01*
X2531968Y-9819531D02*
X2541491Y-9838579D01*
X2541491Y-9838579D02*
X2551015Y-9876674D01*
X2551015Y-9876674D02*
X2551015Y-9924293D01*
X2551015Y-9924293D02*
X2541491Y-9962389D01*
X2541491Y-9962389D02*
X2531968Y-9981436D01*
X2531968Y-9981436D02*
X2522444Y-9990960D01*
X2522444Y-9990960D02*
X2503396Y-10000484D01*
X2503396Y-10000484D02*
X2484348Y-10000484D01*
X2484348Y-10000484D02*
X2465301Y-9990960D01*
X2465301Y-9990960D02*
X2455777Y-9981436D01*
X2455777Y-9981436D02*
X2446253Y-9962389D01*
X2446253Y-9962389D02*
X2436729Y-9924293D01*
X2436729Y-9924293D02*
X2436729Y-9876674D01*
X2436729Y-9876674D02*
X2446253Y-9838579D01*
X2446253Y-9838579D02*
X2455777Y-9819531D01*
X2455777Y-9819531D02*
X2465301Y-9810008D01*
X2465301Y-9810008D02*
X2484348Y-9800484D01*
X2627206Y-9819531D02*
X2636729Y-9810008D01*
X2636729Y-9810008D02*
X2655777Y-9800484D01*
X2655777Y-9800484D02*
X2703396Y-9800484D01*
X2703396Y-9800484D02*
X2722444Y-9810008D01*
X2722444Y-9810008D02*
X2731968Y-9819531D01*
X2731968Y-9819531D02*
X2741491Y-9838579D01*
X2741491Y-9838579D02*
X2741491Y-9857627D01*
X2741491Y-9857627D02*
X2731968Y-9886198D01*
X2731968Y-9886198D02*
X2617682Y-10000484D01*
X2617682Y-10000484D02*
X2741491Y-10000484D01*
X2836729Y-10000484D02*
X2874825Y-10000484D01*
X2874825Y-10000484D02*
X2893872Y-9990960D01*
X2893872Y-9990960D02*
X2903396Y-9981436D01*
X2903396Y-9981436D02*
X2922444Y-9952865D01*
X2922444Y-9952865D02*
X2931967Y-9914770D01*
X2931967Y-9914770D02*
X2931967Y-9838579D01*
X2931967Y-9838579D02*
X2922444Y-9819531D01*
X2922444Y-9819531D02*
X2912920Y-9810008D01*
X2912920Y-9810008D02*
X2893872Y-9800484D01*
X2893872Y-9800484D02*
X2855777Y-9800484D01*
X2855777Y-9800484D02*
X2836729Y-9810008D01*
X2836729Y-9810008D02*
X2827206Y-9819531D01*
X2827206Y-9819531D02*
X2817682Y-9838579D01*
X2817682Y-9838579D02*
X2817682Y-9886198D01*
X2817682Y-9886198D02*
X2827206Y-9905246D01*
X2827206Y-9905246D02*
X2836729Y-9914770D01*
X2836729Y-9914770D02*
X2855777Y-9924293D01*
X2855777Y-9924293D02*
X2893872Y-9924293D01*
X2893872Y-9924293D02*
X2912920Y-9914770D01*
X2912920Y-9914770D02*
X2922444Y-9905246D01*
X2922444Y-9905246D02*
X2931967Y-9886198D01*
X3112920Y-9800484D02*
X3017682Y-9800484D01*
X3017682Y-9800484D02*
X3008158Y-9895722D01*
X3008158Y-9895722D02*
X3017682Y-9886198D01*
X3017682Y-9886198D02*
X3036729Y-9876674D01*
X3036729Y-9876674D02*
X3084348Y-9876674D01*
X3084348Y-9876674D02*
X3103396Y-9886198D01*
X3103396Y-9886198D02*
X3112920Y-9895722D01*
X3112920Y-9895722D02*
X3122444Y-9914770D01*
X3122444Y-9914770D02*
X3122444Y-9962389D01*
X3122444Y-9962389D02*
X3112920Y-9981436D01*
X3112920Y-9981436D02*
X3103396Y-9990960D01*
X3103396Y-9990960D02*
X3084348Y-10000484D01*
X3084348Y-10000484D02*
X3036729Y-10000484D01*
X3036729Y-10000484D02*
X3017682Y-9990960D01*
X3017682Y-9990960D02*
X3008158Y-9981436D01*
X3198634Y-9800484D02*
X3198634Y-9838579D01*
X3274825Y-9800484D02*
X3274825Y-9838579D01*
X3570063Y-10076674D02*
X3560539Y-10067150D01*
X3560539Y-10067150D02*
X3541491Y-10038579D01*
X3541491Y-10038579D02*
X3531968Y-10019531D01*
X3531968Y-10019531D02*
X3522444Y-9990960D01*
X3522444Y-9990960D02*
X3512920Y-9943341D01*
X3512920Y-9943341D02*
X3512920Y-9905246D01*
X3512920Y-9905246D02*
X3522444Y-9857627D01*
X3522444Y-9857627D02*
X3531968Y-9829055D01*
X3531968Y-9829055D02*
X3541491Y-9810008D01*
X3541491Y-9810008D02*
X3560539Y-9781436D01*
X3560539Y-9781436D02*
X3570063Y-9771912D01*
X3636729Y-9819531D02*
X3646253Y-9810008D01*
X3646253Y-9810008D02*
X3665301Y-9800484D01*
X3665301Y-9800484D02*
X3712920Y-9800484D01*
X3712920Y-9800484D02*
X3731968Y-9810008D01*
X3731968Y-9810008D02*
X3741491Y-9819531D01*
X3741491Y-9819531D02*
X3751015Y-9838579D01*
X3751015Y-9838579D02*
X3751015Y-9857627D01*
X3751015Y-9857627D02*
X3741491Y-9886198D01*
X3741491Y-9886198D02*
X3627206Y-10000484D01*
X3627206Y-10000484D02*
X3751015Y-10000484D01*
X3989110Y-10000484D02*
X3989110Y-9800484D01*
X4074825Y-10000484D02*
X4074825Y-9895722D01*
X4074825Y-9895722D02*
X4065301Y-9876674D01*
X4065301Y-9876674D02*
X4046253Y-9867150D01*
X4046253Y-9867150D02*
X4017682Y-9867150D01*
X4017682Y-9867150D02*
X3998634Y-9876674D01*
X3998634Y-9876674D02*
X3989110Y-9886198D01*
X4198634Y-10000484D02*
X4179587Y-9990960D01*
X4179587Y-9990960D02*
X4170063Y-9981436D01*
X4170063Y-9981436D02*
X4160539Y-9962389D01*
X4160539Y-9962389D02*
X4160539Y-9905246D01*
X4160539Y-9905246D02*
X4170063Y-9886198D01*
X4170063Y-9886198D02*
X4179587Y-9876674D01*
X4179587Y-9876674D02*
X4198634Y-9867150D01*
X4198634Y-9867150D02*
X4227206Y-9867150D01*
X4227206Y-9867150D02*
X4246253Y-9876674D01*
X4246253Y-9876674D02*
X4255777Y-9886198D01*
X4255777Y-9886198D02*
X4265301Y-9905246D01*
X4265301Y-9905246D02*
X4265301Y-9962389D01*
X4265301Y-9962389D02*
X4255777Y-9981436D01*
X4255777Y-9981436D02*
X4246253Y-9990960D01*
X4246253Y-9990960D02*
X4227206Y-10000484D01*
X4227206Y-10000484D02*
X4198634Y-10000484D01*
X4379587Y-10000484D02*
X4360539Y-9990960D01*
X4360539Y-9990960D02*
X4351015Y-9971912D01*
X4351015Y-9971912D02*
X4351015Y-9800484D01*
X4531968Y-9990960D02*
X4512920Y-10000484D01*
X4512920Y-10000484D02*
X4474825Y-10000484D01*
X4474825Y-10000484D02*
X4455777Y-9990960D01*
X4455777Y-9990960D02*
X4446253Y-9971912D01*
X4446253Y-9971912D02*
X4446253Y-9895722D01*
X4446253Y-9895722D02*
X4455777Y-9876674D01*
X4455777Y-9876674D02*
X4474825Y-9867150D01*
X4474825Y-9867150D02*
X4512920Y-9867150D01*
X4512920Y-9867150D02*
X4531968Y-9876674D01*
X4531968Y-9876674D02*
X4541492Y-9895722D01*
X4541492Y-9895722D02*
X4541492Y-9914770D01*
X4541492Y-9914770D02*
X4446253Y-9933817D01*
X4617682Y-9990960D02*
X4636730Y-10000484D01*
X4636730Y-10000484D02*
X4674825Y-10000484D01*
X4674825Y-10000484D02*
X4693873Y-9990960D01*
X4693873Y-9990960D02*
X4703396Y-9971912D01*
X4703396Y-9971912D02*
X4703396Y-9962389D01*
X4703396Y-9962389D02*
X4693873Y-9943341D01*
X4693873Y-9943341D02*
X4674825Y-9933817D01*
X4674825Y-9933817D02*
X4646253Y-9933817D01*
X4646253Y-9933817D02*
X4627206Y-9924293D01*
X4627206Y-9924293D02*
X4617682Y-9905246D01*
X4617682Y-9905246D02*
X4617682Y-9895722D01*
X4617682Y-9895722D02*
X4627206Y-9876674D01*
X4627206Y-9876674D02*
X4646253Y-9867150D01*
X4646253Y-9867150D02*
X4674825Y-9867150D01*
X4674825Y-9867150D02*
X4693873Y-9876674D01*
X4770063Y-10076674D02*
X4779587Y-10067150D01*
X4779587Y-10067150D02*
X4798634Y-10038579D01*
X4798634Y-10038579D02*
X4808158Y-10019531D01*
X4808158Y-10019531D02*
X4817682Y-9990960D01*
X4817682Y-9990960D02*
X4827206Y-9943341D01*
X4827206Y-9943341D02*
X4827206Y-9905246D01*
X4827206Y-9905246D02*
X4817682Y-9857627D01*
X4817682Y-9857627D02*
X4808158Y-9829055D01*
X4808158Y-9829055D02*
X4798634Y-9810008D01*
X4798634Y-9810008D02*
X4779587Y-9781436D01*
X4779587Y-9781436D02*
X4770063Y-9771912D01*
D10*
X-45000Y-10133000D02*
X-45000Y-10213000D01*
X-85000Y-10173000D02*
X-5000Y-10173000D01*
D11*
X293872Y-10064484D02*
X312920Y-10064484D01*
X312920Y-10064484D02*
X331967Y-10074008D01*
X331967Y-10074008D02*
X341491Y-10083531D01*
X341491Y-10083531D02*
X351015Y-10102579D01*
X351015Y-10102579D02*
X360539Y-10140674D01*
X360539Y-10140674D02*
X360539Y-10188293D01*
X360539Y-10188293D02*
X351015Y-10226389D01*
X351015Y-10226389D02*
X341491Y-10245436D01*
X341491Y-10245436D02*
X331967Y-10254960D01*
X331967Y-10254960D02*
X312920Y-10264484D01*
X312920Y-10264484D02*
X293872Y-10264484D01*
X293872Y-10264484D02*
X274824Y-10254960D01*
X274824Y-10254960D02*
X265301Y-10245436D01*
X265301Y-10245436D02*
X255777Y-10226389D01*
X255777Y-10226389D02*
X246253Y-10188293D01*
X246253Y-10188293D02*
X246253Y-10140674D01*
X246253Y-10140674D02*
X255777Y-10102579D01*
X255777Y-10102579D02*
X265301Y-10083531D01*
X265301Y-10083531D02*
X274824Y-10074008D01*
X274824Y-10074008D02*
X293872Y-10064484D01*
X446253Y-10245436D02*
X455777Y-10254960D01*
X455777Y-10254960D02*
X446253Y-10264484D01*
X446253Y-10264484D02*
X436729Y-10254960D01*
X436729Y-10254960D02*
X446253Y-10245436D01*
X446253Y-10245436D02*
X446253Y-10264484D01*
X570063Y-10150198D02*
X551015Y-10140674D01*
X551015Y-10140674D02*
X541491Y-10131150D01*
X541491Y-10131150D02*
X531967Y-10112103D01*
X531967Y-10112103D02*
X531967Y-10102579D01*
X531967Y-10102579D02*
X541491Y-10083531D01*
X541491Y-10083531D02*
X551015Y-10074008D01*
X551015Y-10074008D02*
X570063Y-10064484D01*
X570063Y-10064484D02*
X608158Y-10064484D01*
X608158Y-10064484D02*
X627205Y-10074008D01*
X627205Y-10074008D02*
X636729Y-10083531D01*
X636729Y-10083531D02*
X646253Y-10102579D01*
X646253Y-10102579D02*
X646253Y-10112103D01*
X646253Y-10112103D02*
X636729Y-10131150D01*
X636729Y-10131150D02*
X627205Y-10140674D01*
X627205Y-10140674D02*
X608158Y-10150198D01*
X608158Y-10150198D02*
X570063Y-10150198D01*
X570063Y-10150198D02*
X551015Y-10159722D01*
X551015Y-10159722D02*
X541491Y-10169246D01*
X541491Y-10169246D02*
X531967Y-10188293D01*
X531967Y-10188293D02*
X531967Y-10226389D01*
X531967Y-10226389D02*
X541491Y-10245436D01*
X541491Y-10245436D02*
X551015Y-10254960D01*
X551015Y-10254960D02*
X570063Y-10264484D01*
X570063Y-10264484D02*
X608158Y-10264484D01*
X608158Y-10264484D02*
X627205Y-10254960D01*
X627205Y-10254960D02*
X636729Y-10245436D01*
X636729Y-10245436D02*
X646253Y-10226389D01*
X646253Y-10226389D02*
X646253Y-10188293D01*
X646253Y-10188293D02*
X636729Y-10169246D01*
X636729Y-10169246D02*
X627205Y-10159722D01*
X627205Y-10159722D02*
X608158Y-10150198D01*
X770062Y-10064484D02*
X789110Y-10064484D01*
X789110Y-10064484D02*
X808158Y-10074008D01*
X808158Y-10074008D02*
X817682Y-10083531D01*
X817682Y-10083531D02*
X827205Y-10102579D01*
X827205Y-10102579D02*
X836729Y-10140674D01*
X836729Y-10140674D02*
X836729Y-10188293D01*
X836729Y-10188293D02*
X827205Y-10226389D01*
X827205Y-10226389D02*
X817682Y-10245436D01*
X817682Y-10245436D02*
X808158Y-10254960D01*
X808158Y-10254960D02*
X789110Y-10264484D01*
X789110Y-10264484D02*
X770062Y-10264484D01*
X770062Y-10264484D02*
X751015Y-10254960D01*
X751015Y-10254960D02*
X741491Y-10245436D01*
X741491Y-10245436D02*
X731967Y-10226389D01*
X731967Y-10226389D02*
X722443Y-10188293D01*
X722443Y-10188293D02*
X722443Y-10140674D01*
X722443Y-10140674D02*
X731967Y-10102579D01*
X731967Y-10102579D02*
X741491Y-10083531D01*
X741491Y-10083531D02*
X751015Y-10074008D01*
X751015Y-10074008D02*
X770062Y-10064484D01*
X960539Y-10064484D02*
X979586Y-10064484D01*
X979586Y-10064484D02*
X998634Y-10074008D01*
X998634Y-10074008D02*
X1008158Y-10083531D01*
X1008158Y-10083531D02*
X1017682Y-10102579D01*
X1017682Y-10102579D02*
X1027205Y-10140674D01*
X1027205Y-10140674D02*
X1027205Y-10188293D01*
X1027205Y-10188293D02*
X1017682Y-10226389D01*
X1017682Y-10226389D02*
X1008158Y-10245436D01*
X1008158Y-10245436D02*
X998634Y-10254960D01*
X998634Y-10254960D02*
X979586Y-10264484D01*
X979586Y-10264484D02*
X960539Y-10264484D01*
X960539Y-10264484D02*
X941491Y-10254960D01*
X941491Y-10254960D02*
X931967Y-10245436D01*
X931967Y-10245436D02*
X922443Y-10226389D01*
X922443Y-10226389D02*
X912920Y-10188293D01*
X912920Y-10188293D02*
X912920Y-10140674D01*
X912920Y-10140674D02*
X922443Y-10102579D01*
X922443Y-10102579D02*
X931967Y-10083531D01*
X931967Y-10083531D02*
X941491Y-10074008D01*
X941491Y-10074008D02*
X960539Y-10064484D01*
X1112920Y-10264484D02*
X1112920Y-10131150D01*
X1112920Y-10150198D02*
X1122444Y-10140674D01*
X1122444Y-10140674D02*
X1141491Y-10131150D01*
X1141491Y-10131150D02*
X1170063Y-10131150D01*
X1170063Y-10131150D02*
X1189110Y-10140674D01*
X1189110Y-10140674D02*
X1198634Y-10159722D01*
X1198634Y-10159722D02*
X1198634Y-10264484D01*
X1198634Y-10159722D02*
X1208158Y-10140674D01*
X1208158Y-10140674D02*
X1227205Y-10131150D01*
X1227205Y-10131150D02*
X1255777Y-10131150D01*
X1255777Y-10131150D02*
X1274825Y-10140674D01*
X1274825Y-10140674D02*
X1284348Y-10159722D01*
X1284348Y-10159722D02*
X1284348Y-10264484D01*
X1379586Y-10264484D02*
X1379586Y-10131150D01*
X1379586Y-10150198D02*
X1389110Y-10140674D01*
X1389110Y-10140674D02*
X1408158Y-10131150D01*
X1408158Y-10131150D02*
X1436729Y-10131150D01*
X1436729Y-10131150D02*
X1455777Y-10140674D01*
X1455777Y-10140674D02*
X1465301Y-10159722D01*
X1465301Y-10159722D02*
X1465301Y-10264484D01*
X1465301Y-10159722D02*
X1474824Y-10140674D01*
X1474824Y-10140674D02*
X1493872Y-10131150D01*
X1493872Y-10131150D02*
X1522443Y-10131150D01*
X1522443Y-10131150D02*
X1541491Y-10140674D01*
X1541491Y-10140674D02*
X1551015Y-10159722D01*
X1551015Y-10159722D02*
X1551015Y-10264484D01*
X1941491Y-10054960D02*
X1770063Y-10312103D01*
X2198634Y-10064484D02*
X2217682Y-10064484D01*
X2217682Y-10064484D02*
X2236729Y-10074008D01*
X2236729Y-10074008D02*
X2246253Y-10083531D01*
X2246253Y-10083531D02*
X2255777Y-10102579D01*
X2255777Y-10102579D02*
X2265301Y-10140674D01*
X2265301Y-10140674D02*
X2265301Y-10188293D01*
X2265301Y-10188293D02*
X2255777Y-10226389D01*
X2255777Y-10226389D02*
X2246253Y-10245436D01*
X2246253Y-10245436D02*
X2236729Y-10254960D01*
X2236729Y-10254960D02*
X2217682Y-10264484D01*
X2217682Y-10264484D02*
X2198634Y-10264484D01*
X2198634Y-10264484D02*
X2179587Y-10254960D01*
X2179587Y-10254960D02*
X2170063Y-10245436D01*
X2170063Y-10245436D02*
X2160539Y-10226389D01*
X2160539Y-10226389D02*
X2151015Y-10188293D01*
X2151015Y-10188293D02*
X2151015Y-10140674D01*
X2151015Y-10140674D02*
X2160539Y-10102579D01*
X2160539Y-10102579D02*
X2170063Y-10083531D01*
X2170063Y-10083531D02*
X2179587Y-10074008D01*
X2179587Y-10074008D02*
X2198634Y-10064484D01*
X2351015Y-10245436D02*
X2360539Y-10254960D01*
X2360539Y-10254960D02*
X2351015Y-10264484D01*
X2351015Y-10264484D02*
X2341491Y-10254960D01*
X2341491Y-10254960D02*
X2351015Y-10245436D01*
X2351015Y-10245436D02*
X2351015Y-10264484D01*
X2484348Y-10064484D02*
X2503396Y-10064484D01*
X2503396Y-10064484D02*
X2522444Y-10074008D01*
X2522444Y-10074008D02*
X2531968Y-10083531D01*
X2531968Y-10083531D02*
X2541491Y-10102579D01*
X2541491Y-10102579D02*
X2551015Y-10140674D01*
X2551015Y-10140674D02*
X2551015Y-10188293D01*
X2551015Y-10188293D02*
X2541491Y-10226389D01*
X2541491Y-10226389D02*
X2531968Y-10245436D01*
X2531968Y-10245436D02*
X2522444Y-10254960D01*
X2522444Y-10254960D02*
X2503396Y-10264484D01*
X2503396Y-10264484D02*
X2484348Y-10264484D01*
X2484348Y-10264484D02*
X2465301Y-10254960D01*
X2465301Y-10254960D02*
X2455777Y-10245436D01*
X2455777Y-10245436D02*
X2446253Y-10226389D01*
X2446253Y-10226389D02*
X2436729Y-10188293D01*
X2436729Y-10188293D02*
X2436729Y-10140674D01*
X2436729Y-10140674D02*
X2446253Y-10102579D01*
X2446253Y-10102579D02*
X2455777Y-10083531D01*
X2455777Y-10083531D02*
X2465301Y-10074008D01*
X2465301Y-10074008D02*
X2484348Y-10064484D01*
X2617682Y-10064484D02*
X2741491Y-10064484D01*
X2741491Y-10064484D02*
X2674825Y-10140674D01*
X2674825Y-10140674D02*
X2703396Y-10140674D01*
X2703396Y-10140674D02*
X2722444Y-10150198D01*
X2722444Y-10150198D02*
X2731968Y-10159722D01*
X2731968Y-10159722D02*
X2741491Y-10178770D01*
X2741491Y-10178770D02*
X2741491Y-10226389D01*
X2741491Y-10226389D02*
X2731968Y-10245436D01*
X2731968Y-10245436D02*
X2722444Y-10254960D01*
X2722444Y-10254960D02*
X2703396Y-10264484D01*
X2703396Y-10264484D02*
X2646253Y-10264484D01*
X2646253Y-10264484D02*
X2627206Y-10254960D01*
X2627206Y-10254960D02*
X2617682Y-10245436D01*
X2931967Y-10264484D02*
X2817682Y-10264484D01*
X2874825Y-10264484D02*
X2874825Y-10064484D01*
X2874825Y-10064484D02*
X2855777Y-10093055D01*
X2855777Y-10093055D02*
X2836729Y-10112103D01*
X2836729Y-10112103D02*
X2817682Y-10121627D01*
X3112920Y-10064484D02*
X3017682Y-10064484D01*
X3017682Y-10064484D02*
X3008158Y-10159722D01*
X3008158Y-10159722D02*
X3017682Y-10150198D01*
X3017682Y-10150198D02*
X3036729Y-10140674D01*
X3036729Y-10140674D02*
X3084348Y-10140674D01*
X3084348Y-10140674D02*
X3103396Y-10150198D01*
X3103396Y-10150198D02*
X3112920Y-10159722D01*
X3112920Y-10159722D02*
X3122444Y-10178770D01*
X3122444Y-10178770D02*
X3122444Y-10226389D01*
X3122444Y-10226389D02*
X3112920Y-10245436D01*
X3112920Y-10245436D02*
X3103396Y-10254960D01*
X3103396Y-10254960D02*
X3084348Y-10264484D01*
X3084348Y-10264484D02*
X3036729Y-10264484D01*
X3036729Y-10264484D02*
X3017682Y-10254960D01*
X3017682Y-10254960D02*
X3008158Y-10245436D01*
X3198634Y-10064484D02*
X3198634Y-10102579D01*
X3274825Y-10064484D02*
X3274825Y-10102579D01*
X3570063Y-10340674D02*
X3560539Y-10331150D01*
X3560539Y-10331150D02*
X3541491Y-10302579D01*
X3541491Y-10302579D02*
X3531968Y-10283531D01*
X3531968Y-10283531D02*
X3522444Y-10254960D01*
X3522444Y-10254960D02*
X3512920Y-10207341D01*
X3512920Y-10207341D02*
X3512920Y-10169246D01*
X3512920Y-10169246D02*
X3522444Y-10121627D01*
X3522444Y-10121627D02*
X3531968Y-10093055D01*
X3531968Y-10093055D02*
X3541491Y-10074008D01*
X3541491Y-10074008D02*
X3560539Y-10045436D01*
X3560539Y-10045436D02*
X3570063Y-10035912D01*
X3684348Y-10064484D02*
X3703396Y-10064484D01*
X3703396Y-10064484D02*
X3722444Y-10074008D01*
X3722444Y-10074008D02*
X3731968Y-10083531D01*
X3731968Y-10083531D02*
X3741491Y-10102579D01*
X3741491Y-10102579D02*
X3751015Y-10140674D01*
X3751015Y-10140674D02*
X3751015Y-10188293D01*
X3751015Y-10188293D02*
X3741491Y-10226389D01*
X3741491Y-10226389D02*
X3731968Y-10245436D01*
X3731968Y-10245436D02*
X3722444Y-10254960D01*
X3722444Y-10254960D02*
X3703396Y-10264484D01*
X3703396Y-10264484D02*
X3684348Y-10264484D01*
X3684348Y-10264484D02*
X3665301Y-10254960D01*
X3665301Y-10254960D02*
X3655777Y-10245436D01*
X3655777Y-10245436D02*
X3646253Y-10226389D01*
X3646253Y-10226389D02*
X3636729Y-10188293D01*
X3636729Y-10188293D02*
X3636729Y-10140674D01*
X3636729Y-10140674D02*
X3646253Y-10102579D01*
X3646253Y-10102579D02*
X3655777Y-10083531D01*
X3655777Y-10083531D02*
X3665301Y-10074008D01*
X3665301Y-10074008D02*
X3684348Y-10064484D01*
X3989110Y-10264484D02*
X3989110Y-10064484D01*
X4074825Y-10264484D02*
X4074825Y-10159722D01*
X4074825Y-10159722D02*
X4065301Y-10140674D01*
X4065301Y-10140674D02*
X4046253Y-10131150D01*
X4046253Y-10131150D02*
X4017682Y-10131150D01*
X4017682Y-10131150D02*
X3998634Y-10140674D01*
X3998634Y-10140674D02*
X3989110Y-10150198D01*
X4198634Y-10264484D02*
X4179587Y-10254960D01*
X4179587Y-10254960D02*
X4170063Y-10245436D01*
X4170063Y-10245436D02*
X4160539Y-10226389D01*
X4160539Y-10226389D02*
X4160539Y-10169246D01*
X4160539Y-10169246D02*
X4170063Y-10150198D01*
X4170063Y-10150198D02*
X4179587Y-10140674D01*
X4179587Y-10140674D02*
X4198634Y-10131150D01*
X4198634Y-10131150D02*
X4227206Y-10131150D01*
X4227206Y-10131150D02*
X4246253Y-10140674D01*
X4246253Y-10140674D02*
X4255777Y-10150198D01*
X4255777Y-10150198D02*
X4265301Y-10169246D01*
X4265301Y-10169246D02*
X4265301Y-10226389D01*
X4265301Y-10226389D02*
X4255777Y-10245436D01*
X4255777Y-10245436D02*
X4246253Y-10254960D01*
X4246253Y-10254960D02*
X4227206Y-10264484D01*
X4227206Y-10264484D02*
X4198634Y-10264484D01*
X4379587Y-10264484D02*
X4360539Y-10254960D01*
X4360539Y-10254960D02*
X4351015Y-10235912D01*
X4351015Y-10235912D02*
X4351015Y-10064484D01*
X4531968Y-10254960D02*
X4512920Y-10264484D01*
X4512920Y-10264484D02*
X4474825Y-10264484D01*
X4474825Y-10264484D02*
X4455777Y-10254960D01*
X4455777Y-10254960D02*
X4446253Y-10235912D01*
X4446253Y-10235912D02*
X4446253Y-10159722D01*
X4446253Y-10159722D02*
X4455777Y-10140674D01*
X4455777Y-10140674D02*
X4474825Y-10131150D01*
X4474825Y-10131150D02*
X4512920Y-10131150D01*
X4512920Y-10131150D02*
X4531968Y-10140674D01*
X4531968Y-10140674D02*
X4541492Y-10159722D01*
X4541492Y-10159722D02*
X4541492Y-10178770D01*
X4541492Y-10178770D02*
X4446253Y-10197817D01*
X4617682Y-10254960D02*
X4636730Y-10264484D01*
X4636730Y-10264484D02*
X4674825Y-10264484D01*
X4674825Y-10264484D02*
X4693873Y-10254960D01*
X4693873Y-10254960D02*
X4703396Y-10235912D01*
X4703396Y-10235912D02*
X4703396Y-10226389D01*
X4703396Y-10226389D02*
X4693873Y-10207341D01*
X4693873Y-10207341D02*
X4674825Y-10197817D01*
X4674825Y-10197817D02*
X4646253Y-10197817D01*
X4646253Y-10197817D02*
X4627206Y-10188293D01*
X4627206Y-10188293D02*
X4617682Y-10169246D01*
X4617682Y-10169246D02*
X4617682Y-10159722D01*
X4617682Y-10159722D02*
X4627206Y-10140674D01*
X4627206Y-10140674D02*
X4646253Y-10131150D01*
X4646253Y-10131150D02*
X4674825Y-10131150D01*
X4674825Y-10131150D02*
X4693873Y-10140674D01*
X4941492Y-10188293D02*
X5093873Y-10188293D01*
X5017682Y-10264484D02*
X5017682Y-10112103D01*
X5427206Y-10131150D02*
X5427206Y-10264484D01*
X5379587Y-10054960D02*
X5331968Y-10197817D01*
X5331968Y-10197817D02*
X5455777Y-10197817D01*
X5674825Y-10254960D02*
X5693873Y-10264484D01*
X5693873Y-10264484D02*
X5731968Y-10264484D01*
X5731968Y-10264484D02*
X5751015Y-10254960D01*
X5751015Y-10254960D02*
X5760539Y-10235912D01*
X5760539Y-10235912D02*
X5760539Y-10226389D01*
X5760539Y-10226389D02*
X5751015Y-10207341D01*
X5751015Y-10207341D02*
X5731968Y-10197817D01*
X5731968Y-10197817D02*
X5703396Y-10197817D01*
X5703396Y-10197817D02*
X5684349Y-10188293D01*
X5684349Y-10188293D02*
X5674825Y-10169246D01*
X5674825Y-10169246D02*
X5674825Y-10159722D01*
X5674825Y-10159722D02*
X5684349Y-10140674D01*
X5684349Y-10140674D02*
X5703396Y-10131150D01*
X5703396Y-10131150D02*
X5731968Y-10131150D01*
X5731968Y-10131150D02*
X5751015Y-10140674D01*
X5874825Y-10264484D02*
X5855777Y-10254960D01*
X5855777Y-10254960D02*
X5846254Y-10235912D01*
X5846254Y-10235912D02*
X5846254Y-10064484D01*
X5979587Y-10264484D02*
X5960539Y-10254960D01*
X5960539Y-10254960D02*
X5951015Y-10245436D01*
X5951015Y-10245436D02*
X5941492Y-10226389D01*
X5941492Y-10226389D02*
X5941492Y-10169246D01*
X5941492Y-10169246D02*
X5951015Y-10150198D01*
X5951015Y-10150198D02*
X5960539Y-10140674D01*
X5960539Y-10140674D02*
X5979587Y-10131150D01*
X5979587Y-10131150D02*
X6008158Y-10131150D01*
X6008158Y-10131150D02*
X6027206Y-10140674D01*
X6027206Y-10140674D02*
X6036730Y-10150198D01*
X6036730Y-10150198D02*
X6046254Y-10169246D01*
X6046254Y-10169246D02*
X6046254Y-10226389D01*
X6046254Y-10226389D02*
X6036730Y-10245436D01*
X6036730Y-10245436D02*
X6027206Y-10254960D01*
X6027206Y-10254960D02*
X6008158Y-10264484D01*
X6008158Y-10264484D02*
X5979587Y-10264484D01*
X6103396Y-10131150D02*
X6179587Y-10131150D01*
X6131968Y-10064484D02*
X6131968Y-10235912D01*
X6131968Y-10235912D02*
X6141492Y-10254960D01*
X6141492Y-10254960D02*
X6160539Y-10264484D01*
X6160539Y-10264484D02*
X6179587Y-10264484D01*
X6236730Y-10254960D02*
X6255777Y-10264484D01*
X6255777Y-10264484D02*
X6293873Y-10264484D01*
X6293873Y-10264484D02*
X6312920Y-10254960D01*
X6312920Y-10254960D02*
X6322444Y-10235912D01*
X6322444Y-10235912D02*
X6322444Y-10226389D01*
X6322444Y-10226389D02*
X6312920Y-10207341D01*
X6312920Y-10207341D02*
X6293873Y-10197817D01*
X6293873Y-10197817D02*
X6265301Y-10197817D01*
X6265301Y-10197817D02*
X6246254Y-10188293D01*
X6246254Y-10188293D02*
X6236730Y-10169246D01*
X6236730Y-10169246D02*
X6236730Y-10159722D01*
X6236730Y-10159722D02*
X6246254Y-10140674D01*
X6246254Y-10140674D02*
X6265301Y-10131150D01*
X6265301Y-10131150D02*
X6293873Y-10131150D01*
X6293873Y-10131150D02*
X6312920Y-10140674D01*
X6389111Y-10340674D02*
X6398635Y-10331150D01*
X6398635Y-10331150D02*
X6417682Y-10302579D01*
X6417682Y-10302579D02*
X6427206Y-10283531D01*
X6427206Y-10283531D02*
X6436730Y-10254960D01*
X6436730Y-10254960D02*
X6446254Y-10207341D01*
X6446254Y-10207341D02*
X6446254Y-10169246D01*
X6446254Y-10169246D02*
X6436730Y-10121627D01*
X6436730Y-10121627D02*
X6427206Y-10093055D01*
X6427206Y-10093055D02*
X6417682Y-10074008D01*
X6417682Y-10074008D02*
X6398635Y-10045436D01*
X6398635Y-10045436D02*
X6389111Y-10035912D01*
D10*
X-19644Y-10472356D02*
X-19644Y-10401644D01*
X-90356Y-10401644D01*
X-90356Y-10472356D01*
X-19644Y-10472356D01*
D11*
X360539Y-10528484D02*
X246253Y-10528484D01*
X303396Y-10528484D02*
X303396Y-10328484D01*
X303396Y-10328484D02*
X284348Y-10357055D01*
X284348Y-10357055D02*
X265301Y-10376103D01*
X265301Y-10376103D02*
X246253Y-10385627D01*
X446253Y-10509436D02*
X455777Y-10518960D01*
X455777Y-10518960D02*
X446253Y-10528484D01*
X446253Y-10528484D02*
X436729Y-10518960D01*
X436729Y-10518960D02*
X446253Y-10509436D01*
X446253Y-10509436D02*
X446253Y-10528484D01*
X579586Y-10328484D02*
X598634Y-10328484D01*
X598634Y-10328484D02*
X617682Y-10338008D01*
X617682Y-10338008D02*
X627205Y-10347531D01*
X627205Y-10347531D02*
X636729Y-10366579D01*
X636729Y-10366579D02*
X646253Y-10404674D01*
X646253Y-10404674D02*
X646253Y-10452293D01*
X646253Y-10452293D02*
X636729Y-10490389D01*
X636729Y-10490389D02*
X627205Y-10509436D01*
X627205Y-10509436D02*
X617682Y-10518960D01*
X617682Y-10518960D02*
X598634Y-10528484D01*
X598634Y-10528484D02*
X579586Y-10528484D01*
X579586Y-10528484D02*
X560539Y-10518960D01*
X560539Y-10518960D02*
X551015Y-10509436D01*
X551015Y-10509436D02*
X541491Y-10490389D01*
X541491Y-10490389D02*
X531967Y-10452293D01*
X531967Y-10452293D02*
X531967Y-10404674D01*
X531967Y-10404674D02*
X541491Y-10366579D01*
X541491Y-10366579D02*
X551015Y-10347531D01*
X551015Y-10347531D02*
X560539Y-10338008D01*
X560539Y-10338008D02*
X579586Y-10328484D01*
X770062Y-10328484D02*
X789110Y-10328484D01*
X789110Y-10328484D02*
X808158Y-10338008D01*
X808158Y-10338008D02*
X817682Y-10347531D01*
X817682Y-10347531D02*
X827205Y-10366579D01*
X827205Y-10366579D02*
X836729Y-10404674D01*
X836729Y-10404674D02*
X836729Y-10452293D01*
X836729Y-10452293D02*
X827205Y-10490389D01*
X827205Y-10490389D02*
X817682Y-10509436D01*
X817682Y-10509436D02*
X808158Y-10518960D01*
X808158Y-10518960D02*
X789110Y-10528484D01*
X789110Y-10528484D02*
X770062Y-10528484D01*
X770062Y-10528484D02*
X751015Y-10518960D01*
X751015Y-10518960D02*
X741491Y-10509436D01*
X741491Y-10509436D02*
X731967Y-10490389D01*
X731967Y-10490389D02*
X722443Y-10452293D01*
X722443Y-10452293D02*
X722443Y-10404674D01*
X722443Y-10404674D02*
X731967Y-10366579D01*
X731967Y-10366579D02*
X741491Y-10347531D01*
X741491Y-10347531D02*
X751015Y-10338008D01*
X751015Y-10338008D02*
X770062Y-10328484D01*
X960539Y-10328484D02*
X979586Y-10328484D01*
X979586Y-10328484D02*
X998634Y-10338008D01*
X998634Y-10338008D02*
X1008158Y-10347531D01*
X1008158Y-10347531D02*
X1017682Y-10366579D01*
X1017682Y-10366579D02*
X1027205Y-10404674D01*
X1027205Y-10404674D02*
X1027205Y-10452293D01*
X1027205Y-10452293D02*
X1017682Y-10490389D01*
X1017682Y-10490389D02*
X1008158Y-10509436D01*
X1008158Y-10509436D02*
X998634Y-10518960D01*
X998634Y-10518960D02*
X979586Y-10528484D01*
X979586Y-10528484D02*
X960539Y-10528484D01*
X960539Y-10528484D02*
X941491Y-10518960D01*
X941491Y-10518960D02*
X931967Y-10509436D01*
X931967Y-10509436D02*
X922443Y-10490389D01*
X922443Y-10490389D02*
X912920Y-10452293D01*
X912920Y-10452293D02*
X912920Y-10404674D01*
X912920Y-10404674D02*
X922443Y-10366579D01*
X922443Y-10366579D02*
X931967Y-10347531D01*
X931967Y-10347531D02*
X941491Y-10338008D01*
X941491Y-10338008D02*
X960539Y-10328484D01*
X1112920Y-10528484D02*
X1112920Y-10395150D01*
X1112920Y-10414198D02*
X1122444Y-10404674D01*
X1122444Y-10404674D02*
X1141491Y-10395150D01*
X1141491Y-10395150D02*
X1170063Y-10395150D01*
X1170063Y-10395150D02*
X1189110Y-10404674D01*
X1189110Y-10404674D02*
X1198634Y-10423722D01*
X1198634Y-10423722D02*
X1198634Y-10528484D01*
X1198634Y-10423722D02*
X1208158Y-10404674D01*
X1208158Y-10404674D02*
X1227205Y-10395150D01*
X1227205Y-10395150D02*
X1255777Y-10395150D01*
X1255777Y-10395150D02*
X1274825Y-10404674D01*
X1274825Y-10404674D02*
X1284348Y-10423722D01*
X1284348Y-10423722D02*
X1284348Y-10528484D01*
X1379586Y-10528484D02*
X1379586Y-10395150D01*
X1379586Y-10414198D02*
X1389110Y-10404674D01*
X1389110Y-10404674D02*
X1408158Y-10395150D01*
X1408158Y-10395150D02*
X1436729Y-10395150D01*
X1436729Y-10395150D02*
X1455777Y-10404674D01*
X1455777Y-10404674D02*
X1465301Y-10423722D01*
X1465301Y-10423722D02*
X1465301Y-10528484D01*
X1465301Y-10423722D02*
X1474824Y-10404674D01*
X1474824Y-10404674D02*
X1493872Y-10395150D01*
X1493872Y-10395150D02*
X1522443Y-10395150D01*
X1522443Y-10395150D02*
X1541491Y-10404674D01*
X1541491Y-10404674D02*
X1551015Y-10423722D01*
X1551015Y-10423722D02*
X1551015Y-10528484D01*
X1941491Y-10318960D02*
X1770063Y-10576103D01*
X2198634Y-10328484D02*
X2217682Y-10328484D01*
X2217682Y-10328484D02*
X2236729Y-10338008D01*
X2236729Y-10338008D02*
X2246253Y-10347531D01*
X2246253Y-10347531D02*
X2255777Y-10366579D01*
X2255777Y-10366579D02*
X2265301Y-10404674D01*
X2265301Y-10404674D02*
X2265301Y-10452293D01*
X2265301Y-10452293D02*
X2255777Y-10490389D01*
X2255777Y-10490389D02*
X2246253Y-10509436D01*
X2246253Y-10509436D02*
X2236729Y-10518960D01*
X2236729Y-10518960D02*
X2217682Y-10528484D01*
X2217682Y-10528484D02*
X2198634Y-10528484D01*
X2198634Y-10528484D02*
X2179587Y-10518960D01*
X2179587Y-10518960D02*
X2170063Y-10509436D01*
X2170063Y-10509436D02*
X2160539Y-10490389D01*
X2160539Y-10490389D02*
X2151015Y-10452293D01*
X2151015Y-10452293D02*
X2151015Y-10404674D01*
X2151015Y-10404674D02*
X2160539Y-10366579D01*
X2160539Y-10366579D02*
X2170063Y-10347531D01*
X2170063Y-10347531D02*
X2179587Y-10338008D01*
X2179587Y-10338008D02*
X2198634Y-10328484D01*
X2351015Y-10509436D02*
X2360539Y-10518960D01*
X2360539Y-10518960D02*
X2351015Y-10528484D01*
X2351015Y-10528484D02*
X2341491Y-10518960D01*
X2341491Y-10518960D02*
X2351015Y-10509436D01*
X2351015Y-10509436D02*
X2351015Y-10528484D01*
X2484348Y-10328484D02*
X2503396Y-10328484D01*
X2503396Y-10328484D02*
X2522444Y-10338008D01*
X2522444Y-10338008D02*
X2531968Y-10347531D01*
X2531968Y-10347531D02*
X2541491Y-10366579D01*
X2541491Y-10366579D02*
X2551015Y-10404674D01*
X2551015Y-10404674D02*
X2551015Y-10452293D01*
X2551015Y-10452293D02*
X2541491Y-10490389D01*
X2541491Y-10490389D02*
X2531968Y-10509436D01*
X2531968Y-10509436D02*
X2522444Y-10518960D01*
X2522444Y-10518960D02*
X2503396Y-10528484D01*
X2503396Y-10528484D02*
X2484348Y-10528484D01*
X2484348Y-10528484D02*
X2465301Y-10518960D01*
X2465301Y-10518960D02*
X2455777Y-10509436D01*
X2455777Y-10509436D02*
X2446253Y-10490389D01*
X2446253Y-10490389D02*
X2436729Y-10452293D01*
X2436729Y-10452293D02*
X2436729Y-10404674D01*
X2436729Y-10404674D02*
X2446253Y-10366579D01*
X2446253Y-10366579D02*
X2455777Y-10347531D01*
X2455777Y-10347531D02*
X2465301Y-10338008D01*
X2465301Y-10338008D02*
X2484348Y-10328484D01*
X2617682Y-10328484D02*
X2741491Y-10328484D01*
X2741491Y-10328484D02*
X2674825Y-10404674D01*
X2674825Y-10404674D02*
X2703396Y-10404674D01*
X2703396Y-10404674D02*
X2722444Y-10414198D01*
X2722444Y-10414198D02*
X2731968Y-10423722D01*
X2731968Y-10423722D02*
X2741491Y-10442770D01*
X2741491Y-10442770D02*
X2741491Y-10490389D01*
X2741491Y-10490389D02*
X2731968Y-10509436D01*
X2731968Y-10509436D02*
X2722444Y-10518960D01*
X2722444Y-10518960D02*
X2703396Y-10528484D01*
X2703396Y-10528484D02*
X2646253Y-10528484D01*
X2646253Y-10528484D02*
X2627206Y-10518960D01*
X2627206Y-10518960D02*
X2617682Y-10509436D01*
X2836729Y-10528484D02*
X2874825Y-10528484D01*
X2874825Y-10528484D02*
X2893872Y-10518960D01*
X2893872Y-10518960D02*
X2903396Y-10509436D01*
X2903396Y-10509436D02*
X2922444Y-10480865D01*
X2922444Y-10480865D02*
X2931967Y-10442770D01*
X2931967Y-10442770D02*
X2931967Y-10366579D01*
X2931967Y-10366579D02*
X2922444Y-10347531D01*
X2922444Y-10347531D02*
X2912920Y-10338008D01*
X2912920Y-10338008D02*
X2893872Y-10328484D01*
X2893872Y-10328484D02*
X2855777Y-10328484D01*
X2855777Y-10328484D02*
X2836729Y-10338008D01*
X2836729Y-10338008D02*
X2827206Y-10347531D01*
X2827206Y-10347531D02*
X2817682Y-10366579D01*
X2817682Y-10366579D02*
X2817682Y-10414198D01*
X2817682Y-10414198D02*
X2827206Y-10433246D01*
X2827206Y-10433246D02*
X2836729Y-10442770D01*
X2836729Y-10442770D02*
X2855777Y-10452293D01*
X2855777Y-10452293D02*
X2893872Y-10452293D01*
X2893872Y-10452293D02*
X2912920Y-10442770D01*
X2912920Y-10442770D02*
X2922444Y-10433246D01*
X2922444Y-10433246D02*
X2931967Y-10414198D01*
X3103396Y-10395150D02*
X3103396Y-10528484D01*
X3055777Y-10318960D02*
X3008158Y-10461817D01*
X3008158Y-10461817D02*
X3131967Y-10461817D01*
X3198634Y-10328484D02*
X3198634Y-10366579D01*
X3274825Y-10328484D02*
X3274825Y-10366579D01*
X3570063Y-10604674D02*
X3560539Y-10595150D01*
X3560539Y-10595150D02*
X3541491Y-10566579D01*
X3541491Y-10566579D02*
X3531968Y-10547531D01*
X3531968Y-10547531D02*
X3522444Y-10518960D01*
X3522444Y-10518960D02*
X3512920Y-10471341D01*
X3512920Y-10471341D02*
X3512920Y-10433246D01*
X3512920Y-10433246D02*
X3522444Y-10385627D01*
X3522444Y-10385627D02*
X3531968Y-10357055D01*
X3531968Y-10357055D02*
X3541491Y-10338008D01*
X3541491Y-10338008D02*
X3560539Y-10309436D01*
X3560539Y-10309436D02*
X3570063Y-10299912D01*
X3636729Y-10347531D02*
X3646253Y-10338008D01*
X3646253Y-10338008D02*
X3665301Y-10328484D01*
X3665301Y-10328484D02*
X3712920Y-10328484D01*
X3712920Y-10328484D02*
X3731968Y-10338008D01*
X3731968Y-10338008D02*
X3741491Y-10347531D01*
X3741491Y-10347531D02*
X3751015Y-10366579D01*
X3751015Y-10366579D02*
X3751015Y-10385627D01*
X3751015Y-10385627D02*
X3741491Y-10414198D01*
X3741491Y-10414198D02*
X3627206Y-10528484D01*
X3627206Y-10528484D02*
X3751015Y-10528484D01*
X3989110Y-10528484D02*
X3989110Y-10328484D01*
X4074825Y-10528484D02*
X4074825Y-10423722D01*
X4074825Y-10423722D02*
X4065301Y-10404674D01*
X4065301Y-10404674D02*
X4046253Y-10395150D01*
X4046253Y-10395150D02*
X4017682Y-10395150D01*
X4017682Y-10395150D02*
X3998634Y-10404674D01*
X3998634Y-10404674D02*
X3989110Y-10414198D01*
X4198634Y-10528484D02*
X4179587Y-10518960D01*
X4179587Y-10518960D02*
X4170063Y-10509436D01*
X4170063Y-10509436D02*
X4160539Y-10490389D01*
X4160539Y-10490389D02*
X4160539Y-10433246D01*
X4160539Y-10433246D02*
X4170063Y-10414198D01*
X4170063Y-10414198D02*
X4179587Y-10404674D01*
X4179587Y-10404674D02*
X4198634Y-10395150D01*
X4198634Y-10395150D02*
X4227206Y-10395150D01*
X4227206Y-10395150D02*
X4246253Y-10404674D01*
X4246253Y-10404674D02*
X4255777Y-10414198D01*
X4255777Y-10414198D02*
X4265301Y-10433246D01*
X4265301Y-10433246D02*
X4265301Y-10490389D01*
X4265301Y-10490389D02*
X4255777Y-10509436D01*
X4255777Y-10509436D02*
X4246253Y-10518960D01*
X4246253Y-10518960D02*
X4227206Y-10528484D01*
X4227206Y-10528484D02*
X4198634Y-10528484D01*
X4379587Y-10528484D02*
X4360539Y-10518960D01*
X4360539Y-10518960D02*
X4351015Y-10499912D01*
X4351015Y-10499912D02*
X4351015Y-10328484D01*
X4531968Y-10518960D02*
X4512920Y-10528484D01*
X4512920Y-10528484D02*
X4474825Y-10528484D01*
X4474825Y-10528484D02*
X4455777Y-10518960D01*
X4455777Y-10518960D02*
X4446253Y-10499912D01*
X4446253Y-10499912D02*
X4446253Y-10423722D01*
X4446253Y-10423722D02*
X4455777Y-10404674D01*
X4455777Y-10404674D02*
X4474825Y-10395150D01*
X4474825Y-10395150D02*
X4512920Y-10395150D01*
X4512920Y-10395150D02*
X4531968Y-10404674D01*
X4531968Y-10404674D02*
X4541492Y-10423722D01*
X4541492Y-10423722D02*
X4541492Y-10442770D01*
X4541492Y-10442770D02*
X4446253Y-10461817D01*
X4617682Y-10518960D02*
X4636730Y-10528484D01*
X4636730Y-10528484D02*
X4674825Y-10528484D01*
X4674825Y-10528484D02*
X4693873Y-10518960D01*
X4693873Y-10518960D02*
X4703396Y-10499912D01*
X4703396Y-10499912D02*
X4703396Y-10490389D01*
X4703396Y-10490389D02*
X4693873Y-10471341D01*
X4693873Y-10471341D02*
X4674825Y-10461817D01*
X4674825Y-10461817D02*
X4646253Y-10461817D01*
X4646253Y-10461817D02*
X4627206Y-10452293D01*
X4627206Y-10452293D02*
X4617682Y-10433246D01*
X4617682Y-10433246D02*
X4617682Y-10423722D01*
X4617682Y-10423722D02*
X4627206Y-10404674D01*
X4627206Y-10404674D02*
X4646253Y-10395150D01*
X4646253Y-10395150D02*
X4674825Y-10395150D01*
X4674825Y-10395150D02*
X4693873Y-10404674D01*
X4770063Y-10604674D02*
X4779587Y-10595150D01*
X4779587Y-10595150D02*
X4798634Y-10566579D01*
X4798634Y-10566579D02*
X4808158Y-10547531D01*
X4808158Y-10547531D02*
X4817682Y-10518960D01*
X4817682Y-10518960D02*
X4827206Y-10471341D01*
X4827206Y-10471341D02*
X4827206Y-10433246D01*
X4827206Y-10433246D02*
X4817682Y-10385627D01*
X4817682Y-10385627D02*
X4808158Y-10357055D01*
X4808158Y-10357055D02*
X4798634Y-10338008D01*
X4798634Y-10338008D02*
X4779587Y-10309436D01*
X4779587Y-10309436D02*
X4770063Y-10299912D01*
D12*
X-65000Y-10761000D02*
X-5000Y-10701000D01*
X-65000Y-10641000D01*
X-125000Y-10701000D01*
X-65000Y-10761000D01*
D11*
X360539Y-10792484D02*
X246253Y-10792484D01*
X303396Y-10792484D02*
X303396Y-10592484D01*
X303396Y-10592484D02*
X284348Y-10621055D01*
X284348Y-10621055D02*
X265301Y-10640103D01*
X265301Y-10640103D02*
X246253Y-10649627D01*
X446253Y-10773436D02*
X455777Y-10782960D01*
X455777Y-10782960D02*
X446253Y-10792484D01*
X446253Y-10792484D02*
X436729Y-10782960D01*
X436729Y-10782960D02*
X446253Y-10773436D01*
X446253Y-10773436D02*
X446253Y-10792484D01*
X531967Y-10611531D02*
X541491Y-10602008D01*
X541491Y-10602008D02*
X560539Y-10592484D01*
X560539Y-10592484D02*
X608158Y-10592484D01*
X608158Y-10592484D02*
X627205Y-10602008D01*
X627205Y-10602008D02*
X636729Y-10611531D01*
X636729Y-10611531D02*
X646253Y-10630579D01*
X646253Y-10630579D02*
X646253Y-10649627D01*
X646253Y-10649627D02*
X636729Y-10678198D01*
X636729Y-10678198D02*
X522443Y-10792484D01*
X522443Y-10792484D02*
X646253Y-10792484D01*
X770062Y-10592484D02*
X789110Y-10592484D01*
X789110Y-10592484D02*
X808158Y-10602008D01*
X808158Y-10602008D02*
X817682Y-10611531D01*
X817682Y-10611531D02*
X827205Y-10630579D01*
X827205Y-10630579D02*
X836729Y-10668674D01*
X836729Y-10668674D02*
X836729Y-10716293D01*
X836729Y-10716293D02*
X827205Y-10754389D01*
X827205Y-10754389D02*
X817682Y-10773436D01*
X817682Y-10773436D02*
X808158Y-10782960D01*
X808158Y-10782960D02*
X789110Y-10792484D01*
X789110Y-10792484D02*
X770062Y-10792484D01*
X770062Y-10792484D02*
X751015Y-10782960D01*
X751015Y-10782960D02*
X741491Y-10773436D01*
X741491Y-10773436D02*
X731967Y-10754389D01*
X731967Y-10754389D02*
X722443Y-10716293D01*
X722443Y-10716293D02*
X722443Y-10668674D01*
X722443Y-10668674D02*
X731967Y-10630579D01*
X731967Y-10630579D02*
X741491Y-10611531D01*
X741491Y-10611531D02*
X751015Y-10602008D01*
X751015Y-10602008D02*
X770062Y-10592484D01*
X960539Y-10592484D02*
X979586Y-10592484D01*
X979586Y-10592484D02*
X998634Y-10602008D01*
X998634Y-10602008D02*
X1008158Y-10611531D01*
X1008158Y-10611531D02*
X1017682Y-10630579D01*
X1017682Y-10630579D02*
X1027205Y-10668674D01*
X1027205Y-10668674D02*
X1027205Y-10716293D01*
X1027205Y-10716293D02*
X1017682Y-10754389D01*
X1017682Y-10754389D02*
X1008158Y-10773436D01*
X1008158Y-10773436D02*
X998634Y-10782960D01*
X998634Y-10782960D02*
X979586Y-10792484D01*
X979586Y-10792484D02*
X960539Y-10792484D01*
X960539Y-10792484D02*
X941491Y-10782960D01*
X941491Y-10782960D02*
X931967Y-10773436D01*
X931967Y-10773436D02*
X922443Y-10754389D01*
X922443Y-10754389D02*
X912920Y-10716293D01*
X912920Y-10716293D02*
X912920Y-10668674D01*
X912920Y-10668674D02*
X922443Y-10630579D01*
X922443Y-10630579D02*
X931967Y-10611531D01*
X931967Y-10611531D02*
X941491Y-10602008D01*
X941491Y-10602008D02*
X960539Y-10592484D01*
X1112920Y-10792484D02*
X1112920Y-10659150D01*
X1112920Y-10678198D02*
X1122444Y-10668674D01*
X1122444Y-10668674D02*
X1141491Y-10659150D01*
X1141491Y-10659150D02*
X1170063Y-10659150D01*
X1170063Y-10659150D02*
X1189110Y-10668674D01*
X1189110Y-10668674D02*
X1198634Y-10687722D01*
X1198634Y-10687722D02*
X1198634Y-10792484D01*
X1198634Y-10687722D02*
X1208158Y-10668674D01*
X1208158Y-10668674D02*
X1227205Y-10659150D01*
X1227205Y-10659150D02*
X1255777Y-10659150D01*
X1255777Y-10659150D02*
X1274825Y-10668674D01*
X1274825Y-10668674D02*
X1284348Y-10687722D01*
X1284348Y-10687722D02*
X1284348Y-10792484D01*
X1379586Y-10792484D02*
X1379586Y-10659150D01*
X1379586Y-10678198D02*
X1389110Y-10668674D01*
X1389110Y-10668674D02*
X1408158Y-10659150D01*
X1408158Y-10659150D02*
X1436729Y-10659150D01*
X1436729Y-10659150D02*
X1455777Y-10668674D01*
X1455777Y-10668674D02*
X1465301Y-10687722D01*
X1465301Y-10687722D02*
X1465301Y-10792484D01*
X1465301Y-10687722D02*
X1474824Y-10668674D01*
X1474824Y-10668674D02*
X1493872Y-10659150D01*
X1493872Y-10659150D02*
X1522443Y-10659150D01*
X1522443Y-10659150D02*
X1541491Y-10668674D01*
X1541491Y-10668674D02*
X1551015Y-10687722D01*
X1551015Y-10687722D02*
X1551015Y-10792484D01*
X1941491Y-10582960D02*
X1770063Y-10840103D01*
X2198634Y-10592484D02*
X2217682Y-10592484D01*
X2217682Y-10592484D02*
X2236729Y-10602008D01*
X2236729Y-10602008D02*
X2246253Y-10611531D01*
X2246253Y-10611531D02*
X2255777Y-10630579D01*
X2255777Y-10630579D02*
X2265301Y-10668674D01*
X2265301Y-10668674D02*
X2265301Y-10716293D01*
X2265301Y-10716293D02*
X2255777Y-10754389D01*
X2255777Y-10754389D02*
X2246253Y-10773436D01*
X2246253Y-10773436D02*
X2236729Y-10782960D01*
X2236729Y-10782960D02*
X2217682Y-10792484D01*
X2217682Y-10792484D02*
X2198634Y-10792484D01*
X2198634Y-10792484D02*
X2179587Y-10782960D01*
X2179587Y-10782960D02*
X2170063Y-10773436D01*
X2170063Y-10773436D02*
X2160539Y-10754389D01*
X2160539Y-10754389D02*
X2151015Y-10716293D01*
X2151015Y-10716293D02*
X2151015Y-10668674D01*
X2151015Y-10668674D02*
X2160539Y-10630579D01*
X2160539Y-10630579D02*
X2170063Y-10611531D01*
X2170063Y-10611531D02*
X2179587Y-10602008D01*
X2179587Y-10602008D02*
X2198634Y-10592484D01*
X2351015Y-10773436D02*
X2360539Y-10782960D01*
X2360539Y-10782960D02*
X2351015Y-10792484D01*
X2351015Y-10792484D02*
X2341491Y-10782960D01*
X2341491Y-10782960D02*
X2351015Y-10773436D01*
X2351015Y-10773436D02*
X2351015Y-10792484D01*
X2484348Y-10592484D02*
X2503396Y-10592484D01*
X2503396Y-10592484D02*
X2522444Y-10602008D01*
X2522444Y-10602008D02*
X2531968Y-10611531D01*
X2531968Y-10611531D02*
X2541491Y-10630579D01*
X2541491Y-10630579D02*
X2551015Y-10668674D01*
X2551015Y-10668674D02*
X2551015Y-10716293D01*
X2551015Y-10716293D02*
X2541491Y-10754389D01*
X2541491Y-10754389D02*
X2531968Y-10773436D01*
X2531968Y-10773436D02*
X2522444Y-10782960D01*
X2522444Y-10782960D02*
X2503396Y-10792484D01*
X2503396Y-10792484D02*
X2484348Y-10792484D01*
X2484348Y-10792484D02*
X2465301Y-10782960D01*
X2465301Y-10782960D02*
X2455777Y-10773436D01*
X2455777Y-10773436D02*
X2446253Y-10754389D01*
X2446253Y-10754389D02*
X2436729Y-10716293D01*
X2436729Y-10716293D02*
X2436729Y-10668674D01*
X2436729Y-10668674D02*
X2446253Y-10630579D01*
X2446253Y-10630579D02*
X2455777Y-10611531D01*
X2455777Y-10611531D02*
X2465301Y-10602008D01*
X2465301Y-10602008D02*
X2484348Y-10592484D01*
X2722444Y-10659150D02*
X2722444Y-10792484D01*
X2674825Y-10582960D02*
X2627206Y-10725817D01*
X2627206Y-10725817D02*
X2751015Y-10725817D01*
X2808158Y-10592484D02*
X2941491Y-10592484D01*
X2941491Y-10592484D02*
X2855777Y-10792484D01*
X3008158Y-10611531D02*
X3017682Y-10602008D01*
X3017682Y-10602008D02*
X3036729Y-10592484D01*
X3036729Y-10592484D02*
X3084348Y-10592484D01*
X3084348Y-10592484D02*
X3103396Y-10602008D01*
X3103396Y-10602008D02*
X3112920Y-10611531D01*
X3112920Y-10611531D02*
X3122444Y-10630579D01*
X3122444Y-10630579D02*
X3122444Y-10649627D01*
X3122444Y-10649627D02*
X3112920Y-10678198D01*
X3112920Y-10678198D02*
X2998634Y-10792484D01*
X2998634Y-10792484D02*
X3122444Y-10792484D01*
X3198634Y-10592484D02*
X3198634Y-10630579D01*
X3274825Y-10592484D02*
X3274825Y-10630579D01*
X3570063Y-10868674D02*
X3560539Y-10859150D01*
X3560539Y-10859150D02*
X3541491Y-10830579D01*
X3541491Y-10830579D02*
X3531968Y-10811531D01*
X3531968Y-10811531D02*
X3522444Y-10782960D01*
X3522444Y-10782960D02*
X3512920Y-10735341D01*
X3512920Y-10735341D02*
X3512920Y-10697246D01*
X3512920Y-10697246D02*
X3522444Y-10649627D01*
X3522444Y-10649627D02*
X3531968Y-10621055D01*
X3531968Y-10621055D02*
X3541491Y-10602008D01*
X3541491Y-10602008D02*
X3560539Y-10573436D01*
X3560539Y-10573436D02*
X3570063Y-10563912D01*
X3741491Y-10592484D02*
X3646253Y-10592484D01*
X3646253Y-10592484D02*
X3636729Y-10687722D01*
X3636729Y-10687722D02*
X3646253Y-10678198D01*
X3646253Y-10678198D02*
X3665301Y-10668674D01*
X3665301Y-10668674D02*
X3712920Y-10668674D01*
X3712920Y-10668674D02*
X3731968Y-10678198D01*
X3731968Y-10678198D02*
X3741491Y-10687722D01*
X3741491Y-10687722D02*
X3751015Y-10706770D01*
X3751015Y-10706770D02*
X3751015Y-10754389D01*
X3751015Y-10754389D02*
X3741491Y-10773436D01*
X3741491Y-10773436D02*
X3731968Y-10782960D01*
X3731968Y-10782960D02*
X3712920Y-10792484D01*
X3712920Y-10792484D02*
X3665301Y-10792484D01*
X3665301Y-10792484D02*
X3646253Y-10782960D01*
X3646253Y-10782960D02*
X3636729Y-10773436D01*
X3989110Y-10792484D02*
X3989110Y-10592484D01*
X4074825Y-10792484D02*
X4074825Y-10687722D01*
X4074825Y-10687722D02*
X4065301Y-10668674D01*
X4065301Y-10668674D02*
X4046253Y-10659150D01*
X4046253Y-10659150D02*
X4017682Y-10659150D01*
X4017682Y-10659150D02*
X3998634Y-10668674D01*
X3998634Y-10668674D02*
X3989110Y-10678198D01*
X4198634Y-10792484D02*
X4179587Y-10782960D01*
X4179587Y-10782960D02*
X4170063Y-10773436D01*
X4170063Y-10773436D02*
X4160539Y-10754389D01*
X4160539Y-10754389D02*
X4160539Y-10697246D01*
X4160539Y-10697246D02*
X4170063Y-10678198D01*
X4170063Y-10678198D02*
X4179587Y-10668674D01*
X4179587Y-10668674D02*
X4198634Y-10659150D01*
X4198634Y-10659150D02*
X4227206Y-10659150D01*
X4227206Y-10659150D02*
X4246253Y-10668674D01*
X4246253Y-10668674D02*
X4255777Y-10678198D01*
X4255777Y-10678198D02*
X4265301Y-10697246D01*
X4265301Y-10697246D02*
X4265301Y-10754389D01*
X4265301Y-10754389D02*
X4255777Y-10773436D01*
X4255777Y-10773436D02*
X4246253Y-10782960D01*
X4246253Y-10782960D02*
X4227206Y-10792484D01*
X4227206Y-10792484D02*
X4198634Y-10792484D01*
X4379587Y-10792484D02*
X4360539Y-10782960D01*
X4360539Y-10782960D02*
X4351015Y-10763912D01*
X4351015Y-10763912D02*
X4351015Y-10592484D01*
X4531968Y-10782960D02*
X4512920Y-10792484D01*
X4512920Y-10792484D02*
X4474825Y-10792484D01*
X4474825Y-10792484D02*
X4455777Y-10782960D01*
X4455777Y-10782960D02*
X4446253Y-10763912D01*
X4446253Y-10763912D02*
X4446253Y-10687722D01*
X4446253Y-10687722D02*
X4455777Y-10668674D01*
X4455777Y-10668674D02*
X4474825Y-10659150D01*
X4474825Y-10659150D02*
X4512920Y-10659150D01*
X4512920Y-10659150D02*
X4531968Y-10668674D01*
X4531968Y-10668674D02*
X4541492Y-10687722D01*
X4541492Y-10687722D02*
X4541492Y-10706770D01*
X4541492Y-10706770D02*
X4446253Y-10725817D01*
X4617682Y-10782960D02*
X4636730Y-10792484D01*
X4636730Y-10792484D02*
X4674825Y-10792484D01*
X4674825Y-10792484D02*
X4693873Y-10782960D01*
X4693873Y-10782960D02*
X4703396Y-10763912D01*
X4703396Y-10763912D02*
X4703396Y-10754389D01*
X4703396Y-10754389D02*
X4693873Y-10735341D01*
X4693873Y-10735341D02*
X4674825Y-10725817D01*
X4674825Y-10725817D02*
X4646253Y-10725817D01*
X4646253Y-10725817D02*
X4627206Y-10716293D01*
X4627206Y-10716293D02*
X4617682Y-10697246D01*
X4617682Y-10697246D02*
X4617682Y-10687722D01*
X4617682Y-10687722D02*
X4627206Y-10668674D01*
X4627206Y-10668674D02*
X4646253Y-10659150D01*
X4646253Y-10659150D02*
X4674825Y-10659150D01*
X4674825Y-10659150D02*
X4693873Y-10668674D01*
X4770063Y-10868674D02*
X4779587Y-10859150D01*
X4779587Y-10859150D02*
X4798634Y-10830579D01*
X4798634Y-10830579D02*
X4808158Y-10811531D01*
X4808158Y-10811531D02*
X4817682Y-10782960D01*
X4817682Y-10782960D02*
X4827206Y-10735341D01*
X4827206Y-10735341D02*
X4827206Y-10697246D01*
X4827206Y-10697246D02*
X4817682Y-10649627D01*
X4817682Y-10649627D02*
X4808158Y-10621055D01*
X4808158Y-10621055D02*
X4798634Y-10602008D01*
X4798634Y-10602008D02*
X4779587Y-10573436D01*
X4779587Y-10573436D02*
X4770063Y-10563912D01*
D13*
X-125000Y-10905000D02*
X-5000Y-11025000D01*
X-5000Y-10905000D02*
X-125000Y-11025000D01*
X-5000Y-10965000D02*
G75*
G02*
X-125000Y-10965000I-60000J0D01*
G01*
X-125000Y-10965000D02*
G75*
G02*
X-5000Y-10965000I60000J0D01*
G01*
D11*
X360539Y-11056484D02*
X246253Y-11056484D01*
X303396Y-11056484D02*
X303396Y-10856484D01*
X303396Y-10856484D02*
X284348Y-10885055D01*
X284348Y-10885055D02*
X265301Y-10904103D01*
X265301Y-10904103D02*
X246253Y-10913627D01*
X446253Y-11037436D02*
X455777Y-11046960D01*
X455777Y-11046960D02*
X446253Y-11056484D01*
X446253Y-11056484D02*
X436729Y-11046960D01*
X436729Y-11046960D02*
X446253Y-11037436D01*
X446253Y-11037436D02*
X446253Y-11056484D01*
X531967Y-10875531D02*
X541491Y-10866008D01*
X541491Y-10866008D02*
X560539Y-10856484D01*
X560539Y-10856484D02*
X608158Y-10856484D01*
X608158Y-10856484D02*
X627205Y-10866008D01*
X627205Y-10866008D02*
X636729Y-10875531D01*
X636729Y-10875531D02*
X646253Y-10894579D01*
X646253Y-10894579D02*
X646253Y-10913627D01*
X646253Y-10913627D02*
X636729Y-10942198D01*
X636729Y-10942198D02*
X522443Y-11056484D01*
X522443Y-11056484D02*
X646253Y-11056484D01*
X770062Y-10856484D02*
X789110Y-10856484D01*
X789110Y-10856484D02*
X808158Y-10866008D01*
X808158Y-10866008D02*
X817682Y-10875531D01*
X817682Y-10875531D02*
X827205Y-10894579D01*
X827205Y-10894579D02*
X836729Y-10932674D01*
X836729Y-10932674D02*
X836729Y-10980293D01*
X836729Y-10980293D02*
X827205Y-11018389D01*
X827205Y-11018389D02*
X817682Y-11037436D01*
X817682Y-11037436D02*
X808158Y-11046960D01*
X808158Y-11046960D02*
X789110Y-11056484D01*
X789110Y-11056484D02*
X770062Y-11056484D01*
X770062Y-11056484D02*
X751015Y-11046960D01*
X751015Y-11046960D02*
X741491Y-11037436D01*
X741491Y-11037436D02*
X731967Y-11018389D01*
X731967Y-11018389D02*
X722443Y-10980293D01*
X722443Y-10980293D02*
X722443Y-10932674D01*
X722443Y-10932674D02*
X731967Y-10894579D01*
X731967Y-10894579D02*
X741491Y-10875531D01*
X741491Y-10875531D02*
X751015Y-10866008D01*
X751015Y-10866008D02*
X770062Y-10856484D01*
X960539Y-10856484D02*
X979586Y-10856484D01*
X979586Y-10856484D02*
X998634Y-10866008D01*
X998634Y-10866008D02*
X1008158Y-10875531D01*
X1008158Y-10875531D02*
X1017682Y-10894579D01*
X1017682Y-10894579D02*
X1027205Y-10932674D01*
X1027205Y-10932674D02*
X1027205Y-10980293D01*
X1027205Y-10980293D02*
X1017682Y-11018389D01*
X1017682Y-11018389D02*
X1008158Y-11037436D01*
X1008158Y-11037436D02*
X998634Y-11046960D01*
X998634Y-11046960D02*
X979586Y-11056484D01*
X979586Y-11056484D02*
X960539Y-11056484D01*
X960539Y-11056484D02*
X941491Y-11046960D01*
X941491Y-11046960D02*
X931967Y-11037436D01*
X931967Y-11037436D02*
X922443Y-11018389D01*
X922443Y-11018389D02*
X912920Y-10980293D01*
X912920Y-10980293D02*
X912920Y-10932674D01*
X912920Y-10932674D02*
X922443Y-10894579D01*
X922443Y-10894579D02*
X931967Y-10875531D01*
X931967Y-10875531D02*
X941491Y-10866008D01*
X941491Y-10866008D02*
X960539Y-10856484D01*
X1112920Y-11056484D02*
X1112920Y-10923150D01*
X1112920Y-10942198D02*
X1122444Y-10932674D01*
X1122444Y-10932674D02*
X1141491Y-10923150D01*
X1141491Y-10923150D02*
X1170063Y-10923150D01*
X1170063Y-10923150D02*
X1189110Y-10932674D01*
X1189110Y-10932674D02*
X1198634Y-10951722D01*
X1198634Y-10951722D02*
X1198634Y-11056484D01*
X1198634Y-10951722D02*
X1208158Y-10932674D01*
X1208158Y-10932674D02*
X1227205Y-10923150D01*
X1227205Y-10923150D02*
X1255777Y-10923150D01*
X1255777Y-10923150D02*
X1274825Y-10932674D01*
X1274825Y-10932674D02*
X1284348Y-10951722D01*
X1284348Y-10951722D02*
X1284348Y-11056484D01*
X1379586Y-11056484D02*
X1379586Y-10923150D01*
X1379586Y-10942198D02*
X1389110Y-10932674D01*
X1389110Y-10932674D02*
X1408158Y-10923150D01*
X1408158Y-10923150D02*
X1436729Y-10923150D01*
X1436729Y-10923150D02*
X1455777Y-10932674D01*
X1455777Y-10932674D02*
X1465301Y-10951722D01*
X1465301Y-10951722D02*
X1465301Y-11056484D01*
X1465301Y-10951722D02*
X1474824Y-10932674D01*
X1474824Y-10932674D02*
X1493872Y-10923150D01*
X1493872Y-10923150D02*
X1522443Y-10923150D01*
X1522443Y-10923150D02*
X1541491Y-10932674D01*
X1541491Y-10932674D02*
X1551015Y-10951722D01*
X1551015Y-10951722D02*
X1551015Y-11056484D01*
X1941491Y-10846960D02*
X1770063Y-11104103D01*
X2198634Y-10856484D02*
X2217682Y-10856484D01*
X2217682Y-10856484D02*
X2236729Y-10866008D01*
X2236729Y-10866008D02*
X2246253Y-10875531D01*
X2246253Y-10875531D02*
X2255777Y-10894579D01*
X2255777Y-10894579D02*
X2265301Y-10932674D01*
X2265301Y-10932674D02*
X2265301Y-10980293D01*
X2265301Y-10980293D02*
X2255777Y-11018389D01*
X2255777Y-11018389D02*
X2246253Y-11037436D01*
X2246253Y-11037436D02*
X2236729Y-11046960D01*
X2236729Y-11046960D02*
X2217682Y-11056484D01*
X2217682Y-11056484D02*
X2198634Y-11056484D01*
X2198634Y-11056484D02*
X2179587Y-11046960D01*
X2179587Y-11046960D02*
X2170063Y-11037436D01*
X2170063Y-11037436D02*
X2160539Y-11018389D01*
X2160539Y-11018389D02*
X2151015Y-10980293D01*
X2151015Y-10980293D02*
X2151015Y-10932674D01*
X2151015Y-10932674D02*
X2160539Y-10894579D01*
X2160539Y-10894579D02*
X2170063Y-10875531D01*
X2170063Y-10875531D02*
X2179587Y-10866008D01*
X2179587Y-10866008D02*
X2198634Y-10856484D01*
X2351015Y-11037436D02*
X2360539Y-11046960D01*
X2360539Y-11046960D02*
X2351015Y-11056484D01*
X2351015Y-11056484D02*
X2341491Y-11046960D01*
X2341491Y-11046960D02*
X2351015Y-11037436D01*
X2351015Y-11037436D02*
X2351015Y-11056484D01*
X2484348Y-10856484D02*
X2503396Y-10856484D01*
X2503396Y-10856484D02*
X2522444Y-10866008D01*
X2522444Y-10866008D02*
X2531968Y-10875531D01*
X2531968Y-10875531D02*
X2541491Y-10894579D01*
X2541491Y-10894579D02*
X2551015Y-10932674D01*
X2551015Y-10932674D02*
X2551015Y-10980293D01*
X2551015Y-10980293D02*
X2541491Y-11018389D01*
X2541491Y-11018389D02*
X2531968Y-11037436D01*
X2531968Y-11037436D02*
X2522444Y-11046960D01*
X2522444Y-11046960D02*
X2503396Y-11056484D01*
X2503396Y-11056484D02*
X2484348Y-11056484D01*
X2484348Y-11056484D02*
X2465301Y-11046960D01*
X2465301Y-11046960D02*
X2455777Y-11037436D01*
X2455777Y-11037436D02*
X2446253Y-11018389D01*
X2446253Y-11018389D02*
X2436729Y-10980293D01*
X2436729Y-10980293D02*
X2436729Y-10932674D01*
X2436729Y-10932674D02*
X2446253Y-10894579D01*
X2446253Y-10894579D02*
X2455777Y-10875531D01*
X2455777Y-10875531D02*
X2465301Y-10866008D01*
X2465301Y-10866008D02*
X2484348Y-10856484D01*
X2722444Y-10923150D02*
X2722444Y-11056484D01*
X2674825Y-10846960D02*
X2627206Y-10989817D01*
X2627206Y-10989817D02*
X2751015Y-10989817D01*
X2808158Y-10856484D02*
X2941491Y-10856484D01*
X2941491Y-10856484D02*
X2855777Y-11056484D01*
X3008158Y-10875531D02*
X3017682Y-10866008D01*
X3017682Y-10866008D02*
X3036729Y-10856484D01*
X3036729Y-10856484D02*
X3084348Y-10856484D01*
X3084348Y-10856484D02*
X3103396Y-10866008D01*
X3103396Y-10866008D02*
X3112920Y-10875531D01*
X3112920Y-10875531D02*
X3122444Y-10894579D01*
X3122444Y-10894579D02*
X3122444Y-10913627D01*
X3122444Y-10913627D02*
X3112920Y-10942198D01*
X3112920Y-10942198D02*
X2998634Y-11056484D01*
X2998634Y-11056484D02*
X3122444Y-11056484D01*
X3198634Y-10856484D02*
X3198634Y-10894579D01*
X3274825Y-10856484D02*
X3274825Y-10894579D01*
X3570063Y-11132674D02*
X3560539Y-11123150D01*
X3560539Y-11123150D02*
X3541491Y-11094579D01*
X3541491Y-11094579D02*
X3531968Y-11075531D01*
X3531968Y-11075531D02*
X3522444Y-11046960D01*
X3522444Y-11046960D02*
X3512920Y-10999341D01*
X3512920Y-10999341D02*
X3512920Y-10961246D01*
X3512920Y-10961246D02*
X3522444Y-10913627D01*
X3522444Y-10913627D02*
X3531968Y-10885055D01*
X3531968Y-10885055D02*
X3541491Y-10866008D01*
X3541491Y-10866008D02*
X3560539Y-10837436D01*
X3560539Y-10837436D02*
X3570063Y-10827912D01*
X3731968Y-10923150D02*
X3731968Y-11056484D01*
X3684348Y-10846960D02*
X3636729Y-10989817D01*
X3636729Y-10989817D02*
X3760539Y-10989817D01*
X3989110Y-11056484D02*
X3989110Y-10856484D01*
X4074825Y-11056484D02*
X4074825Y-10951722D01*
X4074825Y-10951722D02*
X4065301Y-10932674D01*
X4065301Y-10932674D02*
X4046253Y-10923150D01*
X4046253Y-10923150D02*
X4017682Y-10923150D01*
X4017682Y-10923150D02*
X3998634Y-10932674D01*
X3998634Y-10932674D02*
X3989110Y-10942198D01*
X4198634Y-11056484D02*
X4179587Y-11046960D01*
X4179587Y-11046960D02*
X4170063Y-11037436D01*
X4170063Y-11037436D02*
X4160539Y-11018389D01*
X4160539Y-11018389D02*
X4160539Y-10961246D01*
X4160539Y-10961246D02*
X4170063Y-10942198D01*
X4170063Y-10942198D02*
X4179587Y-10932674D01*
X4179587Y-10932674D02*
X4198634Y-10923150D01*
X4198634Y-10923150D02*
X4227206Y-10923150D01*
X4227206Y-10923150D02*
X4246253Y-10932674D01*
X4246253Y-10932674D02*
X4255777Y-10942198D01*
X4255777Y-10942198D02*
X4265301Y-10961246D01*
X4265301Y-10961246D02*
X4265301Y-11018389D01*
X4265301Y-11018389D02*
X4255777Y-11037436D01*
X4255777Y-11037436D02*
X4246253Y-11046960D01*
X4246253Y-11046960D02*
X4227206Y-11056484D01*
X4227206Y-11056484D02*
X4198634Y-11056484D01*
X4379587Y-11056484D02*
X4360539Y-11046960D01*
X4360539Y-11046960D02*
X4351015Y-11027912D01*
X4351015Y-11027912D02*
X4351015Y-10856484D01*
X4531968Y-11046960D02*
X4512920Y-11056484D01*
X4512920Y-11056484D02*
X4474825Y-11056484D01*
X4474825Y-11056484D02*
X4455777Y-11046960D01*
X4455777Y-11046960D02*
X4446253Y-11027912D01*
X4446253Y-11027912D02*
X4446253Y-10951722D01*
X4446253Y-10951722D02*
X4455777Y-10932674D01*
X4455777Y-10932674D02*
X4474825Y-10923150D01*
X4474825Y-10923150D02*
X4512920Y-10923150D01*
X4512920Y-10923150D02*
X4531968Y-10932674D01*
X4531968Y-10932674D02*
X4541492Y-10951722D01*
X4541492Y-10951722D02*
X4541492Y-10970770D01*
X4541492Y-10970770D02*
X4446253Y-10989817D01*
X4617682Y-11046960D02*
X4636730Y-11056484D01*
X4636730Y-11056484D02*
X4674825Y-11056484D01*
X4674825Y-11056484D02*
X4693873Y-11046960D01*
X4693873Y-11046960D02*
X4703396Y-11027912D01*
X4703396Y-11027912D02*
X4703396Y-11018389D01*
X4703396Y-11018389D02*
X4693873Y-10999341D01*
X4693873Y-10999341D02*
X4674825Y-10989817D01*
X4674825Y-10989817D02*
X4646253Y-10989817D01*
X4646253Y-10989817D02*
X4627206Y-10980293D01*
X4627206Y-10980293D02*
X4617682Y-10961246D01*
X4617682Y-10961246D02*
X4617682Y-10951722D01*
X4617682Y-10951722D02*
X4627206Y-10932674D01*
X4627206Y-10932674D02*
X4646253Y-10923150D01*
X4646253Y-10923150D02*
X4674825Y-10923150D01*
X4674825Y-10923150D02*
X4693873Y-10932674D01*
X4770063Y-11132674D02*
X4779587Y-11123150D01*
X4779587Y-11123150D02*
X4798634Y-11094579D01*
X4798634Y-11094579D02*
X4808158Y-11075531D01*
X4808158Y-11075531D02*
X4817682Y-11046960D01*
X4817682Y-11046960D02*
X4827206Y-10999341D01*
X4827206Y-10999341D02*
X4827206Y-10961246D01*
X4827206Y-10961246D02*
X4817682Y-10913627D01*
X4817682Y-10913627D02*
X4808158Y-10885055D01*
X4808158Y-10885055D02*
X4798634Y-10866008D01*
X4798634Y-10866008D02*
X4779587Y-10837436D01*
X4779587Y-10837436D02*
X4770063Y-10827912D01*
D14*
X-175002Y-11143999D02*
X-5000Y-11314001D01*
X-5000Y-11143999D02*
X-175002Y-11314001D01*
X-90001Y-11143999D02*
X-90001Y-11314001D01*
X-175002Y-11229000D02*
X-5000Y-11229000D01*
D11*
X360539Y-11320484D02*
X246253Y-11320484D01*
X303396Y-11320484D02*
X303396Y-11120484D01*
X303396Y-11120484D02*
X284348Y-11149055D01*
X284348Y-11149055D02*
X265301Y-11168103D01*
X265301Y-11168103D02*
X246253Y-11177627D01*
X446253Y-11301436D02*
X455777Y-11310960D01*
X455777Y-11310960D02*
X446253Y-11320484D01*
X446253Y-11320484D02*
X436729Y-11310960D01*
X436729Y-11310960D02*
X446253Y-11301436D01*
X446253Y-11301436D02*
X446253Y-11320484D01*
X522443Y-11120484D02*
X655777Y-11120484D01*
X655777Y-11120484D02*
X570063Y-11320484D01*
X770062Y-11120484D02*
X789110Y-11120484D01*
X789110Y-11120484D02*
X808158Y-11130008D01*
X808158Y-11130008D02*
X817682Y-11139531D01*
X817682Y-11139531D02*
X827205Y-11158579D01*
X827205Y-11158579D02*
X836729Y-11196674D01*
X836729Y-11196674D02*
X836729Y-11244293D01*
X836729Y-11244293D02*
X827205Y-11282388D01*
X827205Y-11282388D02*
X817682Y-11301436D01*
X817682Y-11301436D02*
X808158Y-11310960D01*
X808158Y-11310960D02*
X789110Y-11320484D01*
X789110Y-11320484D02*
X770062Y-11320484D01*
X770062Y-11320484D02*
X751015Y-11310960D01*
X751015Y-11310960D02*
X741491Y-11301436D01*
X741491Y-11301436D02*
X731967Y-11282388D01*
X731967Y-11282388D02*
X722443Y-11244293D01*
X722443Y-11244293D02*
X722443Y-11196674D01*
X722443Y-11196674D02*
X731967Y-11158579D01*
X731967Y-11158579D02*
X741491Y-11139531D01*
X741491Y-11139531D02*
X751015Y-11130008D01*
X751015Y-11130008D02*
X770062Y-11120484D01*
X960539Y-11120484D02*
X979586Y-11120484D01*
X979586Y-11120484D02*
X998634Y-11130008D01*
X998634Y-11130008D02*
X1008158Y-11139531D01*
X1008158Y-11139531D02*
X1017682Y-11158579D01*
X1017682Y-11158579D02*
X1027205Y-11196674D01*
X1027205Y-11196674D02*
X1027205Y-11244293D01*
X1027205Y-11244293D02*
X1017682Y-11282388D01*
X1017682Y-11282388D02*
X1008158Y-11301436D01*
X1008158Y-11301436D02*
X998634Y-11310960D01*
X998634Y-11310960D02*
X979586Y-11320484D01*
X979586Y-11320484D02*
X960539Y-11320484D01*
X960539Y-11320484D02*
X941491Y-11310960D01*
X941491Y-11310960D02*
X931967Y-11301436D01*
X931967Y-11301436D02*
X922443Y-11282388D01*
X922443Y-11282388D02*
X912920Y-11244293D01*
X912920Y-11244293D02*
X912920Y-11196674D01*
X912920Y-11196674D02*
X922443Y-11158579D01*
X922443Y-11158579D02*
X931967Y-11139531D01*
X931967Y-11139531D02*
X941491Y-11130008D01*
X941491Y-11130008D02*
X960539Y-11120484D01*
X1112920Y-11320484D02*
X1112920Y-11187150D01*
X1112920Y-11206198D02*
X1122444Y-11196674D01*
X1122444Y-11196674D02*
X1141491Y-11187150D01*
X1141491Y-11187150D02*
X1170063Y-11187150D01*
X1170063Y-11187150D02*
X1189110Y-11196674D01*
X1189110Y-11196674D02*
X1198634Y-11215722D01*
X1198634Y-11215722D02*
X1198634Y-11320484D01*
X1198634Y-11215722D02*
X1208158Y-11196674D01*
X1208158Y-11196674D02*
X1227205Y-11187150D01*
X1227205Y-11187150D02*
X1255777Y-11187150D01*
X1255777Y-11187150D02*
X1274825Y-11196674D01*
X1274825Y-11196674D02*
X1284348Y-11215722D01*
X1284348Y-11215722D02*
X1284348Y-11320484D01*
X1379586Y-11320484D02*
X1379586Y-11187150D01*
X1379586Y-11206198D02*
X1389110Y-11196674D01*
X1389110Y-11196674D02*
X1408158Y-11187150D01*
X1408158Y-11187150D02*
X1436729Y-11187150D01*
X1436729Y-11187150D02*
X1455777Y-11196674D01*
X1455777Y-11196674D02*
X1465301Y-11215722D01*
X1465301Y-11215722D02*
X1465301Y-11320484D01*
X1465301Y-11215722D02*
X1474824Y-11196674D01*
X1474824Y-11196674D02*
X1493872Y-11187150D01*
X1493872Y-11187150D02*
X1522443Y-11187150D01*
X1522443Y-11187150D02*
X1541491Y-11196674D01*
X1541491Y-11196674D02*
X1551015Y-11215722D01*
X1551015Y-11215722D02*
X1551015Y-11320484D01*
X1941491Y-11110960D02*
X1770063Y-11368103D01*
X2198634Y-11120484D02*
X2217682Y-11120484D01*
X2217682Y-11120484D02*
X2236729Y-11130008D01*
X2236729Y-11130008D02*
X2246253Y-11139531D01*
X2246253Y-11139531D02*
X2255777Y-11158579D01*
X2255777Y-11158579D02*
X2265301Y-11196674D01*
X2265301Y-11196674D02*
X2265301Y-11244293D01*
X2265301Y-11244293D02*
X2255777Y-11282388D01*
X2255777Y-11282388D02*
X2246253Y-11301436D01*
X2246253Y-11301436D02*
X2236729Y-11310960D01*
X2236729Y-11310960D02*
X2217682Y-11320484D01*
X2217682Y-11320484D02*
X2198634Y-11320484D01*
X2198634Y-11320484D02*
X2179587Y-11310960D01*
X2179587Y-11310960D02*
X2170063Y-11301436D01*
X2170063Y-11301436D02*
X2160539Y-11282388D01*
X2160539Y-11282388D02*
X2151015Y-11244293D01*
X2151015Y-11244293D02*
X2151015Y-11196674D01*
X2151015Y-11196674D02*
X2160539Y-11158579D01*
X2160539Y-11158579D02*
X2170063Y-11139531D01*
X2170063Y-11139531D02*
X2179587Y-11130008D01*
X2179587Y-11130008D02*
X2198634Y-11120484D01*
X2351015Y-11301436D02*
X2360539Y-11310960D01*
X2360539Y-11310960D02*
X2351015Y-11320484D01*
X2351015Y-11320484D02*
X2341491Y-11310960D01*
X2341491Y-11310960D02*
X2351015Y-11301436D01*
X2351015Y-11301436D02*
X2351015Y-11320484D01*
X2484348Y-11120484D02*
X2503396Y-11120484D01*
X2503396Y-11120484D02*
X2522444Y-11130008D01*
X2522444Y-11130008D02*
X2531968Y-11139531D01*
X2531968Y-11139531D02*
X2541491Y-11158579D01*
X2541491Y-11158579D02*
X2551015Y-11196674D01*
X2551015Y-11196674D02*
X2551015Y-11244293D01*
X2551015Y-11244293D02*
X2541491Y-11282388D01*
X2541491Y-11282388D02*
X2531968Y-11301436D01*
X2531968Y-11301436D02*
X2522444Y-11310960D01*
X2522444Y-11310960D02*
X2503396Y-11320484D01*
X2503396Y-11320484D02*
X2484348Y-11320484D01*
X2484348Y-11320484D02*
X2465301Y-11310960D01*
X2465301Y-11310960D02*
X2455777Y-11301436D01*
X2455777Y-11301436D02*
X2446253Y-11282388D01*
X2446253Y-11282388D02*
X2436729Y-11244293D01*
X2436729Y-11244293D02*
X2436729Y-11196674D01*
X2436729Y-11196674D02*
X2446253Y-11158579D01*
X2446253Y-11158579D02*
X2455777Y-11139531D01*
X2455777Y-11139531D02*
X2465301Y-11130008D01*
X2465301Y-11130008D02*
X2484348Y-11120484D01*
X2722444Y-11120484D02*
X2684348Y-11120484D01*
X2684348Y-11120484D02*
X2665301Y-11130008D01*
X2665301Y-11130008D02*
X2655777Y-11139531D01*
X2655777Y-11139531D02*
X2636729Y-11168103D01*
X2636729Y-11168103D02*
X2627206Y-11206198D01*
X2627206Y-11206198D02*
X2627206Y-11282388D01*
X2627206Y-11282388D02*
X2636729Y-11301436D01*
X2636729Y-11301436D02*
X2646253Y-11310960D01*
X2646253Y-11310960D02*
X2665301Y-11320484D01*
X2665301Y-11320484D02*
X2703396Y-11320484D01*
X2703396Y-11320484D02*
X2722444Y-11310960D01*
X2722444Y-11310960D02*
X2731968Y-11301436D01*
X2731968Y-11301436D02*
X2741491Y-11282388D01*
X2741491Y-11282388D02*
X2741491Y-11234769D01*
X2741491Y-11234769D02*
X2731968Y-11215722D01*
X2731968Y-11215722D02*
X2722444Y-11206198D01*
X2722444Y-11206198D02*
X2703396Y-11196674D01*
X2703396Y-11196674D02*
X2665301Y-11196674D01*
X2665301Y-11196674D02*
X2646253Y-11206198D01*
X2646253Y-11206198D02*
X2636729Y-11215722D01*
X2636729Y-11215722D02*
X2627206Y-11234769D01*
X2912920Y-11120484D02*
X2874825Y-11120484D01*
X2874825Y-11120484D02*
X2855777Y-11130008D01*
X2855777Y-11130008D02*
X2846253Y-11139531D01*
X2846253Y-11139531D02*
X2827206Y-11168103D01*
X2827206Y-11168103D02*
X2817682Y-11206198D01*
X2817682Y-11206198D02*
X2817682Y-11282388D01*
X2817682Y-11282388D02*
X2827206Y-11301436D01*
X2827206Y-11301436D02*
X2836729Y-11310960D01*
X2836729Y-11310960D02*
X2855777Y-11320484D01*
X2855777Y-11320484D02*
X2893872Y-11320484D01*
X2893872Y-11320484D02*
X2912920Y-11310960D01*
X2912920Y-11310960D02*
X2922444Y-11301436D01*
X2922444Y-11301436D02*
X2931967Y-11282388D01*
X2931967Y-11282388D02*
X2931967Y-11234769D01*
X2931967Y-11234769D02*
X2922444Y-11215722D01*
X2922444Y-11215722D02*
X2912920Y-11206198D01*
X2912920Y-11206198D02*
X2893872Y-11196674D01*
X2893872Y-11196674D02*
X2855777Y-11196674D01*
X2855777Y-11196674D02*
X2836729Y-11206198D01*
X2836729Y-11206198D02*
X2827206Y-11215722D01*
X2827206Y-11215722D02*
X2817682Y-11234769D01*
X3027206Y-11320484D02*
X3065301Y-11320484D01*
X3065301Y-11320484D02*
X3084348Y-11310960D01*
X3084348Y-11310960D02*
X3093872Y-11301436D01*
X3093872Y-11301436D02*
X3112920Y-11272865D01*
X3112920Y-11272865D02*
X3122444Y-11234769D01*
X3122444Y-11234769D02*
X3122444Y-11158579D01*
X3122444Y-11158579D02*
X3112920Y-11139531D01*
X3112920Y-11139531D02*
X3103396Y-11130008D01*
X3103396Y-11130008D02*
X3084348Y-11120484D01*
X3084348Y-11120484D02*
X3046253Y-11120484D01*
X3046253Y-11120484D02*
X3027206Y-11130008D01*
X3027206Y-11130008D02*
X3017682Y-11139531D01*
X3017682Y-11139531D02*
X3008158Y-11158579D01*
X3008158Y-11158579D02*
X3008158Y-11206198D01*
X3008158Y-11206198D02*
X3017682Y-11225246D01*
X3017682Y-11225246D02*
X3027206Y-11234769D01*
X3027206Y-11234769D02*
X3046253Y-11244293D01*
X3046253Y-11244293D02*
X3084348Y-11244293D01*
X3084348Y-11244293D02*
X3103396Y-11234769D01*
X3103396Y-11234769D02*
X3112920Y-11225246D01*
X3112920Y-11225246D02*
X3122444Y-11206198D01*
X3198634Y-11120484D02*
X3198634Y-11158579D01*
X3274825Y-11120484D02*
X3274825Y-11158579D01*
X3570063Y-11396674D02*
X3560539Y-11387150D01*
X3560539Y-11387150D02*
X3541491Y-11358579D01*
X3541491Y-11358579D02*
X3531968Y-11339531D01*
X3531968Y-11339531D02*
X3522444Y-11310960D01*
X3522444Y-11310960D02*
X3512920Y-11263341D01*
X3512920Y-11263341D02*
X3512920Y-11225246D01*
X3512920Y-11225246D02*
X3522444Y-11177627D01*
X3522444Y-11177627D02*
X3531968Y-11149055D01*
X3531968Y-11149055D02*
X3541491Y-11130008D01*
X3541491Y-11130008D02*
X3560539Y-11101436D01*
X3560539Y-11101436D02*
X3570063Y-11091912D01*
X3684348Y-11120484D02*
X3703396Y-11120484D01*
X3703396Y-11120484D02*
X3722444Y-11130008D01*
X3722444Y-11130008D02*
X3731968Y-11139531D01*
X3731968Y-11139531D02*
X3741491Y-11158579D01*
X3741491Y-11158579D02*
X3751015Y-11196674D01*
X3751015Y-11196674D02*
X3751015Y-11244293D01*
X3751015Y-11244293D02*
X3741491Y-11282388D01*
X3741491Y-11282388D02*
X3731968Y-11301436D01*
X3731968Y-11301436D02*
X3722444Y-11310960D01*
X3722444Y-11310960D02*
X3703396Y-11320484D01*
X3703396Y-11320484D02*
X3684348Y-11320484D01*
X3684348Y-11320484D02*
X3665301Y-11310960D01*
X3665301Y-11310960D02*
X3655777Y-11301436D01*
X3655777Y-11301436D02*
X3646253Y-11282388D01*
X3646253Y-11282388D02*
X3636729Y-11244293D01*
X3636729Y-11244293D02*
X3636729Y-11196674D01*
X3636729Y-11196674D02*
X3646253Y-11158579D01*
X3646253Y-11158579D02*
X3655777Y-11139531D01*
X3655777Y-11139531D02*
X3665301Y-11130008D01*
X3665301Y-11130008D02*
X3684348Y-11120484D01*
X3989110Y-11320484D02*
X3989110Y-11120484D01*
X4074825Y-11320484D02*
X4074825Y-11215722D01*
X4074825Y-11215722D02*
X4065301Y-11196674D01*
X4065301Y-11196674D02*
X4046253Y-11187150D01*
X4046253Y-11187150D02*
X4017682Y-11187150D01*
X4017682Y-11187150D02*
X3998634Y-11196674D01*
X3998634Y-11196674D02*
X3989110Y-11206198D01*
X4198634Y-11320484D02*
X4179587Y-11310960D01*
X4179587Y-11310960D02*
X4170063Y-11301436D01*
X4170063Y-11301436D02*
X4160539Y-11282388D01*
X4160539Y-11282388D02*
X4160539Y-11225246D01*
X4160539Y-11225246D02*
X4170063Y-11206198D01*
X4170063Y-11206198D02*
X4179587Y-11196674D01*
X4179587Y-11196674D02*
X4198634Y-11187150D01*
X4198634Y-11187150D02*
X4227206Y-11187150D01*
X4227206Y-11187150D02*
X4246253Y-11196674D01*
X4246253Y-11196674D02*
X4255777Y-11206198D01*
X4255777Y-11206198D02*
X4265301Y-11225246D01*
X4265301Y-11225246D02*
X4265301Y-11282388D01*
X4265301Y-11282388D02*
X4255777Y-11301436D01*
X4255777Y-11301436D02*
X4246253Y-11310960D01*
X4246253Y-11310960D02*
X4227206Y-11320484D01*
X4227206Y-11320484D02*
X4198634Y-11320484D01*
X4379587Y-11320484D02*
X4360539Y-11310960D01*
X4360539Y-11310960D02*
X4351015Y-11291912D01*
X4351015Y-11291912D02*
X4351015Y-11120484D01*
X4531968Y-11310960D02*
X4512920Y-11320484D01*
X4512920Y-11320484D02*
X4474825Y-11320484D01*
X4474825Y-11320484D02*
X4455777Y-11310960D01*
X4455777Y-11310960D02*
X4446253Y-11291912D01*
X4446253Y-11291912D02*
X4446253Y-11215722D01*
X4446253Y-11215722D02*
X4455777Y-11196674D01*
X4455777Y-11196674D02*
X4474825Y-11187150D01*
X4474825Y-11187150D02*
X4512920Y-11187150D01*
X4512920Y-11187150D02*
X4531968Y-11196674D01*
X4531968Y-11196674D02*
X4541492Y-11215722D01*
X4541492Y-11215722D02*
X4541492Y-11234769D01*
X4541492Y-11234769D02*
X4446253Y-11253817D01*
X4617682Y-11310960D02*
X4636730Y-11320484D01*
X4636730Y-11320484D02*
X4674825Y-11320484D01*
X4674825Y-11320484D02*
X4693873Y-11310960D01*
X4693873Y-11310960D02*
X4703396Y-11291912D01*
X4703396Y-11291912D02*
X4703396Y-11282388D01*
X4703396Y-11282388D02*
X4693873Y-11263341D01*
X4693873Y-11263341D02*
X4674825Y-11253817D01*
X4674825Y-11253817D02*
X4646253Y-11253817D01*
X4646253Y-11253817D02*
X4627206Y-11244293D01*
X4627206Y-11244293D02*
X4617682Y-11225246D01*
X4617682Y-11225246D02*
X4617682Y-11215722D01*
X4617682Y-11215722D02*
X4627206Y-11196674D01*
X4627206Y-11196674D02*
X4646253Y-11187150D01*
X4646253Y-11187150D02*
X4674825Y-11187150D01*
X4674825Y-11187150D02*
X4693873Y-11196674D01*
X4941492Y-11244293D02*
X5093873Y-11244293D01*
X5017682Y-11320484D02*
X5017682Y-11168103D01*
X5331968Y-11139531D02*
X5341492Y-11130008D01*
X5341492Y-11130008D02*
X5360539Y-11120484D01*
X5360539Y-11120484D02*
X5408158Y-11120484D01*
X5408158Y-11120484D02*
X5427206Y-11130008D01*
X5427206Y-11130008D02*
X5436730Y-11139531D01*
X5436730Y-11139531D02*
X5446254Y-11158579D01*
X5446254Y-11158579D02*
X5446254Y-11177627D01*
X5446254Y-11177627D02*
X5436730Y-11206198D01*
X5436730Y-11206198D02*
X5322444Y-11320484D01*
X5322444Y-11320484D02*
X5446254Y-11320484D01*
X5674825Y-11310960D02*
X5693873Y-11320484D01*
X5693873Y-11320484D02*
X5731968Y-11320484D01*
X5731968Y-11320484D02*
X5751015Y-11310960D01*
X5751015Y-11310960D02*
X5760539Y-11291912D01*
X5760539Y-11291912D02*
X5760539Y-11282388D01*
X5760539Y-11282388D02*
X5751015Y-11263341D01*
X5751015Y-11263341D02*
X5731968Y-11253817D01*
X5731968Y-11253817D02*
X5703396Y-11253817D01*
X5703396Y-11253817D02*
X5684349Y-11244293D01*
X5684349Y-11244293D02*
X5674825Y-11225246D01*
X5674825Y-11225246D02*
X5674825Y-11215722D01*
X5674825Y-11215722D02*
X5684349Y-11196674D01*
X5684349Y-11196674D02*
X5703396Y-11187150D01*
X5703396Y-11187150D02*
X5731968Y-11187150D01*
X5731968Y-11187150D02*
X5751015Y-11196674D01*
X5874825Y-11320484D02*
X5855777Y-11310960D01*
X5855777Y-11310960D02*
X5846254Y-11291912D01*
X5846254Y-11291912D02*
X5846254Y-11120484D01*
X5979587Y-11320484D02*
X5960539Y-11310960D01*
X5960539Y-11310960D02*
X5951015Y-11301436D01*
X5951015Y-11301436D02*
X5941492Y-11282388D01*
X5941492Y-11282388D02*
X5941492Y-11225246D01*
X5941492Y-11225246D02*
X5951015Y-11206198D01*
X5951015Y-11206198D02*
X5960539Y-11196674D01*
X5960539Y-11196674D02*
X5979587Y-11187150D01*
X5979587Y-11187150D02*
X6008158Y-11187150D01*
X6008158Y-11187150D02*
X6027206Y-11196674D01*
X6027206Y-11196674D02*
X6036730Y-11206198D01*
X6036730Y-11206198D02*
X6046254Y-11225246D01*
X6046254Y-11225246D02*
X6046254Y-11282388D01*
X6046254Y-11282388D02*
X6036730Y-11301436D01*
X6036730Y-11301436D02*
X6027206Y-11310960D01*
X6027206Y-11310960D02*
X6008158Y-11320484D01*
X6008158Y-11320484D02*
X5979587Y-11320484D01*
X6103396Y-11187150D02*
X6179587Y-11187150D01*
X6131968Y-11120484D02*
X6131968Y-11291912D01*
X6131968Y-11291912D02*
X6141492Y-11310960D01*
X6141492Y-11310960D02*
X6160539Y-11320484D01*
X6160539Y-11320484D02*
X6179587Y-11320484D01*
X6236730Y-11310960D02*
X6255777Y-11320484D01*
X6255777Y-11320484D02*
X6293873Y-11320484D01*
X6293873Y-11320484D02*
X6312920Y-11310960D01*
X6312920Y-11310960D02*
X6322444Y-11291912D01*
X6322444Y-11291912D02*
X6322444Y-11282388D01*
X6322444Y-11282388D02*
X6312920Y-11263341D01*
X6312920Y-11263341D02*
X6293873Y-11253817D01*
X6293873Y-11253817D02*
X6265301Y-11253817D01*
X6265301Y-11253817D02*
X6246254Y-11244293D01*
X6246254Y-11244293D02*
X6236730Y-11225246D01*
X6236730Y-11225246D02*
X6236730Y-11215722D01*
X6236730Y-11215722D02*
X6246254Y-11196674D01*
X6246254Y-11196674D02*
X6265301Y-11187150D01*
X6265301Y-11187150D02*
X6293873Y-11187150D01*
X6293873Y-11187150D02*
X6312920Y-11196674D01*
X6389111Y-11396674D02*
X6398635Y-11387150D01*
X6398635Y-11387150D02*
X6417682Y-11358579D01*
X6417682Y-11358579D02*
X6427206Y-11339531D01*
X6427206Y-11339531D02*
X6436730Y-11310960D01*
X6436730Y-11310960D02*
X6446254Y-11263341D01*
X6446254Y-11263341D02*
X6446254Y-11225246D01*
X6446254Y-11225246D02*
X6436730Y-11177627D01*
X6436730Y-11177627D02*
X6427206Y-11149055D01*
X6427206Y-11149055D02*
X6417682Y-11130008D01*
X6417682Y-11130008D02*
X6398635Y-11101436D01*
X6398635Y-11101436D02*
X6389111Y-11091912D01*
M02*
