M48
; DRILL file KiCad 10.0.3 date 2026-07-24T08:33:45
; FORMAT={-:-/ absolute / metric / decimal}
; #@! TF.CreationDate,2026-07-24T08:33:45-04:00
; #@! TF.GenerationSoftware,Kicad,Pcbnew,10.0.3
; #@! TF.FileFunction,Plated,1,4,PTH
FMAT,2
METRIC
; #@! TA.AperFunction,Plated,PTH,ViaDrill
T1C0.150
; #@! TA.AperFunction,Plated,PTH,ViaDrill
T2C0.200
; #@! TA.AperFunction,Plated,PTH,ComponentDrill
T3C0.750
; #@! TA.AperFunction,Plated,PTH,ComponentDrill
T4C0.800
; #@! TA.AperFunction,Plated,PTH,ComponentDrill
T5C1.000
; #@! TA.AperFunction,Plated,PTH,ComponentDrill
T6C1.200
; #@! TA.AperFunction,Plated,PTH,ComponentDrill
T7C1.200
; #@! TA.AperFunction,Plated,PTH,ComponentDrill
T8C1.700
; #@! TA.AperFunction,Plated,PTH,ComponentDrill
T9C3.000
%
G90
G05
T1
X4.0Y-4.0
X4.0Y-10.0
X4.0Y-16.0
X4.0Y-22.0
X4.0Y-28.0
X4.0Y-34.0
X4.0Y-40.0
X4.0Y-46.0
X4.0Y-52.0
X4.0Y-58.0
X4.0Y-64.0
X4.0Y-70.0
X4.0Y-76.0
X4.0Y-82.0
X4.5Y-79.225
X9.25Y-12.75
X10.0Y-4.0
X10.0Y-10.0
X10.0Y-16.0
X10.0Y-22.0
X10.0Y-28.0
X10.0Y-46.0
X10.0Y-64.0
X10.0Y-70.0
X10.0Y-82.0
X13.3Y-29.138
X13.3Y-47.804
X13.3Y-66.472
X14.926Y-4.632
X14.926Y-6.183
X15.5Y-20.25
X15.97Y-84.2
X15.97Y-88.8
X16.0Y-4.0
X16.0Y-10.0
X16.0Y-16.0
X16.0Y-22.0
X16.0Y-28.0
X16.0Y-46.0
X16.0Y-82.0
X18.04Y-5.75
X18.7Y-30.598
X18.7Y-49.264
X19.27Y-77.902
X19.5Y-81.725
X21.75Y-12.75
X22.0Y-10.0
X22.0Y-16.0
X22.0Y-22.0
X22.0Y-28.0
X22.0Y-40.0
X22.0Y-46.0
X22.0Y-58.0
X22.0Y-64.0
X22.0Y-82.0
X22.2Y-4.55
X22.982Y-41.48
X22.982Y-57.538
X22.982Y-59.088
X24.5Y-83.225
X24.8Y-4.55
X24.8Y-6.45
X27.9Y-84.85
X28.0Y-4.0
X29.0Y-4.175
X30.1Y-83.15
X30.775Y-71.5
X32.0Y-4.175
X32.633Y-10.47
X32.633Y-29.138
X32.633Y-47.804
X34.0Y-4.0
X34.0Y-10.0
X34.0Y-28.0
X34.0Y-46.0
X34.0Y-64.0
X36.5Y-86.725
X37.775Y-88.4
X38.033Y-11.93
X38.033Y-49.264
X38.603Y-21.9
X38.603Y-40.568
X38.603Y-59.234
X40.0Y-4.0
X40.0Y-22.0
X40.0Y-28.0
X40.0Y-40.0
X40.0Y-46.0
X40.0Y-58.0
X40.0Y-64.0
X40.0Y-70.0
X40.67Y-2.895
X40.67Y-7.075
X42.315Y-22.322
X42.315Y-23.872
X42.315Y-39.93
X42.315Y-41.48
X42.315Y-57.538
X42.315Y-59.088
X46.0Y-4.0
X46.0Y-16.0
X46.0Y-22.0
X46.0Y-34.0
X48.27Y-77.902
X49.33Y-2.895
X49.33Y-7.075
X51.967Y-10.47
X51.967Y-29.138
X51.967Y-47.804
X52.0Y-4.0
X52.0Y-10.0
X52.0Y-22.0
X52.0Y-40.0
X52.0Y-46.0
X52.0Y-64.0
X52.0Y-70.0
X53.275Y-80.8
X56.5Y-86.725
X56.775Y-77.0
X57.0Y-6.85
X57.0Y-9.15
X58.0Y-4.0
X58.0Y-76.0
X61.275Y-80.8
X61.648Y-22.322
X61.648Y-23.872
X61.648Y-39.93
X61.648Y-41.48
X61.648Y-57.538
X61.648Y-59.088
X64.0Y-4.0
X64.0Y-10.0
X64.0Y-16.0
X64.0Y-22.0
X64.0Y-34.0
X64.0Y-70.0
X70.0Y-4.0
X70.0Y-10.0
X70.0Y-34.0
X70.0Y-46.0
X70.0Y-52.0
X70.0Y-64.0
X70.0Y-70.0
X70.0Y-82.0
X71.3Y-29.138
X71.3Y-66.472
X76.0Y-4.0
X76.0Y-10.0
X76.0Y-22.0
X76.0Y-28.0
X76.0Y-46.0
X76.0Y-64.0
X76.0Y-76.0
X76.0Y-82.0
X76.7Y-30.598
X76.7Y-49.264
X76.7Y-67.932
X77.27Y-40.568
X77.27Y-59.234
X77.27Y-77.902
X78.5Y-82.15
X78.5Y-85.85
X79.15Y-19.25
X79.907Y-75.146
X79.907Y-76.696
X80.981Y-39.93
X80.981Y-41.48
X80.981Y-57.538
X80.981Y-59.088
X82.0Y-4.0
X82.0Y-10.0
X82.0Y-16.0
X82.0Y-22.0
X82.0Y-28.0
X82.0Y-34.0
X82.0Y-40.0
X82.0Y-46.0
X82.0Y-52.0
X82.0Y-58.0
X82.0Y-64.0
X82.0Y-70.0
X82.0Y-76.0
X82.0Y-82.0
T2
X4.628Y-65.425
X4.781Y-70.894
X4.837Y-60.512
X5.5Y-68.721
X5.5Y-80.265
X6.663Y-81.168
X7.174Y-40.061
X12.847Y-77.803
X13.581Y-78.245
X14.297Y-25.197
X14.383Y-65.729
X14.548Y-48.202
X14.972Y-62.458
X15.605Y-63.113
X18.813Y-75.479
X23.19Y-75.0
X24.523Y-27.372
X25.493Y-7.144
X25.494Y-84.605
X25.925Y-40.071
X26.954Y-58.742
X27.18Y-74.392
X27.968Y-80.724
X28.47Y-77.583
X29.882Y-5.913
X31.263Y-78.753
X31.61Y-83.329
X32.716Y-78.26
X34.942Y-79.975
X35.634Y-79.998
X38.183Y-30.857
X38.415Y-84.695
X39.069Y-85.122
X39.474Y-84.505
X40.223Y-85.131
X40.417Y-82.229
X40.655Y-80.846
X40.754Y-84.684
X40.758Y-85.578
X41.043Y-67.577
X41.24Y-79.822
X41.762Y-80.904
X42.262Y-77.637
X42.4Y-88.239
X42.404Y-85.073
X42.694Y-85.992
X43.199Y-86.603
X43.6Y-88.242
X43.902Y-82.03
X43.919Y-85.947
X44.8Y-81.567
X45.221Y-86.052
X45.719Y-88.662
X46.098Y-79.675
X46.109Y-81.523
X46.149Y-40.151
X46.158Y-86.154
X46.397Y-21.408
X46.8Y-79.745
X46.961Y-85.457
X47.339Y-81.6
X47.4Y-84.879
X47.556Y-83.387
X47.598Y-82.493
X47.829Y-67.449
X48.584Y-80.491
X49.237Y-81.692
X49.24Y-83.386
X49.263Y-80.097
X49.525Y-86.813
X50.046Y-79.072
X50.048Y-76.882
X50.327Y-7.542
X51.392Y-83.188
X56.109Y-10.713
X57.155Y-12.142
X58.644Y-47.178
X59.549Y-17.779
X62.122Y-4.264
X64.491Y-78.124
X65.338Y-4.837
X65.368Y-77.655
X65.56Y-85.188
X65.73Y-58.732
X65.805Y-82.622
X66.199Y-65.224
X66.63Y-81.995
X67.786Y-49.264
X67.9Y-89.062
X75.447Y-66.216
X75.451Y-29.138
X75.451Y-47.804
T3
X42.1Y-6.575
X47.9Y-6.575
T5
X68.85Y-16.45
X79.15Y-16.45
T6
X12.96Y-5.75
X12.96Y-20.25
X15.5Y-20.25
X18.04Y-5.75
X18.04Y-20.25
T7
X68.85Y-12.75
X68.85Y-19.25
X79.15Y-12.75
X79.15Y-19.25
T9
X11.0Y-38.368
X11.0Y-57.034
X11.0Y-75.702
X16.0Y-40.568
X16.0Y-59.234
X16.0Y-77.902
X30.333Y-19.7
X30.333Y-38.368
X30.333Y-57.034
X35.333Y-21.9
X35.333Y-40.568
X35.333Y-59.234
X40.0Y-75.702
X45.0Y-77.902
X49.667Y-19.7
X49.667Y-38.368
X49.667Y-57.034
X54.667Y-21.9
X54.667Y-40.568
X54.667Y-59.234
X69.0Y-38.368
X69.0Y-57.034
X69.0Y-75.702
X74.0Y-40.568
X74.0Y-59.234
X74.0Y-77.902
T4
X40.67Y-2.595G85X40.67Y-3.195
G05
X40.67Y-6.675G85X40.67Y-7.475
G05
X49.33Y-2.595G85X49.33Y-3.195
G05
X49.33Y-6.675G85X49.33Y-7.475
G05
T8
X9.25Y-13.3G85X9.25Y-12.2
G05
X21.75Y-13.3G85X21.75Y-12.2
G05
M30
