%TF.GenerationSoftware,KiCad,Pcbnew,10.0.3*%
%TF.CreationDate,2026-07-28T16:59:11-04:00*%
%TF.ProjectId,ClaudeMicro,436c6175-6465-44d6-9963-726f2e6b6963,rev?*%
%TF.SameCoordinates,Original*%
%TF.FileFunction,Legend,Bot*%
%TF.FilePolarity,Positive*%
%FSLAX46Y46*%
G04 Gerber Fmt 4.6, Leading zero omitted, Abs format (unit mm)*
G04 Created by KiCad (PCBNEW 10.0.3) date 2026-07-28 16:59:11*
%MOMM*%
%LPD*%
G01*
G04 APERTURE LIST*
%ADD10C,0.150000*%
%ADD11C,0.160000*%
%ADD12C,0.100000*%
%ADD13C,0.120000*%
%ADD14C,0.250000*%
%ADD15C,0.060000*%
%ADD16C,0.000000*%
%ADD17C,0.300000*%
G04 APERTURE END LIST*
D10*
X82221428Y-78937128D02*
X82092856Y-78979985D01*
X82092856Y-78979985D02*
X82049999Y-79022842D01*
X82049999Y-79022842D02*
X82007142Y-79108557D01*
X82007142Y-79108557D02*
X82007142Y-79237128D01*
X82007142Y-79237128D02*
X82049999Y-79322842D01*
X82049999Y-79322842D02*
X82092856Y-79365700D01*
X82092856Y-79365700D02*
X82178571Y-79408557D01*
X82178571Y-79408557D02*
X82521428Y-79408557D01*
X82521428Y-79408557D02*
X82521428Y-78508557D01*
X82521428Y-78508557D02*
X82221428Y-78508557D01*
X82221428Y-78508557D02*
X82135714Y-78551414D01*
X82135714Y-78551414D02*
X82092856Y-78594271D01*
X82092856Y-78594271D02*
X82049999Y-78679985D01*
X82049999Y-78679985D02*
X82049999Y-78765700D01*
X82049999Y-78765700D02*
X82092856Y-78851414D01*
X82092856Y-78851414D02*
X82135714Y-78894271D01*
X82135714Y-78894271D02*
X82221428Y-78937128D01*
X82221428Y-78937128D02*
X82521428Y-78937128D01*
X81449999Y-78508557D02*
X81278571Y-78508557D01*
X81278571Y-78508557D02*
X81192856Y-78551414D01*
X81192856Y-78551414D02*
X81107142Y-78637128D01*
X81107142Y-78637128D02*
X81064285Y-78808557D01*
X81064285Y-78808557D02*
X81064285Y-79108557D01*
X81064285Y-79108557D02*
X81107142Y-79279985D01*
X81107142Y-79279985D02*
X81192856Y-79365700D01*
X81192856Y-79365700D02*
X81278571Y-79408557D01*
X81278571Y-79408557D02*
X81449999Y-79408557D01*
X81449999Y-79408557D02*
X81535714Y-79365700D01*
X81535714Y-79365700D02*
X81621428Y-79279985D01*
X81621428Y-79279985D02*
X81664285Y-79108557D01*
X81664285Y-79108557D02*
X81664285Y-78808557D01*
X81664285Y-78808557D02*
X81621428Y-78637128D01*
X81621428Y-78637128D02*
X81535714Y-78551414D01*
X81535714Y-78551414D02*
X81449999Y-78508557D01*
X80507142Y-78508557D02*
X80335714Y-78508557D01*
X80335714Y-78508557D02*
X80249999Y-78551414D01*
X80249999Y-78551414D02*
X80164285Y-78637128D01*
X80164285Y-78637128D02*
X80121428Y-78808557D01*
X80121428Y-78808557D02*
X80121428Y-79108557D01*
X80121428Y-79108557D02*
X80164285Y-79279985D01*
X80164285Y-79279985D02*
X80249999Y-79365700D01*
X80249999Y-79365700D02*
X80335714Y-79408557D01*
X80335714Y-79408557D02*
X80507142Y-79408557D01*
X80507142Y-79408557D02*
X80592857Y-79365700D01*
X80592857Y-79365700D02*
X80678571Y-79279985D01*
X80678571Y-79279985D02*
X80721428Y-79108557D01*
X80721428Y-79108557D02*
X80721428Y-78808557D01*
X80721428Y-78808557D02*
X80678571Y-78637128D01*
X80678571Y-78637128D02*
X80592857Y-78551414D01*
X80592857Y-78551414D02*
X80507142Y-78508557D01*
X79864285Y-78508557D02*
X79350000Y-78508557D01*
X79607142Y-79408557D02*
X79607142Y-78508557D01*
D11*
X56619049Y-31430489D02*
X56952382Y-31430489D01*
X56952382Y-31954299D02*
X56952382Y-30954299D01*
X56952382Y-30954299D02*
X56476192Y-30954299D01*
X55619049Y-31954299D02*
X56095239Y-31954299D01*
X56095239Y-31954299D02*
X56095239Y-30954299D01*
X55333334Y-31668584D02*
X54857144Y-31668584D01*
X55428572Y-31954299D02*
X55095239Y-30954299D01*
X55095239Y-30954299D02*
X54761906Y-31954299D01*
X54476191Y-31906680D02*
X54333334Y-31954299D01*
X54333334Y-31954299D02*
X54095239Y-31954299D01*
X54095239Y-31954299D02*
X54000001Y-31906680D01*
X54000001Y-31906680D02*
X53952382Y-31859060D01*
X53952382Y-31859060D02*
X53904763Y-31763822D01*
X53904763Y-31763822D02*
X53904763Y-31668584D01*
X53904763Y-31668584D02*
X53952382Y-31573346D01*
X53952382Y-31573346D02*
X54000001Y-31525727D01*
X54000001Y-31525727D02*
X54095239Y-31478108D01*
X54095239Y-31478108D02*
X54285715Y-31430489D01*
X54285715Y-31430489D02*
X54380953Y-31382870D01*
X54380953Y-31382870D02*
X54428572Y-31335251D01*
X54428572Y-31335251D02*
X54476191Y-31240013D01*
X54476191Y-31240013D02*
X54476191Y-31144775D01*
X54476191Y-31144775D02*
X54428572Y-31049537D01*
X54428572Y-31049537D02*
X54380953Y-31001918D01*
X54380953Y-31001918D02*
X54285715Y-30954299D01*
X54285715Y-30954299D02*
X54047620Y-30954299D01*
X54047620Y-30954299D02*
X53904763Y-31001918D01*
X53476191Y-31954299D02*
X53476191Y-30954299D01*
X53476191Y-31430489D02*
X52904763Y-31430489D01*
X52904763Y-31954299D02*
X52904763Y-30954299D01*
X52428572Y-31859060D02*
X52380953Y-31906680D01*
X52380953Y-31906680D02*
X52428572Y-31954299D01*
X52428572Y-31954299D02*
X52476191Y-31906680D01*
X52476191Y-31906680D02*
X52428572Y-31859060D01*
X52428572Y-31859060D02*
X52428572Y-31954299D01*
X52428572Y-31335251D02*
X52380953Y-31382870D01*
X52380953Y-31382870D02*
X52428572Y-31430489D01*
X52428572Y-31430489D02*
X52476191Y-31382870D01*
X52476191Y-31382870D02*
X52428572Y-31335251D01*
X52428572Y-31335251D02*
X52428572Y-31430489D01*
X51190477Y-31954299D02*
X51190477Y-30954299D01*
X50761906Y-31954299D02*
X50761906Y-31430489D01*
X50761906Y-31430489D02*
X50809525Y-31335251D01*
X50809525Y-31335251D02*
X50904763Y-31287632D01*
X50904763Y-31287632D02*
X51047620Y-31287632D01*
X51047620Y-31287632D02*
X51142858Y-31335251D01*
X51142858Y-31335251D02*
X51190477Y-31382870D01*
X50142858Y-31954299D02*
X50238096Y-31906680D01*
X50238096Y-31906680D02*
X50285715Y-31859060D01*
X50285715Y-31859060D02*
X50333334Y-31763822D01*
X50333334Y-31763822D02*
X50333334Y-31478108D01*
X50333334Y-31478108D02*
X50285715Y-31382870D01*
X50285715Y-31382870D02*
X50238096Y-31335251D01*
X50238096Y-31335251D02*
X50142858Y-31287632D01*
X50142858Y-31287632D02*
X50000001Y-31287632D01*
X50000001Y-31287632D02*
X49904763Y-31335251D01*
X49904763Y-31335251D02*
X49857144Y-31382870D01*
X49857144Y-31382870D02*
X49809525Y-31478108D01*
X49809525Y-31478108D02*
X49809525Y-31763822D01*
X49809525Y-31763822D02*
X49857144Y-31859060D01*
X49857144Y-31859060D02*
X49904763Y-31906680D01*
X49904763Y-31906680D02*
X50000001Y-31954299D01*
X50000001Y-31954299D02*
X50142858Y-31954299D01*
X49238096Y-31954299D02*
X49333334Y-31906680D01*
X49333334Y-31906680D02*
X49380953Y-31811441D01*
X49380953Y-31811441D02*
X49380953Y-30954299D01*
X48428572Y-31954299D02*
X48428572Y-30954299D01*
X48428572Y-31906680D02*
X48523810Y-31954299D01*
X48523810Y-31954299D02*
X48714286Y-31954299D01*
X48714286Y-31954299D02*
X48809524Y-31906680D01*
X48809524Y-31906680D02*
X48857143Y-31859060D01*
X48857143Y-31859060D02*
X48904762Y-31763822D01*
X48904762Y-31763822D02*
X48904762Y-31478108D01*
X48904762Y-31478108D02*
X48857143Y-31382870D01*
X48857143Y-31382870D02*
X48809524Y-31335251D01*
X48809524Y-31335251D02*
X48714286Y-31287632D01*
X48714286Y-31287632D02*
X48523810Y-31287632D01*
X48523810Y-31287632D02*
X48428572Y-31335251D01*
X46857143Y-31430489D02*
X46714286Y-31478108D01*
X46714286Y-31478108D02*
X46666667Y-31525727D01*
X46666667Y-31525727D02*
X46619048Y-31620965D01*
X46619048Y-31620965D02*
X46619048Y-31763822D01*
X46619048Y-31763822D02*
X46666667Y-31859060D01*
X46666667Y-31859060D02*
X46714286Y-31906680D01*
X46714286Y-31906680D02*
X46809524Y-31954299D01*
X46809524Y-31954299D02*
X47190476Y-31954299D01*
X47190476Y-31954299D02*
X47190476Y-30954299D01*
X47190476Y-30954299D02*
X46857143Y-30954299D01*
X46857143Y-30954299D02*
X46761905Y-31001918D01*
X46761905Y-31001918D02*
X46714286Y-31049537D01*
X46714286Y-31049537D02*
X46666667Y-31144775D01*
X46666667Y-31144775D02*
X46666667Y-31240013D01*
X46666667Y-31240013D02*
X46714286Y-31335251D01*
X46714286Y-31335251D02*
X46761905Y-31382870D01*
X46761905Y-31382870D02*
X46857143Y-31430489D01*
X46857143Y-31430489D02*
X47190476Y-31430489D01*
X46000000Y-30954299D02*
X45809524Y-30954299D01*
X45809524Y-30954299D02*
X45714286Y-31001918D01*
X45714286Y-31001918D02*
X45619048Y-31097156D01*
X45619048Y-31097156D02*
X45571429Y-31287632D01*
X45571429Y-31287632D02*
X45571429Y-31620965D01*
X45571429Y-31620965D02*
X45619048Y-31811441D01*
X45619048Y-31811441D02*
X45714286Y-31906680D01*
X45714286Y-31906680D02*
X45809524Y-31954299D01*
X45809524Y-31954299D02*
X46000000Y-31954299D01*
X46000000Y-31954299D02*
X46095238Y-31906680D01*
X46095238Y-31906680D02*
X46190476Y-31811441D01*
X46190476Y-31811441D02*
X46238095Y-31620965D01*
X46238095Y-31620965D02*
X46238095Y-31287632D01*
X46238095Y-31287632D02*
X46190476Y-31097156D01*
X46190476Y-31097156D02*
X46095238Y-31001918D01*
X46095238Y-31001918D02*
X46000000Y-30954299D01*
X44952381Y-30954299D02*
X44761905Y-30954299D01*
X44761905Y-30954299D02*
X44666667Y-31001918D01*
X44666667Y-31001918D02*
X44571429Y-31097156D01*
X44571429Y-31097156D02*
X44523810Y-31287632D01*
X44523810Y-31287632D02*
X44523810Y-31620965D01*
X44523810Y-31620965D02*
X44571429Y-31811441D01*
X44571429Y-31811441D02*
X44666667Y-31906680D01*
X44666667Y-31906680D02*
X44761905Y-31954299D01*
X44761905Y-31954299D02*
X44952381Y-31954299D01*
X44952381Y-31954299D02*
X45047619Y-31906680D01*
X45047619Y-31906680D02*
X45142857Y-31811441D01*
X45142857Y-31811441D02*
X45190476Y-31620965D01*
X45190476Y-31620965D02*
X45190476Y-31287632D01*
X45190476Y-31287632D02*
X45142857Y-31097156D01*
X45142857Y-31097156D02*
X45047619Y-31001918D01*
X45047619Y-31001918D02*
X44952381Y-30954299D01*
X44238095Y-30954299D02*
X43666667Y-30954299D01*
X43952381Y-31954299D02*
X43952381Y-30954299D01*
X42428571Y-31525727D02*
X42476190Y-31573346D01*
X42476190Y-31573346D02*
X42428571Y-31620965D01*
X42428571Y-31620965D02*
X42380952Y-31573346D01*
X42380952Y-31573346D02*
X42428571Y-31525727D01*
X42428571Y-31525727D02*
X42428571Y-31620965D01*
X41047618Y-31954299D02*
X41047618Y-31287632D01*
X41047618Y-31478108D02*
X40999999Y-31382870D01*
X40999999Y-31382870D02*
X40952380Y-31335251D01*
X40952380Y-31335251D02*
X40857142Y-31287632D01*
X40857142Y-31287632D02*
X40761904Y-31287632D01*
X40047618Y-31906680D02*
X40142856Y-31954299D01*
X40142856Y-31954299D02*
X40333332Y-31954299D01*
X40333332Y-31954299D02*
X40428570Y-31906680D01*
X40428570Y-31906680D02*
X40476189Y-31811441D01*
X40476189Y-31811441D02*
X40476189Y-31430489D01*
X40476189Y-31430489D02*
X40428570Y-31335251D01*
X40428570Y-31335251D02*
X40333332Y-31287632D01*
X40333332Y-31287632D02*
X40142856Y-31287632D01*
X40142856Y-31287632D02*
X40047618Y-31335251D01*
X40047618Y-31335251D02*
X39999999Y-31430489D01*
X39999999Y-31430489D02*
X39999999Y-31525727D01*
X39999999Y-31525727D02*
X40476189Y-31620965D01*
X39571427Y-31287632D02*
X39571427Y-32287632D01*
X39571427Y-31335251D02*
X39476189Y-31287632D01*
X39476189Y-31287632D02*
X39285713Y-31287632D01*
X39285713Y-31287632D02*
X39190475Y-31335251D01*
X39190475Y-31335251D02*
X39142856Y-31382870D01*
X39142856Y-31382870D02*
X39095237Y-31478108D01*
X39095237Y-31478108D02*
X39095237Y-31763822D01*
X39095237Y-31763822D02*
X39142856Y-31859060D01*
X39142856Y-31859060D02*
X39190475Y-31906680D01*
X39190475Y-31906680D02*
X39285713Y-31954299D01*
X39285713Y-31954299D02*
X39476189Y-31954299D01*
X39476189Y-31954299D02*
X39571427Y-31906680D01*
X38523808Y-31954299D02*
X38619046Y-31906680D01*
X38619046Y-31906680D02*
X38666665Y-31811441D01*
X38666665Y-31811441D02*
X38666665Y-30954299D01*
X37714284Y-31287632D02*
X37714284Y-31954299D01*
X38142855Y-31287632D02*
X38142855Y-31811441D01*
X38142855Y-31811441D02*
X38095236Y-31906680D01*
X38095236Y-31906680D02*
X37999998Y-31954299D01*
X37999998Y-31954299D02*
X37857141Y-31954299D01*
X37857141Y-31954299D02*
X37761903Y-31906680D01*
X37761903Y-31906680D02*
X37714284Y-31859060D01*
X36809522Y-31287632D02*
X36809522Y-32097156D01*
X36809522Y-32097156D02*
X36857141Y-32192394D01*
X36857141Y-32192394D02*
X36904760Y-32240013D01*
X36904760Y-32240013D02*
X36999998Y-32287632D01*
X36999998Y-32287632D02*
X37142855Y-32287632D01*
X37142855Y-32287632D02*
X37238093Y-32240013D01*
X36809522Y-31906680D02*
X36904760Y-31954299D01*
X36904760Y-31954299D02*
X37095236Y-31954299D01*
X37095236Y-31954299D02*
X37190474Y-31906680D01*
X37190474Y-31906680D02*
X37238093Y-31859060D01*
X37238093Y-31859060D02*
X37285712Y-31763822D01*
X37285712Y-31763822D02*
X37285712Y-31478108D01*
X37285712Y-31478108D02*
X37238093Y-31382870D01*
X37238093Y-31382870D02*
X37190474Y-31335251D01*
X37190474Y-31335251D02*
X37095236Y-31287632D01*
X37095236Y-31287632D02*
X36904760Y-31287632D01*
X36904760Y-31287632D02*
X36809522Y-31335251D01*
X35571426Y-30954299D02*
X35571426Y-31763822D01*
X35571426Y-31763822D02*
X35523807Y-31859060D01*
X35523807Y-31859060D02*
X35476188Y-31906680D01*
X35476188Y-31906680D02*
X35380950Y-31954299D01*
X35380950Y-31954299D02*
X35190474Y-31954299D01*
X35190474Y-31954299D02*
X35095236Y-31906680D01*
X35095236Y-31906680D02*
X35047617Y-31859060D01*
X35047617Y-31859060D02*
X34999998Y-31763822D01*
X34999998Y-31763822D02*
X34999998Y-30954299D01*
X34571426Y-31906680D02*
X34428569Y-31954299D01*
X34428569Y-31954299D02*
X34190474Y-31954299D01*
X34190474Y-31954299D02*
X34095236Y-31906680D01*
X34095236Y-31906680D02*
X34047617Y-31859060D01*
X34047617Y-31859060D02*
X33999998Y-31763822D01*
X33999998Y-31763822D02*
X33999998Y-31668584D01*
X33999998Y-31668584D02*
X34047617Y-31573346D01*
X34047617Y-31573346D02*
X34095236Y-31525727D01*
X34095236Y-31525727D02*
X34190474Y-31478108D01*
X34190474Y-31478108D02*
X34380950Y-31430489D01*
X34380950Y-31430489D02*
X34476188Y-31382870D01*
X34476188Y-31382870D02*
X34523807Y-31335251D01*
X34523807Y-31335251D02*
X34571426Y-31240013D01*
X34571426Y-31240013D02*
X34571426Y-31144775D01*
X34571426Y-31144775D02*
X34523807Y-31049537D01*
X34523807Y-31049537D02*
X34476188Y-31001918D01*
X34476188Y-31001918D02*
X34380950Y-30954299D01*
X34380950Y-30954299D02*
X34142855Y-30954299D01*
X34142855Y-30954299D02*
X33999998Y-31001918D01*
X33238093Y-31430489D02*
X33095236Y-31478108D01*
X33095236Y-31478108D02*
X33047617Y-31525727D01*
X33047617Y-31525727D02*
X32999998Y-31620965D01*
X32999998Y-31620965D02*
X32999998Y-31763822D01*
X32999998Y-31763822D02*
X33047617Y-31859060D01*
X33047617Y-31859060D02*
X33095236Y-31906680D01*
X33095236Y-31906680D02*
X33190474Y-31954299D01*
X33190474Y-31954299D02*
X33571426Y-31954299D01*
X33571426Y-31954299D02*
X33571426Y-30954299D01*
X33571426Y-30954299D02*
X33238093Y-30954299D01*
X33238093Y-30954299D02*
X33142855Y-31001918D01*
X33142855Y-31001918D02*
X33095236Y-31049537D01*
X33095236Y-31049537D02*
X33047617Y-31144775D01*
X33047617Y-31144775D02*
X33047617Y-31240013D01*
X33047617Y-31240013D02*
X33095236Y-31335251D01*
X33095236Y-31335251D02*
X33142855Y-31382870D01*
X33142855Y-31382870D02*
X33238093Y-31430489D01*
X33238093Y-31430489D02*
X33571426Y-31430489D01*
X86859060Y-18523807D02*
X86906680Y-18476188D01*
X86906680Y-18476188D02*
X86954299Y-18333331D01*
X86954299Y-18333331D02*
X86954299Y-18238093D01*
X86954299Y-18238093D02*
X86906680Y-18095236D01*
X86906680Y-18095236D02*
X86811441Y-17999998D01*
X86811441Y-17999998D02*
X86716203Y-17952379D01*
X86716203Y-17952379D02*
X86525727Y-17904760D01*
X86525727Y-17904760D02*
X86382870Y-17904760D01*
X86382870Y-17904760D02*
X86192394Y-17952379D01*
X86192394Y-17952379D02*
X86097156Y-17999998D01*
X86097156Y-17999998D02*
X86001918Y-18095236D01*
X86001918Y-18095236D02*
X85954299Y-18238093D01*
X85954299Y-18238093D02*
X85954299Y-18333331D01*
X85954299Y-18333331D02*
X86001918Y-18476188D01*
X86001918Y-18476188D02*
X86049537Y-18523807D01*
X86954299Y-19095236D02*
X86906680Y-18999998D01*
X86906680Y-18999998D02*
X86811441Y-18952379D01*
X86811441Y-18952379D02*
X85954299Y-18952379D01*
X86954299Y-19904760D02*
X86430489Y-19904760D01*
X86430489Y-19904760D02*
X86335251Y-19857141D01*
X86335251Y-19857141D02*
X86287632Y-19761903D01*
X86287632Y-19761903D02*
X86287632Y-19571427D01*
X86287632Y-19571427D02*
X86335251Y-19476189D01*
X86906680Y-19904760D02*
X86954299Y-19809522D01*
X86954299Y-19809522D02*
X86954299Y-19571427D01*
X86954299Y-19571427D02*
X86906680Y-19476189D01*
X86906680Y-19476189D02*
X86811441Y-19428570D01*
X86811441Y-19428570D02*
X86716203Y-19428570D01*
X86716203Y-19428570D02*
X86620965Y-19476189D01*
X86620965Y-19476189D02*
X86573346Y-19571427D01*
X86573346Y-19571427D02*
X86573346Y-19809522D01*
X86573346Y-19809522D02*
X86525727Y-19904760D01*
X86287632Y-20809522D02*
X86954299Y-20809522D01*
X86287632Y-20380951D02*
X86811441Y-20380951D01*
X86811441Y-20380951D02*
X86906680Y-20428570D01*
X86906680Y-20428570D02*
X86954299Y-20523808D01*
X86954299Y-20523808D02*
X86954299Y-20666665D01*
X86954299Y-20666665D02*
X86906680Y-20761903D01*
X86906680Y-20761903D02*
X86859060Y-20809522D01*
X86954299Y-21714284D02*
X85954299Y-21714284D01*
X86906680Y-21714284D02*
X86954299Y-21619046D01*
X86954299Y-21619046D02*
X86954299Y-21428570D01*
X86954299Y-21428570D02*
X86906680Y-21333332D01*
X86906680Y-21333332D02*
X86859060Y-21285713D01*
X86859060Y-21285713D02*
X86763822Y-21238094D01*
X86763822Y-21238094D02*
X86478108Y-21238094D01*
X86478108Y-21238094D02*
X86382870Y-21285713D01*
X86382870Y-21285713D02*
X86335251Y-21333332D01*
X86335251Y-21333332D02*
X86287632Y-21428570D01*
X86287632Y-21428570D02*
X86287632Y-21619046D01*
X86287632Y-21619046D02*
X86335251Y-21714284D01*
X86906680Y-22571427D02*
X86954299Y-22476189D01*
X86954299Y-22476189D02*
X86954299Y-22285713D01*
X86954299Y-22285713D02*
X86906680Y-22190475D01*
X86906680Y-22190475D02*
X86811441Y-22142856D01*
X86811441Y-22142856D02*
X86430489Y-22142856D01*
X86430489Y-22142856D02*
X86335251Y-22190475D01*
X86335251Y-22190475D02*
X86287632Y-22285713D01*
X86287632Y-22285713D02*
X86287632Y-22476189D01*
X86287632Y-22476189D02*
X86335251Y-22571427D01*
X86335251Y-22571427D02*
X86430489Y-22619046D01*
X86430489Y-22619046D02*
X86525727Y-22619046D01*
X86525727Y-22619046D02*
X86620965Y-22142856D01*
X86954299Y-23047618D02*
X85954299Y-23047618D01*
X85954299Y-23047618D02*
X86668584Y-23380951D01*
X86668584Y-23380951D02*
X85954299Y-23714284D01*
X85954299Y-23714284D02*
X86954299Y-23714284D01*
X86954299Y-24190475D02*
X86287632Y-24190475D01*
X85954299Y-24190475D02*
X86001918Y-24142856D01*
X86001918Y-24142856D02*
X86049537Y-24190475D01*
X86049537Y-24190475D02*
X86001918Y-24238094D01*
X86001918Y-24238094D02*
X85954299Y-24190475D01*
X85954299Y-24190475D02*
X86049537Y-24190475D01*
X86906680Y-25095236D02*
X86954299Y-24999998D01*
X86954299Y-24999998D02*
X86954299Y-24809522D01*
X86954299Y-24809522D02*
X86906680Y-24714284D01*
X86906680Y-24714284D02*
X86859060Y-24666665D01*
X86859060Y-24666665D02*
X86763822Y-24619046D01*
X86763822Y-24619046D02*
X86478108Y-24619046D01*
X86478108Y-24619046D02*
X86382870Y-24666665D01*
X86382870Y-24666665D02*
X86335251Y-24714284D01*
X86335251Y-24714284D02*
X86287632Y-24809522D01*
X86287632Y-24809522D02*
X86287632Y-24999998D01*
X86287632Y-24999998D02*
X86335251Y-25095236D01*
X86954299Y-25523808D02*
X86287632Y-25523808D01*
X86478108Y-25523808D02*
X86382870Y-25571427D01*
X86382870Y-25571427D02*
X86335251Y-25619046D01*
X86335251Y-25619046D02*
X86287632Y-25714284D01*
X86287632Y-25714284D02*
X86287632Y-25809522D01*
X86954299Y-26285713D02*
X86906680Y-26190475D01*
X86906680Y-26190475D02*
X86859060Y-26142856D01*
X86859060Y-26142856D02*
X86763822Y-26095237D01*
X86763822Y-26095237D02*
X86478108Y-26095237D01*
X86478108Y-26095237D02*
X86382870Y-26142856D01*
X86382870Y-26142856D02*
X86335251Y-26190475D01*
X86335251Y-26190475D02*
X86287632Y-26285713D01*
X86287632Y-26285713D02*
X86287632Y-26428570D01*
X86287632Y-26428570D02*
X86335251Y-26523808D01*
X86335251Y-26523808D02*
X86382870Y-26571427D01*
X86382870Y-26571427D02*
X86478108Y-26619046D01*
X86478108Y-26619046D02*
X86763822Y-26619046D01*
X86763822Y-26619046D02*
X86859060Y-26571427D01*
X86859060Y-26571427D02*
X86906680Y-26523808D01*
X86906680Y-26523808D02*
X86954299Y-26428570D01*
X86954299Y-26428570D02*
X86954299Y-26285713D01*
X86287632Y-27714285D02*
X86954299Y-27952380D01*
X86954299Y-27952380D02*
X86287632Y-28190475D01*
X85954299Y-28761904D02*
X85954299Y-28857142D01*
X85954299Y-28857142D02*
X86001918Y-28952380D01*
X86001918Y-28952380D02*
X86049537Y-28999999D01*
X86049537Y-28999999D02*
X86144775Y-29047618D01*
X86144775Y-29047618D02*
X86335251Y-29095237D01*
X86335251Y-29095237D02*
X86573346Y-29095237D01*
X86573346Y-29095237D02*
X86763822Y-29047618D01*
X86763822Y-29047618D02*
X86859060Y-28999999D01*
X86859060Y-28999999D02*
X86906680Y-28952380D01*
X86906680Y-28952380D02*
X86954299Y-28857142D01*
X86954299Y-28857142D02*
X86954299Y-28761904D01*
X86954299Y-28761904D02*
X86906680Y-28666666D01*
X86906680Y-28666666D02*
X86859060Y-28619047D01*
X86859060Y-28619047D02*
X86763822Y-28571428D01*
X86763822Y-28571428D02*
X86573346Y-28523809D01*
X86573346Y-28523809D02*
X86335251Y-28523809D01*
X86335251Y-28523809D02*
X86144775Y-28571428D01*
X86144775Y-28571428D02*
X86049537Y-28619047D01*
X86049537Y-28619047D02*
X86001918Y-28666666D01*
X86001918Y-28666666D02*
X85954299Y-28761904D01*
X86859060Y-29523809D02*
X86906680Y-29571428D01*
X86906680Y-29571428D02*
X86954299Y-29523809D01*
X86954299Y-29523809D02*
X86906680Y-29476190D01*
X86906680Y-29476190D02*
X86859060Y-29523809D01*
X86859060Y-29523809D02*
X86954299Y-29523809D01*
X86954299Y-30523808D02*
X86954299Y-29952380D01*
X86954299Y-30238094D02*
X85954299Y-30238094D01*
X85954299Y-30238094D02*
X86097156Y-30142856D01*
X86097156Y-30142856D02*
X86192394Y-30047618D01*
X86192394Y-30047618D02*
X86240013Y-29952380D01*
X86525727Y-31857142D02*
X86573346Y-31809523D01*
X86573346Y-31809523D02*
X86620965Y-31857142D01*
X86620965Y-31857142D02*
X86573346Y-31904761D01*
X86573346Y-31904761D02*
X86525727Y-31857142D01*
X86525727Y-31857142D02*
X86620965Y-31857142D01*
X85954299Y-33428571D02*
X85954299Y-33619047D01*
X85954299Y-33619047D02*
X86001918Y-33714285D01*
X86001918Y-33714285D02*
X86097156Y-33809523D01*
X86097156Y-33809523D02*
X86287632Y-33857142D01*
X86287632Y-33857142D02*
X86620965Y-33857142D01*
X86620965Y-33857142D02*
X86811441Y-33809523D01*
X86811441Y-33809523D02*
X86906680Y-33714285D01*
X86906680Y-33714285D02*
X86954299Y-33619047D01*
X86954299Y-33619047D02*
X86954299Y-33428571D01*
X86954299Y-33428571D02*
X86906680Y-33333333D01*
X86906680Y-33333333D02*
X86811441Y-33238095D01*
X86811441Y-33238095D02*
X86620965Y-33190476D01*
X86620965Y-33190476D02*
X86287632Y-33190476D01*
X86287632Y-33190476D02*
X86097156Y-33238095D01*
X86097156Y-33238095D02*
X86001918Y-33333333D01*
X86001918Y-33333333D02*
X85954299Y-33428571D01*
X86906680Y-34238095D02*
X86954299Y-34380952D01*
X86954299Y-34380952D02*
X86954299Y-34619047D01*
X86954299Y-34619047D02*
X86906680Y-34714285D01*
X86906680Y-34714285D02*
X86859060Y-34761904D01*
X86859060Y-34761904D02*
X86763822Y-34809523D01*
X86763822Y-34809523D02*
X86668584Y-34809523D01*
X86668584Y-34809523D02*
X86573346Y-34761904D01*
X86573346Y-34761904D02*
X86525727Y-34714285D01*
X86525727Y-34714285D02*
X86478108Y-34619047D01*
X86478108Y-34619047D02*
X86430489Y-34428571D01*
X86430489Y-34428571D02*
X86382870Y-34333333D01*
X86382870Y-34333333D02*
X86335251Y-34285714D01*
X86335251Y-34285714D02*
X86240013Y-34238095D01*
X86240013Y-34238095D02*
X86144775Y-34238095D01*
X86144775Y-34238095D02*
X86049537Y-34285714D01*
X86049537Y-34285714D02*
X86001918Y-34333333D01*
X86001918Y-34333333D02*
X85954299Y-34428571D01*
X85954299Y-34428571D02*
X85954299Y-34666666D01*
X85954299Y-34666666D02*
X86001918Y-34809523D01*
X86954299Y-35238095D02*
X85954299Y-35238095D01*
X86430489Y-35238095D02*
X86430489Y-35809523D01*
X86954299Y-35809523D02*
X85954299Y-35809523D01*
X85954299Y-36190476D02*
X86954299Y-36428571D01*
X86954299Y-36428571D02*
X86240013Y-36619047D01*
X86240013Y-36619047D02*
X86954299Y-36809523D01*
X86954299Y-36809523D02*
X85954299Y-37047619D01*
X86525727Y-38333333D02*
X86573346Y-38285714D01*
X86573346Y-38285714D02*
X86620965Y-38333333D01*
X86620965Y-38333333D02*
X86573346Y-38380952D01*
X86573346Y-38380952D02*
X86525727Y-38333333D01*
X86525727Y-38333333D02*
X86620965Y-38333333D01*
X86859060Y-40285714D02*
X86906680Y-40238095D01*
X86906680Y-40238095D02*
X86954299Y-40095238D01*
X86954299Y-40095238D02*
X86954299Y-40000000D01*
X86954299Y-40000000D02*
X86906680Y-39857143D01*
X86906680Y-39857143D02*
X86811441Y-39761905D01*
X86811441Y-39761905D02*
X86716203Y-39714286D01*
X86716203Y-39714286D02*
X86525727Y-39666667D01*
X86525727Y-39666667D02*
X86382870Y-39666667D01*
X86382870Y-39666667D02*
X86192394Y-39714286D01*
X86192394Y-39714286D02*
X86097156Y-39761905D01*
X86097156Y-39761905D02*
X86001918Y-39857143D01*
X86001918Y-39857143D02*
X85954299Y-40000000D01*
X85954299Y-40000000D02*
X85954299Y-40095238D01*
X85954299Y-40095238D02*
X86001918Y-40238095D01*
X86001918Y-40238095D02*
X86049537Y-40285714D01*
X86430489Y-40714286D02*
X86430489Y-41047619D01*
X86954299Y-41190476D02*
X86954299Y-40714286D01*
X86954299Y-40714286D02*
X85954299Y-40714286D01*
X85954299Y-40714286D02*
X85954299Y-41190476D01*
X86954299Y-42190476D02*
X86478108Y-41857143D01*
X86954299Y-41619048D02*
X85954299Y-41619048D01*
X85954299Y-41619048D02*
X85954299Y-42000000D01*
X85954299Y-42000000D02*
X86001918Y-42095238D01*
X86001918Y-42095238D02*
X86049537Y-42142857D01*
X86049537Y-42142857D02*
X86144775Y-42190476D01*
X86144775Y-42190476D02*
X86287632Y-42190476D01*
X86287632Y-42190476D02*
X86382870Y-42142857D01*
X86382870Y-42142857D02*
X86430489Y-42095238D01*
X86430489Y-42095238D02*
X86478108Y-42000000D01*
X86478108Y-42000000D02*
X86478108Y-41619048D01*
X86954299Y-42619048D02*
X85954299Y-42619048D01*
X85954299Y-42619048D02*
X86954299Y-43190476D01*
X86954299Y-43190476D02*
X85954299Y-43190476D01*
X86573346Y-43666667D02*
X86573346Y-44428572D01*
X85954299Y-45095238D02*
X85954299Y-45285714D01*
X85954299Y-45285714D02*
X86001918Y-45380952D01*
X86001918Y-45380952D02*
X86097156Y-45476190D01*
X86097156Y-45476190D02*
X86287632Y-45523809D01*
X86287632Y-45523809D02*
X86620965Y-45523809D01*
X86620965Y-45523809D02*
X86811441Y-45476190D01*
X86811441Y-45476190D02*
X86906680Y-45380952D01*
X86906680Y-45380952D02*
X86954299Y-45285714D01*
X86954299Y-45285714D02*
X86954299Y-45095238D01*
X86954299Y-45095238D02*
X86906680Y-45000000D01*
X86906680Y-45000000D02*
X86811441Y-44904762D01*
X86811441Y-44904762D02*
X86620965Y-44857143D01*
X86620965Y-44857143D02*
X86287632Y-44857143D01*
X86287632Y-44857143D02*
X86097156Y-44904762D01*
X86097156Y-44904762D02*
X86001918Y-45000000D01*
X86001918Y-45000000D02*
X85954299Y-45095238D01*
X86954299Y-45952381D02*
X85954299Y-45952381D01*
X86430489Y-45952381D02*
X86430489Y-46523809D01*
X86954299Y-46523809D02*
X85954299Y-46523809D01*
X86954299Y-47476190D02*
X86954299Y-47000000D01*
X86954299Y-47000000D02*
X85954299Y-47000000D01*
X86573346Y-47809524D02*
X86573346Y-48571429D01*
X86906680Y-49000000D02*
X86954299Y-49142857D01*
X86954299Y-49142857D02*
X86954299Y-49380952D01*
X86954299Y-49380952D02*
X86906680Y-49476190D01*
X86906680Y-49476190D02*
X86859060Y-49523809D01*
X86859060Y-49523809D02*
X86763822Y-49571428D01*
X86763822Y-49571428D02*
X86668584Y-49571428D01*
X86668584Y-49571428D02*
X86573346Y-49523809D01*
X86573346Y-49523809D02*
X86525727Y-49476190D01*
X86525727Y-49476190D02*
X86478108Y-49380952D01*
X86478108Y-49380952D02*
X86430489Y-49190476D01*
X86430489Y-49190476D02*
X86382870Y-49095238D01*
X86382870Y-49095238D02*
X86335251Y-49047619D01*
X86335251Y-49047619D02*
X86240013Y-49000000D01*
X86240013Y-49000000D02*
X86144775Y-49000000D01*
X86144775Y-49000000D02*
X86049537Y-49047619D01*
X86049537Y-49047619D02*
X86001918Y-49095238D01*
X86001918Y-49095238D02*
X85954299Y-49190476D01*
X85954299Y-49190476D02*
X85954299Y-49428571D01*
X85954299Y-49428571D02*
X86001918Y-49571428D01*
X86287632Y-50666667D02*
X86954299Y-50904762D01*
X86954299Y-50904762D02*
X86287632Y-51142857D01*
X86049537Y-51476191D02*
X86001918Y-51523810D01*
X86001918Y-51523810D02*
X85954299Y-51619048D01*
X85954299Y-51619048D02*
X85954299Y-51857143D01*
X85954299Y-51857143D02*
X86001918Y-51952381D01*
X86001918Y-51952381D02*
X86049537Y-52000000D01*
X86049537Y-52000000D02*
X86144775Y-52047619D01*
X86144775Y-52047619D02*
X86240013Y-52047619D01*
X86240013Y-52047619D02*
X86382870Y-52000000D01*
X86382870Y-52000000D02*
X86954299Y-51428572D01*
X86954299Y-51428572D02*
X86954299Y-52047619D01*
X86525727Y-53380953D02*
X86573346Y-53333334D01*
X86573346Y-53333334D02*
X86620965Y-53380953D01*
X86620965Y-53380953D02*
X86573346Y-53428572D01*
X86573346Y-53428572D02*
X86525727Y-53380953D01*
X86525727Y-53380953D02*
X86620965Y-53380953D01*
X86287632Y-55190477D02*
X87097156Y-55190477D01*
X87097156Y-55190477D02*
X87192394Y-55142858D01*
X87192394Y-55142858D02*
X87240013Y-55095239D01*
X87240013Y-55095239D02*
X87287632Y-55000001D01*
X87287632Y-55000001D02*
X87287632Y-54857144D01*
X87287632Y-54857144D02*
X87240013Y-54761906D01*
X86906680Y-55190477D02*
X86954299Y-55095239D01*
X86954299Y-55095239D02*
X86954299Y-54904763D01*
X86954299Y-54904763D02*
X86906680Y-54809525D01*
X86906680Y-54809525D02*
X86859060Y-54761906D01*
X86859060Y-54761906D02*
X86763822Y-54714287D01*
X86763822Y-54714287D02*
X86478108Y-54714287D01*
X86478108Y-54714287D02*
X86382870Y-54761906D01*
X86382870Y-54761906D02*
X86335251Y-54809525D01*
X86335251Y-54809525D02*
X86287632Y-54904763D01*
X86287632Y-54904763D02*
X86287632Y-55095239D01*
X86287632Y-55095239D02*
X86335251Y-55190477D01*
X86954299Y-55666668D02*
X86287632Y-55666668D01*
X85954299Y-55666668D02*
X86001918Y-55619049D01*
X86001918Y-55619049D02*
X86049537Y-55666668D01*
X86049537Y-55666668D02*
X86001918Y-55714287D01*
X86001918Y-55714287D02*
X85954299Y-55666668D01*
X85954299Y-55666668D02*
X86049537Y-55666668D01*
X86287632Y-56000001D02*
X86287632Y-56380953D01*
X85954299Y-56142858D02*
X86811441Y-56142858D01*
X86811441Y-56142858D02*
X86906680Y-56190477D01*
X86906680Y-56190477D02*
X86954299Y-56285715D01*
X86954299Y-56285715D02*
X86954299Y-56380953D01*
X86954299Y-56714287D02*
X85954299Y-56714287D01*
X86954299Y-57142858D02*
X86430489Y-57142858D01*
X86430489Y-57142858D02*
X86335251Y-57095239D01*
X86335251Y-57095239D02*
X86287632Y-57000001D01*
X86287632Y-57000001D02*
X86287632Y-56857144D01*
X86287632Y-56857144D02*
X86335251Y-56761906D01*
X86335251Y-56761906D02*
X86382870Y-56714287D01*
X86287632Y-58047620D02*
X86954299Y-58047620D01*
X86287632Y-57619049D02*
X86811441Y-57619049D01*
X86811441Y-57619049D02*
X86906680Y-57666668D01*
X86906680Y-57666668D02*
X86954299Y-57761906D01*
X86954299Y-57761906D02*
X86954299Y-57904763D01*
X86954299Y-57904763D02*
X86906680Y-58000001D01*
X86906680Y-58000001D02*
X86859060Y-58047620D01*
X86954299Y-58523811D02*
X85954299Y-58523811D01*
X86335251Y-58523811D02*
X86287632Y-58619049D01*
X86287632Y-58619049D02*
X86287632Y-58809525D01*
X86287632Y-58809525D02*
X86335251Y-58904763D01*
X86335251Y-58904763D02*
X86382870Y-58952382D01*
X86382870Y-58952382D02*
X86478108Y-59000001D01*
X86478108Y-59000001D02*
X86763822Y-59000001D01*
X86763822Y-59000001D02*
X86859060Y-58952382D01*
X86859060Y-58952382D02*
X86906680Y-58904763D01*
X86906680Y-58904763D02*
X86954299Y-58809525D01*
X86954299Y-58809525D02*
X86954299Y-58619049D01*
X86954299Y-58619049D02*
X86906680Y-58523811D01*
X86859060Y-59428573D02*
X86906680Y-59476192D01*
X86906680Y-59476192D02*
X86954299Y-59428573D01*
X86954299Y-59428573D02*
X86906680Y-59380954D01*
X86906680Y-59380954D02*
X86859060Y-59428573D01*
X86859060Y-59428573D02*
X86954299Y-59428573D01*
X86906680Y-60333334D02*
X86954299Y-60238096D01*
X86954299Y-60238096D02*
X86954299Y-60047620D01*
X86954299Y-60047620D02*
X86906680Y-59952382D01*
X86906680Y-59952382D02*
X86859060Y-59904763D01*
X86859060Y-59904763D02*
X86763822Y-59857144D01*
X86763822Y-59857144D02*
X86478108Y-59857144D01*
X86478108Y-59857144D02*
X86382870Y-59904763D01*
X86382870Y-59904763D02*
X86335251Y-59952382D01*
X86335251Y-59952382D02*
X86287632Y-60047620D01*
X86287632Y-60047620D02*
X86287632Y-60238096D01*
X86287632Y-60238096D02*
X86335251Y-60333334D01*
X86954299Y-60904763D02*
X86906680Y-60809525D01*
X86906680Y-60809525D02*
X86859060Y-60761906D01*
X86859060Y-60761906D02*
X86763822Y-60714287D01*
X86763822Y-60714287D02*
X86478108Y-60714287D01*
X86478108Y-60714287D02*
X86382870Y-60761906D01*
X86382870Y-60761906D02*
X86335251Y-60809525D01*
X86335251Y-60809525D02*
X86287632Y-60904763D01*
X86287632Y-60904763D02*
X86287632Y-61047620D01*
X86287632Y-61047620D02*
X86335251Y-61142858D01*
X86335251Y-61142858D02*
X86382870Y-61190477D01*
X86382870Y-61190477D02*
X86478108Y-61238096D01*
X86478108Y-61238096D02*
X86763822Y-61238096D01*
X86763822Y-61238096D02*
X86859060Y-61190477D01*
X86859060Y-61190477D02*
X86906680Y-61142858D01*
X86906680Y-61142858D02*
X86954299Y-61047620D01*
X86954299Y-61047620D02*
X86954299Y-60904763D01*
X86954299Y-61666668D02*
X86287632Y-61666668D01*
X86382870Y-61666668D02*
X86335251Y-61714287D01*
X86335251Y-61714287D02*
X86287632Y-61809525D01*
X86287632Y-61809525D02*
X86287632Y-61952382D01*
X86287632Y-61952382D02*
X86335251Y-62047620D01*
X86335251Y-62047620D02*
X86430489Y-62095239D01*
X86430489Y-62095239D02*
X86954299Y-62095239D01*
X86430489Y-62095239D02*
X86335251Y-62142858D01*
X86335251Y-62142858D02*
X86287632Y-62238096D01*
X86287632Y-62238096D02*
X86287632Y-62380953D01*
X86287632Y-62380953D02*
X86335251Y-62476192D01*
X86335251Y-62476192D02*
X86430489Y-62523811D01*
X86430489Y-62523811D02*
X86954299Y-62523811D01*
X85906680Y-63714286D02*
X87192394Y-62857144D01*
X86430489Y-64380953D02*
X86478108Y-64523810D01*
X86478108Y-64523810D02*
X86525727Y-64571429D01*
X86525727Y-64571429D02*
X86620965Y-64619048D01*
X86620965Y-64619048D02*
X86763822Y-64619048D01*
X86763822Y-64619048D02*
X86859060Y-64571429D01*
X86859060Y-64571429D02*
X86906680Y-64523810D01*
X86906680Y-64523810D02*
X86954299Y-64428572D01*
X86954299Y-64428572D02*
X86954299Y-64047620D01*
X86954299Y-64047620D02*
X85954299Y-64047620D01*
X85954299Y-64047620D02*
X85954299Y-64380953D01*
X85954299Y-64380953D02*
X86001918Y-64476191D01*
X86001918Y-64476191D02*
X86049537Y-64523810D01*
X86049537Y-64523810D02*
X86144775Y-64571429D01*
X86144775Y-64571429D02*
X86240013Y-64571429D01*
X86240013Y-64571429D02*
X86335251Y-64523810D01*
X86335251Y-64523810D02*
X86382870Y-64476191D01*
X86382870Y-64476191D02*
X86430489Y-64380953D01*
X86430489Y-64380953D02*
X86430489Y-64047620D01*
X86954299Y-65047620D02*
X86287632Y-65047620D01*
X86478108Y-65047620D02*
X86382870Y-65095239D01*
X86382870Y-65095239D02*
X86335251Y-65142858D01*
X86335251Y-65142858D02*
X86287632Y-65238096D01*
X86287632Y-65238096D02*
X86287632Y-65333334D01*
X86954299Y-65666668D02*
X86287632Y-65666668D01*
X85954299Y-65666668D02*
X86001918Y-65619049D01*
X86001918Y-65619049D02*
X86049537Y-65666668D01*
X86049537Y-65666668D02*
X86001918Y-65714287D01*
X86001918Y-65714287D02*
X85954299Y-65666668D01*
X85954299Y-65666668D02*
X86049537Y-65666668D01*
X86954299Y-66285715D02*
X86906680Y-66190477D01*
X86906680Y-66190477D02*
X86811441Y-66142858D01*
X86811441Y-66142858D02*
X85954299Y-66142858D01*
X86954299Y-66809525D02*
X86906680Y-66714287D01*
X86906680Y-66714287D02*
X86811441Y-66666668D01*
X86811441Y-66666668D02*
X85954299Y-66666668D01*
X86954299Y-67619049D02*
X86430489Y-67619049D01*
X86430489Y-67619049D02*
X86335251Y-67571430D01*
X86335251Y-67571430D02*
X86287632Y-67476192D01*
X86287632Y-67476192D02*
X86287632Y-67285716D01*
X86287632Y-67285716D02*
X86335251Y-67190478D01*
X86906680Y-67619049D02*
X86954299Y-67523811D01*
X86954299Y-67523811D02*
X86954299Y-67285716D01*
X86954299Y-67285716D02*
X86906680Y-67190478D01*
X86906680Y-67190478D02*
X86811441Y-67142859D01*
X86811441Y-67142859D02*
X86716203Y-67142859D01*
X86716203Y-67142859D02*
X86620965Y-67190478D01*
X86620965Y-67190478D02*
X86573346Y-67285716D01*
X86573346Y-67285716D02*
X86573346Y-67523811D01*
X86573346Y-67523811D02*
X86525727Y-67619049D01*
X86954299Y-68095240D02*
X86287632Y-68095240D01*
X86478108Y-68095240D02*
X86382870Y-68142859D01*
X86382870Y-68142859D02*
X86335251Y-68190478D01*
X86335251Y-68190478D02*
X86287632Y-68285716D01*
X86287632Y-68285716D02*
X86287632Y-68380954D01*
X85954299Y-68904764D02*
X85954299Y-69000002D01*
X85954299Y-69000002D02*
X86001918Y-69095240D01*
X86001918Y-69095240D02*
X86049537Y-69142859D01*
X86049537Y-69142859D02*
X86144775Y-69190478D01*
X86144775Y-69190478D02*
X86335251Y-69238097D01*
X86335251Y-69238097D02*
X86573346Y-69238097D01*
X86573346Y-69238097D02*
X86763822Y-69190478D01*
X86763822Y-69190478D02*
X86859060Y-69142859D01*
X86859060Y-69142859D02*
X86906680Y-69095240D01*
X86906680Y-69095240D02*
X86954299Y-69000002D01*
X86954299Y-69000002D02*
X86954299Y-68904764D01*
X86954299Y-68904764D02*
X86906680Y-68809526D01*
X86906680Y-68809526D02*
X86859060Y-68761907D01*
X86859060Y-68761907D02*
X86763822Y-68714288D01*
X86763822Y-68714288D02*
X86573346Y-68666669D01*
X86573346Y-68666669D02*
X86335251Y-68666669D01*
X86335251Y-68666669D02*
X86144775Y-68714288D01*
X86144775Y-68714288D02*
X86049537Y-68761907D01*
X86049537Y-68761907D02*
X86001918Y-68809526D01*
X86001918Y-68809526D02*
X85954299Y-68904764D01*
X86954299Y-70190478D02*
X86954299Y-69619050D01*
X86954299Y-69904764D02*
X85954299Y-69904764D01*
X85954299Y-69904764D02*
X86097156Y-69809526D01*
X86097156Y-69809526D02*
X86192394Y-69714288D01*
X86192394Y-69714288D02*
X86240013Y-69619050D01*
X85954299Y-70809526D02*
X85954299Y-70904764D01*
X85954299Y-70904764D02*
X86001918Y-71000002D01*
X86001918Y-71000002D02*
X86049537Y-71047621D01*
X86049537Y-71047621D02*
X86144775Y-71095240D01*
X86144775Y-71095240D02*
X86335251Y-71142859D01*
X86335251Y-71142859D02*
X86573346Y-71142859D01*
X86573346Y-71142859D02*
X86763822Y-71095240D01*
X86763822Y-71095240D02*
X86859060Y-71047621D01*
X86859060Y-71047621D02*
X86906680Y-71000002D01*
X86906680Y-71000002D02*
X86954299Y-70904764D01*
X86954299Y-70904764D02*
X86954299Y-70809526D01*
X86954299Y-70809526D02*
X86906680Y-70714288D01*
X86906680Y-70714288D02*
X86859060Y-70666669D01*
X86859060Y-70666669D02*
X86763822Y-70619050D01*
X86763822Y-70619050D02*
X86573346Y-70571431D01*
X86573346Y-70571431D02*
X86335251Y-70571431D01*
X86335251Y-70571431D02*
X86144775Y-70619050D01*
X86144775Y-70619050D02*
X86049537Y-70666669D01*
X86049537Y-70666669D02*
X86001918Y-70714288D01*
X86001918Y-70714288D02*
X85954299Y-70809526D01*
X86954299Y-72095240D02*
X86954299Y-71523812D01*
X86954299Y-71809526D02*
X85954299Y-71809526D01*
X85954299Y-71809526D02*
X86097156Y-71714288D01*
X86097156Y-71714288D02*
X86192394Y-71619050D01*
X86192394Y-71619050D02*
X86240013Y-71523812D01*
D12*
X48919006Y-9705038D02*
X49014244Y-9657419D01*
X49014244Y-9657419D02*
X49157101Y-9657419D01*
X49157101Y-9657419D02*
X49299958Y-9705038D01*
X49299958Y-9705038D02*
X49395196Y-9800276D01*
X49395196Y-9800276D02*
X49442815Y-9895514D01*
X49442815Y-9895514D02*
X49490434Y-10085990D01*
X49490434Y-10085990D02*
X49490434Y-10228847D01*
X49490434Y-10228847D02*
X49442815Y-10419323D01*
X49442815Y-10419323D02*
X49395196Y-10514561D01*
X49395196Y-10514561D02*
X49299958Y-10609800D01*
X49299958Y-10609800D02*
X49157101Y-10657419D01*
X49157101Y-10657419D02*
X49061863Y-10657419D01*
X49061863Y-10657419D02*
X48919006Y-10609800D01*
X48919006Y-10609800D02*
X48871387Y-10562180D01*
X48871387Y-10562180D02*
X48871387Y-10228847D01*
X48871387Y-10228847D02*
X49061863Y-10228847D01*
X48442815Y-10657419D02*
X48442815Y-9657419D01*
X48442815Y-9657419D02*
X47871387Y-10657419D01*
X47871387Y-10657419D02*
X47871387Y-9657419D01*
X47395196Y-10657419D02*
X47395196Y-9657419D01*
X47395196Y-9657419D02*
X47157101Y-9657419D01*
X47157101Y-9657419D02*
X47014244Y-9705038D01*
X47014244Y-9705038D02*
X46919006Y-9800276D01*
X46919006Y-9800276D02*
X46871387Y-9895514D01*
X46871387Y-9895514D02*
X46823768Y-10085990D01*
X46823768Y-10085990D02*
X46823768Y-10228847D01*
X46823768Y-10228847D02*
X46871387Y-10419323D01*
X46871387Y-10419323D02*
X46919006Y-10514561D01*
X46919006Y-10514561D02*
X47014244Y-10609800D01*
X47014244Y-10609800D02*
X47157101Y-10657419D01*
X47157101Y-10657419D02*
X47395196Y-10657419D01*
X48919006Y-47039438D02*
X49014244Y-46991819D01*
X49014244Y-46991819D02*
X49157101Y-46991819D01*
X49157101Y-46991819D02*
X49299958Y-47039438D01*
X49299958Y-47039438D02*
X49395196Y-47134676D01*
X49395196Y-47134676D02*
X49442815Y-47229914D01*
X49442815Y-47229914D02*
X49490434Y-47420390D01*
X49490434Y-47420390D02*
X49490434Y-47563247D01*
X49490434Y-47563247D02*
X49442815Y-47753723D01*
X49442815Y-47753723D02*
X49395196Y-47848961D01*
X49395196Y-47848961D02*
X49299958Y-47944200D01*
X49299958Y-47944200D02*
X49157101Y-47991819D01*
X49157101Y-47991819D02*
X49061863Y-47991819D01*
X49061863Y-47991819D02*
X48919006Y-47944200D01*
X48919006Y-47944200D02*
X48871387Y-47896580D01*
X48871387Y-47896580D02*
X48871387Y-47563247D01*
X48871387Y-47563247D02*
X49061863Y-47563247D01*
X48442815Y-47991819D02*
X48442815Y-46991819D01*
X48442815Y-46991819D02*
X47871387Y-47991819D01*
X47871387Y-47991819D02*
X47871387Y-46991819D01*
X47395196Y-47991819D02*
X47395196Y-46991819D01*
X47395196Y-46991819D02*
X47157101Y-46991819D01*
X47157101Y-46991819D02*
X47014244Y-47039438D01*
X47014244Y-47039438D02*
X46919006Y-47134676D01*
X46919006Y-47134676D02*
X46871387Y-47229914D01*
X46871387Y-47229914D02*
X46823768Y-47420390D01*
X46823768Y-47420390D02*
X46823768Y-47563247D01*
X46823768Y-47563247D02*
X46871387Y-47753723D01*
X46871387Y-47753723D02*
X46919006Y-47848961D01*
X46919006Y-47848961D02*
X47014244Y-47944200D01*
X47014244Y-47944200D02*
X47157101Y-47991819D01*
X47157101Y-47991819D02*
X47395196Y-47991819D01*
X39252306Y-65707038D02*
X39347544Y-65659419D01*
X39347544Y-65659419D02*
X39490401Y-65659419D01*
X39490401Y-65659419D02*
X39633258Y-65707038D01*
X39633258Y-65707038D02*
X39728496Y-65802276D01*
X39728496Y-65802276D02*
X39776115Y-65897514D01*
X39776115Y-65897514D02*
X39823734Y-66087990D01*
X39823734Y-66087990D02*
X39823734Y-66230847D01*
X39823734Y-66230847D02*
X39776115Y-66421323D01*
X39776115Y-66421323D02*
X39728496Y-66516561D01*
X39728496Y-66516561D02*
X39633258Y-66611800D01*
X39633258Y-66611800D02*
X39490401Y-66659419D01*
X39490401Y-66659419D02*
X39395163Y-66659419D01*
X39395163Y-66659419D02*
X39252306Y-66611800D01*
X39252306Y-66611800D02*
X39204687Y-66564180D01*
X39204687Y-66564180D02*
X39204687Y-66230847D01*
X39204687Y-66230847D02*
X39395163Y-66230847D01*
X38776115Y-66659419D02*
X38776115Y-65659419D01*
X38776115Y-65659419D02*
X38204687Y-66659419D01*
X38204687Y-66659419D02*
X38204687Y-65659419D01*
X37728496Y-66659419D02*
X37728496Y-65659419D01*
X37728496Y-65659419D02*
X37490401Y-65659419D01*
X37490401Y-65659419D02*
X37347544Y-65707038D01*
X37347544Y-65707038D02*
X37252306Y-65802276D01*
X37252306Y-65802276D02*
X37204687Y-65897514D01*
X37204687Y-65897514D02*
X37157068Y-66087990D01*
X37157068Y-66087990D02*
X37157068Y-66230847D01*
X37157068Y-66230847D02*
X37204687Y-66421323D01*
X37204687Y-66421323D02*
X37252306Y-66516561D01*
X37252306Y-66516561D02*
X37347544Y-66611800D01*
X37347544Y-66611800D02*
X37490401Y-66659419D01*
X37490401Y-66659419D02*
X37728496Y-66659419D01*
X68252306Y-65707038D02*
X68347544Y-65659419D01*
X68347544Y-65659419D02*
X68490401Y-65659419D01*
X68490401Y-65659419D02*
X68633258Y-65707038D01*
X68633258Y-65707038D02*
X68728496Y-65802276D01*
X68728496Y-65802276D02*
X68776115Y-65897514D01*
X68776115Y-65897514D02*
X68823734Y-66087990D01*
X68823734Y-66087990D02*
X68823734Y-66230847D01*
X68823734Y-66230847D02*
X68776115Y-66421323D01*
X68776115Y-66421323D02*
X68728496Y-66516561D01*
X68728496Y-66516561D02*
X68633258Y-66611800D01*
X68633258Y-66611800D02*
X68490401Y-66659419D01*
X68490401Y-66659419D02*
X68395163Y-66659419D01*
X68395163Y-66659419D02*
X68252306Y-66611800D01*
X68252306Y-66611800D02*
X68204687Y-66564180D01*
X68204687Y-66564180D02*
X68204687Y-66230847D01*
X68204687Y-66230847D02*
X68395163Y-66230847D01*
X67776115Y-66659419D02*
X67776115Y-65659419D01*
X67776115Y-65659419D02*
X67204687Y-66659419D01*
X67204687Y-66659419D02*
X67204687Y-65659419D01*
X66728496Y-66659419D02*
X66728496Y-65659419D01*
X66728496Y-65659419D02*
X66490401Y-65659419D01*
X66490401Y-65659419D02*
X66347544Y-65707038D01*
X66347544Y-65707038D02*
X66252306Y-65802276D01*
X66252306Y-65802276D02*
X66204687Y-65897514D01*
X66204687Y-65897514D02*
X66157068Y-66087990D01*
X66157068Y-66087990D02*
X66157068Y-66230847D01*
X66157068Y-66230847D02*
X66204687Y-66421323D01*
X66204687Y-66421323D02*
X66252306Y-66516561D01*
X66252306Y-66516561D02*
X66347544Y-66611800D01*
X66347544Y-66611800D02*
X66490401Y-66659419D01*
X66490401Y-66659419D02*
X66728496Y-66659419D01*
X29585606Y-47039438D02*
X29680844Y-46991819D01*
X29680844Y-46991819D02*
X29823701Y-46991819D01*
X29823701Y-46991819D02*
X29966558Y-47039438D01*
X29966558Y-47039438D02*
X30061796Y-47134676D01*
X30061796Y-47134676D02*
X30109415Y-47229914D01*
X30109415Y-47229914D02*
X30157034Y-47420390D01*
X30157034Y-47420390D02*
X30157034Y-47563247D01*
X30157034Y-47563247D02*
X30109415Y-47753723D01*
X30109415Y-47753723D02*
X30061796Y-47848961D01*
X30061796Y-47848961D02*
X29966558Y-47944200D01*
X29966558Y-47944200D02*
X29823701Y-47991819D01*
X29823701Y-47991819D02*
X29728463Y-47991819D01*
X29728463Y-47991819D02*
X29585606Y-47944200D01*
X29585606Y-47944200D02*
X29537987Y-47896580D01*
X29537987Y-47896580D02*
X29537987Y-47563247D01*
X29537987Y-47563247D02*
X29728463Y-47563247D01*
X29109415Y-47991819D02*
X29109415Y-46991819D01*
X29109415Y-46991819D02*
X28537987Y-47991819D01*
X28537987Y-47991819D02*
X28537987Y-46991819D01*
X28061796Y-47991819D02*
X28061796Y-46991819D01*
X28061796Y-46991819D02*
X27823701Y-46991819D01*
X27823701Y-46991819D02*
X27680844Y-47039438D01*
X27680844Y-47039438D02*
X27585606Y-47134676D01*
X27585606Y-47134676D02*
X27537987Y-47229914D01*
X27537987Y-47229914D02*
X27490368Y-47420390D01*
X27490368Y-47420390D02*
X27490368Y-47563247D01*
X27490368Y-47563247D02*
X27537987Y-47753723D01*
X27537987Y-47753723D02*
X27585606Y-47848961D01*
X27585606Y-47848961D02*
X27680844Y-47944200D01*
X27680844Y-47944200D02*
X27823701Y-47991819D01*
X27823701Y-47991819D02*
X28061796Y-47991819D01*
X29585606Y-28372638D02*
X29680844Y-28325019D01*
X29680844Y-28325019D02*
X29823701Y-28325019D01*
X29823701Y-28325019D02*
X29966558Y-28372638D01*
X29966558Y-28372638D02*
X30061796Y-28467876D01*
X30061796Y-28467876D02*
X30109415Y-28563114D01*
X30109415Y-28563114D02*
X30157034Y-28753590D01*
X30157034Y-28753590D02*
X30157034Y-28896447D01*
X30157034Y-28896447D02*
X30109415Y-29086923D01*
X30109415Y-29086923D02*
X30061796Y-29182161D01*
X30061796Y-29182161D02*
X29966558Y-29277400D01*
X29966558Y-29277400D02*
X29823701Y-29325019D01*
X29823701Y-29325019D02*
X29728463Y-29325019D01*
X29728463Y-29325019D02*
X29585606Y-29277400D01*
X29585606Y-29277400D02*
X29537987Y-29229780D01*
X29537987Y-29229780D02*
X29537987Y-28896447D01*
X29537987Y-28896447D02*
X29728463Y-28896447D01*
X29109415Y-29325019D02*
X29109415Y-28325019D01*
X29109415Y-28325019D02*
X28537987Y-29325019D01*
X28537987Y-29325019D02*
X28537987Y-28325019D01*
X28061796Y-29325019D02*
X28061796Y-28325019D01*
X28061796Y-28325019D02*
X27823701Y-28325019D01*
X27823701Y-28325019D02*
X27680844Y-28372638D01*
X27680844Y-28372638D02*
X27585606Y-28467876D01*
X27585606Y-28467876D02*
X27537987Y-28563114D01*
X27537987Y-28563114D02*
X27490368Y-28753590D01*
X27490368Y-28753590D02*
X27490368Y-28896447D01*
X27490368Y-28896447D02*
X27537987Y-29086923D01*
X27537987Y-29086923D02*
X27585606Y-29182161D01*
X27585606Y-29182161D02*
X27680844Y-29277400D01*
X27680844Y-29277400D02*
X27823701Y-29325019D01*
X27823701Y-29325019D02*
X28061796Y-29325019D01*
X68252306Y-47039438D02*
X68347544Y-46991819D01*
X68347544Y-46991819D02*
X68490401Y-46991819D01*
X68490401Y-46991819D02*
X68633258Y-47039438D01*
X68633258Y-47039438D02*
X68728496Y-47134676D01*
X68728496Y-47134676D02*
X68776115Y-47229914D01*
X68776115Y-47229914D02*
X68823734Y-47420390D01*
X68823734Y-47420390D02*
X68823734Y-47563247D01*
X68823734Y-47563247D02*
X68776115Y-47753723D01*
X68776115Y-47753723D02*
X68728496Y-47848961D01*
X68728496Y-47848961D02*
X68633258Y-47944200D01*
X68633258Y-47944200D02*
X68490401Y-47991819D01*
X68490401Y-47991819D02*
X68395163Y-47991819D01*
X68395163Y-47991819D02*
X68252306Y-47944200D01*
X68252306Y-47944200D02*
X68204687Y-47896580D01*
X68204687Y-47896580D02*
X68204687Y-47563247D01*
X68204687Y-47563247D02*
X68395163Y-47563247D01*
X67776115Y-47991819D02*
X67776115Y-46991819D01*
X67776115Y-46991819D02*
X67204687Y-47991819D01*
X67204687Y-47991819D02*
X67204687Y-46991819D01*
X66728496Y-47991819D02*
X66728496Y-46991819D01*
X66728496Y-46991819D02*
X66490401Y-46991819D01*
X66490401Y-46991819D02*
X66347544Y-47039438D01*
X66347544Y-47039438D02*
X66252306Y-47134676D01*
X66252306Y-47134676D02*
X66204687Y-47229914D01*
X66204687Y-47229914D02*
X66157068Y-47420390D01*
X66157068Y-47420390D02*
X66157068Y-47563247D01*
X66157068Y-47563247D02*
X66204687Y-47753723D01*
X66204687Y-47753723D02*
X66252306Y-47848961D01*
X66252306Y-47848961D02*
X66347544Y-47944200D01*
X66347544Y-47944200D02*
X66490401Y-47991819D01*
X66490401Y-47991819D02*
X66728496Y-47991819D01*
X10252306Y-47039438D02*
X10347544Y-46991819D01*
X10347544Y-46991819D02*
X10490401Y-46991819D01*
X10490401Y-46991819D02*
X10633258Y-47039438D01*
X10633258Y-47039438D02*
X10728496Y-47134676D01*
X10728496Y-47134676D02*
X10776115Y-47229914D01*
X10776115Y-47229914D02*
X10823734Y-47420390D01*
X10823734Y-47420390D02*
X10823734Y-47563247D01*
X10823734Y-47563247D02*
X10776115Y-47753723D01*
X10776115Y-47753723D02*
X10728496Y-47848961D01*
X10728496Y-47848961D02*
X10633258Y-47944200D01*
X10633258Y-47944200D02*
X10490401Y-47991819D01*
X10490401Y-47991819D02*
X10395163Y-47991819D01*
X10395163Y-47991819D02*
X10252306Y-47944200D01*
X10252306Y-47944200D02*
X10204687Y-47896580D01*
X10204687Y-47896580D02*
X10204687Y-47563247D01*
X10204687Y-47563247D02*
X10395163Y-47563247D01*
X9776115Y-47991819D02*
X9776115Y-46991819D01*
X9776115Y-46991819D02*
X9204687Y-47991819D01*
X9204687Y-47991819D02*
X9204687Y-46991819D01*
X8728496Y-47991819D02*
X8728496Y-46991819D01*
X8728496Y-46991819D02*
X8490401Y-46991819D01*
X8490401Y-46991819D02*
X8347544Y-47039438D01*
X8347544Y-47039438D02*
X8252306Y-47134676D01*
X8252306Y-47134676D02*
X8204687Y-47229914D01*
X8204687Y-47229914D02*
X8157068Y-47420390D01*
X8157068Y-47420390D02*
X8157068Y-47563247D01*
X8157068Y-47563247D02*
X8204687Y-47753723D01*
X8204687Y-47753723D02*
X8252306Y-47848961D01*
X8252306Y-47848961D02*
X8347544Y-47944200D01*
X8347544Y-47944200D02*
X8490401Y-47991819D01*
X8490401Y-47991819D02*
X8728496Y-47991819D01*
X10252306Y-28372638D02*
X10347544Y-28325019D01*
X10347544Y-28325019D02*
X10490401Y-28325019D01*
X10490401Y-28325019D02*
X10633258Y-28372638D01*
X10633258Y-28372638D02*
X10728496Y-28467876D01*
X10728496Y-28467876D02*
X10776115Y-28563114D01*
X10776115Y-28563114D02*
X10823734Y-28753590D01*
X10823734Y-28753590D02*
X10823734Y-28896447D01*
X10823734Y-28896447D02*
X10776115Y-29086923D01*
X10776115Y-29086923D02*
X10728496Y-29182161D01*
X10728496Y-29182161D02*
X10633258Y-29277400D01*
X10633258Y-29277400D02*
X10490401Y-29325019D01*
X10490401Y-29325019D02*
X10395163Y-29325019D01*
X10395163Y-29325019D02*
X10252306Y-29277400D01*
X10252306Y-29277400D02*
X10204687Y-29229780D01*
X10204687Y-29229780D02*
X10204687Y-28896447D01*
X10204687Y-28896447D02*
X10395163Y-28896447D01*
X9776115Y-29325019D02*
X9776115Y-28325019D01*
X9776115Y-28325019D02*
X9204687Y-29325019D01*
X9204687Y-29325019D02*
X9204687Y-28325019D01*
X8728496Y-29325019D02*
X8728496Y-28325019D01*
X8728496Y-28325019D02*
X8490401Y-28325019D01*
X8490401Y-28325019D02*
X8347544Y-28372638D01*
X8347544Y-28372638D02*
X8252306Y-28467876D01*
X8252306Y-28467876D02*
X8204687Y-28563114D01*
X8204687Y-28563114D02*
X8157068Y-28753590D01*
X8157068Y-28753590D02*
X8157068Y-28896447D01*
X8157068Y-28896447D02*
X8204687Y-29086923D01*
X8204687Y-29086923D02*
X8252306Y-29182161D01*
X8252306Y-29182161D02*
X8347544Y-29277400D01*
X8347544Y-29277400D02*
X8490401Y-29325019D01*
X8490401Y-29325019D02*
X8728496Y-29325019D01*
D13*
X24973333Y-77184260D02*
X24873333Y-77217593D01*
X24873333Y-77217593D02*
X24706667Y-77217593D01*
X24706667Y-77217593D02*
X24640000Y-77184260D01*
X24640000Y-77184260D02*
X24606667Y-77150926D01*
X24606667Y-77150926D02*
X24573333Y-77084260D01*
X24573333Y-77084260D02*
X24573333Y-77017593D01*
X24573333Y-77017593D02*
X24606667Y-76950926D01*
X24606667Y-76950926D02*
X24640000Y-76917593D01*
X24640000Y-76917593D02*
X24706667Y-76884260D01*
X24706667Y-76884260D02*
X24840000Y-76850926D01*
X24840000Y-76850926D02*
X24906667Y-76817593D01*
X24906667Y-76817593D02*
X24940000Y-76784260D01*
X24940000Y-76784260D02*
X24973333Y-76717593D01*
X24973333Y-76717593D02*
X24973333Y-76650926D01*
X24973333Y-76650926D02*
X24940000Y-76584260D01*
X24940000Y-76584260D02*
X24906667Y-76550926D01*
X24906667Y-76550926D02*
X24840000Y-76517593D01*
X24840000Y-76517593D02*
X24673333Y-76517593D01*
X24673333Y-76517593D02*
X24573333Y-76550926D01*
X24340000Y-76517593D02*
X24173333Y-77217593D01*
X24173333Y-77217593D02*
X24040000Y-76717593D01*
X24040000Y-76717593D02*
X23906666Y-77217593D01*
X23906666Y-77217593D02*
X23740000Y-76517593D01*
X23073333Y-77150926D02*
X23106666Y-77184260D01*
X23106666Y-77184260D02*
X23206666Y-77217593D01*
X23206666Y-77217593D02*
X23273333Y-77217593D01*
X23273333Y-77217593D02*
X23373333Y-77184260D01*
X23373333Y-77184260D02*
X23440000Y-77117593D01*
X23440000Y-77117593D02*
X23473333Y-77050926D01*
X23473333Y-77050926D02*
X23506666Y-76917593D01*
X23506666Y-76917593D02*
X23506666Y-76817593D01*
X23506666Y-76817593D02*
X23473333Y-76684260D01*
X23473333Y-76684260D02*
X23440000Y-76617593D01*
X23440000Y-76617593D02*
X23373333Y-76550926D01*
X23373333Y-76550926D02*
X23273333Y-76517593D01*
X23273333Y-76517593D02*
X23206666Y-76517593D01*
X23206666Y-76517593D02*
X23106666Y-76550926D01*
X23106666Y-76550926D02*
X23073333Y-76584260D01*
X22440000Y-77217593D02*
X22773333Y-77217593D01*
X22773333Y-77217593D02*
X22773333Y-76517593D01*
X22206666Y-77217593D02*
X22206666Y-76517593D01*
X21806666Y-77217593D02*
X22106666Y-76817593D01*
X21806666Y-76517593D02*
X22206666Y-76917593D01*
X27413332Y-77184260D02*
X27313332Y-77217593D01*
X27313332Y-77217593D02*
X27146666Y-77217593D01*
X27146666Y-77217593D02*
X27079999Y-77184260D01*
X27079999Y-77184260D02*
X27046666Y-77150926D01*
X27046666Y-77150926D02*
X27013332Y-77084260D01*
X27013332Y-77084260D02*
X27013332Y-77017593D01*
X27013332Y-77017593D02*
X27046666Y-76950926D01*
X27046666Y-76950926D02*
X27079999Y-76917593D01*
X27079999Y-76917593D02*
X27146666Y-76884260D01*
X27146666Y-76884260D02*
X27279999Y-76850926D01*
X27279999Y-76850926D02*
X27346666Y-76817593D01*
X27346666Y-76817593D02*
X27379999Y-76784260D01*
X27379999Y-76784260D02*
X27413332Y-76717593D01*
X27413332Y-76717593D02*
X27413332Y-76650926D01*
X27413332Y-76650926D02*
X27379999Y-76584260D01*
X27379999Y-76584260D02*
X27346666Y-76550926D01*
X27346666Y-76550926D02*
X27279999Y-76517593D01*
X27279999Y-76517593D02*
X27113332Y-76517593D01*
X27113332Y-76517593D02*
X27013332Y-76550926D01*
X26779999Y-76517593D02*
X26613332Y-77217593D01*
X26613332Y-77217593D02*
X26479999Y-76717593D01*
X26479999Y-76717593D02*
X26346665Y-77217593D01*
X26346665Y-77217593D02*
X26179999Y-76517593D01*
X25913332Y-77217593D02*
X25913332Y-76517593D01*
X25913332Y-76517593D02*
X25746665Y-76517593D01*
X25746665Y-76517593D02*
X25646665Y-76550926D01*
X25646665Y-76550926D02*
X25579999Y-76617593D01*
X25579999Y-76617593D02*
X25546665Y-76684260D01*
X25546665Y-76684260D02*
X25513332Y-76817593D01*
X25513332Y-76817593D02*
X25513332Y-76917593D01*
X25513332Y-76917593D02*
X25546665Y-77050926D01*
X25546665Y-77050926D02*
X25579999Y-77117593D01*
X25579999Y-77117593D02*
X25646665Y-77184260D01*
X25646665Y-77184260D02*
X25746665Y-77217593D01*
X25746665Y-77217593D02*
X25913332Y-77217593D01*
X25213332Y-77217593D02*
X25213332Y-76517593D01*
X24746666Y-76517593D02*
X24613332Y-76517593D01*
X24613332Y-76517593D02*
X24546666Y-76550926D01*
X24546666Y-76550926D02*
X24479999Y-76617593D01*
X24479999Y-76617593D02*
X24446666Y-76750926D01*
X24446666Y-76750926D02*
X24446666Y-76984260D01*
X24446666Y-76984260D02*
X24479999Y-77117593D01*
X24479999Y-77117593D02*
X24546666Y-77184260D01*
X24546666Y-77184260D02*
X24613332Y-77217593D01*
X24613332Y-77217593D02*
X24746666Y-77217593D01*
X24746666Y-77217593D02*
X24813332Y-77184260D01*
X24813332Y-77184260D02*
X24879999Y-77117593D01*
X24879999Y-77117593D02*
X24913332Y-76984260D01*
X24913332Y-76984260D02*
X24913332Y-76750926D01*
X24913332Y-76750926D02*
X24879999Y-76617593D01*
X24879999Y-76617593D02*
X24813332Y-76550926D01*
X24813332Y-76550926D02*
X24746666Y-76517593D01*
X29003332Y-76550926D02*
X29069999Y-76517593D01*
X29069999Y-76517593D02*
X29169999Y-76517593D01*
X29169999Y-76517593D02*
X29269999Y-76550926D01*
X29269999Y-76550926D02*
X29336666Y-76617593D01*
X29336666Y-76617593D02*
X29369999Y-76684260D01*
X29369999Y-76684260D02*
X29403332Y-76817593D01*
X29403332Y-76817593D02*
X29403332Y-76917593D01*
X29403332Y-76917593D02*
X29369999Y-77050926D01*
X29369999Y-77050926D02*
X29336666Y-77117593D01*
X29336666Y-77117593D02*
X29269999Y-77184260D01*
X29269999Y-77184260D02*
X29169999Y-77217593D01*
X29169999Y-77217593D02*
X29103332Y-77217593D01*
X29103332Y-77217593D02*
X29003332Y-77184260D01*
X29003332Y-77184260D02*
X28969999Y-77150926D01*
X28969999Y-77150926D02*
X28969999Y-76917593D01*
X28969999Y-76917593D02*
X29103332Y-76917593D01*
X28669999Y-77217593D02*
X28669999Y-76517593D01*
X28669999Y-76517593D02*
X28269999Y-77217593D01*
X28269999Y-77217593D02*
X28269999Y-76517593D01*
X27936666Y-77217593D02*
X27936666Y-76517593D01*
X27936666Y-76517593D02*
X27769999Y-76517593D01*
X27769999Y-76517593D02*
X27669999Y-76550926D01*
X27669999Y-76550926D02*
X27603333Y-76617593D01*
X27603333Y-76617593D02*
X27569999Y-76684260D01*
X27569999Y-76684260D02*
X27536666Y-76817593D01*
X27536666Y-76817593D02*
X27536666Y-76917593D01*
X27536666Y-76917593D02*
X27569999Y-77050926D01*
X27569999Y-77050926D02*
X27603333Y-77117593D01*
X27603333Y-77117593D02*
X27669999Y-77184260D01*
X27669999Y-77184260D02*
X27769999Y-77217593D01*
X27769999Y-77217593D02*
X27936666Y-77217593D01*
X31526666Y-77217593D02*
X31759999Y-76884260D01*
X31926666Y-77217593D02*
X31926666Y-76517593D01*
X31926666Y-76517593D02*
X31659999Y-76517593D01*
X31659999Y-76517593D02*
X31593333Y-76550926D01*
X31593333Y-76550926D02*
X31559999Y-76584260D01*
X31559999Y-76584260D02*
X31526666Y-76650926D01*
X31526666Y-76650926D02*
X31526666Y-76750926D01*
X31526666Y-76750926D02*
X31559999Y-76817593D01*
X31559999Y-76817593D02*
X31593333Y-76850926D01*
X31593333Y-76850926D02*
X31659999Y-76884260D01*
X31659999Y-76884260D02*
X31926666Y-76884260D01*
X31226666Y-76517593D02*
X31226666Y-77084260D01*
X31226666Y-77084260D02*
X31193333Y-77150926D01*
X31193333Y-77150926D02*
X31159999Y-77184260D01*
X31159999Y-77184260D02*
X31093333Y-77217593D01*
X31093333Y-77217593D02*
X30959999Y-77217593D01*
X30959999Y-77217593D02*
X30893333Y-77184260D01*
X30893333Y-77184260D02*
X30859999Y-77150926D01*
X30859999Y-77150926D02*
X30826666Y-77084260D01*
X30826666Y-77084260D02*
X30826666Y-76517593D01*
X30493333Y-77217593D02*
X30493333Y-76517593D01*
X30493333Y-76517593D02*
X30093333Y-77217593D01*
X30093333Y-77217593D02*
X30093333Y-76517593D01*
D12*
X10252306Y-65707038D02*
X10347544Y-65659419D01*
X10347544Y-65659419D02*
X10490401Y-65659419D01*
X10490401Y-65659419D02*
X10633258Y-65707038D01*
X10633258Y-65707038D02*
X10728496Y-65802276D01*
X10728496Y-65802276D02*
X10776115Y-65897514D01*
X10776115Y-65897514D02*
X10823734Y-66087990D01*
X10823734Y-66087990D02*
X10823734Y-66230847D01*
X10823734Y-66230847D02*
X10776115Y-66421323D01*
X10776115Y-66421323D02*
X10728496Y-66516561D01*
X10728496Y-66516561D02*
X10633258Y-66611800D01*
X10633258Y-66611800D02*
X10490401Y-66659419D01*
X10490401Y-66659419D02*
X10395163Y-66659419D01*
X10395163Y-66659419D02*
X10252306Y-66611800D01*
X10252306Y-66611800D02*
X10204687Y-66564180D01*
X10204687Y-66564180D02*
X10204687Y-66230847D01*
X10204687Y-66230847D02*
X10395163Y-66230847D01*
X9776115Y-66659419D02*
X9776115Y-65659419D01*
X9776115Y-65659419D02*
X9204687Y-66659419D01*
X9204687Y-66659419D02*
X9204687Y-65659419D01*
X8728496Y-66659419D02*
X8728496Y-65659419D01*
X8728496Y-65659419D02*
X8490401Y-65659419D01*
X8490401Y-65659419D02*
X8347544Y-65707038D01*
X8347544Y-65707038D02*
X8252306Y-65802276D01*
X8252306Y-65802276D02*
X8204687Y-65897514D01*
X8204687Y-65897514D02*
X8157068Y-66087990D01*
X8157068Y-66087990D02*
X8157068Y-66230847D01*
X8157068Y-66230847D02*
X8204687Y-66421323D01*
X8204687Y-66421323D02*
X8252306Y-66516561D01*
X8252306Y-66516561D02*
X8347544Y-66611800D01*
X8347544Y-66611800D02*
X8490401Y-66659419D01*
X8490401Y-66659419D02*
X8728496Y-66659419D01*
X68252306Y-28372638D02*
X68347544Y-28325019D01*
X68347544Y-28325019D02*
X68490401Y-28325019D01*
X68490401Y-28325019D02*
X68633258Y-28372638D01*
X68633258Y-28372638D02*
X68728496Y-28467876D01*
X68728496Y-28467876D02*
X68776115Y-28563114D01*
X68776115Y-28563114D02*
X68823734Y-28753590D01*
X68823734Y-28753590D02*
X68823734Y-28896447D01*
X68823734Y-28896447D02*
X68776115Y-29086923D01*
X68776115Y-29086923D02*
X68728496Y-29182161D01*
X68728496Y-29182161D02*
X68633258Y-29277400D01*
X68633258Y-29277400D02*
X68490401Y-29325019D01*
X68490401Y-29325019D02*
X68395163Y-29325019D01*
X68395163Y-29325019D02*
X68252306Y-29277400D01*
X68252306Y-29277400D02*
X68204687Y-29229780D01*
X68204687Y-29229780D02*
X68204687Y-28896447D01*
X68204687Y-28896447D02*
X68395163Y-28896447D01*
X67776115Y-29325019D02*
X67776115Y-28325019D01*
X67776115Y-28325019D02*
X67204687Y-29325019D01*
X67204687Y-29325019D02*
X67204687Y-28325019D01*
X66728496Y-29325019D02*
X66728496Y-28325019D01*
X66728496Y-28325019D02*
X66490401Y-28325019D01*
X66490401Y-28325019D02*
X66347544Y-28372638D01*
X66347544Y-28372638D02*
X66252306Y-28467876D01*
X66252306Y-28467876D02*
X66204687Y-28563114D01*
X66204687Y-28563114D02*
X66157068Y-28753590D01*
X66157068Y-28753590D02*
X66157068Y-28896447D01*
X66157068Y-28896447D02*
X66204687Y-29086923D01*
X66204687Y-29086923D02*
X66252306Y-29182161D01*
X66252306Y-29182161D02*
X66347544Y-29277400D01*
X66347544Y-29277400D02*
X66490401Y-29325019D01*
X66490401Y-29325019D02*
X66728496Y-29325019D01*
X48919006Y-28372638D02*
X49014244Y-28325019D01*
X49014244Y-28325019D02*
X49157101Y-28325019D01*
X49157101Y-28325019D02*
X49299958Y-28372638D01*
X49299958Y-28372638D02*
X49395196Y-28467876D01*
X49395196Y-28467876D02*
X49442815Y-28563114D01*
X49442815Y-28563114D02*
X49490434Y-28753590D01*
X49490434Y-28753590D02*
X49490434Y-28896447D01*
X49490434Y-28896447D02*
X49442815Y-29086923D01*
X49442815Y-29086923D02*
X49395196Y-29182161D01*
X49395196Y-29182161D02*
X49299958Y-29277400D01*
X49299958Y-29277400D02*
X49157101Y-29325019D01*
X49157101Y-29325019D02*
X49061863Y-29325019D01*
X49061863Y-29325019D02*
X48919006Y-29277400D01*
X48919006Y-29277400D02*
X48871387Y-29229780D01*
X48871387Y-29229780D02*
X48871387Y-28896447D01*
X48871387Y-28896447D02*
X49061863Y-28896447D01*
X48442815Y-29325019D02*
X48442815Y-28325019D01*
X48442815Y-28325019D02*
X47871387Y-29325019D01*
X47871387Y-29325019D02*
X47871387Y-28325019D01*
X47395196Y-29325019D02*
X47395196Y-28325019D01*
X47395196Y-28325019D02*
X47157101Y-28325019D01*
X47157101Y-28325019D02*
X47014244Y-28372638D01*
X47014244Y-28372638D02*
X46919006Y-28467876D01*
X46919006Y-28467876D02*
X46871387Y-28563114D01*
X46871387Y-28563114D02*
X46823768Y-28753590D01*
X46823768Y-28753590D02*
X46823768Y-28896447D01*
X46823768Y-28896447D02*
X46871387Y-29086923D01*
X46871387Y-29086923D02*
X46919006Y-29182161D01*
X46919006Y-29182161D02*
X47014244Y-29277400D01*
X47014244Y-29277400D02*
X47157101Y-29325019D01*
X47157101Y-29325019D02*
X47395196Y-29325019D01*
X29585606Y-9705038D02*
X29680844Y-9657419D01*
X29680844Y-9657419D02*
X29823701Y-9657419D01*
X29823701Y-9657419D02*
X29966558Y-9705038D01*
X29966558Y-9705038D02*
X30061796Y-9800276D01*
X30061796Y-9800276D02*
X30109415Y-9895514D01*
X30109415Y-9895514D02*
X30157034Y-10085990D01*
X30157034Y-10085990D02*
X30157034Y-10228847D01*
X30157034Y-10228847D02*
X30109415Y-10419323D01*
X30109415Y-10419323D02*
X30061796Y-10514561D01*
X30061796Y-10514561D02*
X29966558Y-10609800D01*
X29966558Y-10609800D02*
X29823701Y-10657419D01*
X29823701Y-10657419D02*
X29728463Y-10657419D01*
X29728463Y-10657419D02*
X29585606Y-10609800D01*
X29585606Y-10609800D02*
X29537987Y-10562180D01*
X29537987Y-10562180D02*
X29537987Y-10228847D01*
X29537987Y-10228847D02*
X29728463Y-10228847D01*
X29109415Y-10657419D02*
X29109415Y-9657419D01*
X29109415Y-9657419D02*
X28537987Y-10657419D01*
X28537987Y-10657419D02*
X28537987Y-9657419D01*
X28061796Y-10657419D02*
X28061796Y-9657419D01*
X28061796Y-9657419D02*
X27823701Y-9657419D01*
X27823701Y-9657419D02*
X27680844Y-9705038D01*
X27680844Y-9705038D02*
X27585606Y-9800276D01*
X27585606Y-9800276D02*
X27537987Y-9895514D01*
X27537987Y-9895514D02*
X27490368Y-10085990D01*
X27490368Y-10085990D02*
X27490368Y-10228847D01*
X27490368Y-10228847D02*
X27537987Y-10419323D01*
X27537987Y-10419323D02*
X27585606Y-10514561D01*
X27585606Y-10514561D02*
X27680844Y-10609800D01*
X27680844Y-10609800D02*
X27823701Y-10657419D01*
X27823701Y-10657419D02*
X28061796Y-10657419D01*
%TO.C,R10*%
D13*
X4977500Y-62237258D02*
X4977500Y-61762742D01*
X6022500Y-62237258D02*
X6022500Y-61762742D01*
%TO.C,D2*%
D14*
X52816700Y-9840000D02*
X52816700Y-9500000D01*
X52816700Y-11290000D02*
X52816700Y-11110000D01*
X52816700Y-12800000D02*
X52816700Y-12560000D01*
X52816700Y-12800000D02*
X56516700Y-12800000D01*
X56516700Y-9500000D02*
X52816700Y-9500000D01*
X56516700Y-9840000D02*
X56516700Y-9500000D01*
X56516700Y-11290000D02*
X56516700Y-11110000D01*
X56516700Y-12800000D02*
X56516700Y-12560000D01*
D15*
X51756700Y-9800000D02*
G75*
G02*
X51696700Y-9800000I-30000J0D01*
G01*
X51696700Y-9800000D02*
G75*
G02*
X51756700Y-9800000I30000J0D01*
G01*
D16*
G36*
X52253878Y-9929975D02*
G01*
X52253878Y-9422025D01*
X52761802Y-9422025D01*
X52253878Y-9929975D01*
G37*
%TO.C,U3*%
D10*
X11430000Y-83170000D02*
X11430000Y-89830000D01*
X11430000Y-89830000D02*
X14370000Y-89830000D01*
X14370000Y-83170000D02*
X11430000Y-83170000D01*
X14370000Y-89830000D02*
X14370000Y-83170000D01*
D15*
X16430000Y-83250000D02*
G75*
G02*
X16370000Y-83250000I-30000J0D01*
G01*
X16370000Y-83250000D02*
G75*
G02*
X16430000Y-83250000I30000J0D01*
G01*
%TO.C,D12*%
D14*
X52816700Y-47174400D02*
X52816700Y-46834400D01*
X52816700Y-48624400D02*
X52816700Y-48444400D01*
X52816700Y-50134400D02*
X52816700Y-49894400D01*
X52816700Y-50134400D02*
X56516700Y-50134400D01*
X56516700Y-46834400D02*
X52816700Y-46834400D01*
X56516700Y-47174400D02*
X56516700Y-46834400D01*
X56516700Y-48624400D02*
X56516700Y-48444400D01*
X56516700Y-50134400D02*
X56516700Y-49894400D01*
D15*
X51756700Y-47134400D02*
G75*
G02*
X51696700Y-47134400I-30000J0D01*
G01*
X51696700Y-47134400D02*
G75*
G02*
X51756700Y-47134400I30000J0D01*
G01*
D16*
G36*
X52253878Y-47264375D02*
G01*
X52253878Y-46756425D01*
X52761802Y-46756425D01*
X52253878Y-47264375D01*
G37*
%TO.C,D14*%
D14*
X43150000Y-65842000D02*
X43150000Y-65502000D01*
X43150000Y-67292000D02*
X43150000Y-67112000D01*
X43150000Y-68802000D02*
X43150000Y-68562000D01*
X43150000Y-68802000D02*
X46850000Y-68802000D01*
X46850000Y-65502000D02*
X43150000Y-65502000D01*
X46850000Y-65842000D02*
X46850000Y-65502000D01*
X46850000Y-67292000D02*
X46850000Y-67112000D01*
X46850000Y-68802000D02*
X46850000Y-68562000D01*
D15*
X42090000Y-65802000D02*
G75*
G02*
X42030000Y-65802000I-30000J0D01*
G01*
X42030000Y-65802000D02*
G75*
G02*
X42090000Y-65802000I30000J0D01*
G01*
D16*
G36*
X42587178Y-65931975D02*
G01*
X42587178Y-65424025D01*
X43095102Y-65424025D01*
X42587178Y-65931975D01*
G37*
%TO.C,U1*%
D14*
X41500000Y-80500000D02*
X41500000Y-81070000D01*
X41500000Y-80500000D02*
X41500000Y-81070000D01*
X41500000Y-86930000D02*
X41500000Y-87500000D01*
X41500000Y-86930000D02*
X41500000Y-87500000D01*
X41500000Y-86930000D02*
X42070000Y-87500000D01*
X41500000Y-86930000D02*
X42070000Y-87500000D01*
X41500000Y-87500000D02*
X42070000Y-87500000D01*
X41500000Y-87500000D02*
X42070000Y-87500000D01*
X41600000Y-80500000D02*
X41500000Y-80500000D01*
X41600000Y-80500000D02*
X41500000Y-80500000D01*
X41760000Y-87400000D02*
X41500000Y-87140000D01*
X41760000Y-87400000D02*
X41500000Y-87140000D01*
X41760000Y-87500000D02*
X41760000Y-87400000D01*
X41760000Y-87500000D02*
X41760000Y-87400000D01*
X42070000Y-80500000D02*
X41600000Y-80500000D01*
X42070000Y-80500000D02*
X41600000Y-80500000D01*
X47930000Y-87500000D02*
X48500000Y-87500000D01*
X47930000Y-87500000D02*
X48500000Y-87500000D01*
X48500000Y-80500000D02*
X47930000Y-80500000D01*
X48500000Y-80500000D02*
X47930000Y-80500000D01*
X48500000Y-81070000D02*
X48500000Y-80500000D01*
X48500000Y-81070000D02*
X48500000Y-80500000D01*
X48500000Y-87500000D02*
X48500000Y-86930000D01*
X48500000Y-87500000D02*
X48500000Y-86930000D01*
X41130000Y-87700000D02*
G75*
G02*
X40870000Y-87700000I-130000J0D01*
G01*
X40870000Y-87700000D02*
G75*
G02*
X41130000Y-87700000I130000J0D01*
G01*
X41130000Y-87700000D02*
G75*
G02*
X40870000Y-87700000I-130000J0D01*
G01*
X40870000Y-87700000D02*
G75*
G02*
X41130000Y-87700000I130000J0D01*
G01*
D15*
X41530000Y-87500000D02*
G75*
G02*
X41470000Y-87500000I-30000J0D01*
G01*
X41470000Y-87500000D02*
G75*
G02*
X41530000Y-87500000I30000J0D01*
G01*
%TO.C,C9*%
D13*
X36859420Y-87890000D02*
X37140580Y-87890000D01*
X36859420Y-88910000D02*
X37140580Y-88910000D01*
%TO.C,SW10*%
D14*
X66700000Y-54684400D02*
X66700000Y-54684400D01*
X66700000Y-54684400D02*
X70700000Y-54684400D01*
X66700000Y-55734400D02*
X66700000Y-54684400D01*
X66700000Y-58684400D02*
X66700000Y-58334400D01*
X70250000Y-59334400D02*
X67350000Y-59334400D01*
X71500000Y-55484400D02*
X71500000Y-55684400D01*
X71500000Y-60784400D02*
X71500000Y-60584400D01*
X72300000Y-61584400D02*
X71500000Y-60784400D01*
X72750000Y-56934400D02*
X75650000Y-56934400D01*
X75450000Y-61584400D02*
X72300000Y-61584400D01*
X75650000Y-56934400D02*
X75650000Y-56934400D01*
X76300000Y-57584400D02*
X75650000Y-56934400D01*
X76300000Y-57584400D02*
X76300000Y-57934400D01*
X76300000Y-60534400D02*
X76300000Y-60734400D01*
X76300000Y-60734400D02*
X75450000Y-61584400D01*
X67350000Y-59334400D02*
G75*
G02*
X66700000Y-58684400I1J650001D01*
G01*
X70250000Y-59334400D02*
G75*
G02*
X71500000Y-60584400I-2J-1250002D01*
G01*
X70695515Y-54683958D02*
G75*
G02*
X71500000Y-55484400I-85515J-890442D01*
G01*
X72750000Y-56934400D02*
G75*
G02*
X71500000Y-55684400I0J1250000D01*
G01*
D15*
X64950000Y-54714400D02*
G75*
G02*
X64890000Y-54714400I-30000J0D01*
G01*
X64890000Y-54714400D02*
G75*
G02*
X64950000Y-54714400I30000J0D01*
G01*
%TO.C,D15*%
D14*
X72150000Y-65842000D02*
X72150000Y-65502000D01*
X72150000Y-67292000D02*
X72150000Y-67112000D01*
X72150000Y-68802000D02*
X72150000Y-68562000D01*
X72150000Y-68802000D02*
X75850000Y-68802000D01*
X75850000Y-65502000D02*
X72150000Y-65502000D01*
X75850000Y-65842000D02*
X75850000Y-65502000D01*
X75850000Y-67292000D02*
X75850000Y-67112000D01*
X75850000Y-68802000D02*
X75850000Y-68562000D01*
D15*
X71090000Y-65802000D02*
G75*
G02*
X71030000Y-65802000I-30000J0D01*
G01*
X71030000Y-65802000D02*
G75*
G02*
X71090000Y-65802000I30000J0D01*
G01*
D16*
G36*
X71587178Y-65931975D02*
G01*
X71587178Y-65424025D01*
X72095102Y-65424025D01*
X71587178Y-65931975D01*
G37*
%TO.C,C1*%
D13*
X23990000Y-84140580D02*
X23990000Y-83859420D01*
X25010000Y-84140580D02*
X25010000Y-83859420D01*
%TO.C,C12*%
X52859420Y-87890000D02*
X53140580Y-87890000D01*
X52859420Y-88910000D02*
X53140580Y-88910000D01*
%TO.C,C7*%
X52359420Y-76990000D02*
X52640580Y-76990000D01*
X52359420Y-78010000D02*
X52640580Y-78010000D01*
%TO.C,C31*%
X79397400Y-76061780D02*
X79397400Y-75780620D01*
X80417400Y-76061780D02*
X80417400Y-75780620D01*
%TO.C,C29*%
X80471500Y-58453480D02*
X80471500Y-58172320D01*
X81491500Y-58453480D02*
X81491500Y-58172320D01*
%TO.C,Y1*%
D10*
X26740000Y-82090000D02*
X28600000Y-82090000D01*
X26740000Y-83750000D02*
X26740000Y-82090000D01*
X26970000Y-82320000D02*
X26970000Y-85680000D01*
X26970000Y-85680000D02*
X31030000Y-85680000D01*
X31030000Y-82320000D02*
X26970000Y-82320000D01*
X31030000Y-85680000D02*
X31030000Y-82320000D01*
D15*
X27430000Y-82750000D02*
G75*
G02*
X27370000Y-82750000I-30000J0D01*
G01*
X27370000Y-82750000D02*
G75*
G02*
X27430000Y-82750000I30000J0D01*
G01*
%TO.C,R12*%
D13*
X4977500Y-71237258D02*
X4977500Y-70762742D01*
X6022500Y-71237258D02*
X6022500Y-70762742D01*
%TO.C,D11*%
D14*
X33483300Y-47174400D02*
X33483300Y-46834400D01*
X33483300Y-48624400D02*
X33483300Y-48444400D01*
X33483300Y-50134400D02*
X33483300Y-49894400D01*
X33483300Y-50134400D02*
X37183300Y-50134400D01*
X37183300Y-46834400D02*
X33483300Y-46834400D01*
X37183300Y-47174400D02*
X37183300Y-46834400D01*
X37183300Y-48624400D02*
X37183300Y-48444400D01*
X37183300Y-50134400D02*
X37183300Y-49894400D01*
D15*
X32423300Y-47134400D02*
G75*
G02*
X32363300Y-47134400I-30000J0D01*
G01*
X32363300Y-47134400D02*
G75*
G02*
X32423300Y-47134400I30000J0D01*
G01*
D16*
G36*
X32920478Y-47264375D02*
G01*
X32920478Y-46756425D01*
X33428402Y-46756425D01*
X32920478Y-47264375D01*
G37*
%TO.C,C8*%
D13*
X55859420Y-76490000D02*
X56140580Y-76490000D01*
X55859420Y-77510000D02*
X56140580Y-77510000D01*
%TO.C,D4*%
D14*
X33483300Y-28507600D02*
X33483300Y-28167600D01*
X33483300Y-29957600D02*
X33483300Y-29777600D01*
X33483300Y-31467600D02*
X33483300Y-31227600D01*
X33483300Y-31467600D02*
X37183300Y-31467600D01*
X37183300Y-28167600D02*
X33483300Y-28167600D01*
X37183300Y-28507600D02*
X37183300Y-28167600D01*
X37183300Y-29957600D02*
X37183300Y-29777600D01*
X37183300Y-31467600D02*
X37183300Y-31227600D01*
D15*
X32423300Y-28467600D02*
G75*
G02*
X32363300Y-28467600I-30000J0D01*
G01*
X32363300Y-28467600D02*
G75*
G02*
X32423300Y-28467600I30000J0D01*
G01*
D16*
G36*
X32920478Y-28597575D02*
G01*
X32920478Y-28089625D01*
X33428402Y-28089625D01*
X32920478Y-28597575D01*
G37*
%TO.C,D13*%
D14*
X72150000Y-47174400D02*
X72150000Y-46834400D01*
X72150000Y-48624400D02*
X72150000Y-48444400D01*
X72150000Y-50134400D02*
X72150000Y-49894400D01*
X72150000Y-50134400D02*
X75850000Y-50134400D01*
X75850000Y-46834400D02*
X72150000Y-46834400D01*
X75850000Y-47174400D02*
X75850000Y-46834400D01*
X75850000Y-48624400D02*
X75850000Y-48444400D01*
X75850000Y-50134400D02*
X75850000Y-49894400D01*
D15*
X71090000Y-47134400D02*
G75*
G02*
X71030000Y-47134400I-30000J0D01*
G01*
X71030000Y-47134400D02*
G75*
G02*
X71090000Y-47134400I30000J0D01*
G01*
D16*
G36*
X71587178Y-47264375D02*
G01*
X71587178Y-46756425D01*
X72095102Y-46756425D01*
X71587178Y-47264375D01*
G37*
%TO.C,C22*%
D13*
X41804800Y-40845980D02*
X41804800Y-40564820D01*
X42824800Y-40845980D02*
X42824800Y-40564820D01*
%TO.C,R7*%
X74262742Y-87977500D02*
X74737258Y-87977500D01*
X74262742Y-89022500D02*
X74737258Y-89022500D01*
%TO.C,SW4*%
D14*
X28033300Y-36017600D02*
X28033300Y-36017600D01*
X28033300Y-36017600D02*
X32033300Y-36017600D01*
X28033300Y-37067600D02*
X28033300Y-36017600D01*
X28033300Y-40017600D02*
X28033300Y-39667600D01*
X31583300Y-40667600D02*
X28683300Y-40667600D01*
X32833300Y-36817600D02*
X32833300Y-37017600D01*
X32833300Y-42117600D02*
X32833300Y-41917600D01*
X33633300Y-42917600D02*
X32833300Y-42117600D01*
X34083300Y-38267600D02*
X36983300Y-38267600D01*
X36783300Y-42917600D02*
X33633300Y-42917600D01*
X36983300Y-38267600D02*
X36983300Y-38267600D01*
X37633300Y-38917600D02*
X36983300Y-38267600D01*
X37633300Y-38917600D02*
X37633300Y-39267600D01*
X37633300Y-41867600D02*
X37633300Y-42067600D01*
X37633300Y-42067600D02*
X36783300Y-42917600D01*
X28683300Y-40667600D02*
G75*
G02*
X28033300Y-40017600I1J650001D01*
G01*
X31583300Y-40667600D02*
G75*
G02*
X32833300Y-41917600I-2J-1250002D01*
G01*
X32028815Y-36017158D02*
G75*
G02*
X32833300Y-36817600I-85515J-890442D01*
G01*
X34083300Y-38267600D02*
G75*
G02*
X32833300Y-37017600I0J1250000D01*
G01*
D15*
X26283300Y-36047600D02*
G75*
G02*
X26223300Y-36047600I-30000J0D01*
G01*
X26223300Y-36047600D02*
G75*
G02*
X26283300Y-36047600I30000J0D01*
G01*
%TO.C,U6*%
D10*
X55460000Y-7110000D02*
X55460000Y-8890000D01*
X58540000Y-7110000D02*
X58540000Y-8890000D01*
D17*
X55480000Y-6700000D02*
G75*
G02*
X55180000Y-6700000I-150000J0D01*
G01*
X55180000Y-6700000D02*
G75*
G02*
X55480000Y-6700000I150000J0D01*
G01*
D15*
X55570000Y-6600000D02*
G75*
G02*
X55510000Y-6600000I-30000J0D01*
G01*
X55510000Y-6600000D02*
G75*
G02*
X55570000Y-6600000I30000J0D01*
G01*
%TO.C,SW8*%
D14*
X28033300Y-54684400D02*
X28033300Y-54684400D01*
X28033300Y-54684400D02*
X32033300Y-54684400D01*
X28033300Y-55734400D02*
X28033300Y-54684400D01*
X28033300Y-58684400D02*
X28033300Y-58334400D01*
X31583300Y-59334400D02*
X28683300Y-59334400D01*
X32833300Y-55484400D02*
X32833300Y-55684400D01*
X32833300Y-60784400D02*
X32833300Y-60584400D01*
X33633300Y-61584400D02*
X32833300Y-60784400D01*
X34083300Y-56934400D02*
X36983300Y-56934400D01*
X36783300Y-61584400D02*
X33633300Y-61584400D01*
X36983300Y-56934400D02*
X36983300Y-56934400D01*
X37633300Y-57584400D02*
X36983300Y-56934400D01*
X37633300Y-57584400D02*
X37633300Y-57934400D01*
X37633300Y-60534400D02*
X37633300Y-60734400D01*
X37633300Y-60734400D02*
X36783300Y-61584400D01*
X28683300Y-59334400D02*
G75*
G02*
X28033300Y-58684400I1J650001D01*
G01*
X31583300Y-59334400D02*
G75*
G02*
X32833300Y-60584400I-2J-1250002D01*
G01*
X32028815Y-54683958D02*
G75*
G02*
X32833300Y-55484400I-85515J-890442D01*
G01*
X34083300Y-56934400D02*
G75*
G02*
X32833300Y-55684400I0J1250000D01*
G01*
D15*
X26283300Y-54714400D02*
G75*
G02*
X26223300Y-54714400I-30000J0D01*
G01*
X26223300Y-54714400D02*
G75*
G02*
X26283300Y-54714400I30000J0D01*
G01*
%TO.C,C25*%
D13*
X14415900Y-5548080D02*
X14415900Y-5266920D01*
X15435900Y-5548080D02*
X15435900Y-5266920D01*
%TO.C,C11*%
X55990000Y-87640580D02*
X55990000Y-87359420D01*
X57010000Y-87640580D02*
X57010000Y-87359420D01*
%TO.C,SW9*%
D14*
X47366700Y-54684400D02*
X47366700Y-54684400D01*
X47366700Y-54684400D02*
X51366700Y-54684400D01*
X47366700Y-55734400D02*
X47366700Y-54684400D01*
X47366700Y-58684400D02*
X47366700Y-58334400D01*
X50916700Y-59334400D02*
X48016700Y-59334400D01*
X52166700Y-55484400D02*
X52166700Y-55684400D01*
X52166700Y-60784400D02*
X52166700Y-60584400D01*
X52966700Y-61584400D02*
X52166700Y-60784400D01*
X53416700Y-56934400D02*
X56316700Y-56934400D01*
X56116700Y-61584400D02*
X52966700Y-61584400D01*
X56316700Y-56934400D02*
X56316700Y-56934400D01*
X56966700Y-57584400D02*
X56316700Y-56934400D01*
X56966700Y-57584400D02*
X56966700Y-57934400D01*
X56966700Y-60534400D02*
X56966700Y-60734400D01*
X56966700Y-60734400D02*
X56116700Y-61584400D01*
X48016700Y-59334400D02*
G75*
G02*
X47366700Y-58684400I1J650001D01*
G01*
X50916700Y-59334400D02*
G75*
G02*
X52166700Y-60584400I-2J-1250002D01*
G01*
X51362215Y-54683958D02*
G75*
G02*
X52166700Y-55484400I-85515J-890442D01*
G01*
X53416700Y-56934400D02*
G75*
G02*
X52166700Y-55684400I0J1250000D01*
G01*
D15*
X45616700Y-54714400D02*
G75*
G02*
X45556700Y-54714400I-30000J0D01*
G01*
X45556700Y-54714400D02*
G75*
G02*
X45616700Y-54714400I30000J0D01*
G01*
%TO.C,C17*%
D13*
X18990000Y-82640580D02*
X18990000Y-82359420D01*
X20010000Y-82640580D02*
X20010000Y-82359420D01*
%TO.C,U2*%
D10*
X63360000Y-81820000D02*
X63360000Y-86180000D01*
X63360000Y-86180000D02*
X68640000Y-86180000D01*
X68640000Y-81820000D02*
X63360000Y-81820000D01*
X68640000Y-86180000D02*
X68640000Y-81820000D01*
D17*
X63480000Y-80470000D02*
G75*
G02*
X63180000Y-80470000I-150000J0D01*
G01*
X63180000Y-80470000D02*
G75*
G02*
X63480000Y-80470000I150000J0D01*
G01*
D15*
X63440000Y-80080000D02*
G75*
G02*
X63380000Y-80080000I-30000J0D01*
G01*
X63380000Y-80080000D02*
G75*
G02*
X63440000Y-80080000I30000J0D01*
G01*
D17*
X64250000Y-82580000D02*
G75*
G02*
X63950000Y-82580000I-150000J0D01*
G01*
X63950000Y-82580000D02*
G75*
G02*
X64250000Y-82580000I150000J0D01*
G01*
%TO.C,R2*%
D13*
X28477500Y-5237258D02*
X28477500Y-4762742D01*
X29522500Y-5237258D02*
X29522500Y-4762742D01*
%TO.C,SW2*%
D14*
X47366700Y-17350000D02*
X47366700Y-17350000D01*
X47366700Y-17350000D02*
X51366700Y-17350000D01*
X47366700Y-18400000D02*
X47366700Y-17350000D01*
X47366700Y-21350000D02*
X47366700Y-21000000D01*
X50916700Y-22000000D02*
X48016700Y-22000000D01*
X52166700Y-18150000D02*
X52166700Y-18350000D01*
X52166700Y-23450000D02*
X52166700Y-23250000D01*
X52966700Y-24250000D02*
X52166700Y-23450000D01*
X53416700Y-19600000D02*
X56316700Y-19600000D01*
X56116700Y-24250000D02*
X52966700Y-24250000D01*
X56316700Y-19600000D02*
X56316700Y-19600000D01*
X56966700Y-20250000D02*
X56316700Y-19600000D01*
X56966700Y-20250000D02*
X56966700Y-20600000D01*
X56966700Y-23200000D02*
X56966700Y-23400000D01*
X56966700Y-23400000D02*
X56116700Y-24250000D01*
X48016700Y-22000000D02*
G75*
G02*
X47366700Y-21350000I1J650001D01*
G01*
X50916700Y-22000000D02*
G75*
G02*
X52166700Y-23250000I-2J-1250002D01*
G01*
X51362215Y-17349558D02*
G75*
G02*
X52166700Y-18150000I-85515J-890442D01*
G01*
X53416700Y-19600000D02*
G75*
G02*
X52166700Y-18350000I0J1250000D01*
G01*
D15*
X45616700Y-17380000D02*
G75*
G02*
X45556700Y-17380000I-30000J0D01*
G01*
X45556700Y-17380000D02*
G75*
G02*
X45616700Y-17380000I30000J0D01*
G01*
%TO.C,R8*%
D13*
X32762742Y-87877500D02*
X33237258Y-87877500D01*
X32762742Y-88922500D02*
X33237258Y-88922500D01*
%TO.C,C27*%
X41804800Y-58453480D02*
X41804800Y-58172320D01*
X42824800Y-58453480D02*
X42824800Y-58172320D01*
%TO.C,D10*%
D14*
X14150000Y-47174400D02*
X14150000Y-46834400D01*
X14150000Y-48624400D02*
X14150000Y-48444400D01*
X14150000Y-50134400D02*
X14150000Y-49894400D01*
X14150000Y-50134400D02*
X17850000Y-50134400D01*
X17850000Y-46834400D02*
X14150000Y-46834400D01*
X17850000Y-47174400D02*
X17850000Y-46834400D01*
X17850000Y-48624400D02*
X17850000Y-48444400D01*
X17850000Y-50134400D02*
X17850000Y-49894400D01*
D15*
X13090000Y-47134400D02*
G75*
G02*
X13030000Y-47134400I-30000J0D01*
G01*
X13030000Y-47134400D02*
G75*
G02*
X13090000Y-47134400I30000J0D01*
G01*
D16*
G36*
X13587178Y-47264375D02*
G01*
X13587178Y-46756425D01*
X14095102Y-46756425D01*
X13587178Y-47264375D01*
G37*
%TO.C,R6*%
D13*
X69762742Y-87977500D02*
X70237258Y-87977500D01*
X69762742Y-89022500D02*
X70237258Y-89022500D01*
%TO.C,R1*%
X31477500Y-5237258D02*
X31477500Y-4762742D01*
X32522500Y-5237258D02*
X32522500Y-4762742D01*
%TO.C,C30*%
X32490000Y-74640580D02*
X32490000Y-74359420D01*
X33510000Y-74640580D02*
X33510000Y-74359420D01*
%TO.C,C5*%
X33859420Y-76490000D02*
X34140580Y-76490000D01*
X33859420Y-77510000D02*
X34140580Y-77510000D01*
%TO.C,C13*%
X52359420Y-80290000D02*
X52640580Y-80290000D01*
X52359420Y-81310000D02*
X52640580Y-81310000D01*
%TO.C,C6*%
X29859420Y-70990000D02*
X30140580Y-70990000D01*
X29859420Y-72010000D02*
X30140580Y-72010000D01*
%TO.C,C20*%
X61138100Y-23237680D02*
X61138100Y-22956520D01*
X62158100Y-23237680D02*
X62158100Y-22956520D01*
%TO.C,C19*%
X41804800Y-23237680D02*
X41804800Y-22956520D01*
X42824800Y-23237680D02*
X42824800Y-22956520D01*
%TO.C,C26*%
X22471500Y-58453480D02*
X22471500Y-58172320D01*
X23491500Y-58453480D02*
X23491500Y-58172320D01*
%TO.C,SW7*%
D14*
X8700000Y-54684400D02*
X8700000Y-54684400D01*
X8700000Y-54684400D02*
X12700000Y-54684400D01*
X8700000Y-55734400D02*
X8700000Y-54684400D01*
X8700000Y-58684400D02*
X8700000Y-58334400D01*
X12250000Y-59334400D02*
X9350000Y-59334400D01*
X13500000Y-55484400D02*
X13500000Y-55684400D01*
X13500000Y-60784400D02*
X13500000Y-60584400D01*
X14300000Y-61584400D02*
X13500000Y-60784400D01*
X14750000Y-56934400D02*
X17650000Y-56934400D01*
X17450000Y-61584400D02*
X14300000Y-61584400D01*
X17650000Y-56934400D02*
X17650000Y-56934400D01*
X18300000Y-57584400D02*
X17650000Y-56934400D01*
X18300000Y-57584400D02*
X18300000Y-57934400D01*
X18300000Y-60534400D02*
X18300000Y-60734400D01*
X18300000Y-60734400D02*
X17450000Y-61584400D01*
X9350000Y-59334400D02*
G75*
G02*
X8700000Y-58684400I1J650001D01*
G01*
X12250000Y-59334400D02*
G75*
G02*
X13500000Y-60584400I-2J-1250002D01*
G01*
X12695515Y-54683958D02*
G75*
G02*
X13500000Y-55484400I-85515J-890442D01*
G01*
X14750000Y-56934400D02*
G75*
G02*
X13500000Y-55684400I0J1250000D01*
G01*
D15*
X6950000Y-54714400D02*
G75*
G02*
X6890000Y-54714400I-30000J0D01*
G01*
X6890000Y-54714400D02*
G75*
G02*
X6950000Y-54714400I30000J0D01*
G01*
%TO.C,C10*%
D13*
X35990000Y-87640580D02*
X35990000Y-87359420D01*
X37010000Y-87640580D02*
X37010000Y-87359420D01*
%TO.C,C23*%
X61138100Y-40845980D02*
X61138100Y-40564820D01*
X62158100Y-40845980D02*
X62158100Y-40564820D01*
%TO.C,C3*%
X3990000Y-80140580D02*
X3990000Y-79859420D01*
X5010000Y-80140580D02*
X5010000Y-79859420D01*
%TO.C,C21*%
X22471500Y-40845980D02*
X22471500Y-40564820D01*
X23491500Y-40845980D02*
X23491500Y-40564820D01*
%TO.C,D3*%
D14*
X14150000Y-28507600D02*
X14150000Y-28167600D01*
X14150000Y-29957600D02*
X14150000Y-29777600D01*
X14150000Y-31467600D02*
X14150000Y-31227600D01*
X14150000Y-31467600D02*
X17850000Y-31467600D01*
X17850000Y-28167600D02*
X14150000Y-28167600D01*
X17850000Y-28507600D02*
X17850000Y-28167600D01*
X17850000Y-29957600D02*
X17850000Y-29777600D01*
X17850000Y-31467600D02*
X17850000Y-31227600D01*
D15*
X13090000Y-28467600D02*
G75*
G02*
X13030000Y-28467600I-30000J0D01*
G01*
X13030000Y-28467600D02*
G75*
G02*
X13090000Y-28467600I30000J0D01*
G01*
D16*
G36*
X13587178Y-28597575D02*
G01*
X13587178Y-28089625D01*
X14095102Y-28089625D01*
X13587178Y-28597575D01*
G37*
%TO.C,J1*%
D14*
X40530000Y-275000D02*
X40530000Y-1755000D01*
X40530000Y-3985000D02*
X40530000Y-5855000D01*
X49470000Y-275000D02*
X40530000Y-275000D01*
X49470000Y-275000D02*
X49470000Y-1755000D01*
X49470000Y-3985000D02*
X49470000Y-5855000D01*
D15*
X49510000Y-8125000D02*
G75*
G02*
X49450000Y-8125000I-30000J0D01*
G01*
X49450000Y-8125000D02*
G75*
G02*
X49510000Y-8125000I30000J0D01*
G01*
%TO.C,R11*%
D13*
X4977500Y-66737258D02*
X4977500Y-66262742D01*
X6022500Y-66737258D02*
X6022500Y-66262742D01*
%TO.C,R4*%
X65477500Y-5237258D02*
X65477500Y-4762742D01*
X66522500Y-5237258D02*
X66522500Y-4762742D01*
%TO.C,D16*%
D14*
X14150000Y-65842000D02*
X14150000Y-65502000D01*
X14150000Y-67292000D02*
X14150000Y-67112000D01*
X14150000Y-68802000D02*
X14150000Y-68562000D01*
X14150000Y-68802000D02*
X17850000Y-68802000D01*
X17850000Y-65502000D02*
X14150000Y-65502000D01*
X17850000Y-65842000D02*
X17850000Y-65502000D01*
X17850000Y-67292000D02*
X17850000Y-67112000D01*
X17850000Y-68802000D02*
X17850000Y-68562000D01*
D15*
X13090000Y-65802000D02*
G75*
G02*
X13030000Y-65802000I-30000J0D01*
G01*
X13030000Y-65802000D02*
G75*
G02*
X13090000Y-65802000I30000J0D01*
G01*
D16*
G36*
X13587178Y-65931975D02*
G01*
X13587178Y-65424025D01*
X14095102Y-65424025D01*
X13587178Y-65931975D01*
G37*
%TO.C,R5*%
D13*
X27762742Y-79977500D02*
X28237258Y-79977500D01*
X27762742Y-81022500D02*
X28237258Y-81022500D01*
%TO.C,R3*%
X62477500Y-5237258D02*
X62477500Y-4762742D01*
X63522500Y-5237258D02*
X63522500Y-4762742D01*
%TO.C,D6*%
D14*
X72150000Y-28507600D02*
X72150000Y-28167600D01*
X72150000Y-29957600D02*
X72150000Y-29777600D01*
X72150000Y-31467600D02*
X72150000Y-31227600D01*
X72150000Y-31467600D02*
X75850000Y-31467600D01*
X75850000Y-28167600D02*
X72150000Y-28167600D01*
X75850000Y-28507600D02*
X75850000Y-28167600D01*
X75850000Y-29957600D02*
X75850000Y-29777600D01*
X75850000Y-31467600D02*
X75850000Y-31227600D01*
D15*
X71090000Y-28467600D02*
G75*
G02*
X71030000Y-28467600I-30000J0D01*
G01*
X71030000Y-28467600D02*
G75*
G02*
X71090000Y-28467600I30000J0D01*
G01*
D16*
G36*
X71587178Y-28597575D02*
G01*
X71587178Y-28089625D01*
X72095102Y-28089625D01*
X71587178Y-28597575D01*
G37*
%TO.C,R9*%
D13*
X25262742Y-7477500D02*
X25737258Y-7477500D01*
X25262742Y-8522500D02*
X25737258Y-8522500D01*
%TO.C,C28*%
X61138100Y-58453480D02*
X61138100Y-58172320D01*
X62158100Y-58453480D02*
X62158100Y-58172320D01*
%TO.C,C15*%
X60359420Y-80290000D02*
X60640580Y-80290000D01*
X60359420Y-81310000D02*
X60640580Y-81310000D01*
%TO.C,D5*%
D14*
X52816700Y-28507600D02*
X52816700Y-28167600D01*
X52816700Y-29957600D02*
X52816700Y-29777600D01*
X52816700Y-31467600D02*
X52816700Y-31227600D01*
X52816700Y-31467600D02*
X56516700Y-31467600D01*
X56516700Y-28167600D02*
X52816700Y-28167600D01*
X56516700Y-28507600D02*
X56516700Y-28167600D01*
X56516700Y-29957600D02*
X56516700Y-29777600D01*
X56516700Y-31467600D02*
X56516700Y-31227600D01*
D15*
X51756700Y-28467600D02*
G75*
G02*
X51696700Y-28467600I-30000J0D01*
G01*
X51696700Y-28467600D02*
G75*
G02*
X51756700Y-28467600I30000J0D01*
G01*
D16*
G36*
X52253878Y-28597575D02*
G01*
X52253878Y-28089625D01*
X52761802Y-28089625D01*
X52253878Y-28597575D01*
G37*
%TO.C,SW13*%
D14*
X72950000Y-85170000D02*
X72950000Y-82830000D01*
X73330000Y-82340000D02*
X74220000Y-81450000D01*
X73700000Y-83000000D02*
X73700000Y-85000000D01*
X73700000Y-85000000D02*
X74500000Y-85800000D01*
X74220000Y-81450000D02*
X76780000Y-81450000D01*
X74220000Y-86550000D02*
X73330000Y-85660000D01*
X74220000Y-86550000D02*
X76780000Y-86550000D01*
X74500000Y-85800000D02*
X76400000Y-85800000D01*
X74600000Y-82100000D02*
X73700000Y-83000000D01*
X76300000Y-82100000D02*
X74600000Y-82100000D01*
X76400000Y-85800000D02*
X77300000Y-84900000D01*
X76780000Y-86550000D02*
X77670000Y-85660000D01*
X77300000Y-83100000D02*
X76300000Y-82100000D01*
X77300000Y-84900000D02*
X77300000Y-83100000D01*
X77670000Y-82340000D02*
X76780000Y-81450000D01*
X78050000Y-85170000D02*
X78050000Y-82830000D01*
D15*
X72280000Y-86550000D02*
G75*
G02*
X72220000Y-86550000I-30000J0D01*
G01*
X72220000Y-86550000D02*
G75*
G02*
X72280000Y-86550000I30000J0D01*
G01*
D14*
X76780000Y-84000000D02*
G75*
G02*
X74220000Y-84000000I-1280000J0D01*
G01*
X74220000Y-84000000D02*
G75*
G02*
X76780000Y-84000000I1280000J0D01*
G01*
%TO.C,SW11*%
X37700000Y-73352000D02*
X37700000Y-73352000D01*
X37700000Y-73352000D02*
X41700000Y-73352000D01*
X37700000Y-74402000D02*
X37700000Y-73352000D01*
X37700000Y-77352000D02*
X37700000Y-77002000D01*
X41250000Y-78002000D02*
X38350000Y-78002000D01*
X42500000Y-74152000D02*
X42500000Y-74352000D01*
X42500000Y-79452000D02*
X42500000Y-79252000D01*
X43300000Y-80252000D02*
X42500000Y-79452000D01*
X43750000Y-75602000D02*
X46650000Y-75602000D01*
X46450000Y-80252000D02*
X43300000Y-80252000D01*
X46650000Y-75602000D02*
X46650000Y-75602000D01*
X47300000Y-76252000D02*
X46650000Y-75602000D01*
X47300000Y-76252000D02*
X47300000Y-76602000D01*
X47300000Y-79202000D02*
X47300000Y-79402000D01*
X47300000Y-79402000D02*
X46450000Y-80252000D01*
X38350000Y-78002000D02*
G75*
G02*
X37700000Y-77352000I1J650001D01*
G01*
X41250000Y-78002000D02*
G75*
G02*
X42500000Y-79252000I-2J-1250002D01*
G01*
X41695515Y-73351558D02*
G75*
G02*
X42500000Y-74152000I-85515J-890442D01*
G01*
X43750000Y-75602000D02*
G75*
G02*
X42500000Y-74352000I0J1250000D01*
G01*
D15*
X35950000Y-73382000D02*
G75*
G02*
X35890000Y-73382000I-30000J0D01*
G01*
X35890000Y-73382000D02*
G75*
G02*
X35950000Y-73382000I30000J0D01*
G01*
%TO.C,C16*%
D13*
X7490000Y-81940580D02*
X7490000Y-81659420D01*
X8510000Y-81940580D02*
X8510000Y-81659420D01*
%TO.C,SW3*%
D14*
X8700000Y-36017600D02*
X8700000Y-36017600D01*
X8700000Y-36017600D02*
X12700000Y-36017600D01*
X8700000Y-37067600D02*
X8700000Y-36017600D01*
X8700000Y-40017600D02*
X8700000Y-39667600D01*
X12250000Y-40667600D02*
X9350000Y-40667600D01*
X13500000Y-36817600D02*
X13500000Y-37017600D01*
X13500000Y-42117600D02*
X13500000Y-41917600D01*
X14300000Y-42917600D02*
X13500000Y-42117600D01*
X14750000Y-38267600D02*
X17650000Y-38267600D01*
X17450000Y-42917600D02*
X14300000Y-42917600D01*
X17650000Y-38267600D02*
X17650000Y-38267600D01*
X18300000Y-38917600D02*
X17650000Y-38267600D01*
X18300000Y-38917600D02*
X18300000Y-39267600D01*
X18300000Y-41867600D02*
X18300000Y-42067600D01*
X18300000Y-42067600D02*
X17450000Y-42917600D01*
X9350000Y-40667600D02*
G75*
G02*
X8700000Y-40017600I1J650001D01*
G01*
X12250000Y-40667600D02*
G75*
G02*
X13500000Y-41917600I-2J-1250002D01*
G01*
X12695515Y-36017158D02*
G75*
G02*
X13500000Y-36817600I-85515J-890442D01*
G01*
X14750000Y-38267600D02*
G75*
G02*
X13500000Y-37017600I0J1250000D01*
G01*
D15*
X6950000Y-36047600D02*
G75*
G02*
X6890000Y-36047600I-30000J0D01*
G01*
X6890000Y-36047600D02*
G75*
G02*
X6950000Y-36047600I30000J0D01*
G01*
%TO.C,U4*%
D12*
X22600000Y-3950000D02*
X24400000Y-3950000D01*
X22600000Y-4100000D02*
X22600000Y-3950000D01*
X22600000Y-6000000D02*
X22600000Y-5000000D01*
X22600000Y-7050000D02*
X22600000Y-6900000D01*
X22600000Y-7050000D02*
X24400000Y-7050000D01*
X24400000Y-4100000D02*
X24400000Y-3950000D01*
X24400000Y-5050000D02*
X24400000Y-5000000D01*
X24400000Y-6000000D02*
X24400000Y-5950000D01*
X24400000Y-7050000D02*
X24400000Y-6900000D01*
D15*
X24930000Y-4050000D02*
G75*
G02*
X24870000Y-4050000I-30000J0D01*
G01*
X24870000Y-4050000D02*
G75*
G02*
X24930000Y-4050000I30000J0D01*
G01*
D16*
%TO.C,D1*%
D14*
X33483300Y-9840000D02*
X33483300Y-9500000D01*
X33483300Y-11290000D02*
X33483300Y-11110000D01*
X33483300Y-12800000D02*
X33483300Y-12560000D01*
X33483300Y-12800000D02*
X37183300Y-12800000D01*
X37183300Y-9500000D02*
X33483300Y-9500000D01*
X37183300Y-9840000D02*
X37183300Y-9500000D01*
X37183300Y-11290000D02*
X37183300Y-11110000D01*
X37183300Y-12800000D02*
X37183300Y-12560000D01*
D15*
X32423300Y-9800000D02*
G75*
G02*
X32363300Y-9800000I-30000J0D01*
G01*
X32363300Y-9800000D02*
G75*
G02*
X32423300Y-9800000I30000J0D01*
G01*
D16*
G36*
X32920478Y-9929975D02*
G01*
X32920478Y-9422025D01*
X33428402Y-9422025D01*
X32920478Y-9929975D01*
G37*
%TO.C,SW5*%
D14*
X47366700Y-36017600D02*
X47366700Y-36017600D01*
X47366700Y-36017600D02*
X51366700Y-36017600D01*
X47366700Y-37067600D02*
X47366700Y-36017600D01*
X47366700Y-40017600D02*
X47366700Y-39667600D01*
X50916700Y-40667600D02*
X48016700Y-40667600D01*
X52166700Y-36817600D02*
X52166700Y-37017600D01*
X52166700Y-42117600D02*
X52166700Y-41917600D01*
X52966700Y-42917600D02*
X52166700Y-42117600D01*
X53416700Y-38267600D02*
X56316700Y-38267600D01*
X56116700Y-42917600D02*
X52966700Y-42917600D01*
X56316700Y-38267600D02*
X56316700Y-38267600D01*
X56966700Y-38917600D02*
X56316700Y-38267600D01*
X56966700Y-38917600D02*
X56966700Y-39267600D01*
X56966700Y-41867600D02*
X56966700Y-42067600D01*
X56966700Y-42067600D02*
X56116700Y-42917600D01*
X48016700Y-40667600D02*
G75*
G02*
X47366700Y-40017600I1J650001D01*
G01*
X50916700Y-40667600D02*
G75*
G02*
X52166700Y-41917600I-2J-1250002D01*
G01*
X51362215Y-36017158D02*
G75*
G02*
X52166700Y-36817600I-85515J-890442D01*
G01*
X53416700Y-38267600D02*
G75*
G02*
X52166700Y-37017600I0J1250000D01*
G01*
D15*
X45616700Y-36047600D02*
G75*
G02*
X45556700Y-36047600I-30000J0D01*
G01*
X45556700Y-36047600D02*
G75*
G02*
X45616700Y-36047600I30000J0D01*
G01*
%TO.C,SW14*%
D14*
X8700000Y-73352000D02*
X8700000Y-73352000D01*
X8700000Y-73352000D02*
X12700000Y-73352000D01*
X8700000Y-74402000D02*
X8700000Y-73352000D01*
X8700000Y-77352000D02*
X8700000Y-77002000D01*
X12250000Y-78002000D02*
X9350000Y-78002000D01*
X13500000Y-74152000D02*
X13500000Y-74352000D01*
X13500000Y-79452000D02*
X13500000Y-79252000D01*
X14300000Y-80252000D02*
X13500000Y-79452000D01*
X14750000Y-75602000D02*
X17650000Y-75602000D01*
X17450000Y-80252000D02*
X14300000Y-80252000D01*
X17650000Y-75602000D02*
X17650000Y-75602000D01*
X18300000Y-76252000D02*
X17650000Y-75602000D01*
X18300000Y-76252000D02*
X18300000Y-76602000D01*
X18300000Y-79202000D02*
X18300000Y-79402000D01*
X18300000Y-79402000D02*
X17450000Y-80252000D01*
X9350000Y-78002000D02*
G75*
G02*
X8700000Y-77352000I1J650001D01*
G01*
X12250000Y-78002000D02*
G75*
G02*
X13500000Y-79252000I-2J-1250002D01*
G01*
X12695515Y-73351558D02*
G75*
G02*
X13500000Y-74152000I-85515J-890442D01*
G01*
X14750000Y-75602000D02*
G75*
G02*
X13500000Y-74352000I0J1250000D01*
G01*
D15*
X6950000Y-73382000D02*
G75*
G02*
X6890000Y-73382000I-30000J0D01*
G01*
X6890000Y-73382000D02*
G75*
G02*
X6950000Y-73382000I30000J0D01*
G01*
%TO.C,C24*%
D13*
X80471500Y-40845980D02*
X80471500Y-40564820D01*
X81491500Y-40845980D02*
X81491500Y-40564820D01*
%TO.C,C14*%
X33490000Y-84140580D02*
X33490000Y-83859420D01*
X34510000Y-84140580D02*
X34510000Y-83859420D01*
%TO.C,SW12*%
D14*
X66700000Y-73352000D02*
X66700000Y-73352000D01*
X66700000Y-73352000D02*
X70700000Y-73352000D01*
X66700000Y-74402000D02*
X66700000Y-73352000D01*
X66700000Y-77352000D02*
X66700000Y-77002000D01*
X70250000Y-78002000D02*
X67350000Y-78002000D01*
X71500000Y-74152000D02*
X71500000Y-74352000D01*
X71500000Y-79452000D02*
X71500000Y-79252000D01*
X72300000Y-80252000D02*
X71500000Y-79452000D01*
X72750000Y-75602000D02*
X75650000Y-75602000D01*
X75450000Y-80252000D02*
X72300000Y-80252000D01*
X75650000Y-75602000D02*
X75650000Y-75602000D01*
X76300000Y-76252000D02*
X75650000Y-75602000D01*
X76300000Y-76252000D02*
X76300000Y-76602000D01*
X76300000Y-79202000D02*
X76300000Y-79402000D01*
X76300000Y-79402000D02*
X75450000Y-80252000D01*
X67350000Y-78002000D02*
G75*
G02*
X66700000Y-77352000I1J650001D01*
G01*
X70250000Y-78002000D02*
G75*
G02*
X71500000Y-79252000I-2J-1250002D01*
G01*
X70695515Y-73351558D02*
G75*
G02*
X71500000Y-74152000I-85515J-890442D01*
G01*
X72750000Y-75602000D02*
G75*
G02*
X71500000Y-74352000I0J1250000D01*
G01*
D15*
X64950000Y-73382000D02*
G75*
G02*
X64890000Y-73382000I-30000J0D01*
G01*
X64890000Y-73382000D02*
G75*
G02*
X64950000Y-73382000I30000J0D01*
G01*
%TO.C,SW6*%
D14*
X66700000Y-36017600D02*
X66700000Y-36017600D01*
X66700000Y-36017600D02*
X70700000Y-36017600D01*
X66700000Y-37067600D02*
X66700000Y-36017600D01*
X66700000Y-40017600D02*
X66700000Y-39667600D01*
X70250000Y-40667600D02*
X67350000Y-40667600D01*
X71500000Y-36817600D02*
X71500000Y-37017600D01*
X71500000Y-42117600D02*
X71500000Y-41917600D01*
X72300000Y-42917600D02*
X71500000Y-42117600D01*
X72750000Y-38267600D02*
X75650000Y-38267600D01*
X75450000Y-42917600D02*
X72300000Y-42917600D01*
X75650000Y-38267600D02*
X75650000Y-38267600D01*
X76300000Y-38917600D02*
X75650000Y-38267600D01*
X76300000Y-38917600D02*
X76300000Y-39267600D01*
X76300000Y-41867600D02*
X76300000Y-42067600D01*
X76300000Y-42067600D02*
X75450000Y-42917600D01*
X67350000Y-40667600D02*
G75*
G02*
X66700000Y-40017600I1J650001D01*
G01*
X70250000Y-40667600D02*
G75*
G02*
X71500000Y-41917600I-2J-1250002D01*
G01*
X70695515Y-36017158D02*
G75*
G02*
X71500000Y-36817600I-85515J-890442D01*
G01*
X72750000Y-38267600D02*
G75*
G02*
X71500000Y-37017600I0J1250000D01*
G01*
D15*
X64950000Y-36047600D02*
G75*
G02*
X64890000Y-36047600I-30000J0D01*
G01*
X64890000Y-36047600D02*
G75*
G02*
X64950000Y-36047600I30000J0D01*
G01*
%TO.C,SW1*%
D14*
X28033300Y-17350000D02*
X28033300Y-17350000D01*
X28033300Y-17350000D02*
X32033300Y-17350000D01*
X28033300Y-18400000D02*
X28033300Y-17350000D01*
X28033300Y-21350000D02*
X28033300Y-21000000D01*
X31583300Y-22000000D02*
X28683300Y-22000000D01*
X32833300Y-18150000D02*
X32833300Y-18350000D01*
X32833300Y-23450000D02*
X32833300Y-23250000D01*
X33633300Y-24250000D02*
X32833300Y-23450000D01*
X34083300Y-19600000D02*
X36983300Y-19600000D01*
X36783300Y-24250000D02*
X33633300Y-24250000D01*
X36983300Y-19600000D02*
X36983300Y-19600000D01*
X37633300Y-20250000D02*
X36983300Y-19600000D01*
X37633300Y-20250000D02*
X37633300Y-20600000D01*
X37633300Y-23200000D02*
X37633300Y-23400000D01*
X37633300Y-23400000D02*
X36783300Y-24250000D01*
X28683300Y-22000000D02*
G75*
G02*
X28033300Y-21350000I1J650001D01*
G01*
X31583300Y-22000000D02*
G75*
G02*
X32833300Y-23250000I-2J-1250002D01*
G01*
X32028815Y-17349558D02*
G75*
G02*
X32833300Y-18150000I-85515J-890442D01*
G01*
X34083300Y-19600000D02*
G75*
G02*
X32833300Y-18350000I0J1250000D01*
G01*
D15*
X26283300Y-17380000D02*
G75*
G02*
X26223300Y-17380000I-30000J0D01*
G01*
X26223300Y-17380000D02*
G75*
G02*
X26283300Y-17380000I30000J0D01*
G01*
%TO.C,C2*%
D13*
X31359420Y-79990000D02*
X31640580Y-79990000D01*
X31359420Y-81010000D02*
X31640580Y-81010000D01*
%TD*%
M02*
