%TF.GenerationSoftware,KiCad,Pcbnew,10.0.3*%
%TF.CreationDate,2026-07-22T14:02:55-04:00*%
%TF.ProjectId,ClaudeMicro,436c6175-6465-44d6-9963-726f2e6b6963,rev?*%
%TF.SameCoordinates,Original*%
%TF.FileFunction,Legend,Top*%
%TF.FilePolarity,Positive*%
%FSLAX46Y46*%
G04 Gerber Fmt 4.6, Leading zero omitted, Abs format (unit mm)*
G04 Created by KiCad (PCBNEW 10.0.3) date 2026-07-22 14:02:55*
%MOMM*%
%LPD*%
G01*
G04 APERTURE LIST*
%ADD10C,0.250000*%
%ADD11C,0.150000*%
%ADD12C,0.350000*%
%ADD13C,0.120000*%
%ADD14C,0.060000*%
%ADD15C,0.100000*%
G04 APERTURE END LIST*
D10*
X21500000Y-71000000D02*
G75*
G02*
X7500000Y-71000000I-7000000J0D01*
G01*
X7500000Y-71000000D02*
G75*
G02*
X21500000Y-71000000I7000000J0D01*
G01*
D11*
X12721428Y-80308557D02*
X13064285Y-80308557D01*
X12849999Y-80008557D02*
X12849999Y-80779985D01*
X12849999Y-80779985D02*
X12892856Y-80865700D01*
X12892856Y-80865700D02*
X12978571Y-80908557D01*
X12978571Y-80908557D02*
X13064285Y-80908557D01*
X13492857Y-80908557D02*
X13407142Y-80865700D01*
X13407142Y-80865700D02*
X13364285Y-80822842D01*
X13364285Y-80822842D02*
X13321428Y-80737128D01*
X13321428Y-80737128D02*
X13321428Y-80479985D01*
X13321428Y-80479985D02*
X13364285Y-80394271D01*
X13364285Y-80394271D02*
X13407142Y-80351414D01*
X13407142Y-80351414D02*
X13492857Y-80308557D01*
X13492857Y-80308557D02*
X13621428Y-80308557D01*
X13621428Y-80308557D02*
X13707142Y-80351414D01*
X13707142Y-80351414D02*
X13750000Y-80394271D01*
X13750000Y-80394271D02*
X13792857Y-80479985D01*
X13792857Y-80479985D02*
X13792857Y-80737128D01*
X13792857Y-80737128D02*
X13750000Y-80822842D01*
X13750000Y-80822842D02*
X13707142Y-80865700D01*
X13707142Y-80865700D02*
X13621428Y-80908557D01*
X13621428Y-80908557D02*
X13492857Y-80908557D01*
X14564286Y-80308557D02*
X14564286Y-80908557D01*
X14178571Y-80308557D02*
X14178571Y-80779985D01*
X14178571Y-80779985D02*
X14221428Y-80865700D01*
X14221428Y-80865700D02*
X14307143Y-80908557D01*
X14307143Y-80908557D02*
X14435714Y-80908557D01*
X14435714Y-80908557D02*
X14521428Y-80865700D01*
X14521428Y-80865700D02*
X14564286Y-80822842D01*
X15378572Y-80865700D02*
X15292857Y-80908557D01*
X15292857Y-80908557D02*
X15121429Y-80908557D01*
X15121429Y-80908557D02*
X15035714Y-80865700D01*
X15035714Y-80865700D02*
X14992857Y-80822842D01*
X14992857Y-80822842D02*
X14950000Y-80737128D01*
X14950000Y-80737128D02*
X14950000Y-80479985D01*
X14950000Y-80479985D02*
X14992857Y-80394271D01*
X14992857Y-80394271D02*
X15035714Y-80351414D01*
X15035714Y-80351414D02*
X15121429Y-80308557D01*
X15121429Y-80308557D02*
X15292857Y-80308557D01*
X15292857Y-80308557D02*
X15378572Y-80351414D01*
X15764286Y-80908557D02*
X15764286Y-80008557D01*
X16150001Y-80908557D02*
X16150001Y-80437128D01*
X16150001Y-80437128D02*
X16107143Y-80351414D01*
X16107143Y-80351414D02*
X16021429Y-80308557D01*
X16021429Y-80308557D02*
X15892858Y-80308557D01*
X15892858Y-80308557D02*
X15807143Y-80351414D01*
X15807143Y-80351414D02*
X15764286Y-80394271D01*
X39942856Y-89308557D02*
X39942856Y-90208557D01*
X39942856Y-89351414D02*
X40028571Y-89308557D01*
X40028571Y-89308557D02*
X40199999Y-89308557D01*
X40199999Y-89308557D02*
X40285713Y-89351414D01*
X40285713Y-89351414D02*
X40328571Y-89394271D01*
X40328571Y-89394271D02*
X40371428Y-89479985D01*
X40371428Y-89479985D02*
X40371428Y-89737128D01*
X40371428Y-89737128D02*
X40328571Y-89822842D01*
X40328571Y-89822842D02*
X40285713Y-89865700D01*
X40285713Y-89865700D02*
X40199999Y-89908557D01*
X40199999Y-89908557D02*
X40028571Y-89908557D01*
X40028571Y-89908557D02*
X39942856Y-89865700D01*
X40757142Y-89908557D02*
X40757142Y-89308557D01*
X40757142Y-89479985D02*
X40799999Y-89394271D01*
X40799999Y-89394271D02*
X40842857Y-89351414D01*
X40842857Y-89351414D02*
X40928571Y-89308557D01*
X40928571Y-89308557D02*
X41014285Y-89308557D01*
X41314285Y-89908557D02*
X41314285Y-89308557D01*
X41314285Y-89008557D02*
X41271428Y-89051414D01*
X41271428Y-89051414D02*
X41314285Y-89094271D01*
X41314285Y-89094271D02*
X41357142Y-89051414D01*
X41357142Y-89051414D02*
X41314285Y-89008557D01*
X41314285Y-89008557D02*
X41314285Y-89094271D01*
X41742856Y-89308557D02*
X41742856Y-89908557D01*
X41742856Y-89394271D02*
X41785713Y-89351414D01*
X41785713Y-89351414D02*
X41871428Y-89308557D01*
X41871428Y-89308557D02*
X41999999Y-89308557D01*
X41999999Y-89308557D02*
X42085713Y-89351414D01*
X42085713Y-89351414D02*
X42128571Y-89437128D01*
X42128571Y-89437128D02*
X42128571Y-89908557D01*
X42942857Y-89865700D02*
X42857142Y-89908557D01*
X42857142Y-89908557D02*
X42685714Y-89908557D01*
X42685714Y-89908557D02*
X42599999Y-89865700D01*
X42599999Y-89865700D02*
X42557142Y-89822842D01*
X42557142Y-89822842D02*
X42514285Y-89737128D01*
X42514285Y-89737128D02*
X42514285Y-89479985D01*
X42514285Y-89479985D02*
X42557142Y-89394271D01*
X42557142Y-89394271D02*
X42599999Y-89351414D01*
X42599999Y-89351414D02*
X42685714Y-89308557D01*
X42685714Y-89308557D02*
X42857142Y-89308557D01*
X42857142Y-89308557D02*
X42942857Y-89351414D01*
X43671428Y-89865700D02*
X43585714Y-89908557D01*
X43585714Y-89908557D02*
X43414286Y-89908557D01*
X43414286Y-89908557D02*
X43328571Y-89865700D01*
X43328571Y-89865700D02*
X43285714Y-89779985D01*
X43285714Y-89779985D02*
X43285714Y-89437128D01*
X43285714Y-89437128D02*
X43328571Y-89351414D01*
X43328571Y-89351414D02*
X43414286Y-89308557D01*
X43414286Y-89308557D02*
X43585714Y-89308557D01*
X43585714Y-89308557D02*
X43671428Y-89351414D01*
X43671428Y-89351414D02*
X43714286Y-89437128D01*
X43714286Y-89437128D02*
X43714286Y-89522842D01*
X43714286Y-89522842D02*
X43285714Y-89608557D01*
X43971429Y-89308557D02*
X44314286Y-89308557D01*
X44100000Y-89008557D02*
X44100000Y-89779985D01*
X44100000Y-89779985D02*
X44142857Y-89865700D01*
X44142857Y-89865700D02*
X44228572Y-89908557D01*
X44228572Y-89908557D02*
X44314286Y-89908557D01*
X44957143Y-89865700D02*
X44871429Y-89908557D01*
X44871429Y-89908557D02*
X44700001Y-89908557D01*
X44700001Y-89908557D02*
X44614286Y-89865700D01*
X44614286Y-89865700D02*
X44571429Y-89779985D01*
X44571429Y-89779985D02*
X44571429Y-89437128D01*
X44571429Y-89437128D02*
X44614286Y-89351414D01*
X44614286Y-89351414D02*
X44700001Y-89308557D01*
X44700001Y-89308557D02*
X44871429Y-89308557D01*
X44871429Y-89308557D02*
X44957143Y-89351414D01*
X44957143Y-89351414D02*
X45000001Y-89437128D01*
X45000001Y-89437128D02*
X45000001Y-89522842D01*
X45000001Y-89522842D02*
X44571429Y-89608557D01*
X45385715Y-89908557D02*
X45385715Y-89008557D01*
X45471430Y-89565700D02*
X45728572Y-89908557D01*
X45728572Y-89308557D02*
X45385715Y-89651414D01*
X46114286Y-89908557D02*
X46114286Y-89008557D01*
X46200001Y-89565700D02*
X46457143Y-89908557D01*
X46457143Y-89308557D02*
X46114286Y-89651414D01*
X46842857Y-89908557D02*
X46842857Y-89308557D01*
X46842857Y-89008557D02*
X46800000Y-89051414D01*
X46800000Y-89051414D02*
X46842857Y-89094271D01*
X46842857Y-89094271D02*
X46885714Y-89051414D01*
X46885714Y-89051414D02*
X46842857Y-89008557D01*
X46842857Y-89008557D02*
X46842857Y-89094271D01*
X47271428Y-89822842D02*
X47314285Y-89865700D01*
X47314285Y-89865700D02*
X47271428Y-89908557D01*
X47271428Y-89908557D02*
X47228571Y-89865700D01*
X47228571Y-89865700D02*
X47271428Y-89822842D01*
X47271428Y-89822842D02*
X47271428Y-89908557D01*
X48085714Y-89865700D02*
X47999999Y-89908557D01*
X47999999Y-89908557D02*
X47828571Y-89908557D01*
X47828571Y-89908557D02*
X47742856Y-89865700D01*
X47742856Y-89865700D02*
X47699999Y-89822842D01*
X47699999Y-89822842D02*
X47657142Y-89737128D01*
X47657142Y-89737128D02*
X47657142Y-89479985D01*
X47657142Y-89479985D02*
X47699999Y-89394271D01*
X47699999Y-89394271D02*
X47742856Y-89351414D01*
X47742856Y-89351414D02*
X47828571Y-89308557D01*
X47828571Y-89308557D02*
X47999999Y-89308557D01*
X47999999Y-89308557D02*
X48085714Y-89351414D01*
X48600000Y-89908557D02*
X48514285Y-89865700D01*
X48514285Y-89865700D02*
X48471428Y-89822842D01*
X48471428Y-89822842D02*
X48428571Y-89737128D01*
X48428571Y-89737128D02*
X48428571Y-89479985D01*
X48428571Y-89479985D02*
X48471428Y-89394271D01*
X48471428Y-89394271D02*
X48514285Y-89351414D01*
X48514285Y-89351414D02*
X48600000Y-89308557D01*
X48600000Y-89308557D02*
X48728571Y-89308557D01*
X48728571Y-89308557D02*
X48814285Y-89351414D01*
X48814285Y-89351414D02*
X48857143Y-89394271D01*
X48857143Y-89394271D02*
X48900000Y-89479985D01*
X48900000Y-89479985D02*
X48900000Y-89737128D01*
X48900000Y-89737128D02*
X48857143Y-89822842D01*
X48857143Y-89822842D02*
X48814285Y-89865700D01*
X48814285Y-89865700D02*
X48728571Y-89908557D01*
X48728571Y-89908557D02*
X48600000Y-89908557D01*
X49285714Y-89908557D02*
X49285714Y-89308557D01*
X49285714Y-89394271D02*
X49328571Y-89351414D01*
X49328571Y-89351414D02*
X49414286Y-89308557D01*
X49414286Y-89308557D02*
X49542857Y-89308557D01*
X49542857Y-89308557D02*
X49628571Y-89351414D01*
X49628571Y-89351414D02*
X49671429Y-89437128D01*
X49671429Y-89437128D02*
X49671429Y-89908557D01*
X49671429Y-89437128D02*
X49714286Y-89351414D01*
X49714286Y-89351414D02*
X49800000Y-89308557D01*
X49800000Y-89308557D02*
X49928571Y-89308557D01*
X49928571Y-89308557D02*
X50014286Y-89351414D01*
X50014286Y-89351414D02*
X50057143Y-89437128D01*
X50057143Y-89437128D02*
X50057143Y-89908557D01*
D12*
X35571428Y-87716561D02*
X35476190Y-87811800D01*
X35476190Y-87811800D02*
X35190476Y-87907038D01*
X35190476Y-87907038D02*
X35000000Y-87907038D01*
X35000000Y-87907038D02*
X34714285Y-87811800D01*
X34714285Y-87811800D02*
X34523809Y-87621323D01*
X34523809Y-87621323D02*
X34428571Y-87430847D01*
X34428571Y-87430847D02*
X34333333Y-87049895D01*
X34333333Y-87049895D02*
X34333333Y-86764180D01*
X34333333Y-86764180D02*
X34428571Y-86383228D01*
X34428571Y-86383228D02*
X34523809Y-86192752D01*
X34523809Y-86192752D02*
X34714285Y-86002276D01*
X34714285Y-86002276D02*
X35000000Y-85907038D01*
X35000000Y-85907038D02*
X35190476Y-85907038D01*
X35190476Y-85907038D02*
X35476190Y-86002276D01*
X35476190Y-86002276D02*
X35571428Y-86097514D01*
X37380952Y-87907038D02*
X36428571Y-87907038D01*
X36428571Y-87907038D02*
X36428571Y-85907038D01*
X37952381Y-87335609D02*
X38904762Y-87335609D01*
X37761905Y-87907038D02*
X38428571Y-85907038D01*
X38428571Y-85907038D02*
X39095238Y-87907038D01*
X39761905Y-85907038D02*
X39761905Y-87526085D01*
X39761905Y-87526085D02*
X39857143Y-87716561D01*
X39857143Y-87716561D02*
X39952381Y-87811800D01*
X39952381Y-87811800D02*
X40142857Y-87907038D01*
X40142857Y-87907038D02*
X40523810Y-87907038D01*
X40523810Y-87907038D02*
X40714286Y-87811800D01*
X40714286Y-87811800D02*
X40809524Y-87716561D01*
X40809524Y-87716561D02*
X40904762Y-87526085D01*
X40904762Y-87526085D02*
X40904762Y-85907038D01*
X41857143Y-87907038D02*
X41857143Y-85907038D01*
X41857143Y-85907038D02*
X42333333Y-85907038D01*
X42333333Y-85907038D02*
X42619048Y-86002276D01*
X42619048Y-86002276D02*
X42809524Y-86192752D01*
X42809524Y-86192752D02*
X42904762Y-86383228D01*
X42904762Y-86383228D02*
X43000000Y-86764180D01*
X43000000Y-86764180D02*
X43000000Y-87049895D01*
X43000000Y-87049895D02*
X42904762Y-87430847D01*
X42904762Y-87430847D02*
X42809524Y-87621323D01*
X42809524Y-87621323D02*
X42619048Y-87811800D01*
X42619048Y-87811800D02*
X42333333Y-87907038D01*
X42333333Y-87907038D02*
X41857143Y-87907038D01*
X43857143Y-86859419D02*
X44523810Y-86859419D01*
X44809524Y-87907038D02*
X43857143Y-87907038D01*
X43857143Y-87907038D02*
X43857143Y-85907038D01*
X43857143Y-85907038D02*
X44809524Y-85907038D01*
X47190477Y-87907038D02*
X47190477Y-85907038D01*
X47190477Y-85907038D02*
X47857144Y-87335609D01*
X47857144Y-87335609D02*
X48523810Y-85907038D01*
X48523810Y-85907038D02*
X48523810Y-87907038D01*
X49476191Y-87907038D02*
X49476191Y-85907038D01*
X51571429Y-87716561D02*
X51476191Y-87811800D01*
X51476191Y-87811800D02*
X51190477Y-87907038D01*
X51190477Y-87907038D02*
X51000001Y-87907038D01*
X51000001Y-87907038D02*
X50714286Y-87811800D01*
X50714286Y-87811800D02*
X50523810Y-87621323D01*
X50523810Y-87621323D02*
X50428572Y-87430847D01*
X50428572Y-87430847D02*
X50333334Y-87049895D01*
X50333334Y-87049895D02*
X50333334Y-86764180D01*
X50333334Y-86764180D02*
X50428572Y-86383228D01*
X50428572Y-86383228D02*
X50523810Y-86192752D01*
X50523810Y-86192752D02*
X50714286Y-86002276D01*
X50714286Y-86002276D02*
X51000001Y-85907038D01*
X51000001Y-85907038D02*
X51190477Y-85907038D01*
X51190477Y-85907038D02*
X51476191Y-86002276D01*
X51476191Y-86002276D02*
X51571429Y-86097514D01*
X53571429Y-87907038D02*
X52904762Y-86954657D01*
X52428572Y-87907038D02*
X52428572Y-85907038D01*
X52428572Y-85907038D02*
X53190477Y-85907038D01*
X53190477Y-85907038D02*
X53380953Y-86002276D01*
X53380953Y-86002276D02*
X53476191Y-86097514D01*
X53476191Y-86097514D02*
X53571429Y-86287990D01*
X53571429Y-86287990D02*
X53571429Y-86573704D01*
X53571429Y-86573704D02*
X53476191Y-86764180D01*
X53476191Y-86764180D02*
X53380953Y-86859419D01*
X53380953Y-86859419D02*
X53190477Y-86954657D01*
X53190477Y-86954657D02*
X52428572Y-86954657D01*
X54809524Y-85907038D02*
X55190477Y-85907038D01*
X55190477Y-85907038D02*
X55380953Y-86002276D01*
X55380953Y-86002276D02*
X55571429Y-86192752D01*
X55571429Y-86192752D02*
X55666667Y-86573704D01*
X55666667Y-86573704D02*
X55666667Y-87240371D01*
X55666667Y-87240371D02*
X55571429Y-87621323D01*
X55571429Y-87621323D02*
X55380953Y-87811800D01*
X55380953Y-87811800D02*
X55190477Y-87907038D01*
X55190477Y-87907038D02*
X54809524Y-87907038D01*
X54809524Y-87907038D02*
X54619048Y-87811800D01*
X54619048Y-87811800D02*
X54428572Y-87621323D01*
X54428572Y-87621323D02*
X54333334Y-87240371D01*
X54333334Y-87240371D02*
X54333334Y-86573704D01*
X54333334Y-86573704D02*
X54428572Y-86192752D01*
X54428572Y-86192752D02*
X54619048Y-86002276D01*
X54619048Y-86002276D02*
X54809524Y-85907038D01*
X44580952Y-10009085D02*
X45000000Y-9694800D01*
X45000000Y-9694800D02*
X45419048Y-10009085D01*
%TO.C,JS1*%
D13*
X67000000Y-13000000D02*
X77000000Y-13000000D01*
X77000000Y-23000000D01*
X67000000Y-23000000D01*
X67000000Y-13000000D01*
%TO.C,ENC1*%
D10*
X12150000Y-11750000D02*
X12150000Y-15720000D01*
X12150000Y-11750000D02*
X14930000Y-11750000D01*
X12150000Y-19780000D02*
X12150000Y-23750000D01*
X13810000Y-15970000D02*
X12680000Y-15970000D01*
X13810000Y-19530000D02*
X12680000Y-19530000D01*
X15210000Y-16100000D02*
X20790000Y-16100000D01*
X15990000Y-11750000D02*
X20010000Y-11750000D01*
X21070000Y-11750000D02*
X23850000Y-11750000D01*
X22190000Y-15970000D02*
X23320000Y-15970000D01*
X22190000Y-19530000D02*
X23320000Y-19530000D01*
X23850000Y-11750000D02*
X23850000Y-15720000D01*
X23850000Y-19780000D02*
X23850000Y-23750000D01*
X23850000Y-23750000D02*
X12150000Y-23750000D01*
X13830000Y-15930000D02*
G75*
G02*
X22186899Y-15969221I4170000J-1820000D01*
G01*
X19900000Y-16100000D02*
G75*
G02*
X16096736Y-16103766I-1900000J-1650000D01*
G01*
X22170000Y-19570000D02*
G75*
G02*
X13813101Y-19530779I-4170000J1820000D01*
G01*
D14*
X10430000Y-26150000D02*
G75*
G02*
X10370000Y-26150000I-30000J0D01*
G01*
X10370000Y-26150000D02*
G75*
G02*
X10430000Y-26150000I30000J0D01*
G01*
D10*
X21230000Y-17750000D02*
G75*
G02*
X14770000Y-17750000I-3230000J0D01*
G01*
X14770000Y-17750000D02*
G75*
G02*
X21230000Y-17750000I3230000J0D01*
G01*
X21680000Y-17750000D02*
G75*
G02*
X14320000Y-17750000I-3680000J0D01*
G01*
X14320000Y-17750000D02*
G75*
G02*
X21680000Y-17750000I3680000J0D01*
G01*
%TO.C,D7*%
X4800000Y-60530000D02*
X6200000Y-60530000D01*
X4800000Y-61800000D02*
X4800000Y-60530000D01*
X4800000Y-62300000D02*
X4800000Y-63400000D01*
X4800000Y-63400000D02*
X5100000Y-63700000D01*
X5100000Y-61910000D02*
X5880000Y-61910000D01*
X5100000Y-63700000D02*
X5900000Y-63700000D01*
X5500000Y-61910000D02*
X5500000Y-62120000D01*
X5900000Y-63700000D02*
X6200000Y-63400000D01*
X6200000Y-60530000D02*
X6200000Y-61800000D01*
X6200000Y-63400000D02*
X6200000Y-62300000D01*
D15*
X5150000Y-61200000D02*
G75*
G02*
X5050000Y-61200000I-50000J0D01*
G01*
X5050000Y-61200000D02*
G75*
G02*
X5150000Y-61200000I50000J0D01*
G01*
%TO.C,D9*%
D10*
X4800000Y-69530000D02*
X6200000Y-69530000D01*
X4800000Y-70800000D02*
X4800000Y-69530000D01*
X4800000Y-71300000D02*
X4800000Y-72400000D01*
X4800000Y-72400000D02*
X5100000Y-72700000D01*
X5100000Y-70910000D02*
X5880000Y-70910000D01*
X5100000Y-72700000D02*
X5900000Y-72700000D01*
X5500000Y-70910000D02*
X5500000Y-71120000D01*
X5900000Y-72700000D02*
X6200000Y-72400000D01*
X6200000Y-69530000D02*
X6200000Y-70800000D01*
X6200000Y-72400000D02*
X6200000Y-71300000D01*
D15*
X5150000Y-70200000D02*
G75*
G02*
X5050000Y-70200000I-50000J0D01*
G01*
X5050000Y-70200000D02*
G75*
G02*
X5150000Y-70200000I50000J0D01*
G01*
%TO.C,D8*%
D10*
X4800000Y-65030000D02*
X6200000Y-65030000D01*
X4800000Y-66300000D02*
X4800000Y-65030000D01*
X4800000Y-66800000D02*
X4800000Y-67900000D01*
X4800000Y-67900000D02*
X5100000Y-68200000D01*
X5100000Y-66410000D02*
X5880000Y-66410000D01*
X5100000Y-68200000D02*
X5900000Y-68200000D01*
X5500000Y-66410000D02*
X5500000Y-66620000D01*
X5900000Y-68200000D02*
X6200000Y-67900000D01*
X6200000Y-65030000D02*
X6200000Y-66300000D01*
X6200000Y-67900000D02*
X6200000Y-66800000D01*
D15*
X5150000Y-65700000D02*
G75*
G02*
X5050000Y-65700000I-50000J0D01*
G01*
X5050000Y-65700000D02*
G75*
G02*
X5150000Y-65700000I50000J0D01*
G01*
%TD*%
M02*
