%TF.GenerationSoftware,KiCad,Pcbnew,10.0.3*%
%TF.CreationDate,2026-07-22T14:02:55-04:00*%
%TF.ProjectId,ClaudeMicro,436c6175-6465-44d6-9963-726f2e6b6963,rev?*%
%TF.SameCoordinates,Original*%
%TF.FileFunction,Drillmap*%
%TF.FilePolarity,Positive*%
%FSLAX45Y45*%
G04 Gerber Fmt 4.5, Leading zero omitted, Abs format (unit mm)*
G04 Created by KiCad (PCBNEW 10.0.3) date 2026-07-22 14:02:55*
%MOMM*%
%LPD*%
G01*
G04 APERTURE LIST*
%ADD10C,0.100000*%
%ADD11C,0.200000*%
%ADD12C,0.119999*%
%ADD13C,0.120000*%
%ADD14C,0.170002*%
%ADD15C,0.300000*%
G04 APERTURE END LIST*
D10*
X0Y-600000D02*
G75*
G02*
X600000Y0I600000J0D01*
G01*
X0Y-8400000D02*
X0Y-600000D01*
X600000Y0D02*
X8400000Y0D01*
X600000Y-9000000D02*
G75*
G02*
X0Y-8400000I0J600000D01*
G01*
X8400000Y0D02*
G75*
G02*
X9000000Y-600000I0J-600000D01*
G01*
X8400000Y-9000000D02*
X600000Y-9000000D01*
X9000000Y-600000D02*
X9000000Y-8400000D01*
X9000000Y-8400000D02*
G75*
G02*
X8400000Y-9000000I-600000J0D01*
G01*
D11*
D10*
X392500Y-392500D02*
X407500Y-407500D01*
X407500Y-392500D02*
X392500Y-407500D01*
X392500Y-992500D02*
X407500Y-1007500D01*
X407500Y-992500D02*
X392500Y-1007500D01*
X392500Y-1592500D02*
X407500Y-1607500D01*
X407500Y-1592500D02*
X392500Y-1607500D01*
X392500Y-2192500D02*
X407500Y-2207500D01*
X407500Y-2192500D02*
X392500Y-2207500D01*
X392500Y-2792500D02*
X407500Y-2807500D01*
X407500Y-2792500D02*
X392500Y-2807500D01*
X392500Y-3392500D02*
X407500Y-3407500D01*
X407500Y-3392500D02*
X392500Y-3407500D01*
X392500Y-3992500D02*
X407500Y-4007500D01*
X407500Y-3992500D02*
X392500Y-4007500D01*
X392500Y-4592500D02*
X407500Y-4607500D01*
X407500Y-4592500D02*
X392500Y-4607500D01*
X392500Y-5192500D02*
X407500Y-5207500D01*
X407500Y-5192500D02*
X392500Y-5207500D01*
X392500Y-5792500D02*
X407500Y-5807500D01*
X407500Y-5792500D02*
X392500Y-5807500D01*
X392500Y-6392500D02*
X407500Y-6407500D01*
X407500Y-6392500D02*
X392500Y-6407500D01*
X392500Y-6992500D02*
X407500Y-7007500D01*
X407500Y-6992500D02*
X392500Y-7007500D01*
X392500Y-7592500D02*
X407500Y-7607500D01*
X407500Y-7592500D02*
X392500Y-7607500D01*
X392500Y-8192500D02*
X407500Y-8207500D01*
X407500Y-8192500D02*
X392500Y-8207500D01*
X992500Y-392500D02*
X1007500Y-407500D01*
X1007500Y-392500D02*
X992500Y-407500D01*
X992500Y-992500D02*
X1007500Y-1007500D01*
X1007500Y-992500D02*
X992500Y-1007500D01*
X992500Y-1592500D02*
X1007500Y-1607500D01*
X1007500Y-1592500D02*
X992500Y-1607500D01*
X992500Y-2192500D02*
X1007500Y-2207500D01*
X1007500Y-2192500D02*
X992500Y-2207500D01*
X992500Y-2792500D02*
X1007500Y-2807500D01*
X1007500Y-2792500D02*
X992500Y-2807500D01*
X992500Y-3392500D02*
X1007500Y-3407500D01*
X1007500Y-3392500D02*
X992500Y-3407500D01*
X1076972Y-7893925D02*
X1091972Y-7908925D01*
X1091972Y-7893925D02*
X1076972Y-7908925D01*
X1167500Y-1767500D02*
X1182500Y-1782500D01*
X1182500Y-1767500D02*
X1167500Y-1782500D01*
X1272500Y-4469500D02*
X1287500Y-4484500D01*
X1287500Y-4469500D02*
X1272500Y-4484500D01*
X1589500Y-8412500D02*
X1604500Y-8427500D01*
X1604500Y-8412500D02*
X1589500Y-8427500D01*
X1589500Y-8872500D02*
X1604500Y-8887500D01*
X1604500Y-8872500D02*
X1589500Y-8887500D01*
X1592500Y-392500D02*
X1607500Y-407500D01*
X1607500Y-392500D02*
X1592500Y-407500D01*
X1592500Y-1592500D02*
X1607500Y-1607500D01*
X1607500Y-1592500D02*
X1592500Y-1607500D01*
X1592500Y-2192500D02*
X1607500Y-2207500D01*
X1607500Y-2192500D02*
X1592500Y-2207500D01*
X1592500Y-2792500D02*
X1607500Y-2807500D01*
X1607500Y-2792500D02*
X1592500Y-2807500D01*
X1592500Y-4592500D02*
X1607500Y-4607500D01*
X1607500Y-4592500D02*
X1592500Y-4607500D01*
X1592500Y-5792500D02*
X1607500Y-5807500D01*
X1607500Y-5792500D02*
X1592500Y-5807500D01*
X1592500Y-8192500D02*
X1607500Y-8207500D01*
X1607500Y-8192500D02*
X1592500Y-8207500D01*
X1692500Y-715000D02*
X1707500Y-730000D01*
X1707500Y-715000D02*
X1692500Y-730000D01*
X1692500Y-870000D02*
X1707500Y-885000D01*
X1707500Y-870000D02*
X1692500Y-885000D01*
X1792500Y-2517500D02*
X1807500Y-2532500D01*
X1807500Y-2517500D02*
X1792500Y-2532500D01*
X1812500Y-4615500D02*
X1827500Y-4630500D01*
X1827500Y-4615500D02*
X1812500Y-4630500D01*
X1942500Y-8165000D02*
X1957500Y-8180000D01*
X1957500Y-8165000D02*
X1942500Y-8180000D01*
X1962500Y-697500D02*
X1977500Y-712500D01*
X1977500Y-697500D02*
X1962500Y-712500D01*
X2046500Y-1067500D02*
X2061500Y-1082500D01*
X2061500Y-1067500D02*
X2046500Y-1082500D01*
X2119500Y-4182500D02*
X2134500Y-4197500D01*
X2134500Y-4182500D02*
X2119500Y-4197500D01*
X2119500Y-5982500D02*
X2134500Y-5997500D01*
X2134500Y-5982500D02*
X2119500Y-5997500D01*
X2192500Y-392500D02*
X2207500Y-407500D01*
X2207500Y-392500D02*
X2192500Y-407500D01*
X2192500Y-992500D02*
X2207500Y-1007500D01*
X2207500Y-992500D02*
X2192500Y-1007500D01*
X2192500Y-1592500D02*
X2207500Y-1607500D01*
X2207500Y-1592500D02*
X2192500Y-1607500D01*
X2192500Y-2192500D02*
X2207500Y-2207500D01*
X2207500Y-2192500D02*
X2192500Y-2207500D01*
X2192500Y-2792500D02*
X2207500Y-2807500D01*
X2207500Y-2792500D02*
X2192500Y-2807500D01*
X2192500Y-3392500D02*
X2207500Y-3407500D01*
X2207500Y-3392500D02*
X2192500Y-3407500D01*
X2192500Y-8192500D02*
X2207500Y-8207500D01*
X2207500Y-8192500D02*
X2192500Y-8207500D01*
X2222500Y-697500D02*
X2237500Y-712500D01*
X2237500Y-697500D02*
X2222500Y-712500D01*
X2222500Y-887500D02*
X2237500Y-902500D01*
X2237500Y-887500D02*
X2222500Y-902500D01*
X2417500Y-1767500D02*
X2432500Y-1782500D01*
X2432500Y-1767500D02*
X2417500Y-1782500D01*
X2442500Y-4085000D02*
X2457500Y-4100000D01*
X2457500Y-4085000D02*
X2442500Y-4100000D01*
X2442500Y-4240000D02*
X2457500Y-4255000D01*
X2457500Y-4240000D02*
X2442500Y-4255000D01*
X2442500Y-5785000D02*
X2457500Y-5800000D01*
X2457500Y-5785000D02*
X2442500Y-5800000D01*
X2442500Y-5940000D02*
X2457500Y-5955000D01*
X2457500Y-5940000D02*
X2442500Y-5955000D01*
X2442500Y-8315000D02*
X2457500Y-8330000D01*
X2457500Y-8315000D02*
X2442500Y-8330000D01*
X2519500Y-7492500D02*
X2534500Y-7507500D01*
X2534500Y-7492500D02*
X2519500Y-7507500D01*
X2792500Y-392500D02*
X2807500Y-407500D01*
X2807500Y-392500D02*
X2792500Y-407500D01*
X2792500Y-992500D02*
X2807500Y-1007500D01*
X2807500Y-992500D02*
X2792500Y-1007500D01*
X2792500Y-1592500D02*
X2807500Y-1607500D01*
X2807500Y-1592500D02*
X2792500Y-1607500D01*
X2892500Y-410000D02*
X2907500Y-425000D01*
X2907500Y-410000D02*
X2892500Y-425000D01*
X3044786Y-8322891D02*
X3059786Y-8337891D01*
X3059786Y-8322891D02*
X3044786Y-8337891D01*
X3072500Y-2669500D02*
X3087500Y-2684500D01*
X3087500Y-2669500D02*
X3072500Y-2684500D01*
X3072500Y-4469500D02*
X3087500Y-4484500D01*
X3087500Y-4469500D02*
X3072500Y-4484500D01*
X3072500Y-6269500D02*
X3087500Y-6284500D01*
X3087500Y-6269500D02*
X3072500Y-6284500D01*
X3192500Y-410000D02*
X3207500Y-425000D01*
X3207500Y-410000D02*
X3192500Y-425000D01*
X3392500Y-392500D02*
X3407500Y-407500D01*
X3407500Y-392500D02*
X3392500Y-407500D01*
X3392500Y-992500D02*
X3407500Y-1007500D01*
X3407500Y-992500D02*
X3392500Y-1007500D01*
X3392500Y-2192500D02*
X3407500Y-2207500D01*
X3407500Y-2192500D02*
X3392500Y-2207500D01*
X3392500Y-2792500D02*
X3407500Y-2807500D01*
X3407500Y-2792500D02*
X3392500Y-2807500D01*
X3392500Y-3992500D02*
X3407500Y-4007500D01*
X3407500Y-3992500D02*
X3392500Y-4007500D01*
X3392500Y-4592500D02*
X3407500Y-4607500D01*
X3407500Y-4592500D02*
X3392500Y-4607500D01*
X3392500Y-5792500D02*
X3407500Y-5807500D01*
X3407500Y-5792500D02*
X3392500Y-5807500D01*
X3392500Y-6992500D02*
X3407500Y-7007500D01*
X3407500Y-6992500D02*
X3392500Y-7007500D01*
X3392500Y-7592500D02*
X3407500Y-7607500D01*
X3407500Y-7592500D02*
X3392500Y-7607500D01*
X3392500Y-8192500D02*
X3407500Y-8207500D01*
X3407500Y-8192500D02*
X3392500Y-8207500D01*
X3392500Y-8315000D02*
X3407500Y-8330000D01*
X3407500Y-8315000D02*
X3392500Y-8330000D01*
X3470000Y-7692500D02*
X3485000Y-7707500D01*
X3485000Y-7692500D02*
X3470000Y-7707500D01*
X3612500Y-4615500D02*
X3627500Y-4630500D01*
X3627500Y-4615500D02*
X3612500Y-4630500D01*
X3642500Y-8665000D02*
X3657500Y-8680000D01*
X3657500Y-8665000D02*
X3642500Y-8680000D01*
X3657500Y-6415500D02*
X3672500Y-6430500D01*
X3672500Y-6415500D02*
X3657500Y-6430500D01*
X3770000Y-8832500D02*
X3785000Y-8847500D01*
X3785000Y-8832500D02*
X3770000Y-8847500D01*
X3872500Y-6599500D02*
X3887500Y-6614500D01*
X3887500Y-6599500D02*
X3872500Y-6614500D01*
X3919500Y-2382500D02*
X3934500Y-2397500D01*
X3934500Y-2382500D02*
X3919500Y-2397500D01*
X3919500Y-4182500D02*
X3934500Y-4197500D01*
X3934500Y-4182500D02*
X3919500Y-4197500D01*
X3919500Y-5982500D02*
X3934500Y-5997500D01*
X3934500Y-5982500D02*
X3919500Y-5997500D01*
X3992500Y-392500D02*
X4007500Y-407500D01*
X4007500Y-392500D02*
X3992500Y-407500D01*
X3992500Y-992500D02*
X4007500Y-1007500D01*
X4007500Y-992500D02*
X3992500Y-1007500D01*
X3992500Y-1592500D02*
X4007500Y-1607500D01*
X4007500Y-1592500D02*
X3992500Y-1607500D01*
X3992500Y-2192500D02*
X4007500Y-2207500D01*
X4007500Y-2192500D02*
X3992500Y-2207500D01*
X3992500Y-3392500D02*
X4007500Y-3407500D01*
X4007500Y-3392500D02*
X3992500Y-3407500D01*
X3992500Y-3992500D02*
X4007500Y-4007500D01*
X4007500Y-3992500D02*
X3992500Y-4007500D01*
X3992500Y-4592500D02*
X4007500Y-4607500D01*
X4007500Y-4592500D02*
X3992500Y-4607500D01*
X3992500Y-5192500D02*
X4007500Y-5207500D01*
X4007500Y-5192500D02*
X3992500Y-5207500D01*
X3992500Y-5792500D02*
X4007500Y-5807500D01*
X4007500Y-5792500D02*
X3992500Y-5807500D01*
X3992500Y-6392500D02*
X4007500Y-6407500D01*
X4007500Y-6392500D02*
X3992500Y-6407500D01*
X3992500Y-6992500D02*
X4007500Y-7007500D01*
X4007500Y-6992500D02*
X3992500Y-7007500D01*
X3992500Y-8192500D02*
X4007500Y-8207500D01*
X4007500Y-8192500D02*
X3992500Y-8207500D01*
X4059500Y-282000D02*
X4074500Y-297000D01*
X4074500Y-282000D02*
X4059500Y-297000D01*
X4059500Y-700000D02*
X4074500Y-715000D01*
X4074500Y-700000D02*
X4059500Y-715000D01*
X4242500Y-2385000D02*
X4257500Y-2400000D01*
X4257500Y-2385000D02*
X4242500Y-2400000D01*
X4242500Y-4085000D02*
X4257500Y-4100000D01*
X4257500Y-4085000D02*
X4242500Y-4100000D01*
X4242500Y-5940000D02*
X4257500Y-5955000D01*
X4257500Y-5940000D02*
X4242500Y-5955000D01*
X4412500Y-6745500D02*
X4427500Y-6760500D01*
X4427500Y-6745500D02*
X4412500Y-6760500D01*
X4592500Y-392500D02*
X4607500Y-407500D01*
X4607500Y-392500D02*
X4592500Y-407500D01*
X4592500Y-992500D02*
X4607500Y-1007500D01*
X4607500Y-992500D02*
X4592500Y-1007500D01*
X4592500Y-1592500D02*
X4607500Y-1607500D01*
X4607500Y-1592500D02*
X4592500Y-1607500D01*
X4592500Y-3392500D02*
X4607500Y-3407500D01*
X4607500Y-3392500D02*
X4592500Y-3407500D01*
X4592500Y-4592500D02*
X4607500Y-4607500D01*
X4607500Y-4592500D02*
X4592500Y-4607500D01*
X4592500Y-5192500D02*
X4607500Y-5207500D01*
X4607500Y-5192500D02*
X4592500Y-5207500D01*
X4819500Y-7782500D02*
X4834500Y-7797500D01*
X4834500Y-7782500D02*
X4819500Y-7797500D01*
X4872500Y-4469500D02*
X4887500Y-4484500D01*
X4887500Y-4469500D02*
X4872500Y-4484500D01*
X4925500Y-282000D02*
X4940500Y-297000D01*
X4940500Y-282000D02*
X4925500Y-297000D01*
X4925500Y-700000D02*
X4940500Y-715000D01*
X4940500Y-700000D02*
X4925500Y-715000D01*
X5192500Y-392500D02*
X5207500Y-407500D01*
X5207500Y-392500D02*
X5192500Y-407500D01*
X5192500Y-992500D02*
X5207500Y-1007500D01*
X5207500Y-992500D02*
X5192500Y-1007500D01*
X5192500Y-2192500D02*
X5207500Y-2207500D01*
X5207500Y-2192500D02*
X5192500Y-2207500D01*
X5192500Y-2792500D02*
X5207500Y-2807500D01*
X5207500Y-2792500D02*
X5192500Y-2807500D01*
X5192500Y-3992500D02*
X5207500Y-4007500D01*
X5207500Y-3992500D02*
X5192500Y-4007500D01*
X5192500Y-4592500D02*
X5207500Y-4607500D01*
X5207500Y-4592500D02*
X5192500Y-4607500D01*
X5192500Y-5792500D02*
X5207500Y-5807500D01*
X5207500Y-5792500D02*
X5192500Y-5807500D01*
X5192500Y-6392500D02*
X5207500Y-6407500D01*
X5207500Y-6392500D02*
X5192500Y-6407500D01*
X5192500Y-6992500D02*
X5207500Y-7007500D01*
X5207500Y-6992500D02*
X5192500Y-7007500D01*
X5320000Y-8072500D02*
X5335000Y-8087500D01*
X5335000Y-8072500D02*
X5320000Y-8087500D01*
X5412500Y-2815500D02*
X5427500Y-2830500D01*
X5427500Y-2815500D02*
X5412500Y-2830500D01*
X5412500Y-6415500D02*
X5427500Y-6430500D01*
X5427500Y-6415500D02*
X5412500Y-6430500D01*
X5642500Y-8665000D02*
X5657500Y-8680000D01*
X5657500Y-8665000D02*
X5642500Y-8680000D01*
X5670000Y-7692500D02*
X5685000Y-7707500D01*
X5685000Y-7692500D02*
X5670000Y-7707500D01*
X5692500Y-677500D02*
X5707500Y-692500D01*
X5707500Y-677500D02*
X5692500Y-692500D01*
X5692500Y-907500D02*
X5707500Y-922500D01*
X5707500Y-907500D02*
X5692500Y-922500D01*
X5719500Y-2382500D02*
X5734500Y-2397500D01*
X5734500Y-2382500D02*
X5719500Y-2397500D01*
X5719500Y-4182500D02*
X5734500Y-4197500D01*
X5734500Y-4182500D02*
X5719500Y-4197500D01*
X5719500Y-5982500D02*
X5734500Y-5997500D01*
X5734500Y-5982500D02*
X5719500Y-5997500D01*
X5792500Y-392500D02*
X5807500Y-407500D01*
X5807500Y-392500D02*
X5792500Y-407500D01*
X5792500Y-1592500D02*
X5807500Y-1607500D01*
X5807500Y-1592500D02*
X5792500Y-1607500D01*
X5792500Y-2192500D02*
X5807500Y-2207500D01*
X5807500Y-2192500D02*
X5792500Y-2207500D01*
X5792500Y-2792500D02*
X5807500Y-2807500D01*
X5807500Y-2792500D02*
X5792500Y-2807500D01*
X5792500Y-3392500D02*
X5807500Y-3407500D01*
X5807500Y-3392500D02*
X5792500Y-3407500D01*
X5792500Y-3992500D02*
X5807500Y-4007500D01*
X5807500Y-3992500D02*
X5792500Y-4007500D01*
X5792500Y-4592500D02*
X5807500Y-4607500D01*
X5807500Y-4592500D02*
X5792500Y-4607500D01*
X5792500Y-5792500D02*
X5807500Y-5807500D01*
X5807500Y-5792500D02*
X5792500Y-5807500D01*
X5792500Y-6392500D02*
X5807500Y-6407500D01*
X5807500Y-6392500D02*
X5792500Y-6407500D01*
X5792500Y-7592500D02*
X5807500Y-7607500D01*
X5807500Y-7592500D02*
X5792500Y-7607500D01*
X6020000Y-2423971D02*
X6035000Y-2438971D01*
X6035000Y-2423971D02*
X6020000Y-2438971D01*
X6020000Y-4123971D02*
X6035000Y-4138971D01*
X6035000Y-4123971D02*
X6020000Y-4138971D01*
X6020000Y-5823971D02*
X6035000Y-5838971D01*
X6035000Y-5823971D02*
X6020000Y-5838971D01*
X6392500Y-392500D02*
X6407500Y-407500D01*
X6407500Y-392500D02*
X6392500Y-407500D01*
X6392500Y-992500D02*
X6407500Y-1007500D01*
X6407500Y-992500D02*
X6392500Y-1007500D01*
X6392500Y-1592500D02*
X6407500Y-1607500D01*
X6407500Y-1592500D02*
X6392500Y-1607500D01*
X6392500Y-2192500D02*
X6407500Y-2207500D01*
X6407500Y-2192500D02*
X6392500Y-2207500D01*
X6392500Y-2792500D02*
X6407500Y-2807500D01*
X6407500Y-2792500D02*
X6392500Y-2807500D01*
X6392500Y-3392500D02*
X6407500Y-3407500D01*
X6407500Y-3392500D02*
X6392500Y-3407500D01*
X6392500Y-4592500D02*
X6407500Y-4607500D01*
X6407500Y-4592500D02*
X6392500Y-4607500D01*
X6392500Y-5192500D02*
X6407500Y-5207500D01*
X6407500Y-5192500D02*
X6392500Y-5207500D01*
X6392500Y-6392500D02*
X6407500Y-6407500D01*
X6407500Y-6392500D02*
X6392500Y-6407500D01*
X6392500Y-6992500D02*
X6407500Y-7007500D01*
X6407500Y-6992500D02*
X6392500Y-7007500D01*
X6470000Y-7822500D02*
X6485000Y-7837500D01*
X6485000Y-7822500D02*
X6470000Y-7837500D01*
X6992500Y-392500D02*
X7007500Y-407500D01*
X7007500Y-392500D02*
X6992500Y-407500D01*
X6992500Y-992500D02*
X7007500Y-1007500D01*
X7007500Y-992500D02*
X6992500Y-1007500D01*
X6992500Y-1592500D02*
X7007500Y-1607500D01*
X7007500Y-1592500D02*
X6992500Y-1607500D01*
X6992500Y-2192500D02*
X7007500Y-2207500D01*
X7007500Y-2192500D02*
X6992500Y-2207500D01*
X6992500Y-2792500D02*
X7007500Y-2807500D01*
X7007500Y-2792500D02*
X6992500Y-2807500D01*
X6992500Y-3992500D02*
X7007500Y-4007500D01*
X7007500Y-3992500D02*
X6992500Y-4007500D01*
X6992500Y-5792500D02*
X7007500Y-5807500D01*
X7007500Y-5792500D02*
X6992500Y-5807500D01*
X6992500Y-6392500D02*
X7007500Y-6407500D01*
X7007500Y-6392500D02*
X6992500Y-6407500D01*
X6992500Y-7592500D02*
X7007500Y-7607500D01*
X7007500Y-7592500D02*
X6992500Y-7607500D01*
X6992500Y-8192500D02*
X7007500Y-8207500D01*
X7007500Y-8192500D02*
X6992500Y-8207500D01*
X7212500Y-6415500D02*
X7227500Y-6430500D01*
X7227500Y-6415500D02*
X7212500Y-6430500D01*
X7519500Y-4182500D02*
X7534500Y-4197500D01*
X7534500Y-4182500D02*
X7519500Y-4197500D01*
X7519500Y-5982500D02*
X7534500Y-5997500D01*
X7534500Y-5982500D02*
X7519500Y-5997500D01*
X7519500Y-7782500D02*
X7534500Y-7797500D01*
X7534500Y-7782500D02*
X7519500Y-7797500D01*
X7592500Y-392500D02*
X7607500Y-407500D01*
X7607500Y-392500D02*
X7592500Y-407500D01*
X7592500Y-992500D02*
X7607500Y-1007500D01*
X7607500Y-992500D02*
X7592500Y-1007500D01*
X7592500Y-2192500D02*
X7607500Y-2207500D01*
X7607500Y-2192500D02*
X7592500Y-2207500D01*
X7592500Y-2792500D02*
X7607500Y-2807500D01*
X7607500Y-2792500D02*
X7592500Y-2807500D01*
X7592500Y-3392500D02*
X7607500Y-3407500D01*
X7607500Y-3392500D02*
X7592500Y-3407500D01*
X7592500Y-3992500D02*
X7607500Y-4007500D01*
X7607500Y-3992500D02*
X7592500Y-4007500D01*
X7592500Y-4592500D02*
X7607500Y-4607500D01*
X7607500Y-4592500D02*
X7592500Y-4607500D01*
X7592500Y-5192500D02*
X7607500Y-5207500D01*
X7607500Y-5192500D02*
X7592500Y-5207500D01*
X7592500Y-5792500D02*
X7607500Y-5807500D01*
X7607500Y-5792500D02*
X7592500Y-5807500D01*
X7592500Y-6392500D02*
X7607500Y-6407500D01*
X7607500Y-6392500D02*
X7592500Y-6407500D01*
X7592500Y-6992500D02*
X7607500Y-7007500D01*
X7607500Y-6992500D02*
X7592500Y-7007500D01*
X7592500Y-7592500D02*
X7607500Y-7607500D01*
X7607500Y-7592500D02*
X7592500Y-7607500D01*
X7592500Y-8192500D02*
X7607500Y-8207500D01*
X7607500Y-8192500D02*
X7592500Y-8207500D01*
X7707500Y-2117500D02*
X7722500Y-2132500D01*
X7722500Y-2117500D02*
X7707500Y-2132500D01*
X7742500Y-7485000D02*
X7757500Y-7500000D01*
X7757500Y-7485000D02*
X7742500Y-7500000D01*
X7742500Y-7640000D02*
X7757500Y-7655000D01*
X7757500Y-7640000D02*
X7742500Y-7655000D01*
X7842500Y-4085000D02*
X7857500Y-4100000D01*
X7857500Y-4085000D02*
X7842500Y-4100000D01*
X7842500Y-4240000D02*
X7857500Y-4255000D01*
X7857500Y-4240000D02*
X7842500Y-4255000D01*
X7842500Y-5785000D02*
X7857500Y-5800000D01*
X7857500Y-5785000D02*
X7842500Y-5800000D01*
X7842500Y-5940000D02*
X7857500Y-5955000D01*
X7857500Y-5940000D02*
X7842500Y-5955000D01*
X7842500Y-8207500D02*
X7857500Y-8222500D01*
X7857500Y-8207500D02*
X7842500Y-8222500D01*
X7842500Y-8577500D02*
X7857500Y-8592500D01*
X7857500Y-8577500D02*
X7842500Y-8592500D01*
X7872500Y-6599500D02*
X7887500Y-6614500D01*
X7887500Y-6599500D02*
X7872500Y-6614500D01*
X8192500Y-392500D02*
X8207500Y-407500D01*
X8207500Y-392500D02*
X8192500Y-407500D01*
X8192500Y-992500D02*
X8207500Y-1007500D01*
X8207500Y-992500D02*
X8192500Y-1007500D01*
X8192500Y-1592500D02*
X8207500Y-1607500D01*
X8207500Y-1592500D02*
X8192500Y-1607500D01*
X8192500Y-2192500D02*
X8207500Y-2207500D01*
X8207500Y-2192500D02*
X8192500Y-2207500D01*
X8192500Y-2792500D02*
X8207500Y-2807500D01*
X8207500Y-2792500D02*
X8192500Y-2807500D01*
X8192500Y-3392500D02*
X8207500Y-3407500D01*
X8207500Y-3392500D02*
X8192500Y-3407500D01*
X8192500Y-3992500D02*
X8207500Y-4007500D01*
X8207500Y-3992500D02*
X8192500Y-4007500D01*
X8192500Y-4592500D02*
X8207500Y-4607500D01*
X8207500Y-4592500D02*
X8192500Y-4607500D01*
X8192500Y-5192500D02*
X8207500Y-5207500D01*
X8207500Y-5192500D02*
X8192500Y-5207500D01*
X8192500Y-5792500D02*
X8207500Y-5807500D01*
X8207500Y-5792500D02*
X8192500Y-5807500D01*
X8192500Y-6392500D02*
X8207500Y-6407500D01*
X8207500Y-6392500D02*
X8192500Y-6407500D01*
X8192500Y-6992500D02*
X8207500Y-7007500D01*
X8207500Y-6992500D02*
X8192500Y-7007500D01*
X8192500Y-7592500D02*
X8207500Y-7607500D01*
X8207500Y-7592500D02*
X8192500Y-7607500D01*
X8192500Y-8192500D02*
X8207500Y-8207500D01*
X8207500Y-8192500D02*
X8192500Y-8207500D01*
X8412500Y-6745500D02*
X8427500Y-6760500D01*
X8427500Y-6745500D02*
X8412500Y-6760500D01*
X471850Y-6542520D02*
G75*
G02*
X451850Y-6542520I-10000J0D01*
G01*
X451850Y-6542520D02*
G75*
G02*
X471850Y-6542520I10000J0D01*
G01*
X472120Y-7057210D02*
G75*
G02*
X452120Y-7057210I-10000J0D01*
G01*
X452120Y-7057210D02*
G75*
G02*
X472120Y-7057210I10000J0D01*
G01*
X493650Y-6051150D02*
G75*
G02*
X473650Y-6051150I-10000J0D01*
G01*
X473650Y-6051150D02*
G75*
G02*
X493650Y-6051150I10000J0D01*
G01*
X560000Y-6364010D02*
G75*
G02*
X540000Y-6364010I-10000J0D01*
G01*
X540000Y-6364010D02*
G75*
G02*
X560000Y-6364010I10000J0D01*
G01*
X560000Y-6937000D02*
G75*
G02*
X540000Y-6937000I-10000J0D01*
G01*
X540000Y-6937000D02*
G75*
G02*
X560000Y-6937000I10000J0D01*
G01*
X560000Y-7499720D02*
G75*
G02*
X540000Y-7499720I-10000J0D01*
G01*
X540000Y-7499720D02*
G75*
G02*
X560000Y-7499720I10000J0D01*
G01*
X790000Y-7275000D02*
G75*
G02*
X770000Y-7275000I-10000J0D01*
G01*
X770000Y-7275000D02*
G75*
G02*
X790000Y-7275000I10000J0D01*
G01*
X983000Y-4140340D02*
G75*
G02*
X963000Y-4140340I-10000J0D01*
G01*
X963000Y-4140340D02*
G75*
G02*
X983000Y-4140340I10000J0D01*
G01*
X1006460Y-8267370D02*
G75*
G02*
X986460Y-8267370I-10000J0D01*
G01*
X986460Y-8267370D02*
G75*
G02*
X1006460Y-8267370I10000J0D01*
G01*
X1060000Y-8087500D02*
G75*
G02*
X1040000Y-8087500I-10000J0D01*
G01*
X1040000Y-8087500D02*
G75*
G02*
X1060000Y-8087500I10000J0D01*
G01*
X1405050Y-7741790D02*
G75*
G02*
X1385050Y-7741790I-10000J0D01*
G01*
X1385050Y-7741790D02*
G75*
G02*
X1405050Y-7741790I10000J0D01*
G01*
X1416270Y-6391510D02*
G75*
G02*
X1396270Y-6391510I-10000J0D01*
G01*
X1396270Y-6391510D02*
G75*
G02*
X1416270Y-6391510I10000J0D01*
G01*
X1576640Y-3929950D02*
G75*
G02*
X1556640Y-3929950I-10000J0D01*
G01*
X1556640Y-3929950D02*
G75*
G02*
X1576640Y-3929950I10000J0D01*
G01*
X1608120Y-7765270D02*
G75*
G02*
X1588120Y-7765270I-10000J0D01*
G01*
X1588120Y-7765270D02*
G75*
G02*
X1608120Y-7765270I10000J0D01*
G01*
X1895170Y-7581940D02*
G75*
G02*
X1875170Y-7581940I-10000J0D01*
G01*
X1875170Y-7581940D02*
G75*
G02*
X1895170Y-7581940I10000J0D01*
G01*
X2029000Y-7660350D02*
G75*
G02*
X2009000Y-7660350I-10000J0D01*
G01*
X2009000Y-7660350D02*
G75*
G02*
X2029000Y-7660350I10000J0D01*
G01*
X2408440Y-7451490D02*
G75*
G02*
X2388440Y-7451490I-10000J0D01*
G01*
X2388440Y-7451490D02*
G75*
G02*
X2408440Y-7451490I10000J0D01*
G01*
X2507160Y-8032770D02*
G75*
G02*
X2487160Y-8032770I-10000J0D01*
G01*
X2487160Y-8032770D02*
G75*
G02*
X2507160Y-8032770I10000J0D01*
G01*
X2695380Y-7711110D02*
G75*
G02*
X2675380Y-7711110I-10000J0D01*
G01*
X2675380Y-7711110D02*
G75*
G02*
X2695380Y-7711110I10000J0D01*
G01*
X2713100Y-736750D02*
G75*
G02*
X2693100Y-736750I-10000J0D01*
G01*
X2693100Y-736750D02*
G75*
G02*
X2713100Y-736750I10000J0D01*
G01*
X2727660Y-7786710D02*
G75*
G02*
X2707660Y-7786710I-10000J0D01*
G01*
X2707660Y-7786710D02*
G75*
G02*
X2727660Y-7786710I10000J0D01*
G01*
X2783000Y-2340580D02*
G75*
G02*
X2763000Y-2340580I-10000J0D01*
G01*
X2763000Y-2340580D02*
G75*
G02*
X2783000Y-2340580I10000J0D01*
G01*
X2800000Y-8211170D02*
G75*
G02*
X2780000Y-8211170I-10000J0D01*
G01*
X2780000Y-8211170D02*
G75*
G02*
X2800000Y-8211170I10000J0D01*
G01*
X2883560Y-7273742D02*
G75*
G02*
X2863560Y-7273742I-10000J0D01*
G01*
X2863560Y-7273742D02*
G75*
G02*
X2883560Y-7273742I10000J0D01*
G01*
X2900890Y-5940510D02*
G75*
G02*
X2880890Y-5940510I-10000J0D01*
G01*
X2880890Y-5940510D02*
G75*
G02*
X2900890Y-5940510I10000J0D01*
G01*
X2941500Y-4128680D02*
G75*
G02*
X2921500Y-4128680I-10000J0D01*
G01*
X2921500Y-4128680D02*
G75*
G02*
X2941500Y-4128680I10000J0D01*
G01*
X2998240Y-591340D02*
G75*
G02*
X2978240Y-591340I-10000J0D01*
G01*
X2978240Y-591340D02*
G75*
G02*
X2998240Y-591340I10000J0D01*
G01*
X3071890Y-7901310D02*
G75*
G02*
X3051890Y-7901310I-10000J0D01*
G01*
X3051890Y-7901310D02*
G75*
G02*
X3071890Y-7901310I10000J0D01*
G01*
X3097764Y-7530390D02*
G75*
G02*
X3077764Y-7530390I-10000J0D01*
G01*
X3077764Y-7530390D02*
G75*
G02*
X3097764Y-7530390I10000J0D01*
G01*
X3175110Y-7482070D02*
G75*
G02*
X3155110Y-7482070I-10000J0D01*
G01*
X3155110Y-7482070D02*
G75*
G02*
X3175110Y-7482070I10000J0D01*
G01*
X3859330Y-8904870D02*
G75*
G02*
X3839330Y-8904870I-10000J0D01*
G01*
X3839330Y-8904870D02*
G75*
G02*
X3859330Y-8904870I10000J0D01*
G01*
X3960710Y-6833280D02*
G75*
G02*
X3940710Y-6833280I-10000J0D01*
G01*
X3940710Y-6833280D02*
G75*
G02*
X3960710Y-6833280I10000J0D01*
G01*
X3980130Y-8324620D02*
G75*
G02*
X3960130Y-8324620I-10000J0D01*
G01*
X3960130Y-8324620D02*
G75*
G02*
X3980130Y-8324620I10000J0D01*
G01*
X4002910Y-8555160D02*
G75*
G02*
X3982910Y-8555160I-10000J0D01*
G01*
X3982910Y-8555160D02*
G75*
G02*
X4002910Y-8555160I10000J0D01*
G01*
X4035510Y-8032770D02*
G75*
G02*
X4015510Y-8032770I-10000J0D01*
G01*
X4015510Y-8032770D02*
G75*
G02*
X4035510Y-8032770I10000J0D01*
G01*
X4037760Y-8434030D02*
G75*
G02*
X4017760Y-8434030I-10000J0D01*
G01*
X4017760Y-8434030D02*
G75*
G02*
X4037760Y-8434030I10000J0D01*
G01*
X4043960Y-8614010D02*
G75*
G02*
X4023960Y-8614010I-10000J0D01*
G01*
X4023960Y-8614010D02*
G75*
G02*
X4043960Y-8614010I10000J0D01*
G01*
X4083870Y-8538530D02*
G75*
G02*
X4063870Y-8538530I-10000J0D01*
G01*
X4063870Y-8538530D02*
G75*
G02*
X4083870Y-8538530I10000J0D01*
G01*
X4085190Y-8382190D02*
G75*
G02*
X4065190Y-8382190I-10000J0D01*
G01*
X4065190Y-8382190D02*
G75*
G02*
X4085190Y-8382190I10000J0D01*
G01*
X4089930Y-6226650D02*
G75*
G02*
X4069930Y-6226650I-10000J0D01*
G01*
X4069930Y-6226650D02*
G75*
G02*
X4089930Y-6226650I10000J0D01*
G01*
X4100000Y-8830000D02*
G75*
G02*
X4080000Y-8830000I-10000J0D01*
G01*
X4080000Y-8830000D02*
G75*
G02*
X4100000Y-8830000I10000J0D01*
G01*
X4125580Y-7995920D02*
G75*
G02*
X4105580Y-7995920I-10000J0D01*
G01*
X4105580Y-7995920D02*
G75*
G02*
X4125580Y-7995920I10000J0D01*
G01*
X4136100Y-7360030D02*
G75*
G02*
X4116100Y-7360030I-10000J0D01*
G01*
X4116100Y-7360030D02*
G75*
G02*
X4136100Y-7360030I10000J0D01*
G01*
X4190000Y-894530D02*
G75*
G02*
X4170000Y-894530I-10000J0D01*
G01*
X4170000Y-894530D02*
G75*
G02*
X4190000Y-894530I10000J0D01*
G01*
X4219390Y-8825880D02*
G75*
G02*
X4199390Y-8825880I-10000J0D01*
G01*
X4199390Y-8825880D02*
G75*
G02*
X4219390Y-8825880I10000J0D01*
G01*
X4251150Y-8184340D02*
G75*
G02*
X4231150Y-8184340I-10000J0D01*
G01*
X4231150Y-8184340D02*
G75*
G02*
X4251150Y-8184340I10000J0D01*
G01*
X4251830Y-8434180D02*
G75*
G02*
X4231830Y-8434180I-10000J0D01*
G01*
X4231830Y-8434180D02*
G75*
G02*
X4251830Y-8434180I10000J0D01*
G01*
X4252050Y-8580000D02*
G75*
G02*
X4232050Y-8580000I-10000J0D01*
G01*
X4232050Y-8580000D02*
G75*
G02*
X4252050Y-8580000I10000J0D01*
G01*
X4271950Y-7768390D02*
G75*
G02*
X4251950Y-7768390I-10000J0D01*
G01*
X4251950Y-7768390D02*
G75*
G02*
X4271950Y-7768390I10000J0D01*
G01*
X4273988Y-7643796D02*
G75*
G02*
X4253988Y-7643796I-10000J0D01*
G01*
X4253988Y-7643796D02*
G75*
G02*
X4273988Y-7643796I10000J0D01*
G01*
X4289890Y-8825330D02*
G75*
G02*
X4269890Y-8825330I-10000J0D01*
G01*
X4269890Y-8825330D02*
G75*
G02*
X4289890Y-8825330I10000J0D01*
G01*
X4290000Y-7946020D02*
G75*
G02*
X4270000Y-7946020I-10000J0D01*
G01*
X4270000Y-7946020D02*
G75*
G02*
X4290000Y-7946020I10000J0D01*
G01*
X4290320Y-8269560D02*
G75*
G02*
X4270320Y-8269560I-10000J0D01*
G01*
X4270320Y-8269560D02*
G75*
G02*
X4290320Y-8269560I10000J0D01*
G01*
X4323300Y-8581710D02*
G75*
G02*
X4303300Y-8581710I-10000J0D01*
G01*
X4303300Y-8581710D02*
G75*
G02*
X4323300Y-8581710I10000J0D01*
G01*
X4420830Y-8204150D02*
G75*
G02*
X4400830Y-8204150I-10000J0D01*
G01*
X4400830Y-8204150D02*
G75*
G02*
X4420830Y-8204150I10000J0D01*
G01*
X4435930Y-5437635D02*
G75*
G02*
X4415930Y-5437635I-10000J0D01*
G01*
X4415930Y-5437635D02*
G75*
G02*
X4435930Y-5437635I10000J0D01*
G01*
X4438310Y-8926440D02*
G75*
G02*
X4418310Y-8926440I-10000J0D01*
G01*
X4418310Y-8926440D02*
G75*
G02*
X4438310Y-8926440I10000J0D01*
G01*
X4451360Y-4141300D02*
G75*
G02*
X4431360Y-4141300I-10000J0D01*
G01*
X4431360Y-4141300D02*
G75*
G02*
X4451360Y-4141300I10000J0D01*
G01*
X4480000Y-670000D02*
G75*
G02*
X4460000Y-670000I-10000J0D01*
G01*
X4460000Y-670000D02*
G75*
G02*
X4480000Y-670000I10000J0D01*
G01*
X4501520Y-8140810D02*
G75*
G02*
X4481520Y-8140810I-10000J0D01*
G01*
X4481520Y-8140810D02*
G75*
G02*
X4501520Y-8140810I10000J0D01*
G01*
X4510040Y-2341020D02*
G75*
G02*
X4490040Y-2341020I-10000J0D01*
G01*
X4490040Y-2341020D02*
G75*
G02*
X4510040Y-2341020I10000J0D01*
G01*
X4537860Y-6531090D02*
G75*
G02*
X4517860Y-6531090I-10000J0D01*
G01*
X4517860Y-6531090D02*
G75*
G02*
X4537860Y-6531090I10000J0D01*
G01*
X4579690Y-8869620D02*
G75*
G02*
X4559690Y-8869620I-10000J0D01*
G01*
X4559690Y-8869620D02*
G75*
G02*
X4579690Y-8869620I10000J0D01*
G01*
X4608960Y-8140230D02*
G75*
G02*
X4588960Y-8140230I-10000J0D01*
G01*
X4588960Y-8140230D02*
G75*
G02*
X4608960Y-8140230I10000J0D01*
G01*
X4611760Y-8639530D02*
G75*
G02*
X4591760Y-8639530I-10000J0D01*
G01*
X4591760Y-8639530D02*
G75*
G02*
X4611760Y-8639530I10000J0D01*
G01*
X4675550Y-8604060D02*
G75*
G02*
X4655550Y-8604060I-10000J0D01*
G01*
X4655550Y-8604060D02*
G75*
G02*
X4675550Y-8604060I10000J0D01*
G01*
X4685000Y-677450D02*
G75*
G02*
X4665000Y-677450I-10000J0D01*
G01*
X4665000Y-677450D02*
G75*
G02*
X4685000Y-677450I10000J0D01*
G01*
X4743020Y-8158380D02*
G75*
G02*
X4723020Y-8158380I-10000J0D01*
G01*
X4723020Y-8158380D02*
G75*
G02*
X4743020Y-8158380I10000J0D01*
G01*
X4746840Y-8277090D02*
G75*
G02*
X4726840Y-8277090I-10000J0D01*
G01*
X4726840Y-8277090D02*
G75*
G02*
X4746840Y-8277090I10000J0D01*
G01*
X4768030Y-8445800D02*
G75*
G02*
X4748030Y-8445800I-10000J0D01*
G01*
X4748030Y-8445800D02*
G75*
G02*
X4768030Y-8445800I10000J0D01*
G01*
X4840000Y-8885000D02*
G75*
G02*
X4820000Y-8885000I-10000J0D01*
G01*
X4820000Y-8885000D02*
G75*
G02*
X4840000Y-8885000I10000J0D01*
G01*
X4887140Y-8088490D02*
G75*
G02*
X4867140Y-8088490I-10000J0D01*
G01*
X4867140Y-8088490D02*
G75*
G02*
X4887140Y-8088490I10000J0D01*
G01*
X4925220Y-8025810D02*
G75*
G02*
X4905220Y-8025810I-10000J0D01*
G01*
X4905220Y-8025810D02*
G75*
G02*
X4925220Y-8025810I10000J0D01*
G01*
X4935030Y-8380000D02*
G75*
G02*
X4915030Y-8380000I-10000J0D01*
G01*
X4915030Y-8380000D02*
G75*
G02*
X4935030Y-8380000I10000J0D01*
G01*
X4935160Y-8180160D02*
G75*
G02*
X4915160Y-8180160I-10000J0D01*
G01*
X4915160Y-8180160D02*
G75*
G02*
X4935160Y-8180160I10000J0D01*
G01*
X5015560Y-8185370D02*
G75*
G02*
X4995560Y-8185370I-10000J0D01*
G01*
X4995560Y-8185370D02*
G75*
G02*
X5015560Y-8185370I10000J0D01*
G01*
X5073510Y-8085200D02*
G75*
G02*
X5053510Y-8085200I-10000J0D01*
G01*
X5053510Y-8085200D02*
G75*
G02*
X5073510Y-8085200I10000J0D01*
G01*
X5085740Y-8175710D02*
G75*
G02*
X5065740Y-8175710I-10000J0D01*
G01*
X5065740Y-8175710D02*
G75*
G02*
X5085740Y-8175710I10000J0D01*
G01*
X5187230Y-7991680D02*
G75*
G02*
X5167230Y-7991680I-10000J0D01*
G01*
X5167230Y-7991680D02*
G75*
G02*
X5187230Y-7991680I10000J0D01*
G01*
X5293070Y-7897770D02*
G75*
G02*
X5273070Y-7897770I-10000J0D01*
G01*
X5273070Y-7897770D02*
G75*
G02*
X5293070Y-7897770I10000J0D01*
G01*
X5303630Y-2675230D02*
G75*
G02*
X5283630Y-2675230I-10000J0D01*
G01*
X5283630Y-2675230D02*
G75*
G02*
X5303630Y-2675230I10000J0D01*
G01*
X5576787Y-638742D02*
G75*
G02*
X5556787Y-638742I-10000J0D01*
G01*
X5556787Y-638742D02*
G75*
G02*
X5576787Y-638742I10000J0D01*
G01*
X5912049Y-8704800D02*
G75*
G02*
X5892049Y-8704800I-10000J0D01*
G01*
X5892049Y-8704800D02*
G75*
G02*
X5912049Y-8704800I10000J0D01*
G01*
X5971160Y-5760500D02*
G75*
G02*
X5951160Y-5760500I-10000J0D01*
G01*
X5951160Y-5760500D02*
G75*
G02*
X5971160Y-5760500I10000J0D01*
G01*
X6291220Y-4140280D02*
G75*
G02*
X6271220Y-4140280I-10000J0D01*
G01*
X6271220Y-4140280D02*
G75*
G02*
X6291220Y-4140280I10000J0D01*
G01*
X6303841Y-4343050D02*
G75*
G02*
X6283841Y-4343050I-10000J0D01*
G01*
X6283841Y-4343050D02*
G75*
G02*
X6303841Y-4343050I10000J0D01*
G01*
X6337760Y-498290D02*
G75*
G02*
X6317760Y-498290I-10000J0D01*
G01*
X6317760Y-498290D02*
G75*
G02*
X6337760Y-498290I10000J0D01*
G01*
X6378010Y-8558680D02*
G75*
G02*
X6358010Y-8558680I-10000J0D01*
G01*
X6358010Y-8558680D02*
G75*
G02*
X6378010Y-8558680I10000J0D01*
G01*
X6383000Y-7741200D02*
G75*
G02*
X6363000Y-7741200I-10000J0D01*
G01*
X6363000Y-7741200D02*
G75*
G02*
X6383000Y-7741200I10000J0D01*
G01*
X6537650Y-8516960D02*
G75*
G02*
X6517650Y-8516960I-10000J0D01*
G01*
X6517650Y-8516960D02*
G75*
G02*
X6537650Y-8516960I10000J0D01*
G01*
X6631800Y-498550D02*
G75*
G02*
X6611800Y-498550I-10000J0D01*
G01*
X6611800Y-498550D02*
G75*
G02*
X6631800Y-498550I10000J0D01*
G01*
X6673000Y-8314570D02*
G75*
G02*
X6653000Y-8314570I-10000J0D01*
G01*
X6653000Y-8314570D02*
G75*
G02*
X6673000Y-8314570I10000J0D01*
G01*
X7103000Y-4477000D02*
G75*
G02*
X7083000Y-4477000I-10000J0D01*
G01*
X7083000Y-4477000D02*
G75*
G02*
X7103000Y-4477000I10000J0D01*
G01*
X7104060Y-6277000D02*
G75*
G02*
X7084060Y-6277000I-10000J0D01*
G01*
X7084060Y-6277000D02*
G75*
G02*
X7104060Y-6277000I10000J0D01*
G01*
X7777120Y-6822320D02*
G75*
G02*
X7757120Y-6822320I-10000J0D01*
G01*
X7757120Y-6822320D02*
G75*
G02*
X7777120Y-6822320I10000J0D01*
G01*
X4210000Y-620000D02*
X4210000Y-695000D01*
X4172500Y-657500D02*
X4247500Y-657500D01*
X4790000Y-620000D02*
X4790000Y-695000D01*
X4752500Y-657500D02*
X4827500Y-657500D01*
X4095284Y-317785D02*
X4095284Y-261215D01*
X4038715Y-261215D01*
X4038715Y-317785D01*
X4095284Y-317785D01*
X4027000Y-259500D02*
X4027000Y-319500D01*
X4107000Y-319500D02*
G75*
G02*
X4027000Y-319500I-40000J0D01*
G01*
X4107000Y-319500D02*
X4107000Y-259500D01*
X4107000Y-259500D02*
G75*
G03*
X4027000Y-259500I-40000J0D01*
G01*
X4095284Y-735784D02*
X4095284Y-679216D01*
X4038715Y-679216D01*
X4038715Y-735784D01*
X4095284Y-735784D01*
X4027000Y-667499D02*
X4027000Y-747501D01*
X4107000Y-747501D02*
G75*
G02*
X4027000Y-747501I-40000J0D01*
G01*
X4107000Y-747501D02*
X4107000Y-667499D01*
X4107000Y-667499D02*
G75*
G03*
X4027000Y-667499I-40000J0D01*
G01*
X4961285Y-317785D02*
X4961285Y-261215D01*
X4904716Y-261215D01*
X4904716Y-317785D01*
X4961285Y-317785D01*
X4893000Y-259500D02*
X4893000Y-319500D01*
X4973000Y-319500D02*
G75*
G02*
X4893000Y-319500I-40000J0D01*
G01*
X4973000Y-319500D02*
X4973000Y-259500D01*
X4973000Y-259500D02*
G75*
G03*
X4893000Y-259500I-40000J0D01*
G01*
X4961285Y-735784D02*
X4961285Y-679216D01*
X4904716Y-679216D01*
X4904716Y-735784D01*
X4961285Y-735784D01*
X4893000Y-667501D02*
X4893000Y-747499D01*
X4973000Y-747499D02*
G75*
G02*
X4893000Y-747499I-40000J0D01*
G01*
X4973000Y-747499D02*
X4973000Y-667501D01*
X4973000Y-667501D02*
G75*
G03*
X4893000Y-667501I-40000J0D01*
G01*
X6685000Y-1895000D02*
X6735000Y-1845000D01*
X6685000Y-1795000D01*
X6635000Y-1845000D01*
X6685000Y-1895000D01*
X7715000Y-1895000D02*
X7765000Y-1845000D01*
X7715000Y-1795000D01*
X7665000Y-1845000D01*
X7715000Y-1895000D01*
D12*
X1486000Y-1015000D02*
X1606000Y-1135000D01*
X1606000Y-1015000D02*
X1486000Y-1135000D01*
X1606000Y-1075000D02*
G75*
G02*
X1486000Y-1075000I-60000J0D01*
G01*
X1486000Y-1075000D02*
G75*
G02*
X1606000Y-1075000I60000J0D01*
G01*
X1486000Y-2465000D02*
X1606000Y-2585000D01*
X1606000Y-2465000D02*
X1486000Y-2585000D01*
X1606000Y-2525000D02*
G75*
G02*
X1486000Y-2525000I-60000J0D01*
G01*
X1486000Y-2525000D02*
G75*
G02*
X1606000Y-2525000I60000J0D01*
G01*
X1740000Y-2465000D02*
X1860000Y-2585000D01*
X1860000Y-2465000D02*
X1740000Y-2585000D01*
X1860000Y-2525000D02*
G75*
G02*
X1740000Y-2525000I-60000J0D01*
G01*
X1740000Y-2525000D02*
G75*
G02*
X1860000Y-2525000I60000J0D01*
G01*
X1994000Y-1015000D02*
X2114000Y-1135000D01*
X2114000Y-1015000D02*
X1994000Y-1135000D01*
X2114000Y-1075000D02*
G75*
G02*
X1994000Y-1075000I-60000J0D01*
G01*
X1994000Y-1075000D02*
G75*
G02*
X2114000Y-1075000I60000J0D01*
G01*
X1994000Y-2465000D02*
X2114000Y-2585000D01*
X2114000Y-2465000D02*
X1994000Y-2585000D01*
X2114000Y-2525000D02*
G75*
G02*
X1994000Y-2525000I-60000J0D01*
G01*
X1994000Y-2525000D02*
G75*
G02*
X2114000Y-2525000I60000J0D01*
G01*
D13*
X6625000Y-1415000D02*
X6745000Y-1535000D01*
X6745000Y-1415000D02*
X6625000Y-1535000D01*
X6685000Y-1415000D02*
X6685000Y-1535000D01*
X6625000Y-1475000D02*
X6745000Y-1475000D01*
X6625000Y-2065000D02*
X6745000Y-2185000D01*
X6745000Y-2065000D02*
X6625000Y-2185000D01*
X6685000Y-2065000D02*
X6685000Y-2185000D01*
X6625000Y-2125000D02*
X6745000Y-2125000D01*
X7655000Y-1415000D02*
X7775000Y-1535000D01*
X7775000Y-1415000D02*
X7655000Y-1535000D01*
X7715000Y-1415000D02*
X7715000Y-1535000D01*
X7655000Y-1475000D02*
X7775000Y-1475000D01*
X7655000Y-2065000D02*
X7775000Y-2185000D01*
X7775000Y-2065000D02*
X7655000Y-2185000D01*
X7715000Y-2065000D02*
X7715000Y-2185000D01*
X7655000Y-2125000D02*
X7775000Y-2125000D01*
D14*
X1089999Y-1689999D02*
X1260001Y-1860001D01*
X1260001Y-1689999D02*
X1089999Y-1860001D01*
X1235105Y-1835105D02*
X1235105Y-1714895D01*
X1114895Y-1714895D01*
X1114895Y-1835105D01*
X1235105Y-1835105D01*
D10*
X1260001Y-1829999D02*
X1260001Y-1720001D01*
X1089999Y-1720001D02*
G75*
G02*
X1260001Y-1720001I85001J0D01*
G01*
X1089999Y-1720001D02*
X1089999Y-1829999D01*
X1089999Y-1829999D02*
G75*
G03*
X1260001Y-1829999I85001J0D01*
G01*
D14*
X2339999Y-1689999D02*
X2510001Y-1860001D01*
X2510001Y-1689999D02*
X2339999Y-1860001D01*
X2485105Y-1835105D02*
X2485105Y-1714895D01*
X2364895Y-1714895D01*
X2364895Y-1835105D01*
X2485105Y-1835105D01*
D10*
X2510001Y-1829999D02*
X2510001Y-1720001D01*
X2339999Y-1720001D02*
G75*
G02*
X2510001Y-1720001I85001J0D01*
G01*
X2339999Y-1720001D02*
X2339999Y-1829999D01*
X2339999Y-1829999D02*
G75*
G03*
X2510001Y-1829999I85001J0D01*
G01*
D15*
X1150000Y-3820000D02*
X1450000Y-4120000D01*
X1450000Y-3820000D02*
X1150000Y-4120000D01*
X1300000Y-4120000D02*
X1450000Y-3970000D01*
X1300000Y-3820000D01*
X1150000Y-3970000D01*
X1300000Y-4120000D01*
X1150000Y-5620000D02*
X1450000Y-5920000D01*
X1450000Y-5620000D02*
X1150000Y-5920000D01*
X1300000Y-5920000D02*
X1450000Y-5770000D01*
X1300000Y-5620000D01*
X1150000Y-5770000D01*
X1300000Y-5920000D01*
X1650000Y-4040000D02*
X1950000Y-4340000D01*
X1950000Y-4040000D02*
X1650000Y-4340000D01*
X1800000Y-4340000D02*
X1950000Y-4190000D01*
X1800000Y-4040000D01*
X1650000Y-4190000D01*
X1800000Y-4340000D01*
X1650000Y-5840000D02*
X1950000Y-6140000D01*
X1950000Y-5840000D02*
X1650000Y-6140000D01*
X1800000Y-6140000D02*
X1950000Y-5990000D01*
X1800000Y-5840000D01*
X1650000Y-5990000D01*
X1800000Y-6140000D01*
X2950000Y-2020000D02*
X3250000Y-2320000D01*
X3250000Y-2020000D02*
X2950000Y-2320000D01*
X3100000Y-2320000D02*
X3250000Y-2170000D01*
X3100000Y-2020000D01*
X2950000Y-2170000D01*
X3100000Y-2320000D01*
X2950000Y-3820000D02*
X3250000Y-4120000D01*
X3250000Y-3820000D02*
X2950000Y-4120000D01*
X3100000Y-4120000D02*
X3250000Y-3970000D01*
X3100000Y-3820000D01*
X2950000Y-3970000D01*
X3100000Y-4120000D01*
X2950000Y-5620000D02*
X3250000Y-5920000D01*
X3250000Y-5620000D02*
X2950000Y-5920000D01*
X3100000Y-5920000D02*
X3250000Y-5770000D01*
X3100000Y-5620000D01*
X2950000Y-5770000D01*
X3100000Y-5920000D01*
X3450000Y-2240000D02*
X3750000Y-2540000D01*
X3750000Y-2240000D02*
X3450000Y-2540000D01*
X3600000Y-2540000D02*
X3750000Y-2390000D01*
X3600000Y-2240000D01*
X3450000Y-2390000D01*
X3600000Y-2540000D01*
X3450000Y-4040000D02*
X3750000Y-4340000D01*
X3750000Y-4040000D02*
X3450000Y-4340000D01*
X3600000Y-4340000D02*
X3750000Y-4190000D01*
X3600000Y-4040000D01*
X3450000Y-4190000D01*
X3600000Y-4340000D01*
X3450000Y-5840000D02*
X3750000Y-6140000D01*
X3750000Y-5840000D02*
X3450000Y-6140000D01*
X3600000Y-6140000D02*
X3750000Y-5990000D01*
X3600000Y-5840000D01*
X3450000Y-5990000D01*
X3600000Y-6140000D01*
X3850000Y-7420000D02*
X4150000Y-7720000D01*
X4150000Y-7420000D02*
X3850000Y-7720000D01*
X4000000Y-7720000D02*
X4150000Y-7570000D01*
X4000000Y-7420000D01*
X3850000Y-7570000D01*
X4000000Y-7720000D01*
X4350000Y-7640000D02*
X4650000Y-7940000D01*
X4650000Y-7640000D02*
X4350000Y-7940000D01*
X4500000Y-7940000D02*
X4650000Y-7790000D01*
X4500000Y-7640000D01*
X4350000Y-7790000D01*
X4500000Y-7940000D01*
X4750000Y-2020000D02*
X5050000Y-2320000D01*
X5050000Y-2020000D02*
X4750000Y-2320000D01*
X4900000Y-2320000D02*
X5050000Y-2170000D01*
X4900000Y-2020000D01*
X4750000Y-2170000D01*
X4900000Y-2320000D01*
X4750000Y-3820000D02*
X5050000Y-4120000D01*
X5050000Y-3820000D02*
X4750000Y-4120000D01*
X4900000Y-4120000D02*
X5050000Y-3970000D01*
X4900000Y-3820000D01*
X4750000Y-3970000D01*
X4900000Y-4120000D01*
X4750000Y-5620000D02*
X5050000Y-5920000D01*
X5050000Y-5620000D02*
X4750000Y-5920000D01*
X4900000Y-5920000D02*
X5050000Y-5770000D01*
X4900000Y-5620000D01*
X4750000Y-5770000D01*
X4900000Y-5920000D01*
X5250000Y-2240000D02*
X5550000Y-2540000D01*
X5550000Y-2240000D02*
X5250000Y-2540000D01*
X5400000Y-2540000D02*
X5550000Y-2390000D01*
X5400000Y-2240000D01*
X5250000Y-2390000D01*
X5400000Y-2540000D01*
X5250000Y-4040000D02*
X5550000Y-4340000D01*
X5550000Y-4040000D02*
X5250000Y-4340000D01*
X5400000Y-4340000D02*
X5550000Y-4190000D01*
X5400000Y-4040000D01*
X5250000Y-4190000D01*
X5400000Y-4340000D01*
X5250000Y-5840000D02*
X5550000Y-6140000D01*
X5550000Y-5840000D02*
X5250000Y-6140000D01*
X5400000Y-6140000D02*
X5550000Y-5990000D01*
X5400000Y-5840000D01*
X5250000Y-5990000D01*
X5400000Y-6140000D01*
X6550000Y-3820000D02*
X6850000Y-4120000D01*
X6850000Y-3820000D02*
X6550000Y-4120000D01*
X6700000Y-4120000D02*
X6850000Y-3970000D01*
X6700000Y-3820000D01*
X6550000Y-3970000D01*
X6700000Y-4120000D01*
X6550000Y-5620000D02*
X6850000Y-5920000D01*
X6850000Y-5620000D02*
X6550000Y-5920000D01*
X6700000Y-5920000D02*
X6850000Y-5770000D01*
X6700000Y-5620000D01*
X6550000Y-5770000D01*
X6700000Y-5920000D01*
X6550000Y-7420000D02*
X6850000Y-7720000D01*
X6850000Y-7420000D02*
X6550000Y-7720000D01*
X6700000Y-7720000D02*
X6850000Y-7570000D01*
X6700000Y-7420000D01*
X6550000Y-7570000D01*
X6700000Y-7720000D01*
X7050000Y-4040000D02*
X7350000Y-4340000D01*
X7350000Y-4040000D02*
X7050000Y-4340000D01*
X7200000Y-4340000D02*
X7350000Y-4190000D01*
X7200000Y-4040000D01*
X7050000Y-4190000D01*
X7200000Y-4340000D01*
X7050000Y-5840000D02*
X7350000Y-6140000D01*
X7350000Y-5840000D02*
X7050000Y-6140000D01*
X7200000Y-6140000D02*
X7350000Y-5990000D01*
X7200000Y-5840000D01*
X7050000Y-5990000D01*
X7200000Y-6140000D01*
X7050000Y-7640000D02*
X7350000Y-7940000D01*
X7350000Y-7640000D02*
X7050000Y-7940000D01*
X7200000Y-7940000D02*
X7350000Y-7790000D01*
X7200000Y-7640000D01*
X7050000Y-7790000D01*
X7200000Y-7940000D01*
D11*
X255777Y-9316484D02*
X255777Y-9116484D01*
X255777Y-9116484D02*
X303396Y-9116484D01*
X303396Y-9116484D02*
X331967Y-9126008D01*
X331967Y-9126008D02*
X351015Y-9145055D01*
X351015Y-9145055D02*
X360539Y-9164103D01*
X360539Y-9164103D02*
X370062Y-9202198D01*
X370062Y-9202198D02*
X370062Y-9230770D01*
X370062Y-9230770D02*
X360539Y-9268865D01*
X360539Y-9268865D02*
X351015Y-9287912D01*
X351015Y-9287912D02*
X331967Y-9306960D01*
X331967Y-9306960D02*
X303396Y-9316484D01*
X303396Y-9316484D02*
X255777Y-9316484D01*
X455777Y-9316484D02*
X455777Y-9183150D01*
X455777Y-9221246D02*
X465301Y-9202198D01*
X465301Y-9202198D02*
X474824Y-9192674D01*
X474824Y-9192674D02*
X493872Y-9183150D01*
X493872Y-9183150D02*
X512920Y-9183150D01*
X579586Y-9316484D02*
X579586Y-9183150D01*
X579586Y-9116484D02*
X570063Y-9126008D01*
X570063Y-9126008D02*
X579586Y-9135531D01*
X579586Y-9135531D02*
X589110Y-9126008D01*
X589110Y-9126008D02*
X579586Y-9116484D01*
X579586Y-9116484D02*
X579586Y-9135531D01*
X703396Y-9316484D02*
X684348Y-9306960D01*
X684348Y-9306960D02*
X674824Y-9287912D01*
X674824Y-9287912D02*
X674824Y-9116484D01*
X808158Y-9316484D02*
X789110Y-9306960D01*
X789110Y-9306960D02*
X779586Y-9287912D01*
X779586Y-9287912D02*
X779586Y-9116484D01*
X1036729Y-9316484D02*
X1036729Y-9116484D01*
X1036729Y-9116484D02*
X1103396Y-9259341D01*
X1103396Y-9259341D02*
X1170063Y-9116484D01*
X1170063Y-9116484D02*
X1170063Y-9316484D01*
X1351015Y-9316484D02*
X1351015Y-9211722D01*
X1351015Y-9211722D02*
X1341491Y-9192674D01*
X1341491Y-9192674D02*
X1322444Y-9183150D01*
X1322444Y-9183150D02*
X1284348Y-9183150D01*
X1284348Y-9183150D02*
X1265301Y-9192674D01*
X1351015Y-9306960D02*
X1331967Y-9316484D01*
X1331967Y-9316484D02*
X1284348Y-9316484D01*
X1284348Y-9316484D02*
X1265301Y-9306960D01*
X1265301Y-9306960D02*
X1255777Y-9287912D01*
X1255777Y-9287912D02*
X1255777Y-9268865D01*
X1255777Y-9268865D02*
X1265301Y-9249817D01*
X1265301Y-9249817D02*
X1284348Y-9240293D01*
X1284348Y-9240293D02*
X1331967Y-9240293D01*
X1331967Y-9240293D02*
X1351015Y-9230770D01*
X1446253Y-9183150D02*
X1446253Y-9383150D01*
X1446253Y-9192674D02*
X1465301Y-9183150D01*
X1465301Y-9183150D02*
X1503396Y-9183150D01*
X1503396Y-9183150D02*
X1522443Y-9192674D01*
X1522443Y-9192674D02*
X1531967Y-9202198D01*
X1531967Y-9202198D02*
X1541491Y-9221246D01*
X1541491Y-9221246D02*
X1541491Y-9278389D01*
X1541491Y-9278389D02*
X1531967Y-9297436D01*
X1531967Y-9297436D02*
X1522443Y-9306960D01*
X1522443Y-9306960D02*
X1503396Y-9316484D01*
X1503396Y-9316484D02*
X1465301Y-9316484D01*
X1465301Y-9316484D02*
X1446253Y-9306960D01*
X1627205Y-9297436D02*
X1636729Y-9306960D01*
X1636729Y-9306960D02*
X1627205Y-9316484D01*
X1627205Y-9316484D02*
X1617682Y-9306960D01*
X1617682Y-9306960D02*
X1627205Y-9297436D01*
X1627205Y-9297436D02*
X1627205Y-9316484D01*
X1627205Y-9192674D02*
X1636729Y-9202198D01*
X1636729Y-9202198D02*
X1627205Y-9211722D01*
X1627205Y-9211722D02*
X1617682Y-9202198D01*
X1617682Y-9202198D02*
X1627205Y-9192674D01*
X1627205Y-9192674D02*
X1627205Y-9211722D01*
D10*
X-20000Y-9637500D02*
X-5000Y-9652500D01*
X-5000Y-9637500D02*
X-20000Y-9652500D01*
D11*
X293872Y-9536484D02*
X312920Y-9536484D01*
X312920Y-9536484D02*
X331967Y-9546008D01*
X331967Y-9546008D02*
X341491Y-9555531D01*
X341491Y-9555531D02*
X351015Y-9574579D01*
X351015Y-9574579D02*
X360539Y-9612674D01*
X360539Y-9612674D02*
X360539Y-9660293D01*
X360539Y-9660293D02*
X351015Y-9698389D01*
X351015Y-9698389D02*
X341491Y-9717436D01*
X341491Y-9717436D02*
X331967Y-9726960D01*
X331967Y-9726960D02*
X312920Y-9736484D01*
X312920Y-9736484D02*
X293872Y-9736484D01*
X293872Y-9736484D02*
X274824Y-9726960D01*
X274824Y-9726960D02*
X265301Y-9717436D01*
X265301Y-9717436D02*
X255777Y-9698389D01*
X255777Y-9698389D02*
X246253Y-9660293D01*
X246253Y-9660293D02*
X246253Y-9612674D01*
X246253Y-9612674D02*
X255777Y-9574579D01*
X255777Y-9574579D02*
X265301Y-9555531D01*
X265301Y-9555531D02*
X274824Y-9546008D01*
X274824Y-9546008D02*
X293872Y-9536484D01*
X446253Y-9717436D02*
X455777Y-9726960D01*
X455777Y-9726960D02*
X446253Y-9736484D01*
X446253Y-9736484D02*
X436729Y-9726960D01*
X436729Y-9726960D02*
X446253Y-9717436D01*
X446253Y-9717436D02*
X446253Y-9736484D01*
X646253Y-9736484D02*
X531967Y-9736484D01*
X589110Y-9736484D02*
X589110Y-9536484D01*
X589110Y-9536484D02*
X570063Y-9565055D01*
X570063Y-9565055D02*
X551015Y-9584103D01*
X551015Y-9584103D02*
X531967Y-9593627D01*
X827205Y-9536484D02*
X731967Y-9536484D01*
X731967Y-9536484D02*
X722443Y-9631722D01*
X722443Y-9631722D02*
X731967Y-9622198D01*
X731967Y-9622198D02*
X751015Y-9612674D01*
X751015Y-9612674D02*
X798634Y-9612674D01*
X798634Y-9612674D02*
X817682Y-9622198D01*
X817682Y-9622198D02*
X827205Y-9631722D01*
X827205Y-9631722D02*
X836729Y-9650770D01*
X836729Y-9650770D02*
X836729Y-9698389D01*
X836729Y-9698389D02*
X827205Y-9717436D01*
X827205Y-9717436D02*
X817682Y-9726960D01*
X817682Y-9726960D02*
X798634Y-9736484D01*
X798634Y-9736484D02*
X751015Y-9736484D01*
X751015Y-9736484D02*
X731967Y-9726960D01*
X731967Y-9726960D02*
X722443Y-9717436D01*
X960539Y-9536484D02*
X979586Y-9536484D01*
X979586Y-9536484D02*
X998634Y-9546008D01*
X998634Y-9546008D02*
X1008158Y-9555531D01*
X1008158Y-9555531D02*
X1017682Y-9574579D01*
X1017682Y-9574579D02*
X1027205Y-9612674D01*
X1027205Y-9612674D02*
X1027205Y-9660293D01*
X1027205Y-9660293D02*
X1017682Y-9698389D01*
X1017682Y-9698389D02*
X1008158Y-9717436D01*
X1008158Y-9717436D02*
X998634Y-9726960D01*
X998634Y-9726960D02*
X979586Y-9736484D01*
X979586Y-9736484D02*
X960539Y-9736484D01*
X960539Y-9736484D02*
X941491Y-9726960D01*
X941491Y-9726960D02*
X931967Y-9717436D01*
X931967Y-9717436D02*
X922443Y-9698389D01*
X922443Y-9698389D02*
X912920Y-9660293D01*
X912920Y-9660293D02*
X912920Y-9612674D01*
X912920Y-9612674D02*
X922443Y-9574579D01*
X922443Y-9574579D02*
X931967Y-9555531D01*
X931967Y-9555531D02*
X941491Y-9546008D01*
X941491Y-9546008D02*
X960539Y-9536484D01*
X1112920Y-9736484D02*
X1112920Y-9603150D01*
X1112920Y-9622198D02*
X1122444Y-9612674D01*
X1122444Y-9612674D02*
X1141491Y-9603150D01*
X1141491Y-9603150D02*
X1170063Y-9603150D01*
X1170063Y-9603150D02*
X1189110Y-9612674D01*
X1189110Y-9612674D02*
X1198634Y-9631722D01*
X1198634Y-9631722D02*
X1198634Y-9736484D01*
X1198634Y-9631722D02*
X1208158Y-9612674D01*
X1208158Y-9612674D02*
X1227205Y-9603150D01*
X1227205Y-9603150D02*
X1255777Y-9603150D01*
X1255777Y-9603150D02*
X1274825Y-9612674D01*
X1274825Y-9612674D02*
X1284348Y-9631722D01*
X1284348Y-9631722D02*
X1284348Y-9736484D01*
X1379586Y-9736484D02*
X1379586Y-9603150D01*
X1379586Y-9622198D02*
X1389110Y-9612674D01*
X1389110Y-9612674D02*
X1408158Y-9603150D01*
X1408158Y-9603150D02*
X1436729Y-9603150D01*
X1436729Y-9603150D02*
X1455777Y-9612674D01*
X1455777Y-9612674D02*
X1465301Y-9631722D01*
X1465301Y-9631722D02*
X1465301Y-9736484D01*
X1465301Y-9631722D02*
X1474824Y-9612674D01*
X1474824Y-9612674D02*
X1493872Y-9603150D01*
X1493872Y-9603150D02*
X1522443Y-9603150D01*
X1522443Y-9603150D02*
X1541491Y-9612674D01*
X1541491Y-9612674D02*
X1551015Y-9631722D01*
X1551015Y-9631722D02*
X1551015Y-9736484D01*
X1941491Y-9526960D02*
X1770063Y-9784103D01*
X2198634Y-9536484D02*
X2217682Y-9536484D01*
X2217682Y-9536484D02*
X2236729Y-9546008D01*
X2236729Y-9546008D02*
X2246253Y-9555531D01*
X2246253Y-9555531D02*
X2255777Y-9574579D01*
X2255777Y-9574579D02*
X2265301Y-9612674D01*
X2265301Y-9612674D02*
X2265301Y-9660293D01*
X2265301Y-9660293D02*
X2255777Y-9698389D01*
X2255777Y-9698389D02*
X2246253Y-9717436D01*
X2246253Y-9717436D02*
X2236729Y-9726960D01*
X2236729Y-9726960D02*
X2217682Y-9736484D01*
X2217682Y-9736484D02*
X2198634Y-9736484D01*
X2198634Y-9736484D02*
X2179587Y-9726960D01*
X2179587Y-9726960D02*
X2170063Y-9717436D01*
X2170063Y-9717436D02*
X2160539Y-9698389D01*
X2160539Y-9698389D02*
X2151015Y-9660293D01*
X2151015Y-9660293D02*
X2151015Y-9612674D01*
X2151015Y-9612674D02*
X2160539Y-9574579D01*
X2160539Y-9574579D02*
X2170063Y-9555531D01*
X2170063Y-9555531D02*
X2179587Y-9546008D01*
X2179587Y-9546008D02*
X2198634Y-9536484D01*
X2351015Y-9717436D02*
X2360539Y-9726960D01*
X2360539Y-9726960D02*
X2351015Y-9736484D01*
X2351015Y-9736484D02*
X2341491Y-9726960D01*
X2341491Y-9726960D02*
X2351015Y-9717436D01*
X2351015Y-9717436D02*
X2351015Y-9736484D01*
X2484348Y-9536484D02*
X2503396Y-9536484D01*
X2503396Y-9536484D02*
X2522444Y-9546008D01*
X2522444Y-9546008D02*
X2531968Y-9555531D01*
X2531968Y-9555531D02*
X2541491Y-9574579D01*
X2541491Y-9574579D02*
X2551015Y-9612674D01*
X2551015Y-9612674D02*
X2551015Y-9660293D01*
X2551015Y-9660293D02*
X2541491Y-9698389D01*
X2541491Y-9698389D02*
X2531968Y-9717436D01*
X2531968Y-9717436D02*
X2522444Y-9726960D01*
X2522444Y-9726960D02*
X2503396Y-9736484D01*
X2503396Y-9736484D02*
X2484348Y-9736484D01*
X2484348Y-9736484D02*
X2465301Y-9726960D01*
X2465301Y-9726960D02*
X2455777Y-9717436D01*
X2455777Y-9717436D02*
X2446253Y-9698389D01*
X2446253Y-9698389D02*
X2436729Y-9660293D01*
X2436729Y-9660293D02*
X2436729Y-9612674D01*
X2436729Y-9612674D02*
X2446253Y-9574579D01*
X2446253Y-9574579D02*
X2455777Y-9555531D01*
X2455777Y-9555531D02*
X2465301Y-9546008D01*
X2465301Y-9546008D02*
X2484348Y-9536484D01*
X2674825Y-9536484D02*
X2693872Y-9536484D01*
X2693872Y-9536484D02*
X2712920Y-9546008D01*
X2712920Y-9546008D02*
X2722444Y-9555531D01*
X2722444Y-9555531D02*
X2731968Y-9574579D01*
X2731968Y-9574579D02*
X2741491Y-9612674D01*
X2741491Y-9612674D02*
X2741491Y-9660293D01*
X2741491Y-9660293D02*
X2731968Y-9698389D01*
X2731968Y-9698389D02*
X2722444Y-9717436D01*
X2722444Y-9717436D02*
X2712920Y-9726960D01*
X2712920Y-9726960D02*
X2693872Y-9736484D01*
X2693872Y-9736484D02*
X2674825Y-9736484D01*
X2674825Y-9736484D02*
X2655777Y-9726960D01*
X2655777Y-9726960D02*
X2646253Y-9717436D01*
X2646253Y-9717436D02*
X2636729Y-9698389D01*
X2636729Y-9698389D02*
X2627206Y-9660293D01*
X2627206Y-9660293D02*
X2627206Y-9612674D01*
X2627206Y-9612674D02*
X2636729Y-9574579D01*
X2636729Y-9574579D02*
X2646253Y-9555531D01*
X2646253Y-9555531D02*
X2655777Y-9546008D01*
X2655777Y-9546008D02*
X2674825Y-9536484D01*
X2922444Y-9536484D02*
X2827206Y-9536484D01*
X2827206Y-9536484D02*
X2817682Y-9631722D01*
X2817682Y-9631722D02*
X2827206Y-9622198D01*
X2827206Y-9622198D02*
X2846253Y-9612674D01*
X2846253Y-9612674D02*
X2893872Y-9612674D01*
X2893872Y-9612674D02*
X2912920Y-9622198D01*
X2912920Y-9622198D02*
X2922444Y-9631722D01*
X2922444Y-9631722D02*
X2931967Y-9650770D01*
X2931967Y-9650770D02*
X2931967Y-9698389D01*
X2931967Y-9698389D02*
X2922444Y-9717436D01*
X2922444Y-9717436D02*
X2912920Y-9726960D01*
X2912920Y-9726960D02*
X2893872Y-9736484D01*
X2893872Y-9736484D02*
X2846253Y-9736484D01*
X2846253Y-9736484D02*
X2827206Y-9726960D01*
X2827206Y-9726960D02*
X2817682Y-9717436D01*
X3027206Y-9736484D02*
X3065301Y-9736484D01*
X3065301Y-9736484D02*
X3084348Y-9726960D01*
X3084348Y-9726960D02*
X3093872Y-9717436D01*
X3093872Y-9717436D02*
X3112920Y-9688865D01*
X3112920Y-9688865D02*
X3122444Y-9650770D01*
X3122444Y-9650770D02*
X3122444Y-9574579D01*
X3122444Y-9574579D02*
X3112920Y-9555531D01*
X3112920Y-9555531D02*
X3103396Y-9546008D01*
X3103396Y-9546008D02*
X3084348Y-9536484D01*
X3084348Y-9536484D02*
X3046253Y-9536484D01*
X3046253Y-9536484D02*
X3027206Y-9546008D01*
X3027206Y-9546008D02*
X3017682Y-9555531D01*
X3017682Y-9555531D02*
X3008158Y-9574579D01*
X3008158Y-9574579D02*
X3008158Y-9622198D01*
X3008158Y-9622198D02*
X3017682Y-9641246D01*
X3017682Y-9641246D02*
X3027206Y-9650770D01*
X3027206Y-9650770D02*
X3046253Y-9660293D01*
X3046253Y-9660293D02*
X3084348Y-9660293D01*
X3084348Y-9660293D02*
X3103396Y-9650770D01*
X3103396Y-9650770D02*
X3112920Y-9641246D01*
X3112920Y-9641246D02*
X3122444Y-9622198D01*
X3198634Y-9536484D02*
X3198634Y-9574579D01*
X3274825Y-9536484D02*
X3274825Y-9574579D01*
X3570063Y-9812674D02*
X3560539Y-9803150D01*
X3560539Y-9803150D02*
X3541491Y-9774579D01*
X3541491Y-9774579D02*
X3531968Y-9755531D01*
X3531968Y-9755531D02*
X3522444Y-9726960D01*
X3522444Y-9726960D02*
X3512920Y-9679341D01*
X3512920Y-9679341D02*
X3512920Y-9641246D01*
X3512920Y-9641246D02*
X3522444Y-9593627D01*
X3522444Y-9593627D02*
X3531968Y-9565055D01*
X3531968Y-9565055D02*
X3541491Y-9546008D01*
X3541491Y-9546008D02*
X3560539Y-9517436D01*
X3560539Y-9517436D02*
X3570063Y-9507912D01*
X3636729Y-9555531D02*
X3646253Y-9546008D01*
X3646253Y-9546008D02*
X3665301Y-9536484D01*
X3665301Y-9536484D02*
X3712920Y-9536484D01*
X3712920Y-9536484D02*
X3731968Y-9546008D01*
X3731968Y-9546008D02*
X3741491Y-9555531D01*
X3741491Y-9555531D02*
X3751015Y-9574579D01*
X3751015Y-9574579D02*
X3751015Y-9593627D01*
X3751015Y-9593627D02*
X3741491Y-9622198D01*
X3741491Y-9622198D02*
X3627206Y-9736484D01*
X3627206Y-9736484D02*
X3751015Y-9736484D01*
X3874825Y-9536484D02*
X3893872Y-9536484D01*
X3893872Y-9536484D02*
X3912920Y-9546008D01*
X3912920Y-9546008D02*
X3922444Y-9555531D01*
X3922444Y-9555531D02*
X3931968Y-9574579D01*
X3931968Y-9574579D02*
X3941491Y-9612674D01*
X3941491Y-9612674D02*
X3941491Y-9660293D01*
X3941491Y-9660293D02*
X3931968Y-9698389D01*
X3931968Y-9698389D02*
X3922444Y-9717436D01*
X3922444Y-9717436D02*
X3912920Y-9726960D01*
X3912920Y-9726960D02*
X3893872Y-9736484D01*
X3893872Y-9736484D02*
X3874825Y-9736484D01*
X3874825Y-9736484D02*
X3855777Y-9726960D01*
X3855777Y-9726960D02*
X3846253Y-9717436D01*
X3846253Y-9717436D02*
X3836729Y-9698389D01*
X3836729Y-9698389D02*
X3827206Y-9660293D01*
X3827206Y-9660293D02*
X3827206Y-9612674D01*
X3827206Y-9612674D02*
X3836729Y-9574579D01*
X3836729Y-9574579D02*
X3846253Y-9555531D01*
X3846253Y-9555531D02*
X3855777Y-9546008D01*
X3855777Y-9546008D02*
X3874825Y-9536484D01*
X4036729Y-9736484D02*
X4074825Y-9736484D01*
X4074825Y-9736484D02*
X4093872Y-9726960D01*
X4093872Y-9726960D02*
X4103396Y-9717436D01*
X4103396Y-9717436D02*
X4122444Y-9688865D01*
X4122444Y-9688865D02*
X4131968Y-9650770D01*
X4131968Y-9650770D02*
X4131968Y-9574579D01*
X4131968Y-9574579D02*
X4122444Y-9555531D01*
X4122444Y-9555531D02*
X4112920Y-9546008D01*
X4112920Y-9546008D02*
X4093872Y-9536484D01*
X4093872Y-9536484D02*
X4055777Y-9536484D01*
X4055777Y-9536484D02*
X4036729Y-9546008D01*
X4036729Y-9546008D02*
X4027206Y-9555531D01*
X4027206Y-9555531D02*
X4017682Y-9574579D01*
X4017682Y-9574579D02*
X4017682Y-9622198D01*
X4017682Y-9622198D02*
X4027206Y-9641246D01*
X4027206Y-9641246D02*
X4036729Y-9650770D01*
X4036729Y-9650770D02*
X4055777Y-9660293D01*
X4055777Y-9660293D02*
X4093872Y-9660293D01*
X4093872Y-9660293D02*
X4112920Y-9650770D01*
X4112920Y-9650770D02*
X4122444Y-9641246D01*
X4122444Y-9641246D02*
X4131968Y-9622198D01*
X4370063Y-9736484D02*
X4370063Y-9536484D01*
X4455777Y-9736484D02*
X4455777Y-9631722D01*
X4455777Y-9631722D02*
X4446253Y-9612674D01*
X4446253Y-9612674D02*
X4427206Y-9603150D01*
X4427206Y-9603150D02*
X4398634Y-9603150D01*
X4398634Y-9603150D02*
X4379587Y-9612674D01*
X4379587Y-9612674D02*
X4370063Y-9622198D01*
X4579587Y-9736484D02*
X4560539Y-9726960D01*
X4560539Y-9726960D02*
X4551015Y-9717436D01*
X4551015Y-9717436D02*
X4541492Y-9698389D01*
X4541492Y-9698389D02*
X4541492Y-9641246D01*
X4541492Y-9641246D02*
X4551015Y-9622198D01*
X4551015Y-9622198D02*
X4560539Y-9612674D01*
X4560539Y-9612674D02*
X4579587Y-9603150D01*
X4579587Y-9603150D02*
X4608158Y-9603150D01*
X4608158Y-9603150D02*
X4627206Y-9612674D01*
X4627206Y-9612674D02*
X4636730Y-9622198D01*
X4636730Y-9622198D02*
X4646253Y-9641246D01*
X4646253Y-9641246D02*
X4646253Y-9698389D01*
X4646253Y-9698389D02*
X4636730Y-9717436D01*
X4636730Y-9717436D02*
X4627206Y-9726960D01*
X4627206Y-9726960D02*
X4608158Y-9736484D01*
X4608158Y-9736484D02*
X4579587Y-9736484D01*
X4760539Y-9736484D02*
X4741492Y-9726960D01*
X4741492Y-9726960D02*
X4731968Y-9707912D01*
X4731968Y-9707912D02*
X4731968Y-9536484D01*
X4912920Y-9726960D02*
X4893873Y-9736484D01*
X4893873Y-9736484D02*
X4855777Y-9736484D01*
X4855777Y-9736484D02*
X4836730Y-9726960D01*
X4836730Y-9726960D02*
X4827206Y-9707912D01*
X4827206Y-9707912D02*
X4827206Y-9631722D01*
X4827206Y-9631722D02*
X4836730Y-9612674D01*
X4836730Y-9612674D02*
X4855777Y-9603150D01*
X4855777Y-9603150D02*
X4893873Y-9603150D01*
X4893873Y-9603150D02*
X4912920Y-9612674D01*
X4912920Y-9612674D02*
X4922444Y-9631722D01*
X4922444Y-9631722D02*
X4922444Y-9650770D01*
X4922444Y-9650770D02*
X4827206Y-9669817D01*
X4998634Y-9726960D02*
X5017682Y-9736484D01*
X5017682Y-9736484D02*
X5055777Y-9736484D01*
X5055777Y-9736484D02*
X5074825Y-9726960D01*
X5074825Y-9726960D02*
X5084349Y-9707912D01*
X5084349Y-9707912D02*
X5084349Y-9698389D01*
X5084349Y-9698389D02*
X5074825Y-9679341D01*
X5074825Y-9679341D02*
X5055777Y-9669817D01*
X5055777Y-9669817D02*
X5027206Y-9669817D01*
X5027206Y-9669817D02*
X5008158Y-9660293D01*
X5008158Y-9660293D02*
X4998634Y-9641246D01*
X4998634Y-9641246D02*
X4998634Y-9631722D01*
X4998634Y-9631722D02*
X5008158Y-9612674D01*
X5008158Y-9612674D02*
X5027206Y-9603150D01*
X5027206Y-9603150D02*
X5055777Y-9603150D01*
X5055777Y-9603150D02*
X5074825Y-9612674D01*
X5151015Y-9812674D02*
X5160539Y-9803150D01*
X5160539Y-9803150D02*
X5179587Y-9774579D01*
X5179587Y-9774579D02*
X5189111Y-9755531D01*
X5189111Y-9755531D02*
X5198634Y-9726960D01*
X5198634Y-9726960D02*
X5208158Y-9679341D01*
X5208158Y-9679341D02*
X5208158Y-9641246D01*
X5208158Y-9641246D02*
X5198634Y-9593627D01*
X5198634Y-9593627D02*
X5189111Y-9565055D01*
X5189111Y-9565055D02*
X5179587Y-9546008D01*
X5179587Y-9546008D02*
X5160539Y-9517436D01*
X5160539Y-9517436D02*
X5151015Y-9507912D01*
D10*
X-5000Y-9909000D02*
G75*
G02*
X-25000Y-9909000I-10000J0D01*
G01*
X-25000Y-9909000D02*
G75*
G02*
X-5000Y-9909000I10000J0D01*
G01*
D11*
X293872Y-9800484D02*
X312920Y-9800484D01*
X312920Y-9800484D02*
X331967Y-9810008D01*
X331967Y-9810008D02*
X341491Y-9819531D01*
X341491Y-9819531D02*
X351015Y-9838579D01*
X351015Y-9838579D02*
X360539Y-9876674D01*
X360539Y-9876674D02*
X360539Y-9924293D01*
X360539Y-9924293D02*
X351015Y-9962389D01*
X351015Y-9962389D02*
X341491Y-9981436D01*
X341491Y-9981436D02*
X331967Y-9990960D01*
X331967Y-9990960D02*
X312920Y-10000484D01*
X312920Y-10000484D02*
X293872Y-10000484D01*
X293872Y-10000484D02*
X274824Y-9990960D01*
X274824Y-9990960D02*
X265301Y-9981436D01*
X265301Y-9981436D02*
X255777Y-9962389D01*
X255777Y-9962389D02*
X246253Y-9924293D01*
X246253Y-9924293D02*
X246253Y-9876674D01*
X246253Y-9876674D02*
X255777Y-9838579D01*
X255777Y-9838579D02*
X265301Y-9819531D01*
X265301Y-9819531D02*
X274824Y-9810008D01*
X274824Y-9810008D02*
X293872Y-9800484D01*
X446253Y-9981436D02*
X455777Y-9990960D01*
X455777Y-9990960D02*
X446253Y-10000484D01*
X446253Y-10000484D02*
X436729Y-9990960D01*
X436729Y-9990960D02*
X446253Y-9981436D01*
X446253Y-9981436D02*
X446253Y-10000484D01*
X531967Y-9819531D02*
X541491Y-9810008D01*
X541491Y-9810008D02*
X560539Y-9800484D01*
X560539Y-9800484D02*
X608158Y-9800484D01*
X608158Y-9800484D02*
X627205Y-9810008D01*
X627205Y-9810008D02*
X636729Y-9819531D01*
X636729Y-9819531D02*
X646253Y-9838579D01*
X646253Y-9838579D02*
X646253Y-9857627D01*
X646253Y-9857627D02*
X636729Y-9886198D01*
X636729Y-9886198D02*
X522443Y-10000484D01*
X522443Y-10000484D02*
X646253Y-10000484D01*
X770062Y-9800484D02*
X789110Y-9800484D01*
X789110Y-9800484D02*
X808158Y-9810008D01*
X808158Y-9810008D02*
X817682Y-9819531D01*
X817682Y-9819531D02*
X827205Y-9838579D01*
X827205Y-9838579D02*
X836729Y-9876674D01*
X836729Y-9876674D02*
X836729Y-9924293D01*
X836729Y-9924293D02*
X827205Y-9962389D01*
X827205Y-9962389D02*
X817682Y-9981436D01*
X817682Y-9981436D02*
X808158Y-9990960D01*
X808158Y-9990960D02*
X789110Y-10000484D01*
X789110Y-10000484D02*
X770062Y-10000484D01*
X770062Y-10000484D02*
X751015Y-9990960D01*
X751015Y-9990960D02*
X741491Y-9981436D01*
X741491Y-9981436D02*
X731967Y-9962389D01*
X731967Y-9962389D02*
X722443Y-9924293D01*
X722443Y-9924293D02*
X722443Y-9876674D01*
X722443Y-9876674D02*
X731967Y-9838579D01*
X731967Y-9838579D02*
X741491Y-9819531D01*
X741491Y-9819531D02*
X751015Y-9810008D01*
X751015Y-9810008D02*
X770062Y-9800484D01*
X960539Y-9800484D02*
X979586Y-9800484D01*
X979586Y-9800484D02*
X998634Y-9810008D01*
X998634Y-9810008D02*
X1008158Y-9819531D01*
X1008158Y-9819531D02*
X1017682Y-9838579D01*
X1017682Y-9838579D02*
X1027205Y-9876674D01*
X1027205Y-9876674D02*
X1027205Y-9924293D01*
X1027205Y-9924293D02*
X1017682Y-9962389D01*
X1017682Y-9962389D02*
X1008158Y-9981436D01*
X1008158Y-9981436D02*
X998634Y-9990960D01*
X998634Y-9990960D02*
X979586Y-10000484D01*
X979586Y-10000484D02*
X960539Y-10000484D01*
X960539Y-10000484D02*
X941491Y-9990960D01*
X941491Y-9990960D02*
X931967Y-9981436D01*
X931967Y-9981436D02*
X922443Y-9962389D01*
X922443Y-9962389D02*
X912920Y-9924293D01*
X912920Y-9924293D02*
X912920Y-9876674D01*
X912920Y-9876674D02*
X922443Y-9838579D01*
X922443Y-9838579D02*
X931967Y-9819531D01*
X931967Y-9819531D02*
X941491Y-9810008D01*
X941491Y-9810008D02*
X960539Y-9800484D01*
X1112920Y-10000484D02*
X1112920Y-9867150D01*
X1112920Y-9886198D02*
X1122444Y-9876674D01*
X1122444Y-9876674D02*
X1141491Y-9867150D01*
X1141491Y-9867150D02*
X1170063Y-9867150D01*
X1170063Y-9867150D02*
X1189110Y-9876674D01*
X1189110Y-9876674D02*
X1198634Y-9895722D01*
X1198634Y-9895722D02*
X1198634Y-10000484D01*
X1198634Y-9895722D02*
X1208158Y-9876674D01*
X1208158Y-9876674D02*
X1227205Y-9867150D01*
X1227205Y-9867150D02*
X1255777Y-9867150D01*
X1255777Y-9867150D02*
X1274825Y-9876674D01*
X1274825Y-9876674D02*
X1284348Y-9895722D01*
X1284348Y-9895722D02*
X1284348Y-10000484D01*
X1379586Y-10000484D02*
X1379586Y-9867150D01*
X1379586Y-9886198D02*
X1389110Y-9876674D01*
X1389110Y-9876674D02*
X1408158Y-9867150D01*
X1408158Y-9867150D02*
X1436729Y-9867150D01*
X1436729Y-9867150D02*
X1455777Y-9876674D01*
X1455777Y-9876674D02*
X1465301Y-9895722D01*
X1465301Y-9895722D02*
X1465301Y-10000484D01*
X1465301Y-9895722D02*
X1474824Y-9876674D01*
X1474824Y-9876674D02*
X1493872Y-9867150D01*
X1493872Y-9867150D02*
X1522443Y-9867150D01*
X1522443Y-9867150D02*
X1541491Y-9876674D01*
X1541491Y-9876674D02*
X1551015Y-9895722D01*
X1551015Y-9895722D02*
X1551015Y-10000484D01*
X1941491Y-9790960D02*
X1770063Y-10048103D01*
X2198634Y-9800484D02*
X2217682Y-9800484D01*
X2217682Y-9800484D02*
X2236729Y-9810008D01*
X2236729Y-9810008D02*
X2246253Y-9819531D01*
X2246253Y-9819531D02*
X2255777Y-9838579D01*
X2255777Y-9838579D02*
X2265301Y-9876674D01*
X2265301Y-9876674D02*
X2265301Y-9924293D01*
X2265301Y-9924293D02*
X2255777Y-9962389D01*
X2255777Y-9962389D02*
X2246253Y-9981436D01*
X2246253Y-9981436D02*
X2236729Y-9990960D01*
X2236729Y-9990960D02*
X2217682Y-10000484D01*
X2217682Y-10000484D02*
X2198634Y-10000484D01*
X2198634Y-10000484D02*
X2179587Y-9990960D01*
X2179587Y-9990960D02*
X2170063Y-9981436D01*
X2170063Y-9981436D02*
X2160539Y-9962389D01*
X2160539Y-9962389D02*
X2151015Y-9924293D01*
X2151015Y-9924293D02*
X2151015Y-9876674D01*
X2151015Y-9876674D02*
X2160539Y-9838579D01*
X2160539Y-9838579D02*
X2170063Y-9819531D01*
X2170063Y-9819531D02*
X2179587Y-9810008D01*
X2179587Y-9810008D02*
X2198634Y-9800484D01*
X2351015Y-9981436D02*
X2360539Y-9990960D01*
X2360539Y-9990960D02*
X2351015Y-10000484D01*
X2351015Y-10000484D02*
X2341491Y-9990960D01*
X2341491Y-9990960D02*
X2351015Y-9981436D01*
X2351015Y-9981436D02*
X2351015Y-10000484D01*
X2484348Y-9800484D02*
X2503396Y-9800484D01*
X2503396Y-9800484D02*
X2522444Y-9810008D01*
X2522444Y-9810008D02*
X2531968Y-9819531D01*
X2531968Y-9819531D02*
X2541491Y-9838579D01*
X2541491Y-9838579D02*
X2551015Y-9876674D01*
X2551015Y-9876674D02*
X2551015Y-9924293D01*
X2551015Y-9924293D02*
X2541491Y-9962389D01*
X2541491Y-9962389D02*
X2531968Y-9981436D01*
X2531968Y-9981436D02*
X2522444Y-9990960D01*
X2522444Y-9990960D02*
X2503396Y-10000484D01*
X2503396Y-10000484D02*
X2484348Y-10000484D01*
X2484348Y-10000484D02*
X2465301Y-9990960D01*
X2465301Y-9990960D02*
X2455777Y-9981436D01*
X2455777Y-9981436D02*
X2446253Y-9962389D01*
X2446253Y-9962389D02*
X2436729Y-9924293D01*
X2436729Y-9924293D02*
X2436729Y-9876674D01*
X2436729Y-9876674D02*
X2446253Y-9838579D01*
X2446253Y-9838579D02*
X2455777Y-9819531D01*
X2455777Y-9819531D02*
X2465301Y-9810008D01*
X2465301Y-9810008D02*
X2484348Y-9800484D01*
X2674825Y-9800484D02*
X2693872Y-9800484D01*
X2693872Y-9800484D02*
X2712920Y-9810008D01*
X2712920Y-9810008D02*
X2722444Y-9819531D01*
X2722444Y-9819531D02*
X2731968Y-9838579D01*
X2731968Y-9838579D02*
X2741491Y-9876674D01*
X2741491Y-9876674D02*
X2741491Y-9924293D01*
X2741491Y-9924293D02*
X2731968Y-9962389D01*
X2731968Y-9962389D02*
X2722444Y-9981436D01*
X2722444Y-9981436D02*
X2712920Y-9990960D01*
X2712920Y-9990960D02*
X2693872Y-10000484D01*
X2693872Y-10000484D02*
X2674825Y-10000484D01*
X2674825Y-10000484D02*
X2655777Y-9990960D01*
X2655777Y-9990960D02*
X2646253Y-9981436D01*
X2646253Y-9981436D02*
X2636729Y-9962389D01*
X2636729Y-9962389D02*
X2627206Y-9924293D01*
X2627206Y-9924293D02*
X2627206Y-9876674D01*
X2627206Y-9876674D02*
X2636729Y-9838579D01*
X2636729Y-9838579D02*
X2646253Y-9819531D01*
X2646253Y-9819531D02*
X2655777Y-9810008D01*
X2655777Y-9810008D02*
X2674825Y-9800484D01*
X2808158Y-9800484D02*
X2941491Y-9800484D01*
X2941491Y-9800484D02*
X2855777Y-10000484D01*
X3027206Y-10000484D02*
X3065301Y-10000484D01*
X3065301Y-10000484D02*
X3084348Y-9990960D01*
X3084348Y-9990960D02*
X3093872Y-9981436D01*
X3093872Y-9981436D02*
X3112920Y-9952865D01*
X3112920Y-9952865D02*
X3122444Y-9914770D01*
X3122444Y-9914770D02*
X3122444Y-9838579D01*
X3122444Y-9838579D02*
X3112920Y-9819531D01*
X3112920Y-9819531D02*
X3103396Y-9810008D01*
X3103396Y-9810008D02*
X3084348Y-9800484D01*
X3084348Y-9800484D02*
X3046253Y-9800484D01*
X3046253Y-9800484D02*
X3027206Y-9810008D01*
X3027206Y-9810008D02*
X3017682Y-9819531D01*
X3017682Y-9819531D02*
X3008158Y-9838579D01*
X3008158Y-9838579D02*
X3008158Y-9886198D01*
X3008158Y-9886198D02*
X3017682Y-9905246D01*
X3017682Y-9905246D02*
X3027206Y-9914770D01*
X3027206Y-9914770D02*
X3046253Y-9924293D01*
X3046253Y-9924293D02*
X3084348Y-9924293D01*
X3084348Y-9924293D02*
X3103396Y-9914770D01*
X3103396Y-9914770D02*
X3112920Y-9905246D01*
X3112920Y-9905246D02*
X3122444Y-9886198D01*
X3198634Y-9800484D02*
X3198634Y-9838579D01*
X3274825Y-9800484D02*
X3274825Y-9838579D01*
X3570063Y-10076674D02*
X3560539Y-10067150D01*
X3560539Y-10067150D02*
X3541491Y-10038579D01*
X3541491Y-10038579D02*
X3531968Y-10019531D01*
X3531968Y-10019531D02*
X3522444Y-9990960D01*
X3522444Y-9990960D02*
X3512920Y-9943341D01*
X3512920Y-9943341D02*
X3512920Y-9905246D01*
X3512920Y-9905246D02*
X3522444Y-9857627D01*
X3522444Y-9857627D02*
X3531968Y-9829055D01*
X3531968Y-9829055D02*
X3541491Y-9810008D01*
X3541491Y-9810008D02*
X3560539Y-9781436D01*
X3560539Y-9781436D02*
X3570063Y-9771912D01*
X3655777Y-10000484D02*
X3693872Y-10000484D01*
X3693872Y-10000484D02*
X3712920Y-9990960D01*
X3712920Y-9990960D02*
X3722444Y-9981436D01*
X3722444Y-9981436D02*
X3741491Y-9952865D01*
X3741491Y-9952865D02*
X3751015Y-9914770D01*
X3751015Y-9914770D02*
X3751015Y-9838579D01*
X3751015Y-9838579D02*
X3741491Y-9819531D01*
X3741491Y-9819531D02*
X3731968Y-9810008D01*
X3731968Y-9810008D02*
X3712920Y-9800484D01*
X3712920Y-9800484D02*
X3674825Y-9800484D01*
X3674825Y-9800484D02*
X3655777Y-9810008D01*
X3655777Y-9810008D02*
X3646253Y-9819531D01*
X3646253Y-9819531D02*
X3636729Y-9838579D01*
X3636729Y-9838579D02*
X3636729Y-9886198D01*
X3636729Y-9886198D02*
X3646253Y-9905246D01*
X3646253Y-9905246D02*
X3655777Y-9914770D01*
X3655777Y-9914770D02*
X3674825Y-9924293D01*
X3674825Y-9924293D02*
X3712920Y-9924293D01*
X3712920Y-9924293D02*
X3731968Y-9914770D01*
X3731968Y-9914770D02*
X3741491Y-9905246D01*
X3741491Y-9905246D02*
X3751015Y-9886198D01*
X3931968Y-9800484D02*
X3836729Y-9800484D01*
X3836729Y-9800484D02*
X3827206Y-9895722D01*
X3827206Y-9895722D02*
X3836729Y-9886198D01*
X3836729Y-9886198D02*
X3855777Y-9876674D01*
X3855777Y-9876674D02*
X3903396Y-9876674D01*
X3903396Y-9876674D02*
X3922444Y-9886198D01*
X3922444Y-9886198D02*
X3931968Y-9895722D01*
X3931968Y-9895722D02*
X3941491Y-9914770D01*
X3941491Y-9914770D02*
X3941491Y-9962389D01*
X3941491Y-9962389D02*
X3931968Y-9981436D01*
X3931968Y-9981436D02*
X3922444Y-9990960D01*
X3922444Y-9990960D02*
X3903396Y-10000484D01*
X3903396Y-10000484D02*
X3855777Y-10000484D01*
X3855777Y-10000484D02*
X3836729Y-9990960D01*
X3836729Y-9990960D02*
X3827206Y-9981436D01*
X4179587Y-10000484D02*
X4179587Y-9800484D01*
X4265301Y-10000484D02*
X4265301Y-9895722D01*
X4265301Y-9895722D02*
X4255777Y-9876674D01*
X4255777Y-9876674D02*
X4236730Y-9867150D01*
X4236730Y-9867150D02*
X4208158Y-9867150D01*
X4208158Y-9867150D02*
X4189110Y-9876674D01*
X4189110Y-9876674D02*
X4179587Y-9886198D01*
X4389111Y-10000484D02*
X4370063Y-9990960D01*
X4370063Y-9990960D02*
X4360539Y-9981436D01*
X4360539Y-9981436D02*
X4351015Y-9962389D01*
X4351015Y-9962389D02*
X4351015Y-9905246D01*
X4351015Y-9905246D02*
X4360539Y-9886198D01*
X4360539Y-9886198D02*
X4370063Y-9876674D01*
X4370063Y-9876674D02*
X4389111Y-9867150D01*
X4389111Y-9867150D02*
X4417682Y-9867150D01*
X4417682Y-9867150D02*
X4436730Y-9876674D01*
X4436730Y-9876674D02*
X4446253Y-9886198D01*
X4446253Y-9886198D02*
X4455777Y-9905246D01*
X4455777Y-9905246D02*
X4455777Y-9962389D01*
X4455777Y-9962389D02*
X4446253Y-9981436D01*
X4446253Y-9981436D02*
X4436730Y-9990960D01*
X4436730Y-9990960D02*
X4417682Y-10000484D01*
X4417682Y-10000484D02*
X4389111Y-10000484D01*
X4570063Y-10000484D02*
X4551015Y-9990960D01*
X4551015Y-9990960D02*
X4541492Y-9971912D01*
X4541492Y-9971912D02*
X4541492Y-9800484D01*
X4722444Y-9990960D02*
X4703396Y-10000484D01*
X4703396Y-10000484D02*
X4665301Y-10000484D01*
X4665301Y-10000484D02*
X4646253Y-9990960D01*
X4646253Y-9990960D02*
X4636730Y-9971912D01*
X4636730Y-9971912D02*
X4636730Y-9895722D01*
X4636730Y-9895722D02*
X4646253Y-9876674D01*
X4646253Y-9876674D02*
X4665301Y-9867150D01*
X4665301Y-9867150D02*
X4703396Y-9867150D01*
X4703396Y-9867150D02*
X4722444Y-9876674D01*
X4722444Y-9876674D02*
X4731968Y-9895722D01*
X4731968Y-9895722D02*
X4731968Y-9914770D01*
X4731968Y-9914770D02*
X4636730Y-9933817D01*
X4808158Y-9990960D02*
X4827206Y-10000484D01*
X4827206Y-10000484D02*
X4865301Y-10000484D01*
X4865301Y-10000484D02*
X4884349Y-9990960D01*
X4884349Y-9990960D02*
X4893873Y-9971912D01*
X4893873Y-9971912D02*
X4893873Y-9962389D01*
X4893873Y-9962389D02*
X4884349Y-9943341D01*
X4884349Y-9943341D02*
X4865301Y-9933817D01*
X4865301Y-9933817D02*
X4836730Y-9933817D01*
X4836730Y-9933817D02*
X4817682Y-9924293D01*
X4817682Y-9924293D02*
X4808158Y-9905246D01*
X4808158Y-9905246D02*
X4808158Y-9895722D01*
X4808158Y-9895722D02*
X4817682Y-9876674D01*
X4817682Y-9876674D02*
X4836730Y-9867150D01*
X4836730Y-9867150D02*
X4865301Y-9867150D01*
X4865301Y-9867150D02*
X4884349Y-9876674D01*
X4960539Y-10076674D02*
X4970063Y-10067150D01*
X4970063Y-10067150D02*
X4989111Y-10038579D01*
X4989111Y-10038579D02*
X4998634Y-10019531D01*
X4998634Y-10019531D02*
X5008158Y-9990960D01*
X5008158Y-9990960D02*
X5017682Y-9943341D01*
X5017682Y-9943341D02*
X5017682Y-9905246D01*
X5017682Y-9905246D02*
X5008158Y-9857627D01*
X5008158Y-9857627D02*
X4998634Y-9829055D01*
X4998634Y-9829055D02*
X4989111Y-9810008D01*
X4989111Y-9810008D02*
X4970063Y-9781436D01*
X4970063Y-9781436D02*
X4960539Y-9771912D01*
D10*
X-42500Y-10135500D02*
X-42500Y-10210500D01*
X-80000Y-10173000D02*
X-5000Y-10173000D01*
D11*
X293872Y-10064484D02*
X312920Y-10064484D01*
X312920Y-10064484D02*
X331967Y-10074008D01*
X331967Y-10074008D02*
X341491Y-10083531D01*
X341491Y-10083531D02*
X351015Y-10102579D01*
X351015Y-10102579D02*
X360539Y-10140674D01*
X360539Y-10140674D02*
X360539Y-10188293D01*
X360539Y-10188293D02*
X351015Y-10226389D01*
X351015Y-10226389D02*
X341491Y-10245436D01*
X341491Y-10245436D02*
X331967Y-10254960D01*
X331967Y-10254960D02*
X312920Y-10264484D01*
X312920Y-10264484D02*
X293872Y-10264484D01*
X293872Y-10264484D02*
X274824Y-10254960D01*
X274824Y-10254960D02*
X265301Y-10245436D01*
X265301Y-10245436D02*
X255777Y-10226389D01*
X255777Y-10226389D02*
X246253Y-10188293D01*
X246253Y-10188293D02*
X246253Y-10140674D01*
X246253Y-10140674D02*
X255777Y-10102579D01*
X255777Y-10102579D02*
X265301Y-10083531D01*
X265301Y-10083531D02*
X274824Y-10074008D01*
X274824Y-10074008D02*
X293872Y-10064484D01*
X446253Y-10245436D02*
X455777Y-10254960D01*
X455777Y-10254960D02*
X446253Y-10264484D01*
X446253Y-10264484D02*
X436729Y-10254960D01*
X436729Y-10254960D02*
X446253Y-10245436D01*
X446253Y-10245436D02*
X446253Y-10264484D01*
X522443Y-10064484D02*
X655777Y-10064484D01*
X655777Y-10064484D02*
X570063Y-10264484D01*
X827205Y-10064484D02*
X731967Y-10064484D01*
X731967Y-10064484D02*
X722443Y-10159722D01*
X722443Y-10159722D02*
X731967Y-10150198D01*
X731967Y-10150198D02*
X751015Y-10140674D01*
X751015Y-10140674D02*
X798634Y-10140674D01*
X798634Y-10140674D02*
X817682Y-10150198D01*
X817682Y-10150198D02*
X827205Y-10159722D01*
X827205Y-10159722D02*
X836729Y-10178770D01*
X836729Y-10178770D02*
X836729Y-10226389D01*
X836729Y-10226389D02*
X827205Y-10245436D01*
X827205Y-10245436D02*
X817682Y-10254960D01*
X817682Y-10254960D02*
X798634Y-10264484D01*
X798634Y-10264484D02*
X751015Y-10264484D01*
X751015Y-10264484D02*
X731967Y-10254960D01*
X731967Y-10254960D02*
X722443Y-10245436D01*
X960539Y-10064484D02*
X979586Y-10064484D01*
X979586Y-10064484D02*
X998634Y-10074008D01*
X998634Y-10074008D02*
X1008158Y-10083531D01*
X1008158Y-10083531D02*
X1017682Y-10102579D01*
X1017682Y-10102579D02*
X1027205Y-10140674D01*
X1027205Y-10140674D02*
X1027205Y-10188293D01*
X1027205Y-10188293D02*
X1017682Y-10226389D01*
X1017682Y-10226389D02*
X1008158Y-10245436D01*
X1008158Y-10245436D02*
X998634Y-10254960D01*
X998634Y-10254960D02*
X979586Y-10264484D01*
X979586Y-10264484D02*
X960539Y-10264484D01*
X960539Y-10264484D02*
X941491Y-10254960D01*
X941491Y-10254960D02*
X931967Y-10245436D01*
X931967Y-10245436D02*
X922443Y-10226389D01*
X922443Y-10226389D02*
X912920Y-10188293D01*
X912920Y-10188293D02*
X912920Y-10140674D01*
X912920Y-10140674D02*
X922443Y-10102579D01*
X922443Y-10102579D02*
X931967Y-10083531D01*
X931967Y-10083531D02*
X941491Y-10074008D01*
X941491Y-10074008D02*
X960539Y-10064484D01*
X1112920Y-10264484D02*
X1112920Y-10131150D01*
X1112920Y-10150198D02*
X1122444Y-10140674D01*
X1122444Y-10140674D02*
X1141491Y-10131150D01*
X1141491Y-10131150D02*
X1170063Y-10131150D01*
X1170063Y-10131150D02*
X1189110Y-10140674D01*
X1189110Y-10140674D02*
X1198634Y-10159722D01*
X1198634Y-10159722D02*
X1198634Y-10264484D01*
X1198634Y-10159722D02*
X1208158Y-10140674D01*
X1208158Y-10140674D02*
X1227205Y-10131150D01*
X1227205Y-10131150D02*
X1255777Y-10131150D01*
X1255777Y-10131150D02*
X1274825Y-10140674D01*
X1274825Y-10140674D02*
X1284348Y-10159722D01*
X1284348Y-10159722D02*
X1284348Y-10264484D01*
X1379586Y-10264484D02*
X1379586Y-10131150D01*
X1379586Y-10150198D02*
X1389110Y-10140674D01*
X1389110Y-10140674D02*
X1408158Y-10131150D01*
X1408158Y-10131150D02*
X1436729Y-10131150D01*
X1436729Y-10131150D02*
X1455777Y-10140674D01*
X1455777Y-10140674D02*
X1465301Y-10159722D01*
X1465301Y-10159722D02*
X1465301Y-10264484D01*
X1465301Y-10159722D02*
X1474824Y-10140674D01*
X1474824Y-10140674D02*
X1493872Y-10131150D01*
X1493872Y-10131150D02*
X1522443Y-10131150D01*
X1522443Y-10131150D02*
X1541491Y-10140674D01*
X1541491Y-10140674D02*
X1551015Y-10159722D01*
X1551015Y-10159722D02*
X1551015Y-10264484D01*
X1941491Y-10054960D02*
X1770063Y-10312103D01*
X2198634Y-10064484D02*
X2217682Y-10064484D01*
X2217682Y-10064484D02*
X2236729Y-10074008D01*
X2236729Y-10074008D02*
X2246253Y-10083531D01*
X2246253Y-10083531D02*
X2255777Y-10102579D01*
X2255777Y-10102579D02*
X2265301Y-10140674D01*
X2265301Y-10140674D02*
X2265301Y-10188293D01*
X2265301Y-10188293D02*
X2255777Y-10226389D01*
X2255777Y-10226389D02*
X2246253Y-10245436D01*
X2246253Y-10245436D02*
X2236729Y-10254960D01*
X2236729Y-10254960D02*
X2217682Y-10264484D01*
X2217682Y-10264484D02*
X2198634Y-10264484D01*
X2198634Y-10264484D02*
X2179587Y-10254960D01*
X2179587Y-10254960D02*
X2170063Y-10245436D01*
X2170063Y-10245436D02*
X2160539Y-10226389D01*
X2160539Y-10226389D02*
X2151015Y-10188293D01*
X2151015Y-10188293D02*
X2151015Y-10140674D01*
X2151015Y-10140674D02*
X2160539Y-10102579D01*
X2160539Y-10102579D02*
X2170063Y-10083531D01*
X2170063Y-10083531D02*
X2179587Y-10074008D01*
X2179587Y-10074008D02*
X2198634Y-10064484D01*
X2351015Y-10245436D02*
X2360539Y-10254960D01*
X2360539Y-10254960D02*
X2351015Y-10264484D01*
X2351015Y-10264484D02*
X2341491Y-10254960D01*
X2341491Y-10254960D02*
X2351015Y-10245436D01*
X2351015Y-10245436D02*
X2351015Y-10264484D01*
X2484348Y-10064484D02*
X2503396Y-10064484D01*
X2503396Y-10064484D02*
X2522444Y-10074008D01*
X2522444Y-10074008D02*
X2531968Y-10083531D01*
X2531968Y-10083531D02*
X2541491Y-10102579D01*
X2541491Y-10102579D02*
X2551015Y-10140674D01*
X2551015Y-10140674D02*
X2551015Y-10188293D01*
X2551015Y-10188293D02*
X2541491Y-10226389D01*
X2541491Y-10226389D02*
X2531968Y-10245436D01*
X2531968Y-10245436D02*
X2522444Y-10254960D01*
X2522444Y-10254960D02*
X2503396Y-10264484D01*
X2503396Y-10264484D02*
X2484348Y-10264484D01*
X2484348Y-10264484D02*
X2465301Y-10254960D01*
X2465301Y-10254960D02*
X2455777Y-10245436D01*
X2455777Y-10245436D02*
X2446253Y-10226389D01*
X2446253Y-10226389D02*
X2436729Y-10188293D01*
X2436729Y-10188293D02*
X2436729Y-10140674D01*
X2436729Y-10140674D02*
X2446253Y-10102579D01*
X2446253Y-10102579D02*
X2455777Y-10083531D01*
X2455777Y-10083531D02*
X2465301Y-10074008D01*
X2465301Y-10074008D02*
X2484348Y-10064484D01*
X2627206Y-10083531D02*
X2636729Y-10074008D01*
X2636729Y-10074008D02*
X2655777Y-10064484D01*
X2655777Y-10064484D02*
X2703396Y-10064484D01*
X2703396Y-10064484D02*
X2722444Y-10074008D01*
X2722444Y-10074008D02*
X2731968Y-10083531D01*
X2731968Y-10083531D02*
X2741491Y-10102579D01*
X2741491Y-10102579D02*
X2741491Y-10121627D01*
X2741491Y-10121627D02*
X2731968Y-10150198D01*
X2731968Y-10150198D02*
X2617682Y-10264484D01*
X2617682Y-10264484D02*
X2741491Y-10264484D01*
X2836729Y-10264484D02*
X2874825Y-10264484D01*
X2874825Y-10264484D02*
X2893872Y-10254960D01*
X2893872Y-10254960D02*
X2903396Y-10245436D01*
X2903396Y-10245436D02*
X2922444Y-10216865D01*
X2922444Y-10216865D02*
X2931967Y-10178770D01*
X2931967Y-10178770D02*
X2931967Y-10102579D01*
X2931967Y-10102579D02*
X2922444Y-10083531D01*
X2922444Y-10083531D02*
X2912920Y-10074008D01*
X2912920Y-10074008D02*
X2893872Y-10064484D01*
X2893872Y-10064484D02*
X2855777Y-10064484D01*
X2855777Y-10064484D02*
X2836729Y-10074008D01*
X2836729Y-10074008D02*
X2827206Y-10083531D01*
X2827206Y-10083531D02*
X2817682Y-10102579D01*
X2817682Y-10102579D02*
X2817682Y-10150198D01*
X2817682Y-10150198D02*
X2827206Y-10169246D01*
X2827206Y-10169246D02*
X2836729Y-10178770D01*
X2836729Y-10178770D02*
X2855777Y-10188293D01*
X2855777Y-10188293D02*
X2893872Y-10188293D01*
X2893872Y-10188293D02*
X2912920Y-10178770D01*
X2912920Y-10178770D02*
X2922444Y-10169246D01*
X2922444Y-10169246D02*
X2931967Y-10150198D01*
X3112920Y-10064484D02*
X3017682Y-10064484D01*
X3017682Y-10064484D02*
X3008158Y-10159722D01*
X3008158Y-10159722D02*
X3017682Y-10150198D01*
X3017682Y-10150198D02*
X3036729Y-10140674D01*
X3036729Y-10140674D02*
X3084348Y-10140674D01*
X3084348Y-10140674D02*
X3103396Y-10150198D01*
X3103396Y-10150198D02*
X3112920Y-10159722D01*
X3112920Y-10159722D02*
X3122444Y-10178770D01*
X3122444Y-10178770D02*
X3122444Y-10226389D01*
X3122444Y-10226389D02*
X3112920Y-10245436D01*
X3112920Y-10245436D02*
X3103396Y-10254960D01*
X3103396Y-10254960D02*
X3084348Y-10264484D01*
X3084348Y-10264484D02*
X3036729Y-10264484D01*
X3036729Y-10264484D02*
X3017682Y-10254960D01*
X3017682Y-10254960D02*
X3008158Y-10245436D01*
X3198634Y-10064484D02*
X3198634Y-10102579D01*
X3274825Y-10064484D02*
X3274825Y-10102579D01*
X3570063Y-10340674D02*
X3560539Y-10331150D01*
X3560539Y-10331150D02*
X3541491Y-10302579D01*
X3541491Y-10302579D02*
X3531968Y-10283531D01*
X3531968Y-10283531D02*
X3522444Y-10254960D01*
X3522444Y-10254960D02*
X3512920Y-10207341D01*
X3512920Y-10207341D02*
X3512920Y-10169246D01*
X3512920Y-10169246D02*
X3522444Y-10121627D01*
X3522444Y-10121627D02*
X3531968Y-10093055D01*
X3531968Y-10093055D02*
X3541491Y-10074008D01*
X3541491Y-10074008D02*
X3560539Y-10045436D01*
X3560539Y-10045436D02*
X3570063Y-10035912D01*
X3636729Y-10083531D02*
X3646253Y-10074008D01*
X3646253Y-10074008D02*
X3665301Y-10064484D01*
X3665301Y-10064484D02*
X3712920Y-10064484D01*
X3712920Y-10064484D02*
X3731968Y-10074008D01*
X3731968Y-10074008D02*
X3741491Y-10083531D01*
X3741491Y-10083531D02*
X3751015Y-10102579D01*
X3751015Y-10102579D02*
X3751015Y-10121627D01*
X3751015Y-10121627D02*
X3741491Y-10150198D01*
X3741491Y-10150198D02*
X3627206Y-10264484D01*
X3627206Y-10264484D02*
X3751015Y-10264484D01*
X3989110Y-10264484D02*
X3989110Y-10064484D01*
X4074825Y-10264484D02*
X4074825Y-10159722D01*
X4074825Y-10159722D02*
X4065301Y-10140674D01*
X4065301Y-10140674D02*
X4046253Y-10131150D01*
X4046253Y-10131150D02*
X4017682Y-10131150D01*
X4017682Y-10131150D02*
X3998634Y-10140674D01*
X3998634Y-10140674D02*
X3989110Y-10150198D01*
X4198634Y-10264484D02*
X4179587Y-10254960D01*
X4179587Y-10254960D02*
X4170063Y-10245436D01*
X4170063Y-10245436D02*
X4160539Y-10226389D01*
X4160539Y-10226389D02*
X4160539Y-10169246D01*
X4160539Y-10169246D02*
X4170063Y-10150198D01*
X4170063Y-10150198D02*
X4179587Y-10140674D01*
X4179587Y-10140674D02*
X4198634Y-10131150D01*
X4198634Y-10131150D02*
X4227206Y-10131150D01*
X4227206Y-10131150D02*
X4246253Y-10140674D01*
X4246253Y-10140674D02*
X4255777Y-10150198D01*
X4255777Y-10150198D02*
X4265301Y-10169246D01*
X4265301Y-10169246D02*
X4265301Y-10226389D01*
X4265301Y-10226389D02*
X4255777Y-10245436D01*
X4255777Y-10245436D02*
X4246253Y-10254960D01*
X4246253Y-10254960D02*
X4227206Y-10264484D01*
X4227206Y-10264484D02*
X4198634Y-10264484D01*
X4379587Y-10264484D02*
X4360539Y-10254960D01*
X4360539Y-10254960D02*
X4351015Y-10235912D01*
X4351015Y-10235912D02*
X4351015Y-10064484D01*
X4531968Y-10254960D02*
X4512920Y-10264484D01*
X4512920Y-10264484D02*
X4474825Y-10264484D01*
X4474825Y-10264484D02*
X4455777Y-10254960D01*
X4455777Y-10254960D02*
X4446253Y-10235912D01*
X4446253Y-10235912D02*
X4446253Y-10159722D01*
X4446253Y-10159722D02*
X4455777Y-10140674D01*
X4455777Y-10140674D02*
X4474825Y-10131150D01*
X4474825Y-10131150D02*
X4512920Y-10131150D01*
X4512920Y-10131150D02*
X4531968Y-10140674D01*
X4531968Y-10140674D02*
X4541492Y-10159722D01*
X4541492Y-10159722D02*
X4541492Y-10178770D01*
X4541492Y-10178770D02*
X4446253Y-10197817D01*
X4617682Y-10254960D02*
X4636730Y-10264484D01*
X4636730Y-10264484D02*
X4674825Y-10264484D01*
X4674825Y-10264484D02*
X4693873Y-10254960D01*
X4693873Y-10254960D02*
X4703396Y-10235912D01*
X4703396Y-10235912D02*
X4703396Y-10226389D01*
X4703396Y-10226389D02*
X4693873Y-10207341D01*
X4693873Y-10207341D02*
X4674825Y-10197817D01*
X4674825Y-10197817D02*
X4646253Y-10197817D01*
X4646253Y-10197817D02*
X4627206Y-10188293D01*
X4627206Y-10188293D02*
X4617682Y-10169246D01*
X4617682Y-10169246D02*
X4617682Y-10159722D01*
X4617682Y-10159722D02*
X4627206Y-10140674D01*
X4627206Y-10140674D02*
X4646253Y-10131150D01*
X4646253Y-10131150D02*
X4674825Y-10131150D01*
X4674825Y-10131150D02*
X4693873Y-10140674D01*
X4770063Y-10340674D02*
X4779587Y-10331150D01*
X4779587Y-10331150D02*
X4798634Y-10302579D01*
X4798634Y-10302579D02*
X4808158Y-10283531D01*
X4808158Y-10283531D02*
X4817682Y-10254960D01*
X4817682Y-10254960D02*
X4827206Y-10207341D01*
X4827206Y-10207341D02*
X4827206Y-10169246D01*
X4827206Y-10169246D02*
X4817682Y-10121627D01*
X4817682Y-10121627D02*
X4808158Y-10093055D01*
X4808158Y-10093055D02*
X4798634Y-10074008D01*
X4798634Y-10074008D02*
X4779587Y-10045436D01*
X4779587Y-10045436D02*
X4770063Y-10035912D01*
D10*
X-16715Y-10465285D02*
X-16715Y-10408716D01*
X-73284Y-10408716D01*
X-73284Y-10465285D01*
X-16715Y-10465285D01*
D11*
X293872Y-10328484D02*
X312920Y-10328484D01*
X312920Y-10328484D02*
X331967Y-10338008D01*
X331967Y-10338008D02*
X341491Y-10347531D01*
X341491Y-10347531D02*
X351015Y-10366579D01*
X351015Y-10366579D02*
X360539Y-10404674D01*
X360539Y-10404674D02*
X360539Y-10452293D01*
X360539Y-10452293D02*
X351015Y-10490389D01*
X351015Y-10490389D02*
X341491Y-10509436D01*
X341491Y-10509436D02*
X331967Y-10518960D01*
X331967Y-10518960D02*
X312920Y-10528484D01*
X312920Y-10528484D02*
X293872Y-10528484D01*
X293872Y-10528484D02*
X274824Y-10518960D01*
X274824Y-10518960D02*
X265301Y-10509436D01*
X265301Y-10509436D02*
X255777Y-10490389D01*
X255777Y-10490389D02*
X246253Y-10452293D01*
X246253Y-10452293D02*
X246253Y-10404674D01*
X246253Y-10404674D02*
X255777Y-10366579D01*
X255777Y-10366579D02*
X265301Y-10347531D01*
X265301Y-10347531D02*
X274824Y-10338008D01*
X274824Y-10338008D02*
X293872Y-10328484D01*
X446253Y-10509436D02*
X455777Y-10518960D01*
X455777Y-10518960D02*
X446253Y-10528484D01*
X446253Y-10528484D02*
X436729Y-10518960D01*
X436729Y-10518960D02*
X446253Y-10509436D01*
X446253Y-10509436D02*
X446253Y-10528484D01*
X570063Y-10414198D02*
X551015Y-10404674D01*
X551015Y-10404674D02*
X541491Y-10395150D01*
X541491Y-10395150D02*
X531967Y-10376103D01*
X531967Y-10376103D02*
X531967Y-10366579D01*
X531967Y-10366579D02*
X541491Y-10347531D01*
X541491Y-10347531D02*
X551015Y-10338008D01*
X551015Y-10338008D02*
X570063Y-10328484D01*
X570063Y-10328484D02*
X608158Y-10328484D01*
X608158Y-10328484D02*
X627205Y-10338008D01*
X627205Y-10338008D02*
X636729Y-10347531D01*
X636729Y-10347531D02*
X646253Y-10366579D01*
X646253Y-10366579D02*
X646253Y-10376103D01*
X646253Y-10376103D02*
X636729Y-10395150D01*
X636729Y-10395150D02*
X627205Y-10404674D01*
X627205Y-10404674D02*
X608158Y-10414198D01*
X608158Y-10414198D02*
X570063Y-10414198D01*
X570063Y-10414198D02*
X551015Y-10423722D01*
X551015Y-10423722D02*
X541491Y-10433246D01*
X541491Y-10433246D02*
X531967Y-10452293D01*
X531967Y-10452293D02*
X531967Y-10490389D01*
X531967Y-10490389D02*
X541491Y-10509436D01*
X541491Y-10509436D02*
X551015Y-10518960D01*
X551015Y-10518960D02*
X570063Y-10528484D01*
X570063Y-10528484D02*
X608158Y-10528484D01*
X608158Y-10528484D02*
X627205Y-10518960D01*
X627205Y-10518960D02*
X636729Y-10509436D01*
X636729Y-10509436D02*
X646253Y-10490389D01*
X646253Y-10490389D02*
X646253Y-10452293D01*
X646253Y-10452293D02*
X636729Y-10433246D01*
X636729Y-10433246D02*
X627205Y-10423722D01*
X627205Y-10423722D02*
X608158Y-10414198D01*
X770062Y-10328484D02*
X789110Y-10328484D01*
X789110Y-10328484D02*
X808158Y-10338008D01*
X808158Y-10338008D02*
X817682Y-10347531D01*
X817682Y-10347531D02*
X827205Y-10366579D01*
X827205Y-10366579D02*
X836729Y-10404674D01*
X836729Y-10404674D02*
X836729Y-10452293D01*
X836729Y-10452293D02*
X827205Y-10490389D01*
X827205Y-10490389D02*
X817682Y-10509436D01*
X817682Y-10509436D02*
X808158Y-10518960D01*
X808158Y-10518960D02*
X789110Y-10528484D01*
X789110Y-10528484D02*
X770062Y-10528484D01*
X770062Y-10528484D02*
X751015Y-10518960D01*
X751015Y-10518960D02*
X741491Y-10509436D01*
X741491Y-10509436D02*
X731967Y-10490389D01*
X731967Y-10490389D02*
X722443Y-10452293D01*
X722443Y-10452293D02*
X722443Y-10404674D01*
X722443Y-10404674D02*
X731967Y-10366579D01*
X731967Y-10366579D02*
X741491Y-10347531D01*
X741491Y-10347531D02*
X751015Y-10338008D01*
X751015Y-10338008D02*
X770062Y-10328484D01*
X960539Y-10328484D02*
X979586Y-10328484D01*
X979586Y-10328484D02*
X998634Y-10338008D01*
X998634Y-10338008D02*
X1008158Y-10347531D01*
X1008158Y-10347531D02*
X1017682Y-10366579D01*
X1017682Y-10366579D02*
X1027205Y-10404674D01*
X1027205Y-10404674D02*
X1027205Y-10452293D01*
X1027205Y-10452293D02*
X1017682Y-10490389D01*
X1017682Y-10490389D02*
X1008158Y-10509436D01*
X1008158Y-10509436D02*
X998634Y-10518960D01*
X998634Y-10518960D02*
X979586Y-10528484D01*
X979586Y-10528484D02*
X960539Y-10528484D01*
X960539Y-10528484D02*
X941491Y-10518960D01*
X941491Y-10518960D02*
X931967Y-10509436D01*
X931967Y-10509436D02*
X922443Y-10490389D01*
X922443Y-10490389D02*
X912920Y-10452293D01*
X912920Y-10452293D02*
X912920Y-10404674D01*
X912920Y-10404674D02*
X922443Y-10366579D01*
X922443Y-10366579D02*
X931967Y-10347531D01*
X931967Y-10347531D02*
X941491Y-10338008D01*
X941491Y-10338008D02*
X960539Y-10328484D01*
X1112920Y-10528484D02*
X1112920Y-10395150D01*
X1112920Y-10414198D02*
X1122444Y-10404674D01*
X1122444Y-10404674D02*
X1141491Y-10395150D01*
X1141491Y-10395150D02*
X1170063Y-10395150D01*
X1170063Y-10395150D02*
X1189110Y-10404674D01*
X1189110Y-10404674D02*
X1198634Y-10423722D01*
X1198634Y-10423722D02*
X1198634Y-10528484D01*
X1198634Y-10423722D02*
X1208158Y-10404674D01*
X1208158Y-10404674D02*
X1227205Y-10395150D01*
X1227205Y-10395150D02*
X1255777Y-10395150D01*
X1255777Y-10395150D02*
X1274825Y-10404674D01*
X1274825Y-10404674D02*
X1284348Y-10423722D01*
X1284348Y-10423722D02*
X1284348Y-10528484D01*
X1379586Y-10528484D02*
X1379586Y-10395150D01*
X1379586Y-10414198D02*
X1389110Y-10404674D01*
X1389110Y-10404674D02*
X1408158Y-10395150D01*
X1408158Y-10395150D02*
X1436729Y-10395150D01*
X1436729Y-10395150D02*
X1455777Y-10404674D01*
X1455777Y-10404674D02*
X1465301Y-10423722D01*
X1465301Y-10423722D02*
X1465301Y-10528484D01*
X1465301Y-10423722D02*
X1474824Y-10404674D01*
X1474824Y-10404674D02*
X1493872Y-10395150D01*
X1493872Y-10395150D02*
X1522443Y-10395150D01*
X1522443Y-10395150D02*
X1541491Y-10404674D01*
X1541491Y-10404674D02*
X1551015Y-10423722D01*
X1551015Y-10423722D02*
X1551015Y-10528484D01*
X1941491Y-10318960D02*
X1770063Y-10576103D01*
X2198634Y-10328484D02*
X2217682Y-10328484D01*
X2217682Y-10328484D02*
X2236729Y-10338008D01*
X2236729Y-10338008D02*
X2246253Y-10347531D01*
X2246253Y-10347531D02*
X2255777Y-10366579D01*
X2255777Y-10366579D02*
X2265301Y-10404674D01*
X2265301Y-10404674D02*
X2265301Y-10452293D01*
X2265301Y-10452293D02*
X2255777Y-10490389D01*
X2255777Y-10490389D02*
X2246253Y-10509436D01*
X2246253Y-10509436D02*
X2236729Y-10518960D01*
X2236729Y-10518960D02*
X2217682Y-10528484D01*
X2217682Y-10528484D02*
X2198634Y-10528484D01*
X2198634Y-10528484D02*
X2179587Y-10518960D01*
X2179587Y-10518960D02*
X2170063Y-10509436D01*
X2170063Y-10509436D02*
X2160539Y-10490389D01*
X2160539Y-10490389D02*
X2151015Y-10452293D01*
X2151015Y-10452293D02*
X2151015Y-10404674D01*
X2151015Y-10404674D02*
X2160539Y-10366579D01*
X2160539Y-10366579D02*
X2170063Y-10347531D01*
X2170063Y-10347531D02*
X2179587Y-10338008D01*
X2179587Y-10338008D02*
X2198634Y-10328484D01*
X2351015Y-10509436D02*
X2360539Y-10518960D01*
X2360539Y-10518960D02*
X2351015Y-10528484D01*
X2351015Y-10528484D02*
X2341491Y-10518960D01*
X2341491Y-10518960D02*
X2351015Y-10509436D01*
X2351015Y-10509436D02*
X2351015Y-10528484D01*
X2484348Y-10328484D02*
X2503396Y-10328484D01*
X2503396Y-10328484D02*
X2522444Y-10338008D01*
X2522444Y-10338008D02*
X2531968Y-10347531D01*
X2531968Y-10347531D02*
X2541491Y-10366579D01*
X2541491Y-10366579D02*
X2551015Y-10404674D01*
X2551015Y-10404674D02*
X2551015Y-10452293D01*
X2551015Y-10452293D02*
X2541491Y-10490389D01*
X2541491Y-10490389D02*
X2531968Y-10509436D01*
X2531968Y-10509436D02*
X2522444Y-10518960D01*
X2522444Y-10518960D02*
X2503396Y-10528484D01*
X2503396Y-10528484D02*
X2484348Y-10528484D01*
X2484348Y-10528484D02*
X2465301Y-10518960D01*
X2465301Y-10518960D02*
X2455777Y-10509436D01*
X2455777Y-10509436D02*
X2446253Y-10490389D01*
X2446253Y-10490389D02*
X2436729Y-10452293D01*
X2436729Y-10452293D02*
X2436729Y-10404674D01*
X2436729Y-10404674D02*
X2446253Y-10366579D01*
X2446253Y-10366579D02*
X2455777Y-10347531D01*
X2455777Y-10347531D02*
X2465301Y-10338008D01*
X2465301Y-10338008D02*
X2484348Y-10328484D01*
X2617682Y-10328484D02*
X2741491Y-10328484D01*
X2741491Y-10328484D02*
X2674825Y-10404674D01*
X2674825Y-10404674D02*
X2703396Y-10404674D01*
X2703396Y-10404674D02*
X2722444Y-10414198D01*
X2722444Y-10414198D02*
X2731968Y-10423722D01*
X2731968Y-10423722D02*
X2741491Y-10442770D01*
X2741491Y-10442770D02*
X2741491Y-10490389D01*
X2741491Y-10490389D02*
X2731968Y-10509436D01*
X2731968Y-10509436D02*
X2722444Y-10518960D01*
X2722444Y-10518960D02*
X2703396Y-10528484D01*
X2703396Y-10528484D02*
X2646253Y-10528484D01*
X2646253Y-10528484D02*
X2627206Y-10518960D01*
X2627206Y-10518960D02*
X2617682Y-10509436D01*
X2931967Y-10528484D02*
X2817682Y-10528484D01*
X2874825Y-10528484D02*
X2874825Y-10328484D01*
X2874825Y-10328484D02*
X2855777Y-10357055D01*
X2855777Y-10357055D02*
X2836729Y-10376103D01*
X2836729Y-10376103D02*
X2817682Y-10385627D01*
X3112920Y-10328484D02*
X3017682Y-10328484D01*
X3017682Y-10328484D02*
X3008158Y-10423722D01*
X3008158Y-10423722D02*
X3017682Y-10414198D01*
X3017682Y-10414198D02*
X3036729Y-10404674D01*
X3036729Y-10404674D02*
X3084348Y-10404674D01*
X3084348Y-10404674D02*
X3103396Y-10414198D01*
X3103396Y-10414198D02*
X3112920Y-10423722D01*
X3112920Y-10423722D02*
X3122444Y-10442770D01*
X3122444Y-10442770D02*
X3122444Y-10490389D01*
X3122444Y-10490389D02*
X3112920Y-10509436D01*
X3112920Y-10509436D02*
X3103396Y-10518960D01*
X3103396Y-10518960D02*
X3084348Y-10528484D01*
X3084348Y-10528484D02*
X3036729Y-10528484D01*
X3036729Y-10528484D02*
X3017682Y-10518960D01*
X3017682Y-10518960D02*
X3008158Y-10509436D01*
X3198634Y-10328484D02*
X3198634Y-10366579D01*
X3274825Y-10328484D02*
X3274825Y-10366579D01*
X3570063Y-10604674D02*
X3560539Y-10595150D01*
X3560539Y-10595150D02*
X3541491Y-10566579D01*
X3541491Y-10566579D02*
X3531968Y-10547531D01*
X3531968Y-10547531D02*
X3522444Y-10518960D01*
X3522444Y-10518960D02*
X3512920Y-10471341D01*
X3512920Y-10471341D02*
X3512920Y-10433246D01*
X3512920Y-10433246D02*
X3522444Y-10385627D01*
X3522444Y-10385627D02*
X3531968Y-10357055D01*
X3531968Y-10357055D02*
X3541491Y-10338008D01*
X3541491Y-10338008D02*
X3560539Y-10309436D01*
X3560539Y-10309436D02*
X3570063Y-10299912D01*
X3684348Y-10328484D02*
X3703396Y-10328484D01*
X3703396Y-10328484D02*
X3722444Y-10338008D01*
X3722444Y-10338008D02*
X3731968Y-10347531D01*
X3731968Y-10347531D02*
X3741491Y-10366579D01*
X3741491Y-10366579D02*
X3751015Y-10404674D01*
X3751015Y-10404674D02*
X3751015Y-10452293D01*
X3751015Y-10452293D02*
X3741491Y-10490389D01*
X3741491Y-10490389D02*
X3731968Y-10509436D01*
X3731968Y-10509436D02*
X3722444Y-10518960D01*
X3722444Y-10518960D02*
X3703396Y-10528484D01*
X3703396Y-10528484D02*
X3684348Y-10528484D01*
X3684348Y-10528484D02*
X3665301Y-10518960D01*
X3665301Y-10518960D02*
X3655777Y-10509436D01*
X3655777Y-10509436D02*
X3646253Y-10490389D01*
X3646253Y-10490389D02*
X3636729Y-10452293D01*
X3636729Y-10452293D02*
X3636729Y-10404674D01*
X3636729Y-10404674D02*
X3646253Y-10366579D01*
X3646253Y-10366579D02*
X3655777Y-10347531D01*
X3655777Y-10347531D02*
X3665301Y-10338008D01*
X3665301Y-10338008D02*
X3684348Y-10328484D01*
X3989110Y-10528484D02*
X3989110Y-10328484D01*
X4074825Y-10528484D02*
X4074825Y-10423722D01*
X4074825Y-10423722D02*
X4065301Y-10404674D01*
X4065301Y-10404674D02*
X4046253Y-10395150D01*
X4046253Y-10395150D02*
X4017682Y-10395150D01*
X4017682Y-10395150D02*
X3998634Y-10404674D01*
X3998634Y-10404674D02*
X3989110Y-10414198D01*
X4198634Y-10528484D02*
X4179587Y-10518960D01*
X4179587Y-10518960D02*
X4170063Y-10509436D01*
X4170063Y-10509436D02*
X4160539Y-10490389D01*
X4160539Y-10490389D02*
X4160539Y-10433246D01*
X4160539Y-10433246D02*
X4170063Y-10414198D01*
X4170063Y-10414198D02*
X4179587Y-10404674D01*
X4179587Y-10404674D02*
X4198634Y-10395150D01*
X4198634Y-10395150D02*
X4227206Y-10395150D01*
X4227206Y-10395150D02*
X4246253Y-10404674D01*
X4246253Y-10404674D02*
X4255777Y-10414198D01*
X4255777Y-10414198D02*
X4265301Y-10433246D01*
X4265301Y-10433246D02*
X4265301Y-10490389D01*
X4265301Y-10490389D02*
X4255777Y-10509436D01*
X4255777Y-10509436D02*
X4246253Y-10518960D01*
X4246253Y-10518960D02*
X4227206Y-10528484D01*
X4227206Y-10528484D02*
X4198634Y-10528484D01*
X4379587Y-10528484D02*
X4360539Y-10518960D01*
X4360539Y-10518960D02*
X4351015Y-10499912D01*
X4351015Y-10499912D02*
X4351015Y-10328484D01*
X4531968Y-10518960D02*
X4512920Y-10528484D01*
X4512920Y-10528484D02*
X4474825Y-10528484D01*
X4474825Y-10528484D02*
X4455777Y-10518960D01*
X4455777Y-10518960D02*
X4446253Y-10499912D01*
X4446253Y-10499912D02*
X4446253Y-10423722D01*
X4446253Y-10423722D02*
X4455777Y-10404674D01*
X4455777Y-10404674D02*
X4474825Y-10395150D01*
X4474825Y-10395150D02*
X4512920Y-10395150D01*
X4512920Y-10395150D02*
X4531968Y-10404674D01*
X4531968Y-10404674D02*
X4541492Y-10423722D01*
X4541492Y-10423722D02*
X4541492Y-10442770D01*
X4541492Y-10442770D02*
X4446253Y-10461817D01*
X4617682Y-10518960D02*
X4636730Y-10528484D01*
X4636730Y-10528484D02*
X4674825Y-10528484D01*
X4674825Y-10528484D02*
X4693873Y-10518960D01*
X4693873Y-10518960D02*
X4703396Y-10499912D01*
X4703396Y-10499912D02*
X4703396Y-10490389D01*
X4703396Y-10490389D02*
X4693873Y-10471341D01*
X4693873Y-10471341D02*
X4674825Y-10461817D01*
X4674825Y-10461817D02*
X4646253Y-10461817D01*
X4646253Y-10461817D02*
X4627206Y-10452293D01*
X4627206Y-10452293D02*
X4617682Y-10433246D01*
X4617682Y-10433246D02*
X4617682Y-10423722D01*
X4617682Y-10423722D02*
X4627206Y-10404674D01*
X4627206Y-10404674D02*
X4646253Y-10395150D01*
X4646253Y-10395150D02*
X4674825Y-10395150D01*
X4674825Y-10395150D02*
X4693873Y-10404674D01*
X4941492Y-10452293D02*
X5093873Y-10452293D01*
X5017682Y-10528484D02*
X5017682Y-10376103D01*
X5427206Y-10395150D02*
X5427206Y-10528484D01*
X5379587Y-10318960D02*
X5331968Y-10461817D01*
X5331968Y-10461817D02*
X5455777Y-10461817D01*
X5674825Y-10518960D02*
X5693873Y-10528484D01*
X5693873Y-10528484D02*
X5731968Y-10528484D01*
X5731968Y-10528484D02*
X5751015Y-10518960D01*
X5751015Y-10518960D02*
X5760539Y-10499912D01*
X5760539Y-10499912D02*
X5760539Y-10490389D01*
X5760539Y-10490389D02*
X5751015Y-10471341D01*
X5751015Y-10471341D02*
X5731968Y-10461817D01*
X5731968Y-10461817D02*
X5703396Y-10461817D01*
X5703396Y-10461817D02*
X5684349Y-10452293D01*
X5684349Y-10452293D02*
X5674825Y-10433246D01*
X5674825Y-10433246D02*
X5674825Y-10423722D01*
X5674825Y-10423722D02*
X5684349Y-10404674D01*
X5684349Y-10404674D02*
X5703396Y-10395150D01*
X5703396Y-10395150D02*
X5731968Y-10395150D01*
X5731968Y-10395150D02*
X5751015Y-10404674D01*
X5874825Y-10528484D02*
X5855777Y-10518960D01*
X5855777Y-10518960D02*
X5846254Y-10499912D01*
X5846254Y-10499912D02*
X5846254Y-10328484D01*
X5979587Y-10528484D02*
X5960539Y-10518960D01*
X5960539Y-10518960D02*
X5951015Y-10509436D01*
X5951015Y-10509436D02*
X5941492Y-10490389D01*
X5941492Y-10490389D02*
X5941492Y-10433246D01*
X5941492Y-10433246D02*
X5951015Y-10414198D01*
X5951015Y-10414198D02*
X5960539Y-10404674D01*
X5960539Y-10404674D02*
X5979587Y-10395150D01*
X5979587Y-10395150D02*
X6008158Y-10395150D01*
X6008158Y-10395150D02*
X6027206Y-10404674D01*
X6027206Y-10404674D02*
X6036730Y-10414198D01*
X6036730Y-10414198D02*
X6046254Y-10433246D01*
X6046254Y-10433246D02*
X6046254Y-10490389D01*
X6046254Y-10490389D02*
X6036730Y-10509436D01*
X6036730Y-10509436D02*
X6027206Y-10518960D01*
X6027206Y-10518960D02*
X6008158Y-10528484D01*
X6008158Y-10528484D02*
X5979587Y-10528484D01*
X6103396Y-10395150D02*
X6179587Y-10395150D01*
X6131968Y-10328484D02*
X6131968Y-10499912D01*
X6131968Y-10499912D02*
X6141492Y-10518960D01*
X6141492Y-10518960D02*
X6160539Y-10528484D01*
X6160539Y-10528484D02*
X6179587Y-10528484D01*
X6236730Y-10518960D02*
X6255777Y-10528484D01*
X6255777Y-10528484D02*
X6293873Y-10528484D01*
X6293873Y-10528484D02*
X6312920Y-10518960D01*
X6312920Y-10518960D02*
X6322444Y-10499912D01*
X6322444Y-10499912D02*
X6322444Y-10490389D01*
X6322444Y-10490389D02*
X6312920Y-10471341D01*
X6312920Y-10471341D02*
X6293873Y-10461817D01*
X6293873Y-10461817D02*
X6265301Y-10461817D01*
X6265301Y-10461817D02*
X6246254Y-10452293D01*
X6246254Y-10452293D02*
X6236730Y-10433246D01*
X6236730Y-10433246D02*
X6236730Y-10423722D01*
X6236730Y-10423722D02*
X6246254Y-10404674D01*
X6246254Y-10404674D02*
X6265301Y-10395150D01*
X6265301Y-10395150D02*
X6293873Y-10395150D01*
X6293873Y-10395150D02*
X6312920Y-10404674D01*
X6389111Y-10604674D02*
X6398635Y-10595150D01*
X6398635Y-10595150D02*
X6417682Y-10566579D01*
X6417682Y-10566579D02*
X6427206Y-10547531D01*
X6427206Y-10547531D02*
X6436730Y-10518960D01*
X6436730Y-10518960D02*
X6446254Y-10471341D01*
X6446254Y-10471341D02*
X6446254Y-10433246D01*
X6446254Y-10433246D02*
X6436730Y-10385627D01*
X6436730Y-10385627D02*
X6427206Y-10357055D01*
X6427206Y-10357055D02*
X6417682Y-10338008D01*
X6417682Y-10338008D02*
X6398635Y-10309436D01*
X6398635Y-10309436D02*
X6389111Y-10299912D01*
D10*
X-55000Y-10751000D02*
X-5000Y-10701000D01*
X-55000Y-10651000D01*
X-105000Y-10701000D01*
X-55000Y-10751000D01*
D11*
X360539Y-10792484D02*
X246253Y-10792484D01*
X303396Y-10792484D02*
X303396Y-10592484D01*
X303396Y-10592484D02*
X284348Y-10621055D01*
X284348Y-10621055D02*
X265301Y-10640103D01*
X265301Y-10640103D02*
X246253Y-10649627D01*
X446253Y-10773436D02*
X455777Y-10782960D01*
X455777Y-10782960D02*
X446253Y-10792484D01*
X446253Y-10792484D02*
X436729Y-10782960D01*
X436729Y-10782960D02*
X446253Y-10773436D01*
X446253Y-10773436D02*
X446253Y-10792484D01*
X579586Y-10592484D02*
X598634Y-10592484D01*
X598634Y-10592484D02*
X617682Y-10602008D01*
X617682Y-10602008D02*
X627205Y-10611531D01*
X627205Y-10611531D02*
X636729Y-10630579D01*
X636729Y-10630579D02*
X646253Y-10668674D01*
X646253Y-10668674D02*
X646253Y-10716293D01*
X646253Y-10716293D02*
X636729Y-10754389D01*
X636729Y-10754389D02*
X627205Y-10773436D01*
X627205Y-10773436D02*
X617682Y-10782960D01*
X617682Y-10782960D02*
X598634Y-10792484D01*
X598634Y-10792484D02*
X579586Y-10792484D01*
X579586Y-10792484D02*
X560539Y-10782960D01*
X560539Y-10782960D02*
X551015Y-10773436D01*
X551015Y-10773436D02*
X541491Y-10754389D01*
X541491Y-10754389D02*
X531967Y-10716293D01*
X531967Y-10716293D02*
X531967Y-10668674D01*
X531967Y-10668674D02*
X541491Y-10630579D01*
X541491Y-10630579D02*
X551015Y-10611531D01*
X551015Y-10611531D02*
X560539Y-10602008D01*
X560539Y-10602008D02*
X579586Y-10592484D01*
X770062Y-10592484D02*
X789110Y-10592484D01*
X789110Y-10592484D02*
X808158Y-10602008D01*
X808158Y-10602008D02*
X817682Y-10611531D01*
X817682Y-10611531D02*
X827205Y-10630579D01*
X827205Y-10630579D02*
X836729Y-10668674D01*
X836729Y-10668674D02*
X836729Y-10716293D01*
X836729Y-10716293D02*
X827205Y-10754389D01*
X827205Y-10754389D02*
X817682Y-10773436D01*
X817682Y-10773436D02*
X808158Y-10782960D01*
X808158Y-10782960D02*
X789110Y-10792484D01*
X789110Y-10792484D02*
X770062Y-10792484D01*
X770062Y-10792484D02*
X751015Y-10782960D01*
X751015Y-10782960D02*
X741491Y-10773436D01*
X741491Y-10773436D02*
X731967Y-10754389D01*
X731967Y-10754389D02*
X722443Y-10716293D01*
X722443Y-10716293D02*
X722443Y-10668674D01*
X722443Y-10668674D02*
X731967Y-10630579D01*
X731967Y-10630579D02*
X741491Y-10611531D01*
X741491Y-10611531D02*
X751015Y-10602008D01*
X751015Y-10602008D02*
X770062Y-10592484D01*
X960539Y-10592484D02*
X979586Y-10592484D01*
X979586Y-10592484D02*
X998634Y-10602008D01*
X998634Y-10602008D02*
X1008158Y-10611531D01*
X1008158Y-10611531D02*
X1017682Y-10630579D01*
X1017682Y-10630579D02*
X1027205Y-10668674D01*
X1027205Y-10668674D02*
X1027205Y-10716293D01*
X1027205Y-10716293D02*
X1017682Y-10754389D01*
X1017682Y-10754389D02*
X1008158Y-10773436D01*
X1008158Y-10773436D02*
X998634Y-10782960D01*
X998634Y-10782960D02*
X979586Y-10792484D01*
X979586Y-10792484D02*
X960539Y-10792484D01*
X960539Y-10792484D02*
X941491Y-10782960D01*
X941491Y-10782960D02*
X931967Y-10773436D01*
X931967Y-10773436D02*
X922443Y-10754389D01*
X922443Y-10754389D02*
X912920Y-10716293D01*
X912920Y-10716293D02*
X912920Y-10668674D01*
X912920Y-10668674D02*
X922443Y-10630579D01*
X922443Y-10630579D02*
X931967Y-10611531D01*
X931967Y-10611531D02*
X941491Y-10602008D01*
X941491Y-10602008D02*
X960539Y-10592484D01*
X1112920Y-10792484D02*
X1112920Y-10659150D01*
X1112920Y-10678198D02*
X1122444Y-10668674D01*
X1122444Y-10668674D02*
X1141491Y-10659150D01*
X1141491Y-10659150D02*
X1170063Y-10659150D01*
X1170063Y-10659150D02*
X1189110Y-10668674D01*
X1189110Y-10668674D02*
X1198634Y-10687722D01*
X1198634Y-10687722D02*
X1198634Y-10792484D01*
X1198634Y-10687722D02*
X1208158Y-10668674D01*
X1208158Y-10668674D02*
X1227205Y-10659150D01*
X1227205Y-10659150D02*
X1255777Y-10659150D01*
X1255777Y-10659150D02*
X1274825Y-10668674D01*
X1274825Y-10668674D02*
X1284348Y-10687722D01*
X1284348Y-10687722D02*
X1284348Y-10792484D01*
X1379586Y-10792484D02*
X1379586Y-10659150D01*
X1379586Y-10678198D02*
X1389110Y-10668674D01*
X1389110Y-10668674D02*
X1408158Y-10659150D01*
X1408158Y-10659150D02*
X1436729Y-10659150D01*
X1436729Y-10659150D02*
X1455777Y-10668674D01*
X1455777Y-10668674D02*
X1465301Y-10687722D01*
X1465301Y-10687722D02*
X1465301Y-10792484D01*
X1465301Y-10687722D02*
X1474824Y-10668674D01*
X1474824Y-10668674D02*
X1493872Y-10659150D01*
X1493872Y-10659150D02*
X1522443Y-10659150D01*
X1522443Y-10659150D02*
X1541491Y-10668674D01*
X1541491Y-10668674D02*
X1551015Y-10687722D01*
X1551015Y-10687722D02*
X1551015Y-10792484D01*
X1941491Y-10582960D02*
X1770063Y-10840103D01*
X2198634Y-10592484D02*
X2217682Y-10592484D01*
X2217682Y-10592484D02*
X2236729Y-10602008D01*
X2236729Y-10602008D02*
X2246253Y-10611531D01*
X2246253Y-10611531D02*
X2255777Y-10630579D01*
X2255777Y-10630579D02*
X2265301Y-10668674D01*
X2265301Y-10668674D02*
X2265301Y-10716293D01*
X2265301Y-10716293D02*
X2255777Y-10754389D01*
X2255777Y-10754389D02*
X2246253Y-10773436D01*
X2246253Y-10773436D02*
X2236729Y-10782960D01*
X2236729Y-10782960D02*
X2217682Y-10792484D01*
X2217682Y-10792484D02*
X2198634Y-10792484D01*
X2198634Y-10792484D02*
X2179587Y-10782960D01*
X2179587Y-10782960D02*
X2170063Y-10773436D01*
X2170063Y-10773436D02*
X2160539Y-10754389D01*
X2160539Y-10754389D02*
X2151015Y-10716293D01*
X2151015Y-10716293D02*
X2151015Y-10668674D01*
X2151015Y-10668674D02*
X2160539Y-10630579D01*
X2160539Y-10630579D02*
X2170063Y-10611531D01*
X2170063Y-10611531D02*
X2179587Y-10602008D01*
X2179587Y-10602008D02*
X2198634Y-10592484D01*
X2351015Y-10773436D02*
X2360539Y-10782960D01*
X2360539Y-10782960D02*
X2351015Y-10792484D01*
X2351015Y-10792484D02*
X2341491Y-10782960D01*
X2341491Y-10782960D02*
X2351015Y-10773436D01*
X2351015Y-10773436D02*
X2351015Y-10792484D01*
X2484348Y-10592484D02*
X2503396Y-10592484D01*
X2503396Y-10592484D02*
X2522444Y-10602008D01*
X2522444Y-10602008D02*
X2531968Y-10611531D01*
X2531968Y-10611531D02*
X2541491Y-10630579D01*
X2541491Y-10630579D02*
X2551015Y-10668674D01*
X2551015Y-10668674D02*
X2551015Y-10716293D01*
X2551015Y-10716293D02*
X2541491Y-10754389D01*
X2541491Y-10754389D02*
X2531968Y-10773436D01*
X2531968Y-10773436D02*
X2522444Y-10782960D01*
X2522444Y-10782960D02*
X2503396Y-10792484D01*
X2503396Y-10792484D02*
X2484348Y-10792484D01*
X2484348Y-10792484D02*
X2465301Y-10782960D01*
X2465301Y-10782960D02*
X2455777Y-10773436D01*
X2455777Y-10773436D02*
X2446253Y-10754389D01*
X2446253Y-10754389D02*
X2436729Y-10716293D01*
X2436729Y-10716293D02*
X2436729Y-10668674D01*
X2436729Y-10668674D02*
X2446253Y-10630579D01*
X2446253Y-10630579D02*
X2455777Y-10611531D01*
X2455777Y-10611531D02*
X2465301Y-10602008D01*
X2465301Y-10602008D02*
X2484348Y-10592484D01*
X2617682Y-10592484D02*
X2741491Y-10592484D01*
X2741491Y-10592484D02*
X2674825Y-10668674D01*
X2674825Y-10668674D02*
X2703396Y-10668674D01*
X2703396Y-10668674D02*
X2722444Y-10678198D01*
X2722444Y-10678198D02*
X2731968Y-10687722D01*
X2731968Y-10687722D02*
X2741491Y-10706770D01*
X2741491Y-10706770D02*
X2741491Y-10754389D01*
X2741491Y-10754389D02*
X2731968Y-10773436D01*
X2731968Y-10773436D02*
X2722444Y-10782960D01*
X2722444Y-10782960D02*
X2703396Y-10792484D01*
X2703396Y-10792484D02*
X2646253Y-10792484D01*
X2646253Y-10792484D02*
X2627206Y-10782960D01*
X2627206Y-10782960D02*
X2617682Y-10773436D01*
X2836729Y-10792484D02*
X2874825Y-10792484D01*
X2874825Y-10792484D02*
X2893872Y-10782960D01*
X2893872Y-10782960D02*
X2903396Y-10773436D01*
X2903396Y-10773436D02*
X2922444Y-10744865D01*
X2922444Y-10744865D02*
X2931967Y-10706770D01*
X2931967Y-10706770D02*
X2931967Y-10630579D01*
X2931967Y-10630579D02*
X2922444Y-10611531D01*
X2922444Y-10611531D02*
X2912920Y-10602008D01*
X2912920Y-10602008D02*
X2893872Y-10592484D01*
X2893872Y-10592484D02*
X2855777Y-10592484D01*
X2855777Y-10592484D02*
X2836729Y-10602008D01*
X2836729Y-10602008D02*
X2827206Y-10611531D01*
X2827206Y-10611531D02*
X2817682Y-10630579D01*
X2817682Y-10630579D02*
X2817682Y-10678198D01*
X2817682Y-10678198D02*
X2827206Y-10697246D01*
X2827206Y-10697246D02*
X2836729Y-10706770D01*
X2836729Y-10706770D02*
X2855777Y-10716293D01*
X2855777Y-10716293D02*
X2893872Y-10716293D01*
X2893872Y-10716293D02*
X2912920Y-10706770D01*
X2912920Y-10706770D02*
X2922444Y-10697246D01*
X2922444Y-10697246D02*
X2931967Y-10678198D01*
X3103396Y-10659150D02*
X3103396Y-10792484D01*
X3055777Y-10582960D02*
X3008158Y-10725817D01*
X3008158Y-10725817D02*
X3131967Y-10725817D01*
X3198634Y-10592484D02*
X3198634Y-10630579D01*
X3274825Y-10592484D02*
X3274825Y-10630579D01*
X3570063Y-10868674D02*
X3560539Y-10859150D01*
X3560539Y-10859150D02*
X3541491Y-10830579D01*
X3541491Y-10830579D02*
X3531968Y-10811531D01*
X3531968Y-10811531D02*
X3522444Y-10782960D01*
X3522444Y-10782960D02*
X3512920Y-10735341D01*
X3512920Y-10735341D02*
X3512920Y-10697246D01*
X3512920Y-10697246D02*
X3522444Y-10649627D01*
X3522444Y-10649627D02*
X3531968Y-10621055D01*
X3531968Y-10621055D02*
X3541491Y-10602008D01*
X3541491Y-10602008D02*
X3560539Y-10573436D01*
X3560539Y-10573436D02*
X3570063Y-10563912D01*
X3636729Y-10611531D02*
X3646253Y-10602008D01*
X3646253Y-10602008D02*
X3665301Y-10592484D01*
X3665301Y-10592484D02*
X3712920Y-10592484D01*
X3712920Y-10592484D02*
X3731968Y-10602008D01*
X3731968Y-10602008D02*
X3741491Y-10611531D01*
X3741491Y-10611531D02*
X3751015Y-10630579D01*
X3751015Y-10630579D02*
X3751015Y-10649627D01*
X3751015Y-10649627D02*
X3741491Y-10678198D01*
X3741491Y-10678198D02*
X3627206Y-10792484D01*
X3627206Y-10792484D02*
X3751015Y-10792484D01*
X3989110Y-10792484D02*
X3989110Y-10592484D01*
X4074825Y-10792484D02*
X4074825Y-10687722D01*
X4074825Y-10687722D02*
X4065301Y-10668674D01*
X4065301Y-10668674D02*
X4046253Y-10659150D01*
X4046253Y-10659150D02*
X4017682Y-10659150D01*
X4017682Y-10659150D02*
X3998634Y-10668674D01*
X3998634Y-10668674D02*
X3989110Y-10678198D01*
X4198634Y-10792484D02*
X4179587Y-10782960D01*
X4179587Y-10782960D02*
X4170063Y-10773436D01*
X4170063Y-10773436D02*
X4160539Y-10754389D01*
X4160539Y-10754389D02*
X4160539Y-10697246D01*
X4160539Y-10697246D02*
X4170063Y-10678198D01*
X4170063Y-10678198D02*
X4179587Y-10668674D01*
X4179587Y-10668674D02*
X4198634Y-10659150D01*
X4198634Y-10659150D02*
X4227206Y-10659150D01*
X4227206Y-10659150D02*
X4246253Y-10668674D01*
X4246253Y-10668674D02*
X4255777Y-10678198D01*
X4255777Y-10678198D02*
X4265301Y-10697246D01*
X4265301Y-10697246D02*
X4265301Y-10754389D01*
X4265301Y-10754389D02*
X4255777Y-10773436D01*
X4255777Y-10773436D02*
X4246253Y-10782960D01*
X4246253Y-10782960D02*
X4227206Y-10792484D01*
X4227206Y-10792484D02*
X4198634Y-10792484D01*
X4379587Y-10792484D02*
X4360539Y-10782960D01*
X4360539Y-10782960D02*
X4351015Y-10763912D01*
X4351015Y-10763912D02*
X4351015Y-10592484D01*
X4531968Y-10782960D02*
X4512920Y-10792484D01*
X4512920Y-10792484D02*
X4474825Y-10792484D01*
X4474825Y-10792484D02*
X4455777Y-10782960D01*
X4455777Y-10782960D02*
X4446253Y-10763912D01*
X4446253Y-10763912D02*
X4446253Y-10687722D01*
X4446253Y-10687722D02*
X4455777Y-10668674D01*
X4455777Y-10668674D02*
X4474825Y-10659150D01*
X4474825Y-10659150D02*
X4512920Y-10659150D01*
X4512920Y-10659150D02*
X4531968Y-10668674D01*
X4531968Y-10668674D02*
X4541492Y-10687722D01*
X4541492Y-10687722D02*
X4541492Y-10706770D01*
X4541492Y-10706770D02*
X4446253Y-10725817D01*
X4617682Y-10782960D02*
X4636730Y-10792484D01*
X4636730Y-10792484D02*
X4674825Y-10792484D01*
X4674825Y-10792484D02*
X4693873Y-10782960D01*
X4693873Y-10782960D02*
X4703396Y-10763912D01*
X4703396Y-10763912D02*
X4703396Y-10754389D01*
X4703396Y-10754389D02*
X4693873Y-10735341D01*
X4693873Y-10735341D02*
X4674825Y-10725817D01*
X4674825Y-10725817D02*
X4646253Y-10725817D01*
X4646253Y-10725817D02*
X4627206Y-10716293D01*
X4627206Y-10716293D02*
X4617682Y-10697246D01*
X4617682Y-10697246D02*
X4617682Y-10687722D01*
X4617682Y-10687722D02*
X4627206Y-10668674D01*
X4627206Y-10668674D02*
X4646253Y-10659150D01*
X4646253Y-10659150D02*
X4674825Y-10659150D01*
X4674825Y-10659150D02*
X4693873Y-10668674D01*
X4770063Y-10868674D02*
X4779587Y-10859150D01*
X4779587Y-10859150D02*
X4798634Y-10830579D01*
X4798634Y-10830579D02*
X4808158Y-10811531D01*
X4808158Y-10811531D02*
X4817682Y-10782960D01*
X4817682Y-10782960D02*
X4827206Y-10735341D01*
X4827206Y-10735341D02*
X4827206Y-10697246D01*
X4827206Y-10697246D02*
X4817682Y-10649627D01*
X4817682Y-10649627D02*
X4808158Y-10621055D01*
X4808158Y-10621055D02*
X4798634Y-10602008D01*
X4798634Y-10602008D02*
X4779587Y-10573436D01*
X4779587Y-10573436D02*
X4770063Y-10563912D01*
D12*
X-125000Y-10905000D02*
X-5000Y-11025000D01*
X-5000Y-10905000D02*
X-125000Y-11025000D01*
X-5000Y-10965000D02*
G75*
G02*
X-125000Y-10965000I-60000J0D01*
G01*
X-125000Y-10965000D02*
G75*
G02*
X-5000Y-10965000I60000J0D01*
G01*
D11*
X360539Y-11056484D02*
X246253Y-11056484D01*
X303396Y-11056484D02*
X303396Y-10856484D01*
X303396Y-10856484D02*
X284348Y-10885055D01*
X284348Y-10885055D02*
X265301Y-10904103D01*
X265301Y-10904103D02*
X246253Y-10913627D01*
X446253Y-11037436D02*
X455777Y-11046960D01*
X455777Y-11046960D02*
X446253Y-11056484D01*
X446253Y-11056484D02*
X436729Y-11046960D01*
X436729Y-11046960D02*
X446253Y-11037436D01*
X446253Y-11037436D02*
X446253Y-11056484D01*
X531967Y-10875531D02*
X541491Y-10866008D01*
X541491Y-10866008D02*
X560539Y-10856484D01*
X560539Y-10856484D02*
X608158Y-10856484D01*
X608158Y-10856484D02*
X627205Y-10866008D01*
X627205Y-10866008D02*
X636729Y-10875531D01*
X636729Y-10875531D02*
X646253Y-10894579D01*
X646253Y-10894579D02*
X646253Y-10913627D01*
X646253Y-10913627D02*
X636729Y-10942198D01*
X636729Y-10942198D02*
X522443Y-11056484D01*
X522443Y-11056484D02*
X646253Y-11056484D01*
X770062Y-10856484D02*
X789110Y-10856484D01*
X789110Y-10856484D02*
X808158Y-10866008D01*
X808158Y-10866008D02*
X817682Y-10875531D01*
X817682Y-10875531D02*
X827205Y-10894579D01*
X827205Y-10894579D02*
X836729Y-10932674D01*
X836729Y-10932674D02*
X836729Y-10980293D01*
X836729Y-10980293D02*
X827205Y-11018389D01*
X827205Y-11018389D02*
X817682Y-11037436D01*
X817682Y-11037436D02*
X808158Y-11046960D01*
X808158Y-11046960D02*
X789110Y-11056484D01*
X789110Y-11056484D02*
X770062Y-11056484D01*
X770062Y-11056484D02*
X751015Y-11046960D01*
X751015Y-11046960D02*
X741491Y-11037436D01*
X741491Y-11037436D02*
X731967Y-11018389D01*
X731967Y-11018389D02*
X722443Y-10980293D01*
X722443Y-10980293D02*
X722443Y-10932674D01*
X722443Y-10932674D02*
X731967Y-10894579D01*
X731967Y-10894579D02*
X741491Y-10875531D01*
X741491Y-10875531D02*
X751015Y-10866008D01*
X751015Y-10866008D02*
X770062Y-10856484D01*
X960539Y-10856484D02*
X979586Y-10856484D01*
X979586Y-10856484D02*
X998634Y-10866008D01*
X998634Y-10866008D02*
X1008158Y-10875531D01*
X1008158Y-10875531D02*
X1017682Y-10894579D01*
X1017682Y-10894579D02*
X1027205Y-10932674D01*
X1027205Y-10932674D02*
X1027205Y-10980293D01*
X1027205Y-10980293D02*
X1017682Y-11018389D01*
X1017682Y-11018389D02*
X1008158Y-11037436D01*
X1008158Y-11037436D02*
X998634Y-11046960D01*
X998634Y-11046960D02*
X979586Y-11056484D01*
X979586Y-11056484D02*
X960539Y-11056484D01*
X960539Y-11056484D02*
X941491Y-11046960D01*
X941491Y-11046960D02*
X931967Y-11037436D01*
X931967Y-11037436D02*
X922443Y-11018389D01*
X922443Y-11018389D02*
X912920Y-10980293D01*
X912920Y-10980293D02*
X912920Y-10932674D01*
X912920Y-10932674D02*
X922443Y-10894579D01*
X922443Y-10894579D02*
X931967Y-10875531D01*
X931967Y-10875531D02*
X941491Y-10866008D01*
X941491Y-10866008D02*
X960539Y-10856484D01*
X1112920Y-11056484D02*
X1112920Y-10923150D01*
X1112920Y-10942198D02*
X1122444Y-10932674D01*
X1122444Y-10932674D02*
X1141491Y-10923150D01*
X1141491Y-10923150D02*
X1170063Y-10923150D01*
X1170063Y-10923150D02*
X1189110Y-10932674D01*
X1189110Y-10932674D02*
X1198634Y-10951722D01*
X1198634Y-10951722D02*
X1198634Y-11056484D01*
X1198634Y-10951722D02*
X1208158Y-10932674D01*
X1208158Y-10932674D02*
X1227205Y-10923150D01*
X1227205Y-10923150D02*
X1255777Y-10923150D01*
X1255777Y-10923150D02*
X1274825Y-10932674D01*
X1274825Y-10932674D02*
X1284348Y-10951722D01*
X1284348Y-10951722D02*
X1284348Y-11056484D01*
X1379586Y-11056484D02*
X1379586Y-10923150D01*
X1379586Y-10942198D02*
X1389110Y-10932674D01*
X1389110Y-10932674D02*
X1408158Y-10923150D01*
X1408158Y-10923150D02*
X1436729Y-10923150D01*
X1436729Y-10923150D02*
X1455777Y-10932674D01*
X1455777Y-10932674D02*
X1465301Y-10951722D01*
X1465301Y-10951722D02*
X1465301Y-11056484D01*
X1465301Y-10951722D02*
X1474824Y-10932674D01*
X1474824Y-10932674D02*
X1493872Y-10923150D01*
X1493872Y-10923150D02*
X1522443Y-10923150D01*
X1522443Y-10923150D02*
X1541491Y-10932674D01*
X1541491Y-10932674D02*
X1551015Y-10951722D01*
X1551015Y-10951722D02*
X1551015Y-11056484D01*
X1941491Y-10846960D02*
X1770063Y-11104103D01*
X2198634Y-10856484D02*
X2217682Y-10856484D01*
X2217682Y-10856484D02*
X2236729Y-10866008D01*
X2236729Y-10866008D02*
X2246253Y-10875531D01*
X2246253Y-10875531D02*
X2255777Y-10894579D01*
X2255777Y-10894579D02*
X2265301Y-10932674D01*
X2265301Y-10932674D02*
X2265301Y-10980293D01*
X2265301Y-10980293D02*
X2255777Y-11018389D01*
X2255777Y-11018389D02*
X2246253Y-11037436D01*
X2246253Y-11037436D02*
X2236729Y-11046960D01*
X2236729Y-11046960D02*
X2217682Y-11056484D01*
X2217682Y-11056484D02*
X2198634Y-11056484D01*
X2198634Y-11056484D02*
X2179587Y-11046960D01*
X2179587Y-11046960D02*
X2170063Y-11037436D01*
X2170063Y-11037436D02*
X2160539Y-11018389D01*
X2160539Y-11018389D02*
X2151015Y-10980293D01*
X2151015Y-10980293D02*
X2151015Y-10932674D01*
X2151015Y-10932674D02*
X2160539Y-10894579D01*
X2160539Y-10894579D02*
X2170063Y-10875531D01*
X2170063Y-10875531D02*
X2179587Y-10866008D01*
X2179587Y-10866008D02*
X2198634Y-10856484D01*
X2351015Y-11037436D02*
X2360539Y-11046960D01*
X2360539Y-11046960D02*
X2351015Y-11056484D01*
X2351015Y-11056484D02*
X2341491Y-11046960D01*
X2341491Y-11046960D02*
X2351015Y-11037436D01*
X2351015Y-11037436D02*
X2351015Y-11056484D01*
X2484348Y-10856484D02*
X2503396Y-10856484D01*
X2503396Y-10856484D02*
X2522444Y-10866008D01*
X2522444Y-10866008D02*
X2531968Y-10875531D01*
X2531968Y-10875531D02*
X2541491Y-10894579D01*
X2541491Y-10894579D02*
X2551015Y-10932674D01*
X2551015Y-10932674D02*
X2551015Y-10980293D01*
X2551015Y-10980293D02*
X2541491Y-11018389D01*
X2541491Y-11018389D02*
X2531968Y-11037436D01*
X2531968Y-11037436D02*
X2522444Y-11046960D01*
X2522444Y-11046960D02*
X2503396Y-11056484D01*
X2503396Y-11056484D02*
X2484348Y-11056484D01*
X2484348Y-11056484D02*
X2465301Y-11046960D01*
X2465301Y-11046960D02*
X2455777Y-11037436D01*
X2455777Y-11037436D02*
X2446253Y-11018389D01*
X2446253Y-11018389D02*
X2436729Y-10980293D01*
X2436729Y-10980293D02*
X2436729Y-10932674D01*
X2436729Y-10932674D02*
X2446253Y-10894579D01*
X2446253Y-10894579D02*
X2455777Y-10875531D01*
X2455777Y-10875531D02*
X2465301Y-10866008D01*
X2465301Y-10866008D02*
X2484348Y-10856484D01*
X2722444Y-10923150D02*
X2722444Y-11056484D01*
X2674825Y-10846960D02*
X2627206Y-10989817D01*
X2627206Y-10989817D02*
X2751015Y-10989817D01*
X2808158Y-10856484D02*
X2941491Y-10856484D01*
X2941491Y-10856484D02*
X2855777Y-11056484D01*
X3008158Y-10875531D02*
X3017682Y-10866008D01*
X3017682Y-10866008D02*
X3036729Y-10856484D01*
X3036729Y-10856484D02*
X3084348Y-10856484D01*
X3084348Y-10856484D02*
X3103396Y-10866008D01*
X3103396Y-10866008D02*
X3112920Y-10875531D01*
X3112920Y-10875531D02*
X3122444Y-10894579D01*
X3122444Y-10894579D02*
X3122444Y-10913627D01*
X3122444Y-10913627D02*
X3112920Y-10942198D01*
X3112920Y-10942198D02*
X2998634Y-11056484D01*
X2998634Y-11056484D02*
X3122444Y-11056484D01*
X3198634Y-10856484D02*
X3198634Y-10894579D01*
X3274825Y-10856484D02*
X3274825Y-10894579D01*
X3570063Y-11132674D02*
X3560539Y-11123150D01*
X3560539Y-11123150D02*
X3541491Y-11094579D01*
X3541491Y-11094579D02*
X3531968Y-11075531D01*
X3531968Y-11075531D02*
X3522444Y-11046960D01*
X3522444Y-11046960D02*
X3512920Y-10999341D01*
X3512920Y-10999341D02*
X3512920Y-10961246D01*
X3512920Y-10961246D02*
X3522444Y-10913627D01*
X3522444Y-10913627D02*
X3531968Y-10885055D01*
X3531968Y-10885055D02*
X3541491Y-10866008D01*
X3541491Y-10866008D02*
X3560539Y-10837436D01*
X3560539Y-10837436D02*
X3570063Y-10827912D01*
X3741491Y-10856484D02*
X3646253Y-10856484D01*
X3646253Y-10856484D02*
X3636729Y-10951722D01*
X3636729Y-10951722D02*
X3646253Y-10942198D01*
X3646253Y-10942198D02*
X3665301Y-10932674D01*
X3665301Y-10932674D02*
X3712920Y-10932674D01*
X3712920Y-10932674D02*
X3731968Y-10942198D01*
X3731968Y-10942198D02*
X3741491Y-10951722D01*
X3741491Y-10951722D02*
X3751015Y-10970770D01*
X3751015Y-10970770D02*
X3751015Y-11018389D01*
X3751015Y-11018389D02*
X3741491Y-11037436D01*
X3741491Y-11037436D02*
X3731968Y-11046960D01*
X3731968Y-11046960D02*
X3712920Y-11056484D01*
X3712920Y-11056484D02*
X3665301Y-11056484D01*
X3665301Y-11056484D02*
X3646253Y-11046960D01*
X3646253Y-11046960D02*
X3636729Y-11037436D01*
X3989110Y-11056484D02*
X3989110Y-10856484D01*
X4074825Y-11056484D02*
X4074825Y-10951722D01*
X4074825Y-10951722D02*
X4065301Y-10932674D01*
X4065301Y-10932674D02*
X4046253Y-10923150D01*
X4046253Y-10923150D02*
X4017682Y-10923150D01*
X4017682Y-10923150D02*
X3998634Y-10932674D01*
X3998634Y-10932674D02*
X3989110Y-10942198D01*
X4198634Y-11056484D02*
X4179587Y-11046960D01*
X4179587Y-11046960D02*
X4170063Y-11037436D01*
X4170063Y-11037436D02*
X4160539Y-11018389D01*
X4160539Y-11018389D02*
X4160539Y-10961246D01*
X4160539Y-10961246D02*
X4170063Y-10942198D01*
X4170063Y-10942198D02*
X4179587Y-10932674D01*
X4179587Y-10932674D02*
X4198634Y-10923150D01*
X4198634Y-10923150D02*
X4227206Y-10923150D01*
X4227206Y-10923150D02*
X4246253Y-10932674D01*
X4246253Y-10932674D02*
X4255777Y-10942198D01*
X4255777Y-10942198D02*
X4265301Y-10961246D01*
X4265301Y-10961246D02*
X4265301Y-11018389D01*
X4265301Y-11018389D02*
X4255777Y-11037436D01*
X4255777Y-11037436D02*
X4246253Y-11046960D01*
X4246253Y-11046960D02*
X4227206Y-11056484D01*
X4227206Y-11056484D02*
X4198634Y-11056484D01*
X4379587Y-11056484D02*
X4360539Y-11046960D01*
X4360539Y-11046960D02*
X4351015Y-11027912D01*
X4351015Y-11027912D02*
X4351015Y-10856484D01*
X4531968Y-11046960D02*
X4512920Y-11056484D01*
X4512920Y-11056484D02*
X4474825Y-11056484D01*
X4474825Y-11056484D02*
X4455777Y-11046960D01*
X4455777Y-11046960D02*
X4446253Y-11027912D01*
X4446253Y-11027912D02*
X4446253Y-10951722D01*
X4446253Y-10951722D02*
X4455777Y-10932674D01*
X4455777Y-10932674D02*
X4474825Y-10923150D01*
X4474825Y-10923150D02*
X4512920Y-10923150D01*
X4512920Y-10923150D02*
X4531968Y-10932674D01*
X4531968Y-10932674D02*
X4541492Y-10951722D01*
X4541492Y-10951722D02*
X4541492Y-10970770D01*
X4541492Y-10970770D02*
X4446253Y-10989817D01*
X4617682Y-11046960D02*
X4636730Y-11056484D01*
X4636730Y-11056484D02*
X4674825Y-11056484D01*
X4674825Y-11056484D02*
X4693873Y-11046960D01*
X4693873Y-11046960D02*
X4703396Y-11027912D01*
X4703396Y-11027912D02*
X4703396Y-11018389D01*
X4703396Y-11018389D02*
X4693873Y-10999341D01*
X4693873Y-10999341D02*
X4674825Y-10989817D01*
X4674825Y-10989817D02*
X4646253Y-10989817D01*
X4646253Y-10989817D02*
X4627206Y-10980293D01*
X4627206Y-10980293D02*
X4617682Y-10961246D01*
X4617682Y-10961246D02*
X4617682Y-10951722D01*
X4617682Y-10951722D02*
X4627206Y-10932674D01*
X4627206Y-10932674D02*
X4646253Y-10923150D01*
X4646253Y-10923150D02*
X4674825Y-10923150D01*
X4674825Y-10923150D02*
X4693873Y-10932674D01*
X4770063Y-11132674D02*
X4779587Y-11123150D01*
X4779587Y-11123150D02*
X4798634Y-11094579D01*
X4798634Y-11094579D02*
X4808158Y-11075531D01*
X4808158Y-11075531D02*
X4817682Y-11046960D01*
X4817682Y-11046960D02*
X4827206Y-10999341D01*
X4827206Y-10999341D02*
X4827206Y-10961246D01*
X4827206Y-10961246D02*
X4817682Y-10913627D01*
X4817682Y-10913627D02*
X4808158Y-10885055D01*
X4808158Y-10885055D02*
X4798634Y-10866008D01*
X4798634Y-10866008D02*
X4779587Y-10837436D01*
X4779587Y-10837436D02*
X4770063Y-10827912D01*
D13*
X-125000Y-11169000D02*
X-5000Y-11289000D01*
X-5000Y-11169000D02*
X-125000Y-11289000D01*
X-65000Y-11169000D02*
X-65000Y-11289000D01*
X-125000Y-11229000D02*
X-5000Y-11229000D01*
D11*
X360539Y-11320484D02*
X246253Y-11320484D01*
X303396Y-11320484D02*
X303396Y-11120484D01*
X303396Y-11120484D02*
X284348Y-11149055D01*
X284348Y-11149055D02*
X265301Y-11168103D01*
X265301Y-11168103D02*
X246253Y-11177627D01*
X446253Y-11301436D02*
X455777Y-11310960D01*
X455777Y-11310960D02*
X446253Y-11320484D01*
X446253Y-11320484D02*
X436729Y-11310960D01*
X436729Y-11310960D02*
X446253Y-11301436D01*
X446253Y-11301436D02*
X446253Y-11320484D01*
X531967Y-11139531D02*
X541491Y-11130008D01*
X541491Y-11130008D02*
X560539Y-11120484D01*
X560539Y-11120484D02*
X608158Y-11120484D01*
X608158Y-11120484D02*
X627205Y-11130008D01*
X627205Y-11130008D02*
X636729Y-11139531D01*
X636729Y-11139531D02*
X646253Y-11158579D01*
X646253Y-11158579D02*
X646253Y-11177627D01*
X646253Y-11177627D02*
X636729Y-11206198D01*
X636729Y-11206198D02*
X522443Y-11320484D01*
X522443Y-11320484D02*
X646253Y-11320484D01*
X770062Y-11120484D02*
X789110Y-11120484D01*
X789110Y-11120484D02*
X808158Y-11130008D01*
X808158Y-11130008D02*
X817682Y-11139531D01*
X817682Y-11139531D02*
X827205Y-11158579D01*
X827205Y-11158579D02*
X836729Y-11196674D01*
X836729Y-11196674D02*
X836729Y-11244293D01*
X836729Y-11244293D02*
X827205Y-11282388D01*
X827205Y-11282388D02*
X817682Y-11301436D01*
X817682Y-11301436D02*
X808158Y-11310960D01*
X808158Y-11310960D02*
X789110Y-11320484D01*
X789110Y-11320484D02*
X770062Y-11320484D01*
X770062Y-11320484D02*
X751015Y-11310960D01*
X751015Y-11310960D02*
X741491Y-11301436D01*
X741491Y-11301436D02*
X731967Y-11282388D01*
X731967Y-11282388D02*
X722443Y-11244293D01*
X722443Y-11244293D02*
X722443Y-11196674D01*
X722443Y-11196674D02*
X731967Y-11158579D01*
X731967Y-11158579D02*
X741491Y-11139531D01*
X741491Y-11139531D02*
X751015Y-11130008D01*
X751015Y-11130008D02*
X770062Y-11120484D01*
X960539Y-11120484D02*
X979586Y-11120484D01*
X979586Y-11120484D02*
X998634Y-11130008D01*
X998634Y-11130008D02*
X1008158Y-11139531D01*
X1008158Y-11139531D02*
X1017682Y-11158579D01*
X1017682Y-11158579D02*
X1027205Y-11196674D01*
X1027205Y-11196674D02*
X1027205Y-11244293D01*
X1027205Y-11244293D02*
X1017682Y-11282388D01*
X1017682Y-11282388D02*
X1008158Y-11301436D01*
X1008158Y-11301436D02*
X998634Y-11310960D01*
X998634Y-11310960D02*
X979586Y-11320484D01*
X979586Y-11320484D02*
X960539Y-11320484D01*
X960539Y-11320484D02*
X941491Y-11310960D01*
X941491Y-11310960D02*
X931967Y-11301436D01*
X931967Y-11301436D02*
X922443Y-11282388D01*
X922443Y-11282388D02*
X912920Y-11244293D01*
X912920Y-11244293D02*
X912920Y-11196674D01*
X912920Y-11196674D02*
X922443Y-11158579D01*
X922443Y-11158579D02*
X931967Y-11139531D01*
X931967Y-11139531D02*
X941491Y-11130008D01*
X941491Y-11130008D02*
X960539Y-11120484D01*
X1112920Y-11320484D02*
X1112920Y-11187150D01*
X1112920Y-11206198D02*
X1122444Y-11196674D01*
X1122444Y-11196674D02*
X1141491Y-11187150D01*
X1141491Y-11187150D02*
X1170063Y-11187150D01*
X1170063Y-11187150D02*
X1189110Y-11196674D01*
X1189110Y-11196674D02*
X1198634Y-11215722D01*
X1198634Y-11215722D02*
X1198634Y-11320484D01*
X1198634Y-11215722D02*
X1208158Y-11196674D01*
X1208158Y-11196674D02*
X1227205Y-11187150D01*
X1227205Y-11187150D02*
X1255777Y-11187150D01*
X1255777Y-11187150D02*
X1274825Y-11196674D01*
X1274825Y-11196674D02*
X1284348Y-11215722D01*
X1284348Y-11215722D02*
X1284348Y-11320484D01*
X1379586Y-11320484D02*
X1379586Y-11187150D01*
X1379586Y-11206198D02*
X1389110Y-11196674D01*
X1389110Y-11196674D02*
X1408158Y-11187150D01*
X1408158Y-11187150D02*
X1436729Y-11187150D01*
X1436729Y-11187150D02*
X1455777Y-11196674D01*
X1455777Y-11196674D02*
X1465301Y-11215722D01*
X1465301Y-11215722D02*
X1465301Y-11320484D01*
X1465301Y-11215722D02*
X1474824Y-11196674D01*
X1474824Y-11196674D02*
X1493872Y-11187150D01*
X1493872Y-11187150D02*
X1522443Y-11187150D01*
X1522443Y-11187150D02*
X1541491Y-11196674D01*
X1541491Y-11196674D02*
X1551015Y-11215722D01*
X1551015Y-11215722D02*
X1551015Y-11320484D01*
X1941491Y-11110960D02*
X1770063Y-11368103D01*
X2198634Y-11120484D02*
X2217682Y-11120484D01*
X2217682Y-11120484D02*
X2236729Y-11130008D01*
X2236729Y-11130008D02*
X2246253Y-11139531D01*
X2246253Y-11139531D02*
X2255777Y-11158579D01*
X2255777Y-11158579D02*
X2265301Y-11196674D01*
X2265301Y-11196674D02*
X2265301Y-11244293D01*
X2265301Y-11244293D02*
X2255777Y-11282388D01*
X2255777Y-11282388D02*
X2246253Y-11301436D01*
X2246253Y-11301436D02*
X2236729Y-11310960D01*
X2236729Y-11310960D02*
X2217682Y-11320484D01*
X2217682Y-11320484D02*
X2198634Y-11320484D01*
X2198634Y-11320484D02*
X2179587Y-11310960D01*
X2179587Y-11310960D02*
X2170063Y-11301436D01*
X2170063Y-11301436D02*
X2160539Y-11282388D01*
X2160539Y-11282388D02*
X2151015Y-11244293D01*
X2151015Y-11244293D02*
X2151015Y-11196674D01*
X2151015Y-11196674D02*
X2160539Y-11158579D01*
X2160539Y-11158579D02*
X2170063Y-11139531D01*
X2170063Y-11139531D02*
X2179587Y-11130008D01*
X2179587Y-11130008D02*
X2198634Y-11120484D01*
X2351015Y-11301436D02*
X2360539Y-11310960D01*
X2360539Y-11310960D02*
X2351015Y-11320484D01*
X2351015Y-11320484D02*
X2341491Y-11310960D01*
X2341491Y-11310960D02*
X2351015Y-11301436D01*
X2351015Y-11301436D02*
X2351015Y-11320484D01*
X2484348Y-11120484D02*
X2503396Y-11120484D01*
X2503396Y-11120484D02*
X2522444Y-11130008D01*
X2522444Y-11130008D02*
X2531968Y-11139531D01*
X2531968Y-11139531D02*
X2541491Y-11158579D01*
X2541491Y-11158579D02*
X2551015Y-11196674D01*
X2551015Y-11196674D02*
X2551015Y-11244293D01*
X2551015Y-11244293D02*
X2541491Y-11282388D01*
X2541491Y-11282388D02*
X2531968Y-11301436D01*
X2531968Y-11301436D02*
X2522444Y-11310960D01*
X2522444Y-11310960D02*
X2503396Y-11320484D01*
X2503396Y-11320484D02*
X2484348Y-11320484D01*
X2484348Y-11320484D02*
X2465301Y-11310960D01*
X2465301Y-11310960D02*
X2455777Y-11301436D01*
X2455777Y-11301436D02*
X2446253Y-11282388D01*
X2446253Y-11282388D02*
X2436729Y-11244293D01*
X2436729Y-11244293D02*
X2436729Y-11196674D01*
X2436729Y-11196674D02*
X2446253Y-11158579D01*
X2446253Y-11158579D02*
X2455777Y-11139531D01*
X2455777Y-11139531D02*
X2465301Y-11130008D01*
X2465301Y-11130008D02*
X2484348Y-11120484D01*
X2722444Y-11187150D02*
X2722444Y-11320484D01*
X2674825Y-11110960D02*
X2627206Y-11253817D01*
X2627206Y-11253817D02*
X2751015Y-11253817D01*
X2808158Y-11120484D02*
X2941491Y-11120484D01*
X2941491Y-11120484D02*
X2855777Y-11320484D01*
X3008158Y-11139531D02*
X3017682Y-11130008D01*
X3017682Y-11130008D02*
X3036729Y-11120484D01*
X3036729Y-11120484D02*
X3084348Y-11120484D01*
X3084348Y-11120484D02*
X3103396Y-11130008D01*
X3103396Y-11130008D02*
X3112920Y-11139531D01*
X3112920Y-11139531D02*
X3122444Y-11158579D01*
X3122444Y-11158579D02*
X3122444Y-11177627D01*
X3122444Y-11177627D02*
X3112920Y-11206198D01*
X3112920Y-11206198D02*
X2998634Y-11320484D01*
X2998634Y-11320484D02*
X3122444Y-11320484D01*
X3198634Y-11120484D02*
X3198634Y-11158579D01*
X3274825Y-11120484D02*
X3274825Y-11158579D01*
X3570063Y-11396674D02*
X3560539Y-11387150D01*
X3560539Y-11387150D02*
X3541491Y-11358579D01*
X3541491Y-11358579D02*
X3531968Y-11339531D01*
X3531968Y-11339531D02*
X3522444Y-11310960D01*
X3522444Y-11310960D02*
X3512920Y-11263341D01*
X3512920Y-11263341D02*
X3512920Y-11225246D01*
X3512920Y-11225246D02*
X3522444Y-11177627D01*
X3522444Y-11177627D02*
X3531968Y-11149055D01*
X3531968Y-11149055D02*
X3541491Y-11130008D01*
X3541491Y-11130008D02*
X3560539Y-11101436D01*
X3560539Y-11101436D02*
X3570063Y-11091912D01*
X3731968Y-11187150D02*
X3731968Y-11320484D01*
X3684348Y-11110960D02*
X3636729Y-11253817D01*
X3636729Y-11253817D02*
X3760539Y-11253817D01*
X3989110Y-11320484D02*
X3989110Y-11120484D01*
X4074825Y-11320484D02*
X4074825Y-11215722D01*
X4074825Y-11215722D02*
X4065301Y-11196674D01*
X4065301Y-11196674D02*
X4046253Y-11187150D01*
X4046253Y-11187150D02*
X4017682Y-11187150D01*
X4017682Y-11187150D02*
X3998634Y-11196674D01*
X3998634Y-11196674D02*
X3989110Y-11206198D01*
X4198634Y-11320484D02*
X4179587Y-11310960D01*
X4179587Y-11310960D02*
X4170063Y-11301436D01*
X4170063Y-11301436D02*
X4160539Y-11282388D01*
X4160539Y-11282388D02*
X4160539Y-11225246D01*
X4160539Y-11225246D02*
X4170063Y-11206198D01*
X4170063Y-11206198D02*
X4179587Y-11196674D01*
X4179587Y-11196674D02*
X4198634Y-11187150D01*
X4198634Y-11187150D02*
X4227206Y-11187150D01*
X4227206Y-11187150D02*
X4246253Y-11196674D01*
X4246253Y-11196674D02*
X4255777Y-11206198D01*
X4255777Y-11206198D02*
X4265301Y-11225246D01*
X4265301Y-11225246D02*
X4265301Y-11282388D01*
X4265301Y-11282388D02*
X4255777Y-11301436D01*
X4255777Y-11301436D02*
X4246253Y-11310960D01*
X4246253Y-11310960D02*
X4227206Y-11320484D01*
X4227206Y-11320484D02*
X4198634Y-11320484D01*
X4379587Y-11320484D02*
X4360539Y-11310960D01*
X4360539Y-11310960D02*
X4351015Y-11291912D01*
X4351015Y-11291912D02*
X4351015Y-11120484D01*
X4531968Y-11310960D02*
X4512920Y-11320484D01*
X4512920Y-11320484D02*
X4474825Y-11320484D01*
X4474825Y-11320484D02*
X4455777Y-11310960D01*
X4455777Y-11310960D02*
X4446253Y-11291912D01*
X4446253Y-11291912D02*
X4446253Y-11215722D01*
X4446253Y-11215722D02*
X4455777Y-11196674D01*
X4455777Y-11196674D02*
X4474825Y-11187150D01*
X4474825Y-11187150D02*
X4512920Y-11187150D01*
X4512920Y-11187150D02*
X4531968Y-11196674D01*
X4531968Y-11196674D02*
X4541492Y-11215722D01*
X4541492Y-11215722D02*
X4541492Y-11234769D01*
X4541492Y-11234769D02*
X4446253Y-11253817D01*
X4617682Y-11310960D02*
X4636730Y-11320484D01*
X4636730Y-11320484D02*
X4674825Y-11320484D01*
X4674825Y-11320484D02*
X4693873Y-11310960D01*
X4693873Y-11310960D02*
X4703396Y-11291912D01*
X4703396Y-11291912D02*
X4703396Y-11282388D01*
X4703396Y-11282388D02*
X4693873Y-11263341D01*
X4693873Y-11263341D02*
X4674825Y-11253817D01*
X4674825Y-11253817D02*
X4646253Y-11253817D01*
X4646253Y-11253817D02*
X4627206Y-11244293D01*
X4627206Y-11244293D02*
X4617682Y-11225246D01*
X4617682Y-11225246D02*
X4617682Y-11215722D01*
X4617682Y-11215722D02*
X4627206Y-11196674D01*
X4627206Y-11196674D02*
X4646253Y-11187150D01*
X4646253Y-11187150D02*
X4674825Y-11187150D01*
X4674825Y-11187150D02*
X4693873Y-11196674D01*
X4770063Y-11396674D02*
X4779587Y-11387150D01*
X4779587Y-11387150D02*
X4798634Y-11358579D01*
X4798634Y-11358579D02*
X4808158Y-11339531D01*
X4808158Y-11339531D02*
X4817682Y-11310960D01*
X4817682Y-11310960D02*
X4827206Y-11263341D01*
X4827206Y-11263341D02*
X4827206Y-11225246D01*
X4827206Y-11225246D02*
X4817682Y-11177627D01*
X4817682Y-11177627D02*
X4808158Y-11149055D01*
X4808158Y-11149055D02*
X4798634Y-11130008D01*
X4798634Y-11130008D02*
X4779587Y-11101436D01*
X4779587Y-11101436D02*
X4770063Y-11091912D01*
D14*
X-175002Y-11407999D02*
X-5000Y-11578001D01*
X-5000Y-11407999D02*
X-175002Y-11578001D01*
X-29896Y-11553105D02*
X-29896Y-11432895D01*
X-150107Y-11432895D01*
X-150107Y-11553105D01*
X-29896Y-11553105D01*
D11*
X360539Y-11584484D02*
X246253Y-11584484D01*
X303396Y-11584484D02*
X303396Y-11384484D01*
X303396Y-11384484D02*
X284348Y-11413055D01*
X284348Y-11413055D02*
X265301Y-11432103D01*
X265301Y-11432103D02*
X246253Y-11441627D01*
X446253Y-11565436D02*
X455777Y-11574960D01*
X455777Y-11574960D02*
X446253Y-11584484D01*
X446253Y-11584484D02*
X436729Y-11574960D01*
X436729Y-11574960D02*
X446253Y-11565436D01*
X446253Y-11565436D02*
X446253Y-11584484D01*
X522443Y-11384484D02*
X655777Y-11384484D01*
X655777Y-11384484D02*
X570063Y-11584484D01*
X770062Y-11384484D02*
X789110Y-11384484D01*
X789110Y-11384484D02*
X808158Y-11394008D01*
X808158Y-11394008D02*
X817682Y-11403531D01*
X817682Y-11403531D02*
X827205Y-11422579D01*
X827205Y-11422579D02*
X836729Y-11460674D01*
X836729Y-11460674D02*
X836729Y-11508293D01*
X836729Y-11508293D02*
X827205Y-11546388D01*
X827205Y-11546388D02*
X817682Y-11565436D01*
X817682Y-11565436D02*
X808158Y-11574960D01*
X808158Y-11574960D02*
X789110Y-11584484D01*
X789110Y-11584484D02*
X770062Y-11584484D01*
X770062Y-11584484D02*
X751015Y-11574960D01*
X751015Y-11574960D02*
X741491Y-11565436D01*
X741491Y-11565436D02*
X731967Y-11546388D01*
X731967Y-11546388D02*
X722443Y-11508293D01*
X722443Y-11508293D02*
X722443Y-11460674D01*
X722443Y-11460674D02*
X731967Y-11422579D01*
X731967Y-11422579D02*
X741491Y-11403531D01*
X741491Y-11403531D02*
X751015Y-11394008D01*
X751015Y-11394008D02*
X770062Y-11384484D01*
X960539Y-11384484D02*
X979586Y-11384484D01*
X979586Y-11384484D02*
X998634Y-11394008D01*
X998634Y-11394008D02*
X1008158Y-11403531D01*
X1008158Y-11403531D02*
X1017682Y-11422579D01*
X1017682Y-11422579D02*
X1027205Y-11460674D01*
X1027205Y-11460674D02*
X1027205Y-11508293D01*
X1027205Y-11508293D02*
X1017682Y-11546388D01*
X1017682Y-11546388D02*
X1008158Y-11565436D01*
X1008158Y-11565436D02*
X998634Y-11574960D01*
X998634Y-11574960D02*
X979586Y-11584484D01*
X979586Y-11584484D02*
X960539Y-11584484D01*
X960539Y-11584484D02*
X941491Y-11574960D01*
X941491Y-11574960D02*
X931967Y-11565436D01*
X931967Y-11565436D02*
X922443Y-11546388D01*
X922443Y-11546388D02*
X912920Y-11508293D01*
X912920Y-11508293D02*
X912920Y-11460674D01*
X912920Y-11460674D02*
X922443Y-11422579D01*
X922443Y-11422579D02*
X931967Y-11403531D01*
X931967Y-11403531D02*
X941491Y-11394008D01*
X941491Y-11394008D02*
X960539Y-11384484D01*
X1112920Y-11584484D02*
X1112920Y-11451150D01*
X1112920Y-11470198D02*
X1122444Y-11460674D01*
X1122444Y-11460674D02*
X1141491Y-11451150D01*
X1141491Y-11451150D02*
X1170063Y-11451150D01*
X1170063Y-11451150D02*
X1189110Y-11460674D01*
X1189110Y-11460674D02*
X1198634Y-11479722D01*
X1198634Y-11479722D02*
X1198634Y-11584484D01*
X1198634Y-11479722D02*
X1208158Y-11460674D01*
X1208158Y-11460674D02*
X1227205Y-11451150D01*
X1227205Y-11451150D02*
X1255777Y-11451150D01*
X1255777Y-11451150D02*
X1274825Y-11460674D01*
X1274825Y-11460674D02*
X1284348Y-11479722D01*
X1284348Y-11479722D02*
X1284348Y-11584484D01*
X1379586Y-11584484D02*
X1379586Y-11451150D01*
X1379586Y-11470198D02*
X1389110Y-11460674D01*
X1389110Y-11460674D02*
X1408158Y-11451150D01*
X1408158Y-11451150D02*
X1436729Y-11451150D01*
X1436729Y-11451150D02*
X1455777Y-11460674D01*
X1455777Y-11460674D02*
X1465301Y-11479722D01*
X1465301Y-11479722D02*
X1465301Y-11584484D01*
X1465301Y-11479722D02*
X1474824Y-11460674D01*
X1474824Y-11460674D02*
X1493872Y-11451150D01*
X1493872Y-11451150D02*
X1522443Y-11451150D01*
X1522443Y-11451150D02*
X1541491Y-11460674D01*
X1541491Y-11460674D02*
X1551015Y-11479722D01*
X1551015Y-11479722D02*
X1551015Y-11584484D01*
X1941491Y-11374960D02*
X1770063Y-11632103D01*
X2198634Y-11384484D02*
X2217682Y-11384484D01*
X2217682Y-11384484D02*
X2236729Y-11394008D01*
X2236729Y-11394008D02*
X2246253Y-11403531D01*
X2246253Y-11403531D02*
X2255777Y-11422579D01*
X2255777Y-11422579D02*
X2265301Y-11460674D01*
X2265301Y-11460674D02*
X2265301Y-11508293D01*
X2265301Y-11508293D02*
X2255777Y-11546388D01*
X2255777Y-11546388D02*
X2246253Y-11565436D01*
X2246253Y-11565436D02*
X2236729Y-11574960D01*
X2236729Y-11574960D02*
X2217682Y-11584484D01*
X2217682Y-11584484D02*
X2198634Y-11584484D01*
X2198634Y-11584484D02*
X2179587Y-11574960D01*
X2179587Y-11574960D02*
X2170063Y-11565436D01*
X2170063Y-11565436D02*
X2160539Y-11546388D01*
X2160539Y-11546388D02*
X2151015Y-11508293D01*
X2151015Y-11508293D02*
X2151015Y-11460674D01*
X2151015Y-11460674D02*
X2160539Y-11422579D01*
X2160539Y-11422579D02*
X2170063Y-11403531D01*
X2170063Y-11403531D02*
X2179587Y-11394008D01*
X2179587Y-11394008D02*
X2198634Y-11384484D01*
X2351015Y-11565436D02*
X2360539Y-11574960D01*
X2360539Y-11574960D02*
X2351015Y-11584484D01*
X2351015Y-11584484D02*
X2341491Y-11574960D01*
X2341491Y-11574960D02*
X2351015Y-11565436D01*
X2351015Y-11565436D02*
X2351015Y-11584484D01*
X2484348Y-11384484D02*
X2503396Y-11384484D01*
X2503396Y-11384484D02*
X2522444Y-11394008D01*
X2522444Y-11394008D02*
X2531968Y-11403531D01*
X2531968Y-11403531D02*
X2541491Y-11422579D01*
X2541491Y-11422579D02*
X2551015Y-11460674D01*
X2551015Y-11460674D02*
X2551015Y-11508293D01*
X2551015Y-11508293D02*
X2541491Y-11546388D01*
X2541491Y-11546388D02*
X2531968Y-11565436D01*
X2531968Y-11565436D02*
X2522444Y-11574960D01*
X2522444Y-11574960D02*
X2503396Y-11584484D01*
X2503396Y-11584484D02*
X2484348Y-11584484D01*
X2484348Y-11584484D02*
X2465301Y-11574960D01*
X2465301Y-11574960D02*
X2455777Y-11565436D01*
X2455777Y-11565436D02*
X2446253Y-11546388D01*
X2446253Y-11546388D02*
X2436729Y-11508293D01*
X2436729Y-11508293D02*
X2436729Y-11460674D01*
X2436729Y-11460674D02*
X2446253Y-11422579D01*
X2446253Y-11422579D02*
X2455777Y-11403531D01*
X2455777Y-11403531D02*
X2465301Y-11394008D01*
X2465301Y-11394008D02*
X2484348Y-11384484D01*
X2722444Y-11384484D02*
X2684348Y-11384484D01*
X2684348Y-11384484D02*
X2665301Y-11394008D01*
X2665301Y-11394008D02*
X2655777Y-11403531D01*
X2655777Y-11403531D02*
X2636729Y-11432103D01*
X2636729Y-11432103D02*
X2627206Y-11470198D01*
X2627206Y-11470198D02*
X2627206Y-11546388D01*
X2627206Y-11546388D02*
X2636729Y-11565436D01*
X2636729Y-11565436D02*
X2646253Y-11574960D01*
X2646253Y-11574960D02*
X2665301Y-11584484D01*
X2665301Y-11584484D02*
X2703396Y-11584484D01*
X2703396Y-11584484D02*
X2722444Y-11574960D01*
X2722444Y-11574960D02*
X2731968Y-11565436D01*
X2731968Y-11565436D02*
X2741491Y-11546388D01*
X2741491Y-11546388D02*
X2741491Y-11498769D01*
X2741491Y-11498769D02*
X2731968Y-11479722D01*
X2731968Y-11479722D02*
X2722444Y-11470198D01*
X2722444Y-11470198D02*
X2703396Y-11460674D01*
X2703396Y-11460674D02*
X2665301Y-11460674D01*
X2665301Y-11460674D02*
X2646253Y-11470198D01*
X2646253Y-11470198D02*
X2636729Y-11479722D01*
X2636729Y-11479722D02*
X2627206Y-11498769D01*
X2912920Y-11384484D02*
X2874825Y-11384484D01*
X2874825Y-11384484D02*
X2855777Y-11394008D01*
X2855777Y-11394008D02*
X2846253Y-11403531D01*
X2846253Y-11403531D02*
X2827206Y-11432103D01*
X2827206Y-11432103D02*
X2817682Y-11470198D01*
X2817682Y-11470198D02*
X2817682Y-11546388D01*
X2817682Y-11546388D02*
X2827206Y-11565436D01*
X2827206Y-11565436D02*
X2836729Y-11574960D01*
X2836729Y-11574960D02*
X2855777Y-11584484D01*
X2855777Y-11584484D02*
X2893872Y-11584484D01*
X2893872Y-11584484D02*
X2912920Y-11574960D01*
X2912920Y-11574960D02*
X2922444Y-11565436D01*
X2922444Y-11565436D02*
X2931967Y-11546388D01*
X2931967Y-11546388D02*
X2931967Y-11498769D01*
X2931967Y-11498769D02*
X2922444Y-11479722D01*
X2922444Y-11479722D02*
X2912920Y-11470198D01*
X2912920Y-11470198D02*
X2893872Y-11460674D01*
X2893872Y-11460674D02*
X2855777Y-11460674D01*
X2855777Y-11460674D02*
X2836729Y-11470198D01*
X2836729Y-11470198D02*
X2827206Y-11479722D01*
X2827206Y-11479722D02*
X2817682Y-11498769D01*
X3027206Y-11584484D02*
X3065301Y-11584484D01*
X3065301Y-11584484D02*
X3084348Y-11574960D01*
X3084348Y-11574960D02*
X3093872Y-11565436D01*
X3093872Y-11565436D02*
X3112920Y-11536865D01*
X3112920Y-11536865D02*
X3122444Y-11498769D01*
X3122444Y-11498769D02*
X3122444Y-11422579D01*
X3122444Y-11422579D02*
X3112920Y-11403531D01*
X3112920Y-11403531D02*
X3103396Y-11394008D01*
X3103396Y-11394008D02*
X3084348Y-11384484D01*
X3084348Y-11384484D02*
X3046253Y-11384484D01*
X3046253Y-11384484D02*
X3027206Y-11394008D01*
X3027206Y-11394008D02*
X3017682Y-11403531D01*
X3017682Y-11403531D02*
X3008158Y-11422579D01*
X3008158Y-11422579D02*
X3008158Y-11470198D01*
X3008158Y-11470198D02*
X3017682Y-11489246D01*
X3017682Y-11489246D02*
X3027206Y-11498769D01*
X3027206Y-11498769D02*
X3046253Y-11508293D01*
X3046253Y-11508293D02*
X3084348Y-11508293D01*
X3084348Y-11508293D02*
X3103396Y-11498769D01*
X3103396Y-11498769D02*
X3112920Y-11489246D01*
X3112920Y-11489246D02*
X3122444Y-11470198D01*
X3198634Y-11384484D02*
X3198634Y-11422579D01*
X3274825Y-11384484D02*
X3274825Y-11422579D01*
X3570063Y-11660674D02*
X3560539Y-11651150D01*
X3560539Y-11651150D02*
X3541491Y-11622579D01*
X3541491Y-11622579D02*
X3531968Y-11603531D01*
X3531968Y-11603531D02*
X3522444Y-11574960D01*
X3522444Y-11574960D02*
X3512920Y-11527341D01*
X3512920Y-11527341D02*
X3512920Y-11489246D01*
X3512920Y-11489246D02*
X3522444Y-11441627D01*
X3522444Y-11441627D02*
X3531968Y-11413055D01*
X3531968Y-11413055D02*
X3541491Y-11394008D01*
X3541491Y-11394008D02*
X3560539Y-11365436D01*
X3560539Y-11365436D02*
X3570063Y-11355912D01*
X3684348Y-11384484D02*
X3703396Y-11384484D01*
X3703396Y-11384484D02*
X3722444Y-11394008D01*
X3722444Y-11394008D02*
X3731968Y-11403531D01*
X3731968Y-11403531D02*
X3741491Y-11422579D01*
X3741491Y-11422579D02*
X3751015Y-11460674D01*
X3751015Y-11460674D02*
X3751015Y-11508293D01*
X3751015Y-11508293D02*
X3741491Y-11546388D01*
X3741491Y-11546388D02*
X3731968Y-11565436D01*
X3731968Y-11565436D02*
X3722444Y-11574960D01*
X3722444Y-11574960D02*
X3703396Y-11584484D01*
X3703396Y-11584484D02*
X3684348Y-11584484D01*
X3684348Y-11584484D02*
X3665301Y-11574960D01*
X3665301Y-11574960D02*
X3655777Y-11565436D01*
X3655777Y-11565436D02*
X3646253Y-11546388D01*
X3646253Y-11546388D02*
X3636729Y-11508293D01*
X3636729Y-11508293D02*
X3636729Y-11460674D01*
X3636729Y-11460674D02*
X3646253Y-11422579D01*
X3646253Y-11422579D02*
X3655777Y-11403531D01*
X3655777Y-11403531D02*
X3665301Y-11394008D01*
X3665301Y-11394008D02*
X3684348Y-11384484D01*
X3989110Y-11584484D02*
X3989110Y-11384484D01*
X4074825Y-11584484D02*
X4074825Y-11479722D01*
X4074825Y-11479722D02*
X4065301Y-11460674D01*
X4065301Y-11460674D02*
X4046253Y-11451150D01*
X4046253Y-11451150D02*
X4017682Y-11451150D01*
X4017682Y-11451150D02*
X3998634Y-11460674D01*
X3998634Y-11460674D02*
X3989110Y-11470198D01*
X4198634Y-11584484D02*
X4179587Y-11574960D01*
X4179587Y-11574960D02*
X4170063Y-11565436D01*
X4170063Y-11565436D02*
X4160539Y-11546388D01*
X4160539Y-11546388D02*
X4160539Y-11489246D01*
X4160539Y-11489246D02*
X4170063Y-11470198D01*
X4170063Y-11470198D02*
X4179587Y-11460674D01*
X4179587Y-11460674D02*
X4198634Y-11451150D01*
X4198634Y-11451150D02*
X4227206Y-11451150D01*
X4227206Y-11451150D02*
X4246253Y-11460674D01*
X4246253Y-11460674D02*
X4255777Y-11470198D01*
X4255777Y-11470198D02*
X4265301Y-11489246D01*
X4265301Y-11489246D02*
X4265301Y-11546388D01*
X4265301Y-11546388D02*
X4255777Y-11565436D01*
X4255777Y-11565436D02*
X4246253Y-11574960D01*
X4246253Y-11574960D02*
X4227206Y-11584484D01*
X4227206Y-11584484D02*
X4198634Y-11584484D01*
X4379587Y-11584484D02*
X4360539Y-11574960D01*
X4360539Y-11574960D02*
X4351015Y-11555912D01*
X4351015Y-11555912D02*
X4351015Y-11384484D01*
X4531968Y-11574960D02*
X4512920Y-11584484D01*
X4512920Y-11584484D02*
X4474825Y-11584484D01*
X4474825Y-11584484D02*
X4455777Y-11574960D01*
X4455777Y-11574960D02*
X4446253Y-11555912D01*
X4446253Y-11555912D02*
X4446253Y-11479722D01*
X4446253Y-11479722D02*
X4455777Y-11460674D01*
X4455777Y-11460674D02*
X4474825Y-11451150D01*
X4474825Y-11451150D02*
X4512920Y-11451150D01*
X4512920Y-11451150D02*
X4531968Y-11460674D01*
X4531968Y-11460674D02*
X4541492Y-11479722D01*
X4541492Y-11479722D02*
X4541492Y-11498769D01*
X4541492Y-11498769D02*
X4446253Y-11517817D01*
X4617682Y-11574960D02*
X4636730Y-11584484D01*
X4636730Y-11584484D02*
X4674825Y-11584484D01*
X4674825Y-11584484D02*
X4693873Y-11574960D01*
X4693873Y-11574960D02*
X4703396Y-11555912D01*
X4703396Y-11555912D02*
X4703396Y-11546388D01*
X4703396Y-11546388D02*
X4693873Y-11527341D01*
X4693873Y-11527341D02*
X4674825Y-11517817D01*
X4674825Y-11517817D02*
X4646253Y-11517817D01*
X4646253Y-11517817D02*
X4627206Y-11508293D01*
X4627206Y-11508293D02*
X4617682Y-11489246D01*
X4617682Y-11489246D02*
X4617682Y-11479722D01*
X4617682Y-11479722D02*
X4627206Y-11460674D01*
X4627206Y-11460674D02*
X4646253Y-11451150D01*
X4646253Y-11451150D02*
X4674825Y-11451150D01*
X4674825Y-11451150D02*
X4693873Y-11460674D01*
X4941492Y-11508293D02*
X5093873Y-11508293D01*
X5017682Y-11584484D02*
X5017682Y-11432103D01*
X5331968Y-11403531D02*
X5341492Y-11394008D01*
X5341492Y-11394008D02*
X5360539Y-11384484D01*
X5360539Y-11384484D02*
X5408158Y-11384484D01*
X5408158Y-11384484D02*
X5427206Y-11394008D01*
X5427206Y-11394008D02*
X5436730Y-11403531D01*
X5436730Y-11403531D02*
X5446254Y-11422579D01*
X5446254Y-11422579D02*
X5446254Y-11441627D01*
X5446254Y-11441627D02*
X5436730Y-11470198D01*
X5436730Y-11470198D02*
X5322444Y-11584484D01*
X5322444Y-11584484D02*
X5446254Y-11584484D01*
X5674825Y-11574960D02*
X5693873Y-11584484D01*
X5693873Y-11584484D02*
X5731968Y-11584484D01*
X5731968Y-11584484D02*
X5751015Y-11574960D01*
X5751015Y-11574960D02*
X5760539Y-11555912D01*
X5760539Y-11555912D02*
X5760539Y-11546388D01*
X5760539Y-11546388D02*
X5751015Y-11527341D01*
X5751015Y-11527341D02*
X5731968Y-11517817D01*
X5731968Y-11517817D02*
X5703396Y-11517817D01*
X5703396Y-11517817D02*
X5684349Y-11508293D01*
X5684349Y-11508293D02*
X5674825Y-11489246D01*
X5674825Y-11489246D02*
X5674825Y-11479722D01*
X5674825Y-11479722D02*
X5684349Y-11460674D01*
X5684349Y-11460674D02*
X5703396Y-11451150D01*
X5703396Y-11451150D02*
X5731968Y-11451150D01*
X5731968Y-11451150D02*
X5751015Y-11460674D01*
X5874825Y-11584484D02*
X5855777Y-11574960D01*
X5855777Y-11574960D02*
X5846254Y-11555912D01*
X5846254Y-11555912D02*
X5846254Y-11384484D01*
X5979587Y-11584484D02*
X5960539Y-11574960D01*
X5960539Y-11574960D02*
X5951015Y-11565436D01*
X5951015Y-11565436D02*
X5941492Y-11546388D01*
X5941492Y-11546388D02*
X5941492Y-11489246D01*
X5941492Y-11489246D02*
X5951015Y-11470198D01*
X5951015Y-11470198D02*
X5960539Y-11460674D01*
X5960539Y-11460674D02*
X5979587Y-11451150D01*
X5979587Y-11451150D02*
X6008158Y-11451150D01*
X6008158Y-11451150D02*
X6027206Y-11460674D01*
X6027206Y-11460674D02*
X6036730Y-11470198D01*
X6036730Y-11470198D02*
X6046254Y-11489246D01*
X6046254Y-11489246D02*
X6046254Y-11546388D01*
X6046254Y-11546388D02*
X6036730Y-11565436D01*
X6036730Y-11565436D02*
X6027206Y-11574960D01*
X6027206Y-11574960D02*
X6008158Y-11584484D01*
X6008158Y-11584484D02*
X5979587Y-11584484D01*
X6103396Y-11451150D02*
X6179587Y-11451150D01*
X6131968Y-11384484D02*
X6131968Y-11555912D01*
X6131968Y-11555912D02*
X6141492Y-11574960D01*
X6141492Y-11574960D02*
X6160539Y-11584484D01*
X6160539Y-11584484D02*
X6179587Y-11584484D01*
X6236730Y-11574960D02*
X6255777Y-11584484D01*
X6255777Y-11584484D02*
X6293873Y-11584484D01*
X6293873Y-11584484D02*
X6312920Y-11574960D01*
X6312920Y-11574960D02*
X6322444Y-11555912D01*
X6322444Y-11555912D02*
X6322444Y-11546388D01*
X6322444Y-11546388D02*
X6312920Y-11527341D01*
X6312920Y-11527341D02*
X6293873Y-11517817D01*
X6293873Y-11517817D02*
X6265301Y-11517817D01*
X6265301Y-11517817D02*
X6246254Y-11508293D01*
X6246254Y-11508293D02*
X6236730Y-11489246D01*
X6236730Y-11489246D02*
X6236730Y-11479722D01*
X6236730Y-11479722D02*
X6246254Y-11460674D01*
X6246254Y-11460674D02*
X6265301Y-11451150D01*
X6265301Y-11451150D02*
X6293873Y-11451150D01*
X6293873Y-11451150D02*
X6312920Y-11460674D01*
X6389111Y-11660674D02*
X6398635Y-11651150D01*
X6398635Y-11651150D02*
X6417682Y-11622579D01*
X6417682Y-11622579D02*
X6427206Y-11603531D01*
X6427206Y-11603531D02*
X6436730Y-11574960D01*
X6436730Y-11574960D02*
X6446254Y-11527341D01*
X6446254Y-11527341D02*
X6446254Y-11489246D01*
X6446254Y-11489246D02*
X6436730Y-11441627D01*
X6436730Y-11441627D02*
X6427206Y-11413055D01*
X6427206Y-11413055D02*
X6417682Y-11394008D01*
X6417682Y-11394008D02*
X6398635Y-11365436D01*
X6398635Y-11365436D02*
X6389111Y-11355912D01*
X-205000Y-11683002D02*
X-5000Y-11883002D01*
X-5000Y-11683002D02*
X-205000Y-11883002D01*
X-105000Y-11883002D02*
X-5000Y-11783002D01*
X-105000Y-11683002D01*
X-205000Y-11783002D01*
X-105000Y-11883002D01*
X236729Y-11674486D02*
X360539Y-11674486D01*
X360539Y-11674486D02*
X293872Y-11750676D01*
X293872Y-11750676D02*
X322444Y-11750676D01*
X322444Y-11750676D02*
X341491Y-11760200D01*
X341491Y-11760200D02*
X351015Y-11769724D01*
X351015Y-11769724D02*
X360539Y-11788772D01*
X360539Y-11788772D02*
X360539Y-11836391D01*
X360539Y-11836391D02*
X351015Y-11855438D01*
X351015Y-11855438D02*
X341491Y-11864962D01*
X341491Y-11864962D02*
X322444Y-11874486D01*
X322444Y-11874486D02*
X265301Y-11874486D01*
X265301Y-11874486D02*
X246253Y-11864962D01*
X246253Y-11864962D02*
X236729Y-11855438D01*
X446253Y-11855438D02*
X455777Y-11864962D01*
X455777Y-11864962D02*
X446253Y-11874486D01*
X446253Y-11874486D02*
X436729Y-11864962D01*
X436729Y-11864962D02*
X446253Y-11855438D01*
X446253Y-11855438D02*
X446253Y-11874486D01*
X579586Y-11674486D02*
X598634Y-11674486D01*
X598634Y-11674486D02*
X617682Y-11684010D01*
X617682Y-11684010D02*
X627205Y-11693534D01*
X627205Y-11693534D02*
X636729Y-11712581D01*
X636729Y-11712581D02*
X646253Y-11750676D01*
X646253Y-11750676D02*
X646253Y-11798295D01*
X646253Y-11798295D02*
X636729Y-11836391D01*
X636729Y-11836391D02*
X627205Y-11855438D01*
X627205Y-11855438D02*
X617682Y-11864962D01*
X617682Y-11864962D02*
X598634Y-11874486D01*
X598634Y-11874486D02*
X579586Y-11874486D01*
X579586Y-11874486D02*
X560539Y-11864962D01*
X560539Y-11864962D02*
X551015Y-11855438D01*
X551015Y-11855438D02*
X541491Y-11836391D01*
X541491Y-11836391D02*
X531967Y-11798295D01*
X531967Y-11798295D02*
X531967Y-11750676D01*
X531967Y-11750676D02*
X541491Y-11712581D01*
X541491Y-11712581D02*
X551015Y-11693534D01*
X551015Y-11693534D02*
X560539Y-11684010D01*
X560539Y-11684010D02*
X579586Y-11674486D01*
X770062Y-11674486D02*
X789110Y-11674486D01*
X789110Y-11674486D02*
X808158Y-11684010D01*
X808158Y-11684010D02*
X817682Y-11693534D01*
X817682Y-11693534D02*
X827205Y-11712581D01*
X827205Y-11712581D02*
X836729Y-11750676D01*
X836729Y-11750676D02*
X836729Y-11798295D01*
X836729Y-11798295D02*
X827205Y-11836391D01*
X827205Y-11836391D02*
X817682Y-11855438D01*
X817682Y-11855438D02*
X808158Y-11864962D01*
X808158Y-11864962D02*
X789110Y-11874486D01*
X789110Y-11874486D02*
X770062Y-11874486D01*
X770062Y-11874486D02*
X751015Y-11864962D01*
X751015Y-11864962D02*
X741491Y-11855438D01*
X741491Y-11855438D02*
X731967Y-11836391D01*
X731967Y-11836391D02*
X722443Y-11798295D01*
X722443Y-11798295D02*
X722443Y-11750676D01*
X722443Y-11750676D02*
X731967Y-11712581D01*
X731967Y-11712581D02*
X741491Y-11693534D01*
X741491Y-11693534D02*
X751015Y-11684010D01*
X751015Y-11684010D02*
X770062Y-11674486D01*
X960539Y-11674486D02*
X979586Y-11674486D01*
X979586Y-11674486D02*
X998634Y-11684010D01*
X998634Y-11684010D02*
X1008158Y-11693534D01*
X1008158Y-11693534D02*
X1017682Y-11712581D01*
X1017682Y-11712581D02*
X1027205Y-11750676D01*
X1027205Y-11750676D02*
X1027205Y-11798295D01*
X1027205Y-11798295D02*
X1017682Y-11836391D01*
X1017682Y-11836391D02*
X1008158Y-11855438D01*
X1008158Y-11855438D02*
X998634Y-11864962D01*
X998634Y-11864962D02*
X979586Y-11874486D01*
X979586Y-11874486D02*
X960539Y-11874486D01*
X960539Y-11874486D02*
X941491Y-11864962D01*
X941491Y-11864962D02*
X931967Y-11855438D01*
X931967Y-11855438D02*
X922443Y-11836391D01*
X922443Y-11836391D02*
X912920Y-11798295D01*
X912920Y-11798295D02*
X912920Y-11750676D01*
X912920Y-11750676D02*
X922443Y-11712581D01*
X922443Y-11712581D02*
X931967Y-11693534D01*
X931967Y-11693534D02*
X941491Y-11684010D01*
X941491Y-11684010D02*
X960539Y-11674486D01*
X1112920Y-11874486D02*
X1112920Y-11741153D01*
X1112920Y-11760200D02*
X1122444Y-11750676D01*
X1122444Y-11750676D02*
X1141491Y-11741153D01*
X1141491Y-11741153D02*
X1170063Y-11741153D01*
X1170063Y-11741153D02*
X1189110Y-11750676D01*
X1189110Y-11750676D02*
X1198634Y-11769724D01*
X1198634Y-11769724D02*
X1198634Y-11874486D01*
X1198634Y-11769724D02*
X1208158Y-11750676D01*
X1208158Y-11750676D02*
X1227205Y-11741153D01*
X1227205Y-11741153D02*
X1255777Y-11741153D01*
X1255777Y-11741153D02*
X1274825Y-11750676D01*
X1274825Y-11750676D02*
X1284348Y-11769724D01*
X1284348Y-11769724D02*
X1284348Y-11874486D01*
X1379586Y-11874486D02*
X1379586Y-11741153D01*
X1379586Y-11760200D02*
X1389110Y-11750676D01*
X1389110Y-11750676D02*
X1408158Y-11741153D01*
X1408158Y-11741153D02*
X1436729Y-11741153D01*
X1436729Y-11741153D02*
X1455777Y-11750676D01*
X1455777Y-11750676D02*
X1465301Y-11769724D01*
X1465301Y-11769724D02*
X1465301Y-11874486D01*
X1465301Y-11769724D02*
X1474824Y-11750676D01*
X1474824Y-11750676D02*
X1493872Y-11741153D01*
X1493872Y-11741153D02*
X1522443Y-11741153D01*
X1522443Y-11741153D02*
X1541491Y-11750676D01*
X1541491Y-11750676D02*
X1551015Y-11769724D01*
X1551015Y-11769724D02*
X1551015Y-11874486D01*
X1941491Y-11664962D02*
X1770063Y-11922105D01*
X2198634Y-11674486D02*
X2217682Y-11674486D01*
X2217682Y-11674486D02*
X2236729Y-11684010D01*
X2236729Y-11684010D02*
X2246253Y-11693534D01*
X2246253Y-11693534D02*
X2255777Y-11712581D01*
X2255777Y-11712581D02*
X2265301Y-11750676D01*
X2265301Y-11750676D02*
X2265301Y-11798295D01*
X2265301Y-11798295D02*
X2255777Y-11836391D01*
X2255777Y-11836391D02*
X2246253Y-11855438D01*
X2246253Y-11855438D02*
X2236729Y-11864962D01*
X2236729Y-11864962D02*
X2217682Y-11874486D01*
X2217682Y-11874486D02*
X2198634Y-11874486D01*
X2198634Y-11874486D02*
X2179587Y-11864962D01*
X2179587Y-11864962D02*
X2170063Y-11855438D01*
X2170063Y-11855438D02*
X2160539Y-11836391D01*
X2160539Y-11836391D02*
X2151015Y-11798295D01*
X2151015Y-11798295D02*
X2151015Y-11750676D01*
X2151015Y-11750676D02*
X2160539Y-11712581D01*
X2160539Y-11712581D02*
X2170063Y-11693534D01*
X2170063Y-11693534D02*
X2179587Y-11684010D01*
X2179587Y-11684010D02*
X2198634Y-11674486D01*
X2351015Y-11855438D02*
X2360539Y-11864962D01*
X2360539Y-11864962D02*
X2351015Y-11874486D01*
X2351015Y-11874486D02*
X2341491Y-11864962D01*
X2341491Y-11864962D02*
X2351015Y-11855438D01*
X2351015Y-11855438D02*
X2351015Y-11874486D01*
X2551015Y-11874486D02*
X2436729Y-11874486D01*
X2493872Y-11874486D02*
X2493872Y-11674486D01*
X2493872Y-11674486D02*
X2474825Y-11703057D01*
X2474825Y-11703057D02*
X2455777Y-11722105D01*
X2455777Y-11722105D02*
X2436729Y-11731629D01*
X2741491Y-11874486D02*
X2627206Y-11874486D01*
X2684348Y-11874486D02*
X2684348Y-11674486D01*
X2684348Y-11674486D02*
X2665301Y-11703057D01*
X2665301Y-11703057D02*
X2646253Y-11722105D01*
X2646253Y-11722105D02*
X2627206Y-11731629D01*
X2855777Y-11760200D02*
X2836729Y-11750676D01*
X2836729Y-11750676D02*
X2827206Y-11741153D01*
X2827206Y-11741153D02*
X2817682Y-11722105D01*
X2817682Y-11722105D02*
X2817682Y-11712581D01*
X2817682Y-11712581D02*
X2827206Y-11693534D01*
X2827206Y-11693534D02*
X2836729Y-11684010D01*
X2836729Y-11684010D02*
X2855777Y-11674486D01*
X2855777Y-11674486D02*
X2893872Y-11674486D01*
X2893872Y-11674486D02*
X2912920Y-11684010D01*
X2912920Y-11684010D02*
X2922444Y-11693534D01*
X2922444Y-11693534D02*
X2931967Y-11712581D01*
X2931967Y-11712581D02*
X2931967Y-11722105D01*
X2931967Y-11722105D02*
X2922444Y-11741153D01*
X2922444Y-11741153D02*
X2912920Y-11750676D01*
X2912920Y-11750676D02*
X2893872Y-11760200D01*
X2893872Y-11760200D02*
X2855777Y-11760200D01*
X2855777Y-11760200D02*
X2836729Y-11769724D01*
X2836729Y-11769724D02*
X2827206Y-11779248D01*
X2827206Y-11779248D02*
X2817682Y-11798295D01*
X2817682Y-11798295D02*
X2817682Y-11836391D01*
X2817682Y-11836391D02*
X2827206Y-11855438D01*
X2827206Y-11855438D02*
X2836729Y-11864962D01*
X2836729Y-11864962D02*
X2855777Y-11874486D01*
X2855777Y-11874486D02*
X2893872Y-11874486D01*
X2893872Y-11874486D02*
X2912920Y-11864962D01*
X2912920Y-11864962D02*
X2922444Y-11855438D01*
X2922444Y-11855438D02*
X2931967Y-11836391D01*
X2931967Y-11836391D02*
X2931967Y-11798295D01*
X2931967Y-11798295D02*
X2922444Y-11779248D01*
X2922444Y-11779248D02*
X2912920Y-11769724D01*
X2912920Y-11769724D02*
X2893872Y-11760200D01*
X3122444Y-11874486D02*
X3008158Y-11874486D01*
X3065301Y-11874486D02*
X3065301Y-11674486D01*
X3065301Y-11674486D02*
X3046253Y-11703057D01*
X3046253Y-11703057D02*
X3027206Y-11722105D01*
X3027206Y-11722105D02*
X3008158Y-11731629D01*
X3198634Y-11674486D02*
X3198634Y-11712581D01*
X3274825Y-11674486D02*
X3274825Y-11712581D01*
X3570063Y-11950676D02*
X3560539Y-11941153D01*
X3560539Y-11941153D02*
X3541491Y-11912581D01*
X3541491Y-11912581D02*
X3531968Y-11893534D01*
X3531968Y-11893534D02*
X3522444Y-11864962D01*
X3522444Y-11864962D02*
X3512920Y-11817343D01*
X3512920Y-11817343D02*
X3512920Y-11779248D01*
X3512920Y-11779248D02*
X3522444Y-11731629D01*
X3522444Y-11731629D02*
X3531968Y-11703057D01*
X3531968Y-11703057D02*
X3541491Y-11684010D01*
X3541491Y-11684010D02*
X3560539Y-11655438D01*
X3560539Y-11655438D02*
X3570063Y-11645914D01*
X3636729Y-11693534D02*
X3646253Y-11684010D01*
X3646253Y-11684010D02*
X3665301Y-11674486D01*
X3665301Y-11674486D02*
X3712920Y-11674486D01*
X3712920Y-11674486D02*
X3731968Y-11684010D01*
X3731968Y-11684010D02*
X3741491Y-11693534D01*
X3741491Y-11693534D02*
X3751015Y-11712581D01*
X3751015Y-11712581D02*
X3751015Y-11731629D01*
X3751015Y-11731629D02*
X3741491Y-11760200D01*
X3741491Y-11760200D02*
X3627206Y-11874486D01*
X3627206Y-11874486D02*
X3751015Y-11874486D01*
X3922444Y-11741153D02*
X3922444Y-11874486D01*
X3874825Y-11664962D02*
X3827206Y-11807819D01*
X3827206Y-11807819D02*
X3951015Y-11807819D01*
X4179587Y-11874486D02*
X4179587Y-11674486D01*
X4265301Y-11874486D02*
X4265301Y-11769724D01*
X4265301Y-11769724D02*
X4255777Y-11750676D01*
X4255777Y-11750676D02*
X4236730Y-11741153D01*
X4236730Y-11741153D02*
X4208158Y-11741153D01*
X4208158Y-11741153D02*
X4189110Y-11750676D01*
X4189110Y-11750676D02*
X4179587Y-11760200D01*
X4389111Y-11874486D02*
X4370063Y-11864962D01*
X4370063Y-11864962D02*
X4360539Y-11855438D01*
X4360539Y-11855438D02*
X4351015Y-11836391D01*
X4351015Y-11836391D02*
X4351015Y-11779248D01*
X4351015Y-11779248D02*
X4360539Y-11760200D01*
X4360539Y-11760200D02*
X4370063Y-11750676D01*
X4370063Y-11750676D02*
X4389111Y-11741153D01*
X4389111Y-11741153D02*
X4417682Y-11741153D01*
X4417682Y-11741153D02*
X4436730Y-11750676D01*
X4436730Y-11750676D02*
X4446253Y-11760200D01*
X4446253Y-11760200D02*
X4455777Y-11779248D01*
X4455777Y-11779248D02*
X4455777Y-11836391D01*
X4455777Y-11836391D02*
X4446253Y-11855438D01*
X4446253Y-11855438D02*
X4436730Y-11864962D01*
X4436730Y-11864962D02*
X4417682Y-11874486D01*
X4417682Y-11874486D02*
X4389111Y-11874486D01*
X4570063Y-11874486D02*
X4551015Y-11864962D01*
X4551015Y-11864962D02*
X4541492Y-11845914D01*
X4541492Y-11845914D02*
X4541492Y-11674486D01*
X4722444Y-11864962D02*
X4703396Y-11874486D01*
X4703396Y-11874486D02*
X4665301Y-11874486D01*
X4665301Y-11874486D02*
X4646253Y-11864962D01*
X4646253Y-11864962D02*
X4636730Y-11845914D01*
X4636730Y-11845914D02*
X4636730Y-11769724D01*
X4636730Y-11769724D02*
X4646253Y-11750676D01*
X4646253Y-11750676D02*
X4665301Y-11741153D01*
X4665301Y-11741153D02*
X4703396Y-11741153D01*
X4703396Y-11741153D02*
X4722444Y-11750676D01*
X4722444Y-11750676D02*
X4731968Y-11769724D01*
X4731968Y-11769724D02*
X4731968Y-11788772D01*
X4731968Y-11788772D02*
X4636730Y-11807819D01*
X4808158Y-11864962D02*
X4827206Y-11874486D01*
X4827206Y-11874486D02*
X4865301Y-11874486D01*
X4865301Y-11874486D02*
X4884349Y-11864962D01*
X4884349Y-11864962D02*
X4893873Y-11845914D01*
X4893873Y-11845914D02*
X4893873Y-11836391D01*
X4893873Y-11836391D02*
X4884349Y-11817343D01*
X4884349Y-11817343D02*
X4865301Y-11807819D01*
X4865301Y-11807819D02*
X4836730Y-11807819D01*
X4836730Y-11807819D02*
X4817682Y-11798295D01*
X4817682Y-11798295D02*
X4808158Y-11779248D01*
X4808158Y-11779248D02*
X4808158Y-11769724D01*
X4808158Y-11769724D02*
X4817682Y-11750676D01*
X4817682Y-11750676D02*
X4836730Y-11741153D01*
X4836730Y-11741153D02*
X4865301Y-11741153D01*
X4865301Y-11741153D02*
X4884349Y-11750676D01*
X4960539Y-11950676D02*
X4970063Y-11941153D01*
X4970063Y-11941153D02*
X4989111Y-11912581D01*
X4989111Y-11912581D02*
X4998634Y-11893534D01*
X4998634Y-11893534D02*
X5008158Y-11864962D01*
X5008158Y-11864962D02*
X5017682Y-11817343D01*
X5017682Y-11817343D02*
X5017682Y-11779248D01*
X5017682Y-11779248D02*
X5008158Y-11731629D01*
X5008158Y-11731629D02*
X4998634Y-11703057D01*
X4998634Y-11703057D02*
X4989111Y-11684010D01*
X4989111Y-11684010D02*
X4970063Y-11655438D01*
X4970063Y-11655438D02*
X4960539Y-11645914D01*
M02*
