M48
; DRILL file KiCad 10.0.3 date 2026-07-28T16:59:11
; FORMAT={-:-/ absolute / metric / decimal}
; #@! TF.CreationDate,2026-07-28T16:59:11-04:00
; #@! TF.GenerationSoftware,Kicad,Pcbnew,10.0.3
; #@! TF.FileFunction,NonPlated,1,4,NPTH
FMAT,2
METRIC
; #@! TA.AperFunction,NonPlated,NPTH,ComponentDrill
T1C1.200
; #@! TA.AperFunction,NonPlated,NPTH,ComponentDrill
T2C1.700
; #@! TA.AperFunction,NonPlated,NPTH,ComponentDrill
T3C2.700
; #@! TA.AperFunction,NonPlated,NPTH,ComponentDrill
T4C3.000
; #@! TA.AperFunction,NonPlated,NPTH,ComponentDrill
T5C5.000
%
G90
G05
T1
X21.0Y-29.518
X21.0Y-48.184
X21.0Y-66.852
X40.333Y-10.85
X40.333Y-29.518
X40.333Y-48.184
X50.0Y-66.852
X59.667Y-10.85
X59.667Y-29.518
X59.667Y-48.184
X79.0Y-29.518
X79.0Y-48.184
X79.0Y-66.852
T2
X10.5Y-34.668
X10.5Y-53.334
X10.5Y-72.002
X21.5Y-34.668
X21.5Y-53.334
X21.5Y-72.002
X29.833Y-16.0
X29.833Y-34.668
X29.833Y-53.334
X39.5Y-72.002
X40.833Y-16.0
X40.833Y-34.668
X40.833Y-53.334
X49.167Y-16.0
X49.167Y-34.668
X49.167Y-53.334
X50.5Y-72.002
X60.167Y-16.0
X60.167Y-34.668
X60.167Y-53.334
X68.5Y-34.668
X68.5Y-53.334
X68.5Y-72.002
X79.5Y-34.668
X79.5Y-53.334
X79.5Y-72.002
T3
X6.0Y-6.0
X6.0Y-84.0
X84.0Y-6.0
X84.0Y-84.0
T4
X11.0Y-38.368
X11.0Y-57.034
X11.0Y-75.702
X16.0Y-40.568
X16.0Y-59.234
X16.0Y-77.902
X30.333Y-19.7
X30.333Y-38.368
X30.333Y-57.034
X35.333Y-21.9
X35.333Y-40.568
X35.333Y-59.234
X40.0Y-75.702
X45.0Y-77.902
X49.667Y-19.7
X49.667Y-38.368
X49.667Y-57.034
X54.667Y-21.9
X54.667Y-40.568
X54.667Y-59.234
X69.0Y-38.368
X69.0Y-57.034
X69.0Y-75.702
X74.0Y-40.568
X74.0Y-59.234
X74.0Y-77.902
T5
X16.0Y-34.668
X16.0Y-53.334
X16.0Y-72.002
X35.333Y-16.0
X35.333Y-34.668
X35.333Y-53.334
X45.0Y-72.002
X54.667Y-16.0
X54.667Y-34.668
X54.667Y-53.334
X74.0Y-34.668
X74.0Y-53.334
X74.0Y-72.002
M30
