%TF.GenerationSoftware,KiCad,Pcbnew,10.0.3*%
%TF.CreationDate,2026-08-12T09:13:07-04:00*%
%TF.ProjectId,AgentDeckV2,4167656e-7444-4656-936b-56322e6b6963,rev?*%
%TF.SameCoordinates,Original*%
%TF.FileFunction,Other,Comment*%
%FSLAX46Y46*%
G04 Gerber Fmt 4.6, Leading zero omitted, Abs format (unit mm)*
G04 Created by KiCad (PCBNEW 10.0.3) date 2026-08-12 09:13:07*
%MOMM*%
%LPD*%
G01*
G04 APERTURE LIST*
%ADD10C,0.200000*%
%ADD11C,0.500000*%
%ADD12C,0.250000*%
%ADD13C,0.400000*%
%ADD14C,0.050000*%
%ADD15C,1.450000*%
G04 APERTURE END LIST*
%TO.C,U3*%
D10*
X67680000Y-6980000D02*
G75*
G02*
X67480000Y-6980000I-100000J0D01*
G01*
X67480000Y-6980000D02*
G75*
G02*
X67680000Y-6980000I100000J0D01*
G01*
%TO.C,U1*%
D11*
X13250000Y-800000D02*
G75*
G02*
X12750000Y-800000I-250000J0D01*
G01*
X12750000Y-800000D02*
G75*
G02*
X13250000Y-800000I250000J0D01*
G01*
%TO.C,J1*%
D12*
X57220000Y-5610000D02*
G75*
G02*
X56980000Y-5610000I-120000J0D01*
G01*
X56980000Y-5610000D02*
G75*
G02*
X57220000Y-5610000I120000J0D01*
G01*
X63030000Y-5610000D02*
G75*
G02*
X62770000Y-5610000I-130000J0D01*
G01*
X62770000Y-5610000D02*
G75*
G02*
X63030000Y-5610000I130000J0D01*
G01*
%TO.C,U5*%
D13*
X100600000Y-11020000D02*
G75*
G02*
X100200000Y-11020000I-200000J0D01*
G01*
X100200000Y-11020000D02*
G75*
G02*
X100600000Y-11020000I200000J0D01*
G01*
%TO.C,SW16*%
D14*
X13800000Y-96450000D02*
X13800000Y-97300000D01*
X13800000Y-97300000D02*
X13800000Y-97300000D01*
X13800000Y-97300000D02*
X13800000Y-100100000D01*
X13800000Y-100100000D02*
X13800000Y-100450000D01*
X13800000Y-100450000D02*
X14450000Y-101100000D01*
X14450000Y-101100000D02*
X17150000Y-101100000D01*
X17150000Y-101100000D02*
X18600000Y-102550000D01*
X17800000Y-96450000D02*
X13800000Y-96450000D01*
X18600000Y-97250000D02*
X17800000Y-96450000D01*
X18600000Y-97450000D02*
X18600000Y-97250000D01*
X18600000Y-102550000D02*
X18600000Y-102550000D01*
X18600000Y-102550000D02*
X19400000Y-103350000D01*
X19400000Y-103350000D02*
X22550000Y-103350000D01*
X19850000Y-98700000D02*
X18600000Y-97450000D01*
X22550000Y-103350000D02*
X23400000Y-102500000D01*
X22750000Y-98700000D02*
X19850000Y-98700000D01*
X23400000Y-99350000D02*
X22750000Y-98700000D01*
X23400000Y-99350000D02*
X23400000Y-99350000D01*
X23400000Y-102500000D02*
X23400000Y-99350000D01*
D15*
X16830000Y-98800000D02*
G75*
G02*
X15370000Y-98800000I-730000J0D01*
G01*
X15370000Y-98800000D02*
G75*
G02*
X16830000Y-98800000I730000J0D01*
G01*
X21830000Y-101000000D02*
G75*
G02*
X20370000Y-101000000I-730000J0D01*
G01*
X20370000Y-101000000D02*
G75*
G02*
X21830000Y-101000000I730000J0D01*
G01*
%TO.C,SW1*%
D14*
X13800000Y-38550000D02*
X13800000Y-39400000D01*
X13800000Y-39400000D02*
X13800000Y-39400000D01*
X13800000Y-39400000D02*
X13800000Y-42200000D01*
X13800000Y-42200000D02*
X13800000Y-42550000D01*
X13800000Y-42550000D02*
X14450000Y-43200000D01*
X14450000Y-43200000D02*
X17150000Y-43200000D01*
X17150000Y-43200000D02*
X18600000Y-44650000D01*
X17800000Y-38550000D02*
X13800000Y-38550000D01*
X18600000Y-39350000D02*
X17800000Y-38550000D01*
X18600000Y-39550000D02*
X18600000Y-39350000D01*
X18600000Y-44650000D02*
X18600000Y-44650000D01*
X18600000Y-44650000D02*
X19400000Y-45450000D01*
X19400000Y-45450000D02*
X22550000Y-45450000D01*
X19850000Y-40800000D02*
X18600000Y-39550000D01*
X22550000Y-45450000D02*
X23400000Y-44600000D01*
X22750000Y-40800000D02*
X19850000Y-40800000D01*
X23400000Y-41450000D02*
X22750000Y-40800000D01*
X23400000Y-41450000D02*
X23400000Y-41450000D01*
X23400000Y-44600000D02*
X23400000Y-41450000D01*
D15*
X16830000Y-40900000D02*
G75*
G02*
X15370000Y-40900000I-730000J0D01*
G01*
X15370000Y-40900000D02*
G75*
G02*
X16830000Y-40900000I730000J0D01*
G01*
X21830000Y-43100000D02*
G75*
G02*
X20370000Y-43100000I-730000J0D01*
G01*
X20370000Y-43100000D02*
G75*
G02*
X21830000Y-43100000I730000J0D01*
G01*
%TO.C,SW18*%
D14*
X51200000Y-96450000D02*
X51200000Y-97300000D01*
X51200000Y-97300000D02*
X51200000Y-97300000D01*
X51200000Y-97300000D02*
X51200000Y-100100000D01*
X51200000Y-100100000D02*
X51200000Y-100450000D01*
X51200000Y-100450000D02*
X51850000Y-101100000D01*
X51850000Y-101100000D02*
X54550000Y-101100000D01*
X54550000Y-101100000D02*
X56000000Y-102550000D01*
X55200000Y-96450000D02*
X51200000Y-96450000D01*
X56000000Y-97250000D02*
X55200000Y-96450000D01*
X56000000Y-97450000D02*
X56000000Y-97250000D01*
X56000000Y-102550000D02*
X56000000Y-102550000D01*
X56000000Y-102550000D02*
X56800000Y-103350000D01*
X56800000Y-103350000D02*
X59950000Y-103350000D01*
X57250000Y-98700000D02*
X56000000Y-97450000D01*
X59950000Y-103350000D02*
X60800000Y-102500000D01*
X60150000Y-98700000D02*
X57250000Y-98700000D01*
X60800000Y-99350000D02*
X60150000Y-98700000D01*
X60800000Y-99350000D02*
X60800000Y-99350000D01*
X60800000Y-102500000D02*
X60800000Y-99350000D01*
D15*
X54230000Y-98800000D02*
G75*
G02*
X52770000Y-98800000I-730000J0D01*
G01*
X52770000Y-98800000D02*
G75*
G02*
X54230000Y-98800000I730000J0D01*
G01*
X59230000Y-101000000D02*
G75*
G02*
X57770000Y-101000000I-730000J0D01*
G01*
X57770000Y-101000000D02*
G75*
G02*
X59230000Y-101000000I730000J0D01*
G01*
%TO.C,SW14*%
D14*
X69900000Y-77150000D02*
X69900000Y-78000000D01*
X69900000Y-78000000D02*
X69900000Y-78000000D01*
X69900000Y-78000000D02*
X69900000Y-80800000D01*
X69900000Y-80800000D02*
X69900000Y-81150000D01*
X69900000Y-81150000D02*
X70550000Y-81800000D01*
X70550000Y-81800000D02*
X73250000Y-81800000D01*
X73250000Y-81800000D02*
X74700000Y-83250000D01*
X73900000Y-77150000D02*
X69900000Y-77150000D01*
X74700000Y-77950000D02*
X73900000Y-77150000D01*
X74700000Y-78150000D02*
X74700000Y-77950000D01*
X74700000Y-83250000D02*
X74700000Y-83250000D01*
X74700000Y-83250000D02*
X75500000Y-84050000D01*
X75500000Y-84050000D02*
X78650000Y-84050000D01*
X75950000Y-79400000D02*
X74700000Y-78150000D01*
X78650000Y-84050000D02*
X79500000Y-83200000D01*
X78850000Y-79400000D02*
X75950000Y-79400000D01*
X79500000Y-80050000D02*
X78850000Y-79400000D01*
X79500000Y-80050000D02*
X79500000Y-80050000D01*
X79500000Y-83200000D02*
X79500000Y-80050000D01*
D15*
X72930000Y-79500000D02*
G75*
G02*
X71470000Y-79500000I-730000J0D01*
G01*
X71470000Y-79500000D02*
G75*
G02*
X72930000Y-79500000I730000J0D01*
G01*
X77930000Y-81700000D02*
G75*
G02*
X76470000Y-81700000I-730000J0D01*
G01*
X76470000Y-81700000D02*
G75*
G02*
X77930000Y-81700000I730000J0D01*
G01*
%TO.C,SW4*%
D14*
X69900000Y-38550000D02*
X69900000Y-39400000D01*
X69900000Y-39400000D02*
X69900000Y-39400000D01*
X69900000Y-39400000D02*
X69900000Y-42200000D01*
X69900000Y-42200000D02*
X69900000Y-42550000D01*
X69900000Y-42550000D02*
X70550000Y-43200000D01*
X70550000Y-43200000D02*
X73250000Y-43200000D01*
X73250000Y-43200000D02*
X74700000Y-44650000D01*
X73900000Y-38550000D02*
X69900000Y-38550000D01*
X74700000Y-39350000D02*
X73900000Y-38550000D01*
X74700000Y-39550000D02*
X74700000Y-39350000D01*
X74700000Y-44650000D02*
X74700000Y-44650000D01*
X74700000Y-44650000D02*
X75500000Y-45450000D01*
X75500000Y-45450000D02*
X78650000Y-45450000D01*
X75950000Y-40800000D02*
X74700000Y-39550000D01*
X78650000Y-45450000D02*
X79500000Y-44600000D01*
X78850000Y-40800000D02*
X75950000Y-40800000D01*
X79500000Y-41450000D02*
X78850000Y-40800000D01*
X79500000Y-41450000D02*
X79500000Y-41450000D01*
X79500000Y-44600000D02*
X79500000Y-41450000D01*
D15*
X72930000Y-40900000D02*
G75*
G02*
X71470000Y-40900000I-730000J0D01*
G01*
X71470000Y-40900000D02*
G75*
G02*
X72930000Y-40900000I730000J0D01*
G01*
X77930000Y-43100000D02*
G75*
G02*
X76470000Y-43100000I-730000J0D01*
G01*
X76470000Y-43100000D02*
G75*
G02*
X77930000Y-43100000I730000J0D01*
G01*
%TO.C,SW9*%
D14*
X69900000Y-57850000D02*
X69900000Y-58700000D01*
X69900000Y-58700000D02*
X69900000Y-58700000D01*
X69900000Y-58700000D02*
X69900000Y-61500000D01*
X69900000Y-61500000D02*
X69900000Y-61850000D01*
X69900000Y-61850000D02*
X70550000Y-62500000D01*
X70550000Y-62500000D02*
X73250000Y-62500000D01*
X73250000Y-62500000D02*
X74700000Y-63950000D01*
X73900000Y-57850000D02*
X69900000Y-57850000D01*
X74700000Y-58650000D02*
X73900000Y-57850000D01*
X74700000Y-58850000D02*
X74700000Y-58650000D01*
X74700000Y-63950000D02*
X74700000Y-63950000D01*
X74700000Y-63950000D02*
X75500000Y-64750000D01*
X75500000Y-64750000D02*
X78650000Y-64750000D01*
X75950000Y-60100000D02*
X74700000Y-58850000D01*
X78650000Y-64750000D02*
X79500000Y-63900000D01*
X78850000Y-60100000D02*
X75950000Y-60100000D01*
X79500000Y-60750000D02*
X78850000Y-60100000D01*
X79500000Y-60750000D02*
X79500000Y-60750000D01*
X79500000Y-63900000D02*
X79500000Y-60750000D01*
D15*
X72930000Y-60200000D02*
G75*
G02*
X71470000Y-60200000I-730000J0D01*
G01*
X71470000Y-60200000D02*
G75*
G02*
X72930000Y-60200000I730000J0D01*
G01*
X77930000Y-62400000D02*
G75*
G02*
X76470000Y-62400000I-730000J0D01*
G01*
X76470000Y-62400000D02*
G75*
G02*
X77930000Y-62400000I730000J0D01*
G01*
%TO.C,SW8*%
D14*
X51200000Y-57850000D02*
X51200000Y-58700000D01*
X51200000Y-58700000D02*
X51200000Y-58700000D01*
X51200000Y-58700000D02*
X51200000Y-61500000D01*
X51200000Y-61500000D02*
X51200000Y-61850000D01*
X51200000Y-61850000D02*
X51850000Y-62500000D01*
X51850000Y-62500000D02*
X54550000Y-62500000D01*
X54550000Y-62500000D02*
X56000000Y-63950000D01*
X55200000Y-57850000D02*
X51200000Y-57850000D01*
X56000000Y-58650000D02*
X55200000Y-57850000D01*
X56000000Y-58850000D02*
X56000000Y-58650000D01*
X56000000Y-63950000D02*
X56000000Y-63950000D01*
X56000000Y-63950000D02*
X56800000Y-64750000D01*
X56800000Y-64750000D02*
X59950000Y-64750000D01*
X57250000Y-60100000D02*
X56000000Y-58850000D01*
X59950000Y-64750000D02*
X60800000Y-63900000D01*
X60150000Y-60100000D02*
X57250000Y-60100000D01*
X60800000Y-60750000D02*
X60150000Y-60100000D01*
X60800000Y-60750000D02*
X60800000Y-60750000D01*
X60800000Y-63900000D02*
X60800000Y-60750000D01*
D15*
X54230000Y-60200000D02*
G75*
G02*
X52770000Y-60200000I-730000J0D01*
G01*
X52770000Y-60200000D02*
G75*
G02*
X54230000Y-60200000I730000J0D01*
G01*
X59230000Y-62400000D02*
G75*
G02*
X57770000Y-62400000I-730000J0D01*
G01*
X57770000Y-62400000D02*
G75*
G02*
X59230000Y-62400000I730000J0D01*
G01*
%TO.C,SW13*%
D14*
X51200000Y-77150000D02*
X51200000Y-78000000D01*
X51200000Y-78000000D02*
X51200000Y-78000000D01*
X51200000Y-78000000D02*
X51200000Y-80800000D01*
X51200000Y-80800000D02*
X51200000Y-81150000D01*
X51200000Y-81150000D02*
X51850000Y-81800000D01*
X51850000Y-81800000D02*
X54550000Y-81800000D01*
X54550000Y-81800000D02*
X56000000Y-83250000D01*
X55200000Y-77150000D02*
X51200000Y-77150000D01*
X56000000Y-77950000D02*
X55200000Y-77150000D01*
X56000000Y-78150000D02*
X56000000Y-77950000D01*
X56000000Y-83250000D02*
X56000000Y-83250000D01*
X56000000Y-83250000D02*
X56800000Y-84050000D01*
X56800000Y-84050000D02*
X59950000Y-84050000D01*
X57250000Y-79400000D02*
X56000000Y-78150000D01*
X59950000Y-84050000D02*
X60800000Y-83200000D01*
X60150000Y-79400000D02*
X57250000Y-79400000D01*
X60800000Y-80050000D02*
X60150000Y-79400000D01*
X60800000Y-80050000D02*
X60800000Y-80050000D01*
X60800000Y-83200000D02*
X60800000Y-80050000D01*
D15*
X54230000Y-79500000D02*
G75*
G02*
X52770000Y-79500000I-730000J0D01*
G01*
X52770000Y-79500000D02*
G75*
G02*
X54230000Y-79500000I730000J0D01*
G01*
X59230000Y-81700000D02*
G75*
G02*
X57770000Y-81700000I-730000J0D01*
G01*
X57770000Y-81700000D02*
G75*
G02*
X59230000Y-81700000I730000J0D01*
G01*
%TO.C,SW6*%
D14*
X13800000Y-57850000D02*
X13800000Y-58700000D01*
X13800000Y-58700000D02*
X13800000Y-58700000D01*
X13800000Y-58700000D02*
X13800000Y-61500000D01*
X13800000Y-61500000D02*
X13800000Y-61850000D01*
X13800000Y-61850000D02*
X14450000Y-62500000D01*
X14450000Y-62500000D02*
X17150000Y-62500000D01*
X17150000Y-62500000D02*
X18600000Y-63950000D01*
X17800000Y-57850000D02*
X13800000Y-57850000D01*
X18600000Y-58650000D02*
X17800000Y-57850000D01*
X18600000Y-58850000D02*
X18600000Y-58650000D01*
X18600000Y-63950000D02*
X18600000Y-63950000D01*
X18600000Y-63950000D02*
X19400000Y-64750000D01*
X19400000Y-64750000D02*
X22550000Y-64750000D01*
X19850000Y-60100000D02*
X18600000Y-58850000D01*
X22550000Y-64750000D02*
X23400000Y-63900000D01*
X22750000Y-60100000D02*
X19850000Y-60100000D01*
X23400000Y-60750000D02*
X22750000Y-60100000D01*
X23400000Y-60750000D02*
X23400000Y-60750000D01*
X23400000Y-63900000D02*
X23400000Y-60750000D01*
D15*
X16830000Y-60200000D02*
G75*
G02*
X15370000Y-60200000I-730000J0D01*
G01*
X15370000Y-60200000D02*
G75*
G02*
X16830000Y-60200000I730000J0D01*
G01*
X21830000Y-62400000D02*
G75*
G02*
X20370000Y-62400000I-730000J0D01*
G01*
X20370000Y-62400000D02*
G75*
G02*
X21830000Y-62400000I730000J0D01*
G01*
%TO.C,SW5*%
D14*
X88600000Y-38550000D02*
X88600000Y-39400000D01*
X88600000Y-39400000D02*
X88600000Y-39400000D01*
X88600000Y-39400000D02*
X88600000Y-42200000D01*
X88600000Y-42200000D02*
X88600000Y-42550000D01*
X88600000Y-42550000D02*
X89250000Y-43200000D01*
X89250000Y-43200000D02*
X91950000Y-43200000D01*
X91950000Y-43200000D02*
X93400000Y-44650000D01*
X92600000Y-38550000D02*
X88600000Y-38550000D01*
X93400000Y-39350000D02*
X92600000Y-38550000D01*
X93400000Y-39550000D02*
X93400000Y-39350000D01*
X93400000Y-44650000D02*
X93400000Y-44650000D01*
X93400000Y-44650000D02*
X94200000Y-45450000D01*
X94200000Y-45450000D02*
X97350000Y-45450000D01*
X94650000Y-40800000D02*
X93400000Y-39550000D01*
X97350000Y-45450000D02*
X98200000Y-44600000D01*
X97550000Y-40800000D02*
X94650000Y-40800000D01*
X98200000Y-41450000D02*
X97550000Y-40800000D01*
X98200000Y-41450000D02*
X98200000Y-41450000D01*
X98200000Y-44600000D02*
X98200000Y-41450000D01*
D15*
X91630000Y-40900000D02*
G75*
G02*
X90170000Y-40900000I-730000J0D01*
G01*
X90170000Y-40900000D02*
G75*
G02*
X91630000Y-40900000I730000J0D01*
G01*
X96630000Y-43100000D02*
G75*
G02*
X95170000Y-43100000I-730000J0D01*
G01*
X95170000Y-43100000D02*
G75*
G02*
X96630000Y-43100000I730000J0D01*
G01*
%TO.C,SW10*%
D14*
X88600000Y-57850000D02*
X88600000Y-58700000D01*
X88600000Y-58700000D02*
X88600000Y-58700000D01*
X88600000Y-58700000D02*
X88600000Y-61500000D01*
X88600000Y-61500000D02*
X88600000Y-61850000D01*
X88600000Y-61850000D02*
X89250000Y-62500000D01*
X89250000Y-62500000D02*
X91950000Y-62500000D01*
X91950000Y-62500000D02*
X93400000Y-63950000D01*
X92600000Y-57850000D02*
X88600000Y-57850000D01*
X93400000Y-58650000D02*
X92600000Y-57850000D01*
X93400000Y-58850000D02*
X93400000Y-58650000D01*
X93400000Y-63950000D02*
X93400000Y-63950000D01*
X93400000Y-63950000D02*
X94200000Y-64750000D01*
X94200000Y-64750000D02*
X97350000Y-64750000D01*
X94650000Y-60100000D02*
X93400000Y-58850000D01*
X97350000Y-64750000D02*
X98200000Y-63900000D01*
X97550000Y-60100000D02*
X94650000Y-60100000D01*
X98200000Y-60750000D02*
X97550000Y-60100000D01*
X98200000Y-60750000D02*
X98200000Y-60750000D01*
X98200000Y-63900000D02*
X98200000Y-60750000D01*
D15*
X91630000Y-60200000D02*
G75*
G02*
X90170000Y-60200000I-730000J0D01*
G01*
X90170000Y-60200000D02*
G75*
G02*
X91630000Y-60200000I730000J0D01*
G01*
X96630000Y-62400000D02*
G75*
G02*
X95170000Y-62400000I-730000J0D01*
G01*
X95170000Y-62400000D02*
G75*
G02*
X96630000Y-62400000I730000J0D01*
G01*
%TO.C,SW19*%
D14*
X69900000Y-96450000D02*
X69900000Y-97300000D01*
X69900000Y-97300000D02*
X69900000Y-97300000D01*
X69900000Y-97300000D02*
X69900000Y-100100000D01*
X69900000Y-100100000D02*
X69900000Y-100450000D01*
X69900000Y-100450000D02*
X70550000Y-101100000D01*
X70550000Y-101100000D02*
X73250000Y-101100000D01*
X73250000Y-101100000D02*
X74700000Y-102550000D01*
X73900000Y-96450000D02*
X69900000Y-96450000D01*
X74700000Y-97250000D02*
X73900000Y-96450000D01*
X74700000Y-97450000D02*
X74700000Y-97250000D01*
X74700000Y-102550000D02*
X74700000Y-102550000D01*
X74700000Y-102550000D02*
X75500000Y-103350000D01*
X75500000Y-103350000D02*
X78650000Y-103350000D01*
X75950000Y-98700000D02*
X74700000Y-97450000D01*
X78650000Y-103350000D02*
X79500000Y-102500000D01*
X78850000Y-98700000D02*
X75950000Y-98700000D01*
X79500000Y-99350000D02*
X78850000Y-98700000D01*
X79500000Y-99350000D02*
X79500000Y-99350000D01*
X79500000Y-102500000D02*
X79500000Y-99350000D01*
D15*
X72930000Y-98800000D02*
G75*
G02*
X71470000Y-98800000I-730000J0D01*
G01*
X71470000Y-98800000D02*
G75*
G02*
X72930000Y-98800000I730000J0D01*
G01*
X77930000Y-101000000D02*
G75*
G02*
X76470000Y-101000000I-730000J0D01*
G01*
X76470000Y-101000000D02*
G75*
G02*
X77930000Y-101000000I730000J0D01*
G01*
%TO.C,SW3*%
D14*
X51200000Y-38550000D02*
X51200000Y-39400000D01*
X51200000Y-39400000D02*
X51200000Y-39400000D01*
X51200000Y-39400000D02*
X51200000Y-42200000D01*
X51200000Y-42200000D02*
X51200000Y-42550000D01*
X51200000Y-42550000D02*
X51850000Y-43200000D01*
X51850000Y-43200000D02*
X54550000Y-43200000D01*
X54550000Y-43200000D02*
X56000000Y-44650000D01*
X55200000Y-38550000D02*
X51200000Y-38550000D01*
X56000000Y-39350000D02*
X55200000Y-38550000D01*
X56000000Y-39550000D02*
X56000000Y-39350000D01*
X56000000Y-44650000D02*
X56000000Y-44650000D01*
X56000000Y-44650000D02*
X56800000Y-45450000D01*
X56800000Y-45450000D02*
X59950000Y-45450000D01*
X57250000Y-40800000D02*
X56000000Y-39550000D01*
X59950000Y-45450000D02*
X60800000Y-44600000D01*
X60150000Y-40800000D02*
X57250000Y-40800000D01*
X60800000Y-41450000D02*
X60150000Y-40800000D01*
X60800000Y-41450000D02*
X60800000Y-41450000D01*
X60800000Y-44600000D02*
X60800000Y-41450000D01*
D15*
X54230000Y-40900000D02*
G75*
G02*
X52770000Y-40900000I-730000J0D01*
G01*
X52770000Y-40900000D02*
G75*
G02*
X54230000Y-40900000I730000J0D01*
G01*
X59230000Y-43100000D02*
G75*
G02*
X57770000Y-43100000I-730000J0D01*
G01*
X57770000Y-43100000D02*
G75*
G02*
X59230000Y-43100000I730000J0D01*
G01*
%TO.C,SW17*%
D14*
X32500000Y-96450000D02*
X32500000Y-97300000D01*
X32500000Y-97300000D02*
X32500000Y-97300000D01*
X32500000Y-97300000D02*
X32500000Y-100100000D01*
X32500000Y-100100000D02*
X32500000Y-100450000D01*
X32500000Y-100450000D02*
X33150000Y-101100000D01*
X33150000Y-101100000D02*
X35850000Y-101100000D01*
X35850000Y-101100000D02*
X37300000Y-102550000D01*
X36500000Y-96450000D02*
X32500000Y-96450000D01*
X37300000Y-97250000D02*
X36500000Y-96450000D01*
X37300000Y-97450000D02*
X37300000Y-97250000D01*
X37300000Y-102550000D02*
X37300000Y-102550000D01*
X37300000Y-102550000D02*
X38100000Y-103350000D01*
X38100000Y-103350000D02*
X41250000Y-103350000D01*
X38550000Y-98700000D02*
X37300000Y-97450000D01*
X41250000Y-103350000D02*
X42100000Y-102500000D01*
X41450000Y-98700000D02*
X38550000Y-98700000D01*
X42100000Y-99350000D02*
X41450000Y-98700000D01*
X42100000Y-99350000D02*
X42100000Y-99350000D01*
X42100000Y-102500000D02*
X42100000Y-99350000D01*
D15*
X35530000Y-98800000D02*
G75*
G02*
X34070000Y-98800000I-730000J0D01*
G01*
X34070000Y-98800000D02*
G75*
G02*
X35530000Y-98800000I730000J0D01*
G01*
X40530000Y-101000000D02*
G75*
G02*
X39070000Y-101000000I-730000J0D01*
G01*
X39070000Y-101000000D02*
G75*
G02*
X40530000Y-101000000I730000J0D01*
G01*
%TO.C,SW11*%
D14*
X13800000Y-77150000D02*
X13800000Y-78000000D01*
X13800000Y-78000000D02*
X13800000Y-78000000D01*
X13800000Y-78000000D02*
X13800000Y-80800000D01*
X13800000Y-80800000D02*
X13800000Y-81150000D01*
X13800000Y-81150000D02*
X14450000Y-81800000D01*
X14450000Y-81800000D02*
X17150000Y-81800000D01*
X17150000Y-81800000D02*
X18600000Y-83250000D01*
X17800000Y-77150000D02*
X13800000Y-77150000D01*
X18600000Y-77950000D02*
X17800000Y-77150000D01*
X18600000Y-78150000D02*
X18600000Y-77950000D01*
X18600000Y-83250000D02*
X18600000Y-83250000D01*
X18600000Y-83250000D02*
X19400000Y-84050000D01*
X19400000Y-84050000D02*
X22550000Y-84050000D01*
X19850000Y-79400000D02*
X18600000Y-78150000D01*
X22550000Y-84050000D02*
X23400000Y-83200000D01*
X22750000Y-79400000D02*
X19850000Y-79400000D01*
X23400000Y-80050000D02*
X22750000Y-79400000D01*
X23400000Y-80050000D02*
X23400000Y-80050000D01*
X23400000Y-83200000D02*
X23400000Y-80050000D01*
D15*
X16830000Y-79500000D02*
G75*
G02*
X15370000Y-79500000I-730000J0D01*
G01*
X15370000Y-79500000D02*
G75*
G02*
X16830000Y-79500000I730000J0D01*
G01*
X21830000Y-81700000D02*
G75*
G02*
X20370000Y-81700000I-730000J0D01*
G01*
X20370000Y-81700000D02*
G75*
G02*
X21830000Y-81700000I730000J0D01*
G01*
%TO.C,SW12*%
D14*
X32500000Y-77150000D02*
X32500000Y-78000000D01*
X32500000Y-78000000D02*
X32500000Y-78000000D01*
X32500000Y-78000000D02*
X32500000Y-80800000D01*
X32500000Y-80800000D02*
X32500000Y-81150000D01*
X32500000Y-81150000D02*
X33150000Y-81800000D01*
X33150000Y-81800000D02*
X35850000Y-81800000D01*
X35850000Y-81800000D02*
X37300000Y-83250000D01*
X36500000Y-77150000D02*
X32500000Y-77150000D01*
X37300000Y-77950000D02*
X36500000Y-77150000D01*
X37300000Y-78150000D02*
X37300000Y-77950000D01*
X37300000Y-83250000D02*
X37300000Y-83250000D01*
X37300000Y-83250000D02*
X38100000Y-84050000D01*
X38100000Y-84050000D02*
X41250000Y-84050000D01*
X38550000Y-79400000D02*
X37300000Y-78150000D01*
X41250000Y-84050000D02*
X42100000Y-83200000D01*
X41450000Y-79400000D02*
X38550000Y-79400000D01*
X42100000Y-80050000D02*
X41450000Y-79400000D01*
X42100000Y-80050000D02*
X42100000Y-80050000D01*
X42100000Y-83200000D02*
X42100000Y-80050000D01*
D15*
X35530000Y-79500000D02*
G75*
G02*
X34070000Y-79500000I-730000J0D01*
G01*
X34070000Y-79500000D02*
G75*
G02*
X35530000Y-79500000I730000J0D01*
G01*
X40530000Y-81700000D02*
G75*
G02*
X39070000Y-81700000I-730000J0D01*
G01*
X39070000Y-81700000D02*
G75*
G02*
X40530000Y-81700000I730000J0D01*
G01*
%TO.C,U2*%
D13*
X25600000Y-33980000D02*
G75*
G02*
X25200000Y-33980000I-200000J0D01*
G01*
X25200000Y-33980000D02*
G75*
G02*
X25600000Y-33980000I200000J0D01*
G01*
%TO.C,SW20*%
D14*
X88600000Y-96450000D02*
X88600000Y-97300000D01*
X88600000Y-97300000D02*
X88600000Y-97300000D01*
X88600000Y-97300000D02*
X88600000Y-100100000D01*
X88600000Y-100100000D02*
X88600000Y-100450000D01*
X88600000Y-100450000D02*
X89250000Y-101100000D01*
X89250000Y-101100000D02*
X91950000Y-101100000D01*
X91950000Y-101100000D02*
X93400000Y-102550000D01*
X92600000Y-96450000D02*
X88600000Y-96450000D01*
X93400000Y-97250000D02*
X92600000Y-96450000D01*
X93400000Y-97450000D02*
X93400000Y-97250000D01*
X93400000Y-102550000D02*
X93400000Y-102550000D01*
X93400000Y-102550000D02*
X94200000Y-103350000D01*
X94200000Y-103350000D02*
X97350000Y-103350000D01*
X94650000Y-98700000D02*
X93400000Y-97450000D01*
X97350000Y-103350000D02*
X98200000Y-102500000D01*
X97550000Y-98700000D02*
X94650000Y-98700000D01*
X98200000Y-99350000D02*
X97550000Y-98700000D01*
X98200000Y-99350000D02*
X98200000Y-99350000D01*
X98200000Y-102500000D02*
X98200000Y-99350000D01*
D15*
X91630000Y-98800000D02*
G75*
G02*
X90170000Y-98800000I-730000J0D01*
G01*
X90170000Y-98800000D02*
G75*
G02*
X91630000Y-98800000I730000J0D01*
G01*
X96630000Y-101000000D02*
G75*
G02*
X95170000Y-101000000I-730000J0D01*
G01*
X95170000Y-101000000D02*
G75*
G02*
X96630000Y-101000000I730000J0D01*
G01*
%TO.C,SW7*%
D14*
X32500000Y-57850000D02*
X32500000Y-58700000D01*
X32500000Y-58700000D02*
X32500000Y-58700000D01*
X32500000Y-58700000D02*
X32500000Y-61500000D01*
X32500000Y-61500000D02*
X32500000Y-61850000D01*
X32500000Y-61850000D02*
X33150000Y-62500000D01*
X33150000Y-62500000D02*
X35850000Y-62500000D01*
X35850000Y-62500000D02*
X37300000Y-63950000D01*
X36500000Y-57850000D02*
X32500000Y-57850000D01*
X37300000Y-58650000D02*
X36500000Y-57850000D01*
X37300000Y-58850000D02*
X37300000Y-58650000D01*
X37300000Y-63950000D02*
X37300000Y-63950000D01*
X37300000Y-63950000D02*
X38100000Y-64750000D01*
X38100000Y-64750000D02*
X41250000Y-64750000D01*
X38550000Y-60100000D02*
X37300000Y-58850000D01*
X41250000Y-64750000D02*
X42100000Y-63900000D01*
X41450000Y-60100000D02*
X38550000Y-60100000D01*
X42100000Y-60750000D02*
X41450000Y-60100000D01*
X42100000Y-60750000D02*
X42100000Y-60750000D01*
X42100000Y-63900000D02*
X42100000Y-60750000D01*
D15*
X35530000Y-60200000D02*
G75*
G02*
X34070000Y-60200000I-730000J0D01*
G01*
X34070000Y-60200000D02*
G75*
G02*
X35530000Y-60200000I730000J0D01*
G01*
X40530000Y-62400000D02*
G75*
G02*
X39070000Y-62400000I-730000J0D01*
G01*
X39070000Y-62400000D02*
G75*
G02*
X40530000Y-62400000I730000J0D01*
G01*
%TO.C,SW15*%
D14*
X88600000Y-77150000D02*
X88600000Y-78000000D01*
X88600000Y-78000000D02*
X88600000Y-78000000D01*
X88600000Y-78000000D02*
X88600000Y-80800000D01*
X88600000Y-80800000D02*
X88600000Y-81150000D01*
X88600000Y-81150000D02*
X89250000Y-81800000D01*
X89250000Y-81800000D02*
X91950000Y-81800000D01*
X91950000Y-81800000D02*
X93400000Y-83250000D01*
X92600000Y-77150000D02*
X88600000Y-77150000D01*
X93400000Y-77950000D02*
X92600000Y-77150000D01*
X93400000Y-78150000D02*
X93400000Y-77950000D01*
X93400000Y-83250000D02*
X93400000Y-83250000D01*
X93400000Y-83250000D02*
X94200000Y-84050000D01*
X94200000Y-84050000D02*
X97350000Y-84050000D01*
X94650000Y-79400000D02*
X93400000Y-78150000D01*
X97350000Y-84050000D02*
X98200000Y-83200000D01*
X97550000Y-79400000D02*
X94650000Y-79400000D01*
X98200000Y-80050000D02*
X97550000Y-79400000D01*
X98200000Y-80050000D02*
X98200000Y-80050000D01*
X98200000Y-83200000D02*
X98200000Y-80050000D01*
D15*
X91630000Y-79500000D02*
G75*
G02*
X90170000Y-79500000I-730000J0D01*
G01*
X90170000Y-79500000D02*
G75*
G02*
X91630000Y-79500000I730000J0D01*
G01*
X96630000Y-81700000D02*
G75*
G02*
X95170000Y-81700000I-730000J0D01*
G01*
X95170000Y-81700000D02*
G75*
G02*
X96630000Y-81700000I730000J0D01*
G01*
%TO.C,SW2*%
D14*
X32500000Y-38550000D02*
X32500000Y-39400000D01*
X32500000Y-39400000D02*
X32500000Y-39400000D01*
X32500000Y-39400000D02*
X32500000Y-42200000D01*
X32500000Y-42200000D02*
X32500000Y-42550000D01*
X32500000Y-42550000D02*
X33150000Y-43200000D01*
X33150000Y-43200000D02*
X35850000Y-43200000D01*
X35850000Y-43200000D02*
X37300000Y-44650000D01*
X36500000Y-38550000D02*
X32500000Y-38550000D01*
X37300000Y-39350000D02*
X36500000Y-38550000D01*
X37300000Y-39550000D02*
X37300000Y-39350000D01*
X37300000Y-44650000D02*
X37300000Y-44650000D01*
X37300000Y-44650000D02*
X38100000Y-45450000D01*
X38100000Y-45450000D02*
X41250000Y-45450000D01*
X38550000Y-40800000D02*
X37300000Y-39550000D01*
X41250000Y-45450000D02*
X42100000Y-44600000D01*
X41450000Y-40800000D02*
X38550000Y-40800000D01*
X42100000Y-41450000D02*
X41450000Y-40800000D01*
X42100000Y-41450000D02*
X42100000Y-41450000D01*
X42100000Y-44600000D02*
X42100000Y-41450000D01*
D15*
X35530000Y-40900000D02*
G75*
G02*
X34070000Y-40900000I-730000J0D01*
G01*
X34070000Y-40900000D02*
G75*
G02*
X35530000Y-40900000I730000J0D01*
G01*
X40530000Y-43100000D02*
G75*
G02*
X39070000Y-43100000I-730000J0D01*
G01*
X39070000Y-43100000D02*
G75*
G02*
X40530000Y-43100000I730000J0D01*
G01*
%TD*%
M02*
