%TF.GenerationSoftware,KiCad,Pcbnew,10.0.3*%
%TF.CreationDate,2026-08-12T09:13:07-04:00*%
%TF.ProjectId,AgentDeckV2,4167656e-7444-4656-936b-56322e6b6963,rev?*%
%TF.SameCoordinates,Original*%
%TF.FileFunction,Paste,Bot*%
%TF.FilePolarity,Positive*%
%FSLAX46Y46*%
G04 Gerber Fmt 4.6, Leading zero omitted, Abs format (unit mm)*
G04 Created by KiCad (PCBNEW 10.0.3) date 2026-08-12 09:13:07*
%MOMM*%
%LPD*%
G01*
G04 APERTURE LIST*
G04 Aperture macros list*
%AMRoundRect*
0 Rectangle with rounded corners*
0 $1 Rounding radius*
0 $2 $3 $4 $5 $6 $7 $8 $9 X,Y pos of 4 corners*
0 Add a 4 corners polygon primitive as box body*
4,1,4,$2,$3,$4,$5,$6,$7,$8,$9,$2,$3,0*
0 Add four circle primitives for the rounded corners*
1,1,$1+$1,$2,$3*
1,1,$1+$1,$4,$5*
1,1,$1+$1,$6,$7*
1,1,$1+$1,$8,$9*
0 Add four rect primitives between the rounded corners*
20,1,$1+$1,$2,$3,$4,$5,0*
20,1,$1+$1,$4,$5,$6,$7,0*
20,1,$1+$1,$6,$7,$8,$9,0*
20,1,$1+$1,$8,$9,$2,$3,0*%
G04 Aperture macros list end*
%ADD10R,2.600000X2.600000*%
%ADD11RoundRect,0.225000X0.250000X-0.225000X0.250000X0.225000X-0.250000X0.225000X-0.250000X-0.225000X0*%
%ADD12RoundRect,0.225000X-0.225000X-0.375000X0.225000X-0.375000X0.225000X0.375000X-0.225000X0.375000X0*%
%ADD13R,1.700000X0.800000*%
%ADD14RoundRect,0.200000X-0.200000X-0.275000X0.200000X-0.275000X0.200000X0.275000X-0.200000X0.275000X0*%
%ADD15R,1.100000X0.600000*%
G04 APERTURE END LIST*
D10*
%TO.C,SW16*%
X12830000Y-98800000D03*
X24370000Y-101000000D03*
%TD*%
D11*
%TO.C,C18*%
X70100000Y-66875000D03*
X70100000Y-65325000D03*
%TD*%
D12*
%TO.C,D3*%
X49350000Y-36000000D03*
X52650000Y-36000000D03*
%TD*%
%TO.C,D2*%
X30650000Y-36000000D03*
X33950000Y-36000000D03*
%TD*%
D11*
%TO.C,C17*%
X88800000Y-66875000D03*
X88800000Y-65325000D03*
%TD*%
D10*
%TO.C,SW1*%
X12830000Y-40900000D03*
X24370000Y-43100000D03*
%TD*%
D11*
%TO.C,C26*%
X88800000Y-86175000D03*
X88800000Y-84625000D03*
%TD*%
D10*
%TO.C,SW18*%
X50230000Y-98800000D03*
X61770000Y-101000000D03*
%TD*%
D12*
%TO.C,D5*%
X86750000Y-36000000D03*
X90050000Y-36000000D03*
%TD*%
D13*
%TO.C,LED8*%
X58700000Y-66830000D03*
X58700000Y-65370000D03*
X53300000Y-65370000D03*
X53300000Y-66830000D03*
%TD*%
D10*
%TO.C,SW14*%
X68930000Y-79500000D03*
X80470000Y-81700000D03*
%TD*%
D12*
%TO.C,D9*%
X68050000Y-55300000D03*
X71350000Y-55300000D03*
%TD*%
%TO.C,D23*%
X88350000Y-22000000D03*
X91650000Y-22000000D03*
%TD*%
D13*
%TO.C,LED12*%
X34600000Y-84670000D03*
X34600000Y-86130000D03*
X40000000Y-86130000D03*
X40000000Y-84670000D03*
%TD*%
D12*
%TO.C,D25*%
X85850000Y-25000000D03*
X89150000Y-25000000D03*
%TD*%
D10*
%TO.C,SW4*%
X68930000Y-40900000D03*
X80470000Y-43100000D03*
%TD*%
D13*
%TO.C,LED11*%
X15900000Y-84670000D03*
X15900000Y-86130000D03*
X21300000Y-86130000D03*
X21300000Y-84670000D03*
%TD*%
%TO.C,LED20*%
X21300000Y-105430000D03*
X21300000Y-103970000D03*
X15900000Y-103970000D03*
X15900000Y-105430000D03*
%TD*%
D11*
%TO.C,C30*%
X32700000Y-105475000D03*
X32700000Y-103925000D03*
%TD*%
D10*
%TO.C,SW9*%
X68930000Y-60200000D03*
X80470000Y-62400000D03*
%TD*%
D13*
%TO.C,LED18*%
X58700000Y-105430000D03*
X58700000Y-103970000D03*
X53300000Y-103970000D03*
X53300000Y-105430000D03*
%TD*%
D11*
%TO.C,C9*%
X19500000Y-38275000D03*
X19500000Y-36725000D03*
%TD*%
%TO.C,C14*%
X51400000Y-47575000D03*
X51400000Y-46025000D03*
%TD*%
%TO.C,C20*%
X32700000Y-66875000D03*
X32700000Y-65325000D03*
%TD*%
D12*
%TO.C,D7*%
X30650000Y-55300000D03*
X33950000Y-55300000D03*
%TD*%
D10*
%TO.C,SW8*%
X50230000Y-60200000D03*
X61770000Y-62400000D03*
%TD*%
D11*
%TO.C,C28*%
X70100000Y-105475000D03*
X70100000Y-103925000D03*
%TD*%
D14*
%TO.C,R11*%
X27175000Y-33000000D03*
X28825000Y-33000000D03*
%TD*%
D12*
%TO.C,D16*%
X11950000Y-93900000D03*
X15250000Y-93900000D03*
%TD*%
D11*
%TO.C,C13*%
X32700000Y-47575000D03*
X32700000Y-46025000D03*
%TD*%
D12*
%TO.C,D10*%
X86750000Y-55300000D03*
X90050000Y-55300000D03*
%TD*%
D13*
%TO.C,LED16*%
X96100000Y-105430000D03*
X96100000Y-103970000D03*
X90700000Y-103970000D03*
X90700000Y-105430000D03*
%TD*%
D10*
%TO.C,SW13*%
X50230000Y-79500000D03*
X61770000Y-81700000D03*
%TD*%
D13*
%TO.C,LED4*%
X72000000Y-46070000D03*
X72000000Y-47530000D03*
X77400000Y-47530000D03*
X77400000Y-46070000D03*
%TD*%
D12*
%TO.C,D1*%
X11950000Y-36000000D03*
X15250000Y-36000000D03*
%TD*%
D11*
%TO.C,C25*%
X70100000Y-86175000D03*
X70100000Y-84625000D03*
%TD*%
D12*
%TO.C,D4*%
X68050000Y-36000000D03*
X71350000Y-36000000D03*
%TD*%
D10*
%TO.C,SW6*%
X12830000Y-60200000D03*
X24370000Y-62400000D03*
%TD*%
D12*
%TO.C,D24*%
X80850000Y-25000000D03*
X84150000Y-25000000D03*
%TD*%
D11*
%TO.C,C15*%
X70100000Y-47575000D03*
X70100000Y-46025000D03*
%TD*%
D13*
%TO.C,LED17*%
X77400000Y-105430000D03*
X77400000Y-103970000D03*
X72000000Y-103970000D03*
X72000000Y-105430000D03*
%TD*%
%TO.C,LED1*%
X15900000Y-46070000D03*
X15900000Y-47530000D03*
X21300000Y-47530000D03*
X21300000Y-46070000D03*
%TD*%
%TO.C,LED13*%
X53300000Y-84670000D03*
X53300000Y-86130000D03*
X58700000Y-86130000D03*
X58700000Y-84670000D03*
%TD*%
D11*
%TO.C,C24*%
X51400000Y-86175000D03*
X51400000Y-84625000D03*
%TD*%
D10*
%TO.C,SW5*%
X87630000Y-40900000D03*
X99170000Y-43100000D03*
%TD*%
%TO.C,SW10*%
X87630000Y-60200000D03*
X99170000Y-62400000D03*
%TD*%
D11*
%TO.C,C19*%
X51400000Y-66875000D03*
X51400000Y-65325000D03*
%TD*%
D10*
%TO.C,SW19*%
X68930000Y-98800000D03*
X80470000Y-101000000D03*
%TD*%
D11*
%TO.C,C22*%
X14000000Y-86175000D03*
X14000000Y-84625000D03*
%TD*%
%TO.C,C31*%
X14000000Y-105475000D03*
X14000000Y-103925000D03*
%TD*%
D10*
%TO.C,SW3*%
X50230000Y-40900000D03*
X61770000Y-43100000D03*
%TD*%
D11*
%TO.C,C29*%
X51400000Y-105475000D03*
X51400000Y-103925000D03*
%TD*%
D12*
%TO.C,D14*%
X68050000Y-74600000D03*
X71350000Y-74600000D03*
%TD*%
D13*
%TO.C,LED10*%
X21300000Y-66830000D03*
X21300000Y-65370000D03*
X15900000Y-65370000D03*
X15900000Y-66830000D03*
%TD*%
D10*
%TO.C,SW17*%
X31530000Y-98800000D03*
X43070000Y-101000000D03*
%TD*%
D13*
%TO.C,LED7*%
X77400000Y-66830000D03*
X77400000Y-65370000D03*
X72000000Y-65370000D03*
X72000000Y-66830000D03*
%TD*%
D12*
%TO.C,D21*%
X78350000Y-22000000D03*
X81650000Y-22000000D03*
%TD*%
%TO.C,D8*%
X49350000Y-55300000D03*
X52650000Y-55300000D03*
%TD*%
%TO.C,D6*%
X11950000Y-55300000D03*
X15250000Y-55300000D03*
%TD*%
%TO.C,D20*%
X86750000Y-93900000D03*
X90050000Y-93900000D03*
%TD*%
D10*
%TO.C,SW11*%
X12830000Y-79500000D03*
X24370000Y-81700000D03*
%TD*%
D12*
%TO.C,D19*%
X68050000Y-93900000D03*
X71350000Y-93900000D03*
%TD*%
D10*
%TO.C,SW12*%
X31530000Y-79500000D03*
X43070000Y-81700000D03*
%TD*%
D12*
%TO.C,D17*%
X30650000Y-93900000D03*
X33950000Y-93900000D03*
%TD*%
%TO.C,D11*%
X11950000Y-74600000D03*
X15250000Y-74600000D03*
%TD*%
D11*
%TO.C,C27*%
X88800000Y-105475000D03*
X88800000Y-103925000D03*
%TD*%
D12*
%TO.C,D12*%
X30650000Y-74600000D03*
X33950000Y-74600000D03*
%TD*%
D13*
%TO.C,LED5*%
X90700000Y-46070000D03*
X90700000Y-47530000D03*
X96100000Y-47530000D03*
X96100000Y-46070000D03*
%TD*%
%TO.C,LED3*%
X53300000Y-46070000D03*
X53300000Y-47530000D03*
X58700000Y-47530000D03*
X58700000Y-46070000D03*
%TD*%
%TO.C,LED2*%
X34600000Y-46070000D03*
X34600000Y-47530000D03*
X40000000Y-47530000D03*
X40000000Y-46070000D03*
%TD*%
D12*
%TO.C,D22*%
X83350000Y-22000000D03*
X86650000Y-22000000D03*
%TD*%
D13*
%TO.C,LED9*%
X40000000Y-66830000D03*
X40000000Y-65370000D03*
X34600000Y-65370000D03*
X34600000Y-66830000D03*
%TD*%
%TO.C,LED14*%
X72000000Y-84670000D03*
X72000000Y-86130000D03*
X77400000Y-86130000D03*
X77400000Y-84670000D03*
%TD*%
D11*
%TO.C,C16*%
X88800000Y-47575000D03*
X88800000Y-46025000D03*
%TD*%
D13*
%TO.C,LED6*%
X96100000Y-66830000D03*
X96100000Y-65370000D03*
X90700000Y-65370000D03*
X90700000Y-66830000D03*
%TD*%
D11*
%TO.C,C23*%
X32700000Y-86175000D03*
X32700000Y-84625000D03*
%TD*%
D15*
%TO.C,U2*%
X25300000Y-34050000D03*
X25300000Y-35000000D03*
X25300000Y-35950000D03*
X22700000Y-35950000D03*
X22700000Y-34050000D03*
%TD*%
D10*
%TO.C,SW20*%
X87630000Y-98800000D03*
X99170000Y-101000000D03*
%TD*%
%TO.C,SW7*%
X31530000Y-60200000D03*
X43070000Y-62400000D03*
%TD*%
%TO.C,SW15*%
X87630000Y-79500000D03*
X99170000Y-81700000D03*
%TD*%
D12*
%TO.C,D18*%
X49350000Y-93900000D03*
X52650000Y-93900000D03*
%TD*%
D10*
%TO.C,SW2*%
X31530000Y-40900000D03*
X43070000Y-43100000D03*
%TD*%
D13*
%TO.C,LED19*%
X40000000Y-105430000D03*
X40000000Y-103970000D03*
X34600000Y-103970000D03*
X34600000Y-105430000D03*
%TD*%
D11*
%TO.C,C12*%
X14000000Y-47575000D03*
X14000000Y-46025000D03*
%TD*%
D13*
%TO.C,LED15*%
X90700000Y-84670000D03*
X90700000Y-86130000D03*
X96100000Y-86130000D03*
X96100000Y-84670000D03*
%TD*%
D12*
%TO.C,D13*%
X49350000Y-74600000D03*
X52650000Y-74600000D03*
%TD*%
D11*
%TO.C,C21*%
X14000000Y-66875000D03*
X14000000Y-65325000D03*
%TD*%
D12*
%TO.C,D15*%
X86750000Y-74600000D03*
X90050000Y-74600000D03*
%TD*%
M02*
