%TF.GenerationSoftware,KiCad,Pcbnew,10.0.3*%
%TF.CreationDate,2026-08-12T09:13:07-04:00*%
%TF.ProjectId,AgentDeckV2,4167656e-7444-4656-936b-56322e6b6963,rev?*%
%TF.SameCoordinates,Original*%
%TF.FileFunction,Other,User*%
%FSLAX46Y46*%
G04 Gerber Fmt 4.6, Leading zero omitted, Abs format (unit mm)*
G04 Created by KiCad (PCBNEW 10.0.3) date 2026-08-12 09:13:07*
%MOMM*%
%LPD*%
G01*
G04 APERTURE LIST*
%ADD10C,0.050000*%
G04 APERTURE END LIST*
%TO.C,C18*%
D10*
X69370000Y-64620000D02*
X70830000Y-64620000D01*
X70830000Y-67580000D01*
X69370000Y-67580000D01*
X69370000Y-64620000D01*
%TO.C,D3*%
X48650000Y-37150000D02*
X48650000Y-34850000D01*
X48650000Y-37150000D02*
X53350000Y-37150000D01*
X53350000Y-34850000D02*
X48650000Y-34850000D01*
X53350000Y-37150000D02*
X53350000Y-34850000D01*
%TO.C,D2*%
X29950000Y-37150000D02*
X29950000Y-34850000D01*
X29950000Y-37150000D02*
X34650000Y-37150000D01*
X34650000Y-34850000D02*
X29950000Y-34850000D01*
X34650000Y-37150000D02*
X34650000Y-34850000D01*
%TO.C,C17*%
X88070000Y-64620000D02*
X89530000Y-64620000D01*
X89530000Y-67580000D01*
X88070000Y-67580000D01*
X88070000Y-64620000D01*
%TO.C,C26*%
X88070000Y-83920000D02*
X89530000Y-83920000D01*
X89530000Y-86880000D01*
X88070000Y-86880000D01*
X88070000Y-83920000D01*
%TO.C,D5*%
X86050000Y-37150000D02*
X86050000Y-34850000D01*
X86050000Y-37150000D02*
X90750000Y-37150000D01*
X90750000Y-34850000D02*
X86050000Y-34850000D01*
X90750000Y-37150000D02*
X90750000Y-34850000D01*
%TO.C,LED8*%
X54400000Y-64700000D02*
X54400000Y-67500000D01*
X54400000Y-67500000D02*
X57600000Y-67500000D01*
X57600000Y-64700000D02*
X54400000Y-64700000D01*
X57600000Y-67500000D02*
X57600000Y-64700000D01*
%TO.C,D9*%
X67350000Y-56450000D02*
X67350000Y-54150000D01*
X67350000Y-56450000D02*
X72050000Y-56450000D01*
X72050000Y-54150000D02*
X67350000Y-54150000D01*
X72050000Y-56450000D02*
X72050000Y-54150000D01*
%TO.C,D23*%
X87650000Y-23150000D02*
X87650000Y-20850000D01*
X87650000Y-23150000D02*
X92350000Y-23150000D01*
X92350000Y-20850000D02*
X87650000Y-20850000D01*
X92350000Y-23150000D02*
X92350000Y-20850000D01*
%TO.C,LED12*%
X35700000Y-84000000D02*
X35700000Y-86800000D01*
X35700000Y-86800000D02*
X38900000Y-86800000D01*
X38900000Y-84000000D02*
X35700000Y-84000000D01*
X38900000Y-86800000D02*
X38900000Y-84000000D01*
%TO.C,D25*%
X85150000Y-26150000D02*
X85150000Y-23850000D01*
X85150000Y-26150000D02*
X89850000Y-26150000D01*
X89850000Y-23850000D02*
X85150000Y-23850000D01*
X89850000Y-26150000D02*
X89850000Y-23850000D01*
%TO.C,LED11*%
X17000000Y-84000000D02*
X17000000Y-86800000D01*
X17000000Y-86800000D02*
X20200000Y-86800000D01*
X20200000Y-84000000D02*
X17000000Y-84000000D01*
X20200000Y-86800000D02*
X20200000Y-84000000D01*
%TO.C,LED20*%
X17000000Y-103300000D02*
X17000000Y-106100000D01*
X17000000Y-106100000D02*
X20200000Y-106100000D01*
X20200000Y-103300000D02*
X17000000Y-103300000D01*
X20200000Y-106100000D02*
X20200000Y-103300000D01*
%TO.C,C30*%
X31970000Y-103220000D02*
X33430000Y-103220000D01*
X33430000Y-106180000D01*
X31970000Y-106180000D01*
X31970000Y-103220000D01*
%TO.C,LED18*%
X54400000Y-103300000D02*
X54400000Y-106100000D01*
X54400000Y-106100000D02*
X57600000Y-106100000D01*
X57600000Y-103300000D02*
X54400000Y-103300000D01*
X57600000Y-106100000D02*
X57600000Y-103300000D01*
%TO.C,C9*%
X18770000Y-36020000D02*
X20230000Y-36020000D01*
X20230000Y-38980000D01*
X18770000Y-38980000D01*
X18770000Y-36020000D01*
%TO.C,C14*%
X50670000Y-45320000D02*
X52130000Y-45320000D01*
X52130000Y-48280000D01*
X50670000Y-48280000D01*
X50670000Y-45320000D01*
%TO.C,C20*%
X31970000Y-64620000D02*
X33430000Y-64620000D01*
X33430000Y-67580000D01*
X31970000Y-67580000D01*
X31970000Y-64620000D01*
%TO.C,D7*%
X29950000Y-56450000D02*
X29950000Y-54150000D01*
X29950000Y-56450000D02*
X34650000Y-56450000D01*
X34650000Y-54150000D02*
X29950000Y-54150000D01*
X34650000Y-56450000D02*
X34650000Y-54150000D01*
%TO.C,C28*%
X69370000Y-103220000D02*
X70830000Y-103220000D01*
X70830000Y-106180000D01*
X69370000Y-106180000D01*
X69370000Y-103220000D01*
%TO.C,R11*%
X26520000Y-32270000D02*
X29480000Y-32270000D01*
X29480000Y-33730000D01*
X26520000Y-33730000D01*
X26520000Y-32270000D01*
%TO.C,D16*%
X11250000Y-95050000D02*
X11250000Y-92750000D01*
X11250000Y-95050000D02*
X15950000Y-95050000D01*
X15950000Y-92750000D02*
X11250000Y-92750000D01*
X15950000Y-95050000D02*
X15950000Y-92750000D01*
%TO.C,C13*%
X31970000Y-45320000D02*
X33430000Y-45320000D01*
X33430000Y-48280000D01*
X31970000Y-48280000D01*
X31970000Y-45320000D01*
%TO.C,D10*%
X86050000Y-56450000D02*
X86050000Y-54150000D01*
X86050000Y-56450000D02*
X90750000Y-56450000D01*
X90750000Y-54150000D02*
X86050000Y-54150000D01*
X90750000Y-56450000D02*
X90750000Y-54150000D01*
%TO.C,LED16*%
X91800000Y-103300000D02*
X91800000Y-106100000D01*
X91800000Y-106100000D02*
X95000000Y-106100000D01*
X95000000Y-103300000D02*
X91800000Y-103300000D01*
X95000000Y-106100000D02*
X95000000Y-103300000D01*
%TO.C,LED4*%
X73100000Y-45400000D02*
X73100000Y-48200000D01*
X73100000Y-48200000D02*
X76300000Y-48200000D01*
X76300000Y-45400000D02*
X73100000Y-45400000D01*
X76300000Y-48200000D02*
X76300000Y-45400000D01*
%TO.C,D1*%
X11250000Y-37150000D02*
X11250000Y-34850000D01*
X11250000Y-37150000D02*
X15950000Y-37150000D01*
X15950000Y-34850000D02*
X11250000Y-34850000D01*
X15950000Y-37150000D02*
X15950000Y-34850000D01*
%TO.C,C25*%
X69370000Y-83920000D02*
X70830000Y-83920000D01*
X70830000Y-86880000D01*
X69370000Y-86880000D01*
X69370000Y-83920000D01*
%TO.C,D4*%
X67350000Y-37150000D02*
X67350000Y-34850000D01*
X67350000Y-37150000D02*
X72050000Y-37150000D01*
X72050000Y-34850000D02*
X67350000Y-34850000D01*
X72050000Y-37150000D02*
X72050000Y-34850000D01*
%TO.C,D24*%
X80150000Y-26150000D02*
X80150000Y-23850000D01*
X80150000Y-26150000D02*
X84850000Y-26150000D01*
X84850000Y-23850000D02*
X80150000Y-23850000D01*
X84850000Y-26150000D02*
X84850000Y-23850000D01*
%TO.C,C15*%
X69370000Y-45320000D02*
X70830000Y-45320000D01*
X70830000Y-48280000D01*
X69370000Y-48280000D01*
X69370000Y-45320000D01*
%TO.C,LED17*%
X73100000Y-103300000D02*
X73100000Y-106100000D01*
X73100000Y-106100000D02*
X76300000Y-106100000D01*
X76300000Y-103300000D02*
X73100000Y-103300000D01*
X76300000Y-106100000D02*
X76300000Y-103300000D01*
%TO.C,LED1*%
X17000000Y-45400000D02*
X17000000Y-48200000D01*
X17000000Y-48200000D02*
X20200000Y-48200000D01*
X20200000Y-45400000D02*
X17000000Y-45400000D01*
X20200000Y-48200000D02*
X20200000Y-45400000D01*
%TO.C,LED13*%
X54400000Y-84000000D02*
X54400000Y-86800000D01*
X54400000Y-86800000D02*
X57600000Y-86800000D01*
X57600000Y-84000000D02*
X54400000Y-84000000D01*
X57600000Y-86800000D02*
X57600000Y-84000000D01*
%TO.C,C24*%
X50670000Y-83920000D02*
X52130000Y-83920000D01*
X52130000Y-86880000D01*
X50670000Y-86880000D01*
X50670000Y-83920000D01*
%TO.C,C19*%
X50670000Y-64620000D02*
X52130000Y-64620000D01*
X52130000Y-67580000D01*
X50670000Y-67580000D01*
X50670000Y-64620000D01*
%TO.C,C22*%
X13270000Y-83920000D02*
X14730000Y-83920000D01*
X14730000Y-86880000D01*
X13270000Y-86880000D01*
X13270000Y-83920000D01*
%TO.C,C31*%
X13270000Y-103220000D02*
X14730000Y-103220000D01*
X14730000Y-106180000D01*
X13270000Y-106180000D01*
X13270000Y-103220000D01*
%TO.C,C29*%
X50670000Y-103220000D02*
X52130000Y-103220000D01*
X52130000Y-106180000D01*
X50670000Y-106180000D01*
X50670000Y-103220000D01*
%TO.C,D14*%
X67350000Y-75750000D02*
X67350000Y-73450000D01*
X67350000Y-75750000D02*
X72050000Y-75750000D01*
X72050000Y-73450000D02*
X67350000Y-73450000D01*
X72050000Y-75750000D02*
X72050000Y-73450000D01*
%TO.C,LED10*%
X17000000Y-64700000D02*
X17000000Y-67500000D01*
X17000000Y-67500000D02*
X20200000Y-67500000D01*
X20200000Y-64700000D02*
X17000000Y-64700000D01*
X20200000Y-67500000D02*
X20200000Y-64700000D01*
%TO.C,LED7*%
X73100000Y-64700000D02*
X73100000Y-67500000D01*
X73100000Y-67500000D02*
X76300000Y-67500000D01*
X76300000Y-64700000D02*
X73100000Y-64700000D01*
X76300000Y-67500000D02*
X76300000Y-64700000D01*
%TO.C,D21*%
X77650000Y-23150000D02*
X77650000Y-20850000D01*
X77650000Y-23150000D02*
X82350000Y-23150000D01*
X82350000Y-20850000D02*
X77650000Y-20850000D01*
X82350000Y-23150000D02*
X82350000Y-20850000D01*
%TO.C,D8*%
X48650000Y-56450000D02*
X48650000Y-54150000D01*
X48650000Y-56450000D02*
X53350000Y-56450000D01*
X53350000Y-54150000D02*
X48650000Y-54150000D01*
X53350000Y-56450000D02*
X53350000Y-54150000D01*
%TO.C,D6*%
X11250000Y-56450000D02*
X11250000Y-54150000D01*
X11250000Y-56450000D02*
X15950000Y-56450000D01*
X15950000Y-54150000D02*
X11250000Y-54150000D01*
X15950000Y-56450000D02*
X15950000Y-54150000D01*
%TO.C,D20*%
X86050000Y-95050000D02*
X86050000Y-92750000D01*
X86050000Y-95050000D02*
X90750000Y-95050000D01*
X90750000Y-92750000D02*
X86050000Y-92750000D01*
X90750000Y-95050000D02*
X90750000Y-92750000D01*
%TO.C,D19*%
X67350000Y-95050000D02*
X67350000Y-92750000D01*
X67350000Y-95050000D02*
X72050000Y-95050000D01*
X72050000Y-92750000D02*
X67350000Y-92750000D01*
X72050000Y-95050000D02*
X72050000Y-92750000D01*
%TO.C,D17*%
X29950000Y-95050000D02*
X29950000Y-92750000D01*
X29950000Y-95050000D02*
X34650000Y-95050000D01*
X34650000Y-92750000D02*
X29950000Y-92750000D01*
X34650000Y-95050000D02*
X34650000Y-92750000D01*
%TO.C,D11*%
X11250000Y-75750000D02*
X11250000Y-73450000D01*
X11250000Y-75750000D02*
X15950000Y-75750000D01*
X15950000Y-73450000D02*
X11250000Y-73450000D01*
X15950000Y-75750000D02*
X15950000Y-73450000D01*
%TO.C,C27*%
X88070000Y-103220000D02*
X89530000Y-103220000D01*
X89530000Y-106180000D01*
X88070000Y-106180000D01*
X88070000Y-103220000D01*
%TO.C,D12*%
X29950000Y-75750000D02*
X29950000Y-73450000D01*
X29950000Y-75750000D02*
X34650000Y-75750000D01*
X34650000Y-73450000D02*
X29950000Y-73450000D01*
X34650000Y-75750000D02*
X34650000Y-73450000D01*
%TO.C,LED5*%
X91800000Y-45400000D02*
X91800000Y-48200000D01*
X91800000Y-48200000D02*
X95000000Y-48200000D01*
X95000000Y-45400000D02*
X91800000Y-45400000D01*
X95000000Y-48200000D02*
X95000000Y-45400000D01*
%TO.C,LED3*%
X54400000Y-45400000D02*
X54400000Y-48200000D01*
X54400000Y-48200000D02*
X57600000Y-48200000D01*
X57600000Y-45400000D02*
X54400000Y-45400000D01*
X57600000Y-48200000D02*
X57600000Y-45400000D01*
%TO.C,LED2*%
X35700000Y-45400000D02*
X35700000Y-48200000D01*
X35700000Y-48200000D02*
X38900000Y-48200000D01*
X38900000Y-45400000D02*
X35700000Y-45400000D01*
X38900000Y-48200000D02*
X38900000Y-45400000D01*
%TO.C,D22*%
X82650000Y-23150000D02*
X82650000Y-20850000D01*
X82650000Y-23150000D02*
X87350000Y-23150000D01*
X87350000Y-20850000D02*
X82650000Y-20850000D01*
X87350000Y-23150000D02*
X87350000Y-20850000D01*
%TO.C,LED9*%
X35700000Y-64700000D02*
X35700000Y-67500000D01*
X35700000Y-67500000D02*
X38900000Y-67500000D01*
X38900000Y-64700000D02*
X35700000Y-64700000D01*
X38900000Y-67500000D02*
X38900000Y-64700000D01*
%TO.C,LED14*%
X73100000Y-84000000D02*
X73100000Y-86800000D01*
X73100000Y-86800000D02*
X76300000Y-86800000D01*
X76300000Y-84000000D02*
X73100000Y-84000000D01*
X76300000Y-86800000D02*
X76300000Y-84000000D01*
%TO.C,C16*%
X88070000Y-45320000D02*
X89530000Y-45320000D01*
X89530000Y-48280000D01*
X88070000Y-48280000D01*
X88070000Y-45320000D01*
%TO.C,LED6*%
X91800000Y-64700000D02*
X91800000Y-67500000D01*
X91800000Y-67500000D02*
X95000000Y-67500000D01*
X95000000Y-64700000D02*
X91800000Y-64700000D01*
X95000000Y-67500000D02*
X95000000Y-64700000D01*
%TO.C,C23*%
X31970000Y-83920000D02*
X33430000Y-83920000D01*
X33430000Y-86880000D01*
X31970000Y-86880000D01*
X31970000Y-83920000D01*
%TO.C,U2*%
X23200000Y-33550000D02*
X23200000Y-36450000D01*
X23200000Y-36450000D02*
X24800000Y-36450000D01*
X24800000Y-33550000D02*
X23200000Y-33550000D01*
X24800000Y-36450000D02*
X24800000Y-33550000D01*
%TO.C,D18*%
X48650000Y-95050000D02*
X48650000Y-92750000D01*
X48650000Y-95050000D02*
X53350000Y-95050000D01*
X53350000Y-92750000D02*
X48650000Y-92750000D01*
X53350000Y-95050000D02*
X53350000Y-92750000D01*
%TO.C,LED19*%
X35700000Y-103300000D02*
X35700000Y-106100000D01*
X35700000Y-106100000D02*
X38900000Y-106100000D01*
X38900000Y-103300000D02*
X35700000Y-103300000D01*
X38900000Y-106100000D02*
X38900000Y-103300000D01*
%TO.C,C12*%
X13270000Y-45320000D02*
X14730000Y-45320000D01*
X14730000Y-48280000D01*
X13270000Y-48280000D01*
X13270000Y-45320000D01*
%TO.C,LED15*%
X91800000Y-84000000D02*
X91800000Y-86800000D01*
X91800000Y-86800000D02*
X95000000Y-86800000D01*
X95000000Y-84000000D02*
X91800000Y-84000000D01*
X95000000Y-86800000D02*
X95000000Y-84000000D01*
%TO.C,D13*%
X48650000Y-75750000D02*
X48650000Y-73450000D01*
X48650000Y-75750000D02*
X53350000Y-75750000D01*
X53350000Y-73450000D02*
X48650000Y-73450000D01*
X53350000Y-75750000D02*
X53350000Y-73450000D01*
%TO.C,C21*%
X13270000Y-64620000D02*
X14730000Y-64620000D01*
X14730000Y-67580000D01*
X13270000Y-67580000D01*
X13270000Y-64620000D01*
%TO.C,D15*%
X86050000Y-75750000D02*
X86050000Y-73450000D01*
X86050000Y-75750000D02*
X90750000Y-75750000D01*
X90750000Y-73450000D02*
X86050000Y-73450000D01*
X90750000Y-75750000D02*
X90750000Y-73450000D01*
%TD*%
M02*
