%TF.GenerationSoftware,KiCad,Pcbnew,10.0.3*%
%TF.CreationDate,2026-08-12T09:13:07-04:00*%
%TF.ProjectId,AgentDeckV2,4167656e-7444-4656-936b-56322e6b6963,rev?*%
%TF.SameCoordinates,Original*%
%TF.FileFunction,Paste,Top*%
%TF.FilePolarity,Positive*%
%FSLAX46Y46*%
G04 Gerber Fmt 4.6, Leading zero omitted, Abs format (unit mm)*
G04 Created by KiCad (PCBNEW 10.0.3) date 2026-08-12 09:13:07*
%MOMM*%
%LPD*%
G01*
G04 APERTURE LIST*
G04 Aperture macros list*
%AMRoundRect*
0 Rectangle with rounded corners*
0 $1 Rounding radius*
0 $2 $3 $4 $5 $6 $7 $8 $9 X,Y pos of 4 corners*
0 Add a 4 corners polygon primitive as box body*
4,1,4,$2,$3,$4,$5,$6,$7,$8,$9,$2,$3,0*
0 Add four circle primitives for the rounded corners*
1,1,$1+$1,$2,$3*
1,1,$1+$1,$4,$5*
1,1,$1+$1,$6,$7*
1,1,$1+$1,$8,$9*
0 Add four rect primitives between the rounded corners*
20,1,$1+$1,$2,$3,$4,$5,0*
20,1,$1+$1,$4,$5,$6,$7,0*
20,1,$1+$1,$6,$7,$8,$9,0*
20,1,$1+$1,$8,$9,$2,$3,0*%
%AMFreePoly0*
4,1,17,0.335278,0.685443,0.349923,0.650088,0.349923,-0.649935,0.335278,-0.685290,0.299923,-0.699935,0.000318,-0.699935,-0.000051,-0.700088,-0.300050,-0.700088,-0.335405,-0.685443,-0.350050,-0.650088,-0.350050,0.649935,-0.335405,0.685290,-0.300050,0.699935,-0.000445,0.699935,-0.000076,0.700088,0.299923,0.700088,0.335278,0.685443,0.335278,0.685443,$1*%
%AMFreePoly1*
4,1,17,0.335431,0.685290,0.350076,0.649935,0.350076,-0.650037,0.335431,-0.685392,0.300076,-0.700037,0.000187,-0.700037,0.000127,-0.700062,-0.299898,-0.700062,-0.335253,-0.685417,-0.349898,-0.650062,-0.349898,0.649910,-0.335253,0.685265,-0.299898,0.699910,-0.000009,0.699910,0.000051,0.699935,0.300076,0.699935,0.335431,0.685290,0.335431,0.685290,$1*%
%AMFreePoly2*
4,1,13,0.335227,0.685443,0.349872,0.650088,0.349872,-0.649884,0.335227,-0.685239,0.299872,-0.699884,-0.300152,-0.699884,-0.335507,-0.685239,-0.350152,-0.649884,-0.350152,0.650088,-0.335507,0.685443,-0.300152,0.700088,0.299872,0.700088,0.335227,0.685443,0.335227,0.685443,$1*%
G04 Aperture macros list end*
%ADD10RoundRect,0.250000X-0.250000X-0.475000X0.250000X-0.475000X0.250000X0.475000X-0.250000X0.475000X0*%
%ADD11RoundRect,0.225000X-0.225000X-0.250000X0.225000X-0.250000X0.225000X0.250000X-0.225000X0.250000X0*%
%ADD12R,0.532000X1.072000*%
%ADD13R,1.500000X0.900000*%
%ADD14R,0.900000X1.500000*%
%ADD15R,0.900000X0.900000*%
%ADD16RoundRect,0.200000X-0.200000X-0.275000X0.200000X-0.275000X0.200000X0.275000X-0.200000X0.275000X0*%
%ADD17R,1.000000X0.750000*%
%ADD18FreePoly0,180.000000*%
%ADD19FreePoly1,180.000000*%
%ADD20R,0.300000X1.300000*%
%ADD21FreePoly2,180.000000*%
%ADD22R,1.100000X0.600000*%
G04 APERTURE END LIST*
D10*
%TO.C,C4*%
X24550000Y-21000000D03*
X26450000Y-21000000D03*
%TD*%
D11*
%TO.C,C3*%
X20225000Y-21000000D03*
X21775000Y-21000000D03*
%TD*%
D12*
%TO.C,U3*%
X67550000Y-6450000D03*
X68500000Y-6450000D03*
X69450000Y-6450000D03*
X69450000Y-4150000D03*
X68500000Y-4150000D03*
X67550000Y-4150000D03*
%TD*%
D13*
%TO.C,U1*%
X11250000Y-1010000D03*
X11250000Y-2280000D03*
X11250000Y-3550000D03*
X11250000Y-4820000D03*
X11250000Y-6090000D03*
X11250000Y-7360000D03*
X11250000Y-8630000D03*
X11250000Y-9900000D03*
X11250000Y-11170000D03*
X11250000Y-12440000D03*
X11250000Y-13710000D03*
X11250000Y-14980000D03*
X11250000Y-16250000D03*
X11250000Y-17520000D03*
D14*
X13010000Y-18790000D03*
X14280000Y-18790000D03*
X15550000Y-18790000D03*
X16830000Y-18790000D03*
X18100000Y-18790000D03*
X19370000Y-18790000D03*
X20640000Y-18790000D03*
X21910000Y-18790000D03*
X23180000Y-18790000D03*
X24450000Y-18790000D03*
X25720000Y-18790000D03*
X26990000Y-18760000D03*
D13*
X28750000Y-17520000D03*
X28750000Y-16250000D03*
X28750000Y-14980000D03*
X28750000Y-13710000D03*
X28750000Y-12440000D03*
X28750000Y-11170000D03*
X28750000Y-9900000D03*
X28750000Y-8630000D03*
X28750000Y-7360000D03*
X28750000Y-6090000D03*
X28750000Y-4820000D03*
X28750000Y-3550000D03*
X28750000Y-2280000D03*
X28750000Y-1010000D03*
D15*
X17100000Y-7330000D03*
X17100000Y-8730000D03*
X17100000Y-10130000D03*
X18500000Y-7330000D03*
X18500000Y-8730000D03*
X18500000Y-10130000D03*
X19900000Y-7330000D03*
X19900000Y-8730000D03*
X19900000Y-10130000D03*
%TD*%
D10*
%TO.C,C7*%
X102550000Y-15000000D03*
X104450000Y-15000000D03*
%TD*%
D16*
%TO.C,R10*%
X11675000Y-24500000D03*
X13325000Y-24500000D03*
%TD*%
D17*
%TO.C,SW26*%
X29000000Y-26150000D03*
X35000000Y-26150000D03*
X29000000Y-29850000D03*
X35000000Y-29850000D03*
%TD*%
D18*
%TO.C,J1*%
X63200000Y-6870000D03*
D19*
X62400000Y-6870000D03*
D20*
X61250000Y-6870000D03*
X60250000Y-6870000D03*
X59750000Y-6870000D03*
X58750000Y-6870000D03*
D21*
X56800000Y-6870000D03*
X57600000Y-6870000D03*
D20*
X58250000Y-6870000D03*
X59250000Y-6870000D03*
X60750000Y-6870000D03*
X61750000Y-6870000D03*
%TD*%
D16*
%TO.C,R9*%
X6675000Y-24500000D03*
X8325000Y-24500000D03*
%TD*%
%TO.C,R1*%
X48175000Y-7900000D03*
X49825000Y-7900000D03*
%TD*%
D11*
%TO.C,C1*%
X11225000Y-21000000D03*
X12775000Y-21000000D03*
%TD*%
D22*
%TO.C,U5*%
X100300000Y-10950000D03*
X100300000Y-10000000D03*
X100300000Y-9050000D03*
X97700000Y-9050000D03*
X97700000Y-10950000D03*
%TD*%
D17*
%TO.C,SW27*%
X38000000Y-26150000D03*
X44000000Y-26150000D03*
X38000000Y-29850000D03*
X44000000Y-29850000D03*
%TD*%
D10*
%TO.C,C6*%
X93050000Y-15000000D03*
X94950000Y-15000000D03*
%TD*%
D11*
%TO.C,C5*%
X16725000Y-24500000D03*
X18275000Y-24500000D03*
%TD*%
%TO.C,C2*%
X15725000Y-21000000D03*
X17275000Y-21000000D03*
%TD*%
D16*
%TO.C,R2*%
X52175000Y-7900000D03*
X53825000Y-7900000D03*
%TD*%
M02*
