M48
; DRILL file KiCad 10.0.3 date 2026-08-12T09:13:07
; FORMAT={-:-/ absolute / metric / decimal}
; #@! TF.CreationDate,2026-08-12T09:13:07-04:00
; #@! TF.GenerationSoftware,Kicad,Pcbnew,10.0.3
; #@! TF.FileFunction,MixedPlating,1,4
FMAT,2
METRIC
; #@! TA.AperFunction,Plated,PTH,ViaDrill
T1C0.200
; #@! TA.AperFunction,Plated,PTH,ViaDrill
T2C0.300
; #@! TA.AperFunction,Plated,PTH,ComponentDrill
T3C0.800
; #@! TA.AperFunction,Plated,PTH,ComponentDrill
T4C1.000
; #@! TA.AperFunction,Plated,PTH,ComponentDrill
T5C1.200
; #@! TA.AperFunction,Plated,PTH,ComponentDrill
T6C1.200
; #@! TA.AperFunction,Plated,PTH,ComponentDrill
T7C1.700
; #@! TA.AperFunction,NonPlated,NPTH,ComponentDrill
T8C0.600
; #@! TA.AperFunction,NonPlated,NPTH,ComponentDrill
T9C2.700
; #@! TA.AperFunction,NonPlated,NPTH,ComponentDrill
T10C3.000
%
G90
G05
T1
X61.76Y-15.385
T2
X4.0Y-14.0
X4.0Y-24.0
X4.0Y-34.0
X4.0Y-44.0
X4.0Y-64.0
X4.0Y-74.0
X4.0Y-84.0
X4.0Y-94.0
X5.5Y-48.73
X7.096Y-25.492
X7.096Y-52.628
X8.325Y-3.774
X8.325Y-25.483
X9.069Y-10.232
X9.069Y-45.989
X9.708Y-5.233
X9.708Y-50.118
X9.996Y-2.053
X10.79Y-34.935
X11.016Y-79.065
X11.219Y-94.828
X11.683Y-1.26
X11.95Y-54.17
X11.95Y-73.476
X12.502Y-8.632
X12.504Y-5.943
X12.504Y-10.127
X12.51Y-17.52
X12.518Y-4.604
X12.525Y-20.567
X12.531Y-16.137
X12.83Y-39.097
X12.83Y-62.026
X12.83Y-96.983
X13.52Y-7.88
X14.0Y-4.0
X14.0Y-84.625
X14.0Y-86.175
X14.0Y-94.0
X14.0Y-103.925
X14.0Y-105.475
X14.5Y-46.025
X14.5Y-47.575
X14.5Y-65.325
X14.5Y-66.875
X14.979Y-67.751
X15.25Y-37.112
X15.25Y-75.712
X15.9Y-46.07
X15.9Y-65.37
X15.9Y-84.67
X15.9Y-103.97
X15.956Y-23.731
X16.057Y-56.142
X16.077Y-94.727
X16.231Y-9.897
X16.667Y-17.534
X17.025Y-21.433
X17.1Y-7.33
X17.1Y-9.23
X17.255Y-47.446
X17.259Y-85.897
X17.678Y-17.534
X18.275Y-24.5
X18.299Y-20.103
X18.5Y-7.33
X18.5Y-8.73
X18.933Y-9.88
X19.067Y-36.475
X19.37Y-17.518
X19.5Y-38.275
X19.771Y-9.647
X19.9Y-7.33
X19.9Y-8.73
X20.64Y-17.524
X21.3Y-47.53
X21.3Y-66.83
X21.3Y-86.13
X21.3Y-105.43
X21.775Y-21.0
X21.939Y-17.534
X22.653Y-84.469
X22.662Y-106.244
X22.664Y-47.734
X22.664Y-67.739
X22.7Y-34.05
X23.27Y-56.142
X23.367Y-94.727
X23.597Y-17.538
X24.0Y-4.0
X24.0Y-14.0
X24.0Y-94.0
X24.0Y-104.0
X24.37Y-41.277
X24.37Y-75.712
X24.431Y-35.717
X24.998Y-4.326
X25.3Y-34.05
X26.45Y-21.0
X27.496Y-6.317
X28.08Y-33.745
X28.608Y-25.254
X29.183Y-1.26
X29.828Y-73.697
X30.004Y-9.9
X30.008Y-17.52
X30.278Y-37.118
X30.65Y-54.17
X30.65Y-92.746
X31.53Y-37.718
X31.53Y-58.366
X31.53Y-77.675
X31.53Y-96.974
X32.571Y-47.092
X32.7Y-46.025
X32.7Y-65.325
X32.7Y-66.875
X32.7Y-86.175
X32.7Y-103.925
X32.7Y-105.475
X32.75Y-12.75
X32.829Y-85.108
X33.135Y-36.815
X34.0Y-4.0
X34.0Y-14.0
X34.0Y-24.0
X34.0Y-34.0
X34.0Y-44.0
X34.0Y-64.0
X34.0Y-84.0
X34.6Y-46.07
X34.6Y-65.37
X34.6Y-67.739
X34.6Y-84.67
X34.6Y-103.97
X34.769Y-75.419
X34.77Y-56.12
X34.786Y-94.736
X35.0Y-29.85
X35.35Y-26.756
X35.752Y-86.944
X35.752Y-106.244
X35.956Y-47.734
X36.966Y-26.073
X39.0Y-20.25
X40.0Y-47.53
X40.0Y-66.83
X40.0Y-86.13
X40.0Y-105.43
X41.362Y-104.18
X41.364Y-65.607
X41.37Y-45.851
X41.54Y-5.75
X41.54Y-8.857
X43.07Y-36.815
X43.07Y-56.12
X43.07Y-75.419
X43.07Y-94.736
X44.0Y-4.0
X44.0Y-14.0
X44.0Y-24.0
X44.0Y-26.15
X44.0Y-29.85
X44.0Y-34.0
X44.0Y-84.0
X44.0Y-94.0
X45.25Y-12.75
X48.175Y-8.7
X48.428Y-40.983
X48.428Y-79.527
X48.62Y-16.471
X49.35Y-37.111
X49.35Y-54.175
X49.35Y-92.792
X49.593Y-58.374
X49.648Y-96.996
X49.825Y-7.9
X50.08Y-73.697
X51.046Y-64.971
X51.15Y-103.492
X51.4Y-47.575
X51.4Y-66.875
X51.4Y-84.625
X51.4Y-86.175
X51.4Y-105.475
X51.529Y-46.508
X52.65Y-37.123
X52.65Y-75.723
X53.3Y-46.07
X53.3Y-65.37
X53.3Y-84.67
X53.3Y-103.97
X53.465Y-94.715
X53.47Y-56.12
X53.825Y-7.9
X54.0Y-4.0
X54.0Y-14.0
X54.0Y-34.0
X54.0Y-44.0
X54.0Y-64.0
X54.0Y-84.0
X54.0Y-94.0
X54.452Y-48.364
X54.452Y-67.649
X54.452Y-106.243
X55.67Y-1.93
X55.67Y-6.11
X56.671Y-7.353
X57.6Y-7.9
X58.079Y-5.083
X58.7Y-47.53
X58.7Y-66.83
X58.7Y-86.13
X58.7Y-105.43
X59.827Y-106.34
X60.053Y-86.348
X60.064Y-46.307
X61.25Y-8.7
X61.77Y-37.123
X61.77Y-75.723
X62.4Y-7.9
X62.879Y-8.657
X63.017Y-94.715
X63.221Y-56.12
X63.7Y-6.87
X64.0Y-4.0
X64.0Y-34.0
X64.0Y-44.0
X64.0Y-64.0
X64.0Y-84.0
X64.0Y-94.0
X64.0Y-104.0
X64.33Y-1.93
X64.33Y-6.11
X65.5Y-8.66
X66.869Y-7.288
X67.116Y-79.065
X67.407Y-56.329
X67.434Y-34.936
X68.05Y-73.477
X68.05Y-92.794
X68.371Y-5.967
X68.5Y-4.15
X68.93Y-39.096
X68.93Y-62.025
X68.93Y-96.984
X69.653Y-7.491
X69.746Y-45.671
X69.971Y-85.692
X70.1Y-47.575
X70.1Y-65.325
X70.1Y-66.875
X70.1Y-84.625
X70.1Y-103.925
X70.1Y-105.475
X70.522Y-36.828
X71.35Y-75.711
X71.75Y-45.637
X72.0Y-65.37
X72.0Y-84.67
X72.0Y-103.97
X72.0Y-106.34
X72.157Y-56.141
X72.177Y-94.727
X73.355Y-47.734
X73.37Y-86.348
X74.0Y-4.0
X74.0Y-14.0
X74.0Y-34.0
X74.0Y-44.0
X74.0Y-64.0
X74.0Y-84.0
X74.0Y-94.0
X74.0Y-104.0
X77.4Y-47.53
X77.4Y-66.83
X77.4Y-86.13
X77.4Y-105.43
X78.762Y-104.18
X78.764Y-47.734
X78.764Y-67.74
X78.764Y-86.87
X79.102Y-21.087
X79.371Y-56.141
X79.468Y-94.727
X80.361Y-23.894
X80.47Y-36.828
X80.47Y-75.711
X81.65Y-20.872
X83.35Y-20.386
X84.0Y-4.0
X84.0Y-14.0
X84.0Y-34.0
X84.0Y-44.0
X84.0Y-64.0
X84.0Y-84.0
X84.0Y-94.0
X84.942Y-24.139
X85.911Y-34.936
X85.928Y-73.778
X86.75Y-54.159
X86.75Y-92.747
X86.805Y-24.888
X87.63Y-39.074
X87.63Y-58.365
X87.63Y-77.674
X87.63Y-96.973
X88.55Y-103.492
X88.671Y-47.092
X88.8Y-46.025
X88.8Y-65.325
X88.8Y-66.875
X88.8Y-84.625
X88.8Y-86.175
X88.8Y-105.475
X89.15Y-26.104
X89.235Y-36.815
X90.5Y-11.843
X90.7Y-46.07
X90.7Y-65.37
X90.7Y-67.74
X90.7Y-84.67
X90.7Y-103.97
X90.87Y-56.12
X90.886Y-94.736
X91.65Y-20.866
X91.852Y-86.944
X91.852Y-106.243
X92.055Y-47.734
X93.05Y-15.0
X94.0Y-4.0
X94.0Y-14.0
X94.0Y-24.0
X94.0Y-34.0
X94.0Y-74.0
X94.0Y-84.0
X94.0Y-94.0
X94.0Y-104.0
X94.743Y-65.14
X94.95Y-15.0
X96.1Y-66.83
X96.1Y-86.13
X96.1Y-105.43
X96.583Y-47.659
X97.453Y-84.469
X97.462Y-104.18
X97.47Y-45.851
X99.17Y-36.815
X99.17Y-56.12
X99.17Y-94.736
X99.775Y-12.225
X100.3Y-9.05
X100.3Y-10.0
X100.3Y-10.95
X104.0Y-14.0
X104.0Y-24.0
X104.0Y-34.0
X104.0Y-44.0
X104.0Y-54.0
X104.0Y-64.0
X104.0Y-74.0
X104.0Y-84.0
X104.0Y-94.0
X104.45Y-15.0
X104.45Y-16.014
T4
X80.85Y-13.45
X91.15Y-13.45
T5
X36.46Y-5.75
X36.46Y-20.25
X39.0Y-20.25
X41.54Y-5.75
X41.54Y-20.25
T6
X80.85Y-9.75
X80.85Y-16.25
X91.15Y-9.75
X91.15Y-16.25
T8
X57.1Y-5.61
X62.9Y-5.61
T9
X6.0Y-6.0
X6.0Y-106.0
X106.0Y-6.0
X106.0Y-106.0
T10
X16.1Y-40.9
X16.1Y-60.2
X16.1Y-79.5
X16.1Y-98.8
X21.1Y-43.1
X21.1Y-62.4
X21.1Y-81.7
X21.1Y-101.0
X34.8Y-40.9
X34.8Y-60.2
X34.8Y-79.5
X34.8Y-98.8
X39.8Y-43.1
X39.8Y-62.4
X39.8Y-81.7
X39.8Y-101.0
X53.5Y-40.9
X53.5Y-60.2
X53.5Y-79.5
X53.5Y-98.8
X58.5Y-43.1
X58.5Y-62.4
X58.5Y-81.7
X58.5Y-101.0
X72.2Y-40.9
X72.2Y-60.2
X72.2Y-79.5
X72.2Y-98.8
X77.2Y-43.1
X77.2Y-62.4
X77.2Y-81.7
X77.2Y-101.0
X90.9Y-40.9
X90.9Y-60.2
X90.9Y-79.5
X90.9Y-98.8
X95.9Y-43.1
X95.9Y-62.4
X95.9Y-81.7
X95.9Y-101.0
T3
X55.67Y-2.13G85X55.67Y-1.73
G05
X55.67Y-6.46G85X55.67Y-5.76
G05
X64.33Y-2.13G85X64.33Y-1.73
G05
X64.33Y-6.46G85X64.33Y-5.76
G05
T7
X32.75Y-13.3G85X32.75Y-12.2
G05
X45.25Y-13.3G85X45.25Y-12.2
G05
M30
