#VRML V2.0 utf8
# HS96L03W2C03 0.96in 128x64 I2C OLED breakout, AgentDeck V2 (generated)
  DEF PCB Transform { translation 0.0000 3.6811 0.1969
    children [ Shape {
      appearance Appearance { material Material { diffuseColor 0.05 0.25 0.55 specularColor 0.2 0.2 0.2 shininess 0.3 } }
      geometry Box { size 10.5118 7.5984 0.3937 } } ] }
  DEF GLASS Transform { translation 0.0000 3.8386 0.6693
    children [ Shape {
      appearance Appearance { material Material { diffuseColor 0.08 0.08 0.10 specularColor 0.2 0.2 0.2 shininess 0.3 } }
      geometry Box { size 10.2362 6.8898 0.5512 } } ] }
  DEF ACTIVE Transform { translation 0.4921 3.8583 0.9547
    children [ Shape {
      appearance Appearance { material Material { diffuseColor 0.02 0.02 0.05 specularColor 0.2 0.2 0.2 shininess 0.3 } }
      geometry Box { size 8.5039 5.3150 0.0197 } } ] }
  DEF TAB Transform { translation 0.0000 0.0591 0.4232
    children [ Shape {
      appearance Appearance { material Material { diffuseColor 0.75 0.6 0.2 specularColor 0.2 0.2 0.2 shininess 0.3 } }
      geometry Box { size 3.9370 0.3543 0.0591 } } ] }
  DEF STANDOFF1 Transform { translation -4.4685 6.3780 0.9843
    children [ Shape {
      appearance Appearance { material Material { diffuseColor 0.7 0.7 0.72 specularColor 0.2 0.2 0.2 shininess 0.3 } }
      geometry Box { size 0.7874 0.7874 1.1811 } } ] }
  DEF STANDOFF2 Transform { translation 4.4685 6.3780 0.9843
    children [ Shape {
      appearance Appearance { material Material { diffuseColor 0.7 0.7 0.72 specularColor 0.2 0.2 0.2 shininess 0.3 } }
      geometry Box { size 0.7874 0.7874 1.1811 } } ] }
