%TF.GenerationSoftware,KiCad,Pcbnew,10.0.3*%
%TF.CreationDate,2026-07-29T06:01:57-04:00*%
%TF.ProjectId,ClaudeMicroV3,436c6175-6465-44d6-9963-726f56332e6b,rev?*%
%TF.SameCoordinates,Original*%
%TF.FileFunction,Paste,Bot*%
%TF.FilePolarity,Positive*%
%FSLAX46Y46*%
G04 Gerber Fmt 4.6, Leading zero omitted, Abs format (unit mm)*
G04 Created by KiCad (PCBNEW 10.0.3) date 2026-07-29 06:01:57*
%MOMM*%
%LPD*%
G01*
G04 APERTURE LIST*
G04 Aperture macros list*
%AMRoundRect*
0 Rectangle with rounded corners*
0 $1 Rounding radius*
0 $2 $3 $4 $5 $6 $7 $8 $9 X,Y pos of 4 corners*
0 Add a 4 corners polygon primitive as box body*
4,1,4,$2,$3,$4,$5,$6,$7,$8,$9,$2,$3,0*
0 Add four circle primitives for the rounded corners*
1,1,$1+$1,$2,$3*
1,1,$1+$1,$4,$5*
1,1,$1+$1,$6,$7*
1,1,$1+$1,$8,$9*
0 Add four rect primitives between the rounded corners*
20,1,$1+$1,$2,$3,$4,$5,0*
20,1,$1+$1,$4,$5,$6,$7,0*
20,1,$1+$1,$6,$7,$8,$9,0*
20,1,$1+$1,$8,$9,$2,$3,0*%
G04 Aperture macros list end*
%ADD10R,1.700000X0.800000*%
%ADD11RoundRect,0.225000X0.250000X-0.225000X0.250000X0.225000X-0.250000X0.225000X-0.250000X-0.225000X0*%
%ADD12RoundRect,0.225000X-0.225000X-0.375000X0.225000X-0.375000X0.225000X0.375000X-0.225000X0.375000X0*%
%ADD13R,1.100000X0.600000*%
%ADD14RoundRect,0.200000X-0.200000X-0.275000X0.200000X-0.275000X0.200000X0.275000X-0.200000X0.275000X0*%
G04 APERTURE END LIST*
D10*
%TO.C,LED6*%
X117300000Y-44070000D03*
X117300000Y-45530000D03*
X122700000Y-45530000D03*
X122700000Y-44070000D03*
%TD*%
%TO.C,LED13*%
X27300000Y-80070000D03*
X27300000Y-81530000D03*
X32700000Y-81530000D03*
X32700000Y-80070000D03*
%TD*%
%TO.C,LED7*%
X122700000Y-63530000D03*
X122700000Y-62070000D03*
X117300000Y-62070000D03*
X117300000Y-63530000D03*
%TD*%
D11*
%TO.C,C31*%
X97400000Y-99575000D03*
X97400000Y-98025000D03*
%TD*%
D12*
%TO.C,D12*%
X113350000Y-52000000D03*
X116650000Y-52000000D03*
%TD*%
D11*
%TO.C,C24*%
X25400000Y-81575000D03*
X25400000Y-80025000D03*
%TD*%
%TO.C,C25*%
X43400000Y-81575000D03*
X43400000Y-80025000D03*
%TD*%
D10*
%TO.C,LED20*%
X104700000Y-99530000D03*
X104700000Y-98070000D03*
X99300000Y-98070000D03*
X99300000Y-99530000D03*
%TD*%
%TO.C,LED1*%
X27300000Y-44070000D03*
X27300000Y-45530000D03*
X32700000Y-45530000D03*
X32700000Y-44070000D03*
%TD*%
D12*
%TO.C,D6*%
X113350000Y-34000000D03*
X116650000Y-34000000D03*
%TD*%
%TO.C,D22*%
X77350000Y-88000000D03*
X80650000Y-88000000D03*
%TD*%
D11*
%TO.C,C19*%
X97400000Y-63575000D03*
X97400000Y-62025000D03*
%TD*%
%TO.C,C9*%
X20000000Y-34775000D03*
X20000000Y-33225000D03*
%TD*%
D12*
%TO.C,D7*%
X23350000Y-52000000D03*
X26650000Y-52000000D03*
%TD*%
D11*
%TO.C,C13*%
X43400000Y-45575000D03*
X43400000Y-44025000D03*
%TD*%
D10*
%TO.C,LED9*%
X86700000Y-63530000D03*
X86700000Y-62070000D03*
X81300000Y-62070000D03*
X81300000Y-63530000D03*
%TD*%
%TO.C,LED15*%
X63300000Y-80070000D03*
X63300000Y-81530000D03*
X68700000Y-81530000D03*
X68700000Y-80070000D03*
%TD*%
D12*
%TO.C,D24*%
X113350000Y-88000000D03*
X116650000Y-88000000D03*
%TD*%
%TO.C,D18*%
X113350000Y-70000000D03*
X116650000Y-70000000D03*
%TD*%
D11*
%TO.C,C33*%
X61400000Y-99575000D03*
X61400000Y-98025000D03*
%TD*%
D10*
%TO.C,LED22*%
X68700000Y-99530000D03*
X68700000Y-98070000D03*
X63300000Y-98070000D03*
X63300000Y-99530000D03*
%TD*%
D13*
%TO.C,U2*%
X25300000Y-30050000D03*
X25300000Y-31000000D03*
X25300000Y-31950000D03*
X22700000Y-31950000D03*
X22700000Y-30050000D03*
%TD*%
D12*
%TO.C,D13*%
X23350000Y-70000000D03*
X26650000Y-70000000D03*
%TD*%
D10*
%TO.C,LED14*%
X45300000Y-80070000D03*
X45300000Y-81530000D03*
X50700000Y-81530000D03*
X50700000Y-80070000D03*
%TD*%
D12*
%TO.C,D16*%
X77350000Y-70000000D03*
X80650000Y-70000000D03*
%TD*%
%TO.C,D21*%
X59350000Y-88000000D03*
X62650000Y-88000000D03*
%TD*%
%TO.C,D10*%
X77350000Y-52000000D03*
X80650000Y-52000000D03*
%TD*%
D11*
%TO.C,C32*%
X79400000Y-99575000D03*
X79400000Y-98025000D03*
%TD*%
%TO.C,C14*%
X61400000Y-45575000D03*
X61400000Y-44025000D03*
%TD*%
D10*
%TO.C,LED3*%
X63300000Y-44070000D03*
X63300000Y-45530000D03*
X68700000Y-45530000D03*
X68700000Y-44070000D03*
%TD*%
D11*
%TO.C,C21*%
X61400000Y-63575000D03*
X61400000Y-62025000D03*
%TD*%
D12*
%TO.C,D4*%
X77350000Y-34000000D03*
X80650000Y-34000000D03*
%TD*%
%TO.C,D19*%
X23350000Y-88000000D03*
X26650000Y-88000000D03*
%TD*%
%TO.C,D15*%
X59350000Y-70000000D03*
X62650000Y-70000000D03*
%TD*%
%TO.C,D2*%
X41350000Y-34000000D03*
X44650000Y-34000000D03*
%TD*%
D11*
%TO.C,C28*%
X97400000Y-81575000D03*
X97400000Y-80025000D03*
%TD*%
D14*
%TO.C,R11*%
X26975000Y-30000000D03*
X28625000Y-30000000D03*
%TD*%
D11*
%TO.C,C20*%
X79400000Y-63575000D03*
X79400000Y-62025000D03*
%TD*%
D10*
%TO.C,LED4*%
X81300000Y-44070000D03*
X81300000Y-45530000D03*
X86700000Y-45530000D03*
X86700000Y-44070000D03*
%TD*%
D11*
%TO.C,C16*%
X97400000Y-45575000D03*
X97400000Y-44025000D03*
%TD*%
D10*
%TO.C,LED21*%
X86700000Y-99530000D03*
X86700000Y-98070000D03*
X81300000Y-98070000D03*
X81300000Y-99530000D03*
%TD*%
D12*
%TO.C,D20*%
X41350000Y-88000000D03*
X44650000Y-88000000D03*
%TD*%
D11*
%TO.C,C15*%
X79400000Y-45575000D03*
X79400000Y-44025000D03*
%TD*%
D10*
%TO.C,LED19*%
X122700000Y-99530000D03*
X122700000Y-98070000D03*
X117300000Y-98070000D03*
X117300000Y-99530000D03*
%TD*%
D11*
%TO.C,C30*%
X115400000Y-99575000D03*
X115400000Y-98025000D03*
%TD*%
D10*
%TO.C,LED5*%
X99300000Y-44070000D03*
X99300000Y-45530000D03*
X104700000Y-45530000D03*
X104700000Y-44070000D03*
%TD*%
%TO.C,LED8*%
X104700000Y-63530000D03*
X104700000Y-62070000D03*
X99300000Y-62070000D03*
X99300000Y-63530000D03*
%TD*%
%TO.C,LED12*%
X32700000Y-63530000D03*
X32700000Y-62070000D03*
X27300000Y-62070000D03*
X27300000Y-63530000D03*
%TD*%
D12*
%TO.C,D9*%
X59350000Y-52000000D03*
X62650000Y-52000000D03*
%TD*%
D11*
%TO.C,C12*%
X25400000Y-45575000D03*
X25400000Y-44025000D03*
%TD*%
D10*
%TO.C,LED16*%
X81300000Y-80070000D03*
X81300000Y-81530000D03*
X86700000Y-81530000D03*
X86700000Y-80070000D03*
%TD*%
D12*
%TO.C,D5*%
X95350000Y-34000000D03*
X98650000Y-34000000D03*
%TD*%
D11*
%TO.C,C35*%
X25400000Y-99575000D03*
X25400000Y-98025000D03*
%TD*%
D12*
%TO.C,D17*%
X95350000Y-70000000D03*
X98650000Y-70000000D03*
%TD*%
D11*
%TO.C,C22*%
X43400000Y-63575000D03*
X43400000Y-62025000D03*
%TD*%
D12*
%TO.C,D8*%
X41350000Y-52000000D03*
X44650000Y-52000000D03*
%TD*%
D10*
%TO.C,LED18*%
X117300000Y-80070000D03*
X117300000Y-81530000D03*
X122700000Y-81530000D03*
X122700000Y-80070000D03*
%TD*%
D11*
%TO.C,C18*%
X115400000Y-63575000D03*
X115400000Y-62025000D03*
%TD*%
D12*
%TO.C,D3*%
X59350000Y-34000000D03*
X62650000Y-34000000D03*
%TD*%
%TO.C,D14*%
X41350000Y-70000000D03*
X44650000Y-70000000D03*
%TD*%
D11*
%TO.C,C26*%
X61400000Y-81575000D03*
X61400000Y-80025000D03*
%TD*%
%TO.C,C23*%
X25400000Y-63575000D03*
X25400000Y-62025000D03*
%TD*%
D10*
%TO.C,LED17*%
X99300000Y-80070000D03*
X99300000Y-81530000D03*
X104700000Y-81530000D03*
X104700000Y-80070000D03*
%TD*%
%TO.C,LED24*%
X32700000Y-99530000D03*
X32700000Y-98070000D03*
X27300000Y-98070000D03*
X27300000Y-99530000D03*
%TD*%
D12*
%TO.C,D23*%
X95350000Y-88000000D03*
X98650000Y-88000000D03*
%TD*%
D11*
%TO.C,C34*%
X43400000Y-99575000D03*
X43400000Y-98025000D03*
%TD*%
D12*
%TO.C,D11*%
X95350000Y-52000000D03*
X98650000Y-52000000D03*
%TD*%
D11*
%TO.C,C27*%
X79400000Y-81575000D03*
X79400000Y-80025000D03*
%TD*%
D10*
%TO.C,LED10*%
X68700000Y-63530000D03*
X68700000Y-62070000D03*
X63300000Y-62070000D03*
X63300000Y-63530000D03*
%TD*%
%TO.C,LED23*%
X50700000Y-99530000D03*
X50700000Y-98070000D03*
X45300000Y-98070000D03*
X45300000Y-99530000D03*
%TD*%
D12*
%TO.C,D1*%
X23350000Y-34000000D03*
X26650000Y-34000000D03*
%TD*%
D11*
%TO.C,C17*%
X115400000Y-45575000D03*
X115400000Y-44025000D03*
%TD*%
D10*
%TO.C,LED2*%
X45300000Y-44070000D03*
X45300000Y-45530000D03*
X50700000Y-45530000D03*
X50700000Y-44070000D03*
%TD*%
D11*
%TO.C,C29*%
X115400000Y-81575000D03*
X115400000Y-80025000D03*
%TD*%
D10*
%TO.C,LED11*%
X50700000Y-63530000D03*
X50700000Y-62070000D03*
X45300000Y-62070000D03*
X45300000Y-63530000D03*
%TD*%
M02*
