M48
; DRILL file KiCad 10.0.3 date 2026-07-29T06:01:58
; FORMAT={-:-/ absolute / metric / decimal}
; #@! TF.CreationDate,2026-07-29T06:01:58-04:00
; #@! TF.GenerationSoftware,Kicad,Pcbnew,10.0.3
; #@! TF.FileFunction,MixedPlating,1,2
FMAT,2
METRIC
; #@! TA.AperFunction,Plated,PTH,ViaDrill
T1C0.300
; #@! TA.AperFunction,Plated,PTH,ComponentDrill
T2C0.800
; #@! TA.AperFunction,Plated,PTH,ComponentDrill
T3C1.000
; #@! TA.AperFunction,Plated,PTH,ComponentDrill
T4C1.200
; #@! TA.AperFunction,Plated,PTH,ComponentDrill
T5C1.200
; #@! TA.AperFunction,Plated,PTH,ComponentDrill
T6C1.700
; #@! TA.AperFunction,NonPlated,NPTH,ComponentDrill
T7C0.750
; #@! TA.AperFunction,NonPlated,NPTH,ComponentDrill
T8C1.900
; #@! TA.AperFunction,NonPlated,NPTH,ComponentDrill
T9C2.200
; #@! TA.AperFunction,NonPlated,NPTH,ComponentDrill
T10C2.700
; #@! TA.AperFunction,NonPlated,NPTH,ComponentDrill
T11C3.400
%
G90
G05
T1
X4.0Y-14.0
X4.0Y-24.0
X4.0Y-34.0
X4.0Y-44.0
X4.0Y-64.0
X4.0Y-74.0
X4.0Y-84.0
X4.0Y-94.0
X6.5Y-38.73
X8.218Y-41.27
X11.467Y-19.692
X11.683Y-1.26
X12.519Y-8.63
X12.811Y-6.09
X13.145Y-7.36
X13.231Y-4.818
X13.313Y-3.699
X14.0Y-34.0
X14.0Y-44.0
X14.0Y-64.0
X14.0Y-74.0
X14.0Y-84.0
X14.0Y-94.0
X14.0Y-104.0
X14.044Y-22.647
X14.195Y-10.324
X14.348Y-35.038
X14.378Y-23.88
X14.857Y-17.52
X15.203Y-14.25
X17.1Y-7.33
X17.1Y-8.73
X17.1Y-10.13
X17.275Y-21.0
X17.885Y-16.231
X18.15Y-30.05
X18.15Y-34.775
X18.275Y-24.5
X18.5Y-7.33
X18.5Y-8.73
X18.5Y-10.13
X19.019Y-15.443
X19.633Y-16.131
X19.9Y-7.33
X19.9Y-8.73
X19.9Y-10.13
X20.0Y-33.225
X20.0Y-34.775
X20.167Y-17.337
X21.775Y-21.0
X22.7Y-30.05
X22.74Y-20.766
X23.182Y-20.042
X23.873Y-25.688
X23.905Y-27.316
X24.0Y-4.0
X24.0Y-14.0
X24.0Y-44.0
X24.0Y-54.0
X24.0Y-64.0
X24.0Y-84.0
X24.0Y-104.0
X24.45Y-17.532
X24.817Y-31.821
X25.0Y-51.322
X25.3Y-25.688
X25.3Y-30.05
X25.313Y-22.445
X25.4Y-44.025
X25.4Y-45.575
X25.4Y-62.025
X25.4Y-63.575
X25.4Y-80.025
X25.4Y-81.575
X25.4Y-98.025
X25.4Y-99.575
X25.425Y-27.072
X25.519Y-17.081
X26.65Y-89.122
X26.873Y-16.463
X27.203Y-15.111
X27.229Y-20.55
X27.3Y-44.07
X27.3Y-62.07
X27.3Y-80.07
X27.3Y-98.07
X27.497Y-6.039
X29.183Y-1.26
X30.112Y-6.223
X30.312Y-2.28
X30.703Y-4.25
X30.703Y-11.249
X31.244Y-17.624
X32.313Y-5.143
X32.396Y-25.511
X32.7Y-81.53
X32.7Y-99.53
X32.725Y-20.259
X33.2Y-45.53
X33.2Y-63.53
X33.648Y-13.302
X33.648Y-18.756
X34.0Y-34.0
X34.0Y-64.0
X34.0Y-74.0
X34.0Y-84.0
X34.0Y-104.0
X37.0Y-23.65
X37.25Y-27.783
X38.458Y-31.684
X38.712Y-25.324
X39.08Y-32.594
X43.4Y-44.025
X43.4Y-45.575
X43.4Y-62.025
X43.4Y-63.575
X43.4Y-80.025
X43.4Y-81.575
X43.4Y-98.025
X43.4Y-99.575
X44.0Y-24.0
X44.0Y-54.0
X44.0Y-74.0
X44.0Y-84.0
X44.0Y-104.0
X44.2Y-36.419
X45.3Y-44.07
X45.3Y-62.07
X45.3Y-80.07
X45.3Y-98.07
X45.481Y-90.15
X47.0Y-23.65
X47.0Y-27.35
X50.0Y-13.936
X50.7Y-81.53
X50.7Y-99.53
X51.2Y-45.53
X51.2Y-63.53
X54.0Y-24.0
X54.0Y-34.0
X54.0Y-64.0
X54.0Y-74.0
X54.0Y-84.0
X54.0Y-104.0
X54.124Y-7.574
X55.038Y-24.0
X55.038Y-26.978
X55.346Y-36.941
X57.762Y-30.949
X61.4Y-44.025
X61.4Y-45.575
X61.4Y-62.025
X61.4Y-63.575
X61.4Y-80.025
X61.4Y-81.575
X61.4Y-98.025
X61.4Y-99.575
X62.675Y-8.7
X62.675Y-29.603
X62.817Y-80.199
X63.19Y-28.6
X63.3Y-44.07
X63.3Y-62.07
X63.3Y-98.07
X63.775Y-31.0
X64.0Y-14.0
X64.0Y-34.0
X64.0Y-104.0
X64.325Y-7.9
X68.7Y-63.53
X68.7Y-81.53
X68.7Y-99.53
X68.825Y-7.9
X69.2Y-45.53
X69.239Y-51.949
X70.67Y-1.93
X70.67Y-6.11
X71.671Y-7.353
X72.6Y-7.9
X74.0Y-14.0
X74.0Y-34.0
X74.0Y-44.0
X74.0Y-54.0
X74.0Y-64.0
X74.0Y-74.0
X74.0Y-84.0
X74.0Y-94.0
X74.0Y-104.0
X76.25Y-8.7
X76.9Y-5.3
X77.4Y-7.9
X78.7Y-6.87
X79.33Y-1.93
X79.33Y-6.11
X79.4Y-44.025
X79.4Y-45.575
X79.4Y-62.025
X79.4Y-63.575
X79.4Y-80.025
X79.4Y-81.575
X79.4Y-98.025
X79.4Y-99.575
X81.05Y-62.503
X81.3Y-44.07
X81.3Y-80.07
X81.3Y-98.07
X83.5Y-4.2
X83.5Y-6.45
X83.75Y-15.75
X83.75Y-22.582
X84.0Y-14.0
X84.0Y-64.0
X84.0Y-104.0
X86.7Y-45.53
X86.7Y-63.53
X86.7Y-81.53
X86.7Y-99.53
X90.0Y-23.25
X92.54Y-8.75
X94.0Y-4.0
X94.0Y-14.0
X94.0Y-34.0
X94.0Y-64.0
X94.0Y-74.0
X94.0Y-84.0
X94.0Y-94.0
X94.0Y-104.0
X96.25Y-15.75
X97.4Y-44.025
X97.4Y-45.575
X97.4Y-62.025
X97.4Y-63.575
X97.4Y-80.025
X97.4Y-81.575
X97.4Y-98.025
X97.4Y-99.575
X97.689Y-70.1
X99.3Y-44.07
X99.3Y-62.07
X99.3Y-80.07
X99.3Y-98.07
X101.35Y-81.547
X103.35Y-8.095
X103.35Y-10.635
X104.0Y-4.0
X104.0Y-14.0
X104.0Y-34.0
X104.0Y-64.0
X104.0Y-74.0
X104.0Y-84.0
X104.0Y-104.0
X104.553Y-56.145
X104.7Y-45.53
X104.7Y-63.53
X104.7Y-81.53
X104.7Y-99.53
X105.825Y-16.5
X106.0Y-10.0
X106.9Y-10.0
X110.45Y-9.595
X110.992Y-24.073
X111.26Y-13.31
X111.45Y-16.5
X114.0Y-44.0
X114.0Y-54.0
X114.0Y-64.0
X114.0Y-74.0
X114.0Y-84.0
X114.0Y-104.0
X115.4Y-44.025
X115.4Y-45.575
X115.4Y-62.025
X115.4Y-63.575
X115.4Y-80.025
X115.4Y-81.575
X115.4Y-98.025
X115.4Y-99.575
X116.825Y-12.5
X116.851Y-7.719
X117.286Y-29.983
X117.3Y-44.07
X117.3Y-62.07
X117.3Y-80.07
X117.3Y-98.07
X118.773Y-6.12
X122.7Y-45.53
X122.7Y-63.53
X122.7Y-81.53
X122.7Y-99.53
X124.0Y-34.0
X124.0Y-64.0
X124.0Y-74.0
X124.0Y-84.0
X124.0Y-104.0
X127.55Y-6.925
X127.55Y-13.0
X129.45Y-13.0
X130.317Y-10.324
X132.825Y-17.0
X134.0Y-4.0
X134.0Y-14.0
X134.0Y-34.0
X134.0Y-44.0
X134.0Y-54.0
X134.0Y-64.0
X134.0Y-74.0
X134.0Y-84.0
X134.0Y-94.0
X134.0Y-104.0
X134.3Y-6.925
X134.3Y-8.05
X134.3Y-9.0
X134.3Y-9.95
X135.5Y-9.95
X135.5Y-45.53
X136.7Y-8.05
X136.7Y-45.53
X137.775Y-17.0
X138.45Y-13.0
X142.5Y-27.85
X144.0Y-14.0
X144.0Y-24.0
X144.0Y-34.0
X144.0Y-64.0
X144.0Y-74.0
X144.0Y-84.0
X144.0Y-94.0
X145.6Y-46.3
T3
X106.0Y-10.0
T4
X87.46Y-8.75
X87.46Y-23.25
X90.0Y-23.25
X92.54Y-8.75
X92.54Y-23.25
T5
X30.0Y-34.1
X30.0Y-52.1
X30.0Y-70.1
X30.0Y-88.1
X35.0Y-36.2
X35.0Y-54.2
X35.0Y-72.2
X35.0Y-90.2
X48.0Y-34.1
X48.0Y-52.1
X48.0Y-70.1
X48.0Y-88.1
X53.0Y-36.2
X53.0Y-54.2
X53.0Y-72.2
X53.0Y-90.2
X66.0Y-34.1
X66.0Y-52.1
X66.0Y-70.1
X66.0Y-88.1
X71.0Y-36.2
X71.0Y-54.2
X71.0Y-72.2
X71.0Y-90.2
X84.0Y-34.1
X84.0Y-52.1
X84.0Y-70.1
X84.0Y-88.1
X89.0Y-36.2
X89.0Y-54.2
X89.0Y-72.2
X89.0Y-90.2
X102.0Y-34.1
X102.0Y-52.1
X102.0Y-70.1
X102.0Y-88.1
X107.0Y-36.2
X107.0Y-54.2
X107.0Y-72.2
X107.0Y-90.2
X120.0Y-34.1
X120.0Y-52.1
X120.0Y-70.1
X120.0Y-88.1
X125.0Y-36.2
X125.0Y-54.2
X125.0Y-72.2
X125.0Y-90.2
T7
X72.1Y-5.61
X77.9Y-5.61
T8
X24.5Y-40.0
X24.5Y-58.0
X24.5Y-76.0
X24.5Y-94.0
X35.5Y-40.0
X35.5Y-58.0
X35.5Y-76.0
X35.5Y-94.0
X42.5Y-40.0
X42.5Y-58.0
X42.5Y-76.0
X42.5Y-94.0
X53.5Y-40.0
X53.5Y-58.0
X53.5Y-76.0
X53.5Y-94.0
X60.5Y-40.0
X60.5Y-58.0
X60.5Y-76.0
X60.5Y-94.0
X71.5Y-40.0
X71.5Y-58.0
X71.5Y-76.0
X71.5Y-94.0
X78.5Y-40.0
X78.5Y-58.0
X78.5Y-76.0
X78.5Y-94.0
X89.5Y-40.0
X89.5Y-58.0
X89.5Y-76.0
X89.5Y-94.0
X96.5Y-40.0
X96.5Y-58.0
X96.5Y-76.0
X96.5Y-94.0
X107.5Y-40.0
X107.5Y-58.0
X107.5Y-76.0
X107.5Y-94.0
X114.5Y-40.0
X114.5Y-58.0
X114.5Y-76.0
X114.5Y-94.0
X125.5Y-40.0
X125.5Y-58.0
X125.5Y-76.0
X125.5Y-94.0
T9
X55.65Y-12.4
X78.35Y-12.4
T10
X6.0Y-6.0
X6.0Y-55.0
X6.0Y-104.0
X144.0Y-6.0
X144.0Y-55.0
X144.0Y-104.0
T11
X30.0Y-40.0
X30.0Y-58.0
X30.0Y-76.0
X30.0Y-94.0
X48.0Y-40.0
X48.0Y-58.0
X48.0Y-76.0
X48.0Y-94.0
X66.0Y-40.0
X66.0Y-58.0
X66.0Y-76.0
X66.0Y-94.0
X84.0Y-40.0
X84.0Y-58.0
X84.0Y-76.0
X84.0Y-94.0
X102.0Y-40.0
X102.0Y-58.0
X102.0Y-76.0
X102.0Y-94.0
X120.0Y-40.0
X120.0Y-58.0
X120.0Y-76.0
X120.0Y-94.0
T2
X70.67Y-2.23G85X70.67Y-1.63
G05
X70.67Y-6.51G85X70.67Y-5.71
G05
X79.33Y-2.23G85X79.33Y-1.63
G05
X79.33Y-6.51G85X79.33Y-5.71
G05
T6
X83.75Y-16.3G85X83.75Y-15.2
G05
X96.25Y-16.3G85X96.25Y-15.2
G05
M30
