%TF.GenerationSoftware,KiCad,Pcbnew,10.0.3*%
%TF.CreationDate,2026-07-29T06:01:57-04:00*%
%TF.ProjectId,ClaudeMicroV3,436c6175-6465-44d6-9963-726f56332e6b,rev?*%
%TF.SameCoordinates,Original*%
%TF.FileFunction,Legend,Top*%
%TF.FilePolarity,Positive*%
%FSLAX46Y46*%
G04 Gerber Fmt 4.6, Leading zero omitted, Abs format (unit mm)*
G04 Created by KiCad (PCBNEW 10.0.3) date 2026-07-29 06:01:57*
%MOMM*%
%LPD*%
G01*
G04 APERTURE LIST*
%ADD10C,0.160000*%
%ADD11C,0.300000*%
%ADD12C,0.150000*%
%ADD13C,0.120000*%
%ADD14C,0.110000*%
%ADD15C,0.250000*%
%ADD16C,0.060000*%
%ADD17C,0.000000*%
%ADD18C,0.100000*%
G04 APERTURE END LIST*
D10*
X88676691Y-105230489D02*
X88343358Y-105230489D01*
X88343358Y-105754299D02*
X88343358Y-104754299D01*
X88343358Y-104754299D02*
X88819548Y-104754299D01*
X89676691Y-105754299D02*
X89200501Y-105754299D01*
X89200501Y-105754299D02*
X89200501Y-104754299D01*
X89962406Y-105468584D02*
X90438596Y-105468584D01*
X89867168Y-105754299D02*
X90200501Y-104754299D01*
X90200501Y-104754299D02*
X90533834Y-105754299D01*
X90819549Y-105706680D02*
X90962406Y-105754299D01*
X90962406Y-105754299D02*
X91200501Y-105754299D01*
X91200501Y-105754299D02*
X91295739Y-105706680D01*
X91295739Y-105706680D02*
X91343358Y-105659060D01*
X91343358Y-105659060D02*
X91390977Y-105563822D01*
X91390977Y-105563822D02*
X91390977Y-105468584D01*
X91390977Y-105468584D02*
X91343358Y-105373346D01*
X91343358Y-105373346D02*
X91295739Y-105325727D01*
X91295739Y-105325727D02*
X91200501Y-105278108D01*
X91200501Y-105278108D02*
X91010025Y-105230489D01*
X91010025Y-105230489D02*
X90914787Y-105182870D01*
X90914787Y-105182870D02*
X90867168Y-105135251D01*
X90867168Y-105135251D02*
X90819549Y-105040013D01*
X90819549Y-105040013D02*
X90819549Y-104944775D01*
X90819549Y-104944775D02*
X90867168Y-104849537D01*
X90867168Y-104849537D02*
X90914787Y-104801918D01*
X90914787Y-104801918D02*
X91010025Y-104754299D01*
X91010025Y-104754299D02*
X91248120Y-104754299D01*
X91248120Y-104754299D02*
X91390977Y-104801918D01*
X91819549Y-105754299D02*
X91819549Y-104754299D01*
X91819549Y-105230489D02*
X92390977Y-105230489D01*
X92390977Y-105754299D02*
X92390977Y-104754299D01*
X92867168Y-105659060D02*
X92914787Y-105706680D01*
X92914787Y-105706680D02*
X92867168Y-105754299D01*
X92867168Y-105754299D02*
X92819549Y-105706680D01*
X92819549Y-105706680D02*
X92867168Y-105659060D01*
X92867168Y-105659060D02*
X92867168Y-105754299D01*
X92867168Y-105135251D02*
X92914787Y-105182870D01*
X92914787Y-105182870D02*
X92867168Y-105230489D01*
X92867168Y-105230489D02*
X92819549Y-105182870D01*
X92819549Y-105182870D02*
X92867168Y-105135251D01*
X92867168Y-105135251D02*
X92867168Y-105230489D01*
X94105263Y-105754299D02*
X94105263Y-104754299D01*
X94533834Y-105754299D02*
X94533834Y-105230489D01*
X94533834Y-105230489D02*
X94486215Y-105135251D01*
X94486215Y-105135251D02*
X94390977Y-105087632D01*
X94390977Y-105087632D02*
X94248120Y-105087632D01*
X94248120Y-105087632D02*
X94152882Y-105135251D01*
X94152882Y-105135251D02*
X94105263Y-105182870D01*
X95152882Y-105754299D02*
X95057644Y-105706680D01*
X95057644Y-105706680D02*
X95010025Y-105659060D01*
X95010025Y-105659060D02*
X94962406Y-105563822D01*
X94962406Y-105563822D02*
X94962406Y-105278108D01*
X94962406Y-105278108D02*
X95010025Y-105182870D01*
X95010025Y-105182870D02*
X95057644Y-105135251D01*
X95057644Y-105135251D02*
X95152882Y-105087632D01*
X95152882Y-105087632D02*
X95295739Y-105087632D01*
X95295739Y-105087632D02*
X95390977Y-105135251D01*
X95390977Y-105135251D02*
X95438596Y-105182870D01*
X95438596Y-105182870D02*
X95486215Y-105278108D01*
X95486215Y-105278108D02*
X95486215Y-105563822D01*
X95486215Y-105563822D02*
X95438596Y-105659060D01*
X95438596Y-105659060D02*
X95390977Y-105706680D01*
X95390977Y-105706680D02*
X95295739Y-105754299D01*
X95295739Y-105754299D02*
X95152882Y-105754299D01*
X96057644Y-105754299D02*
X95962406Y-105706680D01*
X95962406Y-105706680D02*
X95914787Y-105611441D01*
X95914787Y-105611441D02*
X95914787Y-104754299D01*
X96867168Y-105754299D02*
X96867168Y-104754299D01*
X96867168Y-105706680D02*
X96771930Y-105754299D01*
X96771930Y-105754299D02*
X96581454Y-105754299D01*
X96581454Y-105754299D02*
X96486216Y-105706680D01*
X96486216Y-105706680D02*
X96438597Y-105659060D01*
X96438597Y-105659060D02*
X96390978Y-105563822D01*
X96390978Y-105563822D02*
X96390978Y-105278108D01*
X96390978Y-105278108D02*
X96438597Y-105182870D01*
X96438597Y-105182870D02*
X96486216Y-105135251D01*
X96486216Y-105135251D02*
X96581454Y-105087632D01*
X96581454Y-105087632D02*
X96771930Y-105087632D01*
X96771930Y-105087632D02*
X96867168Y-105135251D01*
X98438597Y-105230489D02*
X98581454Y-105278108D01*
X98581454Y-105278108D02*
X98629073Y-105325727D01*
X98629073Y-105325727D02*
X98676692Y-105420965D01*
X98676692Y-105420965D02*
X98676692Y-105563822D01*
X98676692Y-105563822D02*
X98629073Y-105659060D01*
X98629073Y-105659060D02*
X98581454Y-105706680D01*
X98581454Y-105706680D02*
X98486216Y-105754299D01*
X98486216Y-105754299D02*
X98105264Y-105754299D01*
X98105264Y-105754299D02*
X98105264Y-104754299D01*
X98105264Y-104754299D02*
X98438597Y-104754299D01*
X98438597Y-104754299D02*
X98533835Y-104801918D01*
X98533835Y-104801918D02*
X98581454Y-104849537D01*
X98581454Y-104849537D02*
X98629073Y-104944775D01*
X98629073Y-104944775D02*
X98629073Y-105040013D01*
X98629073Y-105040013D02*
X98581454Y-105135251D01*
X98581454Y-105135251D02*
X98533835Y-105182870D01*
X98533835Y-105182870D02*
X98438597Y-105230489D01*
X98438597Y-105230489D02*
X98105264Y-105230489D01*
X99295740Y-104754299D02*
X99486216Y-104754299D01*
X99486216Y-104754299D02*
X99581454Y-104801918D01*
X99581454Y-104801918D02*
X99676692Y-104897156D01*
X99676692Y-104897156D02*
X99724311Y-105087632D01*
X99724311Y-105087632D02*
X99724311Y-105420965D01*
X99724311Y-105420965D02*
X99676692Y-105611441D01*
X99676692Y-105611441D02*
X99581454Y-105706680D01*
X99581454Y-105706680D02*
X99486216Y-105754299D01*
X99486216Y-105754299D02*
X99295740Y-105754299D01*
X99295740Y-105754299D02*
X99200502Y-105706680D01*
X99200502Y-105706680D02*
X99105264Y-105611441D01*
X99105264Y-105611441D02*
X99057645Y-105420965D01*
X99057645Y-105420965D02*
X99057645Y-105087632D01*
X99057645Y-105087632D02*
X99105264Y-104897156D01*
X99105264Y-104897156D02*
X99200502Y-104801918D01*
X99200502Y-104801918D02*
X99295740Y-104754299D01*
X100343359Y-104754299D02*
X100533835Y-104754299D01*
X100533835Y-104754299D02*
X100629073Y-104801918D01*
X100629073Y-104801918D02*
X100724311Y-104897156D01*
X100724311Y-104897156D02*
X100771930Y-105087632D01*
X100771930Y-105087632D02*
X100771930Y-105420965D01*
X100771930Y-105420965D02*
X100724311Y-105611441D01*
X100724311Y-105611441D02*
X100629073Y-105706680D01*
X100629073Y-105706680D02*
X100533835Y-105754299D01*
X100533835Y-105754299D02*
X100343359Y-105754299D01*
X100343359Y-105754299D02*
X100248121Y-105706680D01*
X100248121Y-105706680D02*
X100152883Y-105611441D01*
X100152883Y-105611441D02*
X100105264Y-105420965D01*
X100105264Y-105420965D02*
X100105264Y-105087632D01*
X100105264Y-105087632D02*
X100152883Y-104897156D01*
X100152883Y-104897156D02*
X100248121Y-104801918D01*
X100248121Y-104801918D02*
X100343359Y-104754299D01*
X101057645Y-104754299D02*
X101629073Y-104754299D01*
X101343359Y-105754299D02*
X101343359Y-104754299D01*
X102724312Y-105373346D02*
X103486217Y-105373346D01*
X104581455Y-105087632D02*
X104962407Y-105087632D01*
X104724312Y-104754299D02*
X104724312Y-105611441D01*
X104724312Y-105611441D02*
X104771931Y-105706680D01*
X104771931Y-105706680D02*
X104867169Y-105754299D01*
X104867169Y-105754299D02*
X104962407Y-105754299D01*
X105724312Y-105754299D02*
X105724312Y-105230489D01*
X105724312Y-105230489D02*
X105676693Y-105135251D01*
X105676693Y-105135251D02*
X105581455Y-105087632D01*
X105581455Y-105087632D02*
X105390979Y-105087632D01*
X105390979Y-105087632D02*
X105295741Y-105135251D01*
X105724312Y-105706680D02*
X105629074Y-105754299D01*
X105629074Y-105754299D02*
X105390979Y-105754299D01*
X105390979Y-105754299D02*
X105295741Y-105706680D01*
X105295741Y-105706680D02*
X105248122Y-105611441D01*
X105248122Y-105611441D02*
X105248122Y-105516203D01*
X105248122Y-105516203D02*
X105295741Y-105420965D01*
X105295741Y-105420965D02*
X105390979Y-105373346D01*
X105390979Y-105373346D02*
X105629074Y-105373346D01*
X105629074Y-105373346D02*
X105724312Y-105325727D01*
X106200503Y-105087632D02*
X106200503Y-106087632D01*
X106200503Y-105135251D02*
X106295741Y-105087632D01*
X106295741Y-105087632D02*
X106486217Y-105087632D01*
X106486217Y-105087632D02*
X106581455Y-105135251D01*
X106581455Y-105135251D02*
X106629074Y-105182870D01*
X106629074Y-105182870D02*
X106676693Y-105278108D01*
X106676693Y-105278108D02*
X106676693Y-105563822D01*
X106676693Y-105563822D02*
X106629074Y-105659060D01*
X106629074Y-105659060D02*
X106581455Y-105706680D01*
X106581455Y-105706680D02*
X106486217Y-105754299D01*
X106486217Y-105754299D02*
X106295741Y-105754299D01*
X106295741Y-105754299D02*
X106200503Y-105706680D01*
X108438598Y-105754299D02*
X108105265Y-105278108D01*
X107867170Y-105754299D02*
X107867170Y-104754299D01*
X107867170Y-104754299D02*
X108248122Y-104754299D01*
X108248122Y-104754299D02*
X108343360Y-104801918D01*
X108343360Y-104801918D02*
X108390979Y-104849537D01*
X108390979Y-104849537D02*
X108438598Y-104944775D01*
X108438598Y-104944775D02*
X108438598Y-105087632D01*
X108438598Y-105087632D02*
X108390979Y-105182870D01*
X108390979Y-105182870D02*
X108343360Y-105230489D01*
X108343360Y-105230489D02*
X108248122Y-105278108D01*
X108248122Y-105278108D02*
X107867170Y-105278108D01*
X108819551Y-105706680D02*
X108962408Y-105754299D01*
X108962408Y-105754299D02*
X109200503Y-105754299D01*
X109200503Y-105754299D02*
X109295741Y-105706680D01*
X109295741Y-105706680D02*
X109343360Y-105659060D01*
X109343360Y-105659060D02*
X109390979Y-105563822D01*
X109390979Y-105563822D02*
X109390979Y-105468584D01*
X109390979Y-105468584D02*
X109343360Y-105373346D01*
X109343360Y-105373346D02*
X109295741Y-105325727D01*
X109295741Y-105325727D02*
X109200503Y-105278108D01*
X109200503Y-105278108D02*
X109010027Y-105230489D01*
X109010027Y-105230489D02*
X108914789Y-105182870D01*
X108914789Y-105182870D02*
X108867170Y-105135251D01*
X108867170Y-105135251D02*
X108819551Y-105040013D01*
X108819551Y-105040013D02*
X108819551Y-104944775D01*
X108819551Y-104944775D02*
X108867170Y-104849537D01*
X108867170Y-104849537D02*
X108914789Y-104801918D01*
X108914789Y-104801918D02*
X109010027Y-104754299D01*
X109010027Y-104754299D02*
X109248122Y-104754299D01*
X109248122Y-104754299D02*
X109390979Y-104801918D01*
X109676694Y-104754299D02*
X110248122Y-104754299D01*
X109962408Y-105754299D02*
X109962408Y-104754299D01*
X111343361Y-105373346D02*
X112105266Y-105373346D01*
X113343361Y-105754299D02*
X113343361Y-105087632D01*
X113343361Y-105278108D02*
X113390980Y-105182870D01*
X113390980Y-105182870D02*
X113438599Y-105135251D01*
X113438599Y-105135251D02*
X113533837Y-105087632D01*
X113533837Y-105087632D02*
X113629075Y-105087632D01*
X114343361Y-105706680D02*
X114248123Y-105754299D01*
X114248123Y-105754299D02*
X114057647Y-105754299D01*
X114057647Y-105754299D02*
X113962409Y-105706680D01*
X113962409Y-105706680D02*
X113914790Y-105611441D01*
X113914790Y-105611441D02*
X113914790Y-105230489D01*
X113914790Y-105230489D02*
X113962409Y-105135251D01*
X113962409Y-105135251D02*
X114057647Y-105087632D01*
X114057647Y-105087632D02*
X114248123Y-105087632D01*
X114248123Y-105087632D02*
X114343361Y-105135251D01*
X114343361Y-105135251D02*
X114390980Y-105230489D01*
X114390980Y-105230489D02*
X114390980Y-105325727D01*
X114390980Y-105325727D02*
X113914790Y-105420965D01*
X114962409Y-105754299D02*
X114867171Y-105706680D01*
X114867171Y-105706680D02*
X114819552Y-105611441D01*
X114819552Y-105611441D02*
X114819552Y-104754299D01*
X115724314Y-105706680D02*
X115629076Y-105754299D01*
X115629076Y-105754299D02*
X115438600Y-105754299D01*
X115438600Y-105754299D02*
X115343362Y-105706680D01*
X115343362Y-105706680D02*
X115295743Y-105611441D01*
X115295743Y-105611441D02*
X115295743Y-105230489D01*
X115295743Y-105230489D02*
X115343362Y-105135251D01*
X115343362Y-105135251D02*
X115438600Y-105087632D01*
X115438600Y-105087632D02*
X115629076Y-105087632D01*
X115629076Y-105087632D02*
X115724314Y-105135251D01*
X115724314Y-105135251D02*
X115771933Y-105230489D01*
X115771933Y-105230489D02*
X115771933Y-105325727D01*
X115771933Y-105325727D02*
X115295743Y-105420965D01*
X116629076Y-105754299D02*
X116629076Y-105230489D01*
X116629076Y-105230489D02*
X116581457Y-105135251D01*
X116581457Y-105135251D02*
X116486219Y-105087632D01*
X116486219Y-105087632D02*
X116295743Y-105087632D01*
X116295743Y-105087632D02*
X116200505Y-105135251D01*
X116629076Y-105706680D02*
X116533838Y-105754299D01*
X116533838Y-105754299D02*
X116295743Y-105754299D01*
X116295743Y-105754299D02*
X116200505Y-105706680D01*
X116200505Y-105706680D02*
X116152886Y-105611441D01*
X116152886Y-105611441D02*
X116152886Y-105516203D01*
X116152886Y-105516203D02*
X116200505Y-105420965D01*
X116200505Y-105420965D02*
X116295743Y-105373346D01*
X116295743Y-105373346D02*
X116533838Y-105373346D01*
X116533838Y-105373346D02*
X116629076Y-105325727D01*
X117057648Y-105706680D02*
X117152886Y-105754299D01*
X117152886Y-105754299D02*
X117343362Y-105754299D01*
X117343362Y-105754299D02*
X117438600Y-105706680D01*
X117438600Y-105706680D02*
X117486219Y-105611441D01*
X117486219Y-105611441D02*
X117486219Y-105563822D01*
X117486219Y-105563822D02*
X117438600Y-105468584D01*
X117438600Y-105468584D02*
X117343362Y-105420965D01*
X117343362Y-105420965D02*
X117200505Y-105420965D01*
X117200505Y-105420965D02*
X117105267Y-105373346D01*
X117105267Y-105373346D02*
X117057648Y-105278108D01*
X117057648Y-105278108D02*
X117057648Y-105230489D01*
X117057648Y-105230489D02*
X117105267Y-105135251D01*
X117105267Y-105135251D02*
X117200505Y-105087632D01*
X117200505Y-105087632D02*
X117343362Y-105087632D01*
X117343362Y-105087632D02*
X117438600Y-105135251D01*
X118295743Y-105706680D02*
X118200505Y-105754299D01*
X118200505Y-105754299D02*
X118010029Y-105754299D01*
X118010029Y-105754299D02*
X117914791Y-105706680D01*
X117914791Y-105706680D02*
X117867172Y-105611441D01*
X117867172Y-105611441D02*
X117867172Y-105230489D01*
X117867172Y-105230489D02*
X117914791Y-105135251D01*
X117914791Y-105135251D02*
X118010029Y-105087632D01*
X118010029Y-105087632D02*
X118200505Y-105087632D01*
X118200505Y-105087632D02*
X118295743Y-105135251D01*
X118295743Y-105135251D02*
X118343362Y-105230489D01*
X118343362Y-105230489D02*
X118343362Y-105325727D01*
X118343362Y-105325727D02*
X117867172Y-105420965D01*
X119867172Y-105230489D02*
X120010029Y-105278108D01*
X120010029Y-105278108D02*
X120057648Y-105325727D01*
X120057648Y-105325727D02*
X120105267Y-105420965D01*
X120105267Y-105420965D02*
X120105267Y-105563822D01*
X120105267Y-105563822D02*
X120057648Y-105659060D01*
X120057648Y-105659060D02*
X120010029Y-105706680D01*
X120010029Y-105706680D02*
X119914791Y-105754299D01*
X119914791Y-105754299D02*
X119533839Y-105754299D01*
X119533839Y-105754299D02*
X119533839Y-104754299D01*
X119533839Y-104754299D02*
X119867172Y-104754299D01*
X119867172Y-104754299D02*
X119962410Y-104801918D01*
X119962410Y-104801918D02*
X120010029Y-104849537D01*
X120010029Y-104849537D02*
X120057648Y-104944775D01*
X120057648Y-104944775D02*
X120057648Y-105040013D01*
X120057648Y-105040013D02*
X120010029Y-105135251D01*
X120010029Y-105135251D02*
X119962410Y-105182870D01*
X119962410Y-105182870D02*
X119867172Y-105230489D01*
X119867172Y-105230489D02*
X119533839Y-105230489D01*
X120724315Y-104754299D02*
X120914791Y-104754299D01*
X120914791Y-104754299D02*
X121010029Y-104801918D01*
X121010029Y-104801918D02*
X121105267Y-104897156D01*
X121105267Y-104897156D02*
X121152886Y-105087632D01*
X121152886Y-105087632D02*
X121152886Y-105420965D01*
X121152886Y-105420965D02*
X121105267Y-105611441D01*
X121105267Y-105611441D02*
X121010029Y-105706680D01*
X121010029Y-105706680D02*
X120914791Y-105754299D01*
X120914791Y-105754299D02*
X120724315Y-105754299D01*
X120724315Y-105754299D02*
X120629077Y-105706680D01*
X120629077Y-105706680D02*
X120533839Y-105611441D01*
X120533839Y-105611441D02*
X120486220Y-105420965D01*
X120486220Y-105420965D02*
X120486220Y-105087632D01*
X120486220Y-105087632D02*
X120533839Y-104897156D01*
X120533839Y-104897156D02*
X120629077Y-104801918D01*
X120629077Y-104801918D02*
X120724315Y-104754299D01*
X121771934Y-104754299D02*
X121962410Y-104754299D01*
X121962410Y-104754299D02*
X122057648Y-104801918D01*
X122057648Y-104801918D02*
X122152886Y-104897156D01*
X122152886Y-104897156D02*
X122200505Y-105087632D01*
X122200505Y-105087632D02*
X122200505Y-105420965D01*
X122200505Y-105420965D02*
X122152886Y-105611441D01*
X122152886Y-105611441D02*
X122057648Y-105706680D01*
X122057648Y-105706680D02*
X121962410Y-105754299D01*
X121962410Y-105754299D02*
X121771934Y-105754299D01*
X121771934Y-105754299D02*
X121676696Y-105706680D01*
X121676696Y-105706680D02*
X121581458Y-105611441D01*
X121581458Y-105611441D02*
X121533839Y-105420965D01*
X121533839Y-105420965D02*
X121533839Y-105087632D01*
X121533839Y-105087632D02*
X121581458Y-104897156D01*
X121581458Y-104897156D02*
X121676696Y-104801918D01*
X121676696Y-104801918D02*
X121771934Y-104754299D01*
X122486220Y-104754299D02*
X123057648Y-104754299D01*
X122771934Y-105754299D02*
X122771934Y-104754299D01*
X88533834Y-106754299D02*
X88724310Y-106754299D01*
X88724310Y-106754299D02*
X88819548Y-106801918D01*
X88819548Y-106801918D02*
X88914786Y-106897156D01*
X88914786Y-106897156D02*
X88962405Y-107087632D01*
X88962405Y-107087632D02*
X88962405Y-107420965D01*
X88962405Y-107420965D02*
X88914786Y-107611441D01*
X88914786Y-107611441D02*
X88819548Y-107706680D01*
X88819548Y-107706680D02*
X88724310Y-107754299D01*
X88724310Y-107754299D02*
X88533834Y-107754299D01*
X88533834Y-107754299D02*
X88438596Y-107706680D01*
X88438596Y-107706680D02*
X88343358Y-107611441D01*
X88343358Y-107611441D02*
X88295739Y-107420965D01*
X88295739Y-107420965D02*
X88295739Y-107087632D01*
X88295739Y-107087632D02*
X88343358Y-106897156D01*
X88343358Y-106897156D02*
X88438596Y-106801918D01*
X88438596Y-106801918D02*
X88533834Y-106754299D01*
X89343358Y-107706680D02*
X89486215Y-107754299D01*
X89486215Y-107754299D02*
X89724310Y-107754299D01*
X89724310Y-107754299D02*
X89819548Y-107706680D01*
X89819548Y-107706680D02*
X89867167Y-107659060D01*
X89867167Y-107659060D02*
X89914786Y-107563822D01*
X89914786Y-107563822D02*
X89914786Y-107468584D01*
X89914786Y-107468584D02*
X89867167Y-107373346D01*
X89867167Y-107373346D02*
X89819548Y-107325727D01*
X89819548Y-107325727D02*
X89724310Y-107278108D01*
X89724310Y-107278108D02*
X89533834Y-107230489D01*
X89533834Y-107230489D02*
X89438596Y-107182870D01*
X89438596Y-107182870D02*
X89390977Y-107135251D01*
X89390977Y-107135251D02*
X89343358Y-107040013D01*
X89343358Y-107040013D02*
X89343358Y-106944775D01*
X89343358Y-106944775D02*
X89390977Y-106849537D01*
X89390977Y-106849537D02*
X89438596Y-106801918D01*
X89438596Y-106801918D02*
X89533834Y-106754299D01*
X89533834Y-106754299D02*
X89771929Y-106754299D01*
X89771929Y-106754299D02*
X89914786Y-106801918D01*
X90343358Y-107754299D02*
X90343358Y-106754299D01*
X90343358Y-107230489D02*
X90914786Y-107230489D01*
X90914786Y-107754299D02*
X90914786Y-106754299D01*
X91295739Y-106754299D02*
X91533834Y-107754299D01*
X91533834Y-107754299D02*
X91724310Y-107040013D01*
X91724310Y-107040013D02*
X91914786Y-107754299D01*
X91914786Y-107754299D02*
X92152882Y-106754299D01*
X93295739Y-107373346D02*
X94057644Y-107373346D01*
X95724310Y-107087632D02*
X95724310Y-107897156D01*
X95724310Y-107897156D02*
X95676691Y-107992394D01*
X95676691Y-107992394D02*
X95629072Y-108040013D01*
X95629072Y-108040013D02*
X95533834Y-108087632D01*
X95533834Y-108087632D02*
X95390977Y-108087632D01*
X95390977Y-108087632D02*
X95295739Y-108040013D01*
X95724310Y-107706680D02*
X95629072Y-107754299D01*
X95629072Y-107754299D02*
X95438596Y-107754299D01*
X95438596Y-107754299D02*
X95343358Y-107706680D01*
X95343358Y-107706680D02*
X95295739Y-107659060D01*
X95295739Y-107659060D02*
X95248120Y-107563822D01*
X95248120Y-107563822D02*
X95248120Y-107278108D01*
X95248120Y-107278108D02*
X95295739Y-107182870D01*
X95295739Y-107182870D02*
X95343358Y-107135251D01*
X95343358Y-107135251D02*
X95438596Y-107087632D01*
X95438596Y-107087632D02*
X95629072Y-107087632D01*
X95629072Y-107087632D02*
X95724310Y-107135251D01*
X96200501Y-107754299D02*
X96200501Y-107087632D01*
X96200501Y-106754299D02*
X96152882Y-106801918D01*
X96152882Y-106801918D02*
X96200501Y-106849537D01*
X96200501Y-106849537D02*
X96248120Y-106801918D01*
X96248120Y-106801918D02*
X96200501Y-106754299D01*
X96200501Y-106754299D02*
X96200501Y-106849537D01*
X96533834Y-107087632D02*
X96914786Y-107087632D01*
X96676691Y-106754299D02*
X96676691Y-107611441D01*
X96676691Y-107611441D02*
X96724310Y-107706680D01*
X96724310Y-107706680D02*
X96819548Y-107754299D01*
X96819548Y-107754299D02*
X96914786Y-107754299D01*
X97248120Y-107754299D02*
X97248120Y-106754299D01*
X97676691Y-107754299D02*
X97676691Y-107230489D01*
X97676691Y-107230489D02*
X97629072Y-107135251D01*
X97629072Y-107135251D02*
X97533834Y-107087632D01*
X97533834Y-107087632D02*
X97390977Y-107087632D01*
X97390977Y-107087632D02*
X97295739Y-107135251D01*
X97295739Y-107135251D02*
X97248120Y-107182870D01*
X98581453Y-107087632D02*
X98581453Y-107754299D01*
X98152882Y-107087632D02*
X98152882Y-107611441D01*
X98152882Y-107611441D02*
X98200501Y-107706680D01*
X98200501Y-107706680D02*
X98295739Y-107754299D01*
X98295739Y-107754299D02*
X98438596Y-107754299D01*
X98438596Y-107754299D02*
X98533834Y-107706680D01*
X98533834Y-107706680D02*
X98581453Y-107659060D01*
X99057644Y-107754299D02*
X99057644Y-106754299D01*
X99057644Y-107135251D02*
X99152882Y-107087632D01*
X99152882Y-107087632D02*
X99343358Y-107087632D01*
X99343358Y-107087632D02*
X99438596Y-107135251D01*
X99438596Y-107135251D02*
X99486215Y-107182870D01*
X99486215Y-107182870D02*
X99533834Y-107278108D01*
X99533834Y-107278108D02*
X99533834Y-107563822D01*
X99533834Y-107563822D02*
X99486215Y-107659060D01*
X99486215Y-107659060D02*
X99438596Y-107706680D01*
X99438596Y-107706680D02*
X99343358Y-107754299D01*
X99343358Y-107754299D02*
X99152882Y-107754299D01*
X99152882Y-107754299D02*
X99057644Y-107706680D01*
X99962406Y-107659060D02*
X100010025Y-107706680D01*
X100010025Y-107706680D02*
X99962406Y-107754299D01*
X99962406Y-107754299D02*
X99914787Y-107706680D01*
X99914787Y-107706680D02*
X99962406Y-107659060D01*
X99962406Y-107659060D02*
X99962406Y-107754299D01*
X100867167Y-107706680D02*
X100771929Y-107754299D01*
X100771929Y-107754299D02*
X100581453Y-107754299D01*
X100581453Y-107754299D02*
X100486215Y-107706680D01*
X100486215Y-107706680D02*
X100438596Y-107659060D01*
X100438596Y-107659060D02*
X100390977Y-107563822D01*
X100390977Y-107563822D02*
X100390977Y-107278108D01*
X100390977Y-107278108D02*
X100438596Y-107182870D01*
X100438596Y-107182870D02*
X100486215Y-107135251D01*
X100486215Y-107135251D02*
X100581453Y-107087632D01*
X100581453Y-107087632D02*
X100771929Y-107087632D01*
X100771929Y-107087632D02*
X100867167Y-107135251D01*
X101438596Y-107754299D02*
X101343358Y-107706680D01*
X101343358Y-107706680D02*
X101295739Y-107659060D01*
X101295739Y-107659060D02*
X101248120Y-107563822D01*
X101248120Y-107563822D02*
X101248120Y-107278108D01*
X101248120Y-107278108D02*
X101295739Y-107182870D01*
X101295739Y-107182870D02*
X101343358Y-107135251D01*
X101343358Y-107135251D02*
X101438596Y-107087632D01*
X101438596Y-107087632D02*
X101581453Y-107087632D01*
X101581453Y-107087632D02*
X101676691Y-107135251D01*
X101676691Y-107135251D02*
X101724310Y-107182870D01*
X101724310Y-107182870D02*
X101771929Y-107278108D01*
X101771929Y-107278108D02*
X101771929Y-107563822D01*
X101771929Y-107563822D02*
X101724310Y-107659060D01*
X101724310Y-107659060D02*
X101676691Y-107706680D01*
X101676691Y-107706680D02*
X101581453Y-107754299D01*
X101581453Y-107754299D02*
X101438596Y-107754299D01*
X102200501Y-107754299D02*
X102200501Y-107087632D01*
X102200501Y-107182870D02*
X102248120Y-107135251D01*
X102248120Y-107135251D02*
X102343358Y-107087632D01*
X102343358Y-107087632D02*
X102486215Y-107087632D01*
X102486215Y-107087632D02*
X102581453Y-107135251D01*
X102581453Y-107135251D02*
X102629072Y-107230489D01*
X102629072Y-107230489D02*
X102629072Y-107754299D01*
X102629072Y-107230489D02*
X102676691Y-107135251D01*
X102676691Y-107135251D02*
X102771929Y-107087632D01*
X102771929Y-107087632D02*
X102914786Y-107087632D01*
X102914786Y-107087632D02*
X103010025Y-107135251D01*
X103010025Y-107135251D02*
X103057644Y-107230489D01*
X103057644Y-107230489D02*
X103057644Y-107754299D01*
X104248119Y-106706680D02*
X103390977Y-107992394D01*
X104914786Y-107230489D02*
X105057643Y-107278108D01*
X105057643Y-107278108D02*
X105105262Y-107325727D01*
X105105262Y-107325727D02*
X105152881Y-107420965D01*
X105152881Y-107420965D02*
X105152881Y-107563822D01*
X105152881Y-107563822D02*
X105105262Y-107659060D01*
X105105262Y-107659060D02*
X105057643Y-107706680D01*
X105057643Y-107706680D02*
X104962405Y-107754299D01*
X104962405Y-107754299D02*
X104581453Y-107754299D01*
X104581453Y-107754299D02*
X104581453Y-106754299D01*
X104581453Y-106754299D02*
X104914786Y-106754299D01*
X104914786Y-106754299D02*
X105010024Y-106801918D01*
X105010024Y-106801918D02*
X105057643Y-106849537D01*
X105057643Y-106849537D02*
X105105262Y-106944775D01*
X105105262Y-106944775D02*
X105105262Y-107040013D01*
X105105262Y-107040013D02*
X105057643Y-107135251D01*
X105057643Y-107135251D02*
X105010024Y-107182870D01*
X105010024Y-107182870D02*
X104914786Y-107230489D01*
X104914786Y-107230489D02*
X104581453Y-107230489D01*
X105581453Y-107754299D02*
X105581453Y-107087632D01*
X105581453Y-107278108D02*
X105629072Y-107182870D01*
X105629072Y-107182870D02*
X105676691Y-107135251D01*
X105676691Y-107135251D02*
X105771929Y-107087632D01*
X105771929Y-107087632D02*
X105867167Y-107087632D01*
X106200501Y-107754299D02*
X106200501Y-107087632D01*
X106200501Y-106754299D02*
X106152882Y-106801918D01*
X106152882Y-106801918D02*
X106200501Y-106849537D01*
X106200501Y-106849537D02*
X106248120Y-106801918D01*
X106248120Y-106801918D02*
X106200501Y-106754299D01*
X106200501Y-106754299D02*
X106200501Y-106849537D01*
X106819548Y-107754299D02*
X106724310Y-107706680D01*
X106724310Y-107706680D02*
X106676691Y-107611441D01*
X106676691Y-107611441D02*
X106676691Y-106754299D01*
X107343358Y-107754299D02*
X107248120Y-107706680D01*
X107248120Y-107706680D02*
X107200501Y-107611441D01*
X107200501Y-107611441D02*
X107200501Y-106754299D01*
X108152882Y-107754299D02*
X108152882Y-107230489D01*
X108152882Y-107230489D02*
X108105263Y-107135251D01*
X108105263Y-107135251D02*
X108010025Y-107087632D01*
X108010025Y-107087632D02*
X107819549Y-107087632D01*
X107819549Y-107087632D02*
X107724311Y-107135251D01*
X108152882Y-107706680D02*
X108057644Y-107754299D01*
X108057644Y-107754299D02*
X107819549Y-107754299D01*
X107819549Y-107754299D02*
X107724311Y-107706680D01*
X107724311Y-107706680D02*
X107676692Y-107611441D01*
X107676692Y-107611441D02*
X107676692Y-107516203D01*
X107676692Y-107516203D02*
X107724311Y-107420965D01*
X107724311Y-107420965D02*
X107819549Y-107373346D01*
X107819549Y-107373346D02*
X108057644Y-107373346D01*
X108057644Y-107373346D02*
X108152882Y-107325727D01*
X108629073Y-107754299D02*
X108629073Y-107087632D01*
X108629073Y-107278108D02*
X108676692Y-107182870D01*
X108676692Y-107182870D02*
X108724311Y-107135251D01*
X108724311Y-107135251D02*
X108819549Y-107087632D01*
X108819549Y-107087632D02*
X108914787Y-107087632D01*
X109438597Y-106754299D02*
X109533835Y-106754299D01*
X109533835Y-106754299D02*
X109629073Y-106801918D01*
X109629073Y-106801918D02*
X109676692Y-106849537D01*
X109676692Y-106849537D02*
X109724311Y-106944775D01*
X109724311Y-106944775D02*
X109771930Y-107135251D01*
X109771930Y-107135251D02*
X109771930Y-107373346D01*
X109771930Y-107373346D02*
X109724311Y-107563822D01*
X109724311Y-107563822D02*
X109676692Y-107659060D01*
X109676692Y-107659060D02*
X109629073Y-107706680D01*
X109629073Y-107706680D02*
X109533835Y-107754299D01*
X109533835Y-107754299D02*
X109438597Y-107754299D01*
X109438597Y-107754299D02*
X109343359Y-107706680D01*
X109343359Y-107706680D02*
X109295740Y-107659060D01*
X109295740Y-107659060D02*
X109248121Y-107563822D01*
X109248121Y-107563822D02*
X109200502Y-107373346D01*
X109200502Y-107373346D02*
X109200502Y-107135251D01*
X109200502Y-107135251D02*
X109248121Y-106944775D01*
X109248121Y-106944775D02*
X109295740Y-106849537D01*
X109295740Y-106849537D02*
X109343359Y-106801918D01*
X109343359Y-106801918D02*
X109438597Y-106754299D01*
X110724311Y-107754299D02*
X110152883Y-107754299D01*
X110438597Y-107754299D02*
X110438597Y-106754299D01*
X110438597Y-106754299D02*
X110343359Y-106897156D01*
X110343359Y-106897156D02*
X110248121Y-106992394D01*
X110248121Y-106992394D02*
X110152883Y-107040013D01*
X111343359Y-106754299D02*
X111438597Y-106754299D01*
X111438597Y-106754299D02*
X111533835Y-106801918D01*
X111533835Y-106801918D02*
X111581454Y-106849537D01*
X111581454Y-106849537D02*
X111629073Y-106944775D01*
X111629073Y-106944775D02*
X111676692Y-107135251D01*
X111676692Y-107135251D02*
X111676692Y-107373346D01*
X111676692Y-107373346D02*
X111629073Y-107563822D01*
X111629073Y-107563822D02*
X111581454Y-107659060D01*
X111581454Y-107659060D02*
X111533835Y-107706680D01*
X111533835Y-107706680D02*
X111438597Y-107754299D01*
X111438597Y-107754299D02*
X111343359Y-107754299D01*
X111343359Y-107754299D02*
X111248121Y-107706680D01*
X111248121Y-107706680D02*
X111200502Y-107659060D01*
X111200502Y-107659060D02*
X111152883Y-107563822D01*
X111152883Y-107563822D02*
X111105264Y-107373346D01*
X111105264Y-107373346D02*
X111105264Y-107135251D01*
X111105264Y-107135251D02*
X111152883Y-106944775D01*
X111152883Y-106944775D02*
X111200502Y-106849537D01*
X111200502Y-106849537D02*
X111248121Y-106801918D01*
X111248121Y-106801918D02*
X111343359Y-106754299D01*
X112629073Y-107754299D02*
X112057645Y-107754299D01*
X112343359Y-107754299D02*
X112343359Y-106754299D01*
X112343359Y-106754299D02*
X112248121Y-106897156D01*
X112248121Y-106897156D02*
X112152883Y-106992394D01*
X112152883Y-106992394D02*
X112057645Y-107040013D01*
X761904Y-46954299D02*
X1380951Y-46954299D01*
X1380951Y-46954299D02*
X1047618Y-47335251D01*
X1047618Y-47335251D02*
X1190475Y-47335251D01*
X1190475Y-47335251D02*
X1285713Y-47382870D01*
X1285713Y-47382870D02*
X1333332Y-47430489D01*
X1333332Y-47430489D02*
X1380951Y-47525727D01*
X1380951Y-47525727D02*
X1380951Y-47763822D01*
X1380951Y-47763822D02*
X1333332Y-47859060D01*
X1333332Y-47859060D02*
X1285713Y-47906680D01*
X1285713Y-47906680D02*
X1190475Y-47954299D01*
X1190475Y-47954299D02*
X904761Y-47954299D01*
X904761Y-47954299D02*
X809523Y-47906680D01*
X809523Y-47906680D02*
X761904Y-47859060D01*
X1666666Y-46954299D02*
X1999999Y-47954299D01*
X1999999Y-47954299D02*
X2333332Y-46954299D01*
X2571428Y-46954299D02*
X3190475Y-46954299D01*
X3190475Y-46954299D02*
X2857142Y-47335251D01*
X2857142Y-47335251D02*
X2999999Y-47335251D01*
X2999999Y-47335251D02*
X3095237Y-47382870D01*
X3095237Y-47382870D02*
X3142856Y-47430489D01*
X3142856Y-47430489D02*
X3190475Y-47525727D01*
X3190475Y-47525727D02*
X3190475Y-47763822D01*
X3190475Y-47763822D02*
X3142856Y-47859060D01*
X3142856Y-47859060D02*
X3095237Y-47906680D01*
X3095237Y-47906680D02*
X2999999Y-47954299D01*
X2999999Y-47954299D02*
X2714285Y-47954299D01*
X2714285Y-47954299D02*
X2619047Y-47906680D01*
X2619047Y-47906680D02*
X2571428Y-47859060D01*
X4238095Y-46954299D02*
X4809523Y-46954299D01*
X4523809Y-47954299D02*
X4523809Y-46954299D01*
X5047619Y-46954299D02*
X5714285Y-47954299D01*
X5714285Y-46954299D02*
X5047619Y-47954299D01*
X7380952Y-47001918D02*
X7285714Y-46954299D01*
X7285714Y-46954299D02*
X7142857Y-46954299D01*
X7142857Y-46954299D02*
X7000000Y-47001918D01*
X7000000Y-47001918D02*
X6904762Y-47097156D01*
X6904762Y-47097156D02*
X6857143Y-47192394D01*
X6857143Y-47192394D02*
X6809524Y-47382870D01*
X6809524Y-47382870D02*
X6809524Y-47525727D01*
X6809524Y-47525727D02*
X6857143Y-47716203D01*
X6857143Y-47716203D02*
X6904762Y-47811441D01*
X6904762Y-47811441D02*
X7000000Y-47906680D01*
X7000000Y-47906680D02*
X7142857Y-47954299D01*
X7142857Y-47954299D02*
X7238095Y-47954299D01*
X7238095Y-47954299D02*
X7380952Y-47906680D01*
X7380952Y-47906680D02*
X7428571Y-47859060D01*
X7428571Y-47859060D02*
X7428571Y-47525727D01*
X7428571Y-47525727D02*
X7238095Y-47525727D01*
X7857143Y-47954299D02*
X7857143Y-46954299D01*
X7857143Y-46954299D02*
X8428571Y-47954299D01*
X8428571Y-47954299D02*
X8428571Y-46954299D01*
X8904762Y-47954299D02*
X8904762Y-46954299D01*
X8904762Y-46954299D02*
X9142857Y-46954299D01*
X9142857Y-46954299D02*
X9285714Y-47001918D01*
X9285714Y-47001918D02*
X9380952Y-47097156D01*
X9380952Y-47097156D02*
X9428571Y-47192394D01*
X9428571Y-47192394D02*
X9476190Y-47382870D01*
X9476190Y-47382870D02*
X9476190Y-47525727D01*
X9476190Y-47525727D02*
X9428571Y-47716203D01*
X9428571Y-47716203D02*
X9380952Y-47811441D01*
X9380952Y-47811441D02*
X9285714Y-47906680D01*
X9285714Y-47906680D02*
X9142857Y-47954299D01*
X9142857Y-47954299D02*
X8904762Y-47954299D01*
X11238095Y-47954299D02*
X10904762Y-47478108D01*
X10666667Y-47954299D02*
X10666667Y-46954299D01*
X10666667Y-46954299D02*
X11047619Y-46954299D01*
X11047619Y-46954299D02*
X11142857Y-47001918D01*
X11142857Y-47001918D02*
X11190476Y-47049537D01*
X11190476Y-47049537D02*
X11238095Y-47144775D01*
X11238095Y-47144775D02*
X11238095Y-47287632D01*
X11238095Y-47287632D02*
X11190476Y-47382870D01*
X11190476Y-47382870D02*
X11142857Y-47430489D01*
X11142857Y-47430489D02*
X11047619Y-47478108D01*
X11047619Y-47478108D02*
X10666667Y-47478108D01*
X11571429Y-46954299D02*
X12238095Y-47954299D01*
X12238095Y-46954299D02*
X11571429Y-47954299D01*
X32642857Y-29530489D02*
X32785714Y-29578108D01*
X32785714Y-29578108D02*
X32833333Y-29625727D01*
X32833333Y-29625727D02*
X32880952Y-29720965D01*
X32880952Y-29720965D02*
X32880952Y-29863822D01*
X32880952Y-29863822D02*
X32833333Y-29959060D01*
X32833333Y-29959060D02*
X32785714Y-30006680D01*
X32785714Y-30006680D02*
X32690476Y-30054299D01*
X32690476Y-30054299D02*
X32309524Y-30054299D01*
X32309524Y-30054299D02*
X32309524Y-29054299D01*
X32309524Y-29054299D02*
X32642857Y-29054299D01*
X32642857Y-29054299D02*
X32738095Y-29101918D01*
X32738095Y-29101918D02*
X32785714Y-29149537D01*
X32785714Y-29149537D02*
X32833333Y-29244775D01*
X32833333Y-29244775D02*
X32833333Y-29340013D01*
X32833333Y-29340013D02*
X32785714Y-29435251D01*
X32785714Y-29435251D02*
X32738095Y-29482870D01*
X32738095Y-29482870D02*
X32642857Y-29530489D01*
X32642857Y-29530489D02*
X32309524Y-29530489D01*
X33500000Y-29054299D02*
X33690476Y-29054299D01*
X33690476Y-29054299D02*
X33785714Y-29101918D01*
X33785714Y-29101918D02*
X33880952Y-29197156D01*
X33880952Y-29197156D02*
X33928571Y-29387632D01*
X33928571Y-29387632D02*
X33928571Y-29720965D01*
X33928571Y-29720965D02*
X33880952Y-29911441D01*
X33880952Y-29911441D02*
X33785714Y-30006680D01*
X33785714Y-30006680D02*
X33690476Y-30054299D01*
X33690476Y-30054299D02*
X33500000Y-30054299D01*
X33500000Y-30054299D02*
X33404762Y-30006680D01*
X33404762Y-30006680D02*
X33309524Y-29911441D01*
X33309524Y-29911441D02*
X33261905Y-29720965D01*
X33261905Y-29720965D02*
X33261905Y-29387632D01*
X33261905Y-29387632D02*
X33309524Y-29197156D01*
X33309524Y-29197156D02*
X33404762Y-29101918D01*
X33404762Y-29101918D02*
X33500000Y-29054299D01*
X34547619Y-29054299D02*
X34738095Y-29054299D01*
X34738095Y-29054299D02*
X34833333Y-29101918D01*
X34833333Y-29101918D02*
X34928571Y-29197156D01*
X34928571Y-29197156D02*
X34976190Y-29387632D01*
X34976190Y-29387632D02*
X34976190Y-29720965D01*
X34976190Y-29720965D02*
X34928571Y-29911441D01*
X34928571Y-29911441D02*
X34833333Y-30006680D01*
X34833333Y-30006680D02*
X34738095Y-30054299D01*
X34738095Y-30054299D02*
X34547619Y-30054299D01*
X34547619Y-30054299D02*
X34452381Y-30006680D01*
X34452381Y-30006680D02*
X34357143Y-29911441D01*
X34357143Y-29911441D02*
X34309524Y-29720965D01*
X34309524Y-29720965D02*
X34309524Y-29387632D01*
X34309524Y-29387632D02*
X34357143Y-29197156D01*
X34357143Y-29197156D02*
X34452381Y-29101918D01*
X34452381Y-29101918D02*
X34547619Y-29054299D01*
X35261905Y-29054299D02*
X35833333Y-29054299D01*
X35547619Y-30054299D02*
X35547619Y-29054299D01*
X38142857Y-9854299D02*
X38142857Y-8854299D01*
X38142857Y-8854299D02*
X38523809Y-8854299D01*
X38523809Y-8854299D02*
X38619047Y-8901918D01*
X38619047Y-8901918D02*
X38666666Y-8949537D01*
X38666666Y-8949537D02*
X38714285Y-9044775D01*
X38714285Y-9044775D02*
X38714285Y-9187632D01*
X38714285Y-9187632D02*
X38666666Y-9282870D01*
X38666666Y-9282870D02*
X38619047Y-9330489D01*
X38619047Y-9330489D02*
X38523809Y-9378108D01*
X38523809Y-9378108D02*
X38142857Y-9378108D01*
X39000000Y-8854299D02*
X39571428Y-8854299D01*
X39285714Y-9854299D02*
X39285714Y-8854299D01*
X39761905Y-8854299D02*
X40333333Y-8854299D01*
X40047619Y-9854299D02*
X40047619Y-8854299D01*
X41285715Y-8854299D02*
X41857143Y-8854299D01*
X41571429Y-9854299D02*
X41571429Y-8854299D01*
X42380953Y-8854299D02*
X42571429Y-8854299D01*
X42571429Y-8854299D02*
X42666667Y-8901918D01*
X42666667Y-8901918D02*
X42761905Y-8997156D01*
X42761905Y-8997156D02*
X42809524Y-9187632D01*
X42809524Y-9187632D02*
X42809524Y-9520965D01*
X42809524Y-9520965D02*
X42761905Y-9711441D01*
X42761905Y-9711441D02*
X42666667Y-9806680D01*
X42666667Y-9806680D02*
X42571429Y-9854299D01*
X42571429Y-9854299D02*
X42380953Y-9854299D01*
X42380953Y-9854299D02*
X42285715Y-9806680D01*
X42285715Y-9806680D02*
X42190477Y-9711441D01*
X42190477Y-9711441D02*
X42142858Y-9520965D01*
X42142858Y-9520965D02*
X42142858Y-9187632D01*
X42142858Y-9187632D02*
X42190477Y-8997156D01*
X42190477Y-8997156D02*
X42285715Y-8901918D01*
X42285715Y-8901918D02*
X42380953Y-8854299D01*
X43238096Y-8854299D02*
X43238096Y-9663822D01*
X43238096Y-9663822D02*
X43285715Y-9759060D01*
X43285715Y-9759060D02*
X43333334Y-9806680D01*
X43333334Y-9806680D02*
X43428572Y-9854299D01*
X43428572Y-9854299D02*
X43619048Y-9854299D01*
X43619048Y-9854299D02*
X43714286Y-9806680D01*
X43714286Y-9806680D02*
X43761905Y-9759060D01*
X43761905Y-9759060D02*
X43809524Y-9663822D01*
X43809524Y-9663822D02*
X43809524Y-8854299D01*
X44857143Y-9759060D02*
X44809524Y-9806680D01*
X44809524Y-9806680D02*
X44666667Y-9854299D01*
X44666667Y-9854299D02*
X44571429Y-9854299D01*
X44571429Y-9854299D02*
X44428572Y-9806680D01*
X44428572Y-9806680D02*
X44333334Y-9711441D01*
X44333334Y-9711441D02*
X44285715Y-9616203D01*
X44285715Y-9616203D02*
X44238096Y-9425727D01*
X44238096Y-9425727D02*
X44238096Y-9282870D01*
X44238096Y-9282870D02*
X44285715Y-9092394D01*
X44285715Y-9092394D02*
X44333334Y-8997156D01*
X44333334Y-8997156D02*
X44428572Y-8901918D01*
X44428572Y-8901918D02*
X44571429Y-8854299D01*
X44571429Y-8854299D02*
X44666667Y-8854299D01*
X44666667Y-8854299D02*
X44809524Y-8901918D01*
X44809524Y-8901918D02*
X44857143Y-8949537D01*
X45285715Y-9854299D02*
X45285715Y-8854299D01*
X45285715Y-9330489D02*
X45857143Y-9330489D01*
X45857143Y-9854299D02*
X45857143Y-8854299D01*
X43452380Y-30054299D02*
X43119047Y-29578108D01*
X42880952Y-30054299D02*
X42880952Y-29054299D01*
X42880952Y-29054299D02*
X43261904Y-29054299D01*
X43261904Y-29054299D02*
X43357142Y-29101918D01*
X43357142Y-29101918D02*
X43404761Y-29149537D01*
X43404761Y-29149537D02*
X43452380Y-29244775D01*
X43452380Y-29244775D02*
X43452380Y-29387632D01*
X43452380Y-29387632D02*
X43404761Y-29482870D01*
X43404761Y-29482870D02*
X43357142Y-29530489D01*
X43357142Y-29530489D02*
X43261904Y-29578108D01*
X43261904Y-29578108D02*
X42880952Y-29578108D01*
X43833333Y-30006680D02*
X43976190Y-30054299D01*
X43976190Y-30054299D02*
X44214285Y-30054299D01*
X44214285Y-30054299D02*
X44309523Y-30006680D01*
X44309523Y-30006680D02*
X44357142Y-29959060D01*
X44357142Y-29959060D02*
X44404761Y-29863822D01*
X44404761Y-29863822D02*
X44404761Y-29768584D01*
X44404761Y-29768584D02*
X44357142Y-29673346D01*
X44357142Y-29673346D02*
X44309523Y-29625727D01*
X44309523Y-29625727D02*
X44214285Y-29578108D01*
X44214285Y-29578108D02*
X44023809Y-29530489D01*
X44023809Y-29530489D02*
X43928571Y-29482870D01*
X43928571Y-29482870D02*
X43880952Y-29435251D01*
X43880952Y-29435251D02*
X43833333Y-29340013D01*
X43833333Y-29340013D02*
X43833333Y-29244775D01*
X43833333Y-29244775D02*
X43880952Y-29149537D01*
X43880952Y-29149537D02*
X43928571Y-29101918D01*
X43928571Y-29101918D02*
X44023809Y-29054299D01*
X44023809Y-29054299D02*
X44261904Y-29054299D01*
X44261904Y-29054299D02*
X44404761Y-29101918D01*
X44690476Y-29054299D02*
X45261904Y-29054299D01*
X44976190Y-30054299D02*
X44976190Y-29054299D01*
X72619048Y-9654299D02*
X72619048Y-10463822D01*
X72619048Y-10463822D02*
X72666667Y-10559060D01*
X72666667Y-10559060D02*
X72714286Y-10606680D01*
X72714286Y-10606680D02*
X72809524Y-10654299D01*
X72809524Y-10654299D02*
X73000000Y-10654299D01*
X73000000Y-10654299D02*
X73095238Y-10606680D01*
X73095238Y-10606680D02*
X73142857Y-10559060D01*
X73142857Y-10559060D02*
X73190476Y-10463822D01*
X73190476Y-10463822D02*
X73190476Y-9654299D01*
X73619048Y-10606680D02*
X73761905Y-10654299D01*
X73761905Y-10654299D02*
X74000000Y-10654299D01*
X74000000Y-10654299D02*
X74095238Y-10606680D01*
X74095238Y-10606680D02*
X74142857Y-10559060D01*
X74142857Y-10559060D02*
X74190476Y-10463822D01*
X74190476Y-10463822D02*
X74190476Y-10368584D01*
X74190476Y-10368584D02*
X74142857Y-10273346D01*
X74142857Y-10273346D02*
X74095238Y-10225727D01*
X74095238Y-10225727D02*
X74000000Y-10178108D01*
X74000000Y-10178108D02*
X73809524Y-10130489D01*
X73809524Y-10130489D02*
X73714286Y-10082870D01*
X73714286Y-10082870D02*
X73666667Y-10035251D01*
X73666667Y-10035251D02*
X73619048Y-9940013D01*
X73619048Y-9940013D02*
X73619048Y-9844775D01*
X73619048Y-9844775D02*
X73666667Y-9749537D01*
X73666667Y-9749537D02*
X73714286Y-9701918D01*
X73714286Y-9701918D02*
X73809524Y-9654299D01*
X73809524Y-9654299D02*
X74047619Y-9654299D01*
X74047619Y-9654299D02*
X74190476Y-9701918D01*
X74952381Y-10130489D02*
X75095238Y-10178108D01*
X75095238Y-10178108D02*
X75142857Y-10225727D01*
X75142857Y-10225727D02*
X75190476Y-10320965D01*
X75190476Y-10320965D02*
X75190476Y-10463822D01*
X75190476Y-10463822D02*
X75142857Y-10559060D01*
X75142857Y-10559060D02*
X75095238Y-10606680D01*
X75095238Y-10606680D02*
X75000000Y-10654299D01*
X75000000Y-10654299D02*
X74619048Y-10654299D01*
X74619048Y-10654299D02*
X74619048Y-9654299D01*
X74619048Y-9654299D02*
X74952381Y-9654299D01*
X74952381Y-9654299D02*
X75047619Y-9701918D01*
X75047619Y-9701918D02*
X75095238Y-9749537D01*
X75095238Y-9749537D02*
X75142857Y-9844775D01*
X75142857Y-9844775D02*
X75142857Y-9940013D01*
X75142857Y-9940013D02*
X75095238Y-10035251D01*
X75095238Y-10035251D02*
X75047619Y-10082870D01*
X75047619Y-10082870D02*
X74952381Y-10130489D01*
X74952381Y-10130489D02*
X74619048Y-10130489D01*
X75619048Y-10273346D02*
X76380953Y-10273346D01*
X77428571Y-10559060D02*
X77380952Y-10606680D01*
X77380952Y-10606680D02*
X77238095Y-10654299D01*
X77238095Y-10654299D02*
X77142857Y-10654299D01*
X77142857Y-10654299D02*
X77000000Y-10606680D01*
X77000000Y-10606680D02*
X76904762Y-10511441D01*
X76904762Y-10511441D02*
X76857143Y-10416203D01*
X76857143Y-10416203D02*
X76809524Y-10225727D01*
X76809524Y-10225727D02*
X76809524Y-10082870D01*
X76809524Y-10082870D02*
X76857143Y-9892394D01*
X76857143Y-9892394D02*
X76904762Y-9797156D01*
X76904762Y-9797156D02*
X77000000Y-9701918D01*
X77000000Y-9701918D02*
X77142857Y-9654299D01*
X77142857Y-9654299D02*
X77238095Y-9654299D01*
X77238095Y-9654299D02*
X77380952Y-9701918D01*
X77380952Y-9701918D02*
X77428571Y-9749537D01*
X145166667Y-51954299D02*
X145166667Y-50954299D01*
X145166667Y-50954299D02*
X145547619Y-50954299D01*
X145547619Y-50954299D02*
X145642857Y-51001918D01*
X145642857Y-51001918D02*
X145690476Y-51049537D01*
X145690476Y-51049537D02*
X145738095Y-51144775D01*
X145738095Y-51144775D02*
X145738095Y-51287632D01*
X145738095Y-51287632D02*
X145690476Y-51382870D01*
X145690476Y-51382870D02*
X145642857Y-51430489D01*
X145642857Y-51430489D02*
X145547619Y-51478108D01*
X145547619Y-51478108D02*
X145166667Y-51478108D01*
X146071429Y-50954299D02*
X146309524Y-51954299D01*
X146309524Y-51954299D02*
X146500000Y-51240013D01*
X146500000Y-51240013D02*
X146690476Y-51954299D01*
X146690476Y-51954299D02*
X146928572Y-50954299D01*
X147880952Y-51954299D02*
X147547619Y-51478108D01*
X147309524Y-51954299D02*
X147309524Y-50954299D01*
X147309524Y-50954299D02*
X147690476Y-50954299D01*
X147690476Y-50954299D02*
X147785714Y-51001918D01*
X147785714Y-51001918D02*
X147833333Y-51049537D01*
X147833333Y-51049537D02*
X147880952Y-51144775D01*
X147880952Y-51144775D02*
X147880952Y-51287632D01*
X147880952Y-51287632D02*
X147833333Y-51382870D01*
X147833333Y-51382870D02*
X147785714Y-51430489D01*
X147785714Y-51430489D02*
X147690476Y-51478108D01*
X147690476Y-51478108D02*
X147309524Y-51478108D01*
X136609022Y-21430489D02*
X136751879Y-21478108D01*
X136751879Y-21478108D02*
X136799498Y-21525727D01*
X136799498Y-21525727D02*
X136847117Y-21620965D01*
X136847117Y-21620965D02*
X136847117Y-21763822D01*
X136847117Y-21763822D02*
X136799498Y-21859060D01*
X136799498Y-21859060D02*
X136751879Y-21906680D01*
X136751879Y-21906680D02*
X136656641Y-21954299D01*
X136656641Y-21954299D02*
X136275689Y-21954299D01*
X136275689Y-21954299D02*
X136275689Y-20954299D01*
X136275689Y-20954299D02*
X136609022Y-20954299D01*
X136609022Y-20954299D02*
X136704260Y-21001918D01*
X136704260Y-21001918D02*
X136751879Y-21049537D01*
X136751879Y-21049537D02*
X136799498Y-21144775D01*
X136799498Y-21144775D02*
X136799498Y-21240013D01*
X136799498Y-21240013D02*
X136751879Y-21335251D01*
X136751879Y-21335251D02*
X136704260Y-21382870D01*
X136704260Y-21382870D02*
X136609022Y-21430489D01*
X136609022Y-21430489D02*
X136275689Y-21430489D01*
X137228070Y-21668584D02*
X137704260Y-21668584D01*
X137132832Y-21954299D02*
X137466165Y-20954299D01*
X137466165Y-20954299D02*
X137799498Y-21954299D01*
X137989975Y-20954299D02*
X138561403Y-20954299D01*
X138275689Y-21954299D02*
X138275689Y-20954299D01*
X138894737Y-21573346D02*
X139656642Y-21573346D01*
X139275689Y-21954299D02*
X139275689Y-21192394D01*
X137609022Y-25001918D02*
X137513784Y-24954299D01*
X137513784Y-24954299D02*
X137370927Y-24954299D01*
X137370927Y-24954299D02*
X137228070Y-25001918D01*
X137228070Y-25001918D02*
X137132832Y-25097156D01*
X137132832Y-25097156D02*
X137085213Y-25192394D01*
X137085213Y-25192394D02*
X137037594Y-25382870D01*
X137037594Y-25382870D02*
X137037594Y-25525727D01*
X137037594Y-25525727D02*
X137085213Y-25716203D01*
X137085213Y-25716203D02*
X137132832Y-25811441D01*
X137132832Y-25811441D02*
X137228070Y-25906680D01*
X137228070Y-25906680D02*
X137370927Y-25954299D01*
X137370927Y-25954299D02*
X137466165Y-25954299D01*
X137466165Y-25954299D02*
X137609022Y-25906680D01*
X137609022Y-25906680D02*
X137656641Y-25859060D01*
X137656641Y-25859060D02*
X137656641Y-25525727D01*
X137656641Y-25525727D02*
X137466165Y-25525727D01*
X138085213Y-25954299D02*
X138085213Y-24954299D01*
X138085213Y-24954299D02*
X138656641Y-25954299D01*
X138656641Y-25954299D02*
X138656641Y-24954299D01*
X139132832Y-25954299D02*
X139132832Y-24954299D01*
X139132832Y-24954299D02*
X139370927Y-24954299D01*
X139370927Y-24954299D02*
X139513784Y-25001918D01*
X139513784Y-25001918D02*
X139609022Y-25097156D01*
X139609022Y-25097156D02*
X139656641Y-25192394D01*
X139656641Y-25192394D02*
X139704260Y-25382870D01*
X139704260Y-25382870D02*
X139704260Y-25525727D01*
X139704260Y-25525727D02*
X139656641Y-25716203D01*
X139656641Y-25716203D02*
X139609022Y-25811441D01*
X139609022Y-25811441D02*
X139513784Y-25906680D01*
X139513784Y-25906680D02*
X139370927Y-25954299D01*
X139370927Y-25954299D02*
X139132832Y-25954299D01*
D11*
X25492606Y-106872209D02*
X25416415Y-106948400D01*
X25416415Y-106948400D02*
X25187844Y-107024590D01*
X25187844Y-107024590D02*
X25035463Y-107024590D01*
X25035463Y-107024590D02*
X24806891Y-106948400D01*
X24806891Y-106948400D02*
X24654510Y-106796019D01*
X24654510Y-106796019D02*
X24578320Y-106643638D01*
X24578320Y-106643638D02*
X24502129Y-106338876D01*
X24502129Y-106338876D02*
X24502129Y-106110304D01*
X24502129Y-106110304D02*
X24578320Y-105805542D01*
X24578320Y-105805542D02*
X24654510Y-105653161D01*
X24654510Y-105653161D02*
X24806891Y-105500780D01*
X24806891Y-105500780D02*
X25035463Y-105424590D01*
X25035463Y-105424590D02*
X25187844Y-105424590D01*
X25187844Y-105424590D02*
X25416415Y-105500780D01*
X25416415Y-105500780D02*
X25492606Y-105576971D01*
X26406891Y-107024590D02*
X26254510Y-106948400D01*
X26254510Y-106948400D02*
X26178320Y-106796019D01*
X26178320Y-106796019D02*
X26178320Y-105424590D01*
X27702129Y-107024590D02*
X27702129Y-106186495D01*
X27702129Y-106186495D02*
X27625939Y-106034114D01*
X27625939Y-106034114D02*
X27473558Y-105957923D01*
X27473558Y-105957923D02*
X27168796Y-105957923D01*
X27168796Y-105957923D02*
X27016415Y-106034114D01*
X27702129Y-106948400D02*
X27549748Y-107024590D01*
X27549748Y-107024590D02*
X27168796Y-107024590D01*
X27168796Y-107024590D02*
X27016415Y-106948400D01*
X27016415Y-106948400D02*
X26940224Y-106796019D01*
X26940224Y-106796019D02*
X26940224Y-106643638D01*
X26940224Y-106643638D02*
X27016415Y-106491257D01*
X27016415Y-106491257D02*
X27168796Y-106415066D01*
X27168796Y-106415066D02*
X27549748Y-106415066D01*
X27549748Y-106415066D02*
X27702129Y-106338876D01*
X29149748Y-105957923D02*
X29149748Y-107024590D01*
X28464034Y-105957923D02*
X28464034Y-106796019D01*
X28464034Y-106796019D02*
X28540224Y-106948400D01*
X28540224Y-106948400D02*
X28692605Y-107024590D01*
X28692605Y-107024590D02*
X28921177Y-107024590D01*
X28921177Y-107024590D02*
X29073558Y-106948400D01*
X29073558Y-106948400D02*
X29149748Y-106872209D01*
X30597367Y-107024590D02*
X30597367Y-105424590D01*
X30597367Y-106948400D02*
X30444986Y-107024590D01*
X30444986Y-107024590D02*
X30140224Y-107024590D01*
X30140224Y-107024590D02*
X29987843Y-106948400D01*
X29987843Y-106948400D02*
X29911653Y-106872209D01*
X29911653Y-106872209D02*
X29835462Y-106719828D01*
X29835462Y-106719828D02*
X29835462Y-106262685D01*
X29835462Y-106262685D02*
X29911653Y-106110304D01*
X29911653Y-106110304D02*
X29987843Y-106034114D01*
X29987843Y-106034114D02*
X30140224Y-105957923D01*
X30140224Y-105957923D02*
X30444986Y-105957923D01*
X30444986Y-105957923D02*
X30597367Y-106034114D01*
X31968796Y-106948400D02*
X31816415Y-107024590D01*
X31816415Y-107024590D02*
X31511653Y-107024590D01*
X31511653Y-107024590D02*
X31359272Y-106948400D01*
X31359272Y-106948400D02*
X31283081Y-106796019D01*
X31283081Y-106796019D02*
X31283081Y-106186495D01*
X31283081Y-106186495D02*
X31359272Y-106034114D01*
X31359272Y-106034114D02*
X31511653Y-105957923D01*
X31511653Y-105957923D02*
X31816415Y-105957923D01*
X31816415Y-105957923D02*
X31968796Y-106034114D01*
X31968796Y-106034114D02*
X32044986Y-106186495D01*
X32044986Y-106186495D02*
X32044986Y-106338876D01*
X32044986Y-106338876D02*
X31283081Y-106491257D01*
X32730701Y-107024590D02*
X32730701Y-105424590D01*
X32730701Y-105424590D02*
X33264034Y-106567447D01*
X33264034Y-106567447D02*
X33797368Y-105424590D01*
X33797368Y-105424590D02*
X33797368Y-107024590D01*
X34559272Y-107024590D02*
X34559272Y-105957923D01*
X34559272Y-105424590D02*
X34483081Y-105500780D01*
X34483081Y-105500780D02*
X34559272Y-105576971D01*
X34559272Y-105576971D02*
X34635462Y-105500780D01*
X34635462Y-105500780D02*
X34559272Y-105424590D01*
X34559272Y-105424590D02*
X34559272Y-105576971D01*
X36006891Y-106948400D02*
X35854510Y-107024590D01*
X35854510Y-107024590D02*
X35549748Y-107024590D01*
X35549748Y-107024590D02*
X35397367Y-106948400D01*
X35397367Y-106948400D02*
X35321177Y-106872209D01*
X35321177Y-106872209D02*
X35244986Y-106719828D01*
X35244986Y-106719828D02*
X35244986Y-106262685D01*
X35244986Y-106262685D02*
X35321177Y-106110304D01*
X35321177Y-106110304D02*
X35397367Y-106034114D01*
X35397367Y-106034114D02*
X35549748Y-105957923D01*
X35549748Y-105957923D02*
X35854510Y-105957923D01*
X35854510Y-105957923D02*
X36006891Y-106034114D01*
X36692606Y-107024590D02*
X36692606Y-105957923D01*
X36692606Y-106262685D02*
X36768796Y-106110304D01*
X36768796Y-106110304D02*
X36844987Y-106034114D01*
X36844987Y-106034114D02*
X36997368Y-105957923D01*
X36997368Y-105957923D02*
X37149749Y-105957923D01*
X37911653Y-107024590D02*
X37759272Y-106948400D01*
X37759272Y-106948400D02*
X37683082Y-106872209D01*
X37683082Y-106872209D02*
X37606891Y-106719828D01*
X37606891Y-106719828D02*
X37606891Y-106262685D01*
X37606891Y-106262685D02*
X37683082Y-106110304D01*
X37683082Y-106110304D02*
X37759272Y-106034114D01*
X37759272Y-106034114D02*
X37911653Y-105957923D01*
X37911653Y-105957923D02*
X38140225Y-105957923D01*
X38140225Y-105957923D02*
X38292606Y-106034114D01*
X38292606Y-106034114D02*
X38368796Y-106110304D01*
X38368796Y-106110304D02*
X38444987Y-106262685D01*
X38444987Y-106262685D02*
X38444987Y-106719828D01*
X38444987Y-106719828D02*
X38368796Y-106872209D01*
X38368796Y-106872209D02*
X38292606Y-106948400D01*
X38292606Y-106948400D02*
X38140225Y-107024590D01*
X38140225Y-107024590D02*
X37911653Y-107024590D01*
X40121177Y-105424590D02*
X40654511Y-107024590D01*
X40654511Y-107024590D02*
X41187844Y-105424590D01*
X41568797Y-105424590D02*
X42559273Y-105424590D01*
X42559273Y-105424590D02*
X42025940Y-106034114D01*
X42025940Y-106034114D02*
X42254511Y-106034114D01*
X42254511Y-106034114D02*
X42406892Y-106110304D01*
X42406892Y-106110304D02*
X42483083Y-106186495D01*
X42483083Y-106186495D02*
X42559273Y-106338876D01*
X42559273Y-106338876D02*
X42559273Y-106719828D01*
X42559273Y-106719828D02*
X42483083Y-106872209D01*
X42483083Y-106872209D02*
X42406892Y-106948400D01*
X42406892Y-106948400D02*
X42254511Y-107024590D01*
X42254511Y-107024590D02*
X41797368Y-107024590D01*
X41797368Y-107024590D02*
X41644987Y-106948400D01*
X41644987Y-106948400D02*
X41568797Y-106872209D01*
X44464036Y-106415066D02*
X45683084Y-106415066D01*
X47664036Y-105957923D02*
X47664036Y-107557923D01*
X47664036Y-106034114D02*
X47816417Y-105957923D01*
X47816417Y-105957923D02*
X48121179Y-105957923D01*
X48121179Y-105957923D02*
X48273560Y-106034114D01*
X48273560Y-106034114D02*
X48349750Y-106110304D01*
X48349750Y-106110304D02*
X48425941Y-106262685D01*
X48425941Y-106262685D02*
X48425941Y-106719828D01*
X48425941Y-106719828D02*
X48349750Y-106872209D01*
X48349750Y-106872209D02*
X48273560Y-106948400D01*
X48273560Y-106948400D02*
X48121179Y-107024590D01*
X48121179Y-107024590D02*
X47816417Y-107024590D01*
X47816417Y-107024590D02*
X47664036Y-106948400D01*
X49111655Y-107024590D02*
X49111655Y-105957923D01*
X49111655Y-106262685D02*
X49187845Y-106110304D01*
X49187845Y-106110304D02*
X49264036Y-106034114D01*
X49264036Y-106034114D02*
X49416417Y-105957923D01*
X49416417Y-105957923D02*
X49568798Y-105957923D01*
X50102131Y-107024590D02*
X50102131Y-105957923D01*
X50102131Y-105424590D02*
X50025940Y-105500780D01*
X50025940Y-105500780D02*
X50102131Y-105576971D01*
X50102131Y-105576971D02*
X50178321Y-105500780D01*
X50178321Y-105500780D02*
X50102131Y-105424590D01*
X50102131Y-105424590D02*
X50102131Y-105576971D01*
X50864036Y-105957923D02*
X50864036Y-107024590D01*
X50864036Y-106110304D02*
X50940226Y-106034114D01*
X50940226Y-106034114D02*
X51092607Y-105957923D01*
X51092607Y-105957923D02*
X51321179Y-105957923D01*
X51321179Y-105957923D02*
X51473560Y-106034114D01*
X51473560Y-106034114D02*
X51549750Y-106186495D01*
X51549750Y-106186495D02*
X51549750Y-107024590D01*
X52997369Y-106948400D02*
X52844988Y-107024590D01*
X52844988Y-107024590D02*
X52540226Y-107024590D01*
X52540226Y-107024590D02*
X52387845Y-106948400D01*
X52387845Y-106948400D02*
X52311655Y-106872209D01*
X52311655Y-106872209D02*
X52235464Y-106719828D01*
X52235464Y-106719828D02*
X52235464Y-106262685D01*
X52235464Y-106262685D02*
X52311655Y-106110304D01*
X52311655Y-106110304D02*
X52387845Y-106034114D01*
X52387845Y-106034114D02*
X52540226Y-105957923D01*
X52540226Y-105957923D02*
X52844988Y-105957923D01*
X52844988Y-105957923D02*
X52997369Y-106034114D01*
X54292608Y-106948400D02*
X54140227Y-107024590D01*
X54140227Y-107024590D02*
X53835465Y-107024590D01*
X53835465Y-107024590D02*
X53683084Y-106948400D01*
X53683084Y-106948400D02*
X53606893Y-106796019D01*
X53606893Y-106796019D02*
X53606893Y-106186495D01*
X53606893Y-106186495D02*
X53683084Y-106034114D01*
X53683084Y-106034114D02*
X53835465Y-105957923D01*
X53835465Y-105957923D02*
X54140227Y-105957923D01*
X54140227Y-105957923D02*
X54292608Y-106034114D01*
X54292608Y-106034114D02*
X54368798Y-106186495D01*
X54368798Y-106186495D02*
X54368798Y-106338876D01*
X54368798Y-106338876D02*
X53606893Y-106491257D01*
X54825941Y-105957923D02*
X55435465Y-105957923D01*
X55054513Y-105424590D02*
X55054513Y-106796019D01*
X55054513Y-106796019D02*
X55130703Y-106948400D01*
X55130703Y-106948400D02*
X55283084Y-107024590D01*
X55283084Y-107024590D02*
X55435465Y-107024590D01*
X56578323Y-106948400D02*
X56425942Y-107024590D01*
X56425942Y-107024590D02*
X56121180Y-107024590D01*
X56121180Y-107024590D02*
X55968799Y-106948400D01*
X55968799Y-106948400D02*
X55892608Y-106796019D01*
X55892608Y-106796019D02*
X55892608Y-106186495D01*
X55892608Y-106186495D02*
X55968799Y-106034114D01*
X55968799Y-106034114D02*
X56121180Y-105957923D01*
X56121180Y-105957923D02*
X56425942Y-105957923D01*
X56425942Y-105957923D02*
X56578323Y-106034114D01*
X56578323Y-106034114D02*
X56654513Y-106186495D01*
X56654513Y-106186495D02*
X56654513Y-106338876D01*
X56654513Y-106338876D02*
X55892608Y-106491257D01*
X57340228Y-107024590D02*
X57340228Y-105424590D01*
X57492609Y-106415066D02*
X57949752Y-107024590D01*
X57949752Y-105957923D02*
X57340228Y-106567447D01*
X58635466Y-107024590D02*
X58635466Y-105424590D01*
X58787847Y-106415066D02*
X59244990Y-107024590D01*
X59244990Y-105957923D02*
X58635466Y-106567447D01*
X59930704Y-107024590D02*
X59930704Y-105957923D01*
X59930704Y-105424590D02*
X59854513Y-105500780D01*
X59854513Y-105500780D02*
X59930704Y-105576971D01*
X59930704Y-105576971D02*
X60006894Y-105500780D01*
X60006894Y-105500780D02*
X59930704Y-105424590D01*
X59930704Y-105424590D02*
X59930704Y-105576971D01*
X60692609Y-106872209D02*
X60768799Y-106948400D01*
X60768799Y-106948400D02*
X60692609Y-107024590D01*
X60692609Y-107024590D02*
X60616418Y-106948400D01*
X60616418Y-106948400D02*
X60692609Y-106872209D01*
X60692609Y-106872209D02*
X60692609Y-107024590D01*
X62140228Y-106948400D02*
X61987847Y-107024590D01*
X61987847Y-107024590D02*
X61683085Y-107024590D01*
X61683085Y-107024590D02*
X61530704Y-106948400D01*
X61530704Y-106948400D02*
X61454514Y-106872209D01*
X61454514Y-106872209D02*
X61378323Y-106719828D01*
X61378323Y-106719828D02*
X61378323Y-106262685D01*
X61378323Y-106262685D02*
X61454514Y-106110304D01*
X61454514Y-106110304D02*
X61530704Y-106034114D01*
X61530704Y-106034114D02*
X61683085Y-105957923D01*
X61683085Y-105957923D02*
X61987847Y-105957923D01*
X61987847Y-105957923D02*
X62140228Y-106034114D01*
X63054514Y-107024590D02*
X62902133Y-106948400D01*
X62902133Y-106948400D02*
X62825943Y-106872209D01*
X62825943Y-106872209D02*
X62749752Y-106719828D01*
X62749752Y-106719828D02*
X62749752Y-106262685D01*
X62749752Y-106262685D02*
X62825943Y-106110304D01*
X62825943Y-106110304D02*
X62902133Y-106034114D01*
X62902133Y-106034114D02*
X63054514Y-105957923D01*
X63054514Y-105957923D02*
X63283086Y-105957923D01*
X63283086Y-105957923D02*
X63435467Y-106034114D01*
X63435467Y-106034114D02*
X63511657Y-106110304D01*
X63511657Y-106110304D02*
X63587848Y-106262685D01*
X63587848Y-106262685D02*
X63587848Y-106719828D01*
X63587848Y-106719828D02*
X63511657Y-106872209D01*
X63511657Y-106872209D02*
X63435467Y-106948400D01*
X63435467Y-106948400D02*
X63283086Y-107024590D01*
X63283086Y-107024590D02*
X63054514Y-107024590D01*
X64273562Y-107024590D02*
X64273562Y-105957923D01*
X64273562Y-106110304D02*
X64349752Y-106034114D01*
X64349752Y-106034114D02*
X64502133Y-105957923D01*
X64502133Y-105957923D02*
X64730705Y-105957923D01*
X64730705Y-105957923D02*
X64883086Y-106034114D01*
X64883086Y-106034114D02*
X64959276Y-106186495D01*
X64959276Y-106186495D02*
X64959276Y-107024590D01*
X64959276Y-106186495D02*
X65035467Y-106034114D01*
X65035467Y-106034114D02*
X65187848Y-105957923D01*
X65187848Y-105957923D02*
X65416419Y-105957923D01*
X65416419Y-105957923D02*
X65568800Y-106034114D01*
X65568800Y-106034114D02*
X65644990Y-106186495D01*
X65644990Y-106186495D02*
X65644990Y-107024590D01*
D12*
X100190476Y-87407200D02*
X100333333Y-87454819D01*
X100333333Y-87454819D02*
X100571428Y-87454819D01*
X100571428Y-87454819D02*
X100666666Y-87407200D01*
X100666666Y-87407200D02*
X100714285Y-87359580D01*
X100714285Y-87359580D02*
X100761904Y-87264342D01*
X100761904Y-87264342D02*
X100761904Y-87169104D01*
X100761904Y-87169104D02*
X100714285Y-87073866D01*
X100714285Y-87073866D02*
X100666666Y-87026247D01*
X100666666Y-87026247D02*
X100571428Y-86978628D01*
X100571428Y-86978628D02*
X100380952Y-86931009D01*
X100380952Y-86931009D02*
X100285714Y-86883390D01*
X100285714Y-86883390D02*
X100238095Y-86835771D01*
X100238095Y-86835771D02*
X100190476Y-86740533D01*
X100190476Y-86740533D02*
X100190476Y-86645295D01*
X100190476Y-86645295D02*
X100238095Y-86550057D01*
X100238095Y-86550057D02*
X100285714Y-86502438D01*
X100285714Y-86502438D02*
X100380952Y-86454819D01*
X100380952Y-86454819D02*
X100619047Y-86454819D01*
X100619047Y-86454819D02*
X100761904Y-86502438D01*
X101095238Y-86454819D02*
X101333333Y-87454819D01*
X101333333Y-87454819D02*
X101523809Y-86740533D01*
X101523809Y-86740533D02*
X101714285Y-87454819D01*
X101714285Y-87454819D02*
X101952381Y-86454819D01*
X102285714Y-86550057D02*
X102333333Y-86502438D01*
X102333333Y-86502438D02*
X102428571Y-86454819D01*
X102428571Y-86454819D02*
X102666666Y-86454819D01*
X102666666Y-86454819D02*
X102761904Y-86502438D01*
X102761904Y-86502438D02*
X102809523Y-86550057D01*
X102809523Y-86550057D02*
X102857142Y-86645295D01*
X102857142Y-86645295D02*
X102857142Y-86740533D01*
X102857142Y-86740533D02*
X102809523Y-86883390D01*
X102809523Y-86883390D02*
X102238095Y-87454819D01*
X102238095Y-87454819D02*
X102857142Y-87454819D01*
X103190476Y-86454819D02*
X103809523Y-86454819D01*
X103809523Y-86454819D02*
X103476190Y-86835771D01*
X103476190Y-86835771D02*
X103619047Y-86835771D01*
X103619047Y-86835771D02*
X103714285Y-86883390D01*
X103714285Y-86883390D02*
X103761904Y-86931009D01*
X103761904Y-86931009D02*
X103809523Y-87026247D01*
X103809523Y-87026247D02*
X103809523Y-87264342D01*
X103809523Y-87264342D02*
X103761904Y-87359580D01*
X103761904Y-87359580D02*
X103714285Y-87407200D01*
X103714285Y-87407200D02*
X103619047Y-87454819D01*
X103619047Y-87454819D02*
X103333333Y-87454819D01*
X103333333Y-87454819D02*
X103238095Y-87407200D01*
X103238095Y-87407200D02*
X103190476Y-87359580D01*
X137333333Y-11679580D02*
X137285714Y-11727200D01*
X137285714Y-11727200D02*
X137142857Y-11774819D01*
X137142857Y-11774819D02*
X137047619Y-11774819D01*
X137047619Y-11774819D02*
X136904762Y-11727200D01*
X136904762Y-11727200D02*
X136809524Y-11631961D01*
X136809524Y-11631961D02*
X136761905Y-11536723D01*
X136761905Y-11536723D02*
X136714286Y-11346247D01*
X136714286Y-11346247D02*
X136714286Y-11203390D01*
X136714286Y-11203390D02*
X136761905Y-11012914D01*
X136761905Y-11012914D02*
X136809524Y-10917676D01*
X136809524Y-10917676D02*
X136904762Y-10822438D01*
X136904762Y-10822438D02*
X137047619Y-10774819D01*
X137047619Y-10774819D02*
X137142857Y-10774819D01*
X137142857Y-10774819D02*
X137285714Y-10822438D01*
X137285714Y-10822438D02*
X137333333Y-10870057D01*
X137666667Y-10774819D02*
X138333333Y-10774819D01*
X138333333Y-10774819D02*
X137904762Y-11774819D01*
X104833333Y-15524819D02*
X104500000Y-15048628D01*
X104261905Y-15524819D02*
X104261905Y-14524819D01*
X104261905Y-14524819D02*
X104642857Y-14524819D01*
X104642857Y-14524819D02*
X104738095Y-14572438D01*
X104738095Y-14572438D02*
X104785714Y-14620057D01*
X104785714Y-14620057D02*
X104833333Y-14715295D01*
X104833333Y-14715295D02*
X104833333Y-14858152D01*
X104833333Y-14858152D02*
X104785714Y-14953390D01*
X104785714Y-14953390D02*
X104738095Y-15001009D01*
X104738095Y-15001009D02*
X104642857Y-15048628D01*
X104642857Y-15048628D02*
X104261905Y-15048628D01*
X105166667Y-14524819D02*
X105785714Y-14524819D01*
X105785714Y-14524819D02*
X105452381Y-14905771D01*
X105452381Y-14905771D02*
X105595238Y-14905771D01*
X105595238Y-14905771D02*
X105690476Y-14953390D01*
X105690476Y-14953390D02*
X105738095Y-15001009D01*
X105738095Y-15001009D02*
X105785714Y-15096247D01*
X105785714Y-15096247D02*
X105785714Y-15334342D01*
X105785714Y-15334342D02*
X105738095Y-15429580D01*
X105738095Y-15429580D02*
X105690476Y-15477200D01*
X105690476Y-15477200D02*
X105595238Y-15524819D01*
X105595238Y-15524819D02*
X105309524Y-15524819D01*
X105309524Y-15524819D02*
X105214286Y-15477200D01*
X105214286Y-15477200D02*
X105166667Y-15429580D01*
X118190476Y-69407200D02*
X118333333Y-69454819D01*
X118333333Y-69454819D02*
X118571428Y-69454819D01*
X118571428Y-69454819D02*
X118666666Y-69407200D01*
X118666666Y-69407200D02*
X118714285Y-69359580D01*
X118714285Y-69359580D02*
X118761904Y-69264342D01*
X118761904Y-69264342D02*
X118761904Y-69169104D01*
X118761904Y-69169104D02*
X118714285Y-69073866D01*
X118714285Y-69073866D02*
X118666666Y-69026247D01*
X118666666Y-69026247D02*
X118571428Y-68978628D01*
X118571428Y-68978628D02*
X118380952Y-68931009D01*
X118380952Y-68931009D02*
X118285714Y-68883390D01*
X118285714Y-68883390D02*
X118238095Y-68835771D01*
X118238095Y-68835771D02*
X118190476Y-68740533D01*
X118190476Y-68740533D02*
X118190476Y-68645295D01*
X118190476Y-68645295D02*
X118238095Y-68550057D01*
X118238095Y-68550057D02*
X118285714Y-68502438D01*
X118285714Y-68502438D02*
X118380952Y-68454819D01*
X118380952Y-68454819D02*
X118619047Y-68454819D01*
X118619047Y-68454819D02*
X118761904Y-68502438D01*
X119095238Y-68454819D02*
X119333333Y-69454819D01*
X119333333Y-69454819D02*
X119523809Y-68740533D01*
X119523809Y-68740533D02*
X119714285Y-69454819D01*
X119714285Y-69454819D02*
X119952381Y-68454819D01*
X120857142Y-69454819D02*
X120285714Y-69454819D01*
X120571428Y-69454819D02*
X120571428Y-68454819D01*
X120571428Y-68454819D02*
X120476190Y-68597676D01*
X120476190Y-68597676D02*
X120380952Y-68692914D01*
X120380952Y-68692914D02*
X120285714Y-68740533D01*
X121428571Y-68883390D02*
X121333333Y-68835771D01*
X121333333Y-68835771D02*
X121285714Y-68788152D01*
X121285714Y-68788152D02*
X121238095Y-68692914D01*
X121238095Y-68692914D02*
X121238095Y-68645295D01*
X121238095Y-68645295D02*
X121285714Y-68550057D01*
X121285714Y-68550057D02*
X121333333Y-68502438D01*
X121333333Y-68502438D02*
X121428571Y-68454819D01*
X121428571Y-68454819D02*
X121619047Y-68454819D01*
X121619047Y-68454819D02*
X121714285Y-68502438D01*
X121714285Y-68502438D02*
X121761904Y-68550057D01*
X121761904Y-68550057D02*
X121809523Y-68645295D01*
X121809523Y-68645295D02*
X121809523Y-68692914D01*
X121809523Y-68692914D02*
X121761904Y-68788152D01*
X121761904Y-68788152D02*
X121714285Y-68835771D01*
X121714285Y-68835771D02*
X121619047Y-68883390D01*
X121619047Y-68883390D02*
X121428571Y-68883390D01*
X121428571Y-68883390D02*
X121333333Y-68931009D01*
X121333333Y-68931009D02*
X121285714Y-68978628D01*
X121285714Y-68978628D02*
X121238095Y-69073866D01*
X121238095Y-69073866D02*
X121238095Y-69264342D01*
X121238095Y-69264342D02*
X121285714Y-69359580D01*
X121285714Y-69359580D02*
X121333333Y-69407200D01*
X121333333Y-69407200D02*
X121428571Y-69454819D01*
X121428571Y-69454819D02*
X121619047Y-69454819D01*
X121619047Y-69454819D02*
X121714285Y-69407200D01*
X121714285Y-69407200D02*
X121761904Y-69359580D01*
X121761904Y-69359580D02*
X121809523Y-69264342D01*
X121809523Y-69264342D02*
X121809523Y-69073866D01*
X121809523Y-69073866D02*
X121761904Y-68978628D01*
X121761904Y-68978628D02*
X121714285Y-68931009D01*
X121714285Y-68931009D02*
X121619047Y-68883390D01*
X46190476Y-69407200D02*
X46333333Y-69454819D01*
X46333333Y-69454819D02*
X46571428Y-69454819D01*
X46571428Y-69454819D02*
X46666666Y-69407200D01*
X46666666Y-69407200D02*
X46714285Y-69359580D01*
X46714285Y-69359580D02*
X46761904Y-69264342D01*
X46761904Y-69264342D02*
X46761904Y-69169104D01*
X46761904Y-69169104D02*
X46714285Y-69073866D01*
X46714285Y-69073866D02*
X46666666Y-69026247D01*
X46666666Y-69026247D02*
X46571428Y-68978628D01*
X46571428Y-68978628D02*
X46380952Y-68931009D01*
X46380952Y-68931009D02*
X46285714Y-68883390D01*
X46285714Y-68883390D02*
X46238095Y-68835771D01*
X46238095Y-68835771D02*
X46190476Y-68740533D01*
X46190476Y-68740533D02*
X46190476Y-68645295D01*
X46190476Y-68645295D02*
X46238095Y-68550057D01*
X46238095Y-68550057D02*
X46285714Y-68502438D01*
X46285714Y-68502438D02*
X46380952Y-68454819D01*
X46380952Y-68454819D02*
X46619047Y-68454819D01*
X46619047Y-68454819D02*
X46761904Y-68502438D01*
X47095238Y-68454819D02*
X47333333Y-69454819D01*
X47333333Y-69454819D02*
X47523809Y-68740533D01*
X47523809Y-68740533D02*
X47714285Y-69454819D01*
X47714285Y-69454819D02*
X47952381Y-68454819D01*
X48857142Y-69454819D02*
X48285714Y-69454819D01*
X48571428Y-69454819D02*
X48571428Y-68454819D01*
X48571428Y-68454819D02*
X48476190Y-68597676D01*
X48476190Y-68597676D02*
X48380952Y-68692914D01*
X48380952Y-68692914D02*
X48285714Y-68740533D01*
X49714285Y-68788152D02*
X49714285Y-69454819D01*
X49476190Y-68407200D02*
X49238095Y-69121485D01*
X49238095Y-69121485D02*
X49857142Y-69121485D01*
X19238095Y3540180D02*
X19238095Y2730657D01*
X19238095Y2730657D02*
X19285714Y2635419D01*
X19285714Y2635419D02*
X19333333Y2587800D01*
X19333333Y2587800D02*
X19428571Y2540180D01*
X19428571Y2540180D02*
X19619047Y2540180D01*
X19619047Y2540180D02*
X19714285Y2587800D01*
X19714285Y2587800D02*
X19761904Y2635419D01*
X19761904Y2635419D02*
X19809523Y2730657D01*
X19809523Y2730657D02*
X19809523Y3540180D01*
X20809523Y2540180D02*
X20238095Y2540180D01*
X20523809Y2540180D02*
X20523809Y3540180D01*
X20523809Y3540180D02*
X20428571Y3397323D01*
X20428571Y3397323D02*
X20333333Y3302085D01*
X20333333Y3302085D02*
X20238095Y3254466D01*
X105238095Y-6054819D02*
X105238095Y-6864342D01*
X105238095Y-6864342D02*
X105285714Y-6959580D01*
X105285714Y-6959580D02*
X105333333Y-7007200D01*
X105333333Y-7007200D02*
X105428571Y-7054819D01*
X105428571Y-7054819D02*
X105619047Y-7054819D01*
X105619047Y-7054819D02*
X105714285Y-7007200D01*
X105714285Y-7007200D02*
X105761904Y-6959580D01*
X105761904Y-6959580D02*
X105809523Y-6864342D01*
X105809523Y-6864342D02*
X105809523Y-6054819D01*
X106714285Y-6388152D02*
X106714285Y-7054819D01*
X106476190Y-6007200D02*
X106238095Y-6721485D01*
X106238095Y-6721485D02*
X106857142Y-6721485D01*
X122785714Y-2954819D02*
X122785714Y-1954819D01*
X122785714Y-1954819D02*
X123023809Y-1954819D01*
X123023809Y-1954819D02*
X123166666Y-2002438D01*
X123166666Y-2002438D02*
X123261904Y-2097676D01*
X123261904Y-2097676D02*
X123309523Y-2192914D01*
X123309523Y-2192914D02*
X123357142Y-2383390D01*
X123357142Y-2383390D02*
X123357142Y-2526247D01*
X123357142Y-2526247D02*
X123309523Y-2716723D01*
X123309523Y-2716723D02*
X123261904Y-2811961D01*
X123261904Y-2811961D02*
X123166666Y-2907200D01*
X123166666Y-2907200D02*
X123023809Y-2954819D01*
X123023809Y-2954819D02*
X122785714Y-2954819D01*
X123738095Y-2050057D02*
X123785714Y-2002438D01*
X123785714Y-2002438D02*
X123880952Y-1954819D01*
X123880952Y-1954819D02*
X124119047Y-1954819D01*
X124119047Y-1954819D02*
X124214285Y-2002438D01*
X124214285Y-2002438D02*
X124261904Y-2050057D01*
X124261904Y-2050057D02*
X124309523Y-2145295D01*
X124309523Y-2145295D02*
X124309523Y-2240533D01*
X124309523Y-2240533D02*
X124261904Y-2383390D01*
X124261904Y-2383390D02*
X123690476Y-2954819D01*
X123690476Y-2954819D02*
X124309523Y-2954819D01*
X125214285Y-1954819D02*
X124738095Y-1954819D01*
X124738095Y-1954819D02*
X124690476Y-2431009D01*
X124690476Y-2431009D02*
X124738095Y-2383390D01*
X124738095Y-2383390D02*
X124833333Y-2335771D01*
X124833333Y-2335771D02*
X125071428Y-2335771D01*
X125071428Y-2335771D02*
X125166666Y-2383390D01*
X125166666Y-2383390D02*
X125214285Y-2431009D01*
X125214285Y-2431009D02*
X125261904Y-2526247D01*
X125261904Y-2526247D02*
X125261904Y-2764342D01*
X125261904Y-2764342D02*
X125214285Y-2859580D01*
X125214285Y-2859580D02*
X125166666Y-2907200D01*
X125166666Y-2907200D02*
X125071428Y-2954819D01*
X125071428Y-2954819D02*
X124833333Y-2954819D01*
X124833333Y-2954819D02*
X124738095Y-2907200D01*
X124738095Y-2907200D02*
X124690476Y-2859580D01*
X118190476Y-51407200D02*
X118333333Y-51454819D01*
X118333333Y-51454819D02*
X118571428Y-51454819D01*
X118571428Y-51454819D02*
X118666666Y-51407200D01*
X118666666Y-51407200D02*
X118714285Y-51359580D01*
X118714285Y-51359580D02*
X118761904Y-51264342D01*
X118761904Y-51264342D02*
X118761904Y-51169104D01*
X118761904Y-51169104D02*
X118714285Y-51073866D01*
X118714285Y-51073866D02*
X118666666Y-51026247D01*
X118666666Y-51026247D02*
X118571428Y-50978628D01*
X118571428Y-50978628D02*
X118380952Y-50931009D01*
X118380952Y-50931009D02*
X118285714Y-50883390D01*
X118285714Y-50883390D02*
X118238095Y-50835771D01*
X118238095Y-50835771D02*
X118190476Y-50740533D01*
X118190476Y-50740533D02*
X118190476Y-50645295D01*
X118190476Y-50645295D02*
X118238095Y-50550057D01*
X118238095Y-50550057D02*
X118285714Y-50502438D01*
X118285714Y-50502438D02*
X118380952Y-50454819D01*
X118380952Y-50454819D02*
X118619047Y-50454819D01*
X118619047Y-50454819D02*
X118761904Y-50502438D01*
X119095238Y-50454819D02*
X119333333Y-51454819D01*
X119333333Y-51454819D02*
X119523809Y-50740533D01*
X119523809Y-50740533D02*
X119714285Y-51454819D01*
X119714285Y-51454819D02*
X119952381Y-50454819D01*
X120857142Y-51454819D02*
X120285714Y-51454819D01*
X120571428Y-51454819D02*
X120571428Y-50454819D01*
X120571428Y-50454819D02*
X120476190Y-50597676D01*
X120476190Y-50597676D02*
X120380952Y-50692914D01*
X120380952Y-50692914D02*
X120285714Y-50740533D01*
X121238095Y-50550057D02*
X121285714Y-50502438D01*
X121285714Y-50502438D02*
X121380952Y-50454819D01*
X121380952Y-50454819D02*
X121619047Y-50454819D01*
X121619047Y-50454819D02*
X121714285Y-50502438D01*
X121714285Y-50502438D02*
X121761904Y-50550057D01*
X121761904Y-50550057D02*
X121809523Y-50645295D01*
X121809523Y-50645295D02*
X121809523Y-50740533D01*
X121809523Y-50740533D02*
X121761904Y-50883390D01*
X121761904Y-50883390D02*
X121190476Y-51454819D01*
X121190476Y-51454819D02*
X121809523Y-51454819D01*
X7333333Y-23524819D02*
X7000000Y-23048628D01*
X6761905Y-23524819D02*
X6761905Y-22524819D01*
X6761905Y-22524819D02*
X7142857Y-22524819D01*
X7142857Y-22524819D02*
X7238095Y-22572438D01*
X7238095Y-22572438D02*
X7285714Y-22620057D01*
X7285714Y-22620057D02*
X7333333Y-22715295D01*
X7333333Y-22715295D02*
X7333333Y-22858152D01*
X7333333Y-22858152D02*
X7285714Y-22953390D01*
X7285714Y-22953390D02*
X7238095Y-23001009D01*
X7238095Y-23001009D02*
X7142857Y-23048628D01*
X7142857Y-23048628D02*
X6761905Y-23048628D01*
X7809524Y-23524819D02*
X8000000Y-23524819D01*
X8000000Y-23524819D02*
X8095238Y-23477200D01*
X8095238Y-23477200D02*
X8142857Y-23429580D01*
X8142857Y-23429580D02*
X8238095Y-23286723D01*
X8238095Y-23286723D02*
X8285714Y-23096247D01*
X8285714Y-23096247D02*
X8285714Y-22715295D01*
X8285714Y-22715295D02*
X8238095Y-22620057D01*
X8238095Y-22620057D02*
X8190476Y-22572438D01*
X8190476Y-22572438D02*
X8095238Y-22524819D01*
X8095238Y-22524819D02*
X7904762Y-22524819D01*
X7904762Y-22524819D02*
X7809524Y-22572438D01*
X7809524Y-22572438D02*
X7761905Y-22620057D01*
X7761905Y-22620057D02*
X7714286Y-22715295D01*
X7714286Y-22715295D02*
X7714286Y-22953390D01*
X7714286Y-22953390D02*
X7761905Y-23048628D01*
X7761905Y-23048628D02*
X7809524Y-23096247D01*
X7809524Y-23096247D02*
X7904762Y-23143866D01*
X7904762Y-23143866D02*
X8095238Y-23143866D01*
X8095238Y-23143866D02*
X8190476Y-23096247D01*
X8190476Y-23096247D02*
X8238095Y-23048628D01*
X8238095Y-23048628D02*
X8285714Y-22953390D01*
X126833333Y-16024819D02*
X126500000Y-15548628D01*
X126261905Y-16024819D02*
X126261905Y-15024819D01*
X126261905Y-15024819D02*
X126642857Y-15024819D01*
X126642857Y-15024819D02*
X126738095Y-15072438D01*
X126738095Y-15072438D02*
X126785714Y-15120057D01*
X126785714Y-15120057D02*
X126833333Y-15215295D01*
X126833333Y-15215295D02*
X126833333Y-15358152D01*
X126833333Y-15358152D02*
X126785714Y-15453390D01*
X126785714Y-15453390D02*
X126738095Y-15501009D01*
X126738095Y-15501009D02*
X126642857Y-15548628D01*
X126642857Y-15548628D02*
X126261905Y-15548628D01*
X127166667Y-15024819D02*
X127833333Y-15024819D01*
X127833333Y-15024819D02*
X127404762Y-16024819D01*
X118190476Y-87407200D02*
X118333333Y-87454819D01*
X118333333Y-87454819D02*
X118571428Y-87454819D01*
X118571428Y-87454819D02*
X118666666Y-87407200D01*
X118666666Y-87407200D02*
X118714285Y-87359580D01*
X118714285Y-87359580D02*
X118761904Y-87264342D01*
X118761904Y-87264342D02*
X118761904Y-87169104D01*
X118761904Y-87169104D02*
X118714285Y-87073866D01*
X118714285Y-87073866D02*
X118666666Y-87026247D01*
X118666666Y-87026247D02*
X118571428Y-86978628D01*
X118571428Y-86978628D02*
X118380952Y-86931009D01*
X118380952Y-86931009D02*
X118285714Y-86883390D01*
X118285714Y-86883390D02*
X118238095Y-86835771D01*
X118238095Y-86835771D02*
X118190476Y-86740533D01*
X118190476Y-86740533D02*
X118190476Y-86645295D01*
X118190476Y-86645295D02*
X118238095Y-86550057D01*
X118238095Y-86550057D02*
X118285714Y-86502438D01*
X118285714Y-86502438D02*
X118380952Y-86454819D01*
X118380952Y-86454819D02*
X118619047Y-86454819D01*
X118619047Y-86454819D02*
X118761904Y-86502438D01*
X119095238Y-86454819D02*
X119333333Y-87454819D01*
X119333333Y-87454819D02*
X119523809Y-86740533D01*
X119523809Y-86740533D02*
X119714285Y-87454819D01*
X119714285Y-87454819D02*
X119952381Y-86454819D01*
X120285714Y-86550057D02*
X120333333Y-86502438D01*
X120333333Y-86502438D02*
X120428571Y-86454819D01*
X120428571Y-86454819D02*
X120666666Y-86454819D01*
X120666666Y-86454819D02*
X120761904Y-86502438D01*
X120761904Y-86502438D02*
X120809523Y-86550057D01*
X120809523Y-86550057D02*
X120857142Y-86645295D01*
X120857142Y-86645295D02*
X120857142Y-86740533D01*
X120857142Y-86740533D02*
X120809523Y-86883390D01*
X120809523Y-86883390D02*
X120238095Y-87454819D01*
X120238095Y-87454819D02*
X120857142Y-87454819D01*
X121714285Y-86788152D02*
X121714285Y-87454819D01*
X121476190Y-86407200D02*
X121238095Y-87121485D01*
X121238095Y-87121485D02*
X121857142Y-87121485D01*
X64666667Y-33407200D02*
X64809524Y-33454819D01*
X64809524Y-33454819D02*
X65047619Y-33454819D01*
X65047619Y-33454819D02*
X65142857Y-33407200D01*
X65142857Y-33407200D02*
X65190476Y-33359580D01*
X65190476Y-33359580D02*
X65238095Y-33264342D01*
X65238095Y-33264342D02*
X65238095Y-33169104D01*
X65238095Y-33169104D02*
X65190476Y-33073866D01*
X65190476Y-33073866D02*
X65142857Y-33026247D01*
X65142857Y-33026247D02*
X65047619Y-32978628D01*
X65047619Y-32978628D02*
X64857143Y-32931009D01*
X64857143Y-32931009D02*
X64761905Y-32883390D01*
X64761905Y-32883390D02*
X64714286Y-32835771D01*
X64714286Y-32835771D02*
X64666667Y-32740533D01*
X64666667Y-32740533D02*
X64666667Y-32645295D01*
X64666667Y-32645295D02*
X64714286Y-32550057D01*
X64714286Y-32550057D02*
X64761905Y-32502438D01*
X64761905Y-32502438D02*
X64857143Y-32454819D01*
X64857143Y-32454819D02*
X65095238Y-32454819D01*
X65095238Y-32454819D02*
X65238095Y-32502438D01*
X65571429Y-32454819D02*
X65809524Y-33454819D01*
X65809524Y-33454819D02*
X66000000Y-32740533D01*
X66000000Y-32740533D02*
X66190476Y-33454819D01*
X66190476Y-33454819D02*
X66428572Y-32454819D01*
X66714286Y-32454819D02*
X67333333Y-32454819D01*
X67333333Y-32454819D02*
X67000000Y-32835771D01*
X67000000Y-32835771D02*
X67142857Y-32835771D01*
X67142857Y-32835771D02*
X67238095Y-32883390D01*
X67238095Y-32883390D02*
X67285714Y-32931009D01*
X67285714Y-32931009D02*
X67333333Y-33026247D01*
X67333333Y-33026247D02*
X67333333Y-33264342D01*
X67333333Y-33264342D02*
X67285714Y-33359580D01*
X67285714Y-33359580D02*
X67238095Y-33407200D01*
X67238095Y-33407200D02*
X67142857Y-33454819D01*
X67142857Y-33454819D02*
X66857143Y-33454819D01*
X66857143Y-33454819D02*
X66761905Y-33407200D01*
X66761905Y-33407200D02*
X66714286Y-33359580D01*
X11833333Y-19929580D02*
X11785714Y-19977200D01*
X11785714Y-19977200D02*
X11642857Y-20024819D01*
X11642857Y-20024819D02*
X11547619Y-20024819D01*
X11547619Y-20024819D02*
X11404762Y-19977200D01*
X11404762Y-19977200D02*
X11309524Y-19881961D01*
X11309524Y-19881961D02*
X11261905Y-19786723D01*
X11261905Y-19786723D02*
X11214286Y-19596247D01*
X11214286Y-19596247D02*
X11214286Y-19453390D01*
X11214286Y-19453390D02*
X11261905Y-19262914D01*
X11261905Y-19262914D02*
X11309524Y-19167676D01*
X11309524Y-19167676D02*
X11404762Y-19072438D01*
X11404762Y-19072438D02*
X11547619Y-19024819D01*
X11547619Y-19024819D02*
X11642857Y-19024819D01*
X11642857Y-19024819D02*
X11785714Y-19072438D01*
X11785714Y-19072438D02*
X11833333Y-19120057D01*
X12785714Y-20024819D02*
X12214286Y-20024819D01*
X12500000Y-20024819D02*
X12500000Y-19024819D01*
X12500000Y-19024819D02*
X12404762Y-19167676D01*
X12404762Y-19167676D02*
X12309524Y-19262914D01*
X12309524Y-19262914D02*
X12214286Y-19310533D01*
X58857142Y-30024819D02*
X58523809Y-29548628D01*
X58285714Y-30024819D02*
X58285714Y-29024819D01*
X58285714Y-29024819D02*
X58666666Y-29024819D01*
X58666666Y-29024819D02*
X58761904Y-29072438D01*
X58761904Y-29072438D02*
X58809523Y-29120057D01*
X58809523Y-29120057D02*
X58857142Y-29215295D01*
X58857142Y-29215295D02*
X58857142Y-29358152D01*
X58857142Y-29358152D02*
X58809523Y-29453390D01*
X58809523Y-29453390D02*
X58761904Y-29501009D01*
X58761904Y-29501009D02*
X58666666Y-29548628D01*
X58666666Y-29548628D02*
X58285714Y-29548628D01*
X59809523Y-30024819D02*
X59238095Y-30024819D01*
X59523809Y-30024819D02*
X59523809Y-29024819D01*
X59523809Y-29024819D02*
X59428571Y-29167676D01*
X59428571Y-29167676D02*
X59333333Y-29262914D01*
X59333333Y-29262914D02*
X59238095Y-29310533D01*
X60142857Y-29024819D02*
X60761904Y-29024819D01*
X60761904Y-29024819D02*
X60428571Y-29405771D01*
X60428571Y-29405771D02*
X60571428Y-29405771D01*
X60571428Y-29405771D02*
X60666666Y-29453390D01*
X60666666Y-29453390D02*
X60714285Y-29501009D01*
X60714285Y-29501009D02*
X60761904Y-29596247D01*
X60761904Y-29596247D02*
X60761904Y-29834342D01*
X60761904Y-29834342D02*
X60714285Y-29929580D01*
X60714285Y-29929580D02*
X60666666Y-29977200D01*
X60666666Y-29977200D02*
X60571428Y-30024819D01*
X60571428Y-30024819D02*
X60285714Y-30024819D01*
X60285714Y-30024819D02*
X60190476Y-29977200D01*
X60190476Y-29977200D02*
X60142857Y-29929580D01*
X6200000Y-43308557D02*
X6200000Y-43951414D01*
X6200000Y-43951414D02*
X6157143Y-44079985D01*
X6157143Y-44079985D02*
X6071429Y-44165700D01*
X6071429Y-44165700D02*
X5942857Y-44208557D01*
X5942857Y-44208557D02*
X5857143Y-44208557D01*
X6542857Y-43308557D02*
X7100000Y-43308557D01*
X7100000Y-43308557D02*
X6800000Y-43651414D01*
X6800000Y-43651414D02*
X6928571Y-43651414D01*
X6928571Y-43651414D02*
X7014286Y-43694271D01*
X7014286Y-43694271D02*
X7057143Y-43737128D01*
X7057143Y-43737128D02*
X7100000Y-43822842D01*
X7100000Y-43822842D02*
X7100000Y-44037128D01*
X7100000Y-44037128D02*
X7057143Y-44122842D01*
X7057143Y-44122842D02*
X7014286Y-44165700D01*
X7014286Y-44165700D02*
X6928571Y-44208557D01*
X6928571Y-44208557D02*
X6671428Y-44208557D01*
X6671428Y-44208557D02*
X6585714Y-44165700D01*
X6585714Y-44165700D02*
X6542857Y-44122842D01*
D13*
X4917593Y-36706666D02*
X4584260Y-36939999D01*
X4917593Y-37106666D02*
X4217593Y-37106666D01*
X4217593Y-37106666D02*
X4217593Y-36839999D01*
X4217593Y-36839999D02*
X4250926Y-36773333D01*
X4250926Y-36773333D02*
X4284260Y-36739999D01*
X4284260Y-36739999D02*
X4350926Y-36706666D01*
X4350926Y-36706666D02*
X4450926Y-36706666D01*
X4450926Y-36706666D02*
X4517593Y-36739999D01*
X4517593Y-36739999D02*
X4550926Y-36773333D01*
X4550926Y-36773333D02*
X4584260Y-36839999D01*
X4584260Y-36839999D02*
X4584260Y-37106666D01*
X4217593Y-36406666D02*
X4784260Y-36406666D01*
X4784260Y-36406666D02*
X4850926Y-36373333D01*
X4850926Y-36373333D02*
X4884260Y-36339999D01*
X4884260Y-36339999D02*
X4917593Y-36273333D01*
X4917593Y-36273333D02*
X4917593Y-36139999D01*
X4917593Y-36139999D02*
X4884260Y-36073333D01*
X4884260Y-36073333D02*
X4850926Y-36039999D01*
X4850926Y-36039999D02*
X4784260Y-36006666D01*
X4784260Y-36006666D02*
X4217593Y-36006666D01*
X4917593Y-35673333D02*
X4217593Y-35673333D01*
X4217593Y-35673333D02*
X4917593Y-35273333D01*
X4917593Y-35273333D02*
X4217593Y-35273333D01*
X4250926Y-39263332D02*
X4217593Y-39329999D01*
X4217593Y-39329999D02*
X4217593Y-39429999D01*
X4217593Y-39429999D02*
X4250926Y-39529999D01*
X4250926Y-39529999D02*
X4317593Y-39596666D01*
X4317593Y-39596666D02*
X4384260Y-39629999D01*
X4384260Y-39629999D02*
X4517593Y-39663332D01*
X4517593Y-39663332D02*
X4617593Y-39663332D01*
X4617593Y-39663332D02*
X4750926Y-39629999D01*
X4750926Y-39629999D02*
X4817593Y-39596666D01*
X4817593Y-39596666D02*
X4884260Y-39529999D01*
X4884260Y-39529999D02*
X4917593Y-39429999D01*
X4917593Y-39429999D02*
X4917593Y-39363332D01*
X4917593Y-39363332D02*
X4884260Y-39263332D01*
X4884260Y-39263332D02*
X4850926Y-39229999D01*
X4850926Y-39229999D02*
X4617593Y-39229999D01*
X4617593Y-39229999D02*
X4617593Y-39363332D01*
X4917593Y-38929999D02*
X4217593Y-38929999D01*
X4217593Y-38929999D02*
X4917593Y-38529999D01*
X4917593Y-38529999D02*
X4217593Y-38529999D01*
X4917593Y-38196666D02*
X4217593Y-38196666D01*
X4217593Y-38196666D02*
X4217593Y-38029999D01*
X4217593Y-38029999D02*
X4250926Y-37929999D01*
X4250926Y-37929999D02*
X4317593Y-37863333D01*
X4317593Y-37863333D02*
X4384260Y-37829999D01*
X4384260Y-37829999D02*
X4517593Y-37796666D01*
X4517593Y-37796666D02*
X4617593Y-37796666D01*
X4617593Y-37796666D02*
X4750926Y-37829999D01*
X4750926Y-37829999D02*
X4817593Y-37863333D01*
X4817593Y-37863333D02*
X4884260Y-37929999D01*
X4884260Y-37929999D02*
X4917593Y-38029999D01*
X4917593Y-38029999D02*
X4917593Y-38196666D01*
X4884260Y-42753332D02*
X4917593Y-42653332D01*
X4917593Y-42653332D02*
X4917593Y-42486666D01*
X4917593Y-42486666D02*
X4884260Y-42419999D01*
X4884260Y-42419999D02*
X4850926Y-42386666D01*
X4850926Y-42386666D02*
X4784260Y-42353332D01*
X4784260Y-42353332D02*
X4717593Y-42353332D01*
X4717593Y-42353332D02*
X4650926Y-42386666D01*
X4650926Y-42386666D02*
X4617593Y-42419999D01*
X4617593Y-42419999D02*
X4584260Y-42486666D01*
X4584260Y-42486666D02*
X4550926Y-42619999D01*
X4550926Y-42619999D02*
X4517593Y-42686666D01*
X4517593Y-42686666D02*
X4484260Y-42719999D01*
X4484260Y-42719999D02*
X4417593Y-42753332D01*
X4417593Y-42753332D02*
X4350926Y-42753332D01*
X4350926Y-42753332D02*
X4284260Y-42719999D01*
X4284260Y-42719999D02*
X4250926Y-42686666D01*
X4250926Y-42686666D02*
X4217593Y-42619999D01*
X4217593Y-42619999D02*
X4217593Y-42453332D01*
X4217593Y-42453332D02*
X4250926Y-42353332D01*
X4217593Y-42119999D02*
X4917593Y-41953332D01*
X4917593Y-41953332D02*
X4417593Y-41819999D01*
X4417593Y-41819999D02*
X4917593Y-41686665D01*
X4917593Y-41686665D02*
X4217593Y-41519999D01*
X4917593Y-41253332D02*
X4217593Y-41253332D01*
X4217593Y-41253332D02*
X4217593Y-41086665D01*
X4217593Y-41086665D02*
X4250926Y-40986665D01*
X4250926Y-40986665D02*
X4317593Y-40919999D01*
X4317593Y-40919999D02*
X4384260Y-40886665D01*
X4384260Y-40886665D02*
X4517593Y-40853332D01*
X4517593Y-40853332D02*
X4617593Y-40853332D01*
X4617593Y-40853332D02*
X4750926Y-40886665D01*
X4750926Y-40886665D02*
X4817593Y-40919999D01*
X4817593Y-40919999D02*
X4884260Y-40986665D01*
X4884260Y-40986665D02*
X4917593Y-41086665D01*
X4917593Y-41086665D02*
X4917593Y-41253332D01*
X4917593Y-40553332D02*
X4217593Y-40553332D01*
X4217593Y-40086666D02*
X4217593Y-39953332D01*
X4217593Y-39953332D02*
X4250926Y-39886666D01*
X4250926Y-39886666D02*
X4317593Y-39819999D01*
X4317593Y-39819999D02*
X4450926Y-39786666D01*
X4450926Y-39786666D02*
X4684260Y-39786666D01*
X4684260Y-39786666D02*
X4817593Y-39819999D01*
X4817593Y-39819999D02*
X4884260Y-39886666D01*
X4884260Y-39886666D02*
X4917593Y-39953332D01*
X4917593Y-39953332D02*
X4917593Y-40086666D01*
X4917593Y-40086666D02*
X4884260Y-40153332D01*
X4884260Y-40153332D02*
X4817593Y-40219999D01*
X4817593Y-40219999D02*
X4684260Y-40253332D01*
X4684260Y-40253332D02*
X4450926Y-40253332D01*
X4450926Y-40253332D02*
X4317593Y-40219999D01*
X4317593Y-40219999D02*
X4250926Y-40153332D01*
X4250926Y-40153332D02*
X4217593Y-40086666D01*
X4884260Y-45393333D02*
X4917593Y-45293333D01*
X4917593Y-45293333D02*
X4917593Y-45126667D01*
X4917593Y-45126667D02*
X4884260Y-45060000D01*
X4884260Y-45060000D02*
X4850926Y-45026667D01*
X4850926Y-45026667D02*
X4784260Y-44993333D01*
X4784260Y-44993333D02*
X4717593Y-44993333D01*
X4717593Y-44993333D02*
X4650926Y-45026667D01*
X4650926Y-45026667D02*
X4617593Y-45060000D01*
X4617593Y-45060000D02*
X4584260Y-45126667D01*
X4584260Y-45126667D02*
X4550926Y-45260000D01*
X4550926Y-45260000D02*
X4517593Y-45326667D01*
X4517593Y-45326667D02*
X4484260Y-45360000D01*
X4484260Y-45360000D02*
X4417593Y-45393333D01*
X4417593Y-45393333D02*
X4350926Y-45393333D01*
X4350926Y-45393333D02*
X4284260Y-45360000D01*
X4284260Y-45360000D02*
X4250926Y-45326667D01*
X4250926Y-45326667D02*
X4217593Y-45260000D01*
X4217593Y-45260000D02*
X4217593Y-45093333D01*
X4217593Y-45093333D02*
X4250926Y-44993333D01*
X4217593Y-44760000D02*
X4917593Y-44593333D01*
X4917593Y-44593333D02*
X4417593Y-44460000D01*
X4417593Y-44460000D02*
X4917593Y-44326666D01*
X4917593Y-44326666D02*
X4217593Y-44160000D01*
X4850926Y-43493333D02*
X4884260Y-43526666D01*
X4884260Y-43526666D02*
X4917593Y-43626666D01*
X4917593Y-43626666D02*
X4917593Y-43693333D01*
X4917593Y-43693333D02*
X4884260Y-43793333D01*
X4884260Y-43793333D02*
X4817593Y-43860000D01*
X4817593Y-43860000D02*
X4750926Y-43893333D01*
X4750926Y-43893333D02*
X4617593Y-43926666D01*
X4617593Y-43926666D02*
X4517593Y-43926666D01*
X4517593Y-43926666D02*
X4384260Y-43893333D01*
X4384260Y-43893333D02*
X4317593Y-43860000D01*
X4317593Y-43860000D02*
X4250926Y-43793333D01*
X4250926Y-43793333D02*
X4217593Y-43693333D01*
X4217593Y-43693333D02*
X4217593Y-43626666D01*
X4217593Y-43626666D02*
X4250926Y-43526666D01*
X4250926Y-43526666D02*
X4284260Y-43493333D01*
X4917593Y-42860000D02*
X4917593Y-43193333D01*
X4917593Y-43193333D02*
X4217593Y-43193333D01*
X4917593Y-42626666D02*
X4217593Y-42626666D01*
X4917593Y-42226666D02*
X4517593Y-42526666D01*
X4217593Y-42226666D02*
X4617593Y-42626666D01*
D12*
X32190476Y-20057200D02*
X32333333Y-20104819D01*
X32333333Y-20104819D02*
X32571428Y-20104819D01*
X32571428Y-20104819D02*
X32666666Y-20057200D01*
X32666666Y-20057200D02*
X32714285Y-20009580D01*
X32714285Y-20009580D02*
X32761904Y-19914342D01*
X32761904Y-19914342D02*
X32761904Y-19819104D01*
X32761904Y-19819104D02*
X32714285Y-19723866D01*
X32714285Y-19723866D02*
X32666666Y-19676247D01*
X32666666Y-19676247D02*
X32571428Y-19628628D01*
X32571428Y-19628628D02*
X32380952Y-19581009D01*
X32380952Y-19581009D02*
X32285714Y-19533390D01*
X32285714Y-19533390D02*
X32238095Y-19485771D01*
X32238095Y-19485771D02*
X32190476Y-19390533D01*
X32190476Y-19390533D02*
X32190476Y-19295295D01*
X32190476Y-19295295D02*
X32238095Y-19200057D01*
X32238095Y-19200057D02*
X32285714Y-19152438D01*
X32285714Y-19152438D02*
X32380952Y-19104819D01*
X32380952Y-19104819D02*
X32619047Y-19104819D01*
X32619047Y-19104819D02*
X32761904Y-19152438D01*
X33095238Y-19104819D02*
X33333333Y-20104819D01*
X33333333Y-20104819D02*
X33523809Y-19390533D01*
X33523809Y-19390533D02*
X33714285Y-20104819D01*
X33714285Y-20104819D02*
X33952381Y-19104819D01*
X34285714Y-19200057D02*
X34333333Y-19152438D01*
X34333333Y-19152438D02*
X34428571Y-19104819D01*
X34428571Y-19104819D02*
X34666666Y-19104819D01*
X34666666Y-19104819D02*
X34761904Y-19152438D01*
X34761904Y-19152438D02*
X34809523Y-19200057D01*
X34809523Y-19200057D02*
X34857142Y-19295295D01*
X34857142Y-19295295D02*
X34857142Y-19390533D01*
X34857142Y-19390533D02*
X34809523Y-19533390D01*
X34809523Y-19533390D02*
X34238095Y-20104819D01*
X34238095Y-20104819D02*
X34857142Y-20104819D01*
X35714285Y-19104819D02*
X35523809Y-19104819D01*
X35523809Y-19104819D02*
X35428571Y-19152438D01*
X35428571Y-19152438D02*
X35380952Y-19200057D01*
X35380952Y-19200057D02*
X35285714Y-19342914D01*
X35285714Y-19342914D02*
X35238095Y-19533390D01*
X35238095Y-19533390D02*
X35238095Y-19914342D01*
X35238095Y-19914342D02*
X35285714Y-20009580D01*
X35285714Y-20009580D02*
X35333333Y-20057200D01*
X35333333Y-20057200D02*
X35428571Y-20104819D01*
X35428571Y-20104819D02*
X35619047Y-20104819D01*
X35619047Y-20104819D02*
X35714285Y-20057200D01*
X35714285Y-20057200D02*
X35761904Y-20009580D01*
X35761904Y-20009580D02*
X35809523Y-19914342D01*
X35809523Y-19914342D02*
X35809523Y-19676247D01*
X35809523Y-19676247D02*
X35761904Y-19581009D01*
X35761904Y-19581009D02*
X35714285Y-19533390D01*
X35714285Y-19533390D02*
X35619047Y-19485771D01*
X35619047Y-19485771D02*
X35428571Y-19485771D01*
X35428571Y-19485771D02*
X35333333Y-19533390D01*
X35333333Y-19533390D02*
X35285714Y-19581009D01*
X35285714Y-19581009D02*
X35238095Y-19676247D01*
X65071428Y-30654819D02*
X65261904Y-30654819D01*
X65261904Y-30654819D02*
X65357142Y-30702438D01*
X65357142Y-30702438D02*
X65452380Y-30797676D01*
X65452380Y-30797676D02*
X65499999Y-30988152D01*
X65499999Y-30988152D02*
X65499999Y-31321485D01*
X65499999Y-31321485D02*
X65452380Y-31511961D01*
X65452380Y-31511961D02*
X65357142Y-31607200D01*
X65357142Y-31607200D02*
X65261904Y-31654819D01*
X65261904Y-31654819D02*
X65071428Y-31654819D01*
X65071428Y-31654819D02*
X64976190Y-31607200D01*
X64976190Y-31607200D02*
X64880952Y-31511961D01*
X64880952Y-31511961D02*
X64833333Y-31321485D01*
X64833333Y-31321485D02*
X64833333Y-30988152D01*
X64833333Y-30988152D02*
X64880952Y-30797676D01*
X64880952Y-30797676D02*
X64976190Y-30702438D01*
X64976190Y-30702438D02*
X65071428Y-30654819D01*
X66404761Y-31654819D02*
X65928571Y-31654819D01*
X65928571Y-31654819D02*
X65928571Y-30654819D01*
X66738095Y-31131009D02*
X67071428Y-31131009D01*
X67214285Y-31654819D02*
X66738095Y-31654819D01*
X66738095Y-31654819D02*
X66738095Y-30654819D01*
X66738095Y-30654819D02*
X67214285Y-30654819D01*
X67642857Y-31654819D02*
X67642857Y-30654819D01*
X67642857Y-30654819D02*
X67880952Y-30654819D01*
X67880952Y-30654819D02*
X68023809Y-30702438D01*
X68023809Y-30702438D02*
X68119047Y-30797676D01*
X68119047Y-30797676D02*
X68166666Y-30892914D01*
X68166666Y-30892914D02*
X68214285Y-31083390D01*
X68214285Y-31083390D02*
X68214285Y-31226247D01*
X68214285Y-31226247D02*
X68166666Y-31416723D01*
X68166666Y-31416723D02*
X68119047Y-31511961D01*
X68119047Y-31511961D02*
X68023809Y-31607200D01*
X68023809Y-31607200D02*
X67880952Y-31654819D01*
X67880952Y-31654819D02*
X67642857Y-31654819D01*
X69166666Y-31654819D02*
X68595238Y-31654819D01*
X68880952Y-31654819D02*
X68880952Y-30654819D01*
X68880952Y-30654819D02*
X68785714Y-30797676D01*
X68785714Y-30797676D02*
X68690476Y-30892914D01*
X68690476Y-30892914D02*
X68595238Y-30940533D01*
D14*
X62841446Y-27533332D02*
X62808113Y-27599999D01*
X62808113Y-27599999D02*
X62808113Y-27699999D01*
X62808113Y-27699999D02*
X62841446Y-27799999D01*
X62841446Y-27799999D02*
X62908113Y-27866666D01*
X62908113Y-27866666D02*
X62974780Y-27899999D01*
X62974780Y-27899999D02*
X63108113Y-27933332D01*
X63108113Y-27933332D02*
X63208113Y-27933332D01*
X63208113Y-27933332D02*
X63341446Y-27899999D01*
X63341446Y-27899999D02*
X63408113Y-27866666D01*
X63408113Y-27866666D02*
X63474780Y-27799999D01*
X63474780Y-27799999D02*
X63508113Y-27699999D01*
X63508113Y-27699999D02*
X63508113Y-27633332D01*
X63508113Y-27633332D02*
X63474780Y-27533332D01*
X63474780Y-27533332D02*
X63441446Y-27499999D01*
X63441446Y-27499999D02*
X63208113Y-27499999D01*
X63208113Y-27499999D02*
X63208113Y-27633332D01*
X63508113Y-27199999D02*
X62808113Y-27199999D01*
X62808113Y-27199999D02*
X63508113Y-26799999D01*
X63508113Y-26799999D02*
X62808113Y-26799999D01*
X63508113Y-26466666D02*
X62808113Y-26466666D01*
X62808113Y-26466666D02*
X62808113Y-26299999D01*
X62808113Y-26299999D02*
X62841446Y-26199999D01*
X62841446Y-26199999D02*
X62908113Y-26133333D01*
X62908113Y-26133333D02*
X62974780Y-26099999D01*
X62974780Y-26099999D02*
X63108113Y-26066666D01*
X63108113Y-26066666D02*
X63208113Y-26066666D01*
X63208113Y-26066666D02*
X63341446Y-26099999D01*
X63341446Y-26099999D02*
X63408113Y-26133333D01*
X63408113Y-26133333D02*
X63474780Y-26199999D01*
X63474780Y-26199999D02*
X63508113Y-26299999D01*
X63508113Y-26299999D02*
X63508113Y-26466666D01*
X65348113Y-27933333D02*
X66048113Y-27700000D01*
X66048113Y-27700000D02*
X65348113Y-27466666D01*
X65981446Y-26833333D02*
X66014780Y-26866666D01*
X66014780Y-26866666D02*
X66048113Y-26966666D01*
X66048113Y-26966666D02*
X66048113Y-27033333D01*
X66048113Y-27033333D02*
X66014780Y-27133333D01*
X66014780Y-27133333D02*
X65948113Y-27200000D01*
X65948113Y-27200000D02*
X65881446Y-27233333D01*
X65881446Y-27233333D02*
X65748113Y-27266666D01*
X65748113Y-27266666D02*
X65648113Y-27266666D01*
X65648113Y-27266666D02*
X65514780Y-27233333D01*
X65514780Y-27233333D02*
X65448113Y-27200000D01*
X65448113Y-27200000D02*
X65381446Y-27133333D01*
X65381446Y-27133333D02*
X65348113Y-27033333D01*
X65348113Y-27033333D02*
X65348113Y-26966666D01*
X65348113Y-26966666D02*
X65381446Y-26866666D01*
X65381446Y-26866666D02*
X65414780Y-26833333D01*
X65981446Y-26133333D02*
X66014780Y-26166666D01*
X66014780Y-26166666D02*
X66048113Y-26266666D01*
X66048113Y-26266666D02*
X66048113Y-26333333D01*
X66048113Y-26333333D02*
X66014780Y-26433333D01*
X66014780Y-26433333D02*
X65948113Y-26500000D01*
X65948113Y-26500000D02*
X65881446Y-26533333D01*
X65881446Y-26533333D02*
X65748113Y-26566666D01*
X65748113Y-26566666D02*
X65648113Y-26566666D01*
X65648113Y-26566666D02*
X65514780Y-26533333D01*
X65514780Y-26533333D02*
X65448113Y-26500000D01*
X65448113Y-26500000D02*
X65381446Y-26433333D01*
X65381446Y-26433333D02*
X65348113Y-26333333D01*
X65348113Y-26333333D02*
X65348113Y-26266666D01*
X65348113Y-26266666D02*
X65381446Y-26166666D01*
X65381446Y-26166666D02*
X65414780Y-26133333D01*
X68554780Y-27833333D02*
X68588113Y-27733333D01*
X68588113Y-27733333D02*
X68588113Y-27566667D01*
X68588113Y-27566667D02*
X68554780Y-27500000D01*
X68554780Y-27500000D02*
X68521446Y-27466667D01*
X68521446Y-27466667D02*
X68454780Y-27433333D01*
X68454780Y-27433333D02*
X68388113Y-27433333D01*
X68388113Y-27433333D02*
X68321446Y-27466667D01*
X68321446Y-27466667D02*
X68288113Y-27500000D01*
X68288113Y-27500000D02*
X68254780Y-27566667D01*
X68254780Y-27566667D02*
X68221446Y-27700000D01*
X68221446Y-27700000D02*
X68188113Y-27766667D01*
X68188113Y-27766667D02*
X68154780Y-27800000D01*
X68154780Y-27800000D02*
X68088113Y-27833333D01*
X68088113Y-27833333D02*
X68021446Y-27833333D01*
X68021446Y-27833333D02*
X67954780Y-27800000D01*
X67954780Y-27800000D02*
X67921446Y-27766667D01*
X67921446Y-27766667D02*
X67888113Y-27700000D01*
X67888113Y-27700000D02*
X67888113Y-27533333D01*
X67888113Y-27533333D02*
X67921446Y-27433333D01*
X68521446Y-26733333D02*
X68554780Y-26766666D01*
X68554780Y-26766666D02*
X68588113Y-26866666D01*
X68588113Y-26866666D02*
X68588113Y-26933333D01*
X68588113Y-26933333D02*
X68554780Y-27033333D01*
X68554780Y-27033333D02*
X68488113Y-27100000D01*
X68488113Y-27100000D02*
X68421446Y-27133333D01*
X68421446Y-27133333D02*
X68288113Y-27166666D01*
X68288113Y-27166666D02*
X68188113Y-27166666D01*
X68188113Y-27166666D02*
X68054780Y-27133333D01*
X68054780Y-27133333D02*
X67988113Y-27100000D01*
X67988113Y-27100000D02*
X67921446Y-27033333D01*
X67921446Y-27033333D02*
X67888113Y-26933333D01*
X67888113Y-26933333D02*
X67888113Y-26866666D01*
X67888113Y-26866666D02*
X67921446Y-26766666D01*
X67921446Y-26766666D02*
X67954780Y-26733333D01*
X68588113Y-26100000D02*
X68588113Y-26433333D01*
X68588113Y-26433333D02*
X67888113Y-26433333D01*
X71094780Y-27849999D02*
X71128113Y-27749999D01*
X71128113Y-27749999D02*
X71128113Y-27583333D01*
X71128113Y-27583333D02*
X71094780Y-27516666D01*
X71094780Y-27516666D02*
X71061446Y-27483333D01*
X71061446Y-27483333D02*
X70994780Y-27449999D01*
X70994780Y-27449999D02*
X70928113Y-27449999D01*
X70928113Y-27449999D02*
X70861446Y-27483333D01*
X70861446Y-27483333D02*
X70828113Y-27516666D01*
X70828113Y-27516666D02*
X70794780Y-27583333D01*
X70794780Y-27583333D02*
X70761446Y-27716666D01*
X70761446Y-27716666D02*
X70728113Y-27783333D01*
X70728113Y-27783333D02*
X70694780Y-27816666D01*
X70694780Y-27816666D02*
X70628113Y-27849999D01*
X70628113Y-27849999D02*
X70561446Y-27849999D01*
X70561446Y-27849999D02*
X70494780Y-27816666D01*
X70494780Y-27816666D02*
X70461446Y-27783333D01*
X70461446Y-27783333D02*
X70428113Y-27716666D01*
X70428113Y-27716666D02*
X70428113Y-27549999D01*
X70428113Y-27549999D02*
X70461446Y-27449999D01*
X71128113Y-27149999D02*
X70428113Y-27149999D01*
X70428113Y-27149999D02*
X70428113Y-26983332D01*
X70428113Y-26983332D02*
X70461446Y-26883332D01*
X70461446Y-26883332D02*
X70528113Y-26816666D01*
X70528113Y-26816666D02*
X70594780Y-26783332D01*
X70594780Y-26783332D02*
X70728113Y-26749999D01*
X70728113Y-26749999D02*
X70828113Y-26749999D01*
X70828113Y-26749999D02*
X70961446Y-26783332D01*
X70961446Y-26783332D02*
X71028113Y-26816666D01*
X71028113Y-26816666D02*
X71094780Y-26883332D01*
X71094780Y-26883332D02*
X71128113Y-26983332D01*
X71128113Y-26983332D02*
X71128113Y-27149999D01*
X70928113Y-26483332D02*
X70928113Y-26149999D01*
X71128113Y-26549999D02*
X70428113Y-26316666D01*
X70428113Y-26316666D02*
X71128113Y-26083332D01*
D12*
X82190476Y-87407200D02*
X82333333Y-87454819D01*
X82333333Y-87454819D02*
X82571428Y-87454819D01*
X82571428Y-87454819D02*
X82666666Y-87407200D01*
X82666666Y-87407200D02*
X82714285Y-87359580D01*
X82714285Y-87359580D02*
X82761904Y-87264342D01*
X82761904Y-87264342D02*
X82761904Y-87169104D01*
X82761904Y-87169104D02*
X82714285Y-87073866D01*
X82714285Y-87073866D02*
X82666666Y-87026247D01*
X82666666Y-87026247D02*
X82571428Y-86978628D01*
X82571428Y-86978628D02*
X82380952Y-86931009D01*
X82380952Y-86931009D02*
X82285714Y-86883390D01*
X82285714Y-86883390D02*
X82238095Y-86835771D01*
X82238095Y-86835771D02*
X82190476Y-86740533D01*
X82190476Y-86740533D02*
X82190476Y-86645295D01*
X82190476Y-86645295D02*
X82238095Y-86550057D01*
X82238095Y-86550057D02*
X82285714Y-86502438D01*
X82285714Y-86502438D02*
X82380952Y-86454819D01*
X82380952Y-86454819D02*
X82619047Y-86454819D01*
X82619047Y-86454819D02*
X82761904Y-86502438D01*
X83095238Y-86454819D02*
X83333333Y-87454819D01*
X83333333Y-87454819D02*
X83523809Y-86740533D01*
X83523809Y-86740533D02*
X83714285Y-87454819D01*
X83714285Y-87454819D02*
X83952381Y-86454819D01*
X84285714Y-86550057D02*
X84333333Y-86502438D01*
X84333333Y-86502438D02*
X84428571Y-86454819D01*
X84428571Y-86454819D02*
X84666666Y-86454819D01*
X84666666Y-86454819D02*
X84761904Y-86502438D01*
X84761904Y-86502438D02*
X84809523Y-86550057D01*
X84809523Y-86550057D02*
X84857142Y-86645295D01*
X84857142Y-86645295D02*
X84857142Y-86740533D01*
X84857142Y-86740533D02*
X84809523Y-86883390D01*
X84809523Y-86883390D02*
X84238095Y-87454819D01*
X84238095Y-87454819D02*
X84857142Y-87454819D01*
X85238095Y-86550057D02*
X85285714Y-86502438D01*
X85285714Y-86502438D02*
X85380952Y-86454819D01*
X85380952Y-86454819D02*
X85619047Y-86454819D01*
X85619047Y-86454819D02*
X85714285Y-86502438D01*
X85714285Y-86502438D02*
X85761904Y-86550057D01*
X85761904Y-86550057D02*
X85809523Y-86645295D01*
X85809523Y-86645295D02*
X85809523Y-86740533D01*
X85809523Y-86740533D02*
X85761904Y-86883390D01*
X85761904Y-86883390D02*
X85190476Y-87454819D01*
X85190476Y-87454819D02*
X85809523Y-87454819D01*
X128333333Y-11679580D02*
X128285714Y-11727200D01*
X128285714Y-11727200D02*
X128142857Y-11774819D01*
X128142857Y-11774819D02*
X128047619Y-11774819D01*
X128047619Y-11774819D02*
X127904762Y-11727200D01*
X127904762Y-11727200D02*
X127809524Y-11631961D01*
X127809524Y-11631961D02*
X127761905Y-11536723D01*
X127761905Y-11536723D02*
X127714286Y-11346247D01*
X127714286Y-11346247D02*
X127714286Y-11203390D01*
X127714286Y-11203390D02*
X127761905Y-11012914D01*
X127761905Y-11012914D02*
X127809524Y-10917676D01*
X127809524Y-10917676D02*
X127904762Y-10822438D01*
X127904762Y-10822438D02*
X128047619Y-10774819D01*
X128047619Y-10774819D02*
X128142857Y-10774819D01*
X128142857Y-10774819D02*
X128285714Y-10822438D01*
X128285714Y-10822438D02*
X128333333Y-10870057D01*
X129190476Y-10774819D02*
X129000000Y-10774819D01*
X129000000Y-10774819D02*
X128904762Y-10822438D01*
X128904762Y-10822438D02*
X128857143Y-10870057D01*
X128857143Y-10870057D02*
X128761905Y-11012914D01*
X128761905Y-11012914D02*
X128714286Y-11203390D01*
X128714286Y-11203390D02*
X128714286Y-11584342D01*
X128714286Y-11584342D02*
X128761905Y-11679580D01*
X128761905Y-11679580D02*
X128809524Y-11727200D01*
X128809524Y-11727200D02*
X128904762Y-11774819D01*
X128904762Y-11774819D02*
X129095238Y-11774819D01*
X129095238Y-11774819D02*
X129190476Y-11727200D01*
X129190476Y-11727200D02*
X129238095Y-11679580D01*
X129238095Y-11679580D02*
X129285714Y-11584342D01*
X129285714Y-11584342D02*
X129285714Y-11346247D01*
X129285714Y-11346247D02*
X129238095Y-11251009D01*
X129238095Y-11251009D02*
X129190476Y-11203390D01*
X129190476Y-11203390D02*
X129095238Y-11155771D01*
X129095238Y-11155771D02*
X128904762Y-11155771D01*
X128904762Y-11155771D02*
X128809524Y-11203390D01*
X128809524Y-11203390D02*
X128761905Y-11251009D01*
X128761905Y-11251009D02*
X128714286Y-11346247D01*
X82190476Y-51407200D02*
X82333333Y-51454819D01*
X82333333Y-51454819D02*
X82571428Y-51454819D01*
X82571428Y-51454819D02*
X82666666Y-51407200D01*
X82666666Y-51407200D02*
X82714285Y-51359580D01*
X82714285Y-51359580D02*
X82761904Y-51264342D01*
X82761904Y-51264342D02*
X82761904Y-51169104D01*
X82761904Y-51169104D02*
X82714285Y-51073866D01*
X82714285Y-51073866D02*
X82666666Y-51026247D01*
X82666666Y-51026247D02*
X82571428Y-50978628D01*
X82571428Y-50978628D02*
X82380952Y-50931009D01*
X82380952Y-50931009D02*
X82285714Y-50883390D01*
X82285714Y-50883390D02*
X82238095Y-50835771D01*
X82238095Y-50835771D02*
X82190476Y-50740533D01*
X82190476Y-50740533D02*
X82190476Y-50645295D01*
X82190476Y-50645295D02*
X82238095Y-50550057D01*
X82238095Y-50550057D02*
X82285714Y-50502438D01*
X82285714Y-50502438D02*
X82380952Y-50454819D01*
X82380952Y-50454819D02*
X82619047Y-50454819D01*
X82619047Y-50454819D02*
X82761904Y-50502438D01*
X83095238Y-50454819D02*
X83333333Y-51454819D01*
X83333333Y-51454819D02*
X83523809Y-50740533D01*
X83523809Y-50740533D02*
X83714285Y-51454819D01*
X83714285Y-51454819D02*
X83952381Y-50454819D01*
X84857142Y-51454819D02*
X84285714Y-51454819D01*
X84571428Y-51454819D02*
X84571428Y-50454819D01*
X84571428Y-50454819D02*
X84476190Y-50597676D01*
X84476190Y-50597676D02*
X84380952Y-50692914D01*
X84380952Y-50692914D02*
X84285714Y-50740533D01*
X85476190Y-50454819D02*
X85571428Y-50454819D01*
X85571428Y-50454819D02*
X85666666Y-50502438D01*
X85666666Y-50502438D02*
X85714285Y-50550057D01*
X85714285Y-50550057D02*
X85761904Y-50645295D01*
X85761904Y-50645295D02*
X85809523Y-50835771D01*
X85809523Y-50835771D02*
X85809523Y-51073866D01*
X85809523Y-51073866D02*
X85761904Y-51264342D01*
X85761904Y-51264342D02*
X85714285Y-51359580D01*
X85714285Y-51359580D02*
X85666666Y-51407200D01*
X85666666Y-51407200D02*
X85571428Y-51454819D01*
X85571428Y-51454819D02*
X85476190Y-51454819D01*
X85476190Y-51454819D02*
X85380952Y-51407200D01*
X85380952Y-51407200D02*
X85333333Y-51359580D01*
X85333333Y-51359580D02*
X85285714Y-51264342D01*
X85285714Y-51264342D02*
X85238095Y-51073866D01*
X85238095Y-51073866D02*
X85238095Y-50835771D01*
X85238095Y-50835771D02*
X85285714Y-50645295D01*
X85285714Y-50645295D02*
X85333333Y-50550057D01*
X85333333Y-50550057D02*
X85380952Y-50502438D01*
X85380952Y-50502438D02*
X85476190Y-50454819D01*
X82738095Y394180D02*
X82738095Y-415342D01*
X82738095Y-415342D02*
X82785714Y-510580D01*
X82785714Y-510580D02*
X82833333Y-558200D01*
X82833333Y-558200D02*
X82928571Y-605819D01*
X82928571Y-605819D02*
X83119047Y-605819D01*
X83119047Y-605819D02*
X83214285Y-558200D01*
X83214285Y-558200D02*
X83261904Y-510580D01*
X83261904Y-510580D02*
X83309523Y-415342D01*
X83309523Y-415342D02*
X83309523Y394180D01*
X83690476Y394180D02*
X84309523Y394180D01*
X84309523Y394180D02*
X83976190Y13228D01*
X83976190Y13228D02*
X84119047Y13228D01*
X84119047Y13228D02*
X84214285Y-34390D01*
X84214285Y-34390D02*
X84261904Y-82009D01*
X84261904Y-82009D02*
X84309523Y-177247D01*
X84309523Y-177247D02*
X84309523Y-415342D01*
X84309523Y-415342D02*
X84261904Y-510580D01*
X84261904Y-510580D02*
X84214285Y-558200D01*
X84214285Y-558200D02*
X84119047Y-605819D01*
X84119047Y-605819D02*
X83833333Y-605819D01*
X83833333Y-605819D02*
X83738095Y-558200D01*
X83738095Y-558200D02*
X83690476Y-510580D01*
X28666667Y-33407200D02*
X28809524Y-33454819D01*
X28809524Y-33454819D02*
X29047619Y-33454819D01*
X29047619Y-33454819D02*
X29142857Y-33407200D01*
X29142857Y-33407200D02*
X29190476Y-33359580D01*
X29190476Y-33359580D02*
X29238095Y-33264342D01*
X29238095Y-33264342D02*
X29238095Y-33169104D01*
X29238095Y-33169104D02*
X29190476Y-33073866D01*
X29190476Y-33073866D02*
X29142857Y-33026247D01*
X29142857Y-33026247D02*
X29047619Y-32978628D01*
X29047619Y-32978628D02*
X28857143Y-32931009D01*
X28857143Y-32931009D02*
X28761905Y-32883390D01*
X28761905Y-32883390D02*
X28714286Y-32835771D01*
X28714286Y-32835771D02*
X28666667Y-32740533D01*
X28666667Y-32740533D02*
X28666667Y-32645295D01*
X28666667Y-32645295D02*
X28714286Y-32550057D01*
X28714286Y-32550057D02*
X28761905Y-32502438D01*
X28761905Y-32502438D02*
X28857143Y-32454819D01*
X28857143Y-32454819D02*
X29095238Y-32454819D01*
X29095238Y-32454819D02*
X29238095Y-32502438D01*
X29571429Y-32454819D02*
X29809524Y-33454819D01*
X29809524Y-33454819D02*
X30000000Y-32740533D01*
X30000000Y-32740533D02*
X30190476Y-33454819D01*
X30190476Y-33454819D02*
X30428572Y-32454819D01*
X31333333Y-33454819D02*
X30761905Y-33454819D01*
X31047619Y-33454819D02*
X31047619Y-32454819D01*
X31047619Y-32454819D02*
X30952381Y-32597676D01*
X30952381Y-32597676D02*
X30857143Y-32692914D01*
X30857143Y-32692914D02*
X30761905Y-32740533D01*
X46666667Y-33407200D02*
X46809524Y-33454819D01*
X46809524Y-33454819D02*
X47047619Y-33454819D01*
X47047619Y-33454819D02*
X47142857Y-33407200D01*
X47142857Y-33407200D02*
X47190476Y-33359580D01*
X47190476Y-33359580D02*
X47238095Y-33264342D01*
X47238095Y-33264342D02*
X47238095Y-33169104D01*
X47238095Y-33169104D02*
X47190476Y-33073866D01*
X47190476Y-33073866D02*
X47142857Y-33026247D01*
X47142857Y-33026247D02*
X47047619Y-32978628D01*
X47047619Y-32978628D02*
X46857143Y-32931009D01*
X46857143Y-32931009D02*
X46761905Y-32883390D01*
X46761905Y-32883390D02*
X46714286Y-32835771D01*
X46714286Y-32835771D02*
X46666667Y-32740533D01*
X46666667Y-32740533D02*
X46666667Y-32645295D01*
X46666667Y-32645295D02*
X46714286Y-32550057D01*
X46714286Y-32550057D02*
X46761905Y-32502438D01*
X46761905Y-32502438D02*
X46857143Y-32454819D01*
X46857143Y-32454819D02*
X47095238Y-32454819D01*
X47095238Y-32454819D02*
X47238095Y-32502438D01*
X47571429Y-32454819D02*
X47809524Y-33454819D01*
X47809524Y-33454819D02*
X48000000Y-32740533D01*
X48000000Y-32740533D02*
X48190476Y-33454819D01*
X48190476Y-33454819D02*
X48428572Y-32454819D01*
X48761905Y-32550057D02*
X48809524Y-32502438D01*
X48809524Y-32502438D02*
X48904762Y-32454819D01*
X48904762Y-32454819D02*
X49142857Y-32454819D01*
X49142857Y-32454819D02*
X49238095Y-32502438D01*
X49238095Y-32502438D02*
X49285714Y-32550057D01*
X49285714Y-32550057D02*
X49333333Y-32645295D01*
X49333333Y-32645295D02*
X49333333Y-32740533D01*
X49333333Y-32740533D02*
X49285714Y-32883390D01*
X49285714Y-32883390D02*
X48714286Y-33454819D01*
X48714286Y-33454819D02*
X49333333Y-33454819D01*
X116333333Y-15524819D02*
X116000000Y-15048628D01*
X115761905Y-15524819D02*
X115761905Y-14524819D01*
X115761905Y-14524819D02*
X116142857Y-14524819D01*
X116142857Y-14524819D02*
X116238095Y-14572438D01*
X116238095Y-14572438D02*
X116285714Y-14620057D01*
X116285714Y-14620057D02*
X116333333Y-14715295D01*
X116333333Y-14715295D02*
X116333333Y-14858152D01*
X116333333Y-14858152D02*
X116285714Y-14953390D01*
X116285714Y-14953390D02*
X116238095Y-15001009D01*
X116238095Y-15001009D02*
X116142857Y-15048628D01*
X116142857Y-15048628D02*
X115761905Y-15048628D01*
X117190476Y-14858152D02*
X117190476Y-15524819D01*
X116952381Y-14477200D02*
X116714286Y-15191485D01*
X116714286Y-15191485D02*
X117333333Y-15191485D01*
X63333333Y-6924819D02*
X63000000Y-6448628D01*
X62761905Y-6924819D02*
X62761905Y-5924819D01*
X62761905Y-5924819D02*
X63142857Y-5924819D01*
X63142857Y-5924819D02*
X63238095Y-5972438D01*
X63238095Y-5972438D02*
X63285714Y-6020057D01*
X63285714Y-6020057D02*
X63333333Y-6115295D01*
X63333333Y-6115295D02*
X63333333Y-6258152D01*
X63333333Y-6258152D02*
X63285714Y-6353390D01*
X63285714Y-6353390D02*
X63238095Y-6401009D01*
X63238095Y-6401009D02*
X63142857Y-6448628D01*
X63142857Y-6448628D02*
X62761905Y-6448628D01*
X64285714Y-6924819D02*
X63714286Y-6924819D01*
X64000000Y-6924819D02*
X64000000Y-5924819D01*
X64000000Y-5924819D02*
X63904762Y-6067676D01*
X63904762Y-6067676D02*
X63809524Y-6162914D01*
X63809524Y-6162914D02*
X63714286Y-6210533D01*
X100666667Y-33407200D02*
X100809524Y-33454819D01*
X100809524Y-33454819D02*
X101047619Y-33454819D01*
X101047619Y-33454819D02*
X101142857Y-33407200D01*
X101142857Y-33407200D02*
X101190476Y-33359580D01*
X101190476Y-33359580D02*
X101238095Y-33264342D01*
X101238095Y-33264342D02*
X101238095Y-33169104D01*
X101238095Y-33169104D02*
X101190476Y-33073866D01*
X101190476Y-33073866D02*
X101142857Y-33026247D01*
X101142857Y-33026247D02*
X101047619Y-32978628D01*
X101047619Y-32978628D02*
X100857143Y-32931009D01*
X100857143Y-32931009D02*
X100761905Y-32883390D01*
X100761905Y-32883390D02*
X100714286Y-32835771D01*
X100714286Y-32835771D02*
X100666667Y-32740533D01*
X100666667Y-32740533D02*
X100666667Y-32645295D01*
X100666667Y-32645295D02*
X100714286Y-32550057D01*
X100714286Y-32550057D02*
X100761905Y-32502438D01*
X100761905Y-32502438D02*
X100857143Y-32454819D01*
X100857143Y-32454819D02*
X101095238Y-32454819D01*
X101095238Y-32454819D02*
X101238095Y-32502438D01*
X101571429Y-32454819D02*
X101809524Y-33454819D01*
X101809524Y-33454819D02*
X102000000Y-32740533D01*
X102000000Y-32740533D02*
X102190476Y-33454819D01*
X102190476Y-33454819D02*
X102428572Y-32454819D01*
X103285714Y-32454819D02*
X102809524Y-32454819D01*
X102809524Y-32454819D02*
X102761905Y-32931009D01*
X102761905Y-32931009D02*
X102809524Y-32883390D01*
X102809524Y-32883390D02*
X102904762Y-32835771D01*
X102904762Y-32835771D02*
X103142857Y-32835771D01*
X103142857Y-32835771D02*
X103238095Y-32883390D01*
X103238095Y-32883390D02*
X103285714Y-32931009D01*
X103285714Y-32931009D02*
X103333333Y-33026247D01*
X103333333Y-33026247D02*
X103333333Y-33264342D01*
X103333333Y-33264342D02*
X103285714Y-33359580D01*
X103285714Y-33359580D02*
X103238095Y-33407200D01*
X103238095Y-33407200D02*
X103142857Y-33454819D01*
X103142857Y-33454819D02*
X102904762Y-33454819D01*
X102904762Y-33454819D02*
X102809524Y-33407200D01*
X102809524Y-33407200D02*
X102761905Y-33359580D01*
X82666667Y-33407200D02*
X82809524Y-33454819D01*
X82809524Y-33454819D02*
X83047619Y-33454819D01*
X83047619Y-33454819D02*
X83142857Y-33407200D01*
X83142857Y-33407200D02*
X83190476Y-33359580D01*
X83190476Y-33359580D02*
X83238095Y-33264342D01*
X83238095Y-33264342D02*
X83238095Y-33169104D01*
X83238095Y-33169104D02*
X83190476Y-33073866D01*
X83190476Y-33073866D02*
X83142857Y-33026247D01*
X83142857Y-33026247D02*
X83047619Y-32978628D01*
X83047619Y-32978628D02*
X82857143Y-32931009D01*
X82857143Y-32931009D02*
X82761905Y-32883390D01*
X82761905Y-32883390D02*
X82714286Y-32835771D01*
X82714286Y-32835771D02*
X82666667Y-32740533D01*
X82666667Y-32740533D02*
X82666667Y-32645295D01*
X82666667Y-32645295D02*
X82714286Y-32550057D01*
X82714286Y-32550057D02*
X82761905Y-32502438D01*
X82761905Y-32502438D02*
X82857143Y-32454819D01*
X82857143Y-32454819D02*
X83095238Y-32454819D01*
X83095238Y-32454819D02*
X83238095Y-32502438D01*
X83571429Y-32454819D02*
X83809524Y-33454819D01*
X83809524Y-33454819D02*
X84000000Y-32740533D01*
X84000000Y-32740533D02*
X84190476Y-33454819D01*
X84190476Y-33454819D02*
X84428572Y-32454819D01*
X85238095Y-32788152D02*
X85238095Y-33454819D01*
X85000000Y-32407200D02*
X84761905Y-33121485D01*
X84761905Y-33121485D02*
X85380952Y-33121485D01*
X115833333Y-11524819D02*
X115500000Y-11048628D01*
X115261905Y-11524819D02*
X115261905Y-10524819D01*
X115261905Y-10524819D02*
X115642857Y-10524819D01*
X115642857Y-10524819D02*
X115738095Y-10572438D01*
X115738095Y-10572438D02*
X115785714Y-10620057D01*
X115785714Y-10620057D02*
X115833333Y-10715295D01*
X115833333Y-10715295D02*
X115833333Y-10858152D01*
X115833333Y-10858152D02*
X115785714Y-10953390D01*
X115785714Y-10953390D02*
X115738095Y-11001009D01*
X115738095Y-11001009D02*
X115642857Y-11048628D01*
X115642857Y-11048628D02*
X115261905Y-11048628D01*
X116690476Y-10524819D02*
X116500000Y-10524819D01*
X116500000Y-10524819D02*
X116404762Y-10572438D01*
X116404762Y-10572438D02*
X116357143Y-10620057D01*
X116357143Y-10620057D02*
X116261905Y-10762914D01*
X116261905Y-10762914D02*
X116214286Y-10953390D01*
X116214286Y-10953390D02*
X116214286Y-11334342D01*
X116214286Y-11334342D02*
X116261905Y-11429580D01*
X116261905Y-11429580D02*
X116309524Y-11477200D01*
X116309524Y-11477200D02*
X116404762Y-11524819D01*
X116404762Y-11524819D02*
X116595238Y-11524819D01*
X116595238Y-11524819D02*
X116690476Y-11477200D01*
X116690476Y-11477200D02*
X116738095Y-11429580D01*
X116738095Y-11429580D02*
X116785714Y-11334342D01*
X116785714Y-11334342D02*
X116785714Y-11096247D01*
X116785714Y-11096247D02*
X116738095Y-11001009D01*
X116738095Y-11001009D02*
X116690476Y-10953390D01*
X116690476Y-10953390D02*
X116595238Y-10905771D01*
X116595238Y-10905771D02*
X116404762Y-10905771D01*
X116404762Y-10905771D02*
X116309524Y-10953390D01*
X116309524Y-10953390D02*
X116261905Y-11001009D01*
X116261905Y-11001009D02*
X116214286Y-11096247D01*
X121333333Y-15524819D02*
X121000000Y-15048628D01*
X120761905Y-15524819D02*
X120761905Y-14524819D01*
X120761905Y-14524819D02*
X121142857Y-14524819D01*
X121142857Y-14524819D02*
X121238095Y-14572438D01*
X121238095Y-14572438D02*
X121285714Y-14620057D01*
X121285714Y-14620057D02*
X121333333Y-14715295D01*
X121333333Y-14715295D02*
X121333333Y-14858152D01*
X121333333Y-14858152D02*
X121285714Y-14953390D01*
X121285714Y-14953390D02*
X121238095Y-15001009D01*
X121238095Y-15001009D02*
X121142857Y-15048628D01*
X121142857Y-15048628D02*
X120761905Y-15048628D01*
X122238095Y-14524819D02*
X121761905Y-14524819D01*
X121761905Y-14524819D02*
X121714286Y-15001009D01*
X121714286Y-15001009D02*
X121761905Y-14953390D01*
X121761905Y-14953390D02*
X121857143Y-14905771D01*
X121857143Y-14905771D02*
X122095238Y-14905771D01*
X122095238Y-14905771D02*
X122190476Y-14953390D01*
X122190476Y-14953390D02*
X122238095Y-15001009D01*
X122238095Y-15001009D02*
X122285714Y-15096247D01*
X122285714Y-15096247D02*
X122285714Y-15334342D01*
X122285714Y-15334342D02*
X122238095Y-15429580D01*
X122238095Y-15429580D02*
X122190476Y-15477200D01*
X122190476Y-15477200D02*
X122095238Y-15524819D01*
X122095238Y-15524819D02*
X121857143Y-15524819D01*
X121857143Y-15524819D02*
X121761905Y-15477200D01*
X121761905Y-15477200D02*
X121714286Y-15429580D01*
X16333333Y-19929580D02*
X16285714Y-19977200D01*
X16285714Y-19977200D02*
X16142857Y-20024819D01*
X16142857Y-20024819D02*
X16047619Y-20024819D01*
X16047619Y-20024819D02*
X15904762Y-19977200D01*
X15904762Y-19977200D02*
X15809524Y-19881961D01*
X15809524Y-19881961D02*
X15761905Y-19786723D01*
X15761905Y-19786723D02*
X15714286Y-19596247D01*
X15714286Y-19596247D02*
X15714286Y-19453390D01*
X15714286Y-19453390D02*
X15761905Y-19262914D01*
X15761905Y-19262914D02*
X15809524Y-19167676D01*
X15809524Y-19167676D02*
X15904762Y-19072438D01*
X15904762Y-19072438D02*
X16047619Y-19024819D01*
X16047619Y-19024819D02*
X16142857Y-19024819D01*
X16142857Y-19024819D02*
X16285714Y-19072438D01*
X16285714Y-19072438D02*
X16333333Y-19120057D01*
X16714286Y-19120057D02*
X16761905Y-19072438D01*
X16761905Y-19072438D02*
X16857143Y-19024819D01*
X16857143Y-19024819D02*
X17095238Y-19024819D01*
X17095238Y-19024819D02*
X17190476Y-19072438D01*
X17190476Y-19072438D02*
X17238095Y-19120057D01*
X17238095Y-19120057D02*
X17285714Y-19215295D01*
X17285714Y-19215295D02*
X17285714Y-19310533D01*
X17285714Y-19310533D02*
X17238095Y-19453390D01*
X17238095Y-19453390D02*
X16666667Y-20024819D01*
X16666667Y-20024819D02*
X17285714Y-20024819D01*
X143166666Y-30254819D02*
X143166666Y-30969104D01*
X143166666Y-30969104D02*
X143119047Y-31111961D01*
X143119047Y-31111961D02*
X143023809Y-31207200D01*
X143023809Y-31207200D02*
X142880952Y-31254819D01*
X142880952Y-31254819D02*
X142785714Y-31254819D01*
X143595238Y-30350057D02*
X143642857Y-30302438D01*
X143642857Y-30302438D02*
X143738095Y-30254819D01*
X143738095Y-30254819D02*
X143976190Y-30254819D01*
X143976190Y-30254819D02*
X144071428Y-30302438D01*
X144071428Y-30302438D02*
X144119047Y-30350057D01*
X144119047Y-30350057D02*
X144166666Y-30445295D01*
X144166666Y-30445295D02*
X144166666Y-30540533D01*
X144166666Y-30540533D02*
X144119047Y-30683390D01*
X144119047Y-30683390D02*
X143547619Y-31254819D01*
X143547619Y-31254819D02*
X144166666Y-31254819D01*
X136833333Y-15929580D02*
X136785714Y-15977200D01*
X136785714Y-15977200D02*
X136642857Y-16024819D01*
X136642857Y-16024819D02*
X136547619Y-16024819D01*
X136547619Y-16024819D02*
X136404762Y-15977200D01*
X136404762Y-15977200D02*
X136309524Y-15881961D01*
X136309524Y-15881961D02*
X136261905Y-15786723D01*
X136261905Y-15786723D02*
X136214286Y-15596247D01*
X136214286Y-15596247D02*
X136214286Y-15453390D01*
X136214286Y-15453390D02*
X136261905Y-15262914D01*
X136261905Y-15262914D02*
X136309524Y-15167676D01*
X136309524Y-15167676D02*
X136404762Y-15072438D01*
X136404762Y-15072438D02*
X136547619Y-15024819D01*
X136547619Y-15024819D02*
X136642857Y-15024819D01*
X136642857Y-15024819D02*
X136785714Y-15072438D01*
X136785714Y-15072438D02*
X136833333Y-15120057D01*
X137404762Y-15453390D02*
X137309524Y-15405771D01*
X137309524Y-15405771D02*
X137261905Y-15358152D01*
X137261905Y-15358152D02*
X137214286Y-15262914D01*
X137214286Y-15262914D02*
X137214286Y-15215295D01*
X137214286Y-15215295D02*
X137261905Y-15120057D01*
X137261905Y-15120057D02*
X137309524Y-15072438D01*
X137309524Y-15072438D02*
X137404762Y-15024819D01*
X137404762Y-15024819D02*
X137595238Y-15024819D01*
X137595238Y-15024819D02*
X137690476Y-15072438D01*
X137690476Y-15072438D02*
X137738095Y-15120057D01*
X137738095Y-15120057D02*
X137785714Y-15215295D01*
X137785714Y-15215295D02*
X137785714Y-15262914D01*
X137785714Y-15262914D02*
X137738095Y-15358152D01*
X137738095Y-15358152D02*
X137690476Y-15405771D01*
X137690476Y-15405771D02*
X137595238Y-15453390D01*
X137595238Y-15453390D02*
X137404762Y-15453390D01*
X137404762Y-15453390D02*
X137309524Y-15501009D01*
X137309524Y-15501009D02*
X137261905Y-15548628D01*
X137261905Y-15548628D02*
X137214286Y-15643866D01*
X137214286Y-15643866D02*
X137214286Y-15834342D01*
X137214286Y-15834342D02*
X137261905Y-15929580D01*
X137261905Y-15929580D02*
X137309524Y-15977200D01*
X137309524Y-15977200D02*
X137404762Y-16024819D01*
X137404762Y-16024819D02*
X137595238Y-16024819D01*
X137595238Y-16024819D02*
X137690476Y-15977200D01*
X137690476Y-15977200D02*
X137738095Y-15929580D01*
X137738095Y-15929580D02*
X137785714Y-15834342D01*
X137785714Y-15834342D02*
X137785714Y-15643866D01*
X137785714Y-15643866D02*
X137738095Y-15548628D01*
X137738095Y-15548628D02*
X137690476Y-15501009D01*
X137690476Y-15501009D02*
X137595238Y-15453390D01*
X28190476Y-69407200D02*
X28333333Y-69454819D01*
X28333333Y-69454819D02*
X28571428Y-69454819D01*
X28571428Y-69454819D02*
X28666666Y-69407200D01*
X28666666Y-69407200D02*
X28714285Y-69359580D01*
X28714285Y-69359580D02*
X28761904Y-69264342D01*
X28761904Y-69264342D02*
X28761904Y-69169104D01*
X28761904Y-69169104D02*
X28714285Y-69073866D01*
X28714285Y-69073866D02*
X28666666Y-69026247D01*
X28666666Y-69026247D02*
X28571428Y-68978628D01*
X28571428Y-68978628D02*
X28380952Y-68931009D01*
X28380952Y-68931009D02*
X28285714Y-68883390D01*
X28285714Y-68883390D02*
X28238095Y-68835771D01*
X28238095Y-68835771D02*
X28190476Y-68740533D01*
X28190476Y-68740533D02*
X28190476Y-68645295D01*
X28190476Y-68645295D02*
X28238095Y-68550057D01*
X28238095Y-68550057D02*
X28285714Y-68502438D01*
X28285714Y-68502438D02*
X28380952Y-68454819D01*
X28380952Y-68454819D02*
X28619047Y-68454819D01*
X28619047Y-68454819D02*
X28761904Y-68502438D01*
X29095238Y-68454819D02*
X29333333Y-69454819D01*
X29333333Y-69454819D02*
X29523809Y-68740533D01*
X29523809Y-68740533D02*
X29714285Y-69454819D01*
X29714285Y-69454819D02*
X29952381Y-68454819D01*
X30857142Y-69454819D02*
X30285714Y-69454819D01*
X30571428Y-69454819D02*
X30571428Y-68454819D01*
X30571428Y-68454819D02*
X30476190Y-68597676D01*
X30476190Y-68597676D02*
X30380952Y-68692914D01*
X30380952Y-68692914D02*
X30285714Y-68740533D01*
X31190476Y-68454819D02*
X31809523Y-68454819D01*
X31809523Y-68454819D02*
X31476190Y-68835771D01*
X31476190Y-68835771D02*
X31619047Y-68835771D01*
X31619047Y-68835771D02*
X31714285Y-68883390D01*
X31714285Y-68883390D02*
X31761904Y-68931009D01*
X31761904Y-68931009D02*
X31809523Y-69026247D01*
X31809523Y-69026247D02*
X31809523Y-69264342D01*
X31809523Y-69264342D02*
X31761904Y-69359580D01*
X31761904Y-69359580D02*
X31714285Y-69407200D01*
X31714285Y-69407200D02*
X31619047Y-69454819D01*
X31619047Y-69454819D02*
X31333333Y-69454819D01*
X31333333Y-69454819D02*
X31238095Y-69407200D01*
X31238095Y-69407200D02*
X31190476Y-69359580D01*
X46190476Y-87407200D02*
X46333333Y-87454819D01*
X46333333Y-87454819D02*
X46571428Y-87454819D01*
X46571428Y-87454819D02*
X46666666Y-87407200D01*
X46666666Y-87407200D02*
X46714285Y-87359580D01*
X46714285Y-87359580D02*
X46761904Y-87264342D01*
X46761904Y-87264342D02*
X46761904Y-87169104D01*
X46761904Y-87169104D02*
X46714285Y-87073866D01*
X46714285Y-87073866D02*
X46666666Y-87026247D01*
X46666666Y-87026247D02*
X46571428Y-86978628D01*
X46571428Y-86978628D02*
X46380952Y-86931009D01*
X46380952Y-86931009D02*
X46285714Y-86883390D01*
X46285714Y-86883390D02*
X46238095Y-86835771D01*
X46238095Y-86835771D02*
X46190476Y-86740533D01*
X46190476Y-86740533D02*
X46190476Y-86645295D01*
X46190476Y-86645295D02*
X46238095Y-86550057D01*
X46238095Y-86550057D02*
X46285714Y-86502438D01*
X46285714Y-86502438D02*
X46380952Y-86454819D01*
X46380952Y-86454819D02*
X46619047Y-86454819D01*
X46619047Y-86454819D02*
X46761904Y-86502438D01*
X47095238Y-86454819D02*
X47333333Y-87454819D01*
X47333333Y-87454819D02*
X47523809Y-86740533D01*
X47523809Y-86740533D02*
X47714285Y-87454819D01*
X47714285Y-87454819D02*
X47952381Y-86454819D01*
X48285714Y-86550057D02*
X48333333Y-86502438D01*
X48333333Y-86502438D02*
X48428571Y-86454819D01*
X48428571Y-86454819D02*
X48666666Y-86454819D01*
X48666666Y-86454819D02*
X48761904Y-86502438D01*
X48761904Y-86502438D02*
X48809523Y-86550057D01*
X48809523Y-86550057D02*
X48857142Y-86645295D01*
X48857142Y-86645295D02*
X48857142Y-86740533D01*
X48857142Y-86740533D02*
X48809523Y-86883390D01*
X48809523Y-86883390D02*
X48238095Y-87454819D01*
X48238095Y-87454819D02*
X48857142Y-87454819D01*
X49476190Y-86454819D02*
X49571428Y-86454819D01*
X49571428Y-86454819D02*
X49666666Y-86502438D01*
X49666666Y-86502438D02*
X49714285Y-86550057D01*
X49714285Y-86550057D02*
X49761904Y-86645295D01*
X49761904Y-86645295D02*
X49809523Y-86835771D01*
X49809523Y-86835771D02*
X49809523Y-87073866D01*
X49809523Y-87073866D02*
X49761904Y-87264342D01*
X49761904Y-87264342D02*
X49714285Y-87359580D01*
X49714285Y-87359580D02*
X49666666Y-87407200D01*
X49666666Y-87407200D02*
X49571428Y-87454819D01*
X49571428Y-87454819D02*
X49476190Y-87454819D01*
X49476190Y-87454819D02*
X49380952Y-87407200D01*
X49380952Y-87407200D02*
X49333333Y-87359580D01*
X49333333Y-87359580D02*
X49285714Y-87264342D01*
X49285714Y-87264342D02*
X49238095Y-87073866D01*
X49238095Y-87073866D02*
X49238095Y-86835771D01*
X49238095Y-86835771D02*
X49285714Y-86645295D01*
X49285714Y-86645295D02*
X49333333Y-86550057D01*
X49333333Y-86550057D02*
X49380952Y-86502438D01*
X49380952Y-86502438D02*
X49476190Y-86454819D01*
X100190476Y-69407200D02*
X100333333Y-69454819D01*
X100333333Y-69454819D02*
X100571428Y-69454819D01*
X100571428Y-69454819D02*
X100666666Y-69407200D01*
X100666666Y-69407200D02*
X100714285Y-69359580D01*
X100714285Y-69359580D02*
X100761904Y-69264342D01*
X100761904Y-69264342D02*
X100761904Y-69169104D01*
X100761904Y-69169104D02*
X100714285Y-69073866D01*
X100714285Y-69073866D02*
X100666666Y-69026247D01*
X100666666Y-69026247D02*
X100571428Y-68978628D01*
X100571428Y-68978628D02*
X100380952Y-68931009D01*
X100380952Y-68931009D02*
X100285714Y-68883390D01*
X100285714Y-68883390D02*
X100238095Y-68835771D01*
X100238095Y-68835771D02*
X100190476Y-68740533D01*
X100190476Y-68740533D02*
X100190476Y-68645295D01*
X100190476Y-68645295D02*
X100238095Y-68550057D01*
X100238095Y-68550057D02*
X100285714Y-68502438D01*
X100285714Y-68502438D02*
X100380952Y-68454819D01*
X100380952Y-68454819D02*
X100619047Y-68454819D01*
X100619047Y-68454819D02*
X100761904Y-68502438D01*
X101095238Y-68454819D02*
X101333333Y-69454819D01*
X101333333Y-69454819D02*
X101523809Y-68740533D01*
X101523809Y-68740533D02*
X101714285Y-69454819D01*
X101714285Y-69454819D02*
X101952381Y-68454819D01*
X102857142Y-69454819D02*
X102285714Y-69454819D01*
X102571428Y-69454819D02*
X102571428Y-68454819D01*
X102571428Y-68454819D02*
X102476190Y-68597676D01*
X102476190Y-68597676D02*
X102380952Y-68692914D01*
X102380952Y-68692914D02*
X102285714Y-68740533D01*
X103190476Y-68454819D02*
X103857142Y-68454819D01*
X103857142Y-68454819D02*
X103428571Y-69454819D01*
X28190476Y-87407200D02*
X28333333Y-87454819D01*
X28333333Y-87454819D02*
X28571428Y-87454819D01*
X28571428Y-87454819D02*
X28666666Y-87407200D01*
X28666666Y-87407200D02*
X28714285Y-87359580D01*
X28714285Y-87359580D02*
X28761904Y-87264342D01*
X28761904Y-87264342D02*
X28761904Y-87169104D01*
X28761904Y-87169104D02*
X28714285Y-87073866D01*
X28714285Y-87073866D02*
X28666666Y-87026247D01*
X28666666Y-87026247D02*
X28571428Y-86978628D01*
X28571428Y-86978628D02*
X28380952Y-86931009D01*
X28380952Y-86931009D02*
X28285714Y-86883390D01*
X28285714Y-86883390D02*
X28238095Y-86835771D01*
X28238095Y-86835771D02*
X28190476Y-86740533D01*
X28190476Y-86740533D02*
X28190476Y-86645295D01*
X28190476Y-86645295D02*
X28238095Y-86550057D01*
X28238095Y-86550057D02*
X28285714Y-86502438D01*
X28285714Y-86502438D02*
X28380952Y-86454819D01*
X28380952Y-86454819D02*
X28619047Y-86454819D01*
X28619047Y-86454819D02*
X28761904Y-86502438D01*
X29095238Y-86454819D02*
X29333333Y-87454819D01*
X29333333Y-87454819D02*
X29523809Y-86740533D01*
X29523809Y-86740533D02*
X29714285Y-87454819D01*
X29714285Y-87454819D02*
X29952381Y-86454819D01*
X30857142Y-87454819D02*
X30285714Y-87454819D01*
X30571428Y-87454819D02*
X30571428Y-86454819D01*
X30571428Y-86454819D02*
X30476190Y-86597676D01*
X30476190Y-86597676D02*
X30380952Y-86692914D01*
X30380952Y-86692914D02*
X30285714Y-86740533D01*
X31333333Y-87454819D02*
X31523809Y-87454819D01*
X31523809Y-87454819D02*
X31619047Y-87407200D01*
X31619047Y-87407200D02*
X31666666Y-87359580D01*
X31666666Y-87359580D02*
X31761904Y-87216723D01*
X31761904Y-87216723D02*
X31809523Y-87026247D01*
X31809523Y-87026247D02*
X31809523Y-86645295D01*
X31809523Y-86645295D02*
X31761904Y-86550057D01*
X31761904Y-86550057D02*
X31714285Y-86502438D01*
X31714285Y-86502438D02*
X31619047Y-86454819D01*
X31619047Y-86454819D02*
X31428571Y-86454819D01*
X31428571Y-86454819D02*
X31333333Y-86502438D01*
X31333333Y-86502438D02*
X31285714Y-86550057D01*
X31285714Y-86550057D02*
X31238095Y-86645295D01*
X31238095Y-86645295D02*
X31238095Y-86883390D01*
X31238095Y-86883390D02*
X31285714Y-86978628D01*
X31285714Y-86978628D02*
X31333333Y-87026247D01*
X31333333Y-87026247D02*
X31428571Y-87073866D01*
X31428571Y-87073866D02*
X31619047Y-87073866D01*
X31619047Y-87073866D02*
X31714285Y-87026247D01*
X31714285Y-87026247D02*
X31761904Y-86978628D01*
X31761904Y-86978628D02*
X31809523Y-86883390D01*
X46666667Y-51407200D02*
X46809524Y-51454819D01*
X46809524Y-51454819D02*
X47047619Y-51454819D01*
X47047619Y-51454819D02*
X47142857Y-51407200D01*
X47142857Y-51407200D02*
X47190476Y-51359580D01*
X47190476Y-51359580D02*
X47238095Y-51264342D01*
X47238095Y-51264342D02*
X47238095Y-51169104D01*
X47238095Y-51169104D02*
X47190476Y-51073866D01*
X47190476Y-51073866D02*
X47142857Y-51026247D01*
X47142857Y-51026247D02*
X47047619Y-50978628D01*
X47047619Y-50978628D02*
X46857143Y-50931009D01*
X46857143Y-50931009D02*
X46761905Y-50883390D01*
X46761905Y-50883390D02*
X46714286Y-50835771D01*
X46714286Y-50835771D02*
X46666667Y-50740533D01*
X46666667Y-50740533D02*
X46666667Y-50645295D01*
X46666667Y-50645295D02*
X46714286Y-50550057D01*
X46714286Y-50550057D02*
X46761905Y-50502438D01*
X46761905Y-50502438D02*
X46857143Y-50454819D01*
X46857143Y-50454819D02*
X47095238Y-50454819D01*
X47095238Y-50454819D02*
X47238095Y-50502438D01*
X47571429Y-50454819D02*
X47809524Y-51454819D01*
X47809524Y-51454819D02*
X48000000Y-50740533D01*
X48000000Y-50740533D02*
X48190476Y-51454819D01*
X48190476Y-51454819D02*
X48428572Y-50454819D01*
X48952381Y-50883390D02*
X48857143Y-50835771D01*
X48857143Y-50835771D02*
X48809524Y-50788152D01*
X48809524Y-50788152D02*
X48761905Y-50692914D01*
X48761905Y-50692914D02*
X48761905Y-50645295D01*
X48761905Y-50645295D02*
X48809524Y-50550057D01*
X48809524Y-50550057D02*
X48857143Y-50502438D01*
X48857143Y-50502438D02*
X48952381Y-50454819D01*
X48952381Y-50454819D02*
X49142857Y-50454819D01*
X49142857Y-50454819D02*
X49238095Y-50502438D01*
X49238095Y-50502438D02*
X49285714Y-50550057D01*
X49285714Y-50550057D02*
X49333333Y-50645295D01*
X49333333Y-50645295D02*
X49333333Y-50692914D01*
X49333333Y-50692914D02*
X49285714Y-50788152D01*
X49285714Y-50788152D02*
X49238095Y-50835771D01*
X49238095Y-50835771D02*
X49142857Y-50883390D01*
X49142857Y-50883390D02*
X48952381Y-50883390D01*
X48952381Y-50883390D02*
X48857143Y-50931009D01*
X48857143Y-50931009D02*
X48809524Y-50978628D01*
X48809524Y-50978628D02*
X48761905Y-51073866D01*
X48761905Y-51073866D02*
X48761905Y-51264342D01*
X48761905Y-51264342D02*
X48809524Y-51359580D01*
X48809524Y-51359580D02*
X48857143Y-51407200D01*
X48857143Y-51407200D02*
X48952381Y-51454819D01*
X48952381Y-51454819D02*
X49142857Y-51454819D01*
X49142857Y-51454819D02*
X49238095Y-51407200D01*
X49238095Y-51407200D02*
X49285714Y-51359580D01*
X49285714Y-51359580D02*
X49333333Y-51264342D01*
X49333333Y-51264342D02*
X49333333Y-51073866D01*
X49333333Y-51073866D02*
X49285714Y-50978628D01*
X49285714Y-50978628D02*
X49238095Y-50931009D01*
X49238095Y-50931009D02*
X49142857Y-50883390D01*
X28666667Y-51407200D02*
X28809524Y-51454819D01*
X28809524Y-51454819D02*
X29047619Y-51454819D01*
X29047619Y-51454819D02*
X29142857Y-51407200D01*
X29142857Y-51407200D02*
X29190476Y-51359580D01*
X29190476Y-51359580D02*
X29238095Y-51264342D01*
X29238095Y-51264342D02*
X29238095Y-51169104D01*
X29238095Y-51169104D02*
X29190476Y-51073866D01*
X29190476Y-51073866D02*
X29142857Y-51026247D01*
X29142857Y-51026247D02*
X29047619Y-50978628D01*
X29047619Y-50978628D02*
X28857143Y-50931009D01*
X28857143Y-50931009D02*
X28761905Y-50883390D01*
X28761905Y-50883390D02*
X28714286Y-50835771D01*
X28714286Y-50835771D02*
X28666667Y-50740533D01*
X28666667Y-50740533D02*
X28666667Y-50645295D01*
X28666667Y-50645295D02*
X28714286Y-50550057D01*
X28714286Y-50550057D02*
X28761905Y-50502438D01*
X28761905Y-50502438D02*
X28857143Y-50454819D01*
X28857143Y-50454819D02*
X29095238Y-50454819D01*
X29095238Y-50454819D02*
X29238095Y-50502438D01*
X29571429Y-50454819D02*
X29809524Y-51454819D01*
X29809524Y-51454819D02*
X30000000Y-50740533D01*
X30000000Y-50740533D02*
X30190476Y-51454819D01*
X30190476Y-51454819D02*
X30428572Y-50454819D01*
X30714286Y-50454819D02*
X31380952Y-50454819D01*
X31380952Y-50454819D02*
X30952381Y-51454819D01*
X64190476Y-69407200D02*
X64333333Y-69454819D01*
X64333333Y-69454819D02*
X64571428Y-69454819D01*
X64571428Y-69454819D02*
X64666666Y-69407200D01*
X64666666Y-69407200D02*
X64714285Y-69359580D01*
X64714285Y-69359580D02*
X64761904Y-69264342D01*
X64761904Y-69264342D02*
X64761904Y-69169104D01*
X64761904Y-69169104D02*
X64714285Y-69073866D01*
X64714285Y-69073866D02*
X64666666Y-69026247D01*
X64666666Y-69026247D02*
X64571428Y-68978628D01*
X64571428Y-68978628D02*
X64380952Y-68931009D01*
X64380952Y-68931009D02*
X64285714Y-68883390D01*
X64285714Y-68883390D02*
X64238095Y-68835771D01*
X64238095Y-68835771D02*
X64190476Y-68740533D01*
X64190476Y-68740533D02*
X64190476Y-68645295D01*
X64190476Y-68645295D02*
X64238095Y-68550057D01*
X64238095Y-68550057D02*
X64285714Y-68502438D01*
X64285714Y-68502438D02*
X64380952Y-68454819D01*
X64380952Y-68454819D02*
X64619047Y-68454819D01*
X64619047Y-68454819D02*
X64761904Y-68502438D01*
X65095238Y-68454819D02*
X65333333Y-69454819D01*
X65333333Y-69454819D02*
X65523809Y-68740533D01*
X65523809Y-68740533D02*
X65714285Y-69454819D01*
X65714285Y-69454819D02*
X65952381Y-68454819D01*
X66857142Y-69454819D02*
X66285714Y-69454819D01*
X66571428Y-69454819D02*
X66571428Y-68454819D01*
X66571428Y-68454819D02*
X66476190Y-68597676D01*
X66476190Y-68597676D02*
X66380952Y-68692914D01*
X66380952Y-68692914D02*
X66285714Y-68740533D01*
X67761904Y-68454819D02*
X67285714Y-68454819D01*
X67285714Y-68454819D02*
X67238095Y-68931009D01*
X67238095Y-68931009D02*
X67285714Y-68883390D01*
X67285714Y-68883390D02*
X67380952Y-68835771D01*
X67380952Y-68835771D02*
X67619047Y-68835771D01*
X67619047Y-68835771D02*
X67714285Y-68883390D01*
X67714285Y-68883390D02*
X67761904Y-68931009D01*
X67761904Y-68931009D02*
X67809523Y-69026247D01*
X67809523Y-69026247D02*
X67809523Y-69264342D01*
X67809523Y-69264342D02*
X67761904Y-69359580D01*
X67761904Y-69359580D02*
X67714285Y-69407200D01*
X67714285Y-69407200D02*
X67619047Y-69454819D01*
X67619047Y-69454819D02*
X67380952Y-69454819D01*
X67380952Y-69454819D02*
X67285714Y-69407200D01*
X67285714Y-69407200D02*
X67238095Y-69359580D01*
X109857142Y-15179580D02*
X109809523Y-15227200D01*
X109809523Y-15227200D02*
X109666666Y-15274819D01*
X109666666Y-15274819D02*
X109571428Y-15274819D01*
X109571428Y-15274819D02*
X109428571Y-15227200D01*
X109428571Y-15227200D02*
X109333333Y-15131961D01*
X109333333Y-15131961D02*
X109285714Y-15036723D01*
X109285714Y-15036723D02*
X109238095Y-14846247D01*
X109238095Y-14846247D02*
X109238095Y-14703390D01*
X109238095Y-14703390D02*
X109285714Y-14512914D01*
X109285714Y-14512914D02*
X109333333Y-14417676D01*
X109333333Y-14417676D02*
X109428571Y-14322438D01*
X109428571Y-14322438D02*
X109571428Y-14274819D01*
X109571428Y-14274819D02*
X109666666Y-14274819D01*
X109666666Y-14274819D02*
X109809523Y-14322438D01*
X109809523Y-14322438D02*
X109857142Y-14370057D01*
X110809523Y-15274819D02*
X110238095Y-15274819D01*
X110523809Y-15274819D02*
X110523809Y-14274819D01*
X110523809Y-14274819D02*
X110428571Y-14417676D01*
X110428571Y-14417676D02*
X110333333Y-14512914D01*
X110333333Y-14512914D02*
X110238095Y-14560533D01*
X111761904Y-15274819D02*
X111190476Y-15274819D01*
X111476190Y-15274819D02*
X111476190Y-14274819D01*
X111476190Y-14274819D02*
X111380952Y-14417676D01*
X111380952Y-14417676D02*
X111285714Y-14512914D01*
X111285714Y-14512914D02*
X111190476Y-14560533D01*
X115904761Y-4650057D02*
X115809523Y-4602438D01*
X115809523Y-4602438D02*
X115714285Y-4507200D01*
X115714285Y-4507200D02*
X115571428Y-4364342D01*
X115571428Y-4364342D02*
X115476190Y-4316723D01*
X115476190Y-4316723D02*
X115380952Y-4316723D01*
X115428571Y-4554819D02*
X115333333Y-4507200D01*
X115333333Y-4507200D02*
X115238095Y-4411961D01*
X115238095Y-4411961D02*
X115190476Y-4221485D01*
X115190476Y-4221485D02*
X115190476Y-3888152D01*
X115190476Y-3888152D02*
X115238095Y-3697676D01*
X115238095Y-3697676D02*
X115333333Y-3602438D01*
X115333333Y-3602438D02*
X115428571Y-3554819D01*
X115428571Y-3554819D02*
X115619047Y-3554819D01*
X115619047Y-3554819D02*
X115714285Y-3602438D01*
X115714285Y-3602438D02*
X115809523Y-3697676D01*
X115809523Y-3697676D02*
X115857142Y-3888152D01*
X115857142Y-3888152D02*
X115857142Y-4221485D01*
X115857142Y-4221485D02*
X115809523Y-4411961D01*
X115809523Y-4411961D02*
X115714285Y-4507200D01*
X115714285Y-4507200D02*
X115619047Y-4554819D01*
X115619047Y-4554819D02*
X115428571Y-4554819D01*
X116809523Y-4554819D02*
X116238095Y-4554819D01*
X116523809Y-4554819D02*
X116523809Y-3554819D01*
X116523809Y-3554819D02*
X116428571Y-3697676D01*
X116428571Y-3697676D02*
X116333333Y-3792914D01*
X116333333Y-3792914D02*
X116238095Y-3840533D01*
X100190476Y-51407200D02*
X100333333Y-51454819D01*
X100333333Y-51454819D02*
X100571428Y-51454819D01*
X100571428Y-51454819D02*
X100666666Y-51407200D01*
X100666666Y-51407200D02*
X100714285Y-51359580D01*
X100714285Y-51359580D02*
X100761904Y-51264342D01*
X100761904Y-51264342D02*
X100761904Y-51169104D01*
X100761904Y-51169104D02*
X100714285Y-51073866D01*
X100714285Y-51073866D02*
X100666666Y-51026247D01*
X100666666Y-51026247D02*
X100571428Y-50978628D01*
X100571428Y-50978628D02*
X100380952Y-50931009D01*
X100380952Y-50931009D02*
X100285714Y-50883390D01*
X100285714Y-50883390D02*
X100238095Y-50835771D01*
X100238095Y-50835771D02*
X100190476Y-50740533D01*
X100190476Y-50740533D02*
X100190476Y-50645295D01*
X100190476Y-50645295D02*
X100238095Y-50550057D01*
X100238095Y-50550057D02*
X100285714Y-50502438D01*
X100285714Y-50502438D02*
X100380952Y-50454819D01*
X100380952Y-50454819D02*
X100619047Y-50454819D01*
X100619047Y-50454819D02*
X100761904Y-50502438D01*
X101095238Y-50454819D02*
X101333333Y-51454819D01*
X101333333Y-51454819D02*
X101523809Y-50740533D01*
X101523809Y-50740533D02*
X101714285Y-51454819D01*
X101714285Y-51454819D02*
X101952381Y-50454819D01*
X102857142Y-51454819D02*
X102285714Y-51454819D01*
X102571428Y-51454819D02*
X102571428Y-50454819D01*
X102571428Y-50454819D02*
X102476190Y-50597676D01*
X102476190Y-50597676D02*
X102380952Y-50692914D01*
X102380952Y-50692914D02*
X102285714Y-50740533D01*
X103809523Y-51454819D02*
X103238095Y-51454819D01*
X103523809Y-51454819D02*
X103523809Y-50454819D01*
X103523809Y-50454819D02*
X103428571Y-50597676D01*
X103428571Y-50597676D02*
X103333333Y-50692914D01*
X103333333Y-50692914D02*
X103238095Y-50740533D01*
X67833333Y-6924819D02*
X67500000Y-6448628D01*
X67261905Y-6924819D02*
X67261905Y-5924819D01*
X67261905Y-5924819D02*
X67642857Y-5924819D01*
X67642857Y-5924819D02*
X67738095Y-5972438D01*
X67738095Y-5972438D02*
X67785714Y-6020057D01*
X67785714Y-6020057D02*
X67833333Y-6115295D01*
X67833333Y-6115295D02*
X67833333Y-6258152D01*
X67833333Y-6258152D02*
X67785714Y-6353390D01*
X67785714Y-6353390D02*
X67738095Y-6401009D01*
X67738095Y-6401009D02*
X67642857Y-6448628D01*
X67642857Y-6448628D02*
X67261905Y-6448628D01*
X68214286Y-6020057D02*
X68261905Y-5972438D01*
X68261905Y-5972438D02*
X68357143Y-5924819D01*
X68357143Y-5924819D02*
X68595238Y-5924819D01*
X68595238Y-5924819D02*
X68690476Y-5972438D01*
X68690476Y-5972438D02*
X68738095Y-6020057D01*
X68738095Y-6020057D02*
X68785714Y-6115295D01*
X68785714Y-6115295D02*
X68785714Y-6210533D01*
X68785714Y-6210533D02*
X68738095Y-6353390D01*
X68738095Y-6353390D02*
X68166667Y-6924819D01*
X68166667Y-6924819D02*
X68785714Y-6924819D01*
X55357142Y-30024819D02*
X55023809Y-29548628D01*
X54785714Y-30024819D02*
X54785714Y-29024819D01*
X54785714Y-29024819D02*
X55166666Y-29024819D01*
X55166666Y-29024819D02*
X55261904Y-29072438D01*
X55261904Y-29072438D02*
X55309523Y-29120057D01*
X55309523Y-29120057D02*
X55357142Y-29215295D01*
X55357142Y-29215295D02*
X55357142Y-29358152D01*
X55357142Y-29358152D02*
X55309523Y-29453390D01*
X55309523Y-29453390D02*
X55261904Y-29501009D01*
X55261904Y-29501009D02*
X55166666Y-29548628D01*
X55166666Y-29548628D02*
X54785714Y-29548628D01*
X56309523Y-30024819D02*
X55738095Y-30024819D01*
X56023809Y-30024819D02*
X56023809Y-29024819D01*
X56023809Y-29024819D02*
X55928571Y-29167676D01*
X55928571Y-29167676D02*
X55833333Y-29262914D01*
X55833333Y-29262914D02*
X55738095Y-29310533D01*
X56690476Y-29120057D02*
X56738095Y-29072438D01*
X56738095Y-29072438D02*
X56833333Y-29024819D01*
X56833333Y-29024819D02*
X57071428Y-29024819D01*
X57071428Y-29024819D02*
X57166666Y-29072438D01*
X57166666Y-29072438D02*
X57214285Y-29120057D01*
X57214285Y-29120057D02*
X57261904Y-29215295D01*
X57261904Y-29215295D02*
X57261904Y-29310533D01*
X57261904Y-29310533D02*
X57214285Y-29453390D01*
X57214285Y-29453390D02*
X56642857Y-30024819D01*
X56642857Y-30024819D02*
X57261904Y-30024819D01*
X11857142Y-23524819D02*
X11523809Y-23048628D01*
X11285714Y-23524819D02*
X11285714Y-22524819D01*
X11285714Y-22524819D02*
X11666666Y-22524819D01*
X11666666Y-22524819D02*
X11761904Y-22572438D01*
X11761904Y-22572438D02*
X11809523Y-22620057D01*
X11809523Y-22620057D02*
X11857142Y-22715295D01*
X11857142Y-22715295D02*
X11857142Y-22858152D01*
X11857142Y-22858152D02*
X11809523Y-22953390D01*
X11809523Y-22953390D02*
X11761904Y-23001009D01*
X11761904Y-23001009D02*
X11666666Y-23048628D01*
X11666666Y-23048628D02*
X11285714Y-23048628D01*
X12809523Y-23524819D02*
X12238095Y-23524819D01*
X12523809Y-23524819D02*
X12523809Y-22524819D01*
X12523809Y-22524819D02*
X12428571Y-22667676D01*
X12428571Y-22667676D02*
X12333333Y-22762914D01*
X12333333Y-22762914D02*
X12238095Y-22810533D01*
X13428571Y-22524819D02*
X13523809Y-22524819D01*
X13523809Y-22524819D02*
X13619047Y-22572438D01*
X13619047Y-22572438D02*
X13666666Y-22620057D01*
X13666666Y-22620057D02*
X13714285Y-22715295D01*
X13714285Y-22715295D02*
X13761904Y-22905771D01*
X13761904Y-22905771D02*
X13761904Y-23143866D01*
X13761904Y-23143866D02*
X13714285Y-23334342D01*
X13714285Y-23334342D02*
X13666666Y-23429580D01*
X13666666Y-23429580D02*
X13619047Y-23477200D01*
X13619047Y-23477200D02*
X13523809Y-23524819D01*
X13523809Y-23524819D02*
X13428571Y-23524819D01*
X13428571Y-23524819D02*
X13333333Y-23477200D01*
X13333333Y-23477200D02*
X13285714Y-23429580D01*
X13285714Y-23429580D02*
X13238095Y-23334342D01*
X13238095Y-23334342D02*
X13190476Y-23143866D01*
X13190476Y-23143866D02*
X13190476Y-22905771D01*
X13190476Y-22905771D02*
X13238095Y-22715295D01*
X13238095Y-22715295D02*
X13285714Y-22620057D01*
X13285714Y-22620057D02*
X13333333Y-22572438D01*
X13333333Y-22572438D02*
X13428571Y-22524819D01*
X64666667Y-51407200D02*
X64809524Y-51454819D01*
X64809524Y-51454819D02*
X65047619Y-51454819D01*
X65047619Y-51454819D02*
X65142857Y-51407200D01*
X65142857Y-51407200D02*
X65190476Y-51359580D01*
X65190476Y-51359580D02*
X65238095Y-51264342D01*
X65238095Y-51264342D02*
X65238095Y-51169104D01*
X65238095Y-51169104D02*
X65190476Y-51073866D01*
X65190476Y-51073866D02*
X65142857Y-51026247D01*
X65142857Y-51026247D02*
X65047619Y-50978628D01*
X65047619Y-50978628D02*
X64857143Y-50931009D01*
X64857143Y-50931009D02*
X64761905Y-50883390D01*
X64761905Y-50883390D02*
X64714286Y-50835771D01*
X64714286Y-50835771D02*
X64666667Y-50740533D01*
X64666667Y-50740533D02*
X64666667Y-50645295D01*
X64666667Y-50645295D02*
X64714286Y-50550057D01*
X64714286Y-50550057D02*
X64761905Y-50502438D01*
X64761905Y-50502438D02*
X64857143Y-50454819D01*
X64857143Y-50454819D02*
X65095238Y-50454819D01*
X65095238Y-50454819D02*
X65238095Y-50502438D01*
X65571429Y-50454819D02*
X65809524Y-51454819D01*
X65809524Y-51454819D02*
X66000000Y-50740533D01*
X66000000Y-50740533D02*
X66190476Y-51454819D01*
X66190476Y-51454819D02*
X66428572Y-50454819D01*
X66857143Y-51454819D02*
X67047619Y-51454819D01*
X67047619Y-51454819D02*
X67142857Y-51407200D01*
X67142857Y-51407200D02*
X67190476Y-51359580D01*
X67190476Y-51359580D02*
X67285714Y-51216723D01*
X67285714Y-51216723D02*
X67333333Y-51026247D01*
X67333333Y-51026247D02*
X67333333Y-50645295D01*
X67333333Y-50645295D02*
X67285714Y-50550057D01*
X67285714Y-50550057D02*
X67238095Y-50502438D01*
X67238095Y-50502438D02*
X67142857Y-50454819D01*
X67142857Y-50454819D02*
X66952381Y-50454819D01*
X66952381Y-50454819D02*
X66857143Y-50502438D01*
X66857143Y-50502438D02*
X66809524Y-50550057D01*
X66809524Y-50550057D02*
X66761905Y-50645295D01*
X66761905Y-50645295D02*
X66761905Y-50883390D01*
X66761905Y-50883390D02*
X66809524Y-50978628D01*
X66809524Y-50978628D02*
X66857143Y-51026247D01*
X66857143Y-51026247D02*
X66952381Y-51073866D01*
X66952381Y-51073866D02*
X67142857Y-51073866D01*
X67142857Y-51073866D02*
X67238095Y-51026247D01*
X67238095Y-51026247D02*
X67285714Y-50978628D01*
X67285714Y-50978628D02*
X67333333Y-50883390D01*
X118666667Y-33407200D02*
X118809524Y-33454819D01*
X118809524Y-33454819D02*
X119047619Y-33454819D01*
X119047619Y-33454819D02*
X119142857Y-33407200D01*
X119142857Y-33407200D02*
X119190476Y-33359580D01*
X119190476Y-33359580D02*
X119238095Y-33264342D01*
X119238095Y-33264342D02*
X119238095Y-33169104D01*
X119238095Y-33169104D02*
X119190476Y-33073866D01*
X119190476Y-33073866D02*
X119142857Y-33026247D01*
X119142857Y-33026247D02*
X119047619Y-32978628D01*
X119047619Y-32978628D02*
X118857143Y-32931009D01*
X118857143Y-32931009D02*
X118761905Y-32883390D01*
X118761905Y-32883390D02*
X118714286Y-32835771D01*
X118714286Y-32835771D02*
X118666667Y-32740533D01*
X118666667Y-32740533D02*
X118666667Y-32645295D01*
X118666667Y-32645295D02*
X118714286Y-32550057D01*
X118714286Y-32550057D02*
X118761905Y-32502438D01*
X118761905Y-32502438D02*
X118857143Y-32454819D01*
X118857143Y-32454819D02*
X119095238Y-32454819D01*
X119095238Y-32454819D02*
X119238095Y-32502438D01*
X119571429Y-32454819D02*
X119809524Y-33454819D01*
X119809524Y-33454819D02*
X120000000Y-32740533D01*
X120000000Y-32740533D02*
X120190476Y-33454819D01*
X120190476Y-33454819D02*
X120428572Y-32454819D01*
X121238095Y-32454819D02*
X121047619Y-32454819D01*
X121047619Y-32454819D02*
X120952381Y-32502438D01*
X120952381Y-32502438D02*
X120904762Y-32550057D01*
X120904762Y-32550057D02*
X120809524Y-32692914D01*
X120809524Y-32692914D02*
X120761905Y-32883390D01*
X120761905Y-32883390D02*
X120761905Y-33264342D01*
X120761905Y-33264342D02*
X120809524Y-33359580D01*
X120809524Y-33359580D02*
X120857143Y-33407200D01*
X120857143Y-33407200D02*
X120952381Y-33454819D01*
X120952381Y-33454819D02*
X121142857Y-33454819D01*
X121142857Y-33454819D02*
X121238095Y-33407200D01*
X121238095Y-33407200D02*
X121285714Y-33359580D01*
X121285714Y-33359580D02*
X121333333Y-33264342D01*
X121333333Y-33264342D02*
X121333333Y-33026247D01*
X121333333Y-33026247D02*
X121285714Y-32931009D01*
X121285714Y-32931009D02*
X121238095Y-32883390D01*
X121238095Y-32883390D02*
X121142857Y-32835771D01*
X121142857Y-32835771D02*
X120952381Y-32835771D01*
X120952381Y-32835771D02*
X120857143Y-32883390D01*
X120857143Y-32883390D02*
X120809524Y-32931009D01*
X120809524Y-32931009D02*
X120761905Y-33026247D01*
X82190476Y-69407200D02*
X82333333Y-69454819D01*
X82333333Y-69454819D02*
X82571428Y-69454819D01*
X82571428Y-69454819D02*
X82666666Y-69407200D01*
X82666666Y-69407200D02*
X82714285Y-69359580D01*
X82714285Y-69359580D02*
X82761904Y-69264342D01*
X82761904Y-69264342D02*
X82761904Y-69169104D01*
X82761904Y-69169104D02*
X82714285Y-69073866D01*
X82714285Y-69073866D02*
X82666666Y-69026247D01*
X82666666Y-69026247D02*
X82571428Y-68978628D01*
X82571428Y-68978628D02*
X82380952Y-68931009D01*
X82380952Y-68931009D02*
X82285714Y-68883390D01*
X82285714Y-68883390D02*
X82238095Y-68835771D01*
X82238095Y-68835771D02*
X82190476Y-68740533D01*
X82190476Y-68740533D02*
X82190476Y-68645295D01*
X82190476Y-68645295D02*
X82238095Y-68550057D01*
X82238095Y-68550057D02*
X82285714Y-68502438D01*
X82285714Y-68502438D02*
X82380952Y-68454819D01*
X82380952Y-68454819D02*
X82619047Y-68454819D01*
X82619047Y-68454819D02*
X82761904Y-68502438D01*
X83095238Y-68454819D02*
X83333333Y-69454819D01*
X83333333Y-69454819D02*
X83523809Y-68740533D01*
X83523809Y-68740533D02*
X83714285Y-69454819D01*
X83714285Y-69454819D02*
X83952381Y-68454819D01*
X84857142Y-69454819D02*
X84285714Y-69454819D01*
X84571428Y-69454819D02*
X84571428Y-68454819D01*
X84571428Y-68454819D02*
X84476190Y-68597676D01*
X84476190Y-68597676D02*
X84380952Y-68692914D01*
X84380952Y-68692914D02*
X84285714Y-68740533D01*
X85714285Y-68454819D02*
X85523809Y-68454819D01*
X85523809Y-68454819D02*
X85428571Y-68502438D01*
X85428571Y-68502438D02*
X85380952Y-68550057D01*
X85380952Y-68550057D02*
X85285714Y-68692914D01*
X85285714Y-68692914D02*
X85238095Y-68883390D01*
X85238095Y-68883390D02*
X85238095Y-69264342D01*
X85238095Y-69264342D02*
X85285714Y-69359580D01*
X85285714Y-69359580D02*
X85333333Y-69407200D01*
X85333333Y-69407200D02*
X85428571Y-69454819D01*
X85428571Y-69454819D02*
X85619047Y-69454819D01*
X85619047Y-69454819D02*
X85714285Y-69407200D01*
X85714285Y-69407200D02*
X85761904Y-69359580D01*
X85761904Y-69359580D02*
X85809523Y-69264342D01*
X85809523Y-69264342D02*
X85809523Y-69026247D01*
X85809523Y-69026247D02*
X85761904Y-68931009D01*
X85761904Y-68931009D02*
X85714285Y-68883390D01*
X85714285Y-68883390D02*
X85619047Y-68835771D01*
X85619047Y-68835771D02*
X85428571Y-68835771D01*
X85428571Y-68835771D02*
X85333333Y-68883390D01*
X85333333Y-68883390D02*
X85285714Y-68931009D01*
X85285714Y-68931009D02*
X85238095Y-69026247D01*
X131833333Y-16024819D02*
X131500000Y-15548628D01*
X131261905Y-16024819D02*
X131261905Y-15024819D01*
X131261905Y-15024819D02*
X131642857Y-15024819D01*
X131642857Y-15024819D02*
X131738095Y-15072438D01*
X131738095Y-15072438D02*
X131785714Y-15120057D01*
X131785714Y-15120057D02*
X131833333Y-15215295D01*
X131833333Y-15215295D02*
X131833333Y-15358152D01*
X131833333Y-15358152D02*
X131785714Y-15453390D01*
X131785714Y-15453390D02*
X131738095Y-15501009D01*
X131738095Y-15501009D02*
X131642857Y-15548628D01*
X131642857Y-15548628D02*
X131261905Y-15548628D01*
X132404762Y-15453390D02*
X132309524Y-15405771D01*
X132309524Y-15405771D02*
X132261905Y-15358152D01*
X132261905Y-15358152D02*
X132214286Y-15262914D01*
X132214286Y-15262914D02*
X132214286Y-15215295D01*
X132214286Y-15215295D02*
X132261905Y-15120057D01*
X132261905Y-15120057D02*
X132309524Y-15072438D01*
X132309524Y-15072438D02*
X132404762Y-15024819D01*
X132404762Y-15024819D02*
X132595238Y-15024819D01*
X132595238Y-15024819D02*
X132690476Y-15072438D01*
X132690476Y-15072438D02*
X132738095Y-15120057D01*
X132738095Y-15120057D02*
X132785714Y-15215295D01*
X132785714Y-15215295D02*
X132785714Y-15262914D01*
X132785714Y-15262914D02*
X132738095Y-15358152D01*
X132738095Y-15358152D02*
X132690476Y-15405771D01*
X132690476Y-15405771D02*
X132595238Y-15453390D01*
X132595238Y-15453390D02*
X132404762Y-15453390D01*
X132404762Y-15453390D02*
X132309524Y-15501009D01*
X132309524Y-15501009D02*
X132261905Y-15548628D01*
X132261905Y-15548628D02*
X132214286Y-15643866D01*
X132214286Y-15643866D02*
X132214286Y-15834342D01*
X132214286Y-15834342D02*
X132261905Y-15929580D01*
X132261905Y-15929580D02*
X132309524Y-15977200D01*
X132309524Y-15977200D02*
X132404762Y-16024819D01*
X132404762Y-16024819D02*
X132595238Y-16024819D01*
X132595238Y-16024819D02*
X132690476Y-15977200D01*
X132690476Y-15977200D02*
X132738095Y-15929580D01*
X132738095Y-15929580D02*
X132785714Y-15834342D01*
X132785714Y-15834342D02*
X132785714Y-15643866D01*
X132785714Y-15643866D02*
X132738095Y-15548628D01*
X132738095Y-15548628D02*
X132690476Y-15501009D01*
X132690476Y-15501009D02*
X132595238Y-15453390D01*
X25333333Y-19679580D02*
X25285714Y-19727200D01*
X25285714Y-19727200D02*
X25142857Y-19774819D01*
X25142857Y-19774819D02*
X25047619Y-19774819D01*
X25047619Y-19774819D02*
X24904762Y-19727200D01*
X24904762Y-19727200D02*
X24809524Y-19631961D01*
X24809524Y-19631961D02*
X24761905Y-19536723D01*
X24761905Y-19536723D02*
X24714286Y-19346247D01*
X24714286Y-19346247D02*
X24714286Y-19203390D01*
X24714286Y-19203390D02*
X24761905Y-19012914D01*
X24761905Y-19012914D02*
X24809524Y-18917676D01*
X24809524Y-18917676D02*
X24904762Y-18822438D01*
X24904762Y-18822438D02*
X25047619Y-18774819D01*
X25047619Y-18774819D02*
X25142857Y-18774819D01*
X25142857Y-18774819D02*
X25285714Y-18822438D01*
X25285714Y-18822438D02*
X25333333Y-18870057D01*
X26190476Y-19108152D02*
X26190476Y-19774819D01*
X25952381Y-18727200D02*
X25714286Y-19441485D01*
X25714286Y-19441485D02*
X26333333Y-19441485D01*
X132238095Y-3504819D02*
X132238095Y-4314342D01*
X132238095Y-4314342D02*
X132285714Y-4409580D01*
X132285714Y-4409580D02*
X132333333Y-4457200D01*
X132333333Y-4457200D02*
X132428571Y-4504819D01*
X132428571Y-4504819D02*
X132619047Y-4504819D01*
X132619047Y-4504819D02*
X132714285Y-4457200D01*
X132714285Y-4457200D02*
X132761904Y-4409580D01*
X132761904Y-4409580D02*
X132809523Y-4314342D01*
X132809523Y-4314342D02*
X132809523Y-3504819D01*
X133761904Y-3504819D02*
X133285714Y-3504819D01*
X133285714Y-3504819D02*
X133238095Y-3981009D01*
X133238095Y-3981009D02*
X133285714Y-3933390D01*
X133285714Y-3933390D02*
X133380952Y-3885771D01*
X133380952Y-3885771D02*
X133619047Y-3885771D01*
X133619047Y-3885771D02*
X133714285Y-3933390D01*
X133714285Y-3933390D02*
X133761904Y-3981009D01*
X133761904Y-3981009D02*
X133809523Y-4076247D01*
X133809523Y-4076247D02*
X133809523Y-4314342D01*
X133809523Y-4314342D02*
X133761904Y-4409580D01*
X133761904Y-4409580D02*
X133714285Y-4457200D01*
X133714285Y-4457200D02*
X133619047Y-4504819D01*
X133619047Y-4504819D02*
X133380952Y-4504819D01*
X133380952Y-4504819D02*
X133285714Y-4457200D01*
X133285714Y-4457200D02*
X133238095Y-4409580D01*
X20833333Y-19929580D02*
X20785714Y-19977200D01*
X20785714Y-19977200D02*
X20642857Y-20024819D01*
X20642857Y-20024819D02*
X20547619Y-20024819D01*
X20547619Y-20024819D02*
X20404762Y-19977200D01*
X20404762Y-19977200D02*
X20309524Y-19881961D01*
X20309524Y-19881961D02*
X20261905Y-19786723D01*
X20261905Y-19786723D02*
X20214286Y-19596247D01*
X20214286Y-19596247D02*
X20214286Y-19453390D01*
X20214286Y-19453390D02*
X20261905Y-19262914D01*
X20261905Y-19262914D02*
X20309524Y-19167676D01*
X20309524Y-19167676D02*
X20404762Y-19072438D01*
X20404762Y-19072438D02*
X20547619Y-19024819D01*
X20547619Y-19024819D02*
X20642857Y-19024819D01*
X20642857Y-19024819D02*
X20785714Y-19072438D01*
X20785714Y-19072438D02*
X20833333Y-19120057D01*
X21166667Y-19024819D02*
X21785714Y-19024819D01*
X21785714Y-19024819D02*
X21452381Y-19405771D01*
X21452381Y-19405771D02*
X21595238Y-19405771D01*
X21595238Y-19405771D02*
X21690476Y-19453390D01*
X21690476Y-19453390D02*
X21738095Y-19501009D01*
X21738095Y-19501009D02*
X21785714Y-19596247D01*
X21785714Y-19596247D02*
X21785714Y-19834342D01*
X21785714Y-19834342D02*
X21738095Y-19929580D01*
X21738095Y-19929580D02*
X21690476Y-19977200D01*
X21690476Y-19977200D02*
X21595238Y-20024819D01*
X21595238Y-20024819D02*
X21309524Y-20024819D01*
X21309524Y-20024819D02*
X21214286Y-19977200D01*
X21214286Y-19977200D02*
X21166667Y-19929580D01*
X17333333Y-23429580D02*
X17285714Y-23477200D01*
X17285714Y-23477200D02*
X17142857Y-23524819D01*
X17142857Y-23524819D02*
X17047619Y-23524819D01*
X17047619Y-23524819D02*
X16904762Y-23477200D01*
X16904762Y-23477200D02*
X16809524Y-23381961D01*
X16809524Y-23381961D02*
X16761905Y-23286723D01*
X16761905Y-23286723D02*
X16714286Y-23096247D01*
X16714286Y-23096247D02*
X16714286Y-22953390D01*
X16714286Y-22953390D02*
X16761905Y-22762914D01*
X16761905Y-22762914D02*
X16809524Y-22667676D01*
X16809524Y-22667676D02*
X16904762Y-22572438D01*
X16904762Y-22572438D02*
X17047619Y-22524819D01*
X17047619Y-22524819D02*
X17142857Y-22524819D01*
X17142857Y-22524819D02*
X17285714Y-22572438D01*
X17285714Y-22572438D02*
X17333333Y-22620057D01*
X18238095Y-22524819D02*
X17761905Y-22524819D01*
X17761905Y-22524819D02*
X17714286Y-23001009D01*
X17714286Y-23001009D02*
X17761905Y-22953390D01*
X17761905Y-22953390D02*
X17857143Y-22905771D01*
X17857143Y-22905771D02*
X18095238Y-22905771D01*
X18095238Y-22905771D02*
X18190476Y-22953390D01*
X18190476Y-22953390D02*
X18238095Y-23001009D01*
X18238095Y-23001009D02*
X18285714Y-23096247D01*
X18285714Y-23096247D02*
X18285714Y-23334342D01*
X18285714Y-23334342D02*
X18238095Y-23429580D01*
X18238095Y-23429580D02*
X18190476Y-23477200D01*
X18190476Y-23477200D02*
X18095238Y-23524819D01*
X18095238Y-23524819D02*
X17857143Y-23524819D01*
X17857143Y-23524819D02*
X17761905Y-23477200D01*
X17761905Y-23477200D02*
X17714286Y-23429580D01*
X42190476Y-20057200D02*
X42333333Y-20104819D01*
X42333333Y-20104819D02*
X42571428Y-20104819D01*
X42571428Y-20104819D02*
X42666666Y-20057200D01*
X42666666Y-20057200D02*
X42714285Y-20009580D01*
X42714285Y-20009580D02*
X42761904Y-19914342D01*
X42761904Y-19914342D02*
X42761904Y-19819104D01*
X42761904Y-19819104D02*
X42714285Y-19723866D01*
X42714285Y-19723866D02*
X42666666Y-19676247D01*
X42666666Y-19676247D02*
X42571428Y-19628628D01*
X42571428Y-19628628D02*
X42380952Y-19581009D01*
X42380952Y-19581009D02*
X42285714Y-19533390D01*
X42285714Y-19533390D02*
X42238095Y-19485771D01*
X42238095Y-19485771D02*
X42190476Y-19390533D01*
X42190476Y-19390533D02*
X42190476Y-19295295D01*
X42190476Y-19295295D02*
X42238095Y-19200057D01*
X42238095Y-19200057D02*
X42285714Y-19152438D01*
X42285714Y-19152438D02*
X42380952Y-19104819D01*
X42380952Y-19104819D02*
X42619047Y-19104819D01*
X42619047Y-19104819D02*
X42761904Y-19152438D01*
X43095238Y-19104819D02*
X43333333Y-20104819D01*
X43333333Y-20104819D02*
X43523809Y-19390533D01*
X43523809Y-19390533D02*
X43714285Y-20104819D01*
X43714285Y-20104819D02*
X43952381Y-19104819D01*
X44285714Y-19200057D02*
X44333333Y-19152438D01*
X44333333Y-19152438D02*
X44428571Y-19104819D01*
X44428571Y-19104819D02*
X44666666Y-19104819D01*
X44666666Y-19104819D02*
X44761904Y-19152438D01*
X44761904Y-19152438D02*
X44809523Y-19200057D01*
X44809523Y-19200057D02*
X44857142Y-19295295D01*
X44857142Y-19295295D02*
X44857142Y-19390533D01*
X44857142Y-19390533D02*
X44809523Y-19533390D01*
X44809523Y-19533390D02*
X44238095Y-20104819D01*
X44238095Y-20104819D02*
X44857142Y-20104819D01*
X45190476Y-19104819D02*
X45857142Y-19104819D01*
X45857142Y-19104819D02*
X45428571Y-20104819D01*
X74666666Y-10328819D02*
X74666666Y-11043104D01*
X74666666Y-11043104D02*
X74619047Y-11185961D01*
X74619047Y-11185961D02*
X74523809Y-11281200D01*
X74523809Y-11281200D02*
X74380952Y-11328819D01*
X74380952Y-11328819D02*
X74285714Y-11328819D01*
X75666666Y-11328819D02*
X75095238Y-11328819D01*
X75380952Y-11328819D02*
X75380952Y-10328819D01*
X75380952Y-10328819D02*
X75285714Y-10471676D01*
X75285714Y-10471676D02*
X75190476Y-10566914D01*
X75190476Y-10566914D02*
X75095238Y-10614533D01*
X144407200Y-46809523D02*
X144454819Y-46666666D01*
X144454819Y-46666666D02*
X144454819Y-46428571D01*
X144454819Y-46428571D02*
X144407200Y-46333333D01*
X144407200Y-46333333D02*
X144359580Y-46285714D01*
X144359580Y-46285714D02*
X144264342Y-46238095D01*
X144264342Y-46238095D02*
X144169104Y-46238095D01*
X144169104Y-46238095D02*
X144073866Y-46285714D01*
X144073866Y-46285714D02*
X144026247Y-46333333D01*
X144026247Y-46333333D02*
X143978628Y-46428571D01*
X143978628Y-46428571D02*
X143931009Y-46619047D01*
X143931009Y-46619047D02*
X143883390Y-46714285D01*
X143883390Y-46714285D02*
X143835771Y-46761904D01*
X143835771Y-46761904D02*
X143740533Y-46809523D01*
X143740533Y-46809523D02*
X143645295Y-46809523D01*
X143645295Y-46809523D02*
X143550057Y-46761904D01*
X143550057Y-46761904D02*
X143502438Y-46714285D01*
X143502438Y-46714285D02*
X143454819Y-46619047D01*
X143454819Y-46619047D02*
X143454819Y-46380952D01*
X143454819Y-46380952D02*
X143502438Y-46238095D01*
X143454819Y-45904761D02*
X144454819Y-45666666D01*
X144454819Y-45666666D02*
X143740533Y-45476190D01*
X143740533Y-45476190D02*
X144454819Y-45285714D01*
X144454819Y-45285714D02*
X143454819Y-45047619D01*
X143550057Y-44714285D02*
X143502438Y-44666666D01*
X143502438Y-44666666D02*
X143454819Y-44571428D01*
X143454819Y-44571428D02*
X143454819Y-44333333D01*
X143454819Y-44333333D02*
X143502438Y-44238095D01*
X143502438Y-44238095D02*
X143550057Y-44190476D01*
X143550057Y-44190476D02*
X143645295Y-44142857D01*
X143645295Y-44142857D02*
X143740533Y-44142857D01*
X143740533Y-44142857D02*
X143883390Y-44190476D01*
X143883390Y-44190476D02*
X144454819Y-44761904D01*
X144454819Y-44761904D02*
X144454819Y-44142857D01*
X143454819Y-43238095D02*
X143454819Y-43714285D01*
X143454819Y-43714285D02*
X143931009Y-43761904D01*
X143931009Y-43761904D02*
X143883390Y-43714285D01*
X143883390Y-43714285D02*
X143835771Y-43619047D01*
X143835771Y-43619047D02*
X143835771Y-43380952D01*
X143835771Y-43380952D02*
X143883390Y-43285714D01*
X143883390Y-43285714D02*
X143931009Y-43238095D01*
X143931009Y-43238095D02*
X144026247Y-43190476D01*
X144026247Y-43190476D02*
X144264342Y-43190476D01*
X144264342Y-43190476D02*
X144359580Y-43238095D01*
X144359580Y-43238095D02*
X144407200Y-43285714D01*
X144407200Y-43285714D02*
X144454819Y-43380952D01*
X144454819Y-43380952D02*
X144454819Y-43619047D01*
X144454819Y-43619047D02*
X144407200Y-43714285D01*
X144407200Y-43714285D02*
X144359580Y-43761904D01*
D14*
X150218113Y-48433333D02*
X150218113Y-48299999D01*
X150218113Y-48299999D02*
X150251446Y-48233333D01*
X150251446Y-48233333D02*
X150318113Y-48166666D01*
X150318113Y-48166666D02*
X150451446Y-48133333D01*
X150451446Y-48133333D02*
X150684780Y-48133333D01*
X150684780Y-48133333D02*
X150818113Y-48166666D01*
X150818113Y-48166666D02*
X150884780Y-48233333D01*
X150884780Y-48233333D02*
X150918113Y-48299999D01*
X150918113Y-48299999D02*
X150918113Y-48433333D01*
X150918113Y-48433333D02*
X150884780Y-48499999D01*
X150884780Y-48499999D02*
X150818113Y-48566666D01*
X150818113Y-48566666D02*
X150684780Y-48599999D01*
X150684780Y-48599999D02*
X150451446Y-48599999D01*
X150451446Y-48599999D02*
X150318113Y-48566666D01*
X150318113Y-48566666D02*
X150251446Y-48499999D01*
X150251446Y-48499999D02*
X150218113Y-48433333D01*
X150918113Y-47833333D02*
X150218113Y-47833333D01*
X150218113Y-47833333D02*
X150918113Y-47433333D01*
X150918113Y-47433333D02*
X150218113Y-47433333D01*
D12*
X64190476Y-87407200D02*
X64333333Y-87454819D01*
X64333333Y-87454819D02*
X64571428Y-87454819D01*
X64571428Y-87454819D02*
X64666666Y-87407200D01*
X64666666Y-87407200D02*
X64714285Y-87359580D01*
X64714285Y-87359580D02*
X64761904Y-87264342D01*
X64761904Y-87264342D02*
X64761904Y-87169104D01*
X64761904Y-87169104D02*
X64714285Y-87073866D01*
X64714285Y-87073866D02*
X64666666Y-87026247D01*
X64666666Y-87026247D02*
X64571428Y-86978628D01*
X64571428Y-86978628D02*
X64380952Y-86931009D01*
X64380952Y-86931009D02*
X64285714Y-86883390D01*
X64285714Y-86883390D02*
X64238095Y-86835771D01*
X64238095Y-86835771D02*
X64190476Y-86740533D01*
X64190476Y-86740533D02*
X64190476Y-86645295D01*
X64190476Y-86645295D02*
X64238095Y-86550057D01*
X64238095Y-86550057D02*
X64285714Y-86502438D01*
X64285714Y-86502438D02*
X64380952Y-86454819D01*
X64380952Y-86454819D02*
X64619047Y-86454819D01*
X64619047Y-86454819D02*
X64761904Y-86502438D01*
X65095238Y-86454819D02*
X65333333Y-87454819D01*
X65333333Y-87454819D02*
X65523809Y-86740533D01*
X65523809Y-86740533D02*
X65714285Y-87454819D01*
X65714285Y-87454819D02*
X65952381Y-86454819D01*
X66285714Y-86550057D02*
X66333333Y-86502438D01*
X66333333Y-86502438D02*
X66428571Y-86454819D01*
X66428571Y-86454819D02*
X66666666Y-86454819D01*
X66666666Y-86454819D02*
X66761904Y-86502438D01*
X66761904Y-86502438D02*
X66809523Y-86550057D01*
X66809523Y-86550057D02*
X66857142Y-86645295D01*
X66857142Y-86645295D02*
X66857142Y-86740533D01*
X66857142Y-86740533D02*
X66809523Y-86883390D01*
X66809523Y-86883390D02*
X66238095Y-87454819D01*
X66238095Y-87454819D02*
X66857142Y-87454819D01*
X67809523Y-87454819D02*
X67238095Y-87454819D01*
X67523809Y-87454819D02*
X67523809Y-86454819D01*
X67523809Y-86454819D02*
X67428571Y-86597676D01*
X67428571Y-86597676D02*
X67333333Y-86692914D01*
X67333333Y-86692914D02*
X67238095Y-86740533D01*
X88285714Y-4681009D02*
X88619047Y-4681009D01*
X88761904Y-5204819D02*
X88285714Y-5204819D01*
X88285714Y-5204819D02*
X88285714Y-4204819D01*
X88285714Y-4204819D02*
X88761904Y-4204819D01*
X89190476Y-5204819D02*
X89190476Y-4204819D01*
X89190476Y-4204819D02*
X89761904Y-5204819D01*
X89761904Y-5204819D02*
X89761904Y-4204819D01*
X90809523Y-5109580D02*
X90761904Y-5157200D01*
X90761904Y-5157200D02*
X90619047Y-5204819D01*
X90619047Y-5204819D02*
X90523809Y-5204819D01*
X90523809Y-5204819D02*
X90380952Y-5157200D01*
X90380952Y-5157200D02*
X90285714Y-5061961D01*
X90285714Y-5061961D02*
X90238095Y-4966723D01*
X90238095Y-4966723D02*
X90190476Y-4776247D01*
X90190476Y-4776247D02*
X90190476Y-4633390D01*
X90190476Y-4633390D02*
X90238095Y-4442914D01*
X90238095Y-4442914D02*
X90285714Y-4347676D01*
X90285714Y-4347676D02*
X90380952Y-4252438D01*
X90380952Y-4252438D02*
X90523809Y-4204819D01*
X90523809Y-4204819D02*
X90619047Y-4204819D01*
X90619047Y-4204819D02*
X90761904Y-4252438D01*
X90761904Y-4252438D02*
X90809523Y-4300057D01*
X91761904Y-5204819D02*
X91190476Y-5204819D01*
X91476190Y-5204819D02*
X91476190Y-4204819D01*
X91476190Y-4204819D02*
X91380952Y-4347676D01*
X91380952Y-4347676D02*
X91285714Y-4442914D01*
X91285714Y-4442914D02*
X91190476Y-4490533D01*
X62357142Y-29929580D02*
X62309523Y-29977200D01*
X62309523Y-29977200D02*
X62166666Y-30024819D01*
X62166666Y-30024819D02*
X62071428Y-30024819D01*
X62071428Y-30024819D02*
X61928571Y-29977200D01*
X61928571Y-29977200D02*
X61833333Y-29881961D01*
X61833333Y-29881961D02*
X61785714Y-29786723D01*
X61785714Y-29786723D02*
X61738095Y-29596247D01*
X61738095Y-29596247D02*
X61738095Y-29453390D01*
X61738095Y-29453390D02*
X61785714Y-29262914D01*
X61785714Y-29262914D02*
X61833333Y-29167676D01*
X61833333Y-29167676D02*
X61928571Y-29072438D01*
X61928571Y-29072438D02*
X62071428Y-29024819D01*
X62071428Y-29024819D02*
X62166666Y-29024819D01*
X62166666Y-29024819D02*
X62309523Y-29072438D01*
X62309523Y-29072438D02*
X62357142Y-29120057D01*
X63309523Y-30024819D02*
X62738095Y-30024819D01*
X63023809Y-30024819D02*
X63023809Y-29024819D01*
X63023809Y-29024819D02*
X62928571Y-29167676D01*
X62928571Y-29167676D02*
X62833333Y-29262914D01*
X62833333Y-29262914D02*
X62738095Y-29310533D01*
X63928571Y-29024819D02*
X64023809Y-29024819D01*
X64023809Y-29024819D02*
X64119047Y-29072438D01*
X64119047Y-29072438D02*
X64166666Y-29120057D01*
X64166666Y-29120057D02*
X64214285Y-29215295D01*
X64214285Y-29215295D02*
X64261904Y-29405771D01*
X64261904Y-29405771D02*
X64261904Y-29643866D01*
X64261904Y-29643866D02*
X64214285Y-29834342D01*
X64214285Y-29834342D02*
X64166666Y-29929580D01*
X64166666Y-29929580D02*
X64119047Y-29977200D01*
X64119047Y-29977200D02*
X64023809Y-30024819D01*
X64023809Y-30024819D02*
X63928571Y-30024819D01*
X63928571Y-30024819D02*
X63833333Y-29977200D01*
X63833333Y-29977200D02*
X63785714Y-29929580D01*
X63785714Y-29929580D02*
X63738095Y-29834342D01*
X63738095Y-29834342D02*
X63690476Y-29643866D01*
X63690476Y-29643866D02*
X63690476Y-29405771D01*
X63690476Y-29405771D02*
X63738095Y-29215295D01*
X63738095Y-29215295D02*
X63785714Y-29120057D01*
X63785714Y-29120057D02*
X63833333Y-29072438D01*
X63833333Y-29072438D02*
X63928571Y-29024819D01*
%TO.C,SW23*%
D13*
X95100000Y-87100000D02*
X95100000Y-89100000D01*
X95100000Y-87100000D02*
X97100000Y-87100000D01*
X95100000Y-100900000D02*
X95100000Y-98900000D01*
X95100000Y-100900000D02*
X97100000Y-100900000D01*
X108900000Y-87100000D02*
X108900000Y-89100000D01*
X108900000Y-100900000D02*
X106900000Y-100900000D01*
X108900000Y-100900000D02*
X108900000Y-98900000D01*
%TO.C,C7*%
X137238748Y-12265000D02*
X137761252Y-12265000D01*
X137238748Y-13735000D02*
X137761252Y-13735000D01*
%TO.C,R3*%
X104762742Y-15977500D02*
X105237258Y-15977500D01*
X104762742Y-17022500D02*
X105237258Y-17022500D01*
%TO.C,SW18*%
X113100000Y-69100000D02*
X113100000Y-71100000D01*
X113100000Y-69100000D02*
X115100000Y-69100000D01*
X113100000Y-82900000D02*
X113100000Y-80900000D01*
X113100000Y-82900000D02*
X115100000Y-82900000D01*
X126900000Y-69100000D02*
X126900000Y-71100000D01*
X126900000Y-82900000D02*
X124900000Y-82900000D01*
X126900000Y-82900000D02*
X126900000Y-80900000D01*
%TO.C,SW14*%
X41100000Y-69100000D02*
X41100000Y-71100000D01*
X41100000Y-69100000D02*
X43100000Y-69100000D01*
X41100000Y-82900000D02*
X41100000Y-80900000D01*
X41100000Y-82900000D02*
X43100000Y-82900000D01*
X54900000Y-69100000D02*
X54900000Y-71100000D01*
X54900000Y-82900000D02*
X52900000Y-82900000D01*
X54900000Y-82900000D02*
X54900000Y-80900000D01*
%TO.C,U1*%
D15*
X11000000Y6490000D02*
X11000000Y-320000D01*
X11000000Y460000D02*
X29020000Y460000D01*
X11000000Y-18200000D02*
X11000000Y-19040000D01*
X11000000Y-19040000D02*
X12330000Y-19040000D01*
X12760000Y5340000D02*
X12760000Y1660000D01*
X15050000Y5340000D02*
X12760000Y5340000D01*
X15050000Y3180000D02*
X15050000Y5340000D01*
X17330000Y5340000D02*
X17330000Y3180000D01*
X17330000Y3180000D02*
X15050000Y3180000D01*
X19870000Y5340000D02*
X17330000Y5340000D01*
X19870000Y3180000D02*
X19870000Y5340000D01*
X22410000Y5340000D02*
X22410000Y3180000D01*
X22410000Y3180000D02*
X19870000Y3180000D01*
X25270000Y5340000D02*
X22410000Y5340000D01*
X25270000Y460000D02*
X25270000Y5340000D01*
X27300000Y5340000D02*
X25060000Y5340000D01*
X27300000Y460000D02*
X27300000Y5340000D01*
X27670000Y-19040000D02*
X29020000Y-19040000D01*
X29000000Y6490000D02*
X11000000Y6490000D01*
X29020000Y-320000D02*
X29020000Y6480000D01*
X29020000Y-19040000D02*
X29020000Y-18200000D01*
D16*
X11030000Y6490000D02*
G75*
G02*
X10970000Y6490000I-30000J0D01*
G01*
X10970000Y6490000D02*
G75*
G02*
X11030000Y6490000I30000J0D01*
G01*
D17*
%TO.C,U4*%
D13*
X104050000Y-7550000D02*
X107950000Y-7550000D01*
X104050000Y-12450000D02*
X107950000Y-12450000D01*
D11*
X102250000Y-8095000D02*
G75*
G02*
X101950000Y-8095000I-150000J0D01*
G01*
X101950000Y-8095000D02*
G75*
G02*
X102250000Y-8095000I150000J0D01*
G01*
%TO.C,D25*%
D13*
X120490000Y-3350000D02*
X120490000Y-6650000D01*
X120490000Y-3350000D02*
X126000000Y-3350000D01*
X120490000Y-6650000D02*
X126000000Y-6650000D01*
%TO.C,SW12*%
X113100000Y-51100000D02*
X113100000Y-53100000D01*
X113100000Y-51100000D02*
X115100000Y-51100000D01*
X113100000Y-64900000D02*
X113100000Y-62900000D01*
X113100000Y-64900000D02*
X115100000Y-64900000D01*
X126900000Y-51100000D02*
X126900000Y-53100000D01*
X126900000Y-64900000D02*
X124900000Y-64900000D01*
X126900000Y-64900000D02*
X126900000Y-62900000D01*
%TO.C,R9*%
X7262742Y-23977500D02*
X7737258Y-23977500D01*
X7262742Y-25022500D02*
X7737258Y-25022500D01*
%TO.C,R7*%
X126762742Y-16477500D02*
X127237258Y-16477500D01*
X126762742Y-17522500D02*
X127237258Y-17522500D01*
%TO.C,SW24*%
X113100000Y-87100000D02*
X113100000Y-89100000D01*
X113100000Y-87100000D02*
X115100000Y-87100000D01*
X113100000Y-100900000D02*
X113100000Y-98900000D01*
X113100000Y-100900000D02*
X115100000Y-100900000D01*
X126900000Y-87100000D02*
X126900000Y-89100000D01*
X126900000Y-100900000D02*
X124900000Y-100900000D01*
X126900000Y-100900000D02*
X126900000Y-98900000D01*
%TO.C,SW3*%
X59100000Y-33100000D02*
X59100000Y-35100000D01*
X59100000Y-33100000D02*
X61100000Y-33100000D01*
X59100000Y-46900000D02*
X59100000Y-44900000D01*
X59100000Y-46900000D02*
X61100000Y-46900000D01*
X72900000Y-33100000D02*
X72900000Y-35100000D01*
X72900000Y-46900000D02*
X70900000Y-46900000D01*
X72900000Y-46900000D02*
X72900000Y-44900000D01*
%TO.C,C1*%
X11859420Y-20490000D02*
X12140580Y-20490000D01*
X11859420Y-21510000D02*
X12140580Y-21510000D01*
%TO.C,R13*%
X59262742Y-30477500D02*
X59737258Y-30477500D01*
X59262742Y-31522500D02*
X59737258Y-31522500D01*
%TO.C,SW26*%
D15*
X31450000Y-24330000D02*
X31450000Y-26670000D01*
X31830000Y-27160000D02*
X32720000Y-28050000D01*
X32200000Y-24500000D02*
X33000000Y-23700000D01*
X32200000Y-26500000D02*
X32200000Y-24500000D01*
X32720000Y-22950000D02*
X31830000Y-23840000D01*
X32720000Y-22950000D02*
X35280000Y-22950000D01*
X32720000Y-28050000D02*
X35280000Y-28050000D01*
X33000000Y-23700000D02*
X34900000Y-23700000D01*
X33100000Y-27400000D02*
X32200000Y-26500000D01*
X34800000Y-27400000D02*
X33100000Y-27400000D01*
X34900000Y-23700000D02*
X35800000Y-24600000D01*
X35280000Y-22950000D02*
X36170000Y-23840000D01*
X35800000Y-24600000D02*
X35800000Y-26400000D01*
X35800000Y-26400000D02*
X34800000Y-27400000D01*
X36170000Y-27160000D02*
X35280000Y-28050000D01*
X36550000Y-24330000D02*
X36550000Y-26670000D01*
D16*
X30780000Y-22950000D02*
G75*
G02*
X30720000Y-22950000I-30000J0D01*
G01*
X30720000Y-22950000D02*
G75*
G02*
X30780000Y-22950000I30000J0D01*
G01*
D15*
X35280000Y-25500000D02*
G75*
G02*
X32720000Y-25500000I-1280000J0D01*
G01*
X32720000Y-25500000D02*
G75*
G02*
X35280000Y-25500000I1280000J0D01*
G01*
%TO.C,SW22*%
D13*
X77100000Y-87100000D02*
X77100000Y-89100000D01*
X77100000Y-87100000D02*
X79100000Y-87100000D01*
X77100000Y-100900000D02*
X77100000Y-98900000D01*
X77100000Y-100900000D02*
X79100000Y-100900000D01*
X90900000Y-87100000D02*
X90900000Y-89100000D01*
X90900000Y-100900000D02*
X88900000Y-100900000D01*
X90900000Y-100900000D02*
X90900000Y-98900000D01*
%TO.C,C6*%
X128238748Y-12265000D02*
X128761252Y-12265000D01*
X128238748Y-13735000D02*
X128761252Y-13735000D01*
%TO.C,SW10*%
X77100000Y-51100000D02*
X77100000Y-53100000D01*
X77100000Y-51100000D02*
X79100000Y-51100000D01*
X77100000Y-64900000D02*
X77100000Y-62900000D01*
X77100000Y-64900000D02*
X79100000Y-64900000D01*
X90900000Y-51100000D02*
X90900000Y-53100000D01*
X90900000Y-64900000D02*
X88900000Y-64900000D01*
X90900000Y-64900000D02*
X90900000Y-62900000D01*
%TO.C,U3*%
D12*
X81960000Y-6190000D02*
X81960000Y-4410000D01*
X85040000Y-6190000D02*
X85040000Y-4410000D01*
D11*
X81980000Y-6600000D02*
G75*
G02*
X81680000Y-6600000I-150000J0D01*
G01*
X81680000Y-6600000D02*
G75*
G02*
X81980000Y-6600000I150000J0D01*
G01*
D16*
X82070000Y-6700000D02*
G75*
G02*
X82010000Y-6700000I-30000J0D01*
G01*
X82010000Y-6700000D02*
G75*
G02*
X82070000Y-6700000I30000J0D01*
G01*
%TO.C,SW1*%
D13*
X23100000Y-33100000D02*
X23100000Y-35100000D01*
X23100000Y-33100000D02*
X25100000Y-33100000D01*
X23100000Y-46900000D02*
X23100000Y-44900000D01*
X23100000Y-46900000D02*
X25100000Y-46900000D01*
X36900000Y-33100000D02*
X36900000Y-35100000D01*
X36900000Y-46900000D02*
X34900000Y-46900000D01*
X36900000Y-46900000D02*
X36900000Y-44900000D01*
%TO.C,SW2*%
X41100000Y-33100000D02*
X41100000Y-35100000D01*
X41100000Y-33100000D02*
X43100000Y-33100000D01*
X41100000Y-46900000D02*
X41100000Y-44900000D01*
X41100000Y-46900000D02*
X43100000Y-46900000D01*
X54900000Y-33100000D02*
X54900000Y-35100000D01*
X54900000Y-46900000D02*
X52900000Y-46900000D01*
X54900000Y-46900000D02*
X54900000Y-44900000D01*
%TO.C,R4*%
X116262742Y-15977500D02*
X116737258Y-15977500D01*
X116262742Y-17022500D02*
X116737258Y-17022500D01*
%TO.C,R1*%
X63262742Y-7377500D02*
X63737258Y-7377500D01*
X63262742Y-8422500D02*
X63737258Y-8422500D01*
%TO.C,SW5*%
X95100000Y-33100000D02*
X95100000Y-35100000D01*
X95100000Y-33100000D02*
X97100000Y-33100000D01*
X95100000Y-46900000D02*
X95100000Y-44900000D01*
X95100000Y-46900000D02*
X97100000Y-46900000D01*
X108900000Y-33100000D02*
X108900000Y-35100000D01*
X108900000Y-46900000D02*
X106900000Y-46900000D01*
X108900000Y-46900000D02*
X108900000Y-44900000D01*
%TO.C,SW4*%
X77100000Y-33100000D02*
X77100000Y-35100000D01*
X77100000Y-33100000D02*
X79100000Y-33100000D01*
X77100000Y-46900000D02*
X77100000Y-44900000D01*
X77100000Y-46900000D02*
X79100000Y-46900000D01*
X90900000Y-33100000D02*
X90900000Y-35100000D01*
X90900000Y-46900000D02*
X88900000Y-46900000D01*
X90900000Y-46900000D02*
X90900000Y-44900000D01*
%TO.C,R6*%
X115762742Y-11977500D02*
X116237258Y-11977500D01*
X115762742Y-13022500D02*
X116237258Y-13022500D01*
%TO.C,R5*%
X121262742Y-15977500D02*
X121737258Y-15977500D01*
X121262742Y-17022500D02*
X121737258Y-17022500D01*
%TO.C,C2*%
X16359420Y-20490000D02*
X16640580Y-20490000D01*
X16359420Y-21510000D02*
X16640580Y-21510000D01*
%TO.C,J2*%
X139440000Y-24060000D02*
X139440000Y-28310000D01*
X139440000Y-28310000D02*
X140460000Y-28310000D01*
X140460000Y-26710000D02*
X141740000Y-26710000D01*
X140460000Y-28310000D02*
X140460000Y-26710000D01*
X145260000Y-26710000D02*
X145260000Y-29600000D01*
X145840000Y-20490000D02*
X141160000Y-20490000D01*
X146540000Y-26710000D02*
X145260000Y-26710000D01*
X146540000Y-28310000D02*
X146540000Y-26710000D01*
X147560000Y-24060000D02*
X147560000Y-28310000D01*
X147560000Y-28310000D02*
X146540000Y-28310000D01*
%TO.C,C8*%
X136859420Y-16490000D02*
X137140580Y-16490000D01*
X136859420Y-17510000D02*
X137140580Y-17510000D01*
%TO.C,SW13*%
X23100000Y-69100000D02*
X23100000Y-71100000D01*
X23100000Y-69100000D02*
X25100000Y-69100000D01*
X23100000Y-82900000D02*
X23100000Y-80900000D01*
X23100000Y-82900000D02*
X25100000Y-82900000D01*
X36900000Y-69100000D02*
X36900000Y-71100000D01*
X36900000Y-82900000D02*
X34900000Y-82900000D01*
X36900000Y-82900000D02*
X36900000Y-80900000D01*
%TO.C,SW20*%
X41100000Y-87100000D02*
X41100000Y-89100000D01*
X41100000Y-87100000D02*
X43100000Y-87100000D01*
X41100000Y-100900000D02*
X41100000Y-98900000D01*
X41100000Y-100900000D02*
X43100000Y-100900000D01*
X54900000Y-87100000D02*
X54900000Y-89100000D01*
X54900000Y-100900000D02*
X52900000Y-100900000D01*
X54900000Y-100900000D02*
X54900000Y-98900000D01*
%TO.C,SW17*%
X95100000Y-69100000D02*
X95100000Y-71100000D01*
X95100000Y-69100000D02*
X97100000Y-69100000D01*
X95100000Y-82900000D02*
X95100000Y-80900000D01*
X95100000Y-82900000D02*
X97100000Y-82900000D01*
X108900000Y-69100000D02*
X108900000Y-71100000D01*
X108900000Y-82900000D02*
X106900000Y-82900000D01*
X108900000Y-82900000D02*
X108900000Y-80900000D01*
%TO.C,SW19*%
X23100000Y-87100000D02*
X23100000Y-89100000D01*
X23100000Y-87100000D02*
X25100000Y-87100000D01*
X23100000Y-100900000D02*
X23100000Y-98900000D01*
X23100000Y-100900000D02*
X25100000Y-100900000D01*
X36900000Y-87100000D02*
X36900000Y-89100000D01*
X36900000Y-100900000D02*
X34900000Y-100900000D01*
X36900000Y-100900000D02*
X36900000Y-98900000D01*
%TO.C,SW8*%
X41100000Y-51100000D02*
X41100000Y-53100000D01*
X41100000Y-51100000D02*
X43100000Y-51100000D01*
X41100000Y-64900000D02*
X41100000Y-62900000D01*
X41100000Y-64900000D02*
X43100000Y-64900000D01*
X54900000Y-51100000D02*
X54900000Y-53100000D01*
X54900000Y-64900000D02*
X52900000Y-64900000D01*
X54900000Y-64900000D02*
X54900000Y-62900000D01*
%TO.C,SW7*%
X23100000Y-51100000D02*
X23100000Y-53100000D01*
X23100000Y-51100000D02*
X25100000Y-51100000D01*
X23100000Y-64900000D02*
X23100000Y-62900000D01*
X23100000Y-64900000D02*
X25100000Y-64900000D01*
X36900000Y-51100000D02*
X36900000Y-53100000D01*
X36900000Y-64900000D02*
X34900000Y-64900000D01*
X36900000Y-64900000D02*
X36900000Y-62900000D01*
%TO.C,SW15*%
X59100000Y-69100000D02*
X59100000Y-71100000D01*
X59100000Y-69100000D02*
X61100000Y-69100000D01*
X59100000Y-82900000D02*
X59100000Y-80900000D01*
X59100000Y-82900000D02*
X61100000Y-82900000D01*
X72900000Y-69100000D02*
X72900000Y-71100000D01*
X72900000Y-82900000D02*
X70900000Y-82900000D01*
X72900000Y-82900000D02*
X72900000Y-80900000D01*
%TO.C,C11*%
X110238748Y-15765000D02*
X110761252Y-15765000D01*
X110238748Y-17235000D02*
X110761252Y-17235000D01*
%TO.C,Q1*%
X115240000Y-4940000D02*
X116760000Y-4940000D01*
X115240000Y-4990000D02*
X115240000Y-4940000D01*
X115240000Y-6890000D02*
X115240000Y-6110000D01*
X115240000Y-8060000D02*
X115240000Y-8010000D01*
X116760000Y-4940000D02*
X116760000Y-5940000D01*
X116760000Y-7060000D02*
X116760000Y-8060000D01*
X116760000Y-8060000D02*
X115240000Y-8060000D01*
X114700000Y-6120000D02*
X114940000Y-6450000D01*
X114460000Y-6450000D01*
X114700000Y-6120000D01*
G36*
X114940000Y-6450000D02*
G01*
X114460000Y-6450000D01*
X114700000Y-6120000D01*
X114940000Y-6450000D01*
G37*
%TO.C,SW11*%
X95100000Y-51100000D02*
X95100000Y-53100000D01*
X95100000Y-51100000D02*
X97100000Y-51100000D01*
X95100000Y-64900000D02*
X95100000Y-62900000D01*
X95100000Y-64900000D02*
X97100000Y-64900000D01*
X108900000Y-51100000D02*
X108900000Y-53100000D01*
X108900000Y-64900000D02*
X106900000Y-64900000D01*
X108900000Y-64900000D02*
X108900000Y-62900000D01*
%TO.C,R2*%
X67762742Y-7377500D02*
X68237258Y-7377500D01*
X67762742Y-8422500D02*
X68237258Y-8422500D01*
%TO.C,R12*%
X55762742Y-30477500D02*
X56237258Y-30477500D01*
X55762742Y-31522500D02*
X56237258Y-31522500D01*
%TO.C,R10*%
X12262742Y-23977500D02*
X12737258Y-23977500D01*
X12262742Y-25022500D02*
X12737258Y-25022500D01*
%TO.C,SW9*%
X59100000Y-51100000D02*
X59100000Y-53100000D01*
X59100000Y-51100000D02*
X61100000Y-51100000D01*
X59100000Y-64900000D02*
X59100000Y-62900000D01*
X59100000Y-64900000D02*
X61100000Y-64900000D01*
X72900000Y-51100000D02*
X72900000Y-53100000D01*
X72900000Y-64900000D02*
X70900000Y-64900000D01*
X72900000Y-64900000D02*
X72900000Y-62900000D01*
%TO.C,SW6*%
X113100000Y-33100000D02*
X113100000Y-35100000D01*
X113100000Y-33100000D02*
X115100000Y-33100000D01*
X113100000Y-46900000D02*
X113100000Y-44900000D01*
X113100000Y-46900000D02*
X115100000Y-46900000D01*
X126900000Y-33100000D02*
X126900000Y-35100000D01*
X126900000Y-46900000D02*
X124900000Y-46900000D01*
X126900000Y-46900000D02*
X126900000Y-44900000D01*
%TO.C,SW16*%
X77100000Y-69100000D02*
X77100000Y-71100000D01*
X77100000Y-69100000D02*
X79100000Y-69100000D01*
X77100000Y-82900000D02*
X77100000Y-80900000D01*
X77100000Y-82900000D02*
X79100000Y-82900000D01*
X90900000Y-69100000D02*
X90900000Y-71100000D01*
X90900000Y-82900000D02*
X88900000Y-82900000D01*
X90900000Y-82900000D02*
X90900000Y-80900000D01*
%TO.C,R8*%
X131762742Y-16477500D02*
X132237258Y-16477500D01*
X131762742Y-17522500D02*
X132237258Y-17522500D01*
%TO.C,C4*%
X25238748Y-20265000D02*
X25761252Y-20265000D01*
X25238748Y-21735000D02*
X25761252Y-21735000D01*
%TO.C,U5*%
D18*
X132100000Y-7450000D02*
X132100000Y-7600000D01*
X132100000Y-7450000D02*
X133900000Y-7450000D01*
X132100000Y-8500000D02*
X132100000Y-9500000D01*
X132100000Y-10400000D02*
X132100000Y-10550000D01*
X132100000Y-10550000D02*
X133900000Y-10550000D01*
X133900000Y-7450000D02*
X133900000Y-7600000D01*
X133900000Y-8500000D02*
X133900000Y-8550000D01*
X133900000Y-9450000D02*
X133900000Y-9500000D01*
X133900000Y-10400000D02*
X133900000Y-10550000D01*
D16*
X134430000Y-10450000D02*
G75*
G02*
X134370000Y-10450000I-30000J0D01*
G01*
X134370000Y-10450000D02*
G75*
G02*
X134430000Y-10450000I30000J0D01*
G01*
D17*
%TO.C,C3*%
D13*
X20859420Y-20490000D02*
X21140580Y-20490000D01*
X20859420Y-21510000D02*
X21140580Y-21510000D01*
%TO.C,C5*%
X17359420Y-23990000D02*
X17640580Y-23990000D01*
X17359420Y-25010000D02*
X17640580Y-25010000D01*
%TO.C,SW27*%
D15*
X41450000Y-24330000D02*
X41450000Y-26670000D01*
X41830000Y-27160000D02*
X42720000Y-28050000D01*
X42200000Y-24500000D02*
X43000000Y-23700000D01*
X42200000Y-26500000D02*
X42200000Y-24500000D01*
X42720000Y-22950000D02*
X41830000Y-23840000D01*
X42720000Y-22950000D02*
X45280000Y-22950000D01*
X42720000Y-28050000D02*
X45280000Y-28050000D01*
X43000000Y-23700000D02*
X44900000Y-23700000D01*
X43100000Y-27400000D02*
X42200000Y-26500000D01*
X44800000Y-27400000D02*
X43100000Y-27400000D01*
X44900000Y-23700000D02*
X45800000Y-24600000D01*
X45280000Y-22950000D02*
X46170000Y-23840000D01*
X45800000Y-24600000D02*
X45800000Y-26400000D01*
X45800000Y-26400000D02*
X44800000Y-27400000D01*
X46170000Y-27160000D02*
X45280000Y-28050000D01*
X46550000Y-24330000D02*
X46550000Y-26670000D01*
D16*
X40780000Y-22950000D02*
G75*
G02*
X40720000Y-22950000I-30000J0D01*
G01*
X40720000Y-22950000D02*
G75*
G02*
X40780000Y-22950000I30000J0D01*
G01*
D15*
X45280000Y-25500000D02*
G75*
G02*
X42720000Y-25500000I-1280000J0D01*
G01*
X42720000Y-25500000D02*
G75*
G02*
X45280000Y-25500000I1280000J0D01*
G01*
%TO.C,J1*%
X70530000Y690000D02*
X70530000Y-790000D01*
X70530000Y690000D02*
X79470000Y690000D01*
X70530000Y-3020000D02*
X70530000Y-4890000D01*
X79470000Y690000D02*
X79470000Y-790000D01*
X79470000Y-3020000D02*
X79470000Y-4890000D01*
D16*
X70550000Y-7160000D02*
G75*
G02*
X70490000Y-7160000I-30000J0D01*
G01*
X70490000Y-7160000D02*
G75*
G02*
X70550000Y-7160000I30000J0D01*
G01*
%TO.C,SW25*%
D13*
X145700000Y-42950000D02*
X145700000Y-41800000D01*
X145700000Y-44450000D02*
X145700000Y-44250000D01*
X145700000Y-45550000D02*
X145700000Y-45750000D01*
X145700000Y-48200000D02*
X145700000Y-47050000D01*
X149500000Y-49550000D02*
X149500000Y-40450000D01*
X149500000Y-43600000D02*
X150900000Y-43600000D01*
X150900000Y-46400000D01*
X149500000Y-46400000D01*
X149500000Y-43600000D01*
%TO.C,SW21*%
X59100000Y-87100000D02*
X59100000Y-89100000D01*
X59100000Y-87100000D02*
X61100000Y-87100000D01*
X59100000Y-100900000D02*
X59100000Y-98900000D01*
X59100000Y-100900000D02*
X61100000Y-100900000D01*
X72900000Y-87100000D02*
X72900000Y-89100000D01*
X72900000Y-100900000D02*
X70900000Y-100900000D01*
X72900000Y-100900000D02*
X72900000Y-98900000D01*
%TO.C,ENC1*%
D15*
X84150000Y-9750000D02*
X84150000Y-13720000D01*
X84150000Y-9750000D02*
X86930000Y-9750000D01*
X84150000Y-17780000D02*
X84150000Y-21750000D01*
X85810000Y-13970000D02*
X84680000Y-13970000D01*
X85810000Y-17530000D02*
X84680000Y-17530000D01*
X87210000Y-14100000D02*
X92790000Y-14100000D01*
X87990000Y-9750000D02*
X92010000Y-9750000D01*
X93070000Y-9750000D02*
X95850000Y-9750000D01*
X94190000Y-13970000D02*
X95320000Y-13970000D01*
X94190000Y-17530000D02*
X95320000Y-17530000D01*
X95850000Y-9750000D02*
X95850000Y-13720000D01*
X95850000Y-17780000D02*
X95850000Y-21750000D01*
X95850000Y-21750000D02*
X84150000Y-21750000D01*
X85830000Y-13930000D02*
G75*
G02*
X94186899Y-13969221I4170000J-1820000D01*
G01*
X91900000Y-14100000D02*
G75*
G02*
X88096736Y-14103766I-1900000J-1650000D01*
G01*
X94170000Y-17570000D02*
G75*
G02*
X85813101Y-17530779I-4170000J1820000D01*
G01*
D16*
X82430000Y-24150000D02*
G75*
G02*
X82370000Y-24150000I-30000J0D01*
G01*
X82370000Y-24150000D02*
G75*
G02*
X82430000Y-24150000I30000J0D01*
G01*
D15*
X93230000Y-15750000D02*
G75*
G02*
X86770000Y-15750000I-3230000J0D01*
G01*
X86770000Y-15750000D02*
G75*
G02*
X93230000Y-15750000I3230000J0D01*
G01*
X93680000Y-15750000D02*
G75*
G02*
X86320000Y-15750000I-3680000J0D01*
G01*
X86320000Y-15750000D02*
G75*
G02*
X93680000Y-15750000I3680000J0D01*
G01*
%TO.C,C10*%
D13*
X62859420Y-30490000D02*
X63140580Y-30490000D01*
X62859420Y-31510000D02*
X63140580Y-31510000D01*
%TD*%
M02*
