%TF.GenerationSoftware,KiCad,Pcbnew,10.0.3*%
%TF.CreationDate,2026-07-29T06:01:57-04:00*%
%TF.ProjectId,ClaudeMicroV3,436c6175-6465-44d6-9963-726f56332e6b,rev?*%
%TF.SameCoordinates,Original*%
%TF.FileFunction,Soldermask,Top*%
%TF.FilePolarity,Negative*%
%FSLAX46Y46*%
G04 Gerber Fmt 4.6, Leading zero omitted, Abs format (unit mm)*
G04 Created by KiCad (PCBNEW 10.0.3) date 2026-07-29 06:01:57*
%MOMM*%
%LPD*%
G01*
G04 APERTURE LIST*
G04 Aperture macros list*
%AMRoundRect*
0 Rectangle with rounded corners*
0 $1 Rounding radius*
0 $2 $3 $4 $5 $6 $7 $8 $9 X,Y pos of 4 corners*
0 Add a 4 corners polygon primitive as box body*
4,1,4,$2,$3,$4,$5,$6,$7,$8,$9,$2,$3,0*
0 Add four circle primitives for the rounded corners*
1,1,$1+$1,$2,$3*
1,1,$1+$1,$4,$5*
1,1,$1+$1,$6,$7*
1,1,$1+$1,$8,$9*
0 Add four rect primitives between the rounded corners*
20,1,$1+$1,$2,$3,$4,$5,0*
20,1,$1+$1,$4,$5,$6,$7,0*
20,1,$1+$1,$6,$7,$8,$9,0*
20,1,$1+$1,$8,$9,$2,$3,0*%
%AMFreePoly0*
4,1,17,0.335278,0.685443,0.349923,0.650088,0.349923,-0.649935,0.335278,-0.685290,0.299923,-0.699935,0.000318,-0.699935,-0.000051,-0.700088,-0.300050,-0.700088,-0.335405,-0.685443,-0.350050,-0.650088,-0.350050,0.649935,-0.335405,0.685290,-0.300050,0.699935,-0.000445,0.699935,-0.000076,0.700088,0.299923,0.700088,0.335278,0.685443,0.335278,0.685443,$1*%
%AMFreePoly1*
4,1,17,0.335431,0.685290,0.350076,0.649935,0.350076,-0.650037,0.335431,-0.685392,0.300076,-0.700037,0.000187,-0.700037,0.000127,-0.700062,-0.299898,-0.700062,-0.335253,-0.685417,-0.349898,-0.650062,-0.349898,0.649910,-0.335253,0.685265,-0.299898,0.699910,-0.000009,0.699910,0.000051,0.699935,0.300076,0.699935,0.335431,0.685290,0.335431,0.685290,$1*%
%AMFreePoly2*
4,1,13,0.335227,0.685443,0.349872,0.650088,0.349872,-0.649884,0.335227,-0.685239,0.299872,-0.699884,-0.300152,-0.699884,-0.335507,-0.685239,-0.350152,-0.649884,-0.350152,0.650088,-0.335507,0.685443,-0.300152,0.700088,0.299872,0.700088,0.335227,0.685443,0.335227,0.685443,$1*%
G04 Aperture macros list end*
%ADD10C,1.900000*%
%ADD11C,3.400000*%
%ADD12C,2.400000*%
%ADD13RoundRect,0.250000X-0.250000X-0.475000X0.250000X-0.475000X0.250000X0.475000X-0.250000X0.475000X0*%
%ADD14RoundRect,0.200000X-0.200000X-0.275000X0.200000X-0.275000X0.200000X0.275000X-0.200000X0.275000X0*%
%ADD15C,2.700000*%
%ADD16R,1.500000X0.900000*%
%ADD17R,0.900000X1.500000*%
%ADD18R,0.900000X0.900000*%
%ADD19R,1.500000X0.600000*%
%ADD20C,1.700000*%
%ADD21R,2.300000X2.200000*%
%ADD22RoundRect,0.250000X-1.000000X-0.650000X1.000000X-0.650000X1.000000X0.650000X-1.000000X0.650000X0*%
%ADD23RoundRect,0.225000X-0.225000X-0.250000X0.225000X-0.250000X0.225000X0.250000X-0.225000X0.250000X0*%
%ADD24R,2.400000X1.700000*%
%ADD25R,1.000000X0.750000*%
%ADD26C,2.200000*%
%ADD27RoundRect,0.240000X-0.360000X-0.760000X0.360000X-0.760000X0.360000X0.760000X-0.360000X0.760000X0*%
%ADD28R,0.532000X1.072000*%
%ADD29RoundRect,0.250000X0.250000X1.500000X-0.250000X1.500000X-0.250000X-1.500000X0.250000X-1.500000X0*%
%ADD30RoundRect,0.250001X0.499999X1.449999X-0.499999X1.449999X-0.499999X-1.449999X0.499999X-1.449999X0*%
%ADD31RoundRect,0.150000X-0.587500X-0.150000X0.587500X-0.150000X0.587500X0.150000X-0.587500X0.150000X0*%
%ADD32R,1.100000X0.600000*%
%ADD33C,0.750000*%
%ADD34O,1.200000X2.000000*%
%ADD35O,1.200000X1.800000*%
%ADD36FreePoly0,180.000000*%
%ADD37FreePoly1,180.000000*%
%ADD38R,0.300000X1.300000*%
%ADD39FreePoly2,180.000000*%
%ADD40R,1.800000X1.400000*%
%ADD41R,1.800000X0.700000*%
%ADD42C,1.800000*%
%ADD43O,2.700000X3.700000*%
G04 APERTURE END LIST*
D10*
%TO.C,SW23*%
X96500000Y-94000000D03*
D11*
X102000000Y-94000000D03*
D10*
X107500000Y-94000000D03*
D12*
X102000000Y-88100000D03*
X107000000Y-90200000D03*
%TD*%
D13*
%TO.C,C7*%
X136550000Y-13000000D03*
X138450000Y-13000000D03*
%TD*%
D14*
%TO.C,R3*%
X104175000Y-16500000D03*
X105825000Y-16500000D03*
%TD*%
D10*
%TO.C,SW18*%
X114500000Y-76000000D03*
D11*
X120000000Y-76000000D03*
D10*
X125500000Y-76000000D03*
D12*
X120000000Y-70100000D03*
X125000000Y-72200000D03*
%TD*%
D10*
%TO.C,SW14*%
X42500000Y-76000000D03*
D11*
X48000000Y-76000000D03*
D10*
X53500000Y-76000000D03*
D12*
X48000000Y-70100000D03*
X53000000Y-72200000D03*
%TD*%
D15*
%TO.C,MH6*%
X144000000Y-55000000D03*
%TD*%
D16*
%TO.C,U1*%
X11250000Y-1010000D03*
X11250000Y-2280000D03*
X11250000Y-3550000D03*
X11250000Y-4820000D03*
X11250000Y-6090000D03*
X11250000Y-7360000D03*
X11250000Y-8630000D03*
X11250000Y-9900000D03*
X11250000Y-11170000D03*
X11250000Y-12440000D03*
X11250000Y-13710000D03*
X11250000Y-14980000D03*
X11250000Y-16250000D03*
X11250000Y-17520000D03*
D17*
X13010000Y-18790000D03*
X14280000Y-18790000D03*
X15550000Y-18790000D03*
X16830000Y-18790000D03*
X18100000Y-18790000D03*
X19370000Y-18790000D03*
X20640000Y-18790000D03*
X21910000Y-18790000D03*
X23180000Y-18790000D03*
X24450000Y-18790000D03*
X25720000Y-18790000D03*
X26990000Y-18760000D03*
D16*
X28750000Y-17520000D03*
X28750000Y-16250000D03*
X28750000Y-14980000D03*
X28750000Y-13710000D03*
X28750000Y-12440000D03*
X28750000Y-11170000D03*
X28750000Y-9900000D03*
X28750000Y-8630000D03*
X28750000Y-7360000D03*
X28750000Y-6090000D03*
X28750000Y-4820000D03*
X28750000Y-3550000D03*
X28750000Y-2280000D03*
X28750000Y-1010000D03*
D18*
X17100000Y-7330000D03*
X17100000Y-8730000D03*
X17100000Y-10130000D03*
X18500000Y-7330000D03*
X18500000Y-8730000D03*
X18500000Y-10130000D03*
X19900000Y-7330000D03*
X19900000Y-8730000D03*
X19900000Y-10130000D03*
%TD*%
D19*
%TO.C,U4*%
X103350000Y-8095000D03*
X103350000Y-9365000D03*
X103350000Y-10635000D03*
D20*
X106000000Y-10000000D03*
D21*
X106000000Y-10000000D03*
D19*
X103350000Y-11905000D03*
X108650000Y-11905000D03*
X108650000Y-10635000D03*
X108650000Y-9365000D03*
X108650000Y-8095000D03*
%TD*%
D22*
%TO.C,D25*%
X122000000Y-5000000D03*
X126000000Y-5000000D03*
%TD*%
D10*
%TO.C,SW12*%
X114500000Y-58000000D03*
D11*
X120000000Y-58000000D03*
D10*
X125500000Y-58000000D03*
D12*
X120000000Y-52100000D03*
X125000000Y-54200000D03*
%TD*%
D15*
%TO.C,MH2*%
X144000000Y-6000000D03*
%TD*%
D14*
%TO.C,R9*%
X6675000Y-24500000D03*
X8325000Y-24500000D03*
%TD*%
D15*
%TO.C,MH4*%
X144000000Y-104000000D03*
%TD*%
D14*
%TO.C,R7*%
X126175000Y-17000000D03*
X127825000Y-17000000D03*
%TD*%
D10*
%TO.C,SW24*%
X114500000Y-94000000D03*
D11*
X120000000Y-94000000D03*
D10*
X125500000Y-94000000D03*
D12*
X120000000Y-88100000D03*
X125000000Y-90200000D03*
%TD*%
D10*
%TO.C,SW3*%
X60500000Y-40000000D03*
D11*
X66000000Y-40000000D03*
D10*
X71500000Y-40000000D03*
D12*
X66000000Y-34100000D03*
X71000000Y-36200000D03*
%TD*%
D23*
%TO.C,C1*%
X11225000Y-21000000D03*
X12775000Y-21000000D03*
%TD*%
D14*
%TO.C,R13*%
X58675000Y-31000000D03*
X60325000Y-31000000D03*
%TD*%
D24*
%TO.C,J3*%
X6500000Y-43810000D03*
X6500000Y-41270000D03*
X6500000Y-38730000D03*
X6500000Y-36190000D03*
%TD*%
D25*
%TO.C,SW26*%
X31000000Y-23650000D03*
X37000000Y-23650000D03*
X31000000Y-27350000D03*
X37000000Y-27350000D03*
%TD*%
D26*
%TO.C,OLED1*%
X55650000Y-12400000D03*
X78350000Y-12400000D03*
D27*
X63190000Y-28600000D03*
X65730000Y-28600000D03*
X68270000Y-28600000D03*
X70810000Y-28600000D03*
%TD*%
D10*
%TO.C,SW22*%
X78500000Y-94000000D03*
D11*
X84000000Y-94000000D03*
D10*
X89500000Y-94000000D03*
D12*
X84000000Y-88100000D03*
X89000000Y-90200000D03*
%TD*%
D13*
%TO.C,C6*%
X127550000Y-13000000D03*
X129450000Y-13000000D03*
%TD*%
D10*
%TO.C,SW10*%
X78500000Y-58000000D03*
D11*
X84000000Y-58000000D03*
D10*
X89500000Y-58000000D03*
D12*
X84000000Y-52100000D03*
X89000000Y-54200000D03*
%TD*%
D28*
%TO.C,U3*%
X82550000Y-6450000D03*
X83500000Y-6450000D03*
X84450000Y-6450000D03*
X84450000Y-4150000D03*
X83500000Y-4150000D03*
X82550000Y-4150000D03*
%TD*%
D15*
%TO.C,MH5*%
X6000000Y-55000000D03*
%TD*%
D10*
%TO.C,SW1*%
X24500000Y-40000000D03*
D11*
X30000000Y-40000000D03*
D10*
X35500000Y-40000000D03*
D12*
X30000000Y-34100000D03*
X35000000Y-36200000D03*
%TD*%
D10*
%TO.C,SW2*%
X42500000Y-40000000D03*
D11*
X48000000Y-40000000D03*
D10*
X53500000Y-40000000D03*
D12*
X48000000Y-34100000D03*
X53000000Y-36200000D03*
%TD*%
D14*
%TO.C,R4*%
X115675000Y-16500000D03*
X117325000Y-16500000D03*
%TD*%
%TO.C,R1*%
X62675000Y-7900000D03*
X64325000Y-7900000D03*
%TD*%
D10*
%TO.C,SW5*%
X96500000Y-40000000D03*
D11*
X102000000Y-40000000D03*
D10*
X107500000Y-40000000D03*
D12*
X102000000Y-34100000D03*
X107000000Y-36200000D03*
%TD*%
D10*
%TO.C,SW4*%
X78500000Y-40000000D03*
D11*
X84000000Y-40000000D03*
D10*
X89500000Y-40000000D03*
D12*
X84000000Y-34100000D03*
X89000000Y-36200000D03*
%TD*%
D14*
%TO.C,R6*%
X115175000Y-12500000D03*
X116825000Y-12500000D03*
%TD*%
%TO.C,R5*%
X120675000Y-16500000D03*
X122325000Y-16500000D03*
%TD*%
D23*
%TO.C,C2*%
X15725000Y-21000000D03*
X17275000Y-21000000D03*
%TD*%
D29*
%TO.C,J2*%
X144500000Y-27850000D03*
X142500000Y-27850000D03*
D30*
X146850000Y-22100000D03*
X140150000Y-22100000D03*
%TD*%
D23*
%TO.C,C8*%
X136225000Y-17000000D03*
X137775000Y-17000000D03*
%TD*%
D10*
%TO.C,SW13*%
X24500000Y-76000000D03*
D11*
X30000000Y-76000000D03*
D10*
X35500000Y-76000000D03*
D12*
X30000000Y-70100000D03*
X35000000Y-72200000D03*
%TD*%
D10*
%TO.C,SW20*%
X42500000Y-94000000D03*
D11*
X48000000Y-94000000D03*
D10*
X53500000Y-94000000D03*
D12*
X48000000Y-88100000D03*
X53000000Y-90200000D03*
%TD*%
D15*
%TO.C,MH1*%
X6000000Y-6000000D03*
%TD*%
D10*
%TO.C,SW17*%
X96500000Y-76000000D03*
D11*
X102000000Y-76000000D03*
D10*
X107500000Y-76000000D03*
D12*
X102000000Y-70100000D03*
X107000000Y-72200000D03*
%TD*%
D10*
%TO.C,SW19*%
X24500000Y-94000000D03*
D11*
X30000000Y-94000000D03*
D10*
X35500000Y-94000000D03*
D12*
X30000000Y-88100000D03*
X35000000Y-90200000D03*
%TD*%
D10*
%TO.C,SW8*%
X42500000Y-58000000D03*
D11*
X48000000Y-58000000D03*
D10*
X53500000Y-58000000D03*
D12*
X48000000Y-52100000D03*
X53000000Y-54200000D03*
%TD*%
D10*
%TO.C,SW7*%
X24500000Y-58000000D03*
D11*
X30000000Y-58000000D03*
D10*
X35500000Y-58000000D03*
D12*
X30000000Y-52100000D03*
X35000000Y-54200000D03*
%TD*%
D10*
%TO.C,SW15*%
X60500000Y-76000000D03*
D11*
X66000000Y-76000000D03*
D10*
X71500000Y-76000000D03*
D12*
X66000000Y-70100000D03*
X71000000Y-72200000D03*
%TD*%
D13*
%TO.C,C11*%
X109550000Y-16500000D03*
X111450000Y-16500000D03*
%TD*%
D31*
%TO.C,Q1*%
X115062500Y-5550000D03*
X115062500Y-7450000D03*
X116937500Y-6500000D03*
%TD*%
D10*
%TO.C,SW11*%
X96500000Y-58000000D03*
D11*
X102000000Y-58000000D03*
D10*
X107500000Y-58000000D03*
D12*
X102000000Y-52100000D03*
X107000000Y-54200000D03*
%TD*%
D14*
%TO.C,R2*%
X67175000Y-7900000D03*
X68825000Y-7900000D03*
%TD*%
%TO.C,R12*%
X55175000Y-31000000D03*
X56825000Y-31000000D03*
%TD*%
%TO.C,R10*%
X11675000Y-24500000D03*
X13325000Y-24500000D03*
%TD*%
D10*
%TO.C,SW9*%
X60500000Y-58000000D03*
D11*
X66000000Y-58000000D03*
D10*
X71500000Y-58000000D03*
D12*
X66000000Y-52100000D03*
X71000000Y-54200000D03*
%TD*%
D10*
%TO.C,SW6*%
X114500000Y-40000000D03*
D11*
X120000000Y-40000000D03*
D10*
X125500000Y-40000000D03*
D12*
X120000000Y-34100000D03*
X125000000Y-36200000D03*
%TD*%
D15*
%TO.C,MH3*%
X6000000Y-104000000D03*
%TD*%
D10*
%TO.C,SW16*%
X78500000Y-76000000D03*
D11*
X84000000Y-76000000D03*
D10*
X89500000Y-76000000D03*
D12*
X84000000Y-70100000D03*
X89000000Y-72200000D03*
%TD*%
D14*
%TO.C,R8*%
X131175000Y-17000000D03*
X132825000Y-17000000D03*
%TD*%
D13*
%TO.C,C4*%
X24550000Y-21000000D03*
X26450000Y-21000000D03*
%TD*%
D32*
%TO.C,U5*%
X134300000Y-9950000D03*
X134300000Y-9000000D03*
X134300000Y-8050000D03*
X131700000Y-8050000D03*
X131700000Y-9950000D03*
%TD*%
D23*
%TO.C,C3*%
X20225000Y-21000000D03*
X21775000Y-21000000D03*
%TD*%
%TO.C,C5*%
X16725000Y-24500000D03*
X18275000Y-24500000D03*
%TD*%
D25*
%TO.C,SW27*%
X41000000Y-23650000D03*
X47000000Y-23650000D03*
X41000000Y-27350000D03*
X47000000Y-27350000D03*
%TD*%
D33*
%TO.C,J1*%
X77900000Y-5610000D03*
X72100000Y-5610000D03*
D34*
X70670000Y-6110000D03*
D35*
X70670000Y-1930000D03*
X79330000Y-1930000D03*
D34*
X79330000Y-6110000D03*
D36*
X78200000Y-6870000D03*
D37*
X77400000Y-6870000D03*
D38*
X76250000Y-6870000D03*
X75250000Y-6870000D03*
X74750000Y-6870000D03*
X73750000Y-6870000D03*
D39*
X71800000Y-6870000D03*
X72600000Y-6870000D03*
D38*
X73250000Y-6870000D03*
X74250000Y-6870000D03*
X75750000Y-6870000D03*
X76750000Y-6870000D03*
%TD*%
D40*
%TO.C,SW25*%
X145700000Y-49100000D03*
X145700000Y-40900000D03*
D41*
X145600000Y-46300000D03*
X145600000Y-45000000D03*
X145600000Y-43700000D03*
%TD*%
D10*
%TO.C,SW21*%
X60500000Y-94000000D03*
D11*
X66000000Y-94000000D03*
D10*
X71500000Y-94000000D03*
D12*
X66000000Y-88100000D03*
X71000000Y-90200000D03*
%TD*%
D42*
%TO.C,ENC1*%
X87460000Y-23250000D03*
X92540000Y-23250000D03*
X90000000Y-23250000D03*
X87460000Y-8750000D03*
X92540000Y-8750000D03*
D43*
X96250000Y-15750000D03*
X83750000Y-15750000D03*
%TD*%
D23*
%TO.C,C10*%
X62225000Y-31000000D03*
X63775000Y-31000000D03*
%TD*%
M02*
